<?xml version="1.0" encoding="UTF-8" standalone="no"?>
<!DOCTYPE svg PUBLIC "-//W3C//DTD SVG 1.1//EN" "http://www.w3.org/Graphics/SVG/1.1/DTD/svg11.dtd">
<svg xmlns="http://www.w3.org/2000/svg" version="1.1" viewBox="0.00 0.00 1123.00 745.00">
<g stroke-width="2.00" fill="none" stroke-linecap="butt">
<path stroke="#028178" vector-effect="non-scaling-stroke" d="
  M 562.50 0.00
  L 562.66 35.79"
/>
<path stroke="#01365b" vector-effect="non-scaling-stroke" d="
  M 562.66 35.79
  Q 560.73 37.49 557.97 39.96
  C 547.64 49.21 537.16 65.89 546.35 79.45
  Q 549.94 84.74 550.76 85.96
  C 555.91 93.62 554.42 104.35 548.77 111.82
  Q 542.49 120.12 542.03 120.76
  C 537.44 127.20 535.24 134.61 539.29 141.90
  A 0.51 0.51 0.0 0 1 538.98 142.64
  L 533.71 144.13
  A 0.62 0.61 78.9 0 1 532.93 143.60
  C 530.97 126.69 524.33 107.54 506.13 102.23
  C 503.53 101.47 500.18 101.17 497.04 100.87
  C 490.91 100.30 486.09 97.91 483.08 92.94
  C 479.73 87.41 477.81 80.01 477.07 72.90
  Q 476.37 66.20 475.99 64.29
  Q 472.01 44.34 454.57 36.56
  Q 451.31 35.11 444.98 33.91
  C 432.13 31.46 420.25 27.10 413.93 15.28
  A 0.67 0.67 0.0 0 0 412.67 15.64
  C 413.06 21.83 414.57 29.44 418.98 34.02
  C 423.65 38.85 427.79 42.00 432.77 45.39
  C 442.74 52.21 448.81 62.06 447.46 74.51
  Q 447.34 75.60 445.88 85.73
  C 444.06 98.32 450.36 110.04 460.55 117.46
  Q 464.72 120.49 468.12 122.89
  Q 479.47 130.88 482.38 144.78
  Q 482.53 145.50 483.70 154.03
  Q 485.01 163.57 492.38 168.17
  A 0.36 0.36 0.0 0 1 492.47 168.71
  L 482.11 180.89
  A 0.19 0.19 0.0 0 1 481.87 180.93
  Q 466.08 171.67 456.47 155.81
  Q 452.64 149.50 451.55 147.76
  Q 442.69 133.61 425.80 133.49
  Q 414.35 133.41 402.06 134.94
  Q 394.66 135.86 392.43 135.38
  Q 386.52 134.10 383.61 131.61
  C 376.96 125.90 372.42 117.69 369.08 109.69
  Q 364.16 97.92 363.48 96.52
  Q 351.39 71.63 324.58 67.25
  C 318.84 66.31 312.45 66.77 307.25 66.45
  C 289.17 65.33 274.69 57.03 263.68 42.69
  Q 256.31 33.09 251.50 21.28
  A 0.48 0.48 0.0 0 0 250.58 21.42
  Q 249.12 36.29 253.83 49.46
  C 260.88 69.21 279.26 79.68 299.32 84.42
  Q 303.30 85.36 310.30 86.99
  C 321.11 89.49 330.58 97.55 333.80 108.44
  Q 336.67 118.17 340.44 129.51
  Q 340.88 130.82 341.30 132.09
  Q 345.58 145.02 348.84 153.44
  Q 357.64 176.24 382.12 178.10
  Q 384.38 178.27 393.40 178.16
  C 405.74 178.01 415.49 187.49 422.04 197.70
  Q 427.36 205.98 429.79 209.45
  C 437.57 220.53 449.91 230.08 463.42 230.60
  A 0.58 0.58 0.0 0 1 463.98 231.22
  Q 461.95 260.47 476.06 286.20
  Q 486.87 305.91 505.23 319.11"
/>
<path stroke="#81b6da" vector-effect="non-scaling-stroke" d="
  M 505.23 319.11
  L 474.18 383.23"
/>
<path stroke="#01365b" vector-effect="non-scaling-stroke" d="
  M 474.18 383.23
  L 385.42 565.74"
/>
<path stroke="#81b6da" vector-effect="non-scaling-stroke" d="
  M 385.42 565.74
  L 298.33 745.00"
/>
<path stroke="#81cb9d" vector-effect="non-scaling-stroke" d="
  M 1123.00 744.50
  Q 1122.73 744.70 1122.61 745.00"
/>
<path stroke="#014b1d" vector-effect="non-scaling-stroke" d="
  M 826.49 745.00
  L 739.57 565.76"
/>
<path stroke="#81cb9d" vector-effect="non-scaling-stroke" d="
  M 739.57 565.76
  Q 695.39 474.77 651.11 383.68
  Q 651.00 383.44 650.85 383.34
  Q 650.63 383.19 650.45 383.23"
/>
<path stroke="#014b1d" vector-effect="non-scaling-stroke" d="
  M 650.45 383.23
  L 619.93 319.80
  A 0.77 0.76 59.9 0 1 620.18 318.84
  C 648.19 298.46 664.12 264.72 660.92 230.07
  A 0.51 0.50 0.5 0 1 661.48 229.52
  C 668.39 230.35 673.70 225.61 676.47 219.95
  Q 679.41 213.93 680.18 212.87
  C 686.67 203.91 695.97 204.29 707.44 203.86
  C 727.02 203.12 735.34 183.47 740.06 167.32
  Q 742.78 157.98 749.34 150.11
  Q 756.40 141.63 765.24 140.45
  Q 768.37 140.03 778.62 140.75"
/>
<path stroke="#80b11f" vector-effect="non-scaling-stroke" d="
  M 778.62 140.75
  L 789.41 140.60"
/>
<path stroke="#014b1d" vector-effect="non-scaling-stroke" d="
  M 789.41 140.60
  Q 803.52 139.87 810.06 126.86
  Q 812.17 122.65 812.77 120.01
  Q 814.17 113.83 817.75 102.27
  C 821.00 91.75 825.51 83.52 832.55 76.39
  Q 834.21 74.71 837.79 71.29
  A 0.63 0.63 0.0 0 0 837.33 70.21
  C 821.17 70.93 810.99 84.23 803.41 97.27
  C 800.90 101.58 798.28 104.68 795.06 107.80
  C 790.90 111.83 786.52 112.09 781.00 111.68
  C 777.32 111.40 774.82 110.70 770.05 109.52
  C 754.12 105.55 739.49 109.02 727.79 120.73
  C 721.77 126.75 718.18 134.26 714.48 140.71
  C 707.72 152.51 698.60 163.01 684.22 164.34
  C 679.93 164.74 674.17 163.27 669.76 162.74
  Q 650.99 160.51 637.92 173.68
  A 0.76 0.76 0.0 0 1 636.79 173.62
  Q 633.02 168.86 627.12 164.00
  A 0.81 0.80 -58.2 0 1 626.90 163.05
  C 632.19 151.53 643.88 145.42 655.55 142.62
  Q 663.87 140.62 666.24 139.71
  Q 685.68 132.23 690.03 110.08
  Q 691.77 101.22 690.87 92.72
  C 689.73 81.91 688.56 65.79 701.74 61.98
  Q 702.61 61.73 705.30 61.09
  C 721.91 57.17 730.82 43.41 736.20 28.35
  A 0.59 0.59 0.0 0 0 735.24 27.73
  C 728.87 33.84 721.56 39.71 713.63 42.78
  Q 704.34 46.38 690.97 46.79
  C 680.07 47.12 669.69 50.36 665.50 61.45
  Q 663.05 67.92 662.63 74.75
  Q 662.38 78.98 662.71 86.07
  Q 663.03 92.98 661.95 96.36
  C 658.81 106.13 648.85 111.66 639.09 113.31
  Q 636.06 113.82 630.54 114.26
  A 12.90 12.84 45.1 0 1 628.22 114.25
  Q 614.74 113.05 604.74 116.82
  Q 592.42 121.46 588.98 135.20
  Q 587.88 139.56 587.81 142.45
  A 0.41 0.41 0.0 0 1 587.32 142.84
  L 577.51 140.99
  A 1.27 1.26 -3.5 0 1 576.54 140.14
  Q 574.49 133.89 574.81 130.51
  Q 575.24 125.98 576.38 124.38
  C 581.74 116.85 589.04 108.55 586.41 98.49
  C 584.69 91.94 579.57 86.75 574.13 83.05
  Q 568.84 79.47 567.36 77.73
  C 554.46 62.71 571.28 39.24 581.70 27.74
  A 0.37 0.37 0.0 0 0 581.52 27.14
  Q 580.47 26.84 579.13 27.41
  Q 569.51 31.47 562.66 35.79"
/>
<path stroke="#7f6602" vector-effect="non-scaling-stroke" d="
  M 789.41 140.60
  Q 807.78 137.29 812.04 119.78
  Q 816.13 102.99 820.31 93.09
  C 822.45 88.01 826.26 81.71 829.49 78.47
  Q 836.04 71.92 836.35 71.59
  A 0.28 0.28 0.0 0 0 836.13 71.12
  C 820.42 72.24 810.74 86.50 803.29 99.06
  C 800.27 104.17 794.64 111.21 788.52 112.30
  C 780.73 113.69 771.86 110.66 766.01 109.57
  C 745.79 105.81 728.99 115.97 719.46 133.48
  C 711.82 147.53 702.46 163.60 684.54 165.04
  C 679.35 165.46 672.34 163.57 667.52 163.27
  Q 650.03 162.21 638.27 174.34
  A 0.63 0.63 0.0 0 0 638.24 175.18
  Q 657.37 198.37 660.75 228.23
  A 0.77 0.75 89.0 0 0 661.44 228.91
  C 669.66 229.62 673.84 223.79 677.13 217.06
  Q 679.35 212.52 681.40 210.28
  C 686.34 204.90 694.37 203.23 701.27 203.29
  Q 708.09 203.35 711.46 202.62
  C 725.89 199.50 733.23 186.28 737.52 172.63
  C 739.38 166.72 741.04 161.80 744.22 155.99
  C 749.35 146.66 758.23 139.61 769.02 139.49
  Q 773.89 139.44 778.62 140.75"
/>
<path stroke="#808080" vector-effect="non-scaling-stroke" d="
  M 650.45 383.23
  L 563.06 383.22
  A 0.56 0.56 0.0 0 0 562.50 383.78
  L 562.50 565.75"
/>
<path stroke="#808080" vector-effect="non-scaling-stroke" d="
  M 562.50 565.75
  L 385.42 565.74"
/>
<path stroke="#808080" vector-effect="non-scaling-stroke" d="
  M 474.18 383.23
  L 562.00 383.24
  A 0.50 0.50 0.0 0 0 562.50 382.74
  L 562.21 202.55"
/>
<path stroke="#7f6602" vector-effect="non-scaling-stroke" d="
  M 562.21 202.55
  L 562.36 202.11
  A 0.79 0.78 -14.7 0 1 563.13 202.55
  L 619.24 318.05
  A 0.45 0.44 59.3 0 0 619.90 318.22
  Q 639.63 303.71 650.26 282.42
  C 669.23 244.40 661.49 198.16 631.16 168.57
  C 593.70 132.03 534.00 131.04 495.63 166.85
  Q 472.59 188.36 466.28 219.73
  Q 462.51 238.48 465.98 256.51
  Q 473.37 294.90 505.48 318.53"
/>
<path stroke="#808080" vector-effect="non-scaling-stroke" d="
  M 505.48 318.53
  Q 505.56 318.07 505.23 319.11"
/>
<path stroke="#7f6602" vector-effect="non-scaling-stroke" d="
  M 414.38 17.76
  A 0.24 0.24 0.0 0 0 413.94 17.90
  Q 414.38 24.79 417.30 30.24
  C 419.52 34.38 424.82 38.75 428.79 41.47
  Q 435.24 45.87 438.55 48.93
  Q 450.48 59.95 448.11 76.51
  Q 446.85 85.29 446.73 86.57
  Q 445.36 101.75 455.95 112.06
  C 458.37 114.42 459.45 115.70 461.84 117.37
  Q 468.37 121.91 469.75 122.99
  C 477.71 129.21 482.70 137.87 483.74 147.83
  C 484.58 155.84 485.66 162.93 492.85 167.56
  A 0.98 0.97 39.1 0 0 494.05 167.44
  Q 506.56 155.43 522.54 148.29
  Q 523.92 147.67 531.88 144.61
  A 0.68 0.68 0.0 0 0 532.30 143.88
  C 529.79 127.27 524.13 108.49 505.88 103.04
  C 500.98 101.58 495.52 102.20 490.80 100.42
  C 480.19 96.44 477.18 82.32 476.13 72.35
  Q 475.34 64.82 474.63 62.11
  Q 468.74 39.55 445.53 34.85
  C 432.70 32.25 421.42 28.82 414.38 17.76"
/>
<path stroke="#7f6602" vector-effect="non-scaling-stroke" d="
  M 251.33 23.91
  C 249.68 45.14 258.01 64.13 276.76 74.75
  Q 286.38 80.20 295.07 82.36
  Q 305.54 84.96 310.95 86.33
  Q 323.98 89.63 330.94 100.20
  Q 333.46 104.04 336.28 113.40
  Q 340.23 126.58 347.09 146.36
  Q 351.18 158.17 355.04 163.26
  C 363.50 174.39 375.58 178.03 389.93 177.22
  C 408.61 176.16 418.74 189.91 427.50 204.51
  Q 432.66 213.11 441.18 220.47
  C 447.68 226.07 455.31 229.40 463.46 229.97
  A 0.64 0.64 0.0 0 0 464.15 229.39
  C 465.80 212.32 471.77 196.31 481.40 182.05
  A 0.54 0.53 32.0 0 0 481.22 181.28
  C 469.76 174.81 460.82 165.47 454.31 154.03
  Q 451.26 148.65 449.84 146.73
  Q 440.91 134.59 426.98 134.41
  Q 416.28 134.27 402.75 135.77
  Q 394.23 136.71 391.78 136.17
  C 384.83 134.64 380.55 130.75 376.42 124.88
  Q 371.52 117.90 368.92 111.51
  Q 364.13 99.72 361.89 95.41
  Q 349.47 71.50 323.45 68.02
  C 319.41 67.48 315.34 67.44 310.04 67.41
  C 282.12 67.27 262.01 48.33 251.68 23.86
  A 0.18 0.18 0.0 0 0 251.33 23.91"
/>
<path stroke="#7f6602" vector-effect="non-scaling-stroke" d="
  M 575.98 140.37
  C 573.10 133.09 573.21 126.71 578.30 120.49
  Q 583.78 113.80 585.35 107.92
  C 588.67 95.56 580.32 88.31 571.39 82.25
  C 550.47 68.07 568.50 41.70 579.92 28.44
  A 0.14 0.14 0.0 0 0 579.77 28.21
  Q 561.53 34.33 550.48 49.70
  C 544.00 58.72 540.75 69.27 547.25 79.28
  Q 547.82 80.16 551.18 85.02
  C 556.82 93.21 555.42 104.19 549.53 112.06
  C 542.98 120.80 533.78 129.58 539.96 141.75
  A 0.79 0.79 0.0 0 0 540.81 142.17
  Q 548.98 140.70 552.13 140.39
  Q 563.98 139.24 575.69 140.74
  A 0.28 0.27 83.4 0 0 575.98 140.37"
/>
<path stroke="#7f6602" vector-effect="non-scaling-stroke" d="
  M 588.98 143.46
  Q 609.49 149.27 625.69 162.69
  A 0.48 0.47 -57.8 0 0 626.42 162.52
  C 631.70 150.90 643.88 144.68 655.77 141.81
  Q 663.69 139.90 666.57 138.72
  Q 684.75 131.26 689.13 110.89
  Q 690.95 102.43 690.25 95.50
  C 689.02 83.26 687.13 65.92 701.48 61.25
  C 704.13 60.38 707.25 59.99 709.92 58.77
  Q 719.29 54.49 724.21 48.65
  Q 731.17 40.37 734.86 29.58
  A 0.21 0.21 0.0 0 0 734.51 29.36
  C 725.19 38.50 714.97 44.79 701.75 46.72
  Q 698.05 47.26 692.72 47.45
  C 679.28 47.92 668.33 51.57 664.79 65.79
  Q 663.03 72.84 663.20 80.76
  C 663.28 84.94 664.12 90.97 663.17 94.76
  C 659.87 107.99 646.72 113.71 634.07 114.85
  Q 630.41 115.18 622.92 114.87
  C 607.11 114.22 592.69 119.72 589.34 136.80
  Q 589.12 137.90 588.44 142.64
  A 0.75 0.74 12.0 0 0 588.98 143.46"
/>
<path stroke="#ffe681" vector-effect="non-scaling-stroke" d="
  M 562.21 202.55
  L 505.48 318.53"
/>
<path stroke="#808080" vector-effect="non-scaling-stroke" d="
  M 739.57 565.76
  L 562.50 565.75"
/>
<path stroke="#808080" vector-effect="non-scaling-stroke" d="
  M 562.50 565.75
  L 562.51 745.00"
/>
</g>
<path fill="#026cb5" d="
  M 562.50 0.00
  L 562.66 35.79
  Q 560.73 37.49 557.97 39.96
  C 547.64 49.21 537.16 65.89 546.35 79.45
  Q 549.94 84.74 550.76 85.96
  C 555.91 93.62 554.42 104.35 548.77 111.82
  Q 542.49 120.12 542.03 120.76
  C 537.44 127.20 535.24 134.61 539.29 141.90
  A 0.51 0.51 0.0 0 1 538.98 142.64
  L 533.71 144.13
  A 0.62 0.61 78.9 0 1 532.93 143.60
  C 530.97 126.69 524.33 107.54 506.13 102.23
  C 503.53 101.47 500.18 101.17 497.04 100.87
  C 490.91 100.30 486.09 97.91 483.08 92.94
  C 479.73 87.41 477.81 80.01 477.07 72.90
  Q 476.37 66.20 475.99 64.29
  Q 472.01 44.34 454.57 36.56
  Q 451.31 35.11 444.98 33.91
  C 432.13 31.46 420.25 27.10 413.93 15.28
  A 0.67 0.67 0.0 0 0 412.67 15.64
  C 413.06 21.83 414.57 29.44 418.98 34.02
  C 423.65 38.85 427.79 42.00 432.77 45.39
  C 442.74 52.21 448.81 62.06 447.46 74.51
  Q 447.34 75.60 445.88 85.73
  C 444.06 98.32 450.36 110.04 460.55 117.46
  Q 464.72 120.49 468.12 122.89
  Q 479.47 130.88 482.38 144.78
  Q 482.53 145.50 483.70 154.03
  Q 485.01 163.57 492.38 168.17
  A 0.36 0.36 0.0 0 1 492.47 168.71
  L 482.11 180.89
  A 0.19 0.19 0.0 0 1 481.87 180.93
  Q 466.08 171.67 456.47 155.81
  Q 452.64 149.50 451.55 147.76
  Q 442.69 133.61 425.80 133.49
  Q 414.35 133.41 402.06 134.94
  Q 394.66 135.86 392.43 135.38
  Q 386.52 134.10 383.61 131.61
  C 376.96 125.90 372.42 117.69 369.08 109.69
  Q 364.16 97.92 363.48 96.52
  Q 351.39 71.63 324.58 67.25
  C 318.84 66.31 312.45 66.77 307.25 66.45
  C 289.17 65.33 274.69 57.03 263.68 42.69
  Q 256.31 33.09 251.50 21.28
  A 0.48 0.48 0.0 0 0 250.58 21.42
  Q 249.12 36.29 253.83 49.46
  C 260.88 69.21 279.26 79.68 299.32 84.42
  Q 303.30 85.36 310.30 86.99
  C 321.11 89.49 330.58 97.55 333.80 108.44
  Q 336.67 118.17 340.44 129.51
  Q 340.88 130.82 341.30 132.09
  Q 345.58 145.02 348.84 153.44
  Q 357.64 176.24 382.12 178.10
  Q 384.38 178.27 393.40 178.16
  C 405.74 178.01 415.49 187.49 422.04 197.70
  Q 427.36 205.98 429.79 209.45
  C 437.57 220.53 449.91 230.08 463.42 230.60
  A 0.58 0.58 0.0 0 1 463.98 231.22
  Q 461.95 260.47 476.06 286.20
  Q 486.87 305.91 505.23 319.11
  L 474.18 383.23
  L 385.42 565.74
  L 298.33 745.00
  L 0.00 745.00
  L 0.00 0.00
  L 562.50 0.00
  Z"
/>
<path fill="#02963a" d="
  M 1123.00 0.00
  L 1123.00 744.50
  Q 1122.73 744.70 1122.61 745.00
  L 826.49 745.00
  L 739.57 565.76
  Q 695.39 474.77 651.11 383.68
  Q 651.00 383.44 650.85 383.34
  Q 650.63 383.19 650.45 383.23
  L 619.93 319.80
  A 0.77 0.76 59.9 0 1 620.18 318.84
  C 648.19 298.46 664.12 264.72 660.92 230.07
  A 0.51 0.50 0.5 0 1 661.48 229.52
  C 668.39 230.35 673.70 225.61 676.47 219.95
  Q 679.41 213.93 680.18 212.87
  C 686.67 203.91 695.97 204.29 707.44 203.86
  C 727.02 203.12 735.34 183.47 740.06 167.32
  Q 742.78 157.98 749.34 150.11
  Q 756.40 141.63 765.24 140.45
  Q 768.37 140.03 778.62 140.75
  L 789.41 140.60
  Q 803.52 139.87 810.06 126.86
  Q 812.17 122.65 812.77 120.01
  Q 814.17 113.83 817.75 102.27
  C 821.00 91.75 825.51 83.52 832.55 76.39
  Q 834.21 74.71 837.79 71.29
  A 0.63 0.63 0.0 0 0 837.33 70.21
  C 821.17 70.93 810.99 84.23 803.41 97.27
  C 800.90 101.58 798.28 104.68 795.06 107.80
  C 790.90 111.83 786.52 112.09 781.00 111.68
  C 777.32 111.40 774.82 110.70 770.05 109.52
  C 754.12 105.55 739.49 109.02 727.79 120.73
  C 721.77 126.75 718.18 134.26 714.48 140.71
  C 707.72 152.51 698.60 163.01 684.22 164.34
  C 679.93 164.74 674.17 163.27 669.76 162.74
  Q 650.99 160.51 637.92 173.68
  A 0.76 0.76 0.0 0 1 636.79 173.62
  Q 633.02 168.86 627.12 164.00
  A 0.81 0.80 -58.2 0 1 626.90 163.05
  C 632.19 151.53 643.88 145.42 655.55 142.62
  Q 663.87 140.62 666.24 139.71
  Q 685.68 132.23 690.03 110.08
  Q 691.77 101.22 690.87 92.72
  C 689.73 81.91 688.56 65.79 701.74 61.98
  Q 702.61 61.73 705.30 61.09
  C 721.91 57.17 730.82 43.41 736.20 28.35
  A 0.59 0.59 0.0 0 0 735.24 27.73
  C 728.87 33.84 721.56 39.71 713.63 42.78
  Q 704.34 46.38 690.97 46.79
  C 680.07 47.12 669.69 50.36 665.50 61.45
  Q 663.05 67.92 662.63 74.75
  Q 662.38 78.98 662.71 86.07
  Q 663.03 92.98 661.95 96.36
  C 658.81 106.13 648.85 111.66 639.09 113.31
  Q 636.06 113.82 630.54 114.26
  A 12.90 12.84 45.1 0 1 628.22 114.25
  Q 614.74 113.05 604.74 116.82
  Q 592.42 121.46 588.98 135.20
  Q 587.88 139.56 587.81 142.45
  A 0.41 0.41 0.0 0 1 587.32 142.84
  L 577.51 140.99
  A 1.27 1.26 -3.5 0 1 576.54 140.14
  Q 574.49 133.89 574.81 130.51
  Q 575.24 125.98 576.38 124.38
  C 581.74 116.85 589.04 108.55 586.41 98.49
  C 584.69 91.94 579.57 86.75 574.13 83.05
  Q 568.84 79.47 567.36 77.73
  C 554.46 62.71 571.28 39.24 581.70 27.74
  A 0.37 0.37 0.0 0 0 581.52 27.14
  Q 580.47 26.84 579.13 27.41
  Q 569.51 31.47 562.66 35.79
  L 562.50 0.00
  L 1123.00 0.00
  Z"
/>
<path fill="#000000" d="
  M 562.66 35.79
  Q 569.51 31.47 579.13 27.41
  Q 580.47 26.84 581.52 27.14
  A 0.37 0.37 0.0 0 1 581.70 27.74
  C 571.28 39.24 554.46 62.71 567.36 77.73
  Q 568.84 79.47 574.13 83.05
  C 579.57 86.75 584.69 91.94 586.41 98.49
  C 589.04 108.55 581.74 116.85 576.38 124.38
  Q 575.24 125.98 574.81 130.51
  Q 574.49 133.89 576.54 140.14
  A 1.27 1.26 -3.5 0 0 577.51 140.99
  L 587.32 142.84
  A 0.41 0.41 0.0 0 0 587.81 142.45
  Q 587.88 139.56 588.98 135.20
  Q 592.42 121.46 604.74 116.82
  Q 614.74 113.05 628.22 114.25
  A 12.90 12.84 45.1 0 0 630.54 114.26
  Q 636.06 113.82 639.09 113.31
  C 648.85 111.66 658.81 106.13 661.95 96.36
  Q 663.03 92.98 662.71 86.07
  Q 662.38 78.98 662.63 74.75
  Q 663.05 67.92 665.50 61.45
  C 669.69 50.36 680.07 47.12 690.97 46.79
  Q 704.34 46.38 713.63 42.78
  C 721.56 39.71 728.87 33.84 735.24 27.73
  A 0.59 0.59 0.0 0 1 736.20 28.35
  C 730.82 43.41 721.91 57.17 705.30 61.09
  Q 702.61 61.73 701.74 61.98
  C 688.56 65.79 689.73 81.91 690.87 92.72
  Q 691.77 101.22 690.03 110.08
  Q 685.68 132.23 666.24 139.71
  Q 663.87 140.62 655.55 142.62
  C 643.88 145.42 632.19 151.53 626.90 163.05
  A 0.81 0.80 -58.2 0 0 627.12 164.00
  Q 633.02 168.86 636.79 173.62
  A 0.76 0.76 0.0 0 0 637.92 173.68
  Q 650.99 160.51 669.76 162.74
  C 674.17 163.27 679.93 164.74 684.22 164.34
  C 698.60 163.01 707.72 152.51 714.48 140.71
  C 718.18 134.26 721.77 126.75 727.79 120.73
  C 739.49 109.02 754.12 105.55 770.05 109.52
  C 774.82 110.70 777.32 111.40 781.00 111.68
  C 786.52 112.09 790.90 111.83 795.06 107.80
  C 798.28 104.68 800.90 101.58 803.41 97.27
  C 810.99 84.23 821.17 70.93 837.33 70.21
  A 0.63 0.63 0.0 0 1 837.79 71.29
  Q 834.21 74.71 832.55 76.39
  C 825.51 83.52 821.00 91.75 817.75 102.27
  Q 814.17 113.83 812.77 120.01
  Q 812.17 122.65 810.06 126.86
  Q 803.52 139.87 789.41 140.60
  Q 807.78 137.29 812.04 119.78
  Q 816.13 102.99 820.31 93.09
  C 822.45 88.01 826.26 81.71 829.49 78.47
  Q 836.04 71.92 836.35 71.59
  A 0.28 0.28 0.0 0 0 836.13 71.12
  C 820.42 72.24 810.74 86.50 803.29 99.06
  C 800.27 104.17 794.64 111.21 788.52 112.30
  C 780.73 113.69 771.86 110.66 766.01 109.57
  C 745.79 105.81 728.99 115.97 719.46 133.48
  C 711.82 147.53 702.46 163.60 684.54 165.04
  C 679.35 165.46 672.34 163.57 667.52 163.27
  Q 650.03 162.21 638.27 174.34
  A 0.63 0.63 0.0 0 0 638.24 175.18
  Q 657.37 198.37 660.75 228.23
  A 0.77 0.75 89.0 0 0 661.44 228.91
  C 669.66 229.62 673.84 223.79 677.13 217.06
  Q 679.35 212.52 681.40 210.28
  C 686.34 204.90 694.37 203.23 701.27 203.29
  Q 708.09 203.35 711.46 202.62
  C 725.89 199.50 733.23 186.28 737.52 172.63
  C 739.38 166.72 741.04 161.80 744.22 155.99
  C 749.35 146.66 758.23 139.61 769.02 139.49
  Q 773.89 139.44 778.62 140.75
  Q 768.37 140.03 765.24 140.45
  Q 756.40 141.63 749.34 150.11
  Q 742.78 157.98 740.06 167.32
  C 735.34 183.47 727.02 203.12 707.44 203.86
  C 695.97 204.29 686.67 203.91 680.18 212.87
  Q 679.41 213.93 676.47 219.95
  C 673.70 225.61 668.39 230.35 661.48 229.52
  A 0.51 0.50 0.5 0 0 660.92 230.07
  C 664.12 264.72 648.19 298.46 620.18 318.84
  A 0.77 0.76 59.9 0 0 619.93 319.80
  L 650.45 383.23
  L 563.06 383.22
  A 0.56 0.56 0.0 0 0 562.50 383.78
  L 562.50 565.75
  L 385.42 565.74
  L 474.18 383.23
  L 562.00 383.24
  A 0.50 0.50 0.0 0 0 562.50 382.74
  L 562.21 202.55
  L 562.36 202.11
  A 0.79 0.78 -14.7 0 1 563.13 202.55
  L 619.24 318.05
  A 0.45 0.44 59.3 0 0 619.90 318.22
  Q 639.63 303.71 650.26 282.42
  C 669.23 244.40 661.49 198.16 631.16 168.57
  C 593.70 132.03 534.00 131.04 495.63 166.85
  Q 472.59 188.36 466.28 219.73
  Q 462.51 238.48 465.98 256.51
  Q 473.37 294.90 505.48 318.53
  Q 505.56 318.07 505.23 319.11
  Q 486.87 305.91 476.06 286.20
  Q 461.95 260.47 463.98 231.22
  A 0.58 0.58 0.0 0 0 463.42 230.60
  C 449.91 230.08 437.57 220.53 429.79 209.45
  Q 427.36 205.98 422.04 197.70
  C 415.49 187.49 405.74 178.01 393.40 178.16
  Q 384.38 178.27 382.12 178.10
  Q 357.64 176.24 348.84 153.44
  Q 345.58 145.02 341.30 132.09
  Q 340.88 130.82 340.44 129.51
  Q 336.67 118.17 333.80 108.44
  C 330.58 97.55 321.11 89.49 310.30 86.99
  Q 303.30 85.36 299.32 84.42
  C 279.26 79.68 260.88 69.21 253.83 49.46
  Q 249.12 36.29 250.58 21.42
  A 0.48 0.48 0.0 0 1 251.50 21.28
  Q 256.31 33.09 263.68 42.69
  C 274.69 57.03 289.17 65.33 307.25 66.45
  C 312.45 66.77 318.84 66.31 324.58 67.25
  Q 351.39 71.63 363.48 96.52
  Q 364.16 97.92 369.08 109.69
  C 372.42 117.69 376.96 125.90 383.61 131.61
  Q 386.52 134.10 392.43 135.38
  Q 394.66 135.86 402.06 134.94
  Q 414.35 133.41 425.80 133.49
  Q 442.69 133.61 451.55 147.76
  Q 452.64 149.50 456.47 155.81
  Q 466.08 171.67 481.87 180.93
  A 0.19 0.19 0.0 0 0 482.11 180.89
  L 492.47 168.71
  A 0.36 0.36 0.0 0 0 492.38 168.17
  Q 485.01 163.57 483.70 154.03
  Q 482.53 145.50 482.38 144.78
  Q 479.47 130.88 468.12 122.89
  Q 464.72 120.49 460.55 117.46
  C 450.36 110.04 444.06 98.32 445.88 85.73
  Q 447.34 75.60 447.46 74.51
  C 448.81 62.06 442.74 52.21 432.77 45.39
  C 427.79 42.00 423.65 38.85 418.98 34.02
  C 414.57 29.44 413.06 21.83 412.67 15.64
  A 0.67 0.67 0.0 0 1 413.93 15.28
  C 420.25 27.10 432.13 31.46 444.98 33.91
  Q 451.31 35.11 454.57 36.56
  Q 472.01 44.34 475.99 64.29
  Q 476.37 66.20 477.07 72.90
  C 477.81 80.01 479.73 87.41 483.08 92.94
  C 486.09 97.91 490.91 100.30 497.04 100.87
  C 500.18 101.17 503.53 101.47 506.13 102.23
  C 524.33 107.54 530.97 126.69 532.93 143.60
  A 0.62 0.61 78.9 0 0 533.71 144.13
  L 538.98 142.64
  A 0.51 0.51 0.0 0 0 539.29 141.90
  C 535.24 134.61 537.44 127.20 542.03 120.76
  Q 542.49 120.12 548.77 111.82
  C 554.42 104.35 555.91 93.62 550.76 85.96
  Q 549.94 84.74 546.35 79.45
  C 537.16 65.89 547.64 49.21 557.97 39.96
  Q 560.73 37.49 562.66 35.79
  Z
  M 414.38 17.76
  A 0.24 0.24 0.0 0 0 413.94 17.90
  Q 414.38 24.79 417.30 30.24
  C 419.52 34.38 424.82 38.75 428.79 41.47
  Q 435.24 45.87 438.55 48.93
  Q 450.48 59.95 448.11 76.51
  Q 446.85 85.29 446.73 86.57
  Q 445.36 101.75 455.95 112.06
  C 458.37 114.42 459.45 115.70 461.84 117.37
  Q 468.37 121.91 469.75 122.99
  C 477.71 129.21 482.70 137.87 483.74 147.83
  C 484.58 155.84 485.66 162.93 492.85 167.56
  A 0.98 0.97 39.1 0 0 494.05 167.44
  Q 506.56 155.43 522.54 148.29
  Q 523.92 147.67 531.88 144.61
  A 0.68 0.68 0.0 0 0 532.30 143.88
  C 529.79 127.27 524.13 108.49 505.88 103.04
  C 500.98 101.58 495.52 102.20 490.80 100.42
  C 480.19 96.44 477.18 82.32 476.13 72.35
  Q 475.34 64.82 474.63 62.11
  Q 468.74 39.55 445.53 34.85
  C 432.70 32.25 421.42 28.82 414.38 17.76
  Z
  M 251.33 23.91
  C 249.68 45.14 258.01 64.13 276.76 74.75
  Q 286.38 80.20 295.07 82.36
  Q 305.54 84.96 310.95 86.33
  Q 323.98 89.63 330.94 100.20
  Q 333.46 104.04 336.28 113.40
  Q 340.23 126.58 347.09 146.36
  Q 351.18 158.17 355.04 163.26
  C 363.50 174.39 375.58 178.03 389.93 177.22
  C 408.61 176.16 418.74 189.91 427.50 204.51
  Q 432.66 213.11 441.18 220.47
  C 447.68 226.07 455.31 229.40 463.46 229.97
  A 0.64 0.64 0.0 0 0 464.15 229.39
  C 465.80 212.32 471.77 196.31 481.40 182.05
  A 0.54 0.53 32.0 0 0 481.22 181.28
  C 469.76 174.81 460.82 165.47 454.31 154.03
  Q 451.26 148.65 449.84 146.73
  Q 440.91 134.59 426.98 134.41
  Q 416.28 134.27 402.75 135.77
  Q 394.23 136.71 391.78 136.17
  C 384.83 134.64 380.55 130.75 376.42 124.88
  Q 371.52 117.90 368.92 111.51
  Q 364.13 99.72 361.89 95.41
  Q 349.47 71.50 323.45 68.02
  C 319.41 67.48 315.34 67.44 310.04 67.41
  C 282.12 67.27 262.01 48.33 251.68 23.86
  A 0.18 0.18 0.0 0 0 251.33 23.91
  Z
  M 575.98 140.37
  C 573.10 133.09 573.21 126.71 578.30 120.49
  Q 583.78 113.80 585.35 107.92
  C 588.67 95.56 580.32 88.31 571.39 82.25
  C 550.47 68.07 568.50 41.70 579.92 28.44
  A 0.14 0.14 0.0 0 0 579.77 28.21
  Q 561.53 34.33 550.48 49.70
  C 544.00 58.72 540.75 69.27 547.25 79.28
  Q 547.82 80.16 551.18 85.02
  C 556.82 93.21 555.42 104.19 549.53 112.06
  C 542.98 120.80 533.78 129.58 539.96 141.75
  A 0.79 0.79 0.0 0 0 540.81 142.17
  Q 548.98 140.70 552.13 140.39
  Q 563.98 139.24 575.69 140.74
  A 0.28 0.27 83.4 0 0 575.98 140.37
  Z
  M 588.98 143.46
  Q 609.49 149.27 625.69 162.69
  A 0.48 0.47 -57.8 0 0 626.42 162.52
  C 631.70 150.90 643.88 144.68 655.77 141.81
  Q 663.69 139.90 666.57 138.72
  Q 684.75 131.26 689.13 110.89
  Q 690.95 102.43 690.25 95.50
  C 689.02 83.26 687.13 65.92 701.48 61.25
  C 704.13 60.38 707.25 59.99 709.92 58.77
  Q 719.29 54.49 724.21 48.65
  Q 731.17 40.37 734.86 29.58
  A 0.21 0.21 0.0 0 0 734.51 29.36
  C 725.19 38.50 714.97 44.79 701.75 46.72
  Q 698.05 47.26 692.72 47.45
  C 679.28 47.92 668.33 51.57 664.79 65.79
  Q 663.03 72.84 663.20 80.76
  C 663.28 84.94 664.12 90.97 663.17 94.76
  C 659.87 107.99 646.72 113.71 634.07 114.85
  Q 630.41 115.18 622.92 114.87
  C 607.11 114.22 592.69 119.72 589.34 136.80
  Q 589.12 137.90 588.44 142.64
  A 0.75 0.74 12.0 0 0 588.98 143.46
  Z"
/>
<path fill="#fecc03" d="
  M 414.38 17.76
  C 421.42 28.82 432.70 32.25 445.53 34.85
  Q 468.74 39.55 474.63 62.11
  Q 475.34 64.82 476.13 72.35
  C 477.18 82.32 480.19 96.44 490.80 100.42
  C 495.52 102.20 500.98 101.58 505.88 103.04
  C 524.13 108.49 529.79 127.27 532.30 143.88
  A 0.68 0.68 0.0 0 1 531.88 144.61
  Q 523.92 147.67 522.54 148.29
  Q 506.56 155.43 494.05 167.44
  A 0.98 0.97 39.1 0 1 492.85 167.56
  C 485.66 162.93 484.58 155.84 483.74 147.83
  C 482.70 137.87 477.71 129.21 469.75 122.99
  Q 468.37 121.91 461.84 117.37
  C 459.45 115.70 458.37 114.42 455.95 112.06
  Q 445.36 101.75 446.73 86.57
  Q 446.85 85.29 448.11 76.51
  Q 450.48 59.95 438.55 48.93
  Q 435.24 45.87 428.79 41.47
  C 424.82 38.75 419.52 34.38 417.30 30.24
  Q 414.38 24.79 413.94 17.90
  A 0.24 0.24 0.0 0 1 414.38 17.76
  Z"
/>
<path fill="#fecc03" d="
  M 251.33 23.91
  A 0.18 0.18 0.0 0 1 251.68 23.86
  C 262.01 48.33 282.12 67.27 310.04 67.41
  C 315.34 67.44 319.41 67.48 323.45 68.02
  Q 349.47 71.50 361.89 95.41
  Q 364.13 99.72 368.92 111.51
  Q 371.52 117.90 376.42 124.88
  C 380.55 130.75 384.83 134.64 391.78 136.17
  Q 394.23 136.71 402.75 135.77
  Q 416.28 134.27 426.98 134.41
  Q 440.91 134.59 449.84 146.73
  Q 451.26 148.65 454.31 154.03
  C 460.82 165.47 469.76 174.81 481.22 181.28
  A 0.54 0.53 32.0 0 1 481.40 182.05
  C 471.77 196.31 465.80 212.32 464.15 229.39
  A 0.64 0.64 0.0 0 1 463.46 229.97
  C 455.31 229.40 447.68 226.07 441.18 220.47
  Q 432.66 213.11 427.50 204.51
  C 418.74 189.91 408.61 176.16 389.93 177.22
  C 375.58 178.03 363.50 174.39 355.04 163.26
  Q 351.18 158.17 347.09 146.36
  Q 340.23 126.58 336.28 113.40
  Q 333.46 104.04 330.94 100.20
  Q 323.98 89.63 310.95 86.33
  Q 305.54 84.96 295.07 82.36
  Q 286.38 80.20 276.76 74.75
  C 258.01 64.13 249.68 45.14 251.33 23.91
  Z"
/>
<path fill="#fecc03" d="
  M 575.98 140.37
  A 0.28 0.27 83.4 0 1 575.69 140.74
  Q 563.98 139.24 552.13 140.39
  Q 548.98 140.70 540.81 142.17
  A 0.79 0.79 0.0 0 1 539.96 141.75
  C 533.78 129.58 542.98 120.80 549.53 112.06
  C 555.42 104.19 556.82 93.21 551.18 85.02
  Q 547.82 80.16 547.25 79.28
  C 540.75 69.27 544.00 58.72 550.48 49.70
  Q 561.53 34.33 579.77 28.21
  A 0.14 0.14 0.0 0 1 579.92 28.44
  C 568.50 41.70 550.47 68.07 571.39 82.25
  C 580.32 88.31 588.67 95.56 585.35 107.92
  Q 583.78 113.80 578.30 120.49
  C 573.21 126.71 573.10 133.09 575.98 140.37
  Z"
/>
<path fill="#fecc03" d="
  M 588.44 142.64
  Q 589.12 137.90 589.34 136.80
  C 592.69 119.72 607.11 114.22 622.92 114.87
  Q 630.41 115.18 634.07 114.85
  C 646.72 113.71 659.87 107.99 663.17 94.76
  C 664.12 90.97 663.28 84.94 663.20 80.76
  Q 663.03 72.84 664.79 65.79
  C 668.33 51.57 679.28 47.92 692.72 47.45
  Q 698.05 47.26 701.75 46.72
  C 714.97 44.79 725.19 38.50 734.51 29.36
  A 0.21 0.21 0.0 0 1 734.86 29.58
  Q 731.17 40.37 724.21 48.65
  Q 719.29 54.49 709.92 58.77
  C 707.25 59.99 704.13 60.38 701.48 61.25
  C 687.13 65.92 689.02 83.26 690.25 95.50
  Q 690.95 102.43 689.13 110.89
  Q 684.75 131.26 666.57 138.72
  Q 663.69 139.90 655.77 141.81
  C 643.88 144.68 631.70 150.90 626.42 162.52
  A 0.48 0.47 -57.8 0 1 625.69 162.69
  Q 609.49 149.27 588.98 143.46
  A 0.75 0.74 12.0 0 1 588.44 142.64
  Z"
/>
<path fill="#fecc03" d="
  M 789.41 140.60
  L 778.62 140.75
  Q 773.89 139.44 769.02 139.49
  C 758.23 139.61 749.35 146.66 744.22 155.99
  C 741.04 161.80 739.38 166.72 737.52 172.63
  C 733.23 186.28 725.89 199.50 711.46 202.62
  Q 708.09 203.35 701.27 203.29
  C 694.37 203.23 686.34 204.90 681.40 210.28
  Q 679.35 212.52 677.13 217.06
  C 673.84 223.79 669.66 229.62 661.44 228.91
  A 0.77 0.75 89.0 0 1 660.75 228.23
  Q 657.37 198.37 638.24 175.18
  A 0.63 0.63 0.0 0 1 638.27 174.34
  Q 650.03 162.21 667.52 163.27
  C 672.34 163.57 679.35 165.46 684.54 165.04
  C 702.46 163.60 711.82 147.53 719.46 133.48
  C 728.99 115.97 745.79 105.81 766.01 109.57
  C 771.86 110.66 780.73 113.69 788.52 112.30
  C 794.64 111.21 800.27 104.17 803.29 99.06
  C 810.74 86.50 820.42 72.24 836.13 71.12
  A 0.28 0.28 0.0 0 1 836.35 71.59
  Q 836.04 71.92 829.49 78.47
  C 826.26 81.71 822.45 88.01 820.31 93.09
  Q 816.13 102.99 812.04 119.78
  Q 807.78 137.29 789.41 140.60
  Z"
/>
<path fill="#fecc03" d="
  M 562.21 202.55
  L 505.48 318.53
  Q 473.37 294.90 465.98 256.51
  Q 462.51 238.48 466.28 219.73
  Q 472.59 188.36 495.63 166.85
  C 534.00 131.04 593.70 132.03 631.16 168.57
  C 661.49 198.16 669.23 244.40 650.26 282.42
  Q 639.63 303.71 619.90 318.22
  A 0.45 0.44 59.3 0 1 619.24 318.05
  L 563.13 202.55
  A 0.79 0.78 -14.7 0 0 562.36 202.11
  L 562.21 202.55
  Z"
/>
<path fill="#ffffff" d="
  M 562.21 202.55
  L 562.50 382.74
  A 0.50 0.50 0.0 0 1 562.00 383.24
  L 474.18 383.23
  L 505.23 319.11
  Q 505.56 318.07 505.48 318.53
  L 562.21 202.55
  Z"
/>
<path fill="#ffffff" d="
  M 650.45 383.23
  Q 650.63 383.19 650.85 383.34
  Q 651.00 383.44 651.11 383.68
  Q 695.39 474.77 739.57 565.76
  L 562.50 565.75
  L 562.50 383.78
  A 0.56 0.56 0.0 0 1 563.06 383.22
  L 650.45 383.23
  Z"
/>
<path fill="#ffffff" d="
  M 385.42 565.74
  L 562.50 565.75
  L 562.51 745.00
  L 298.33 745.00
  L 385.42 565.74
  Z"
/>
<path fill="#000000" d="
  M 739.57 565.76
  L 826.49 745.00
  L 562.51 745.00
  L 562.50 565.75
  L 739.57 565.76
  Z"
/>
<path fill="#ffffff" d="
  M 1123.00 744.50
  L 1123.00 745.00
  L 1122.61 745.00
  Q 1122.73 744.70 1123.00 744.50
  Z"
/>
</svg>
