<svg xmlns="http://www.w3.org/2000/svg" viewBox="0 0 1123 745"><g fill="none" stroke-width="2"><path stroke="#028178" d="m562.5 0 .16 35.79" vector-effect="non-scaling-stroke"/><path stroke="#01365b" d="M562.66 35.79q-1.93 1.7-4.69 4.17c-10.33 9.25-20.81 25.93-11.62 39.49l4.41 6.51c5.15 7.66 3.66 18.39-1.99 25.86q-6.28 8.3-6.74 8.94c-4.59 6.44-6.79 13.85-2.74 21.14a.5.5 0 0 1-.31.74l-5.27 1.49a.62.61 78.9 0 1-.78-.53c-1.96-16.91-8.6-36.06-26.8-41.37-2.6-.76-5.95-1.06-9.09-1.36-6.13-.57-10.95-2.96-13.96-7.93-3.35-5.53-5.27-12.93-6.01-20.04q-.7-6.7-1.08-8.61-3.98-19.95-21.42-27.73-3.26-1.45-9.59-2.65c-12.85-2.45-24.73-6.81-31.05-18.63a.67.67 0 0 0-1.26.36c.39 6.19 1.9 13.8 6.31 18.38a82 82 0 0 0 13.79 11.37c9.97 6.82 16.04 16.67 14.69 29.12q-.12 1.09-1.58 11.22c-1.82 12.59 4.48 24.31 14.67 31.73q4.17 3.03 7.57 5.43 11.35 7.99 14.26 21.89.15.72 1.32 9.25 1.31 9.54 8.68 14.14a.36.36 0 0 1 .09.54l-10.36 12.18a.2.2 0 0 1-.24.04q-15.79-9.26-25.4-25.12-3.83-6.31-4.92-8.05-8.86-14.15-25.75-14.27-11.45-.08-23.74 1.45-7.4.92-9.63.44-5.91-1.28-8.82-3.77c-6.65-5.71-11.19-13.92-14.53-21.92q-4.92-11.77-5.6-13.17-12.09-24.89-38.9-29.27c-5.74-.94-12.13-.48-17.33-.8-18.08-1.12-32.56-9.42-43.57-23.76q-7.37-9.6-12.18-21.41a.48.48 0 0 0-.92.14q-1.46 14.87 3.25 28.04c7.05 19.75 25.43 30.22 45.49 34.96l10.98 2.57c10.81 2.5 20.28 10.56 23.5 21.45q2.87 9.73 6.64 21.07l.86 2.58q4.28 12.93 7.54 21.35 8.8 22.8 33.28 24.66 2.26.17 11.28.06c12.34-.15 22.09 9.33 28.64 19.54q5.32 8.28 7.75 11.75c7.78 11.08 20.12 20.63 33.63 21.15a.6.6 0 0 1 .56.62q-2.03 29.25 12.08 54.98 10.81 19.71 29.17 32.91" vector-effect="non-scaling-stroke"/><path stroke="#81b6da" d="m505.23 319.11-31.05 64.12" vector-effect="non-scaling-stroke"/><path stroke="#01365b" d="m474.18 383.23-88.76 182.51" vector-effect="non-scaling-stroke"/><path stroke="#81b6da" d="M385.42 565.74 298.33 745" vector-effect="non-scaling-stroke"/><path stroke="#81cb9d" d="M1123 744.5q-.27.2-.39.5" vector-effect="non-scaling-stroke"/><path stroke="#014b1d" d="m826.49 745-86.92-179.24" vector-effect="non-scaling-stroke"/><path stroke="#81cb9d" d="M739.57 565.76q-44.18-90.99-88.46-182.08-.11-.24-.26-.34-.22-.15-.4-.11" vector-effect="non-scaling-stroke"/><path stroke="#014b1d" d="m650.45 383.23-30.52-63.43a.77.76 59.9 0 1 .25-.96c28.01-20.38 43.94-54.12 40.74-88.77a.51.5.5 0 1 .56-.55c6.91.83 12.22-3.91 14.99-9.57q2.94-6.02 3.71-7.08c6.49-8.96 15.79-8.58 27.26-9.01 19.58-.74 27.9-20.39 32.62-36.54q2.72-9.34 9.28-17.21 7.06-8.48 15.9-9.66 3.13-.42 13.38.3" vector-effect="non-scaling-stroke"/><path stroke="#80b11f" d="m778.62 140.75 10.79-.15" vector-effect="non-scaling-stroke"/><path stroke="#014b1d" d="M789.41 140.6q14.11-.73 20.65-13.74 2.11-4.21 2.71-6.85 1.4-6.18 4.98-17.74c3.25-10.52 7.76-18.75 14.8-25.88q1.66-1.68 5.24-5.1a.63.63 0 0 0-.46-1.08c-16.16.72-26.34 14.02-33.92 27.06a47 47 0 0 1-8.35 10.53c-4.16 4.03-8.54 4.29-14.06 3.88-3.68-.28-6.18-.98-10.95-2.16-15.93-3.97-30.56-.5-42.26 11.21-6.02 6.02-9.61 13.53-13.31 19.98-6.76 11.8-15.88 22.3-30.26 23.63-4.29.4-10.05-1.07-14.46-1.6q-18.77-2.23-31.84 10.94a.76.76 0 0 1-1.13-.06q-3.77-4.76-9.67-9.62a.81.8-58.2 0 1-.22-.95c5.29-11.52 16.98-17.63 28.65-20.43q8.32-2 10.69-2.91 19.44-7.48 23.79-29.63 1.74-8.86.84-17.36c-1.14-10.81-2.31-26.93 10.87-30.74q.87-.25 3.56-.89c16.61-3.92 25.52-17.68 30.9-32.74a.59.59 0 0 0-.96-.62c-6.37 6.11-13.68 11.98-21.61 15.05q-9.29 3.6-22.66 4.01c-10.9.33-21.28 3.57-25.47 14.66q-2.45 6.47-2.87 13.3-.25 4.23.08 11.32.32 6.91-.76 10.29c-3.14 9.77-13.1 15.3-22.86 16.95q-3.03.51-8.55.95a12.9 12.84 45.1 0 1-2.32-.01q-13.48-1.2-23.48 2.57-12.32 4.64-15.76 18.38-1.1 4.36-1.17 7.25a.4.4 0 0 1-.49.39l-9.81-1.85a1.27 1.26-3.5 0 1-.97-.85q-2.05-6.25-1.73-9.63.43-4.53 1.57-6.13c5.36-7.53 12.66-15.83 10.03-25.89-1.72-6.55-6.84-11.74-12.28-15.44q-5.29-3.58-6.77-5.32c-12.9-15.02 3.92-38.49 14.34-49.99a.37.37 0 0 0-.18-.6q-1.05-.3-2.39.27-9.62 4.06-16.47 8.38" vector-effect="non-scaling-stroke"/><path stroke="#7f6602" d="M789.41 140.6q18.37-3.31 22.63-20.82 4.09-16.79 8.27-26.69c2.14-5.08 5.95-11.38 9.18-14.62q6.55-6.55 6.86-6.88a.28.28 0 0 0-.22-.47c-15.71 1.12-25.39 15.38-32.84 27.94-3.02 5.11-8.65 12.15-14.77 13.24-7.79 1.39-16.66-1.64-22.51-2.73-20.22-3.76-37.02 6.4-46.55 23.91-7.64 14.05-17 30.12-34.92 31.56-5.19.42-12.2-1.47-17.02-1.77q-17.49-1.06-29.25 11.07a.63.63 0 0 0-.03.84q19.13 23.19 22.51 53.05a.77.75 89 0 0 .69.68c8.22.71 12.4-5.12 15.69-11.85q2.22-4.54 4.27-6.78c4.94-5.38 12.97-7.05 19.87-6.99q6.82.06 10.19-.67c14.43-3.12 21.77-16.34 26.06-29.99 1.86-5.91 3.52-10.83 6.7-16.64 5.13-9.33 14.01-16.38 24.8-16.5q4.87-.05 9.6 1.26" vector-effect="non-scaling-stroke"/><path stroke="gray" d="m650.45 383.23-87.39-.01a.56.56 0 0 0-.56.56v181.97m0 0-177.08-.01m88.76-182.51 87.82.01a.5.5 0 0 0 .5-.5l-.29-180.19" vector-effect="non-scaling-stroke"/><path stroke="#7f6602" d="m562.21 202.55.15-.44a.79.78-14.7 0 1 .77.44l56.11 115.5a.45.44 59.3 0 0 .66.17q19.73-14.51 30.36-35.8c18.97-38.02 11.23-84.26-19.1-113.85-37.46-36.54-97.16-37.53-135.53-1.72q-23.04 21.51-29.35 52.88-3.77 18.75-.3 36.78 7.39 38.39 39.5 62.02" vector-effect="non-scaling-stroke"/><path stroke="gray" d="M505.48 318.53q.08-.46-.25.58" vector-effect="non-scaling-stroke"/><path stroke="#7f6602" d="M414.38 17.76a.24.24 0 0 0-.44.14q.44 6.89 3.36 12.34c2.22 4.14 7.52 8.51 11.49 11.23q6.45 4.4 9.76 7.46 11.93 11.02 9.56 27.58-1.26 8.78-1.38 10.06-1.37 15.18 9.22 25.49c2.42 2.36 3.5 3.64 5.89 5.31q6.53 4.54 7.91 5.62c7.96 6.22 12.95 14.88 13.99 24.84.84 8.01 1.92 15.1 9.11 19.73a.98.97 39.1 0 0 1.2-.12q12.51-12.01 28.49-19.15 1.38-.62 9.34-3.68a.7.7 0 0 0 .42-.73c-2.51-16.61-8.17-35.39-26.42-40.84-4.9-1.46-10.36-.84-15.08-2.62-10.61-3.98-13.62-18.1-14.67-28.07q-.79-7.53-1.5-10.24-5.89-22.56-29.1-27.26c-12.83-2.6-24.11-6.03-31.15-17.09m-163.05 6.15c-1.65 21.23 6.68 40.22 25.43 50.84q9.62 5.45 18.31 7.61 10.47 2.6 15.88 3.97 13.03 3.3 19.99 13.87 2.52 3.84 5.34 13.2 3.95 13.18 10.81 32.96 4.09 11.81 7.95 16.9c8.46 11.13 20.54 14.77 34.89 13.96 18.68-1.06 28.81 12.69 37.57 27.29q5.16 8.6 13.68 15.96c6.5 5.6 14.13 8.93 22.28 9.5a.64.64 0 0 0 .69-.58c1.65-17.07 7.62-33.08 17.25-47.34a.54.53 32 0 0-.18-.77c-11.46-6.47-20.4-15.81-26.91-27.25q-3.05-5.38-4.47-7.3-8.93-12.14-22.86-12.32-10.7-.14-24.23 1.36-8.52.94-10.97.4c-6.95-1.53-11.23-5.42-15.36-11.29q-4.9-6.98-7.5-13.37-4.79-11.79-7.03-16.1-12.42-23.91-38.44-27.39c-4.04-.54-8.11-.58-13.41-.61-27.92-.14-48.03-19.08-58.36-43.55a.18.18 0 0 0-.35.05m324.65 116.46c-2.88-7.28-2.77-13.66 2.32-19.88q5.48-6.69 7.05-12.57c3.32-12.36-5.03-19.61-13.96-25.67-20.92-14.18-2.89-40.55 8.53-53.81a.14.14 0 0 0-.15-.23q-18.24 6.12-29.29 21.49c-6.48 9.02-9.73 19.57-3.23 29.58q.57.88 3.93 5.74c5.64 8.19 4.24 19.17-1.65 27.04-6.55 8.74-15.75 17.52-9.57 29.69a.8.8 0 0 0 .85.42q8.17-1.47 11.32-1.78 11.85-1.15 23.56.35a.28.27 83.4 0 0 .29-.37m13 3.09q20.51 5.81 36.71 19.23a.48.47-57.8 0 0 .73-.17c5.28-11.62 17.46-17.84 29.35-20.71q7.92-1.91 10.8-3.09 18.18-7.46 22.56-27.83 1.82-8.46 1.12-15.39c-1.23-12.24-3.12-29.58 11.23-34.25 2.65-.87 5.77-1.26 8.44-2.48q9.37-4.28 14.29-10.12 6.96-8.28 10.65-19.07a.21.21 0 0 0-.35-.22c-9.32 9.14-19.54 15.43-32.76 17.36q-3.7.54-9.03.73c-13.44.47-24.39 4.12-27.93 18.34q-1.76 7.05-1.59 14.97c.08 4.18.92 10.21-.03 14-3.3 13.23-16.45 18.95-29.1 20.09q-3.66.33-11.15.02c-15.81-.65-30.23 4.85-33.58 21.93q-.22 1.1-.9 5.84a.75.74 12 0 0 .54.82" vector-effect="non-scaling-stroke"/><path stroke="#ffe681" d="m562.21 202.55-56.73 115.98" vector-effect="non-scaling-stroke"/><path stroke="gray" d="m739.57 565.76-177.07-.01m0 0 .01 179.25" vector-effect="non-scaling-stroke"/></g><path fill="#026cb5" d="m562.5 0 .16 35.79q-1.93 1.7-4.69 4.17c-10.33 9.25-20.81 25.93-11.62 39.49l4.41 6.51c5.15 7.66 3.66 18.39-1.99 25.86q-6.28 8.3-6.74 8.94c-4.59 6.44-6.79 13.85-2.74 21.14a.5.5 0 0 1-.31.74l-5.27 1.49a.62.61 78.9 0 1-.78-.53c-1.96-16.91-8.6-36.06-26.8-41.37-2.6-.76-5.95-1.06-9.09-1.36-6.13-.57-10.95-2.96-13.96-7.93-3.35-5.53-5.27-12.93-6.01-20.04q-.7-6.7-1.08-8.61-3.98-19.95-21.42-27.73-3.26-1.45-9.59-2.65c-12.85-2.45-24.73-6.81-31.05-18.63a.67.67 0 0 0-1.26.36c.39 6.19 1.9 13.8 6.31 18.38a82 82 0 0 0 13.79 11.37c9.97 6.82 16.04 16.67 14.69 29.12q-.12 1.09-1.58 11.22c-1.82 12.59 4.48 24.31 14.67 31.73q4.17 3.03 7.57 5.43 11.35 7.99 14.26 21.89.15.72 1.32 9.25 1.31 9.54 8.68 14.14a.36.36 0 0 1 .09.54l-10.36 12.18a.2.2 0 0 1-.24.04q-15.79-9.26-25.4-25.12-3.83-6.31-4.92-8.05-8.86-14.15-25.75-14.27-11.45-.08-23.74 1.45-7.4.92-9.63.44-5.91-1.28-8.82-3.77c-6.65-5.71-11.19-13.92-14.53-21.92q-4.92-11.77-5.6-13.17-12.09-24.89-38.9-29.27c-5.74-.94-12.13-.48-17.33-.8-18.08-1.12-32.56-9.42-43.57-23.76q-7.37-9.6-12.18-21.41a.48.48 0 0 0-.92.14q-1.46 14.87 3.25 28.04c7.05 19.75 25.43 30.22 45.49 34.96l10.98 2.57c10.81 2.5 20.28 10.56 23.5 21.45q2.87 9.73 6.64 21.07l.86 2.58q4.28 12.93 7.54 21.35 8.8 22.8 33.28 24.66 2.26.17 11.28.06c12.34-.15 22.09 9.33 28.64 19.54q5.32 8.28 7.75 11.75c7.78 11.08 20.12 20.63 33.63 21.15a.6.6 0 0 1 .56.62q-2.03 29.25 12.08 54.98 10.81 19.71 29.17 32.91l-31.05 64.12-88.76 182.51L298.33 745H0V0z"/><path fill="#02963a" d="M1123 0v744.5q-.27.2-.39.5H826.49l-86.92-179.24q-44.18-90.99-88.46-182.08-.11-.24-.26-.34-.22-.15-.4-.11l-30.52-63.43a.77.76 59.9 0 1 .25-.96c28.01-20.38 43.94-54.12 40.74-88.77a.51.5.5 0 1 .56-.55c6.91.83 12.22-3.91 14.99-9.57q2.94-6.02 3.71-7.08c6.49-8.96 15.79-8.58 27.26-9.01 19.58-.74 27.9-20.39 32.62-36.54q2.72-9.34 9.28-17.21 7.06-8.48 15.9-9.66 3.13-.42 13.38.3l10.79-.15q14.11-.73 20.65-13.74 2.11-4.21 2.71-6.85 1.4-6.18 4.98-17.74c3.25-10.52 7.76-18.75 14.8-25.88q1.66-1.68 5.24-5.1a.63.63 0 0 0-.46-1.08c-16.16.72-26.34 14.02-33.92 27.06a47 47 0 0 1-8.35 10.53c-4.16 4.03-8.54 4.29-14.06 3.88-3.68-.28-6.18-.98-10.95-2.16-15.93-3.97-30.56-.5-42.26 11.21-6.02 6.02-9.61 13.53-13.31 19.98-6.76 11.8-15.88 22.3-30.26 23.63-4.29.4-10.05-1.07-14.46-1.6q-18.77-2.23-31.84 10.94a.76.76 0 0 1-1.13-.06q-3.77-4.76-9.67-9.62a.81.8-58.2 0 1-.22-.95c5.29-11.52 16.98-17.63 28.65-20.43q8.32-2 10.69-2.91 19.44-7.48 23.79-29.63 1.74-8.86.84-17.36c-1.14-10.81-2.31-26.93 10.87-30.74q.87-.25 3.56-.89c16.61-3.92 25.52-17.68 30.9-32.74a.59.59 0 0 0-.96-.62c-6.37 6.11-13.68 11.98-21.61 15.05q-9.29 3.6-22.66 4.01c-10.9.33-21.28 3.57-25.47 14.66q-2.45 6.47-2.87 13.3-.25 4.23.08 11.32.32 6.91-.76 10.29c-3.14 9.77-13.1 15.3-22.86 16.95q-3.03.51-8.55.95a12.9 12.84 45.1 0 1-2.32-.01q-13.48-1.2-23.48 2.57-12.32 4.64-15.76 18.38-1.1 4.36-1.17 7.25a.4.4 0 0 1-.49.39l-9.81-1.85a1.27 1.26-3.5 0 1-.97-.85q-2.05-6.25-1.73-9.63.43-4.53 1.57-6.13c5.36-7.53 12.66-15.83 10.03-25.89-1.72-6.55-6.84-11.74-12.28-15.44q-5.29-3.58-6.77-5.32c-12.9-15.02 3.92-38.49 14.34-49.99a.37.37 0 0 0-.18-.6q-1.05-.3-2.39.27-9.62 4.06-16.47 8.38L562.5 0z"/><path d="M562.66 35.79q6.85-4.32 16.47-8.38 1.34-.57 2.39-.27a.37.37 0 0 1 .18.6c-10.42 11.5-27.24 34.97-14.34 49.99q1.48 1.74 6.77 5.32c5.44 3.7 10.56 8.89 12.28 15.44 2.63 10.06-4.67 18.36-10.03 25.89q-1.14 1.6-1.57 6.13-.32 3.38 1.73 9.63a1.27 1.26-3.5 0 0 .97.85l9.81 1.85a.4.4 0 0 0 .49-.39q.07-2.89 1.17-7.25 3.44-13.74 15.76-18.38 10-3.77 23.48-2.57a12.9 12.84 45.1 0 0 2.32.01q5.52-.44 8.55-.95c9.76-1.65 19.72-7.18 22.86-16.95q1.08-3.38.76-10.29-.33-7.09-.08-11.32.42-6.83 2.87-13.3c4.19-11.09 14.57-14.33 25.47-14.66q13.37-.41 22.66-4.01c7.93-3.07 15.24-8.94 21.61-15.05a.59.59 0 0 1 .96.62c-5.38 15.06-14.29 28.82-30.9 32.74q-2.69.64-3.56.89c-13.18 3.81-12.01 19.93-10.87 30.74q.9 8.5-.84 17.36-4.35 22.15-23.79 29.63-2.37.91-10.69 2.91c-11.67 2.8-23.36 8.91-28.65 20.43a.81.8-58.2 0 0 .22.95q5.9 4.86 9.67 9.62a.76.76 0 0 0 1.13.06q13.07-13.17 31.84-10.94c4.41.53 10.17 2 14.46 1.6 14.38-1.33 23.5-11.83 30.26-23.63 3.7-6.45 7.29-13.96 13.31-19.98 11.7-11.71 26.33-15.18 42.26-11.21 4.77 1.18 7.27 1.88 10.95 2.16 5.52.41 9.9.15 14.06-3.88a47 47 0 0 0 8.35-10.53c7.58-13.04 17.76-26.34 33.92-27.06a.63.63 0 0 1 .46 1.08q-3.58 3.42-5.24 5.1c-7.04 7.13-11.55 15.36-14.8 25.88q-3.58 11.56-4.98 17.74-.6 2.64-2.71 6.85-6.54 13.01-20.65 13.74 18.37-3.31 22.63-20.82 4.09-16.79 8.27-26.69c2.14-5.08 5.95-11.38 9.18-14.62q6.55-6.55 6.86-6.88a.28.28 0 0 0-.22-.47c-15.71 1.12-25.39 15.38-32.84 27.94-3.02 5.11-8.65 12.15-14.77 13.24-7.79 1.39-16.66-1.64-22.51-2.73-20.22-3.76-37.02 6.4-46.55 23.91-7.64 14.05-17 30.12-34.92 31.56-5.19.42-12.2-1.47-17.02-1.77q-17.49-1.06-29.25 11.07a.63.63 0 0 0-.03.84q19.13 23.19 22.51 53.05a.77.75 89 0 0 .69.68c8.22.71 12.4-5.12 15.69-11.85q2.22-4.54 4.27-6.78c4.94-5.38 12.97-7.05 19.87-6.99q6.82.06 10.19-.67c14.43-3.12 21.77-16.34 26.06-29.99 1.86-5.91 3.52-10.83 6.7-16.64 5.13-9.33 14.01-16.38 24.8-16.5q4.87-.05 9.6 1.26-10.25-.72-13.38-.3-8.84 1.18-15.9 9.66-6.56 7.87-9.28 17.21c-4.72 16.15-13.04 35.8-32.62 36.54-11.47.43-20.77.05-27.26 9.01q-.77 1.06-3.71 7.08c-2.77 5.66-8.08 10.4-14.99 9.57a.51.5.5 0 0-.56.55c3.2 34.65-12.73 68.39-40.74 88.77a.77.76 59.9 0 0-.25.96l30.52 63.43-87.39-.01a.56.56 0 0 0-.56.56v181.97l-177.08-.01 88.76-182.51 87.82.01a.5.5 0 0 0 .5-.5l-.29-180.19.15-.44a.79.78-14.7 0 1 .77.44l56.11 115.5a.45.44 59.3 0 0 .66.17q19.73-14.51 30.36-35.8c18.97-38.02 11.23-84.26-19.1-113.85-37.46-36.54-97.16-37.53-135.53-1.72q-23.04 21.51-29.35 52.88-3.77 18.75-.3 36.78 7.39 38.39 39.5 62.02.08-.46-.25.58-18.36-13.2-29.17-32.91-14.11-25.73-12.08-54.98a.6.6 0 0 0-.56-.62c-13.51-.52-25.85-10.07-33.63-21.15q-2.43-3.47-7.75-11.75c-6.55-10.21-16.3-19.69-28.64-19.54q-9.02.11-11.28-.06-24.48-1.86-33.28-24.66-3.26-8.42-7.54-21.35l-.86-2.58q-3.77-11.34-6.64-21.07c-3.22-10.89-12.69-18.95-23.5-21.45l-10.98-2.57c-20.06-4.74-38.44-15.21-45.49-34.96q-4.71-13.17-3.25-28.04a.48.48 0 0 1 .92-.14q4.81 11.81 12.18 21.41c11.01 14.34 25.49 22.64 43.57 23.76 5.2.32 11.59-.14 17.33.8q26.81 4.38 38.9 29.27.68 1.4 5.6 13.17c3.34 8 7.88 16.21 14.53 21.92q2.91 2.49 8.82 3.77 2.23.48 9.63-.44 12.29-1.53 23.74-1.45 16.89.12 25.75 14.27 1.09 1.74 4.92 8.05 9.61 15.86 25.4 25.12a.2.2 0 0 0 .24-.04l10.36-12.18a.36.36 0 0 0-.09-.54q-7.37-4.6-8.68-14.14-1.17-8.53-1.32-9.25-2.91-13.9-14.26-21.89-3.4-2.4-7.57-5.43c-10.19-7.42-16.49-19.14-14.67-31.73q1.46-10.13 1.58-11.22c1.35-12.45-4.72-22.3-14.69-29.12a82 82 0 0 1-13.79-11.37c-4.41-4.58-5.92-12.19-6.31-18.38a.67.67 0 0 1 1.26-.36c6.32 11.82 18.2 16.18 31.05 18.63q6.33 1.2 9.59 2.65 17.44 7.78 21.42 27.73.38 1.91 1.08 8.61c.74 7.11 2.66 14.51 6.01 20.04 3.01 4.97 7.83 7.36 13.96 7.93 3.14.3 6.49.6 9.09 1.36 18.2 5.31 24.84 24.46 26.8 41.37a.62.61 78.9 0 0 .78.53l5.27-1.49a.5.5 0 0 0 .31-.74c-4.05-7.29-1.85-14.7 2.74-21.14q.46-.64 6.74-8.94c5.65-7.47 7.14-18.2 1.99-25.86l-4.41-6.51c-9.19-13.56 1.29-30.24 11.62-39.49q2.76-2.47 4.69-4.17M414.38 17.76a.24.24 0 0 0-.44.14q.44 6.89 3.36 12.34c2.22 4.14 7.52 8.51 11.49 11.23q6.45 4.4 9.76 7.46 11.93 11.02 9.56 27.58-1.26 8.78-1.38 10.06-1.37 15.18 9.22 25.49c2.42 2.36 3.5 3.64 5.89 5.31q6.53 4.54 7.91 5.62c7.96 6.22 12.95 14.88 13.99 24.84.84 8.01 1.92 15.1 9.11 19.73a.98.97 39.1 0 0 1.2-.12q12.51-12.01 28.49-19.15 1.38-.62 9.34-3.68a.7.7 0 0 0 .42-.73c-2.51-16.61-8.17-35.39-26.42-40.84-4.9-1.46-10.36-.84-15.08-2.62-10.61-3.98-13.62-18.1-14.67-28.07q-.79-7.53-1.5-10.24-5.89-22.56-29.1-27.26c-12.83-2.6-24.11-6.03-31.15-17.09m-163.05 6.15c-1.65 21.23 6.68 40.22 25.43 50.84q9.62 5.45 18.31 7.61 10.47 2.6 15.88 3.97 13.03 3.3 19.99 13.87 2.52 3.84 5.34 13.2 3.95 13.18 10.81 32.96 4.09 11.81 7.95 16.9c8.46 11.13 20.54 14.77 34.89 13.96 18.68-1.06 28.81 12.69 37.57 27.29q5.16 8.6 13.68 15.96c6.5 5.6 14.13 8.93 22.28 9.5a.64.64 0 0 0 .69-.58c1.65-17.07 7.62-33.08 17.25-47.34a.54.53 32 0 0-.18-.77c-11.46-6.47-20.4-15.81-26.91-27.25q-3.05-5.38-4.47-7.3-8.93-12.14-22.86-12.32-10.7-.14-24.23 1.36-8.52.94-10.97.4c-6.95-1.53-11.23-5.42-15.36-11.29q-4.9-6.98-7.5-13.37-4.79-11.79-7.03-16.1-12.42-23.91-38.44-27.39c-4.04-.54-8.11-.58-13.41-.61-27.92-.14-48.03-19.08-58.36-43.55a.18.18 0 0 0-.35.05m324.65 116.46c-2.88-7.28-2.77-13.66 2.32-19.88q5.48-6.69 7.05-12.57c3.32-12.36-5.03-19.61-13.96-25.67-20.92-14.18-2.89-40.55 8.53-53.81a.14.14 0 0 0-.15-.23q-18.24 6.12-29.29 21.49c-6.48 9.02-9.73 19.57-3.23 29.58q.57.88 3.93 5.74c5.64 8.19 4.24 19.17-1.65 27.04-6.55 8.74-15.75 17.52-9.57 29.69a.8.8 0 0 0 .85.42q8.17-1.47 11.32-1.78 11.85-1.15 23.56.35a.28.27 83.4 0 0 .29-.37m13 3.09q20.51 5.81 36.71 19.23a.48.47-57.8 0 0 .73-.17c5.28-11.62 17.46-17.84 29.35-20.71q7.92-1.91 10.8-3.09 18.18-7.46 22.56-27.83 1.82-8.46 1.12-15.39c-1.23-12.24-3.12-29.58 11.23-34.25 2.65-.87 5.77-1.26 8.44-2.48q9.37-4.28 14.29-10.12 6.96-8.28 10.65-19.07a.21.21 0 0 0-.35-.22c-9.32 9.14-19.54 15.43-32.76 17.36q-3.7.54-9.03.73c-13.44.47-24.39 4.12-27.93 18.34q-1.76 7.05-1.59 14.97c.08 4.18.92 10.21-.03 14-3.3 13.23-16.45 18.95-29.1 20.09q-3.66.33-11.15.02c-15.81-.65-30.23 4.85-33.58 21.93q-.22 1.1-.9 5.84a.75.74 12 0 0 .54.82"/><path fill="#fecc03" d="M414.38 17.76c7.04 11.06 18.32 14.49 31.15 17.09q23.21 4.7 29.1 27.26.71 2.71 1.5 10.24c1.05 9.97 4.06 24.09 14.67 28.07 4.72 1.78 10.18 1.16 15.08 2.62 18.25 5.45 23.91 24.23 26.42 40.84a.7.7 0 0 1-.42.73q-7.96 3.06-9.34 3.68-15.98 7.14-28.49 19.15a.98.97 39.1 0 1-1.2.12c-7.19-4.63-8.27-11.72-9.11-19.73-1.04-9.96-6.03-18.62-13.99-24.84q-1.38-1.08-7.91-5.62c-2.39-1.67-3.47-2.95-5.89-5.31q-10.59-10.31-9.22-25.49.12-1.28 1.38-10.06 2.37-16.56-9.56-27.58-3.31-3.06-9.76-7.46c-3.97-2.72-9.27-7.09-11.49-11.23q-2.92-5.45-3.36-12.34a.24.24 0 0 1 .44-.14m-163.05 6.15a.18.18 0 0 1 .35-.05c10.33 24.47 30.44 43.41 58.36 43.55 5.3.03 9.37.07 13.41.61q26.02 3.48 38.44 27.39 2.24 4.31 7.03 16.1 2.6 6.39 7.5 13.37c4.13 5.87 8.41 9.76 15.36 11.29q2.45.54 10.97-.4 13.53-1.5 24.23-1.36 13.93.18 22.86 12.32 1.42 1.92 4.47 7.3c6.51 11.44 15.45 20.78 26.91 27.25a.54.53 32 0 1 .18.77c-9.63 14.26-15.6 30.27-17.25 47.34a.64.64 0 0 1-.69.58c-8.15-.57-15.78-3.9-22.28-9.5q-8.52-7.36-13.68-15.96c-8.76-14.6-18.89-28.35-37.57-27.29-14.35.81-26.43-2.83-34.89-13.96q-3.86-5.09-7.95-16.9-6.86-19.78-10.81-32.96-2.82-9.36-5.34-13.2-6.96-10.57-19.99-13.87-5.41-1.37-15.88-3.97-8.69-2.16-18.31-7.61c-18.75-10.62-27.08-29.61-25.43-50.84m324.65 116.46a.28.27 83.4 0 1-.29.37q-11.71-1.5-23.56-.35-3.15.31-11.32 1.78a.8.8 0 0 1-.85-.42c-6.18-12.17 3.02-20.95 9.57-29.69 5.89-7.87 7.29-18.85 1.65-27.04q-3.36-4.86-3.93-5.74c-6.5-10.01-3.25-20.56 3.23-29.58q11.05-15.37 29.29-21.49a.14.14 0 0 1 .15.23c-11.42 13.26-29.45 39.63-8.53 53.81 8.93 6.06 17.28 13.31 13.96 25.67q-1.57 5.88-7.05 12.57c-5.09 6.22-5.2 12.6-2.32 19.88m12.46 2.27q.68-4.74.9-5.84c3.35-17.08 17.77-22.58 33.58-21.93q7.49.31 11.15-.02c12.65-1.14 25.8-6.86 29.1-20.09.95-3.79.11-9.82.03-14q-.17-7.92 1.59-14.97c3.54-14.22 14.49-17.87 27.93-18.34q5.33-.19 9.03-.73c13.22-1.93 23.44-8.22 32.76-17.36a.21.21 0 0 1 .35.22q-3.69 10.79-10.65 19.07-4.92 5.84-14.29 10.12c-2.67 1.22-5.79 1.61-8.44 2.48-14.35 4.67-12.46 22.01-11.23 34.25q.7 6.93-1.12 15.39-4.38 20.37-22.56 27.83-2.88 1.18-10.8 3.09c-11.89 2.87-24.07 9.09-29.35 20.71a.48.47-57.8 0 1-.73.17q-16.2-13.42-36.71-19.23a.75.74 12 0 1-.54-.82m200.97-2.04-10.79.15q-4.73-1.31-9.6-1.26c-10.79.12-19.67 7.17-24.8 16.5-3.18 5.81-4.84 10.73-6.7 16.64-4.29 13.65-11.63 26.87-26.06 29.99q-3.37.73-10.19.67c-6.9-.06-14.93 1.61-19.87 6.99q-2.05 2.24-4.27 6.78c-3.29 6.73-7.47 12.56-15.69 11.85a.77.75 89 0 1-.69-.68q-3.38-29.86-22.51-53.05a.63.63 0 0 1 .03-.84q11.76-12.13 29.25-11.07c4.82.3 11.83 2.19 17.02 1.77 17.92-1.44 27.28-17.51 34.92-31.56 9.53-17.51 26.33-27.67 46.55-23.91 5.85 1.09 14.72 4.12 22.51 2.73 6.12-1.09 11.75-8.13 14.77-13.24 7.45-12.56 17.13-26.82 32.84-27.94a.28.28 0 0 1 .22.47q-.31.33-6.86 6.88c-3.23 3.24-7.04 9.54-9.18 14.62q-4.18 9.9-8.27 26.69-4.26 17.51-22.63 20.82"/><path fill="#fecc03" d="m562.21 202.55-56.73 115.98q-32.11-23.63-39.5-62.02-3.47-18.03.3-36.78 6.31-31.37 29.35-52.88c38.37-35.81 98.07-34.82 135.53 1.72 30.33 29.59 38.07 75.83 19.1 113.85q-10.63 21.29-30.36 35.8a.45.44 59.3 0 1-.66-.17l-56.11-115.5a.79.78-14.7 0 0-.77-.44z"/><path fill="#fff" d="m562.21 202.55.29 180.19a.5.5 0 0 1-.5.5l-87.82-.01 31.05-64.12q.33-1.04.25-.58zm88.24 180.68q.18-.04.4.11.15.1.26.34 44.28 91.09 88.46 182.08l-177.07-.01V383.78a.56.56 0 0 1 .56-.56zM385.42 565.74l177.08.01.01 179.25H298.33z"/><path d="M739.57 565.76 826.49 745H562.51l-.01-179.25z"/><path fill="#fff" d="M1123 744.5v.5h-.39q.12-.3.39-.5"/></svg>