<svg xmlns="http://www.w3.org/2000/svg" viewBox="0 0 897 598"><g fill="none" stroke="#80995c" stroke-width="2"><path d="M374.24 131.24a.44.44 0 0 1-.72 0l-40.03-56.77a.94.94 0 0 0-1.18-.3q-.81.4-2.47 2.68-53.47 72.91-67.17 91.38a1.1 1.1 0 0 0 .07 1.43l18.58 20.65a.85.85 0 0 0 1.32-.06l48.7-66.27a.7.7 45.4 0 1 1.11.01c8.48 12.16 20.74 29.35 37.21 53.08 1.42 2.05 3.78 4.69 6.05 1.36q8.63-12.66 14.28-20.84a.79.78 44.8 0 1 1.29 0l15.2 21.55a1 1 0 0 0 1.64.02l40.76-55.47a.66.66 0 0 1 1.06 0l40.68 55.57a.98.97 44.6 0 0 1.58-.01l15.54-22.13a.3.3 0 0 1 .51 0l16.61 23.55a.9.9 0 0 0 1.48 0l39.88-56.76a.72.72 0 0 1 1.17-.02l48.41 66.13a.77.77 0 0 0 1.17.09q9.12-9.04 13.85-14.04 2.19-2.32 4.21-6.02a3 3-48.8 0 0-.21-3.22l-66.75-91.19a1.9 1.9 0 0 0-2.22-.62q-1.7.71-3 2.6-15.86 22.93-31.65 45.33-4.19 5.93-5.85 8.05a.65.64-44.1 0 1-1.03-.01l-16.42-22.43a.65.64 42.7 0 0-1.07.04l-14.84 24.14a.84.83 42.7 0 1-1.39.05l-40.39-55.17a1 1 0 0 0-1.6 0L408 132.88a.8.8 0 0 1-1.34-.06l-14.74-24.31a.56.56 0 0 0-.94-.04l-16.74 22.77m-74.05 72.34a.6.59 72.1 0 0-.5.98q2.93 3.44 8.82 9.18 28.02 27.36 30.92 30.03c3.5 3.23 5.82 7.55 11.82 7.58q9.84.05 11.77.01a.8.8 0 0 0 .81-.84c-.16-5.35.93-12.73 4.91-16.57 4.93-4.76 11.42-6.21 17.73-3.15q6.85 3.31 8.91 10.01c3.34 10.8-4.27 15.26-10.77 21.8q-28.4 28.63-52.68 52.42-6.15 6.03-18.52 18.76-12.38 12.74-18.24 19.09a.7.7 46 0 0-.01.92l29.9 33.23a1.21 1.2-31.8 0 0 1.34.31c9.01-3.53 21.2-4.59 27.82 4a.93.92 49 0 1-.08 1.22l-12.05 12.06a.8.8 0 0 0-.03 1.11l40.64 45.16a.75.75 0 0 0 1.01.1l10.04-7.34a1 1 0 0 1 1.31.13l9.89 10.68a.99.98 46.1 0 1-.02 1.37l-8.4 8.4a1.1 1.1 0 0 0-.05 1.52q27.52 31.65 52.4 57.96a1.04 1.04 0 0 0 1.52-.02l51.82-57.57a1.21 1.2-45.6 0 0-.01-1.62l-8.39-9.06a1.08 1.07-44.2 0 1 .03-1.49l10.58-10.57a.8.8 0 0 1 1.13-.03l9.04 8.14a.64.64 0 0 0 .9-.05l40.99-45.54a1.02 1.01 44.8 0 0-.01-1.36l-11.7-12.62a1.37 1.37 0 0 1 .09-1.95c7.38-6.66 18.51-6.24 27.1-2.55a1.4 1.4 0 0 0 1.61-.35l29.93-33.25a1.37 1.35 43.4 0 0-.06-1.88q-33.17-33.03-83.47-83.42c-5.25-5.27-8.38-7.83-13.14-13.08q-3.69-4.07-3.98-6.18-1.54-11.19 6.78-16.96c5.31-3.69 11.59-4.29 17.22-.88 6.53 3.95 7.99 11.65 8.07 18.92a1.04 1.04 0 0 0 1.03 1.03q9.46.06 11.55-.03c4.16-.17 6.5-2.23 9.06-4.77q7.18-7.14 25.27-24.48 11.2-10.74 16.86-17.28a.88.88 0 0 0-.67-1.45h-96.64a1.96 1.92 21 0 0-1.42.61q-21.84 23.04-40.05 44.63a1.5 1.5 0 0 0 .08 2q25.76 25.69 49.32 49.29c4.6 4.61 9.7 10.11 15.74 15.79q7.3 6.86 14.74 15.22c6.38 7.17 7.98 16.68 3.96 25.43q-1.29 2.8-6.52 8.01-11.66 11.63-26.21 28.03a.5.5-46.5 0 0 .01.62l10.56 11.4a.76.76 0 0 1-.02 1.06l-10.52 10.51a1.2 1.2 0 0 1-1.62.05l-10.5-9.46a.8.8 0 0 0-1.09.05l-39.98 43.49a1.03 1.02-45.2 0 0 0 1.39l8.15 8.8a.76.76 0 0 1-.02 1.05l-16.17 16.17a.66.66 0 0 1-.94 0l-16.01-16.01a.95.95 0 0 1-.03-1.31l8.27-9.19a.66.66 0 0 0-.01-.89l-40.3-43.5a1.04 1.03 45.4 0 0-1.51-.01c-4.57 4.83-6.27 6.91-9.38 9.02a2.56 2.55 50.2 0 1-3.24-.3l-9.62-9.63a.95.95 0 0 1 0-1.34l10.48-10.48a1.2 1.2 0 0 0 .06-1.65q-14.58-16.56-25.91-27.71-5.25-5.16-6.74-8.26c-3.7-7.65-2.12-18.26 3.08-24.27q9.85-11.38 31.64-32.55 25.42-24.71 48.75-49.43a1.82 1.81 45.6 0 0 .02-2.47q-16.56-18.24-36.09-40.13c-2.38-2.67-4.45-4.08-7.85-4.07l-83.05.01c-3.83 0-7.15.59-11.26.25" vector-effect="non-scaling-stroke"/><path d="M450.33 267.44a1.96 1.96 0 0 0-2.78 0l-32.75 32.63a1.96 1.96 0 0 0 0 2.78l32.63 32.75a1.96 1.96 0 0 0 2.78 0l32.75-32.63a1.96 1.96 0 0 0 0-2.78l-32.63-32.75m-78.67 76.68a2.3 2.3 0 0 0 0 3.22l32.3 32.3a2.3 2.3 0 0 0 3.22 0l32.29-32.3a2.3 2.3 0 0 0 0-3.22l-32.3-32.3a2.3 2.3 0 0 0-3.22 0l-32.29 32.3m155.83 3.81a1.73 1.73 0 0 0 0-2.44l-33.1-33.11a1.73 1.73 0 0 0-2.44 0l-33.11 33.11a1.73 1.73 0 0 0 0 2.44l33.11 33.1a1.73 1.73 0 0 0 2.44 0l33.1-33.1m-43.14 44.18a1.46 1.46 0 0 0 0-2.06l-33.46-33.46a1.46 1.46 0 0 0-2.06 0l-33.34 33.34a1.46 1.46 0 0 0 0 2.06l33.46 33.46a1.46 1.46 0 0 0 2.06 0l33.34-33.34" vector-effect="non-scaling-stroke"/><path d="M449.17 413.41q1.22 0 2.12-.33a1.06 1.05-10.3 0 0 .69-.99c.03-8.91-.43-20.92.56-22.25q.39-.53 2.44-.5 4.72.05 8.25-.51a.9.9 0 0 0 .77-.86l.17-2.95a.76.75 3.8 0 0-.71-.8l-9.86-.57a1 .99 88.6 0 1-.93-.89q-.51-4.33-.81-9.03-.16-2.35-2.32-2.11h-.59q-2.16-.25-2.33 2.1-.32 4.7-.84 9.03a1 .99-88.4 0 1-.93.89l-9.87.53a.76.75-3.6 0 0-.71.8l.16 2.95a.9.9 0 0 0 .77.86q3.53.57 8.25.54 2.05-.02 2.44.51c.98 1.33.48 13.34.48 22.25a1.06 1.05 10.5 0 0 .68.99q.91.34 2.12.34" vector-effect="non-scaling-stroke"/></g><path fill="#0066b3" d="M897 0v598H0V0zM374.24 131.24a.44.44 0 0 1-.72 0l-40.03-56.77a.94.94 0 0 0-1.18-.3q-.81.4-2.47 2.68-53.47 72.91-67.17 91.38a1.1 1.1 0 0 0 .07 1.43l18.58 20.65a.85.85 0 0 0 1.32-.06l48.7-66.27a.7.7 45.4 0 1 1.11.01c8.48 12.16 20.74 29.35 37.21 53.08 1.42 2.05 3.78 4.69 6.05 1.36q8.63-12.66 14.28-20.84a.79.78 44.8 0 1 1.29 0l15.2 21.55a1 1 0 0 0 1.64.02l40.76-55.47a.66.66 0 0 1 1.06 0l40.68 55.57a.98.97 44.6 0 0 1.58-.01l15.54-22.13a.3.3 0 0 1 .51 0l16.61 23.55a.9.9 0 0 0 1.48 0l39.88-56.76a.72.72 0 0 1 1.17-.02l48.41 66.13a.77.77 0 0 0 1.17.09q9.12-9.04 13.85-14.04 2.19-2.32 4.21-6.02a3 3-48.8 0 0-.21-3.22l-66.75-91.19a1.9 1.9 0 0 0-2.22-.62q-1.7.71-3 2.6-15.86 22.93-31.65 45.33-4.19 5.93-5.85 8.05a.65.64-44.1 0 1-1.03-.01l-16.42-22.43a.65.64 42.7 0 0-1.07.04l-14.84 24.14a.84.83 42.7 0 1-1.39.05l-40.39-55.17a1 1 0 0 0-1.6 0L408 132.88a.8.8 0 0 1-1.34-.06l-14.74-24.31a.56.56 0 0 0-.94-.04zm-74.05 72.34a.6.59 72.1 0 0-.5.98q2.93 3.44 8.82 9.18 28.02 27.36 30.92 30.03c3.5 3.23 5.82 7.55 11.82 7.58q9.84.05 11.77.01a.8.8 0 0 0 .81-.84c-.16-5.35.93-12.73 4.91-16.57 4.93-4.76 11.42-6.21 17.73-3.15q6.85 3.31 8.91 10.01c3.34 10.8-4.27 15.26-10.77 21.8q-28.4 28.63-52.68 52.42-6.15 6.03-18.52 18.76-12.38 12.74-18.24 19.09a.7.7 46 0 0-.01.92l29.9 33.23a1.21 1.2-31.8 0 0 1.34.31c9.01-3.53 21.2-4.59 27.82 4a.93.92 49 0 1-.08 1.22l-12.05 12.06a.8.8 0 0 0-.03 1.11l40.64 45.16a.75.75 0 0 0 1.01.1l10.04-7.34a1 1 0 0 1 1.31.13l9.89 10.68a.99.98 46.1 0 1-.02 1.37l-8.4 8.4a1.1 1.1 0 0 0-.05 1.52q27.52 31.65 52.4 57.96a1.04 1.04 0 0 0 1.52-.02l51.82-57.57a1.21 1.2-45.6 0 0-.01-1.62l-8.39-9.06a1.08 1.07-44.2 0 1 .03-1.49l10.58-10.57a.8.8 0 0 1 1.13-.03l9.04 8.14a.64.64 0 0 0 .9-.05l40.99-45.54a1.02 1.01 44.8 0 0-.01-1.36l-11.7-12.62a1.37 1.37 0 0 1 .09-1.95c7.38-6.66 18.51-6.24 27.1-2.55a1.4 1.4 0 0 0 1.61-.35l29.93-33.25a1.37 1.35 43.4 0 0-.06-1.88q-33.17-33.03-83.47-83.42c-5.25-5.27-8.38-7.83-13.14-13.08q-3.69-4.07-3.98-6.18-1.54-11.19 6.78-16.96c5.31-3.69 11.59-4.29 17.22-.88 6.53 3.95 7.99 11.65 8.07 18.92a1.04 1.04 0 0 0 1.03 1.03q9.46.06 11.55-.03c4.16-.17 6.5-2.23 9.06-4.77q7.18-7.14 25.27-24.48 11.2-10.74 16.86-17.28a.88.88 0 0 0-.67-1.45h-96.64a1.96 1.92 21 0 0-1.42.61q-21.84 23.04-40.05 44.63a1.5 1.5 0 0 0 .08 2q25.76 25.69 49.32 49.29c4.6 4.61 9.7 10.11 15.74 15.79q7.3 6.86 14.74 15.22c6.38 7.17 7.98 16.68 3.96 25.43q-1.29 2.8-6.52 8.01-11.66 11.63-26.21 28.03a.5.5-46.5 0 0 .01.62l10.56 11.4a.76.76 0 0 1-.02 1.06l-10.52 10.51a1.2 1.2 0 0 1-1.62.05l-10.5-9.46a.8.8 0 0 0-1.09.05l-39.98 43.49a1.03 1.02-45.2 0 0 0 1.39l8.15 8.8a.76.76 0 0 1-.02 1.05l-16.17 16.17a.66.66 0 0 1-.94 0l-16.01-16.01a.95.95 0 0 1-.03-1.31l8.27-9.19a.66.66 0 0 0-.01-.89l-40.3-43.5a1.04 1.03 45.4 0 0-1.51-.01c-4.57 4.83-6.27 6.91-9.38 9.02a2.56 2.55 50.2 0 1-3.24-.3l-9.62-9.63a.95.95 0 0 1 0-1.34l10.48-10.48a1.2 1.2 0 0 0 .06-1.65q-14.58-16.56-25.91-27.71-5.25-5.16-6.74-8.26c-3.7-7.65-2.12-18.26 3.08-24.27q9.85-11.38 31.64-32.55 25.42-24.71 48.75-49.43a1.82 1.81 45.6 0 0 .02-2.47q-16.56-18.24-36.09-40.13c-2.38-2.67-4.45-4.08-7.85-4.07l-83.05.01c-3.83 0-7.15.59-11.26.25m150.14 63.86a1.96 1.96 0 0 0-2.78 0l-32.75 32.63a1.96 1.96 0 0 0 0 2.78l32.63 32.75a1.96 1.96 0 0 0 2.78 0l32.75-32.63a1.96 1.96 0 0 0 0-2.78zm-78.67 76.68a2.3 2.3 0 0 0 0 3.22l32.3 32.3a2.3 2.3 0 0 0 3.22 0l32.29-32.3a2.3 2.3 0 0 0 0-3.22l-32.3-32.3a2.3 2.3 0 0 0-3.22 0zm155.83 3.81a1.73 1.73 0 0 0 0-2.44l-33.1-33.11a1.73 1.73 0 0 0-2.44 0l-33.11 33.11a1.73 1.73 0 0 0 0 2.44l33.11 33.1a1.73 1.73 0 0 0 2.44 0zm-43.14 44.18a1.46 1.46 0 0 0 0-2.06l-33.46-33.46a1.46 1.46 0 0 0-2.06 0l-33.34 33.34a1.46 1.46 0 0 0 0 2.06l33.46 33.46a1.46 1.46 0 0 0 2.06 0z"/><path fill="#ffcb04" d="m374.24 131.24 16.74-22.77a.56.56 0 0 1 .94.04l14.74 24.31a.8.8 0 0 0 1.34.06l40.61-55.26a1 1 0 0 1 1.6 0l40.39 55.17a.84.83 42.7 0 0 1.39-.05l14.84-24.14a.65.64 42.7 0 1 1.07-.04l16.42 22.43a.65.64-44.1 0 0 1.03.01q1.66-2.12 5.85-8.05 15.79-22.4 31.65-45.33 1.3-1.89 3-2.6a1.9 1.9 0 0 1 2.22.62l66.75 91.19a3 3-48.8 0 1 .21 3.22q-2.02 3.7-4.21 6.02-4.73 5-13.85 14.04a.77.77 0 0 1-1.17-.09l-48.41-66.13a.72.72 0 0 0-1.17.02l-39.88 56.76a.9.9 0 0 1-1.48 0l-16.61-23.55a.3.3 0 0 0-.51 0l-15.54 22.13a.98.97 44.6 0 1-1.58.01l-40.68-55.57a.66.66 0 0 0-1.06 0l-40.76 55.47a1 1 0 0 1-1.64-.02l-15.2-21.55a.79.78 44.8 0 0-1.29 0q-5.65 8.18-14.28 20.84c-2.27 3.33-4.63.69-6.05-1.36-16.47-23.73-28.73-40.92-37.21-53.08a.7.7 45.4 0 0-1.11-.01l-48.7 66.27a.85.85 0 0 1-1.32.06l-18.58-20.65a1.1 1.1 0 0 1-.07-1.43q13.7-18.47 67.17-91.38 1.66-2.28 2.47-2.68a.94.94 0 0 1 1.18.3l40.03 56.77a.44.44 0 0 0 .72 0m-74.05 72.34c4.11.34 7.43-.25 11.26-.25l83.05-.01c3.4-.01 5.47 1.4 7.85 4.07q19.53 21.89 36.09 40.13a1.82 1.81 45.6 0 1-.02 2.47q-23.33 24.72-48.75 49.43-21.79 21.17-31.64 32.55c-5.2 6.01-6.78 16.62-3.08 24.27q1.49 3.1 6.74 8.26 11.33 11.15 25.91 27.71a1.2 1.2 0 0 1-.06 1.65l-10.48 10.48a.95.95 0 0 0 0 1.34l9.62 9.63a2.56 2.55 50.2 0 0 3.24.3c3.11-2.11 4.81-4.19 9.38-9.02a1.04 1.03 45.4 0 1 1.51.01l40.3 43.5a.66.66 0 0 1 .01.89l-8.27 9.19a.95.95 0 0 0 .03 1.31l16.01 16.01a.66.66 0 0 0 .94 0L466 461.33a.76.76 0 0 0 .02-1.05l-8.15-8.8a1.03 1.02-45.2 0 1 0-1.39l39.98-43.49a.8.8 0 0 1 1.09-.05l10.5 9.46a1.2 1.2 0 0 0 1.62-.05l10.52-10.51a.76.76 0 0 0 .02-1.06l-10.56-11.4a.5.5-46.5 0 1-.01-.62q14.55-16.4 26.21-28.03 5.23-5.21 6.52-8.01c4.02-8.75 2.42-18.26-3.96-25.43q-7.44-8.36-14.74-15.22c-6.04-5.68-11.14-11.18-15.74-15.79q-23.56-23.6-49.32-49.29a1.5 1.5 0 0 1-.08-2q18.21-21.59 40.05-44.63a1.96 1.92 21 0 1 1.42-.61h96.64a.88.88 0 0 1 .67 1.45q-5.66 6.54-16.86 17.28-18.09 17.34-25.27 24.48c-2.56 2.54-4.9 4.6-9.06 4.77q-2.09.09-11.55.03a1.04 1.04 0 0 1-1.03-1.03c-.08-7.27-1.54-14.97-8.07-18.92-5.63-3.41-11.91-2.81-17.22.88q-8.32 5.77-6.78 16.96.29 2.11 3.98 6.18c4.76 5.25 7.89 7.81 13.14 13.08q50.3 50.39 83.47 83.42a1.37 1.35 43.4 0 1 .06 1.88l-29.93 33.25a1.4 1.4 0 0 1-1.61.35c-8.59-3.69-19.72-4.11-27.1 2.55a1.37 1.37 0 0 0-.09 1.95l11.7 12.62a1.02 1.01 44.8 0 1 .01 1.36l-40.99 45.54a.64.64 0 0 1-.9.05l-9.04-8.14a.8.8 0 0 0-1.13.03l-10.58 10.57a1.08 1.07-44.2 0 0-.03 1.49l8.39 9.06a1.21 1.2-45.6 0 1 .01 1.62l-51.82 57.57a1.04 1.04 0 0 1-1.52.02q-24.88-26.31-52.4-57.96a1.1 1.1 0 0 1 .05-1.52l8.4-8.4a.99.98 46.1 0 0 .02-1.37l-9.89-10.68a1 1 0 0 0-1.31-.13l-10.04 7.34a.75.75 0 0 1-1.01-.1l-40.64-45.16a.8.8 0 0 1 .03-1.11l12.05-12.06a.93.92 49 0 0 .08-1.22c-6.62-8.59-18.81-7.53-27.82-4a1.21 1.2-31.8 0 1-1.34-.31l-29.9-33.23a.7.7 46 0 1 .01-.92q5.86-6.35 18.24-19.09t18.52-18.76q24.28-23.79 52.68-52.42c6.5-6.54 14.11-11 10.77-21.8q-2.06-6.7-8.91-10.01c-6.31-3.06-12.8-1.61-17.73 3.15-3.98 3.84-5.07 11.22-4.91 16.57a.8.8 0 0 1-.81.84q-1.93.04-11.77-.01c-6-.03-8.32-4.35-11.82-7.58q-2.9-2.67-30.92-30.03-5.89-5.74-8.82-9.18a.6.59 72.1 0 1 .5-.98"/><rect width="50.16" height="50.16" x="-25.08" y="-25.08" fill="#ffcb04" rx="1.96" transform="rotate(-44.9 589.307 -392.426)"/><path fill="#ffcb04" d="m371.66 344.12 32.29-32.3a2.3 2.3 0 0 1 3.22 0l32.3 32.3a2.3 2.3 0 0 1 0 3.22l-32.29 32.3a2.3 2.3 0 0 1-3.22 0l-32.3-32.3a2.3 2.3 0 0 1 0-3.22m155.83 3.81-33.1 33.1a1.73 1.73 0 0 1-2.44 0l-33.11-33.1a1.73 1.73 0 0 1 0-2.44l33.11-33.11a1.73 1.73 0 0 1 2.44 0l33.1 33.11a1.73 1.73 0 0 1 0 2.44m-43.14 44.18-33.34 33.34a1.46 1.46 0 0 1-2.06 0l-33.46-33.46a1.46 1.46 0 0 1 0-2.06l33.34-33.34a1.46 1.46 0 0 1 2.06 0l33.46 33.46a1.46 1.46 0 0 1 0 2.06m-35.18 21.3q1.22 0 2.12-.33a1.06 1.05-10.3 0 0 .69-.99c.03-8.91-.43-20.92.56-22.25q.39-.53 2.44-.5 4.72.05 8.25-.51a.9.9 0 0 0 .77-.86l.17-2.95a.76.75 3.8 0 0-.71-.8l-9.86-.57a1 .99 88.6 0 1-.93-.89q-.51-4.33-.81-9.03-.16-2.35-2.32-2.11h-.59q-2.16-.25-2.33 2.1-.32 4.7-.84 9.03a1 .99-88.4 0 1-.93.89l-9.87.53a.76.75-3.6 0 0-.71.8l.16 2.95a.9.9 0 0 0 .77.86q3.53.57 8.25.54 2.05-.02 2.44.51c.98 1.33.48 13.34.48 22.25a1.06 1.05 10.5 0 0 .68.99q.91.34 2.12.34"/><path fill="#0066b3" d="M449.24 371.62h.3q2.16-.24 2.32 2.11.3 4.7.81 9.03a1 .99 88.6 0 0 .93.89l9.86.57a.76.75 3.8 0 1 .71.8l-.17 2.95a.9.9 0 0 1-.77.86q-3.53.56-8.25.51-2.05-.03-2.44.5c-.99 1.33-.53 13.34-.56 22.25a1.06 1.05-10.3 0 1-.69.99q-.9.33-2.12.33-1.21 0-2.12-.34a1.06 1.05 10.5 0 1-.68-.99c0-8.91.5-20.92-.48-22.25q-.39-.53-2.44-.51-4.72.03-8.25-.54a.9.9 0 0 1-.77-.86l-.16-2.95a.76.75-3.6 0 1 .71-.8l9.87-.53a1 .99-88.4 0 0 .93-.89q.52-4.33.84-9.03.17-2.35 2.33-2.1z"/></svg>