<?xml version="1.0" encoding="UTF-8" standalone="no"?>
<!DOCTYPE svg PUBLIC "-//W3C//DTD SVG 1.1//EN" "http://www.w3.org/Graphics/SVG/1.1/DTD/svg11.dtd">
<svg xmlns="http://www.w3.org/2000/svg" version="1.1" viewBox="0.00 0.00 897.00 598.00">
<g stroke-width="2.00" fill="none" stroke-linecap="butt">
<path stroke="#80995c" vector-effect="non-scaling-stroke" d="
  M 374.24 131.24
  A 0.44 0.44 0.0 0 1 373.52 131.24
  L 333.49 74.47
  A 0.94 0.94 0.0 0 0 332.31 74.17
  Q 331.50 74.57 329.84 76.85
  Q 276.37 149.76 262.67 168.23
  A 1.13 1.13 0.0 0 0 262.74 169.66
  L 281.32 190.31
  A 0.85 0.85 0.0 0 0 282.64 190.25
  L 331.34 123.98
  A 0.69 0.68 45.4 0 1 332.45 123.99
  C 340.93 136.15 353.19 153.34 369.66 177.07
  C 371.08 179.12 373.44 181.76 375.71 178.43
  Q 384.34 165.77 389.99 157.59
  A 0.79 0.78 44.8 0 1 391.28 157.59
  L 406.48 179.14
  A 1.01 1.01 0.0 0 0 408.12 179.16
  L 448.88 123.69
  A 0.66 0.66 0.0 0 1 449.94 123.69
  L 490.62 179.26
  A 0.98 0.97 44.6 0 0 492.20 179.25
  L 507.74 157.12
  A 0.31 0.31 0.0 0 1 508.25 157.12
  L 524.86 180.67
  A 0.91 0.91 0.0 0 0 526.34 180.67
  L 566.22 123.91
  A 0.72 0.72 0.0 0 1 567.39 123.89
  L 615.80 190.02
  A 0.77 0.77 0.0 0 0 616.97 190.11
  Q 626.09 181.07 630.82 176.07
  Q 633.01 173.75 635.03 170.05
  A 3.01 3.00 -48.8 0 0 634.82 166.83
  L 568.07 75.64
  A 1.87 1.87 0.0 0 0 565.85 75.02
  Q 564.15 75.73 562.85 77.62
  Q 546.99 100.55 531.20 122.95
  Q 527.01 128.88 525.35 131.00
  A 0.65 0.64 -44.1 0 1 524.32 130.99
  L 507.90 108.56
  A 0.65 0.64 42.7 0 0 506.83 108.60
  L 491.99 132.74
  A 0.84 0.83 42.7 0 1 490.60 132.79
  L 450.21 77.62
  A 0.99 0.99 0.0 0 0 448.61 77.62
  L 408.00 132.88
  A 0.81 0.81 0.0 0 1 406.66 132.82
  L 391.92 108.51
  A 0.56 0.56 0.0 0 0 390.98 108.47
  L 374.24 131.24"
/>
<path stroke="#80995c" vector-effect="non-scaling-stroke" d="
  M 300.19 203.58
  A 0.60 0.59 72.1 0 0 299.69 204.56
  Q 302.62 208.00 308.51 213.74
  Q 336.53 241.10 339.43 243.77
  C 342.93 247.00 345.25 251.32 351.25 251.35
  Q 361.09 251.40 363.02 251.36
  A 0.82 0.82 0.0 0 0 363.83 250.52
  C 363.67 245.17 364.76 237.79 368.74 233.95
  C 373.67 229.19 380.16 227.74 386.47 230.80
  Q 393.32 234.11 395.38 240.81
  C 398.72 251.61 391.11 256.07 384.61 262.61
  Q 356.21 291.24 331.93 315.03
  Q 325.78 321.06 313.41 333.79
  Q 301.03 346.53 295.17 352.88
  A 0.69 0.68 46.0 0 0 295.16 353.80
  L 325.06 387.03
  A 1.21 1.20 -31.8 0 0 326.40 387.34
  C 335.41 383.81 347.60 382.75 354.22 391.34
  A 0.93 0.92 49.0 0 1 354.14 392.56
  L 342.09 404.62
  A 0.81 0.81 0.0 0 0 342.06 405.73
  L 382.70 450.89
  A 0.75 0.75 0.0 0 0 383.71 450.99
  L 393.75 443.65
  A 0.99 0.99 0.0 0 1 395.06 443.78
  L 404.95 454.46
  A 0.99 0.98 46.1 0 1 404.93 455.83
  L 396.53 464.23
  A 1.11 1.11 0.0 0 0 396.48 465.75
  Q 424.00 497.40 448.88 523.71
  A 1.04 1.04 0.0 0 0 450.40 523.69
  L 502.22 466.12
  A 1.21 1.20 -45.6 0 0 502.21 464.50
  L 493.82 455.44
  A 1.08 1.07 -44.2 0 1 493.85 453.95
  L 504.43 443.38
  A 0.81 0.81 0.0 0 1 505.56 443.35
  L 514.60 451.49
  A 0.64 0.64 0.0 0 0 515.50 451.44
  L 556.49 405.90
  A 1.02 1.01 44.8 0 0 556.48 404.54
  L 544.78 391.92
  A 1.37 1.37 0.0 0 1 544.87 389.97
  C 552.25 383.31 563.38 383.73 571.97 387.42
  A 1.42 1.42 0.0 0 0 573.58 387.07
  L 603.51 353.82
  A 1.37 1.35 43.4 0 0 603.45 351.94
  Q 570.28 318.91 519.98 268.52
  C 514.73 263.25 511.60 260.69 506.84 255.44
  Q 503.15 251.37 502.86 249.26
  Q 501.32 238.07 509.64 232.30
  C 514.95 228.61 521.23 228.01 526.86 231.42
  C 533.39 235.37 534.85 243.07 534.93 250.34
  A 1.04 1.04 0.0 0 0 535.96 251.37
  Q 545.42 251.43 547.51 251.34
  C 551.67 251.17 554.01 249.11 556.57 246.57
  Q 563.75 239.43 581.84 222.09
  Q 593.04 211.35 598.70 204.81
  A 0.88 0.88 0.0 0 0 598.03 203.36
  L 501.39 203.36
  A 1.96 1.92 21.0 0 0 499.97 203.97
  Q 478.13 227.01 459.92 248.60
  A 1.48 1.48 0.0 0 0 460.00 250.60
  Q 485.76 276.29 509.32 299.89
  C 513.92 304.50 519.02 310.00 525.06 315.68
  Q 532.36 322.54 539.80 330.90
  C 546.18 338.07 547.78 347.58 543.76 356.33
  Q 542.47 359.13 537.24 364.34
  Q 525.58 375.97 511.03 392.37
  A 0.47 0.46 -46.5 0 0 511.04 392.99
  L 521.60 404.39
  A 0.76 0.76 0.0 0 1 521.58 405.45
  L 511.06 415.96
  A 1.18 1.18 0.0 0 1 509.44 416.01
  L 498.94 406.55
  A 0.78 0.78 0.0 0 0 497.85 406.60
  L 457.87 450.09
  A 1.03 1.02 -45.2 0 0 457.87 451.48
  L 466.02 460.28
  A 0.76 0.76 0.0 0 1 466.00 461.33
  L 449.83 477.50
  A 0.66 0.66 0.0 0 1 448.89 477.50
  L 432.88 461.49
  A 0.95 0.95 0.0 0 1 432.85 460.18
  L 441.12 450.99
  A 0.66 0.66 0.0 0 0 441.11 450.10
  L 400.81 406.60
  A 1.04 1.03 45.4 0 0 399.30 406.59
  C 394.73 411.42 393.03 413.50 389.92 415.61
  A 2.56 2.55 50.2 0 1 386.68 415.31
  L 377.06 405.68
  A 0.95 0.95 0.0 0 1 377.06 404.34
  L 387.54 393.86
  A 1.21 1.21 0.0 0 0 387.60 392.21
  Q 373.02 375.65 361.69 364.50
  Q 356.44 359.34 354.95 356.24
  C 351.25 348.59 352.83 337.98 358.03 331.97
  Q 367.88 320.59 389.67 299.42
  Q 415.09 274.71 438.42 249.99
  A 1.82 1.81 45.6 0 0 438.44 247.52
  Q 421.88 229.28 402.35 207.39
  C 399.97 204.72 397.90 203.31 394.50 203.32
  Q 381.44 203.33 311.45 203.33
  C 307.62 203.33 304.30 203.92 300.19 203.58"
/>
<path stroke="#80995c" vector-effect="non-scaling-stroke" d="
  M 450.3254 267.4399
  A 1.96 1.96 0.0 0 0 447.5536 267.4351
  L 414.7999 300.0746
  A 1.96 1.96 0.0 0 0 414.7951 302.8464
  L 447.4346 335.6001
  A 1.96 1.96 0.0 0 0 450.2064 335.6049
  L 482.9601 302.9654
  A 1.96 1.96 0.0 0 0 482.9649 300.1936
  L 450.3254 267.4399"
/>
<path stroke="#80995c" vector-effect="non-scaling-stroke" d="
  M 371.66 344.12
  A 2.28 2.28 0.0 0 0 371.66 347.34
  L 403.96 379.64
  A 2.28 2.28 0.0 0 0 407.18 379.64
  L 439.47 347.34
  A 2.28 2.28 0.0 0 0 439.47 344.12
  L 407.17 311.82
  A 2.28 2.28 0.0 0 0 403.95 311.82
  L 371.66 344.12"
/>
<path stroke="#80995c" vector-effect="non-scaling-stroke" d="
  M 527.49 347.93
  A 1.73 1.73 0.0 0 0 527.49 345.49
  L 494.39 312.38
  A 1.73 1.73 0.0 0 0 491.95 312.38
  L 458.84 345.49
  A 1.73 1.73 0.0 0 0 458.84 347.93
  L 491.95 381.03
  A 1.73 1.73 0.0 0 0 494.39 381.03
  L 527.49 347.93"
/>
<path stroke="#80995c" vector-effect="non-scaling-stroke" d="
  M 484.35 392.11
  A 1.46 1.46 0.0 0 0 484.35 390.05
  L 450.89 356.59
  A 1.46 1.46 0.0 0 0 448.83 356.59
  L 415.49 389.93
  A 1.46 1.46 0.0 0 0 415.49 391.99
  L 448.95 425.45
  A 1.46 1.46 0.0 0 0 451.01 425.45
  L 484.35 392.11"
/>
<path stroke="#80995c" vector-effect="non-scaling-stroke" d="
  M 449.17 413.41
  Q 450.39 413.41 451.29 413.08
  A 1.06 1.05 -10.3 0 0 451.98 412.09
  C 452.01 403.18 451.55 391.17 452.54 389.84
  Q 452.93 389.31 454.98 389.34
  Q 459.70 389.39 463.23 388.83
  A 0.92 0.92 0.0 0 0 464.00 387.97
  L 464.17 385.02
  A 0.76 0.75 3.8 0 0 463.46 384.22
  L 453.60 383.65
  A 1.00 0.99 88.6 0 1 452.67 382.76
  Q 452.16 378.43 451.86 373.73
  Q 451.70 371.38 449.54 371.62
  Q 449.49 371.62 449.24 371.62
  Q 449.00 371.62 448.95 371.62
  Q 446.79 371.37 446.62 373.72
  Q 446.30 378.42 445.78 382.75
  A 1.00 0.99 -88.4 0 1 444.85 383.64
  L 434.98 384.17
  A 0.76 0.75 -3.6 0 0 434.27 384.97
  L 434.43 387.92
  A 0.92 0.92 0.0 0 0 435.20 388.78
  Q 438.73 389.35 443.45 389.32
  Q 445.50 389.30 445.89 389.83
  C 446.87 391.16 446.37 403.17 446.37 412.08
  A 1.06 1.05 10.5 0 0 447.05 413.07
  Q 447.96 413.41 449.17 413.41"
/>
</g>
<path fill="#0066b3" d="
  M 897.00 0.00
  L 897.00 598.00
  L 0.00 598.00
  L 0.00 0.00
  L 897.00 0.00
  Z
  M 374.24 131.24
  A 0.44 0.44 0.0 0 1 373.52 131.24
  L 333.49 74.47
  A 0.94 0.94 0.0 0 0 332.31 74.17
  Q 331.50 74.57 329.84 76.85
  Q 276.37 149.76 262.67 168.23
  A 1.13 1.13 0.0 0 0 262.74 169.66
  L 281.32 190.31
  A 0.85 0.85 0.0 0 0 282.64 190.25
  L 331.34 123.98
  A 0.69 0.68 45.4 0 1 332.45 123.99
  C 340.93 136.15 353.19 153.34 369.66 177.07
  C 371.08 179.12 373.44 181.76 375.71 178.43
  Q 384.34 165.77 389.99 157.59
  A 0.79 0.78 44.8 0 1 391.28 157.59
  L 406.48 179.14
  A 1.01 1.01 0.0 0 0 408.12 179.16
  L 448.88 123.69
  A 0.66 0.66 0.0 0 1 449.94 123.69
  L 490.62 179.26
  A 0.98 0.97 44.6 0 0 492.20 179.25
  L 507.74 157.12
  A 0.31 0.31 0.0 0 1 508.25 157.12
  L 524.86 180.67
  A 0.91 0.91 0.0 0 0 526.34 180.67
  L 566.22 123.91
  A 0.72 0.72 0.0 0 1 567.39 123.89
  L 615.80 190.02
  A 0.77 0.77 0.0 0 0 616.97 190.11
  Q 626.09 181.07 630.82 176.07
  Q 633.01 173.75 635.03 170.05
  A 3.01 3.00 -48.8 0 0 634.82 166.83
  L 568.07 75.64
  A 1.87 1.87 0.0 0 0 565.85 75.02
  Q 564.15 75.73 562.85 77.62
  Q 546.99 100.55 531.20 122.95
  Q 527.01 128.88 525.35 131.00
  A 0.65 0.64 -44.1 0 1 524.32 130.99
  L 507.90 108.56
  A 0.65 0.64 42.7 0 0 506.83 108.60
  L 491.99 132.74
  A 0.84 0.83 42.7 0 1 490.60 132.79
  L 450.21 77.62
  A 0.99 0.99 0.0 0 0 448.61 77.62
  L 408.00 132.88
  A 0.81 0.81 0.0 0 1 406.66 132.82
  L 391.92 108.51
  A 0.56 0.56 0.0 0 0 390.98 108.47
  L 374.24 131.24
  Z
  M 300.19 203.58
  A 0.60 0.59 72.1 0 0 299.69 204.56
  Q 302.62 208.00 308.51 213.74
  Q 336.53 241.10 339.43 243.77
  C 342.93 247.00 345.25 251.32 351.25 251.35
  Q 361.09 251.40 363.02 251.36
  A 0.82 0.82 0.0 0 0 363.83 250.52
  C 363.67 245.17 364.76 237.79 368.74 233.95
  C 373.67 229.19 380.16 227.74 386.47 230.80
  Q 393.32 234.11 395.38 240.81
  C 398.72 251.61 391.11 256.07 384.61 262.61
  Q 356.21 291.24 331.93 315.03
  Q 325.78 321.06 313.41 333.79
  Q 301.03 346.53 295.17 352.88
  A 0.69 0.68 46.0 0 0 295.16 353.80
  L 325.06 387.03
  A 1.21 1.20 -31.8 0 0 326.40 387.34
  C 335.41 383.81 347.60 382.75 354.22 391.34
  A 0.93 0.92 49.0 0 1 354.14 392.56
  L 342.09 404.62
  A 0.81 0.81 0.0 0 0 342.06 405.73
  L 382.70 450.89
  A 0.75 0.75 0.0 0 0 383.71 450.99
  L 393.75 443.65
  A 0.99 0.99 0.0 0 1 395.06 443.78
  L 404.95 454.46
  A 0.99 0.98 46.1 0 1 404.93 455.83
  L 396.53 464.23
  A 1.11 1.11 0.0 0 0 396.48 465.75
  Q 424.00 497.40 448.88 523.71
  A 1.04 1.04 0.0 0 0 450.40 523.69
  L 502.22 466.12
  A 1.21 1.20 -45.6 0 0 502.21 464.50
  L 493.82 455.44
  A 1.08 1.07 -44.2 0 1 493.85 453.95
  L 504.43 443.38
  A 0.81 0.81 0.0 0 1 505.56 443.35
  L 514.60 451.49
  A 0.64 0.64 0.0 0 0 515.50 451.44
  L 556.49 405.90
  A 1.02 1.01 44.8 0 0 556.48 404.54
  L 544.78 391.92
  A 1.37 1.37 0.0 0 1 544.87 389.97
  C 552.25 383.31 563.38 383.73 571.97 387.42
  A 1.42 1.42 0.0 0 0 573.58 387.07
  L 603.51 353.82
  A 1.37 1.35 43.4 0 0 603.45 351.94
  Q 570.28 318.91 519.98 268.52
  C 514.73 263.25 511.60 260.69 506.84 255.44
  Q 503.15 251.37 502.86 249.26
  Q 501.32 238.07 509.64 232.30
  C 514.95 228.61 521.23 228.01 526.86 231.42
  C 533.39 235.37 534.85 243.07 534.93 250.34
  A 1.04 1.04 0.0 0 0 535.96 251.37
  Q 545.42 251.43 547.51 251.34
  C 551.67 251.17 554.01 249.11 556.57 246.57
  Q 563.75 239.43 581.84 222.09
  Q 593.04 211.35 598.70 204.81
  A 0.88 0.88 0.0 0 0 598.03 203.36
  L 501.39 203.36
  A 1.96 1.92 21.0 0 0 499.97 203.97
  Q 478.13 227.01 459.92 248.60
  A 1.48 1.48 0.0 0 0 460.00 250.60
  Q 485.76 276.29 509.32 299.89
  C 513.92 304.50 519.02 310.00 525.06 315.68
  Q 532.36 322.54 539.80 330.90
  C 546.18 338.07 547.78 347.58 543.76 356.33
  Q 542.47 359.13 537.24 364.34
  Q 525.58 375.97 511.03 392.37
  A 0.47 0.46 -46.5 0 0 511.04 392.99
  L 521.60 404.39
  A 0.76 0.76 0.0 0 1 521.58 405.45
  L 511.06 415.96
  A 1.18 1.18 0.0 0 1 509.44 416.01
  L 498.94 406.55
  A 0.78 0.78 0.0 0 0 497.85 406.60
  L 457.87 450.09
  A 1.03 1.02 -45.2 0 0 457.87 451.48
  L 466.02 460.28
  A 0.76 0.76 0.0 0 1 466.00 461.33
  L 449.83 477.50
  A 0.66 0.66 0.0 0 1 448.89 477.50
  L 432.88 461.49
  A 0.95 0.95 0.0 0 1 432.85 460.18
  L 441.12 450.99
  A 0.66 0.66 0.0 0 0 441.11 450.10
  L 400.81 406.60
  A 1.04 1.03 45.4 0 0 399.30 406.59
  C 394.73 411.42 393.03 413.50 389.92 415.61
  A 2.56 2.55 50.2 0 1 386.68 415.31
  L 377.06 405.68
  A 0.95 0.95 0.0 0 1 377.06 404.34
  L 387.54 393.86
  A 1.21 1.21 0.0 0 0 387.60 392.21
  Q 373.02 375.65 361.69 364.50
  Q 356.44 359.34 354.95 356.24
  C 351.25 348.59 352.83 337.98 358.03 331.97
  Q 367.88 320.59 389.67 299.42
  Q 415.09 274.71 438.42 249.99
  A 1.82 1.81 45.6 0 0 438.44 247.52
  Q 421.88 229.28 402.35 207.39
  C 399.97 204.72 397.90 203.31 394.50 203.32
  Q 381.44 203.33 311.45 203.33
  C 307.62 203.33 304.30 203.92 300.19 203.58
  Z
  M 450.3254 267.4399
  A 1.96 1.96 0.0 0 0 447.5536 267.4351
  L 414.7999 300.0746
  A 1.96 1.96 0.0 0 0 414.7951 302.8464
  L 447.4346 335.6001
  A 1.96 1.96 0.0 0 0 450.2064 335.6049
  L 482.9601 302.9654
  A 1.96 1.96 0.0 0 0 482.9649 300.1936
  L 450.3254 267.4399
  Z
  M 371.66 344.12
  A 2.28 2.28 0.0 0 0 371.66 347.34
  L 403.96 379.64
  A 2.28 2.28 0.0 0 0 407.18 379.64
  L 439.47 347.34
  A 2.28 2.28 0.0 0 0 439.47 344.12
  L 407.17 311.82
  A 2.28 2.28 0.0 0 0 403.95 311.82
  L 371.66 344.12
  Z
  M 527.49 347.93
  A 1.73 1.73 0.0 0 0 527.49 345.49
  L 494.39 312.38
  A 1.73 1.73 0.0 0 0 491.95 312.38
  L 458.84 345.49
  A 1.73 1.73 0.0 0 0 458.84 347.93
  L 491.95 381.03
  A 1.73 1.73 0.0 0 0 494.39 381.03
  L 527.49 347.93
  Z
  M 484.35 392.11
  A 1.46 1.46 0.0 0 0 484.35 390.05
  L 450.89 356.59
  A 1.46 1.46 0.0 0 0 448.83 356.59
  L 415.49 389.93
  A 1.46 1.46 0.0 0 0 415.49 391.99
  L 448.95 425.45
  A 1.46 1.46 0.0 0 0 451.01 425.45
  L 484.35 392.11
  Z"
/>
<path fill="#ffcb04" d="
  M 374.24 131.24
  L 390.98 108.47
  A 0.56 0.56 0.0 0 1 391.92 108.51
  L 406.66 132.82
  A 0.81 0.81 0.0 0 0 408.00 132.88
  L 448.61 77.62
  A 0.99 0.99 0.0 0 1 450.21 77.62
  L 490.60 132.79
  A 0.84 0.83 42.7 0 0 491.99 132.74
  L 506.83 108.60
  A 0.65 0.64 42.7 0 1 507.90 108.56
  L 524.32 130.99
  A 0.65 0.64 -44.1 0 0 525.35 131.00
  Q 527.01 128.88 531.20 122.95
  Q 546.99 100.55 562.85 77.62
  Q 564.15 75.73 565.85 75.02
  A 1.87 1.87 0.0 0 1 568.07 75.64
  L 634.82 166.83
  A 3.01 3.00 -48.8 0 1 635.03 170.05
  Q 633.01 173.75 630.82 176.07
  Q 626.09 181.07 616.97 190.11
  A 0.77 0.77 0.0 0 1 615.80 190.02
  L 567.39 123.89
  A 0.72 0.72 0.0 0 0 566.22 123.91
  L 526.34 180.67
  A 0.91 0.91 0.0 0 1 524.86 180.67
  L 508.25 157.12
  A 0.31 0.31 0.0 0 0 507.74 157.12
  L 492.20 179.25
  A 0.98 0.97 44.6 0 1 490.62 179.26
  L 449.94 123.69
  A 0.66 0.66 0.0 0 0 448.88 123.69
  L 408.12 179.16
  A 1.01 1.01 0.0 0 1 406.48 179.14
  L 391.28 157.59
  A 0.79 0.78 44.8 0 0 389.99 157.59
  Q 384.34 165.77 375.71 178.43
  C 373.44 181.76 371.08 179.12 369.66 177.07
  C 353.19 153.34 340.93 136.15 332.45 123.99
  A 0.69 0.68 45.4 0 0 331.34 123.98
  L 282.64 190.25
  A 0.85 0.85 0.0 0 1 281.32 190.31
  L 262.74 169.66
  A 1.13 1.13 0.0 0 1 262.67 168.23
  Q 276.37 149.76 329.84 76.85
  Q 331.50 74.57 332.31 74.17
  A 0.94 0.94 0.0 0 1 333.49 74.47
  L 373.52 131.24
  A 0.44 0.44 0.0 0 0 374.24 131.24
  Z"
/>
<path fill="#ffcb04" d="
  M 300.19 203.58
  C 304.30 203.92 307.62 203.33 311.45 203.33
  Q 381.44 203.33 394.50 203.32
  C 397.90 203.31 399.97 204.72 402.35 207.39
  Q 421.88 229.28 438.44 247.52
  A 1.82 1.81 45.6 0 1 438.42 249.99
  Q 415.09 274.71 389.67 299.42
  Q 367.88 320.59 358.03 331.97
  C 352.83 337.98 351.25 348.59 354.95 356.24
  Q 356.44 359.34 361.69 364.50
  Q 373.02 375.65 387.60 392.21
  A 1.21 1.21 0.0 0 1 387.54 393.86
  L 377.06 404.34
  A 0.95 0.95 0.0 0 0 377.06 405.68
  L 386.68 415.31
  A 2.56 2.55 50.2 0 0 389.92 415.61
  C 393.03 413.50 394.73 411.42 399.30 406.59
  A 1.04 1.03 45.4 0 1 400.81 406.60
  L 441.11 450.10
  A 0.66 0.66 0.0 0 1 441.12 450.99
  L 432.85 460.18
  A 0.95 0.95 0.0 0 0 432.88 461.49
  L 448.89 477.50
  A 0.66 0.66 0.0 0 0 449.83 477.50
  L 466.00 461.33
  A 0.76 0.76 0.0 0 0 466.02 460.28
  L 457.87 451.48
  A 1.03 1.02 -45.2 0 1 457.87 450.09
  L 497.85 406.60
  A 0.78 0.78 0.0 0 1 498.94 406.55
  L 509.44 416.01
  A 1.18 1.18 0.0 0 0 511.06 415.96
  L 521.58 405.45
  A 0.76 0.76 0.0 0 0 521.60 404.39
  L 511.04 392.99
  A 0.47 0.46 -46.5 0 1 511.03 392.37
  Q 525.58 375.97 537.24 364.34
  Q 542.47 359.13 543.76 356.33
  C 547.78 347.58 546.18 338.07 539.80 330.90
  Q 532.36 322.54 525.06 315.68
  C 519.02 310.00 513.92 304.50 509.32 299.89
  Q 485.76 276.29 460.00 250.60
  A 1.48 1.48 0.0 0 1 459.92 248.60
  Q 478.13 227.01 499.97 203.97
  A 1.96 1.92 21.0 0 1 501.39 203.36
  L 598.03 203.36
  A 0.88 0.88 0.0 0 1 598.70 204.81
  Q 593.04 211.35 581.84 222.09
  Q 563.75 239.43 556.57 246.57
  C 554.01 249.11 551.67 251.17 547.51 251.34
  Q 545.42 251.43 535.96 251.37
  A 1.04 1.04 0.0 0 1 534.93 250.34
  C 534.85 243.07 533.39 235.37 526.86 231.42
  C 521.23 228.01 514.95 228.61 509.64 232.30
  Q 501.32 238.07 502.86 249.26
  Q 503.15 251.37 506.84 255.44
  C 511.60 260.69 514.73 263.25 519.98 268.52
  Q 570.28 318.91 603.45 351.94
  A 1.37 1.35 43.4 0 1 603.51 353.82
  L 573.58 387.07
  A 1.42 1.42 0.0 0 1 571.97 387.42
  C 563.38 383.73 552.25 383.31 544.87 389.97
  A 1.37 1.37 0.0 0 0 544.78 391.92
  L 556.48 404.54
  A 1.02 1.01 44.8 0 1 556.49 405.90
  L 515.50 451.44
  A 0.64 0.64 0.0 0 1 514.60 451.49
  L 505.56 443.35
  A 0.81 0.81 0.0 0 0 504.43 443.38
  L 493.85 453.95
  A 1.08 1.07 -44.2 0 0 493.82 455.44
  L 502.21 464.50
  A 1.21 1.20 -45.6 0 1 502.22 466.12
  L 450.40 523.69
  A 1.04 1.04 0.0 0 1 448.88 523.71
  Q 424.00 497.40 396.48 465.75
  A 1.11 1.11 0.0 0 1 396.53 464.23
  L 404.93 455.83
  A 0.99 0.98 46.1 0 0 404.95 454.46
  L 395.06 443.78
  A 0.99 0.99 0.0 0 0 393.75 443.65
  L 383.71 450.99
  A 0.75 0.75 0.0 0 1 382.70 450.89
  L 342.06 405.73
  A 0.81 0.81 0.0 0 1 342.09 404.62
  L 354.14 392.56
  A 0.93 0.92 49.0 0 0 354.22 391.34
  C 347.60 382.75 335.41 383.81 326.40 387.34
  A 1.21 1.20 -31.8 0 1 325.06 387.03
  L 295.16 353.80
  A 0.69 0.68 46.0 0 1 295.17 352.88
  Q 301.03 346.53 313.41 333.79
  Q 325.78 321.06 331.93 315.03
  Q 356.21 291.24 384.61 262.61
  C 391.11 256.07 398.72 251.61 395.38 240.81
  Q 393.32 234.11 386.47 230.80
  C 380.16 227.74 373.67 229.19 368.74 233.95
  C 364.76 237.79 363.67 245.17 363.83 250.52
  A 0.82 0.82 0.0 0 1 363.02 251.36
  Q 361.09 251.40 351.25 251.35
  C 345.25 251.32 342.93 247.00 339.43 243.77
  Q 336.53 241.10 308.51 213.74
  Q 302.62 208.00 299.69 204.56
  A 0.60 0.59 72.1 0 1 300.19 203.58
  Z"
/>
<rect fill="#ffcb04" x="-25.08" y="-25.08" transform="translate(448.88,301.52) rotate(-44.9)" width="50.16" height="50.16" rx="1.96"/>
<path fill="#ffcb04" d="
  M 371.66 344.12
  L 403.95 311.82
  A 2.28 2.28 0.0 0 1 407.17 311.82
  L 439.47 344.12
  A 2.28 2.28 0.0 0 1 439.47 347.34
  L 407.18 379.64
  A 2.28 2.28 0.0 0 1 403.96 379.64
  L 371.66 347.34
  A 2.28 2.28 0.0 0 1 371.66 344.12
  Z"
/>
<path fill="#ffcb04" d="
  M 527.49 347.93
  L 494.39 381.03
  A 1.73 1.73 0.0 0 1 491.95 381.03
  L 458.84 347.93
  A 1.73 1.73 0.0 0 1 458.84 345.49
  L 491.95 312.38
  A 1.73 1.73 0.0 0 1 494.39 312.38
  L 527.49 345.49
  A 1.73 1.73 0.0 0 1 527.49 347.93
  Z"
/>
<path fill="#ffcb04" d="
  M 484.35 392.11
  L 451.01 425.45
  A 1.46 1.46 0.0 0 1 448.95 425.45
  L 415.49 391.99
  A 1.46 1.46 0.0 0 1 415.49 389.93
  L 448.83 356.59
  A 1.46 1.46 0.0 0 1 450.89 356.59
  L 484.35 390.05
  A 1.46 1.46 0.0 0 1 484.35 392.11
  Z
  M 449.17 413.41
  Q 450.39 413.41 451.29 413.08
  A 1.06 1.05 -10.3 0 0 451.98 412.09
  C 452.01 403.18 451.55 391.17 452.54 389.84
  Q 452.93 389.31 454.98 389.34
  Q 459.70 389.39 463.23 388.83
  A 0.92 0.92 0.0 0 0 464.00 387.97
  L 464.17 385.02
  A 0.76 0.75 3.8 0 0 463.46 384.22
  L 453.60 383.65
  A 1.00 0.99 88.6 0 1 452.67 382.76
  Q 452.16 378.43 451.86 373.73
  Q 451.70 371.38 449.54 371.62
  Q 449.49 371.62 449.24 371.62
  Q 449.00 371.62 448.95 371.62
  Q 446.79 371.37 446.62 373.72
  Q 446.30 378.42 445.78 382.75
  A 1.00 0.99 -88.4 0 1 444.85 383.64
  L 434.98 384.17
  A 0.76 0.75 -3.6 0 0 434.27 384.97
  L 434.43 387.92
  A 0.92 0.92 0.0 0 0 435.20 388.78
  Q 438.73 389.35 443.45 389.32
  Q 445.50 389.30 445.89 389.83
  C 446.87 391.16 446.37 403.17 446.37 412.08
  A 1.06 1.05 10.5 0 0 447.05 413.07
  Q 447.96 413.41 449.17 413.41
  Z"
/>
<path fill="#0066b3" d="
  M 449.24 371.62
  Q 449.49 371.62 449.54 371.62
  Q 451.70 371.38 451.86 373.73
  Q 452.16 378.43 452.67 382.76
  A 1.00 0.99 88.6 0 0 453.60 383.65
  L 463.46 384.22
  A 0.76 0.75 3.8 0 1 464.17 385.02
  L 464.00 387.97
  A 0.92 0.92 0.0 0 1 463.23 388.83
  Q 459.70 389.39 454.98 389.34
  Q 452.93 389.31 452.54 389.84
  C 451.55 391.17 452.01 403.18 451.98 412.09
  A 1.06 1.05 -10.3 0 1 451.29 413.08
  Q 450.39 413.41 449.17 413.41
  Q 447.96 413.41 447.05 413.07
  A 1.06 1.05 10.5 0 1 446.37 412.08
  C 446.37 403.17 446.87 391.16 445.89 389.83
  Q 445.50 389.30 443.45 389.32
  Q 438.73 389.35 435.20 388.78
  A 0.92 0.92 0.0 0 1 434.43 387.92
  L 434.27 384.97
  A 0.76 0.75 -3.6 0 1 434.98 384.17
  L 444.85 383.64
  A 1.00 0.99 -88.4 0 0 445.78 382.75
  Q 446.30 378.42 446.62 373.72
  Q 446.79 371.37 448.95 371.62
  Q 449.00 371.62 449.24 371.62
  Z"
/>
</svg>
