<svg width="2160" height="1440" viewBox="0 0 1620 1080" xmlns="http://www.w3.org/2000/svg">
    <g fill="#fff700">
        <path d="M0 0h1620v854h-527.42c2.05-8.25.33-17.62-5.54-23.94-5.55-5.89-9.19-13.9-8.73-22.09-.42-8.03 1.37-15.94 4.11-23.44 2.48-8.75 4.87-18.75.29-27.23-3.1-5.68-10.07-6.59-15.63-8.44-7.39-2.16-15.38-5.76-18.59-13.29-3.07-8.35-3.17-17.56-1.62-26.25 5.15-24.07 8.58-49 4.78-73.52-1.68-10.46-4.23-20.93-9.02-30.44-4-8.54-3.61-18.63-.31-27.33 4.46-11.98 6.3-25.57 2.42-37.93-1.86-6.58-8.87-10.23-10.01-17.1-.7-4.98 2.01-9.61 4.89-13.45 5.45-7.45 9.16-16.55 16.82-22.13 6.25-4.53 15.2-.82 18.76 5.37 1.05 2.64.57 5.84-1.39 7.95-10.97 12.11-21.74 25.76-24.71 42.26-1.83 9.95 1.65 20.31 7.65 28.25 3.03 3.9 5.86 8.59 5.08 13.76-.4 4.33-4.04 7.16-6.53 10.36-4.29 5.29-7.23 12.5-5.13 19.3 2.59 9.03 9.18 16.1 15.83 22.41 13.77 13.3 22.82 31.62 23.76 50.85 2.82-1.51 4.5-4.36 6.61-6.65 6.08-7.54 11.84-15.7 14.7-25.05.97-4.24 1.62-9.3-1.23-12.98-1.58-2.46-3.36-4.91-3.94-7.83-.72-3.87.6-7.73.39-11.59-.86-5.01-7.65-6.45-7.72-11.77.33-5.43 4-9.93 5.02-15.23 2.71-9.71-1.59-20.04-8.36-27.02-4.48-4.9-10.4-8.71-13.25-14.91-1.75-5.1-.6-10.96 2.78-15.15 5.4-6.92 12.28-12.68 16.72-20.36 6.18-10.24 8.3-22.83 6.05-34.56-1.94-10.83-4.12-21.95-9.81-31.53-3.35-5.64-8.88-10.6-15.68-11.08-8.44-.91-16.35 2.65-23.9 5.9-12.84 5.44-23.78 14.77-32.1 25.88-5.93 7.44-10.65 15.86-17.5 22.55-5.93 5.79-13.37 10.28-21.58 11.82-9.66 1.2-19.54.22-28.78-2.88-13.97-4.69-28.49-7.84-43.21-8.73-16.03-.08-32.31 3.67-46.02 12.2-1.65 1.36-3.57.15-5.12-.7-10.24-5.96-21.95-9.53-33.81-9.93-7.95-.07-16.76 3.05-24.09-1.31-5.89-3.7-6.26-11.25-9.2-16.91-3.95-9-11.29-16.63-20.61-20.04-6.14-2.27-12.74-4.94-16.36-10.74-3.56-5.68-.96-12.69-3.06-18.77-2.14-6.68-8.24-10.87-11.52-16.88 16.03 2.02 33.08-2.43 45.27-13.28 2.28-2.23 5.23-4.29 6.33-7.36-6.33-10.25-14.8-19.65-25.71-25.1-5.33-2.65-11.14-4.17-17.03-4.85 2.94-8.4 5.39-17.27 4.66-26.24-1.15-14.44-9.55-27.96-21.37-36.13-.29 6.71-.61 13.51-2.5 20-3.66 13.36-12.36 24.79-22.63 33.85-3.89-1.53-7.97-2.81-12.17-2.95-6.02-.02-11.13 3.88-17.09 4.14-3.77.32-7.68.24-11.12-1.49-6.68-2.98-14.2-3.79-21.39-2.61-2.84.49-5.46 1.81-8.31 2.23-13.83-7.44-22.12-23.37-21.69-38.92.02-4.03.07-8.06-.03-12.08-11.15 10.5-21.54 23.27-24.65 38.64-2.27 11.24 3.05 22.16 9.99 30.66-12.57.19-26.48 1.52-36.26 10.29-1.8 2.02-5.08 4.22-3.97 7.32 3.75 7.48 10.42 13.01 17.53 17.17 10.31 5.93 21.89 9.16 33.45 11.63.81 4.46 2.23 8.82 4.91 12.52-4.8 8.2-9.63 16.48-12.62 25.55-2.38 6.55-.56 13.92 2.88 19.74 2.73 4.54 8.34 7.23 13.47 5.1 1.72 7.42 9.96 9.27 16.27 11.06 2.19 7.35 1.92 15.84-2.42 22.38-5.11 8.1-12.42 14.69-16.56 23.44-4.86 8.73-6.68 19.25-4.09 28.97.96 3.79 3.16 7.09 4.49 10.74-.56 2.04-2.68 3.23-3.99 4.81-9.3 9.27-15.82 22.93-12.47 36.22.94 5.67 3.9 10.66 6.22 15.83-2.85 7.98-4.43 16.71-2.15 25.06 1.48 7.06 5.13 13.37 9.13 19.28-4.47 2.57-9.32 4.59-13.11 8.19-3.93 3.18-6.8 7.47-10.74 10.62-3.84 1.23-7.17-1.58-10.72-2.45-4.26-.86-8.63.19-12.61 1.72-7.62 2.9-15.24 6.28-23.46 7.02-3.11.23-6.76 1.05-8.23 4.16-2.33 4.77.81 9.89.05 14.89-1.04 8.82-6.67 16.39-12.79 22.52-5.1 4.58-6.88 12.45-4.6 18.86 1.59 4.7 7.23 6.27 8.97 10.9 2.72 5.5.13 11.53.4 17.29.45 9.26 3.85 18.07 8.27 26.13 4.48 11.49 8.25 23.25 12.52 34.82-184.51.06-369.01.01-553.51.03V0Z"/>
        <path d="M577.17 732.58c4.74-.8 10.49-1.71 14.43 1.75 8.4 7.93 17.57 15.09 27.43 21.13l.48-3.42c8.95 5.08 18.4 9.75 28.7 11.27 14.15 2.67 28.89-2.43 39.93-11.3.59-.56 2.48-1.43 2.32.23 3.33 15.7 9.64 30.66 17.93 44.37 2.95 4.84 5.68 9.87 7.47 15.26 4.22 13.66 3.63 28.56-.54 42.14-41.13-.03-82.26.01-123.39-.02 11.19-7.95 17.6-21.07 20.28-34.26 1.56-5.35-1.99-10.17-4.27-14.7-3.79-7.26-10.38-14.06-18.98-14.68-4.93.2-10.83 3.19-14.78-1.27.88-1.48 1.86-3.04 3.65-3.49 6.57-2.83 13.72-.98 20.59-1.21-1.15-8.08-3.05-16.8-9.26-22.59-3.02-3.09-7.26-4.27-11.11-5.89-5.4-3.85-7.66-10.65-8.36-16.97-.23-4.05 4.2-5.74 7.48-6.35ZM843.98 742.25c4.72-.83 9.54-.79 14.28-1.55 1.08 9.66 2.42 19.51 6.51 28.43 5.93 13.74 17.03 24.89 30.1 32 7.32 4.15 15.95 6.82 21.27 13.75 4.24 5.12 3.51 12.55.89 18.24-3.54 7.17-8.78 13.42-11.71 20.9-44.76-.05-89.52-.01-134.28-.01-1.95-6.88-5.74-13.1-7.23-20.11-1.89-8.32-2.98-16.79-4.62-25.16-2.33-9.68-2.33-21.08 4.5-29.03 5.25-5.8 9.87-12.77 10.63-20.75.13-3.15-.67-6.24-1-9.35 10.1 1.83 20.41 3.56 30.7 2.41 13.73-1.44 26.32-7.85 39.96-9.77ZM955.34 774.98c-1.12-5.67 3.01-10.68 7.59-13.39 1.5-.18 2.82.73 4.19 1.26 13.31 6.42 28.61 7.86 41.25 15.82 10.4 6.39 17.57 17.21 20.68 28.9 1.89 6.87.19 14.38 3.6 20.89 3.91 7.85 5.89 16.84 4 25.55-23.07-.02-46.15-.01-69.23 0-.36-3.68-.85-7.35-1.67-10.94-.56-2.91-2.68-5.22-3.32-8.09-.17-3.32 2.15-5.91 4.58-7.82 5.78-4.64 8.69-12.01 9.23-19.25-.04-9.77-4.77-19.77-13.28-24.91-3.12-1.93-7.15-3.95-7.62-8.02Z"/>
    </g>
    <g fill="#1d1d1d">
        <path d="M737.33 300.72c11.82 8.17 20.22 21.69 21.37 36.13.73 8.97-1.72 17.84-4.66 26.24 5.89.68 11.7 2.2 17.03 4.85 10.91 5.45 19.38 14.85 25.71 25.1-1.1 3.07-4.05 5.13-6.33 7.36-12.19 10.85-29.24 15.3-45.27 13.28 3.28 6.01 9.38 10.2 11.52 16.88 2.1 6.08-.5 13.09 3.06 18.77 3.62 5.8 10.22 8.47 16.36 10.74 9.32 3.41 16.66 11.04 20.61 20.04 2.94 5.66 3.31 13.21 9.2 16.91 7.33 4.36 16.14 1.24 24.09 1.31 11.86.4 23.57 3.97 33.81 9.93 1.55.85 3.47 2.06 5.12.7 13.71-8.53 29.99-12.28 46.02-12.2 14.72.89 29.24 4.04 43.21 8.73 9.24 3.1 19.12 4.08 28.78 2.88 8.21-1.54 15.65-6.03 21.58-11.82 6.85-6.69 11.57-15.11 17.5-22.55 8.32-11.11 19.26-20.44 32.1-25.88 7.55-3.25 15.46-6.81 23.9-5.9 6.8.48 12.33 5.44 15.68 11.08 5.69 9.58 7.87 20.7 9.81 31.53 2.25 11.73.13 24.32-6.05 34.56-4.44 7.68-11.32 13.44-16.72 20.36-3.38 4.19-4.53 10.05-2.78 15.15 2.85 6.2 8.77 10.01 13.25 14.91 6.77 6.98 11.07 17.31 8.36 27.02-1.02 5.3-4.69 9.8-5.02 15.23.07 5.32 6.86 6.76 7.72 11.77.21 3.86-1.11 7.72-.39 11.59.58 2.92 2.36 5.37 3.94 7.83 2.85 3.68 2.2 8.74 1.23 12.98-2.86 9.35-8.62 17.51-14.7 25.05-2.11 2.29-3.79 5.14-6.61 6.65-.94-19.23-9.99-37.55-23.76-50.85-6.65-6.31-13.24-13.38-15.83-22.41-2.1-6.8.84-14.01 5.13-19.3 2.49-3.2 6.13-6.03 6.53-10.36.78-5.17-2.05-9.86-5.08-13.76-6-7.94-9.48-18.3-7.65-28.25 2.97-16.5 13.74-30.15 24.71-42.26 1.96-2.11 2.44-5.31 1.39-7.95-3.56-6.19-12.51-9.9-18.76-5.37-7.66 5.58-11.37 14.68-16.82 22.13-2.88 3.84-5.59 8.47-4.89 13.45 1.14 6.87 8.15 10.52 10.01 17.1 3.88 12.36 2.04 25.95-2.42 37.93-3.3 8.7-3.69 18.79.31 27.33 4.79 9.51 7.34 19.98 9.02 30.44 3.8 24.52.37 49.45-4.78 73.52-1.55 8.69-1.45 17.9 1.62 26.25 3.21 7.53 11.2 11.13 18.59 13.29 5.56 1.85 12.53 2.76 15.63 8.44 4.58 8.48 2.19 18.48-.29 27.23-2.74 7.5-4.53 15.41-4.11 23.44-.46 8.19 3.18 16.2 8.73 22.09 5.87 6.32 7.59 15.69 5.54 23.94-1.1 5.71-3.56 11.06-6.53 16.04-2.68-.65-5.99-2.7-8.32-.26-.95 2.81-.83 6.17.72 8.75 2.15 2.87 6.03 4.32 7.09 8.02 3.06 8.85 2.88 19.06-1.58 27.42-.84 1.42-1.72 2.98-3.24 3.75-14.85 6.52-32.29 7.01-47.36.91-.38-6.32 1.13-12.51 1.97-18.73.92-6.27 3.02-12.3 5.66-18.04 2.15-4.65 2.75-10.83-.98-14.84-3.27-3.51-4.23-8.38-3.36-13.01 1.89-8.71-.09-17.7-4-25.55-3.41-6.51-1.71-14.02-3.6-20.89-3.11-11.69-10.28-22.51-20.68-28.9-12.64-7.96-27.94-9.4-41.25-15.82-1.37-.53-2.69-1.44-4.19-1.26-4.58 2.71-8.71 7.72-7.59 13.39.47 4.07 4.5 6.09 7.62 8.02 8.51 5.14 13.24 15.14 13.28 24.91-.54 7.24-3.45 14.61-9.23 19.25-2.43 1.91-4.75 4.5-4.58 7.82.64 2.87 2.76 5.18 3.32 8.09.82 3.59 1.31 7.26 1.67 10.94-.23 6.37-1.5 12.93-5.1 18.31-2.66 4.32-6.44 7.77-10.39 10.88-3.26-2.45-5.46-5.97-8.57-8.54-2.21-1.96-6.12-1.53-7.48 1.21-1.68 3.46-.51 7.61 1.49 10.69 3.36 4.9 8.53 8.37 11.35 13.68 1.47 3.06 1.62 7.08-.49 9.91-2.76 4.06-7.27 6.39-11.59 8.43-9.74 4.17-20.3 5.89-30.69 7.57-9.09.37-18.09-1.83-26.65-4.7-1.66-.3-2.22-1.85-2.31-3.33-.67-10.65 3.25-21.13 9.9-29.37-1.12-6.1-2.98-12.86.17-18.67 2.87-5.84 8.93-9.01 14.77-11.15 2.31-.51 2.61-3.13 3.49-4.91 2.93-7.48 8.17-13.73 11.71-20.9 2.62-5.69 3.35-13.12-.89-18.24-5.32-6.93-13.95-9.6-21.27-13.75-13.07-7.11-24.17-18.26-30.1-32-4.09-8.92-5.43-18.77-6.51-28.43-4.74.76-9.56.72-14.28 1.55-13.64 1.92-26.23 8.33-39.96 9.77-10.29 1.15-20.6-.58-30.7-2.41.33 3.11 1.13 6.2 1 9.35-.76 7.98-5.38 14.95-10.63 20.75-6.83 7.95-6.83 19.35-4.5 29.03 1.64 8.37 2.73 16.84 4.62 25.16 1.49 7.01 5.28 13.23 7.23 20.11 3.11 9.05 4.41 18.68 3.55 28.23-5.12-1.15-8.56-5.31-12.67-8.2-1.71-1.23-4.77-2.4-5.99.05-.81 4.34.6 9.07 3.62 12.29 4.65 5.05 9.86 9.59 15.64 13.31 1.37 1.11 3.64 2.18 3.38 4.3.09 3.09-2.96 4.75-4.59 6.98-5.31 6.58-2.35 16.41-8.22 22.71-3.56 4.47-9.65 4.59-14.79 5.57-14.15 2.54-29.31 3.32-42.85-2.27-3.5-1.79-7.72-3.35-9.75-6.9 2.18-11.32 7.53-21.65 12.83-31.76 2.63-4.78 2.69-10.7.11-15.5-5.15-9.4-.05-20.04 4.01-28.81 4.17-13.58 4.76-28.48.54-42.14-1.79-5.39-4.52-10.42-7.47-15.26-8.29-13.71-14.6-28.67-17.93-44.37.16-1.66-1.73-.79-2.32-.23-11.04 8.87-25.78 13.97-39.93 11.3-10.3-1.52-19.75-6.19-28.7-11.27l-.48 3.42c-9.86-6.04-19.03-13.2-27.43-21.13-3.94-3.46-9.69-2.55-14.43-1.75-3.28.61-7.71 2.3-7.48 6.35.7 6.32 2.96 13.12 8.36 16.97 3.85 1.62 8.09 2.8 11.11 5.89 6.21 5.79 8.11 14.51 9.26 22.59-6.87.23-14.02-1.62-20.59 1.21-1.79.45-2.77 2.01-3.65 3.49 3.95 4.46 9.85 1.47 14.78 1.27 8.6.62 15.19 7.42 18.98 14.68 2.28 4.53 5.83 9.35 4.27 14.7-2.68 13.19-9.09 26.31-20.28 34.26-9.77 7.53-22.13 10.19-34.15 11.37-1.69-3.7-2.99-7.55-4.27-11.39-4.27-11.57-8.04-23.33-12.52-34.82-4.42-8.06-7.82-16.87-8.27-26.13-.27-5.76 2.32-11.79-.4-17.29-1.74-4.63-7.38-6.2-8.97-10.9-2.28-6.41-.5-14.28 4.6-18.86 6.12-6.13 11.75-13.7 12.79-22.52.76-5-2.38-10.12-.05-14.89 1.47-3.11 5.12-3.93 8.23-4.16 8.22-.74 15.84-4.12 23.46-7.02 3.98-1.53 8.35-2.58 12.61-1.72 3.55.87 6.88 3.68 10.72 2.45 3.94-3.15 6.81-7.44 10.74-10.62 3.79-3.6 8.64-5.62 13.11-8.19-4-5.91-7.65-12.22-9.13-19.28-2.28-8.35-.7-17.08 2.15-25.06-2.32-5.17-5.28-10.16-6.22-15.83-3.35-13.29 3.17-26.95 12.47-36.22 1.31-1.58 3.43-2.77 3.99-4.81-1.33-3.65-3.53-6.95-4.49-10.74-2.59-9.72-.77-20.24 4.09-28.97 4.14-8.75 11.45-15.34 16.56-23.44 4.34-6.54 4.61-15.03 2.42-22.38-6.31-1.79-14.55-3.64-16.27-11.06-5.13 2.13-10.74-.56-13.47-5.1-3.44-5.82-5.26-13.19-2.88-19.74 2.99-9.07 7.82-17.35 12.62-25.55-2.68-3.7-4.1-8.06-4.91-12.52-11.56-2.47-23.14-5.7-33.45-11.63-7.11-4.16-13.78-9.69-17.53-17.17-1.11-3.1 2.17-5.3 3.97-7.32 9.78-8.77 23.69-10.1 36.26-10.29-6.94-8.5-12.26-19.42-9.99-30.66 3.11-15.37 13.5-28.14 24.65-38.64.1 4.02.05 8.05.03 12.08-.43 15.55 7.86 31.48 21.69 38.92 2.85-.42 5.47-1.74 8.31-2.23 7.19-1.18 14.71-.37 21.39 2.61 3.44 1.73 7.35 1.81 11.12 1.49 5.96-.26 11.07-4.16 17.09-4.14 4.2.14 8.28 1.42 12.17 2.95 10.27-9.06 18.97-20.49 22.63-33.85 1.89-6.49 2.21-13.29 2.5-20m3.64 8.35c-1.04 20.04-13.13 37.68-28.12 50.21-5.35-2.5-11.43-4.44-17.3-2.53-7.48 2.4-15.71 5.37-23.39 1.91-9.53-4.4-20.83-4.6-30.35-.05-5.49-3.05-10.4-7.16-14.41-12-7.83-9.25-11.42-21.53-11.26-33.54-9.19 10-17.6 22.8-16.44 36.98.77 10.69 8.68 18.58 15.3 26.22-7.71.22-15.47-.23-23.11 1.06-8.43 1.17-17.37 4.26-22.51 11.47 6.06 10.09 16.78 16.09 27.52 20.05 7.33 2.61 14.82 4.93 22.56 5.98 1.73 5.61 2.76 11.64 7.03 16.04-4.48 7.23-9.25 14.4-12.2 22.43-.57 1.74-1.25 3.91-.15 5.59 2.23-.07 2.84-2.53 3.88-4.05 5.27-2.3 10.79.05 15.92 1.53 5.86-1.3 11.75-2.91 17.81-2.72-2.99 3.31-4.48 8.4-1.95 12.42 2.91 5.63 11.25 7.08 15.7 2.42 5.26-4.51 3.42-13.52-2.57-16.46-7.54-3.46-16.07-2-23.88-.35-2.29.43-4.68 1.66-6.95.53-3.94-1.44-8.11-2.18-12.29-1.74 3.85-7.77 8.09-15.42 13.39-22.31 5.11-7.23 7.54-16.61 5.37-25.31-1.42-7.28-4.01-15.38-11.11-18.98 2.46 4.08 4.22 8.54 5.55 13.11-3.89-2.21-8.29-3.19-12.74-3.31.75-9.98 5.88-19.39 13.75-25.54 7.16-5.37 15.85-9.85 25.06-8.88 7.96.16 14.77 6.13 22.92 4.78 6.54-.35 12.43-3.82 18.95-4.19 10.42.56 17.98 8.64 24.95 15.49 5.83-2.23 11.82-4.56 18.13-4.8 11.81-.08 24.61 2.57 33.09 11.39-5.78-2.59-11.74-4.97-18.05-5.84-8.92-1.4-18.4.33-25.88 5.48 7.65-1.81 15.58-3.62 23.48-2.34 11.27 1.08 21.5 6.66 30.44 13.32-6.62 7-15.84 11.14-25.24 12.79-11.72 1.68-23.61-.04-34.92-3.17 2.59 2.05 5.44 3.83 7.71 6.27 1.61 3.13 2.5 6.6 4.16 9.73 2.29 5.08 7.14 8.36 9.69 13.28 1.96 3.88.97 8.41 1.73 12.57.32 7.32 4.86 13.97 11.01 17.76 7.48 5.09 17.47 6.22 23.36 13.63 7.42 7.87 6.55 20.82 15.69 27.36 7.03 5.46 16.41 4.88 24.73 3.84 15.14-1.45 29.57 4.9 42.07 12.82 10.48-7.1 22.4-12.32 35.08-13.68 16.8-2.25 33.77 1.24 49.8 6.14 12.45 4.08 25.96 6.81 38.94 3.64 11.96-2.7 21.71-11.03 29.36-20.24 6.78-8.86 12.55-18.58 20.72-26.28 9.04-9.14 20.98-14.73 33.15-18.4 4.33-1.24 9.61-1.17 12.99 2.21 6.9 6.55 8.85 16.33 11.05 25.19 2.81 11.25 3.51 23.71-1.9 34.32-4.96 10.68-15.48 17.36-20.85 27.77-3.22 5.92-3.14 13.42.1 19.32 3.6 6.84 10.23 11.25 15.11 17.08 4.66 5.22 6.89 12.85 4.79 19.65-1.69 6.44-6.5 12.67-4.23 19.62.83 3.99 4.03 6.6 6.87 9.22.33 3.68-.86 7.51-.33 11.29-4.16-3.48-8.25-7.07-11.91-11.06-6.9-6.98-11.17-16.17-13.04-25.73-3.28 7.23.09 15.21 4.66 21.01 5.61 8.37 14.86 13.16 21.43 20.63 1.83 2.86 3.93 5.63 5.42 8.7-1.13 7.46-4.95 14.33-9.46 20.28-4.28-15.64-13.61-29.58-25.36-40.62-4.76-4.84-9.79-10.09-11.43-16.89-1.34-5.35 1.58-10.64 5.19-14.4 3.89-4.05 7-9.38 6.62-15.18.24-10.53-9.18-17.55-12.02-27.1-2.57-7.4-.56-15.41 2.42-22.37 4.32-9.48 10.66-17.9 17.7-25.53 3.97-4.21 6.82-10.19 5.25-16.04-3.63-11.45-18.64-18.35-29.31-12.11-7.84 4.02-12.17 12.05-16.76 19.16-3.26 5.68-8.14 10.55-9.69 17.09-2.16 7.52 1.08 15.65 6.38 21.07 3.8 3.88 4.76 9.6 4.95 14.83.49 11.59-4.63 22.31-6.61 33.53-1.55 8.86.58 18.01 4.53 25.98 4.77 9.83 6.56 20.76 7.76 31.54 1.88 16.35.04 32.84-2.36 49.04-1.7 11.7-5.48 23.08-5.68 34.98-.38 9.23.96 19.17 6.88 26.61 5.61 6.75 14.34 9.45 22.6 11.26 3.86 1.12 8.87 1.98 10.65 6.1.97 8.02-4.13 15.05-5.04 22.84-3.03 13.9-1.32 29.91 8.92 40.57 7.06 6.9 5.36 17.99 1.75 26.2-2.12-.09-4.59.05-6.07-1.75-1.7-2.07-2.98-4.43-4.45-6.64.31 2.56.74 5.16.4 7.75-.53 3.74-2.65 7.09-2.84 10.92-1 7.06 2.85 14.44 8.92 18.03.97 3.44 1.26 7.01 1.5 10.57-5.49.86-11.06 1.05-16.6.95-6.4-.37-13.39-1.15-18.59-5.21 2.52-8.4 8.24-16.67 5.78-25.77-1-4.92-7-7.96-5.74-13.4 1.55-8.07.95-16.53-1.91-24.24-1.52-4.59-4.45-8.86-4.32-13.85-.21-18.01-9.8-35.56-24.79-45.51-15.95-10.53-36.34-10.9-51.96-22.03-15.52-10.8-28.07-25.77-36.52-42.65-9.84-19.92-13.02-42.4-12.53-64.43-4.15 12.14-1.61 25.29.45 37.6.78 5.8 3.05 11.29 3.73 17.1-7.36-16.5-13.79-33.45-22.28-49.43-1.54-2.72-2.92-5.6-5.18-7.82 2.49 8.27 5.77 16.28 8.77 24.38 8.75 21.74 18.76 43.31 33.16 61.95-9.62 11.64-22.88 21.31-38.22 23.2-4.05.46-9.09 1.31-12.2-2.02-2.04-2.93-2.08-6.88-4.67-9.48-3.56-4.48-9.59-5.65-15-5.73-13.34-.31-26.62 2.22-39.19 6.56-8.95 3-18.33 5.05-27.82 4.53-6.89-.5-14.03-.89-20.4-3.8-5.32-2.67-6.7-8.95-7.7-14.28-2.04-12.8-5.66-25.32-6.67-38.28-1.48 5.91-2.95 11.93-2.72 18.08-.18 7.24 2.06 14.21 3.29 21.27-7.04-5.99-13.39-12.88-18.15-20.82-2.25-3.65-3.69-7.72-5.83-11.41.36 4.41 1.88 8.63 3.36 12.77 4.59 11.79 11.11 22.98 20.1 31.97 5.53 5.49 7.97 13.8 6.54 21.42-1.69 7.52-8.16 12.41-11.69 18.97-4.94 8.62-5.1 19.13-2.99 28.62 2.82 13.76 3.59 28.28 9.99 41.03 2.21 5.58 4.03 11.35 4.92 17.31-3.52-1.8-7.63-3.57-11.53-1.84-6.24 2.43-8.24 10.29-6.21 16.21 3.2 9.89 11.45 17.05 19.71 22.81-1.84 4.35-5.34 8.18-5.04 13.27-2.04-.53-3.45-2.18-5.1-3.35-11.12-8.36-24.17-14.08-37.76-17 .64-5 1.23-10.3-.7-15.09-.96-2.66-2.82-5.16-2.54-8.1.35-5.25 2.67-10.04 4.5-14.89 6.52-15.38 7-33.12 2.13-49.04-3.28-10.96-10.63-19.99-15.24-30.34-7.14-14.58-11.2-30.51-12.88-46.61-1.62-18.82 4.61-37.32 2.87-56.14-.59-4.27-1.29-8.78-4.03-12.26 1.22 12.33 1.54 24.9-.73 37.13-5.36-1.81-10.65-5.1-13.04-10.44-2.98-6.02-2.32-12.91-2.31-19.41-.03-6.28 2.87-12.65.62-18.83-.74-2.47-3.01-3.89-5.21-4.91 1.45 3.37 1.99 7.04 1.82 10.7-.22 11.07-2.61 22.68 1.38 33.36 2.8 7.09 9.85 10.92 16.68 13.28-1.34 8.69-2.08 17.53-1.77 26.34-12.38-.57-24.98-4.86-33.78-13.86-12.89-12.44-17.59-31-30.91-43.07-10.04-10.44-12.93-27.56-5.29-40.19-4.42-7.88-9.19-16.42-8.12-25.8 1.22-10.71 8.75-19.16 16.44-26.08 8.93-8.28 16.94-17.86 21.96-29.04 2.07-4.94 4-11.1.81-15.98-2.5 16.53-12.31 31.3-24.99 41.9-8.53 7.27-16.41 16.65-17.93 28.13-1.33 9.59 2.65 18.88 7.54 26.89-4.19 8.03-5.27 17.6-2.48 26.26 1.91 7.69 6.91 13.97 11.04 20.55-4.29 1.59-8.71 3.03-12.51 5.66-5.54 3.76-9.38 9.44-14.57 13.6-3.21 2.39-7.62 2.02-11 .23-2.99-1.65-6.52-2.16-9.83-1.27-7.56 2.03-14.53 5.85-22.2 7.5-3.76 1.01-7.77.74-11.42 2.16-1.61 3.76.71 7.62.46 11.49.11 10.67-6.55 19.88-13.54 27.34-4.21 3.4-5.96 9.42-4.41 14.58.8 2.97 3.85 4.3 5.79 6.42 4.79 4.48 5.25 11.48 4.47 17.61-1.55 10.96 2.61 21.7 7.81 31.15 5.18 14.19 10.14 28.47 15.16 42.72 12.53-.91 25.24-5.37 34.21-14.43 7.94-8.17 12.74-19.17 14.15-30.4-3.08-8.06-7.43-16.78-15.62-20.62-4.89-2.54-9.98 1.17-15.03.12-3.42-.43-6.97-2.89-7.33-6.53-.47-3.07 2.15-5.5 4.65-6.75 5.72-2.78 12.27-2.51 18.46-2.41-1.38-5.92-3.53-12.19-8.57-15.99-2.73-2.29-6.39-2.79-9.39-4.55-5.04-3.74-7.82-9.68-9.53-15.56-1.16-3.59-1.08-8 1.72-10.83 2.75-3.18 7-4.28 11-4.82 5.75-1.03 12.57-.26 16.7 4.3 7.3 7.07 15.37 14.15 25.5 16.63 3.53.77 6.46 3 9.75 4.4 8.42 4.05 17.73 6.52 27.13 6.16 11.19-.09 21.61-5.56 30.04-12.59 1.6-1.24 2.93-3.02 5-3.5 2.27 15.83 7.85 31.09 15.45 45.12 2.87 5.47 6.55 10.5 8.93 16.24 6 12.79 6.33 27.51 4.13 41.25-1.25 9.42-7.36 17.43-8.37 26.89-1.09 5.83 4.19 10.27 3.63 16.08.96 9.12-5.38 16.31-8.6 24.26-2.38 5.01-3.89 10.36-5.49 15.67 5.46 4.47 12.43 6.48 19.3 7.47 11.74 1.64 23.59-.26 35.12-2.52 2.69-.36 5.16-1.93 6.48-4.33 3.5-5.43 1.93-12.41 4.9-18.04 1.38-2.97 3.93-5.09 6.2-7.34-7.67-5.06-15.36-10.72-20.34-18.59-2.57-4.07-4.18-9.57-1.63-14.02 1.69-3.2 6.11-3.92 9.13-2.24 3.66 1.46 6.08 4.67 8.95 7.21.05-11.3-3.5-22.22-7.81-32.53-4.97-11.78-5.64-24.69-8.24-37.07-1.74-7.77-1.48-16.17 1.83-23.5 2.25-5.65 7.43-9.33 10.25-14.64 4.62-7.34 3.48-16.52 1.46-24.5 17.03 5.14 35.79 5.53 52.7-.35 13.3-4.6 27.26-7.26 41.35-7.45.45 12.26 2.31 24.88 8.49 35.68 7.15 12.83 19.03 22.52 32.26 28.59 6.27 2.98 12.62 6.55 16.74 12.32 3.65 5.09 4.41 11.96 2.24 17.81-3.48 10.85-12.61 19.1-14.85 30.44-5.95 2.01-12.69 4.1-16 9.91-3.22 5.54-1.43 12.18.32 17.88-.99 2.3-3 4-4.28 6.15-4.26 6.62-6.76 14.58-6.02 22.5 20.13 7.42 43.38 4.3 61.35-7.2 2.67-2.09 4.33-6.18 2.06-9.15-3.72-5.19-8.66-9.43-11.93-14.95-2.65-4.48-2.46-10.75 1.22-14.61 2.92-3.28 8.34-3.28 11.68-.63 2.37 1.97 4.3 4.41 6.47 6.61 4.51-3.99 8.49-8.9 9.94-14.87 2.04-8.26 1.19-17.41-2.91-24.92-2.04-5.17.79-10.8 5.05-13.85 10.34-8.25 9.88-25.25.92-34.34-4.38-4.37-10.28-7.05-14.07-12.02-2.33-2.77-2.43-7.01-.51-10.01 2.96-4.94 7.87-8.2 12.48-11.44 4.61 1.97 9.01 4.43 13.8 5.98 10.31 3.41 21.08 5.82 30.67 11.1 16.26 8.39 26.67 26.39 26.93 44.55-.08 4.75 2.09 9.08 3.88 13.36 3.32 7.73 3.95 16.46 2.3 24.68-1.6 6.73 6.61 10.33 6.25 16.87.8 6.72-3.59 12.27-5.24 18.48-2.36 7.93-4.45 16.19-4.05 24.53 11.2 3.3 23.3 3.9 34.55.45 3.07-1.12 7.1-1.45 8.64-4.8 3.69-6.54 2.93-14.5 1.65-21.62-.7-5.53-7.2-7.32-8.78-12.41-1.84-4.28-.74-10.12 3.63-12.38 2.19-1.46 4.81-.34 7.21-.54 4.35-8.17 6.53-18.3 2.87-27.15-1.98-4.11-5.82-6.92-8.03-10.89-5.62-9.11-6.13-20.4-4.18-30.67 1.06-8.22 5.38-15.63 5.86-23.97.88-6.16-.05-14.73-7.08-16.81-9.7-2.72-20.41-5.88-26.48-14.59-5.3-7.05-5.49-16.21-5.26-24.64-.32-5.43 1.51-10.58 2.45-15.84 1.49-7.53 2.59-15.14 3.3-22.78 2.55-23.81 1.23-48.89-9.22-70.83-3.84-8.59-3.95-18.49-1.14-27.39 3.61-11.97 7.37-24.87 3.49-37.27-1.45-5.83-7.33-9.01-9.17-14.67-2.94-6.57-.08-13.88 3.99-19.25 5.89-8.05 9.95-17.84 18.3-23.78 8.45-6.22 21.71-1.24 25.23 8.29 1.41 4.41-.62 9-3.64 12.22-5.67 6.14-10.91 12.7-15.14 19.92-5.04 8.8-9.35 19.07-7.24 29.38 1.67 9.19 9 15.84 12.04 24.46 2 5.56-.01 11.83-3.99 16-4.33 4.54-8.36 10.4-7.55 17 1.5 9.63 8.85 16.69 15.44 23.25 12.05 11.99 20.87 27.46 23.59 44.35 4.6-5.06 8.3-10.87 11.47-16.9 1.97-4.6 4.44-9.63 3.19-14.75-3.39-5.11-6.93-10.92-5.94-17.35.07-2.39 1.5-5.2-.35-7.24-2.04-2-4.56-3.67-5.71-6.39-2.11-4.09-.73-8.83 1.21-12.69 2.81-5.73 4.35-12.43 2.66-18.71-1.72-7.6-7.6-13.17-13.1-18.26-4.74-4.43-9.3-9.99-9.57-16.76.27-9.15 7.36-15.8 13.12-22.1 6.88-7.17 12.25-16.07 13.73-26.01 2.01-10.82-.89-21.68-3.5-32.12-2.07-7.08-4.8-14.39-10.13-19.68-4.5-4.35-11.35-4.75-17.08-3.07-8.93 2.65-17.66 6.29-25.35 11.6-11.05 7.54-19.14 18.45-26.59 29.37-7.14 9.8-16.13 19.19-27.97 22.99-10.85 3.68-22.64 2.12-33.48-.8-15.03-4.81-30.56-9-46.45-8.91-15.53-.21-31.23 4.03-44.22 12.63-.89.64-2.04 1.13-2.95.25-10.57-6.34-22.45-11.14-34.89-11.59-7.03-.38-14.06 1.81-21.05.35-5.32-.99-10.14-4.55-12.45-9.47-3.62-7.05-5.15-15.25-10.59-21.29-7.6-9.08-21.37-9.04-28.87-18.22-4.16-5.03-4.23-11.8-4.48-17.97-.11-5.6-3.87-10.09-7.39-14.07-3.53-3.98-6.12-8.63-8.8-13.19 5.52.68 11.08 1.09 16.66 1.07 13.81.18 27.67-5.54 37.11-15.67.77-.68.82-1.42.13-2.2-7.18-10.32-17.02-19.36-29.26-23.06-4.51-1.62-9.37-1.26-13.99-2.25 4.28-9.85 7.67-20.59 6.34-31.45-1.08-9.96-6.34-19.08-13.38-26.05m-69.79 110.46c7.35-5.18 14.38-10.95 22.58-14.76 5.54-2.43 11.77-4.14 17.83-3.32 5.33 5.45 2.14 14.55-4.05 17.82-6.54 3.69-14.38 2.34-21.29.61 2.92-4.04 8.39-1.17 12.3-3.2 2.36-.85 6.76-2.85 4.84-5.98-5.43-3.04-12.04-.47-16.36 3.37-2.37 2.31-5.46 3.96-7.23 6.82 8.39 3.48 18.05 6.15 26.87 2.59 7.23-2.63 12.58-10.71 10.73-18.42-2.81-7.74-10.18-13.86-18.47-14.57-15.51-1.69-29.37 13.94-27.75 29.04m54.39 1.09c-1.11 11.81-3.26 24.38-11.47 33.54-8.34 9.85-21.97 12.95-34.36 12.61-3.79 6.6-8.84 12.89-15.98 16.01-9.57 4.2-21.05 3.2-30.25-1.49-.07-1.21-.13-2.41-.17-3.6.65-.24 1.96-.73 2.61-.98 5.89.16 10 5.68 16.01 5.19 3.14.56 5.52-1.78 6.61-4.47-3.13.66-6.38 1.62-9.56.71-3.54-1.06-6.3-3.91-10.03-4.5-5.99-.95-12.13 2.75-18 .36-3.55-1.42-4.05-5.49-5.31-8.56-1.19-.03-2.38-.01-3.55.06.36 4.18 2.05 8.37 5.09 11.32 3 2.12 6.85.09 10.13.56 1.58 2.47 2.02 5.94 4.83 7.44 3.74 2.09 7.93 3.41 12.18 3.97 2.69 6.32 3.2 13.51 1.7 20.19-2.26 7.56-7.51 13.68-12.38 19.7-6.5 8.11-11.99 17.77-12.3 28.4-.42 6.39 1.65 12.63 4.75 18.14 3.39-2.62 3.7-7.27 3.57-11.2.06-7.86-2.74-16.13.7-23.65 5.02-9.3 13.46-16.36 17.78-26.1 3.63-7.68 3.35-16.78.55-24.67 3.35-1.69 7.71-.34 11.31-1.88 9.39-2.23 16.68-9.23 21.59-17.25 10.16-.63 20.86-2.32 29.2-8.62 6.31-4.1 9.17-11.43 12.03-18.06 2.65-7.28 5.73-15.53 2.72-23.17Z"/>
        <path d="M743.58 318.74c3.62 2.84 3.79 8.04 4.12 12.26.64 13.74-6.59 26.05-13.52 37.34-2.71 1.31-7.06 4.13-9.5 1.04-2.56-2.56-5.33-4.88-8.19-7.07-.05-.21-.14-.64-.18-.86 12.9-11.22 23.53-25.78 27.27-42.71ZM604.56 354.61c-3.4-11.13 1.64-22.8 8.43-31.54 2.16 15.53 11.59 29.75 24.99 37.88-6.78 4.24-12.43 10.06-16.71 16.79-5.98-7.36-13.66-13.88-16.71-23.13ZM574.1 388.95c8-7.37 19.56-8.53 29.96-8.69 5.34-.06 10.68-.1 16.03-.04-4.07 9.6-4.39 20.47-1.57 30.46-10.74-1.75-21.32-5.07-30.9-10.26-5.3-2.77-9.9-6.73-13.52-11.47ZM675.07 412.4c2.27-9.92 11.44-18.74 21.98-18.61 3.82.16 7.53 1.46 10.71 3.57-4.08.94-8.3 1.33-12.18 2.98-7.56 2.68-14 7.53-20.51 12.06ZM620.15 397.25c5.79-.45 11.38 2.08 15.21 6.37.37 3.62.51 7.26.12 10.89-3.38.11-6.86.32-10.12-.73a77.5 77.5 0 0 1-.31-1.62c2.29-.68 4.81-1.2 6.44-3.13-.88-5.01-6.93-6.27-10.7-3.58-.3-2.73-.56-5.46-.64-8.2ZM624.25 417.14c3.42.7 6.88 1.22 10.39 1.24-1.56 3.37-3.28 6.68-5.58 9.61-2.56-3.12-4.34-6.82-4.81-10.85ZM655.38 455.52c4.58-3.09 11.12 1.9 9.6 7.1-.69 4.69-6.84 6.72-10.4 3.86-3.67-2.56-3.17-8.92.8-10.96ZM603.69 701.73c3.39-4.08 7.94-7.63 13.37-8.25 9.56-1.31 18.93 4.74 23.47 12.92 3.71 6.35 8.31 12.25 14.01 16.94 10.45 8.32 24.04 11.39 37.12 12.1l.8 2.87c-7.36 6.26-14.94 12.83-24.39 15.65-11.15 3.52-23.58 1.96-33.98-3.18.06-.31.16-.94.22-1.25 2.86-1.74 5.89-3.2 8.76-4.94-8.33.5-16.96 2.1-25.08-.61-7.53-3.17-14.17-8.28-19.6-14.35-4.38-4.69-11.12-6.42-17.36-5.72-4.33.5-8.85 1.09-12.55 3.58-4.66 2.63-7.41 8.19-6.75 13.49 1.44 9 5.85 18.38 14.13 22.86 6.22.95 11.48 6.06 12.6 12.25-7.2-.16-15.65.87-20.15 7.2-3.51 4.51-1.04 11.17 3.45 14 4.21 2.66 9.61 2.72 14.31 1.46 3.65-1.14 7.5.52 9.94 3.28 3.91 3.9 6.26 9.01 8.49 13.98-.03 6.82-3.56 13.35-8.79 17.66-6.69 5.8-15.48 8.01-23.84 10.16 8.4 3.04 16.99-1.75 24.19-5.78-7.05 11.27-20.4 17.33-33.3 18.61-2.44-7.09-4.89-14.18-7.48-21.21 9.2.25 18.74-.36 27.28-4.1 3.6-1.53 6.48-4.37 8.07-7.94-10.87 6.74-24.16 10.03-36.85 8.17-2.19-6.93-4.34-13.97-7.93-20.33-3.79-7.71-6.05-16.54-4.59-25.13.75-5.55-.07-11.38-3.09-16.17-1.77-3.39-5.39-5.24-7.41-8.41-1.03-3.02-.42-6.6 1.78-8.95 6.56-6.3 12.13-13.94 14.97-22.64 1.82-5.63 1.49-11.73.13-17.41 11.13-.37 21-5.9 31.49-8.9 4.67-1.63 8.36 2.61 12.87 2.77 4.38.53 8.86-1.31 11.69-4.68ZM893.47 753.75c15.88-1.85 29.57-11.82 39.72-23.68 3.93 4.38 6.99 9.44 10.88 13.86 2.47 2.79 5.6 4.9 8.62 7.06-11.42 6.74-13.08 24.12-4.44 33.75 3.86 5.37 11.28 6.53 14.88 12.14 3.15 4.64 5.64 10.43 4.1 16.11-1.71 5.16-6.28 8.46-9.62 12.5-3.9 4.91-3.94 12.13-.5 17.31 3.81 9.55 3.19 22.34-5.08 29.41-2.96-3.61-7.06-6.81-11.94-6.75-7.12-.09-13.16 6.52-12.98 13.52-.29 3.39.73 6.69 2.37 9.63-6.8-2.7-14.04-4.88-21.43-4.22-4.53.16-8.81 1.71-13.08 3.04-1.36-4.87-3.02-10.72.22-15.21 3.59-4.78 9.87-5.72 15.11-7.75 1.74-9.63 8.02-17.34 12.56-25.74 3.7-6.79 5.82-15.1 2.88-22.57-3.53-9.3-12.52-14.85-21.11-18.89-12.14-5.58-23.09-14.33-29.92-25.95-5.92-10.34-8.25-22.39-8.28-34.21 2.28.55 4.55 1.49 6.23 3.2 3.21 2.92 2.88 7.97 6.13 10.89 3.79 3.84 9.79 3.31 14.68 2.55Z"/>
        <path d="M906.95 887.86c13.32-1.16 27.78 4.46 34.83 16.26.4 2.13-1.54 3.67-3.2 4.55-8.77 4.8-18.43 8.36-28.47 9.06-8.41.97-16.89-.44-25-2.6-.47-8.81 4.25-16.84 9.8-23.28 3.47-2.51 7.88-3.32 12.04-3.99ZM1041.43 913.1c.06-4.76.84-9.48 2.12-14.04 10.9 6.22 23.94 5.16 35.96 4.2-.75 2.65-.96 6.16-3.57 7.75-10.85 4.53-23.18 4.96-34.51 2.09ZM711.08 916.75c1.87-5.79 5.5-10.8 7.81-16.41 15.91 3.5 30.97 10.8 43.23 21.57-.4 2.95-1.19 6.64-4.32 7.82-3.82 1.13-7.78 1.69-11.71 2.18-10.53-7.31-22.69-11.9-35.01-15.16ZM707.16 927.43c.75-2.5 1.57-4.98 2.52-7.41 10.83 2.69 21.47 6.59 31.02 12.45-11.25 1.73-23.6.96-33.54-5.04Z"/>
    </g>
    <g fill="#dadada">
        <path d="M740.97 309.07c7.04 6.97 12.3 16.09 13.38 26.05 1.33 10.86-2.06 21.6-6.34 31.45 4.62.99 9.48.63 13.99 2.25 12.24 3.7 22.08 12.74 29.26 23.06.69.78.64 1.52-.13 2.2-9.44 10.13-23.3 15.85-37.11 15.67-5.58.02-11.14-.39-16.66-1.07 2.68 4.56 5.27 9.21 8.8 13.19 3.52 3.98 7.28 8.47 7.39 14.07.25 6.17.32 12.94 4.48 17.97 7.5 9.18 21.27 9.14 28.87 18.22 5.44 6.04 6.97 14.24 10.59 21.29 2.31 4.92 7.13 8.48 12.45 9.47 6.99 1.46 14.02-.73 21.05-.35 12.44.45 24.32 5.25 34.89 11.59.91.88 2.06.39 2.95-.25 12.99-8.6 28.69-12.84 44.22-12.63 15.89-.09 31.42 4.1 46.45 8.91 10.84 2.92 22.63 4.48 33.48.8 11.84-3.8 20.83-13.19 27.97-22.99 7.45-10.92 15.54-21.83 26.59-29.37 7.69-5.31 16.42-8.95 25.35-11.6 5.73-1.68 12.58-1.28 17.08 3.07 5.33 5.29 8.06 12.6 10.13 19.68 2.61 10.44 5.51 21.3 3.5 32.12-1.48 9.94-6.85 18.84-13.73 26.01-5.76 6.3-12.85 12.95-13.12 22.1.27 6.77 4.83 12.33 9.57 16.76 5.5 5.09 11.38 10.66 13.1 18.26 1.69 6.28.15 12.98-2.66 18.71-1.94 3.86-3.32 8.6-1.21 12.69 1.15 2.72 3.67 4.39 5.71 6.39 1.85 2.04.42 4.85.35 7.24-.99 6.43 2.55 12.24 5.94 17.35 1.25 5.12-1.22 10.15-3.19 14.75-3.17 6.03-6.87 11.84-11.47 16.9-2.72-16.89-11.54-32.36-23.59-44.35-6.59-6.56-13.94-13.62-15.44-23.25-.81-6.6 3.22-12.46 7.55-17 3.98-4.17 5.99-10.44 3.99-16-3.04-8.62-10.37-15.27-12.04-24.46-2.11-10.31 2.2-20.58 7.24-29.38 4.23-7.22 9.47-13.78 15.14-19.92 3.02-3.22 5.05-7.81 3.64-12.22-3.52-9.53-16.78-14.51-25.23-8.29-8.35 5.94-12.41 15.73-18.3 23.78-4.07 5.37-6.93 12.68-3.99 19.25 1.84 5.66 7.72 8.84 9.17 14.67 3.88 12.4.12 25.3-3.49 37.27-2.81 8.9-2.7 18.8 1.14 27.39 10.45 21.94 11.77 47.02 9.22 70.83-.71 7.64-1.81 15.25-3.3 22.78-.94 5.26-2.77 10.41-2.45 15.84-.23 8.43-.04 17.59 5.26 24.64 6.07 8.71 16.78 11.87 26.48 14.59 7.03 2.08 7.96 10.65 7.08 16.81-.48 8.34-4.8 15.75-5.86 23.97-1.95 10.27-1.44 21.56 4.18 30.67 2.21 3.97 6.05 6.78 8.03 10.89 3.66 8.85 1.48 18.98-2.87 27.15-2.4.2-5.02-.92-7.21.54-4.37 2.26-5.47 8.1-3.63 12.38 1.58 5.09 8.08 6.88 8.78 12.41 1.28 7.12 2.04 15.08-1.65 21.62-1.54 3.35-5.57 3.68-8.64 4.8-11.25 3.45-23.35 2.85-34.55-.45-.4-8.34 1.69-16.6 4.05-24.53 1.65-6.21 6.04-11.76 5.24-18.48.36-6.54-7.85-10.14-6.25-16.87 1.65-8.22 1.02-16.95-2.3-24.68-1.79-4.28-3.96-8.61-3.88-13.36-.26-18.16-10.67-36.16-26.93-44.55-9.59-5.28-20.36-7.69-30.67-11.1-4.79-1.55-9.19-4.01-13.8-5.98-4.61 3.24-9.52 6.5-12.48 11.44-1.92 3-1.82 7.24.51 10.01 3.79 4.97 9.69 7.65 14.07 12.02 8.96 9.09 9.42 26.09-.92 34.34-4.26 3.05-7.09 8.68-5.05 13.85 4.1 7.51 4.95 16.66 2.91 24.92-1.45 5.97-5.43 10.88-9.94 14.87-2.17-2.2-4.1-4.64-6.47-6.61-3.34-2.65-8.76-2.65-11.68.63-3.68 3.86-3.87 10.13-1.22 14.61 3.27 5.52 8.21 9.76 11.93 14.95 2.27 2.97.61 7.06-2.06 9.15-17.97 11.5-41.22 14.62-61.35 7.2-.74-7.92 1.76-15.88 6.02-22.5 1.28-2.15 3.29-3.85 4.28-6.15-1.75-5.7-3.54-12.34-.32-17.88 3.31-5.81 10.05-7.9 16-9.91 2.24-11.34 11.37-19.59 14.85-30.44 2.17-5.85 1.41-12.72-2.24-17.81-4.12-5.77-10.47-9.34-16.74-12.32-13.23-6.07-25.11-15.76-32.26-28.59-6.18-10.8-8.04-23.42-8.49-35.68-14.09.19-28.05 2.85-41.35 7.45-16.91 5.88-35.67 5.49-52.7.35 2.02 7.98 3.16 17.16-1.46 24.5-2.82 5.31-8 8.99-10.25 14.64-3.31 7.33-3.57 15.73-1.83 23.5 2.6 12.38 3.27 25.29 8.24 37.07 4.31 10.31 7.86 21.23 7.81 32.53-2.87-2.54-5.29-5.75-8.95-7.21-3.02-1.68-7.44-.96-9.13 2.24-2.55 4.45-.94 9.95 1.63 14.02 4.98 7.87 12.67 13.53 20.34 18.59-2.27 2.25-4.82 4.37-6.2 7.34-2.97 5.63-1.4 12.61-4.9 18.04-1.32 2.4-3.79 3.97-6.48 4.33-11.53 2.26-23.38 4.16-35.12 2.52-6.87-.99-13.84-3-19.3-7.47 1.6-5.31 3.11-10.66 5.49-15.67 3.22-7.95 9.56-15.14 8.6-24.26.56-5.81-4.72-10.25-3.63-16.08 1.01-9.46 7.12-17.47 8.37-26.89 2.2-13.74 1.87-28.46-4.13-41.25-2.38-5.74-6.06-10.77-8.93-16.24-7.6-14.03-13.18-29.29-15.45-45.12-2.07.48-3.4 2.26-5 3.5-8.43 7.03-18.85 12.5-30.04 12.59-9.4.36-18.71-2.11-27.13-6.16-3.29-1.4-6.22-3.63-9.75-4.4-10.13-2.48-18.2-9.56-25.5-16.63-4.13-4.56-10.95-5.33-16.7-4.3-4 .54-8.25 1.64-11 4.82-2.8 2.83-2.88 7.24-1.72 10.83 1.71 5.88 4.49 11.82 9.53 15.56 3 1.76 6.66 2.26 9.39 4.55 5.04 3.8 7.19 10.07 8.57 15.99-6.19-.1-12.74-.37-18.46 2.41-2.5 1.25-5.12 3.68-4.65 6.75.36 3.64 3.91 6.1 7.33 6.53 5.05 1.05 10.14-2.66 15.03-.12 8.19 3.84 12.54 12.56 15.62 20.62-1.41 11.23-6.21 22.23-14.15 30.4-8.97 9.06-21.68 13.52-34.21 14.43-5.02-14.25-9.98-28.53-15.16-42.72-5.2-9.45-9.36-20.19-7.81-31.15.78-6.13.32-13.13-4.47-17.61-1.94-2.12-4.99-3.45-5.79-6.42-1.55-5.16.2-11.18 4.41-14.58 6.99-7.46 13.65-16.67 13.54-27.34.25-3.87-2.07-7.73-.46-11.49 3.65-1.42 7.66-1.15 11.42-2.16 7.67-1.65 14.64-5.47 22.2-7.5 3.31-.89 6.84-.38 9.83 1.27 3.38 1.79 7.79 2.16 11-.23 5.19-4.16 9.03-9.84 14.57-13.6 3.8-2.63 8.22-4.07 12.51-5.66-4.13-6.58-9.13-12.86-11.04-20.55-2.79-8.66-1.71-18.23 2.48-26.26-4.89-8.01-8.87-17.3-7.54-26.89 1.52-11.48 9.4-20.86 17.93-28.13 12.68-10.6 22.49-25.37 24.99-41.9 3.19 4.88 1.26 11.04-.81 15.98-5.02 11.18-13.03 20.76-21.96 29.04-7.69 6.92-15.22 15.37-16.44 26.08-1.07 9.38 3.7 17.92 8.12 25.8-7.64 12.63-4.75 29.75 5.29 40.19 13.32 12.07 18.02 30.63 30.91 43.07 8.8 9 21.4 13.29 33.78 13.86-.31-8.81.43-17.65 1.77-26.34-6.83-2.36-13.88-6.19-16.68-13.28-3.99-10.68-1.6-22.29-1.38-33.36.17-3.66-.37-7.33-1.82-10.7 2.2 1.02 4.47 2.44 5.21 4.91 2.25 6.18-.65 12.55-.62 18.83-.01 6.5-.67 13.39 2.31 19.41 2.39 5.34 7.68 8.63 13.04 10.44 2.27-12.23 1.95-24.8.73-37.13 2.74 3.48 3.44 7.99 4.03 12.26 1.74 18.82-4.49 37.32-2.87 56.14 1.68 16.1 5.74 32.03 12.88 46.61 4.61 10.35 11.96 19.38 15.24 30.34 4.87 15.92 4.39 33.66-2.13 49.04-1.83 4.85-4.15 9.64-4.5 14.89-.28 2.94 1.58 5.44 2.54 8.1 1.93 4.79 1.34 10.09.7 15.09 13.59 2.92 26.64 8.64 37.76 17 1.65 1.17 3.06 2.82 5.1 3.35-.3-5.09 3.2-8.92 5.04-13.27-8.26-5.76-16.51-12.92-19.71-22.81-2.03-5.92-.03-13.78 6.21-16.21 3.9-1.73 8.01.04 11.53 1.84-.89-5.96-2.71-11.73-4.92-17.31-6.4-12.75-7.17-27.27-9.99-41.03-2.11-9.49-1.95-20 2.99-28.62 3.53-6.56 10-11.45 11.69-18.97 1.43-7.62-1.01-15.93-6.54-21.42-8.99-8.99-15.51-20.18-20.1-31.97-1.48-4.14-3-8.36-3.36-12.77 2.14 3.69 3.58 7.76 5.83 11.41 4.76 7.94 11.11 14.83 18.15 20.82-1.23-7.06-3.47-14.03-3.29-21.27-.23-6.15 1.24-12.17 2.72-18.08 1.01 12.96 4.63 25.48 6.67 38.28 1 5.33 2.38 11.61 7.7 14.28 6.37 2.91 13.51 3.3 20.4 3.8 9.49.52 18.87-1.53 27.82-4.53 12.57-4.34 25.85-6.87 39.19-6.56 5.41.08 11.44 1.25 15 5.73 2.59 2.6 2.63 6.55 4.67 9.48 3.11 3.33 8.15 2.48 12.2 2.02 15.34-1.89 28.6-11.56 38.22-23.2-14.4-18.64-24.41-40.21-33.16-61.95-3-8.1-6.28-16.11-8.77-24.38 2.26 2.22 3.64 5.1 5.18 7.82 8.49 15.98 14.92 32.93 22.28 49.43-.68-5.81-2.95-11.3-3.73-17.1-2.06-12.31-4.6-25.46-.45-37.6-.49 22.03 2.69 44.51 12.53 64.43 8.45 16.88 21 31.85 36.52 42.65 15.62 11.13 36.01 11.5 51.96 22.03 14.99 9.95 24.58 27.5 24.79 45.51-.13 4.99 2.8 9.26 4.32 13.85 2.86 7.71 3.46 16.17 1.91 24.24-1.26 5.44 4.74 8.48 5.74 13.4 2.46 9.1-3.26 17.37-5.78 25.77 5.2 4.06 12.19 4.84 18.59 5.21 5.54.1 11.11-.09 16.6-.95-.24-3.56-.53-7.13-1.5-10.57-6.07-3.59-9.92-10.97-8.92-18.03.19-3.83 2.31-7.18 2.84-10.92.34-2.59-.09-5.19-.4-7.75 1.47 2.21 2.75 4.57 4.45 6.64 1.48 1.8 3.95 1.66 6.07 1.75 3.61-8.21 5.31-19.3-1.75-26.2-10.24-10.66-11.95-26.67-8.92-40.57.91-7.79 6.01-14.82 5.04-22.84-1.78-4.12-6.79-4.98-10.65-6.1-8.26-1.81-16.99-4.51-22.6-11.26-5.92-7.44-7.26-17.38-6.88-26.61.2-11.9 3.98-23.28 5.68-34.98 2.4-16.2 4.24-32.69 2.36-49.04-1.2-10.78-2.99-21.71-7.76-31.54-3.95-7.97-6.08-17.12-4.53-25.98 1.98-11.22 7.1-21.94 6.61-33.53-.19-5.23-1.15-10.95-4.95-14.83-5.3-5.42-8.54-13.55-6.38-21.07 1.55-6.54 6.43-11.41 9.69-17.09 4.59-7.11 8.92-15.14 16.76-19.16 10.67-6.24 25.68.66 29.31 12.11 1.57 5.85-1.28 11.83-5.25 16.04-7.04 7.63-13.38 16.05-17.7 25.53-2.98 6.96-4.99 14.97-2.42 22.37 2.84 9.55 12.26 16.57 12.02 27.1.38 5.8-2.73 11.13-6.62 15.18-3.61 3.76-6.53 9.05-5.19 14.4 1.64 6.8 6.67 12.05 11.43 16.89 11.75 11.04 21.08 24.98 25.36 40.62 4.51-5.95 8.33-12.82 9.46-20.28-1.49-3.07-3.59-5.84-5.42-8.7-6.57-7.47-15.82-12.26-21.43-20.63-4.57-5.8-7.94-13.78-4.66-21.01 1.87 9.56 6.14 18.75 13.04 25.73 3.66 3.99 7.75 7.58 11.91 11.06-.53-3.78.66-7.61.33-11.29-2.84-2.62-6.04-5.23-6.87-9.22-2.27-6.95 2.54-13.18 4.23-19.62 2.1-6.8-.13-14.43-4.79-19.65-4.88-5.83-11.51-10.24-15.11-17.08-3.24-5.9-3.32-13.4-.1-19.32 5.37-10.41 15.89-17.09 20.85-27.77 5.41-10.61 4.71-23.07 1.9-34.32-2.2-8.86-4.15-18.64-11.05-25.19-3.38-3.38-8.66-3.45-12.99-2.21-12.17 3.67-24.11 9.26-33.15 18.4-8.17 7.7-13.94 17.42-20.72 26.28-7.65 9.21-17.4 17.54-29.36 20.24-12.98 3.17-26.49.44-38.94-3.64-16.03-4.9-33-8.39-49.8-6.14-12.68 1.36-24.6 6.58-35.08 13.68-12.5-7.92-26.93-14.27-42.07-12.82-8.32 1.04-17.7 1.62-24.73-3.84-9.14-6.54-8.27-19.49-15.69-27.36-5.89-7.41-15.88-8.54-23.36-13.63-6.15-3.79-10.69-10.44-11.01-17.76-.76-4.16.23-8.69-1.73-12.57-2.55-4.92-7.4-8.2-9.69-13.28-1.66-3.13-2.55-6.6-4.16-9.73-2.27-2.44-5.12-4.22-7.71-6.27 11.31 3.13 23.2 4.85 34.92 3.17 9.4-1.65 18.62-5.79 25.24-12.79-8.94-6.66-19.17-12.24-30.44-13.32-7.9-1.28-15.83.53-23.48 2.34 7.48-5.15 16.96-6.88 25.88-5.48 6.31.87 12.27 3.25 18.05 5.84-8.48-8.82-21.28-11.47-33.09-11.39-6.31.24-12.3 2.57-18.13 4.8-6.97-6.85-14.53-14.93-24.95-15.49-6.52.37-12.41 3.84-18.95 4.19-8.15 1.35-14.96-4.62-22.92-4.78-9.21-.97-17.9 3.51-25.06 8.88-7.87 6.15-13 15.56-13.75 25.54 4.45.12 8.85 1.1 12.74 3.31-1.33-4.57-3.09-9.03-5.55-13.11 7.1 3.6 9.69 11.7 11.11 18.98 2.17 8.7-.26 18.08-5.37 25.31-5.3 6.89-9.54 14.54-13.39 22.31 4.18-.44 8.35.3 12.29 1.74 2.27 1.13 4.66-.1 6.95-.53 7.81-1.65 16.34-3.11 23.88.35 5.99 2.94 7.83 11.95 2.57 16.46-4.45 4.66-12.79 3.21-15.7-2.42-2.53-4.02-1.04-9.11 1.95-12.42-6.06-.19-11.95 1.42-17.81 2.72-5.13-1.48-10.65-3.83-15.92-1.53-1.04 1.52-1.65 3.98-3.88 4.05-1.1-1.68-.42-3.85.15-5.59 2.95-8.03 7.72-15.2 12.2-22.43-4.27-4.4-5.3-10.43-7.03-16.04-7.74-1.05-15.23-3.37-22.56-5.98-10.74-3.96-21.46-9.96-27.52-20.05 5.14-7.21 14.08-10.3 22.51-11.47 7.64-1.29 15.4-.84 23.11-1.06-6.62-7.64-14.53-15.53-15.3-26.22-1.16-14.18 7.25-26.98 16.44-36.98-.16 12.01 3.43 24.29 11.26 33.54 4.01 4.84 8.92 8.95 14.41 12 9.52-4.55 20.82-4.35 30.35.05 7.68 3.46 15.91.49 23.39-1.91 5.87-1.91 11.95.03 17.3 2.53 14.99-12.53 27.08-30.17 28.12-50.21m2.61 9.67c-3.74 16.93-14.37 31.49-27.27 42.71.04.22.13.65.18.86 2.86 2.19 5.63 4.51 8.19 7.07 2.44 3.09 6.79.27 9.5-1.04 6.93-11.29 14.16-23.6 13.52-37.34-.33-4.22-.5-9.42-4.12-12.26m-139.02 35.87c3.05 9.25 10.73 15.77 16.71 23.13 4.28-6.73 9.93-12.55 16.71-16.79-13.4-8.13-22.83-22.35-24.99-37.88-6.79 8.74-11.83 20.41-8.43 31.54m-30.46 34.34c3.62 4.74 8.22 8.7 13.52 11.47 9.58 5.19 20.16 8.51 30.9 10.26-2.82-9.99-2.5-20.86 1.57-30.46-5.35-.06-10.69-.02-16.03.04-10.4.16-21.96 1.32-29.96 8.69m46.05 8.3c.08 2.74.34 5.47.64 8.2 3.77-2.69 9.82-1.43 10.7 3.58-1.63 1.93-4.15 2.45-6.44 3.13.07.41.23 1.22.31 1.62 3.26 1.05 6.74.84 10.12.73.39-3.63.25-7.27-.12-10.89-3.83-4.29-9.42-6.82-15.21-6.37m4.1 19.89c.47 4.03 2.25 7.73 4.81 10.85 2.3-2.93 4.02-6.24 5.58-9.61-3.51-.02-6.97-.54-10.39-1.24m31.13 38.38c-3.97 2.04-4.47 8.4-.8 10.96 3.56 2.86 9.71.83 10.4-3.86 1.52-5.2-5.02-10.19-9.6-7.1m-51.69 246.21c-2.83 3.37-7.31 5.21-11.69 4.68-4.51-.16-8.2-4.4-12.87-2.77-10.49 3-20.36 8.53-31.49 8.9 1.36 5.68 1.69 11.78-.13 17.41-2.84 8.7-8.41 16.34-14.97 22.64-2.2 2.35-2.81 5.93-1.78 8.95 2.02 3.17 5.64 5.02 7.41 8.41 3.02 4.79 3.84 10.62 3.09 16.17-1.46 8.59.8 17.42 4.59 25.13 3.59 6.36 5.74 13.4 7.93 20.33 12.69 1.86 25.98-1.43 36.85-8.17a15.455 15.455 0 0 1-8.07 7.94c-8.54 3.74-18.08 4.35-27.28 4.1 2.59 7.03 5.04 14.12 7.48 21.21 12.9-1.28 26.25-7.34 33.3-18.61-7.2 4.03-15.79 8.82-24.19 5.78 8.36-2.15 17.15-4.36 23.84-10.16 5.23-4.31 8.76-10.84 8.79-17.66-2.23-4.97-4.58-10.08-8.49-13.98-2.44-2.76-6.29-4.42-9.94-3.28-4.7 1.26-10.1 1.2-14.31-1.46-4.49-2.83-6.96-9.49-3.45-14 4.5-6.33 12.95-7.36 20.15-7.2-1.12-6.19-6.38-11.3-12.6-12.25-8.28-4.48-12.69-13.86-14.13-22.86-.66-5.3 2.09-10.86 6.75-13.49 3.7-2.49 8.22-3.08 12.55-3.58 6.24-.7 12.98 1.03 17.36 5.72 5.43 6.07 12.07 11.18 19.6 14.35 8.12 2.71 16.75 1.11 25.08.61-2.87 1.74-5.9 3.2-8.76 4.94-.06.31-.16.94-.22 1.25 10.4 5.14 22.83 6.7 33.98 3.18 9.45-2.82 17.03-9.39 24.39-15.65l-.8-2.87c-13.08-.71-26.67-3.78-37.12-12.1-5.7-4.69-10.3-10.59-14.01-16.94-4.54-8.18-13.91-14.23-23.47-12.92-5.43.62-9.98 4.17-13.37 8.25m289.78 52.02c-4.89.76-10.89 1.29-14.68-2.55-3.25-2.92-2.92-7.97-6.13-10.89-1.68-1.71-3.95-2.65-6.23-3.2.03 11.82 2.36 23.87 8.28 34.21 6.83 11.62 17.78 20.37 29.92 25.95 8.59 4.04 17.58 9.59 21.11 18.89 2.94 7.47.82 15.78-2.88 22.57-4.54 8.4-10.82 16.11-12.56 25.74-5.24 2.03-11.52 2.97-15.11 7.75-3.24 4.49-1.58 10.34-.22 15.21 4.27-1.33 8.55-2.88 13.08-3.04 7.39-.66 14.63 1.52 21.43 4.22-1.64-2.94-2.66-6.24-2.37-9.63-.18-7 5.86-13.61 12.98-13.52 4.88-.06 8.98 3.14 11.94 6.75 8.27-7.07 8.89-19.86 5.08-29.41-3.44-5.18-3.4-12.4.5-17.31 3.34-4.04 7.91-7.34 9.62-12.5 1.54-5.68-.95-11.47-4.1-16.11-3.6-5.61-11.02-6.77-14.88-12.14-8.64-9.63-6.98-27.01 4.44-33.75-3.02-2.16-6.15-4.27-8.62-7.06-3.89-4.42-6.95-9.48-10.88-13.86-10.15 11.86-23.84 21.83-39.72 23.68m13.48 134.11c-4.16.67-8.57 1.48-12.04 3.99-5.55 6.44-10.27 14.47-9.8 23.28 8.11 2.16 16.59 3.57 25 2.6 10.04-.7 19.7-4.26 28.47-9.06 1.66-.88 3.6-2.42 3.2-4.55-7.05-11.8-21.51-17.42-34.83-16.26m134.48 25.24c11.33 2.87 23.66 2.44 34.51-2.09 2.61-1.59 2.82-5.1 3.57-7.75-12.02.96-25.06 2.02-35.96-4.2-1.28 4.56-2.06 9.28-2.12 14.04m-330.35 3.65c12.32 3.26 24.48 7.85 35.01 15.16 3.93-.49 7.89-1.05 11.71-2.18 3.13-1.18 3.92-4.87 4.32-7.82-12.26-10.77-27.32-18.07-43.23-21.57-2.31 5.61-5.94 10.62-7.81 16.41m-3.92 10.68c9.94 6 22.29 6.77 33.54 5.04-9.55-5.86-20.19-9.76-31.02-12.45-.95 2.43-1.77 4.91-2.52 7.41Z"/>
        <path d="M671.18 419.53c-1.62-15.1 12.24-30.73 27.75-29.04 8.29.71 15.66 6.83 18.47 14.57 1.85 7.71-3.5 15.79-10.73 18.42-8.82 3.56-18.48.89-26.87-2.59 1.77-2.86 4.86-4.51 7.23-6.82 4.32-3.84 10.93-6.41 16.36-3.37 1.92 3.13-2.48 5.13-4.84 5.98-3.91 2.03-9.38-.84-12.3 3.2 6.91 1.73 14.75 3.08 21.29-.61 6.19-3.27 9.38-12.37 4.05-17.82-6.06-.82-12.29.89-17.83 3.32-8.2 3.81-15.23 9.58-22.58 14.76m3.89-7.13c6.51-4.53 12.95-9.38 20.51-12.06 3.88-1.65 8.1-2.04 12.18-2.98-3.18-2.11-6.89-3.41-10.71-3.57-10.54-.13-19.71 8.69-21.98 18.61ZM725.57 420.62c3.01 7.64-.07 15.89-2.72 23.17-2.86 6.63-5.72 13.96-12.03 18.06-8.34 6.3-19.04 7.99-29.2 8.62-4.91 8.02-12.2 15.02-21.59 17.25-3.6 1.54-7.96.19-11.31 1.88 2.8 7.89 3.08 16.99-.55 24.67-4.32 9.74-12.76 16.8-17.78 26.1-3.44 7.52-.64 15.79-.7 23.65.13 3.93-.18 8.58-3.57 11.2-3.1-5.51-5.17-11.75-4.75-18.14.31-10.63 5.8-20.29 12.3-28.4 4.87-6.02 10.12-12.14 12.38-19.7 1.5-6.68.99-13.87-1.7-20.19-4.25-.56-8.44-1.88-12.18-3.97-2.81-1.5-3.25-4.97-4.83-7.44-3.28-.47-7.13 1.56-10.13-.56-3.04-2.95-4.73-7.14-5.09-11.32 1.17-.07 2.36-.09 3.55-.06 1.26 3.07 1.76 7.14 5.31 8.56 5.87 2.39 12.01-1.31 18-.36 3.73.59 6.49 3.44 10.03 4.5 3.18.91 6.43-.05 9.56-.71-1.09 2.69-3.47 5.03-6.61 4.47-6.01.49-10.12-5.03-16.01-5.19-.65.25-1.96.74-2.61.98.04 1.19.1 2.39.17 3.6 9.2 4.69 20.68 5.69 30.25 1.49 7.14-3.12 12.19-9.41 15.98-16.01 12.39.34 26.02-2.76 34.36-12.61 8.21-9.16 10.36-21.73 11.47-33.54Z"/>
    </g>
    <path fill="#00a552" d="M0 854c184.5-.02 369 .03 553.51-.03 1.28 3.84 2.58 7.69 4.27 11.39 12.02-1.18 24.38-3.84 34.15-11.37 41.13.03 82.26-.01 123.39.02-4.06 8.77-9.16 19.41-4.01 28.81 2.58 4.8 2.52 10.72-.11 15.5-5.3 10.11-10.65 20.44-12.83 31.76 2.03 3.55 6.25 5.11 9.75 6.9 13.54 5.59 28.7 4.81 42.85 2.27 5.14-.98 11.23-1.1 14.79-5.57 5.87-6.3 2.91-16.13 8.22-22.71 1.63-2.23 4.68-3.89 4.59-6.98.26-2.12-2.01-3.19-3.38-4.3-5.78-3.72-10.99-8.26-15.64-13.31-3.02-3.22-4.43-7.95-3.62-12.29 1.22-2.45 4.28-1.28 5.99-.05 4.11 2.89 7.55 7.05 12.67 8.2.86-9.55-.44-19.18-3.55-28.23 44.76 0 89.52-.04 134.28.01-.88 1.78-1.18 4.4-3.49 4.91-5.84 2.14-11.9 5.31-14.77 11.15-3.15 5.81-1.29 12.57-.17 18.67-6.65 8.24-10.57 18.72-9.9 29.37.09 1.48.65 3.03 2.31 3.33 8.56 2.87 17.56 5.07 26.65 4.7 10.39-1.68 20.95-3.4 30.69-7.57 4.32-2.04 8.83-4.37 11.59-8.43 2.11-2.83 1.96-6.85.49-9.91-2.82-5.31-7.99-8.78-11.35-13.68-2-3.08-3.17-7.23-1.49-10.69 1.36-2.74 5.27-3.17 7.48-1.21 3.11 2.57 5.31 6.09 8.57 8.54 3.95-3.11 7.73-6.56 10.39-10.88 3.6-5.38 4.87-11.94 5.1-18.31 23.08-.01 46.16-.02 69.23 0-.87 4.63.09 9.5 3.36 13.01 3.73 4.01 3.13 10.19.98 14.84-2.64 5.74-4.74 11.77-5.66 18.04-.84 6.22-2.35 12.41-1.97 18.73 15.07 6.1 32.51 5.61 47.36-.91 1.52-.77 2.4-2.33 3.24-3.75 4.46-8.36 4.64-18.57 1.58-27.42-1.06-3.7-4.94-5.15-7.09-8.02-1.55-2.58-1.67-5.94-.72-8.75 2.33-2.44 5.64-.39 8.32.26 2.97-4.98 5.43-10.33 6.53-16.04H1620v226H0V854Z"/>
</svg>
