<svg xmlns="http://www.w3.org/2000/svg" xmlns:xlink="http://www.w3.org/1999/xlink" fill-rule="evenodd" clip-rule="evenodd" image-rendering="optimizeQuality" shape-rendering="geometricPrecision" text-rendering="geometricPrecision" viewBox="0 0 209.3 278.51"><defs><linearGradient id="u" x1="103.01" x2="106.54" y1="174.56" y2="174.56" gradientUnits="userSpaceOnUse"><stop offset="0" stop-color="#75c5f0"/><stop offset="1" stop-color="#006194"/></linearGradient><linearGradient id="z" x1="104.74" x2="105.54" y1="173.9" y2="173.9" gradientUnits="userSpaceOnUse"><stop offset="0" stop-color="#c38a13"/><stop offset=".66" stop-color="#9c711b"/><stop offset="1" stop-color="#ac6f1e"/></linearGradient><linearGradient id="p" x1="80.45" x2="81.62" y1="117.88" y2="117.88" gradientUnits="userSpaceOnUse"><stop offset="0" stop-color="#daaf4f"/><stop offset=".7" stop-color="#f2ae6b"/><stop offset="1" stop-color="#ca9900"/></linearGradient><linearGradient id="j" x1="80.03" x2="80.88" y1="117.11" y2="117.11" gradientUnits="userSpaceOnUse" href="#id2"/><linearGradient id="i" x1="120.46" x2="120.46" y1="120.1" y2="121.15" gradientUnits="userSpaceOnUse"><stop offset="0" stop-color="#183573"/><stop offset=".14" stop-color="#183573"/><stop offset=".7" stop-color="#0073a6"/><stop offset="1" stop-color="#00427c"/></linearGradient><linearGradient id="h" x1="111.98" x2="115.51" y1="174.56" y2="174.56" gradientUnits="userSpaceOnUse" href="#id0"/><linearGradient id="g" x1="112.97" x2="113.77" y1="173.9" y2="173.9" gradientUnits="userSpaceOnUse" href="#id1"/><linearGradient id="f" x1="136.9" x2="138.06" y1="117.88" y2="117.88" gradientUnits="userSpaceOnUse" href="#id2"/><linearGradient id="e" x1="137.64" x2="138.48" y1="117.11" y2="117.11" gradientUnits="userSpaceOnUse" href="#id2"/><linearGradient id="d" x1="122.32" x2="122.32" y1="169.73" y2="169.73" gradientUnits="userSpaceOnUse"><stop offset="0" stop-color="#005c8e"/><stop offset=".23" stop-color="#48b0e1"/><stop offset=".65" stop-color="#40b5eb"/><stop offset="1" stop-color="#006194"/></linearGradient><linearGradient id="y" x1="122.32" x2="122.32" y1="169.74" y2="169.74" gradientUnits="userSpaceOnUse" href="#id9"/><linearGradient id="w" x1="122.32" x2="122.32" y1="169.73" y2="169.73" gradientUnits="userSpaceOnUse" href="#id9"/><linearGradient id="v" x1="122.33" x2="122.33" y1="169.69" y2="169.69" gradientUnits="userSpaceOnUse" href="#id9"/><linearGradient id="t" x1="81.18" x2="81.18" y1="162.98" y2="162.98" gradientUnits="userSpaceOnUse"><stop offset="0" stop-color="#005c8e"/><stop offset=".21" stop-color="#48b0e1"/><stop offset=".45" stop-color="#42b5ea"/><stop offset=".45" stop-color="#40b5eb"/><stop offset="1" stop-color="#006194"/></linearGradient><linearGradient id="s" x1="111.29" x2="111.29" y1="169.93" y2="169.93" gradientUnits="userSpaceOnUse"><stop offset="0" stop-color="#439cd5"/><stop offset="1" stop-color="#004873"/></linearGradient><linearGradient id="r" x1="122.32" x2="122.32" y1="169.71" y2="169.71" gradientUnits="userSpaceOnUse" href="#id9"/><linearGradient id="q" x1="81.19" x2="81.19" y1="162.93" y2="162.93" gradientUnits="userSpaceOnUse" href="#id15"/><linearGradient id="a" x1="107.23" x2="107.23" y1="169.93" y2="169.93" gradientUnits="userSpaceOnUse" href="#id16"/><linearGradient id="o" x1="137.32" x2="137.32" y1="162.93" y2="162.93" gradientUnits="userSpaceOnUse" href="#id15"/><linearGradient id="n" x1="137.33" x2="137.33" y1="162.98" y2="162.98" gradientUnits="userSpaceOnUse" href="#id15"/><linearGradient id="m" x1="122.32" x2="122.32" y1="169.75" y2="169.75" gradientUnits="userSpaceOnUse" href="#id9"/><linearGradient id="l" x1="123.58" x2="123.58" y1="170.69" y2="170.69" gradientUnits="userSpaceOnUse" href="#id9"/><linearGradient id="k" x1="94.93" x2="94.93" y1="170.69" y2="170.69" gradientUnits="userSpaceOnUse" href="#id9"/><linearGradient xlink:href="#i" id="c" x1="120.46" x2="120.46" y1="120.1" y2="121.15" gradientUnits="userSpaceOnUse"/><linearGradient xlink:href="#s" id="b" x1="111.29" x2="111.29" y1="169.93" y2="169.93" gradientUnits="userSpaceOnUse"/><style>.str0{stroke:#1f1a17;stroke-width:.0762}.fil11{fill:#007cc3}.fil7{fill:#605d5c}.fil3{fill:#75c5f0}.fil4{fill:#8f5444}.fil0{fill:#da251d}.fil5{fill:#f8c300}.fil14{fill:#87c3dd}.fil8{fill:#fbfdfd}.fil10{fill:url(#i)}</style></defs><path fill="#fff" d="M-104.58-.99h419.51v279.5h-419.51z"/><path fill="#da251d" d="M15.4 119.45V77.94h186.82v41.51z" class="fil0 str0" transform="matrix(2.2437 0 0 2.2428 -138.79 -175.785)"/><path d="M15.4 119.45V77.94h186.82v41.51z" class="str0" style="fill:#0093dd" transform="matrix(2.2437 0 0 -2.2428 -138.79 453.293)"/><path fill="#75c5f0" d="M127.43 93.35v-.01m6.14.86-.2.02zm.29-.05-.08.01zm.32-.05-.07.02zm.07 0-.06.02zm.08-.01h-.04zm.07-.03-.05.02zm.05 0-.05.01zm.06-.02-.04.01zm.19-.04h-.03zm.08-.03-.09.03zm.02 0" class="fil3"/><path fill="#8f5444" d="M133.89 64.5s-.16-.8-2.19-1.45l-1.1-1.38-3.9-1.6s-.62-1-3.43-1.95c0 0-2.81-.44-5.78-1.16 0 0-2.95-1.46-6.15 1.7l-.07.18c.22.2.3.82-.45.78a5.6 5.6 0 0 1-4.66 2.43c-2.08 0-3.9-1.1-4.86-2.74q-.06-.02-.05 0h-.01l.02.03-.02-.02c-3.44-4.07-6.8-2.4-6.8-2.4-2.96.73-5.77 1.16-5.77 1.16-2.81.95-3.44 1.96-3.44 1.96l-3.9 1.6-1.1 1.38c-2.02.65-2.18 1.45-2.18 1.45-6.9 5.21-4.95 9.5-4.95 9.5a16 16 0 0 0 2.14 4.65c-.86.14-1.17.58-1.17.58a5.5 5.5 0 0 0 2.34 1.96c.86 2.39 2.34 2.75 2.34 2.75 1.1 2.69 4.14 3.05 4.14 3.05 0 1.38.78 2.03.78 2.03.31 2.83.94 4.14.94 4.14 1.17 1.67 1.01 2.54 1.01 2.54.94 1.16.94.65.94.65 13.87-3.6 18.8-3.13 19.38-3.06v.05s4.6-.8 19.44 3.05c0 0 0 .5.93-.66 0 0-.15-.87 1.02-2.54 0 0 .62-1.3.94-4.13 0 0 .78-.66.78-2.03 0 0 3.04-.37 4.13-3.05 0 0 1.49-.36 2.35-2.76 0 0 1.24-.43 2.34-1.96 0 0-.32-.43-1.17-.58 0 0 .8-.31 1.82-3.5 0 0 2.86-4.43-4.63-10.65m-23.04-4.92q0 .09 0 0" class="fil4"/><path fill="#f8c300" d="M91.2 70.78c-.57-.04-2.1-.19-4.22-.67.46 1.5.93 2.63 1.24 3.28l.15.07 1.08.15c-.24.93-.7 2.28-1.47 3.16q.47 0 .9.15a5 5 0 0 0 1.34-2.06c.93.18.82.51.82.51-.2.59-1 1.65-1.3 2.03q.27.22.46.49c.29-.25 1.46-1.36 2.34-3.25a6 6 0 0 0-1.85-.9c.93.09 1.64.1 2.03.1a25 25 0 0 1-1.51-3.06m-5.39-9.95a21 21 0 0 0 3.9 1.35q.11-1.71.6-3.51a13 13 0 0 0-4.5 2.16m3.86 2.06a22 22 0 0 1-3.96-1.3q0 2.1.26 3.96c1.67.54 3.2.9 4 1.07a18 18 0 0 1-.3-3.73m-7.12 8.99.97.43q1.7.54 3.21.85l.53-.02c-.33-.77-.76-1.88-1.16-3.25-1.44-.37-3.09-.9-4.86-1.63.39 1.28.86 2.53 1.31 3.62m-6.3-3.05c1.77 1.2 3.59 2.1 5.36 2.8a35 35 0 0 1-1.3-3.78A49 49 0 0 1 77 66.18c-.55.48-.87.92-1.3 1.43.08.3.48.92.56 1.22m3.84 8.41.96 1.5.5-.03v-.97q-.72-.22-1.45-.5m6-10.87q.27 1.59.65 2.91c1.92.47 3.4.66 4.16.74q-.46-1.24-.78-2.62c-.6-.12-2.2-.47-4.03-1.03m-6.01.58q-.35-1.45-.41-2.8a7 7 0 0 0-1.8 1.67q1.11.63 2.2 1.13m-1.79 8.68c-.97-1.8-2-4.02-2.71-6.36l-.8-.56c-.93 1.3-1.08 2.76-1.3 3.3a18 18 0 0 0 4.82 3.62M81 67.35c1.76.76 3.42 1.31 4.89 1.71q-.36-1.36-.61-2.96a18 18 0 0 1-4.82-2.3c0 1.09.22 2.32.54 3.55m4.16-2.08a28 28 0 0 1-.2-4.06l-.1-.05c-2.77.52-3.85 2.08-3.85 2.08H81a17 17 0 0 0 4.16 2.03M81.62 77c.22-1.78.94-2.25 1.32-2.38a49 49 0 0 1-.94-2.05 29 29 0 0 1-5.38-2.6 38 38 0 0 0 2.88 6.23q1.08.47 2.12.8m38.92-6.22c.58-.04 2.12-.19 4.23-.67-.46 1.5-.94 2.63-1.24 3.28l-.16.07a31 31 0 0 1-4.35.39q.83-1.4 1.52-3.07m5.41-9.95a21 21 0 0 1-3.9 1.35 18 18 0 0 0-.6-3.51c2.63.81 3.97 1.72 4.5 2.16m-3.88 2.06c1.39-.35 2.55-.66 3.95-1.3q.02 2.1-.25 3.96c-1.67.54-3.2.9-4 1.07q.34-1.79.3-3.73m7.13 8.99-.97.43q-1.69.54-3.21.85l-.52-.02c.33-.77.75-1.88 1.15-3.25a37 37 0 0 0 4.86-1.63 38 38 0 0 1-1.31 3.62m6.7-3.23c-1.76 1.2-4 2.29-5.76 2.98.46-1.16.93-2.46 1.29-3.77q1.39-.63 2.84-1.43c1.5.14 1.04 1 1.47 1.5.3.33.25.42.16.72m-4.23 8.59-.95 1.5-.5-.03v-.97q.71-.22 1.45-.5m-6.01-10.87q-.27 1.59-.65 2.91c-1.92.47-3.4.66-4.16.74q.46-1.24.77-2.62c.6-.12 2.21-.47 4.04-1.03m11.01 8.09q.85-.64 1.65-1.42c-.66 4.68-2.64 5.21-2.64 5.21.88-2.35 1-3.37.99-3.79m-3.84 2.29a20 20 0 0 0 3.6-2.1 9 9 0 0 1-2.87 3.62q-1.1.35-1.92.42.52-.78 1.2-1.94m-1.17-9.8q.34-1.45.4-2.8c1.11.8 1.6 1.34 1.8 1.67q-1.11.63-2.2 1.13m1.79 8.68c.97-1.8 2-4.02 2.72-6.36l.4-.28c1.55.57 1.48 2.48 1.7 3.01a18 18 0 0 1-4.82 3.63m-2.69-8.28a36 36 0 0 1-4.89 1.71q.35-1.36.6-2.96a18 18 0 0 0 4.83-2.3c0 1.09-.22 2.32-.54 3.55m-4.17-2.08q.24-1.91.2-4.06l.1-.05c2.77.52 3.85 2.08 3.85 2.08h.01a17 17 0 0 1-4.16 2.03M130.14 77c-.22-1.78-.94-2.25-1.32-2.38a49 49 0 0 0 .93-2.05 29 29 0 0 0 5.39-2.6 37 37 0 0 1-2.88 6.23q-1.08.47-2.12.8M86.2 73.83q-1.14.4-2.03 1.05c.53.62 1.28 1.58 1.82 2.64q.16-.16.36-.3a5 5 0 0 0-1-2.08s.38-.5 1.2-.36c0 0 .47.77.75 2.05q.27-.06.55-.07c0-.41-.05-1.6-.6-3.19q-.52.1-1.05.26m8.35 3.87c-.93.38-2.7.93-4.26.28q.24.38.34.82c1.48.38 2.57.1 2.57.1.2.59-.04.91-.04.91-.87.05-1.88-.08-2.5-.18q-.04.24-.13.47c1.24.6 2.7.54 3.65.4q.61-1.37.37-2.8m-9.13 2.57a7 7 0 0 1-3.17 1.24q.68 1.21 1.9 1.94c1.66-.7 2.36-1.43 2.65-1.84q-.36-.15-.66-.4c-.34.35-.84.78-1.38.98l-.39-.4s.79-.35 1.34-1.02a3 3 0 0 1-.3-.5m-.17-.6a2 2 0 0 1-.03-.57c-1.13.1-2.17-.15-2.17-.15.31-.5.16-1.16.16-1.16.65.27 1.64.44 2.22.52q.14-.3.35-.56a10 10 0 0 1-3.33-1 5 5 0 0 0-.75 2.68c1.4.38 2.7.33 3.55.24m-7.74 1.05c-.24-1.49.08-1.78.08-1.78a9 9 0 0 1 1.8 1.24c-.48 1.8-1.18 2.64-1.18 2.64.31-1.6-.04-2.83-.04-2.83-.43.37-.66.73-.66.73m1.4 2.47c1.68-1.1 2.3-1.13 2.3-1.13.43.87.7 1.96.7 1.96-1.4.44-2.14.26-2.14.26.98-.48 1.17-1.17 1.17-1.17-.97-.32-2.03.08-2.03.08m7.42-5.32c-1.53 2.36 1.4 3.3 1.4 3.3-.93-1.85-1.4-3.3-1.4-3.3m1.41-.77a3.6 3.6 0 0 1 1.76 2.62c1.13-1.16-.36-2.36-.36-2.36-.97-.4-1.4-.25-1.4-.25m-.7.2c-.2 1.38.86 2.58.86 2.58.63.72 1.1.69 1.1.69-.55-1.56-1.25-3.27-1.25-3.27-.35-.22-.7 0-.7 0m46.08 3.41c.24-1.49-.07-1.78-.07-1.78a8 8 0 0 0-1.8 1.24 7 7 0 0 0 1.17 2.64c-.31-1.6.04-2.83.04-2.83.43.37.66.73.66.73m-1.41 2.47c-1.68-1.1-2.3-1.13-2.3-1.13-.43.87-.7 1.96-.7 1.96 1.4.44 2.14.26 2.14.26-.97-.48-1.17-1.17-1.17-1.17.98-.32 2.03.08 2.03.08m-7.4-5.32c1.52 2.36-1.4 3.3-1.4 3.3.93-1.85 1.4-3.3 1.4-3.3m-1.41-.77a3.6 3.6 0 0 0-1.76 2.62c-1.13-1.16.35-2.36.35-2.36.98-.4 1.4-.25 1.4-.25m.71.2c.19 1.38-.87 2.58-.87 2.58-.62.72-1.09.69-1.09.69.55-1.56 1.25-3.27 1.25-3.27.35-.22.7 0 .7 0" class="fil5"/><path d="M96.23 57.04c-6.25 7.21 3.83 19.8 3.83 19.8l3.04-.54V62.1c-1.29-.76-1.44-1.66-1.44-1.66-1.88-2.65-5.43-3.41-5.43-3.41m19.44.01c6.25 7.21-3.82 19.8-3.82 19.8l-3.04-.54V62.1c1.28-.76 1.44-1.66 1.44-1.66 1.87-2.65 5.42-3.41 5.42-3.41" style="fill:#db214c"/><path fill="#f8c300" d="M122.11 81.55c-.4-.05-.8-.19-.98-.52 0 0-6.62 2.43-12.42-1.78.82.27 1.99.69 3.1 1.22 0 0 1.33-1.07 1.07-2.97 0 0-1.47.05-3.79-.7.63-.39 2.04-1.22 3.54-1.84 0 0-.06-1.64-1.82-2.64 0 0-.94 1.18-3.2 2.44 0-.4-.04-2.25.25-4.05 0 0-1.52-.83-3.36 0 0 0 .55 1.38.47 3.83a27 27 0 0 1-3.54-2.37s-1.57.74-1.8 2.64c0 0 1.5.3 3.64 1.63-.52.21-2.25.9-4.03 1.32 0 0-.24 1.63 1.3 2.89 0 0 1.02-.89 3.17-1.73a12.8 12.8 0 0 1-13.8 1.82s-.16.36-.56.64c7.86 3.9 14.18-.26 16.2-1.87h-.03s-.2-.03-.48-.17a2.6 2.6 0 0 1-1.6-2.32c0-1.42 1.24-2.56 2.76-2.56s2.75 1.14 2.75 2.56c0 1.2-.88 2.2-2.07 2.48 7.2 6 13.83 2.84 15.23 2.05" class="fil5"/><path fill="#8f5444" d="M106.55 74.46q.91.12 1.54.68c1.47-.78 2.17-1.4 2.17-1.4.86.3.66 1.03.66 1.03-.9.4-1.8.9-2.23 1.13a2.4 2.4 0 0 1 .26 1.3c1.39.44 2.22.52 2.22.52.33.8-.4 1.13-.4 1.13a29 29 0 0 0-2.09-.74 2.8 2.8 0 0 1-2.48 1.45 2.8 2.8 0 0 1-2.56-1.63c-1.47.54-2.2 1.02-2.2 1.02-.8-.41-.5-1.11-.5-1.11 1.06-.3 2.1-.7 2.5-.85q.02-.67.35-1.22l-.06-.07c-1.45-.88-2.39-1.18-2.39-1.18-.12-.84.68-1.02.68-1.02 1.12.79 2.37 1.48 2.37 1.48l-.08.16q.55-.48 1.32-.64l.07-.19a11 11 0 0 0-.18-2.52 1 1 0 0 1 1.29 0c-.17 1.74-.1 2.65-.1 2.65z" class="fil4"/><path fill="#f8c300" d="M105.2 79.17c-.23-2.28.04-4.02.04-4.02-2.42 2.5-.04 4.02-.04 4.02m2-4.1s.27 1.74.04 4.02c0 0 2.38-1.52-.04-4.02m-.94 4.17c1.32-2.07 0-4.35 0-4.35-1.3 2.03 0 4.35 0 4.35m-17.72 2.44q-.5.08-1.2-.15s-2.9 5.23-6.56 3.77q.45.39.85.63a8.5 8.5 0 0 0 6.9-4.25m34.95-.22s-.47.1-1 .1c2.52 5.1 7.24 4.33 7.24 4.33l-.2.22c.42-.28.52-.51.52-.51s-4.14-.51-6.56-4.14" class="fil5"/><path d="m108.94 98.43-.01-.03" style="fill:none;stroke:#b07d36;stroke-width:.6488;stroke-linecap:round;stroke-linejoin:round" transform="translate(-139.04 -175.7)scale(2.2428)"/><path fill="#8f5444" d="M106.55 47.01c.62-.7.62-2.08.62-2.08-.97-.47-2.04-.02-2.04-.02l-.02-.06a3.4 3.4 0 0 0 .55 2.16c.3.1.89 0 .89 0m-1.33.49c-.74-.58-2.24-.58-2.24-.58-.5.9-.02 1.9-.02 1.9l-.06.01c1.44.08 2.32-.5 2.32-.5.1-.29 0-.83 0-.83m.52 1.24c-.63.7-.63 2.08-.63 2.08.97.47 2.04.02 2.04.02l.02.05c.08-1.33-.54-2.15-.54-2.15-.3-.1-.9 0-.9 0m3.6-1.8.06-.02c-1.44-.08-2.32.5-2.32.5-.1.29 0 .83 0 .83.74.58 2.24.58 2.24.58.5-.9.02-1.9.02-1.9m-3.43.25c-.26 0-.46.2-.46.43v.46c0 .23.2.42.46.42h.5c.25 0 .45-.19.45-.42v-.46c0-.24-.2-.43-.46-.43z" class="fil4"/><path fill="#f8c300" d="M86.74 88.12c.58-.16 1.1-.3 1.66-.43.23-.08.39-.27.38-.48l-.11-1.48c-.02-.21-.2-.35-.43-.28-.58.13-1.08.27-1.67.43a.5.5 0 0 0-.36.49l.11 1.48c.02.21.2.33.42.27m-2.78.85c.54-.17 1.02-.34 1.58-.5a.5.5 0 0 0 .36-.5l-.11-1.49c-.02-.21-.2-.31-.41-.26-.56.16-1.05.34-1.58.5-.2.08-.35.3-.34.51l.1 1.5c.02.2.2.31.4.24" class="fil5"/><path fill="#8f5444" d="M106 51.11c3.1 0 5.62 2.45 5.62 5.48a5.54 5.54 0 0 1-5.61 5.47 5.54 5.54 0 0 1-5.61-5.47 5.54 5.54 0 0 1 5.6-5.48" class="fil4"/><path fill="#f8c300" d="M106.14 52.17a4.43 4.43 0 1 1 .01 8.85 4.43 4.43 0 0 1 0-8.85" class="fil5"/><path fill="#75c5f0" d="M148.46 175.97v-80H63.68v82.35c.8 13.19 15.85 14.76 15.85 14.76 14.1.31 20.34 0 20.34 0 5.7 0 6.2 5.82 6.23 6.25v.03-.02.01-.02c.03-.43.52-6.25 6.23-6.25 0 0 6.24.31 20.33 0 0 0 15.05-1.57 15.85-14.76l-.03-2.14z" class="fil3"/><path fill="#605d5c" d="M138.48 179.27c-.04.24-.32.41-.4.56a37 37 0 0 0-1.84 3.76c-2.37-.36-1.18-1.05-.48-2.4.3-.56.45-1.1.8-1.6.2-.28.75-.68.88-.96.1-.2-.1-.38.08-.48.04-.02-.29-1.19-.32-1.28-.9-2.84-1.57-5.62-2.4-8-.18-.53-.5-1.8-.8-2.24-.56-.82-1.4-1.19-2.24-1.76-.25-.18-.48-.62-.72-.8-.92-.7-1.9-1.14-2.96-1.84-1.15-.78-2.28-1.87-3.2-2.56-.56-.43-1.21-.59-1.75-1.04-.1-.08-.15-.4-.24-.48-.66-.57-1.41-.92-2.08-1.44-.38-.3-.55-.8-.72-.96a33 33 0 0 1-4.64-5.2l-.24.08c0 .9.17 1.78-.16 2.32-.3.49-4.15 1.61-4.72 1.76-.26.06-.39.05-.44.08l-.44.12c-.22.04-.6.08-.77.1-.4.05-1.14.14-1.6.14-.84 0-1.68.1-2.55.16-.51.04-1.28.16-1.94-.06-.3-.1-.54-1.41-1.46-1.82-.24 1.73-.7 4.2-.96 5.6-.41 2.14-1.26 5.68-.8 8 .05.26.16 1.52.16 1.52-.12.68-.4 1.37-.24 2.56.25 2 1.67 8.83.72 10.48-.32.54-.78 1.12-1.04 1.68-.28.58-.27 1.32-.64 1.84-.13.17-.77.39-1.12.32-.45-.09.64-2.16.8-2.56.4-1.01.74-1.63 1.12-2.56v-.08c0-.55-.03-1.52-.08-2.32-.15-2.2-.61-4.26-.8-7.04-.06-.83-.82-1.67-.96-2.4-.32-1.59-.13-2.88-.48-4.24-.55-2.17-1.5-4.28-2.16-6.4-.38-1.22-.8-2.06-.8-3.76-.02.09 0-.4 0-.4-.36-.2-.65.58-.96.64-.75.15-.93-.67-1.68-.4-.58.21-.13.49-1.28.4q.22.46.6.82-.41-.32-.97-.91.08-.49.05-.87c-.06-.54-.53-1.93-.64-2.4-.34-1.37-.3-2.53-.56-4.4.25-.09.42-.34.56-.4-.3-1.43-.43-2.6-.72-3.84l.08-.72c-.06-.33-.27-1.19-.24-1.44.08-.78.74-1.54.96-2.16.58-1.66.9-2.76 1.04-4.48.12-1.56-.02-3.23-.08-4.88 2.5-.37 2.8-1.23 3.28-3.52-1.22.36-1.06.93-1.76 1.44-1.27.92-2.96.8-4.32 1.6-.5.3-.86.9-1.36 1.2-.32.2-.56.19-1.04.24 1.01-.67 1.61-1.75 2.24-2.8-1.5-.16-2.06 1.04-3.44 1.28-.5.09-1.06.06-1.44-.16-.84-.48 1.13-1.63 1.52-2l.08-.48c-.45.02-1.11 0-1.76 0 .9-1.16 2.4-2.53 3-3.51 1.34-2.22.3-2.66 2.6-4.09.25-.15.48-.57.8-.64.77-.17 1.93-.03 2.32 0-.37.54-.2.59.56.64 1.03.08 1.98.2 2.4 1.12 2.36-1.9 4.16-5.15 7.2-6.16.29.27.13.47.08 1.04-.26 2.44-.81 3.25-2.66 4.1-1.48.69-3.02 1.1-4.22 2.14.52.32 1.03 1.3 1.44 2 1.94 3.36 1.25 8.95 2.24 13.12.3 1.25.28 2.28.88 3.36 3.38-.32 6.25 1.26 9.52 1.6 2.45.25 4.4-.19 6.48-.64.99-.22 1.8-.74 3.04-.64.9.07 1.63.64 2.32.96.1.05.22.02.32.08 3.14 2.04 5.6 4.3 7.1 8.24l.26.8c0 1.57.18 3.34.4 4.64.03.22 0 .56 0 .56.17.09-.07.17.08.24q-.02.27 0 .56c.31.08-.23.38.16.48.06.25.08.64.08.64.05.2.07.3.16.56.02.07.22.36.23.4.11.3.02.56.09.72.73 1.88 2.51 3.51 4.15 4.48.55.32 1.3.38 1.84.72.28.17.25.88.32 1.28.47 2.52.85 4.82 1.68 7.12 0 0 .04 1.06.08 1.2.5 1.52 1.85 4.75 1.52 6.72M91.75 156c.51.32 1.04.6 1.46.94-.3 1.98-1.25 4.3-1.92 6-.14.34-.57.8-.72 1.28-.25.78-.2 1.8-.4 2.48-.16.52-.93 1.38-1.2 2.08-.08.19.04.46 0 .64-.47 1.86-.93 4.44-1.68 6.24-.22.53-.19 1.6-.56 2.24-.1.16-.29.05-.32.08-.22.19-.28.58-.48.8-.75.8-1.49 1.5-2.08 2.48a4 4 0 0 1-1.44-.4c0-.03-.02-.26.08-.16.8-1.13 2.5-2.56 3.04-3.6.05-.1-.04-.3 0-.4h.16c.02-.1-.02-.23 0-.32l.16-.32.16-.64c.07-.27.1-.4.16-.56.08-.25.04-.25.08-.4 0-.02.13-.1 0-.16.65-1.7 1.27-3.91 1.52-6.16.14-.02-.08-.46.08-.48l-.32-.8q.06-.01.12-.17l.02.45 1.25-.92v-1.75s.5-.5.92-1.91zm-3.59 8.48.01-.04zm9.5 4.89a4 4 0 0 1-.37-.91c-.32-1.59-.13-2.88-.48-4.24-.55-2.17-1.5-4.28-2.16-6.4-.38-1.22-.8-2.06-.8-3.76V154q.02-.2.07-.43s-1.08-1.88-1.38-3.25c0 0-.08-1.8 1-3.75 0 0-.54.45-1.58 1.62 0 0 1.46-4.54 4.83-4.37 0 0-.2-1.34-.91-2.09 0 0-1.17.59-2.46 2.46 0 0 .12-3.58 2.7-3.75 0 0-.37-.87-.37-1.37l-1.66 1.75s-.71-1.09-.63-3.54c0 0 .63-1.8.46-4.55 0 0-.33-1.66.25-3.58 0 0 1.42-2.12 1.67-4.12.27.43.33.93.27 1.4-.02.2-.13.39-.22.58-.05.22-.03.47-.03.7.28.05.56-.03.67-.34 0 .42.08.87-.03 1.28s-.41.89-.16 1.3c.05.09.3-.02.33.03.11.34.06.7 0 1.06-.03.36-.17.67-.25 1.03-.06.2-.11.39-.03.58.06.14.25.3.45.2 0 .08-.03.19.05.27 0 0 .22 1.09-.64 1.4 0 0-.27.88 1.03.71 0 0-.05.7-.89 1.09 0 0-.03.22 1.03.64 0 0-.42.66-.92 1l1.4-.06s-.15.61-.7.97c0 0-.14.23.33.67 0 0 3.78-.25 7.83.64 0 0 6.36 1.47 11.9-.92.28-.12.66 0 .9.17.17.08-.08.28-.02.44.36 0 .75-.05 1.11.03.03.03-.05.2-.03.28q.14.2.4.28c.13.02.33-.03.38.08.06.11 0 .28.06.33.2.2.52.22.8.28q0 .36.03.72c.39.09.94-.03 1.14.42q.07.17.03.39c-.06.16-.28.08-.36.22 0 .06-.09.14 0 .2.27.13.63.11.84.22.42.2.88.37 1.17.75.17.16.42.5.2.66-.12.13-.5-.04-.58.09-.2.25.34.37.59.54.04.04.04.17 0 .25q-.14.14-.09.29c.17.25.55.3.71.5.17.17-.16.3-.29.42v.12c.2.3.54.42.7.71.22.37-.32.42-.5.67-.16.25.3.45.47.75.04.08.04.2 0 .25-.21.16-.54.29-.42.62s.58.33.7.58c.13.21.05.46-.12.67-.08.13-.25.13-.37.21s-.08.37 0 .54c.08.2.37.25.62.38.3.16.17.7.05.95-.13.21-.71.21-.5.55.12.25.5.16.75.33.08.04.2.12.25.25.08.46-.5.37-.75.58-.09.04-.09.21-.09.34 0 0 0 .37 1.13.7 0 0-.04.46-.63.84 0 0 .46.37.96.25 0 0-.08.46-.58.91 0 0 .08.59 1.25 1.25 0 0-1.13.05-3.59-1.58 0 0-4.41-2.67-7.58-7.46 0 0-.83-1.29-1.67-1.87 0 0-.04.29.21 1 0 0-.08.25-.58.08 0 0-.3.42-.33 1.33 0 0-.25.34-.71-.04 0 0-.21.13-.25.67 0 0-.38-.2-.8-.8 0 0-.24.26.13 1.92 0 0-2.5-3.5-4.83-4.29 0 0-.21.04-.58.3l-.34-.92s-.08.79-.5 1.12c-.41.34-.12.09-.12.09s-.63-1.88-1.67-2.84c0 0-.17.75-.8 1.59 0 0-.24-.05-.74-2.13 0 0-.2.21-.42 1.17 0 0-.24-.6-1.1-1.8.29.44 1.5 2.52-.6 4.67 0 0 .54.09 1.54-.5 0 0-.05.5-1.13 1.25 0 0 .04.38 1.13.38 0 0 .04.41-1.09 1.2 0 0 .54.26 1.25.17 0 0-.29.54-1.46 1.5 0 0-.37 2.42-2.12 4 0 0 1 2.8-.08 6.21 0 0-.38.38-.38 2.17l.38 2.25z" class="fil7"/><path fill="#fbfdfd" d="M87.17 126.11c1.2.13 1.5-.08 1.5-.08-.25-.42-.17-.75-.17-.75a4 4 0 0 0 1.04-.33c-.25-.42.13-.54.13-.54.83-.09.42-.38.42-.38 2.33-1.3 2-3.25 2-3.25-.46-1.67-2.71-1.75-2.71-1.75a14 14 0 0 0 1.87-.37 3 3 0 0 1-1.08-.5c1.41 0 2.33.04 2.33.04l-1.13-.36h-.08c-.76-.06-.93-.11-.56-.64l-.59-.06-1.2-.02-.53.08c-.32.07-.55.48-.8.64-2.3 1.42-1.26 1.86-2.6 4.08-.6.98-2.1 2.36-3 3.52h1.76l-.08.48c-.4.37-2.36 1.52-1.52 2 .38.22.95.24 1.44.15 1.38-.24 1.95-1.44 3.44-1.27l-.06.1.72-.08c-.46-.33-.54-.7-.54-.7m-3.44 2.2.05-.02zm.06-.02.01-.01zm.04-.03.04-.02zm.7-.32.1-.04q-.06 0-.1.04m.1-.05.02-.01zm.04-.01.01-.01zm.11-.06.03-.01zm.05-.02h.01m.02-.01h.01m.01 0 .01-.01m.05-.03h.02zm.03-.01.05-.02zm4.42 10.85s-.14-.47-.22.45c0 0-.14 3.42 1.2 5.56 0 0-.06-.78 1.05-2.2 0 0-1.61-1.83-2.03-3.8m.11 15.56s-.5.92-.58 1.17-.17 1.75-.17 1.75l-.17 2.41-.16 3.09-.25 1.91s-.67.67-.5 2.67l1.25-.92v-1.75s.5-.5.91-1.91l2-6.84s-.83.09-2.33-1.58M82.16 181l1.33.33 1.34-3.42c-1.59 1.42-2.67 3.08-2.67 3.08m16.09.68-1.58 3.91 1.66.09s-.5-2.5-.08-4m36.58 1.61 1.08.5a13 13 0 0 1 1.08-4.87 24 24 0 0 0-2.16 4.37" class="fil8"/><path fill="#605d5c" d="m129.2 145.11.16.32h-.25c-.72.42-1.4-1.83-2.15-2.4 1.2.22 1.72.93 2.24 2.08" class="fil7"/><path fill="#fbfdfd" d="M125.9 158.03c.5-.46.59-.92.59-.92-.5.13-.96-.25-.96-.25.58-.37.62-.83.62-.83-1.12-.33-1.12-.71-1.12-.71 0-.12 0-.3.08-.33.25-.21.83-.13.75-.59-.04-.12-.17-.2-.25-.25-.25-.16-.62-.08-.75-.33-.2-.33.38-.33.5-.54.13-.25.25-.8-.04-.96-.25-.12-.54-.17-.63-.37-.08-.17-.12-.46 0-.55.13-.08.3-.08.38-.2.17-.21.25-.46.12-.67-.12-.25-.58-.25-.7-.58-.13-.34.2-.46.41-.63.04-.04.04-.17 0-.25-.16-.3-.62-.5-.46-.75.17-.25.71-.3.5-.67-.16-.29-.5-.41-.7-.7v-.13c.12-.12.45-.25.29-.42-.17-.2-.54-.25-.71-.5q-.05-.14.08-.29c.04-.08.04-.2 0-.25-.25-.16-.79-.29-.58-.54.08-.12.46.04.58-.08.21-.17-.04-.5-.2-.67-.3-.37-.76-.54-1.17-.75-.21-.1-.57-.08-.85-.22-.08-.06 0-.14 0-.2.08-.13.3-.05.36-.22a.6.6 0 0 0-.03-.39c-.2-.44-.75-.33-1.14-.41q-.03-.36-.02-.73c-.28-.05-.61-.08-.8-.27-.06-.06 0-.23-.06-.34-.06-.1-.25-.05-.4-.08a.7.7 0 0 1-.38-.28c-.03-.08.05-.25.03-.27-.37-.09-.75-.03-1.12-.03-.05-.17.2-.36.03-.45-.25-.16-.62-.29-.91-.16-5.53 2.39-11.9.91-11.9.91-4.05-.89-7.82-.64-7.82-.64-.48-.44-.34-.66-.34-.66.56-.36.7-.97.7-.97l-1.4.05c.5-.33.92-1 .92-1-1.05-.42-1.02-.64-1.02-.64.83-.39.89-1.08.89-1.08-1.31.17-1.03-.72-1.03-.72.86-.3.64-1.4.64-1.4-.09-.08-.06-.19-.06-.27-.2.11-.39-.06-.44-.2-.09-.19-.03-.38.02-.58.09-.36.23-.66.25-1.03.06-.36.12-.72 0-1.05-.02-.06-.27.05-.33-.03-.25-.42.06-.89.17-1.3.1-.42.03-.87.03-1.28-.12.3-.4.39-.67.33 0-.22-.03-.47.03-.7.08-.19.2-.38.22-.58.05-.47 0-.97-.28-1.4-.25 2-1.67 4.13-1.67 4.13-.58 1.91-.25 3.58-.25 3.58.17 2.75-.45 4.54-.45 4.54-.09 2.46.62 3.54.62 3.54l1.67-1.75c0 .5.37 1.38.37 1.38-2.58.16-2.7 3.75-2.7 3.75 1.29-1.88 2.45-2.46 2.45-2.46.71.75.92 2.08.92 2.08-3.38-.17-4.83 4.38-4.83 4.38a19 19 0 0 1 1.58-1.63c-1.08 1.96-1 3.75-1 3.75.3 1.38 1.37 3.25 1.37 3.25-.29 1.46-.08 2.33-.08 2.33l.42 2.13.75 2.25.91 2.54.88 4.12.2 1.42.5 1.33.84-1.58-.37-2.25c0-1.79.37-2.16.37-2.16 1.08-3.42.08-6.21.08-6.21a7.6 7.6 0 0 0 2.13-4c1.17-.96 1.46-1.5 1.46-1.5-.71.08-1.25-.17-1.25-.17 1.12-.8 1.08-1.2 1.08-1.2-1.08 0-1.12-.38-1.12-.38 1.08-.75 1.12-1.25 1.12-1.25-1 .58-1.54.5-1.54.5 2.11-2.15.9-4.23.6-4.67a10 10 0 0 1 1.1 1.8c.22-.97.42-1.17.42-1.17.5 2.08.75 2.12.75 2.12.63-.83.8-1.58.8-1.58 1.04.96 1.66 2.83 1.66 2.83s-.29.25.13-.08c.41-.34.5-1.13.5-1.13l.33.92c.37-.25.58-.3.58-.3 2.34.8 4.84 4.3 4.84 4.3-.38-1.67-.13-1.92-.13-1.92.42.59.8.8.8.8.03-.55.24-.67.24-.67.46.37.71.04.71.04.04-.92.33-1.33.33-1.33.5.16.59-.09.59-.09-.25-.7-.21-1-.21-1a8 8 0 0 1 1.67 1.88 27 27 0 0 0 7.58 7.46c2.46 1.62 3.58 1.58 3.58 1.58-1.16-.67-1.25-1.25-1.25-1.25" class="fil8"/><g fill="#f8c300"><path d="M126.2 88.97c.49.17.93.35 1.44.56q.32.1.37-.23l.13-1.47a.5.5 0 0 0-.3-.51c-.5-.2-.93-.39-1.42-.55-.2-.08-.36.03-.39.24l-.15 1.46a.5.5 0 0 0 .31.5m-2.66-.86c.51.14 1.06.32 1.55.48q.35.09.4-.25l.16-1.46a.5.5 0 0 0-.32-.5c-.47-.15-1.02-.33-1.53-.47-.21-.06-.4.05-.42.27l-.17 1.45c-.03.2.12.4.33.48m-2.8-.73 1.63.4c.21.05.4-.05.43-.27l.17-1.45a.45.45 0 0 0-.33-.47l-1.63-.4c-.22-.04-.42.07-.45.28l-.17 1.44c-.02.22.14.42.35.47m-2.93-.6q.86.14 1.7.33c.24.04.42-.08.45-.29l.17-1.45c.03-.2-.11-.4-.35-.45l-1.71-.33c-.26-.05-.44.09-.46.3l-.17 1.45q-.02.33.37.44m-3.03-.47c.62.1 1.14.15 1.76.26.22.02.43-.1.46-.3l.16-1.45c.02-.22-.16-.4-.38-.44-.63-.1-1.15-.16-1.77-.25-.24-.02-.45.1-.47.32l-.14 1.44c-.02.22.16.4.38.42m-3.1-.32q.9.07 1.8.17c.24.02.43-.1.46-.32l.14-1.45c.02-.21-.16-.39-.4-.41q-.9-.1-1.83-.18c-.25-.01-.45.12-.47.34l-.11 1.44c-.02.21.15.39.4.4m-3.17-.2 1.83.1c.25.01.44-.13.46-.34l.11-1.45c.02-.21-.15-.37-.41-.4l-1.86-.1c-.23-.01-.46.14-.47.35l-.08 1.45c-.01.22.2.37.42.39m-3.2-.06 1.85.02c.22 0 .44-.15.46-.36l.07-1.45c.01-.22-.2-.37-.43-.38l-1.88-.03c-.26 0-.45.16-.46.37l-.04 1.46q.02.33.43.37m-3.2.07q.9-.05 1.84-.06c.26 0 .44-.16.45-.38l.04-1.45c0-.22-.18-.37-.44-.37l-1.88.05c-.26.02-.45.18-.45.4v1.45c0 .22.18.36.43.36m-3.2.2c.63-.05 1.2-.1 1.84-.13.23-.02.43-.19.44-.4V84c0-.21-.2-.36-.45-.35l-1.87.13c-.22.03-.44.2-.44.41l.03 1.46c.01.22.23.36.45.34m-3.16.33q.9-.12 1.81-.2c.26-.04.43-.21.43-.42l-.04-1.47c0-.21-.18-.35-.45-.33q-.93.08-1.84.2c-.24.04-.43.22-.42.43l.07 1.47c0 .22.2.35.44.32m-3.1.47c.63-.1 1.15-.2 1.78-.29.22-.04.42-.22.41-.43l-.07-1.47c0-.22-.23-.36-.45-.32l-1.8.28c-.21.04-.4.24-.4.45l.1 1.48c0 .2.22.33.44.3m-3 .6q.84-.2 1.72-.37c.23-.05.4-.24.4-.45l-.1-1.48c-.02-.2-.21-.34-.45-.3q-.89.16-1.73.36c-.23.05-.4.26-.39.47l.11 1.48c.02.21.2.33.44.28m37.33 6.03c-.5-.2-.62-.38-1.12-.56-.22-.08-.38.03-.4.24l-.16 1.46a.5.5 0 0 0 .33.5l.87.34c.2.08.38-.11.4-.32l.12-1.4c.01-.21.16-.17-.04-.26m-2.25-.96-1.58-.49c-.21-.05-.4.05-.42.26l-.17 1.45c-.03.21.12.43.34.48l1.58.5c.22.07.4-.03.42-.24l.15-1.46a.5.5 0 0 0-.32-.5m-2.75-.82q-.82-.23-1.63-.42c-.23-.04-.42.07-.44.28l-.18 1.45c-.02.21.12.4.35.46l1.63.42c.21.05.4-.05.43-.27l.18-1.45c.02-.2-.13-.41-.34-.47m-2.86-.69q-.83-.18-1.68-.33c-.25-.05-.42.08-.45.3l-.16 1.44c-.02.21.12.39.36.44q.84.16 1.67.34c.23.05.42-.07.44-.29l.18-1.44c.02-.22-.13-.4-.36-.46m-2.93-.55-1.72-.25a.4.4 0 0 0-.46.32l-.14 1.44c0 .22.16.4.37.42.6.08 1.12.17 1.7.26.22.03.4-.1.45-.3l.17-1.45a.5.5 0 0 0-.37-.44m-3-.4-1.76-.18c-.24 0-.43.12-.45.34l-.12 1.44c-.01.22.15.4.39.4q.87.08 1.73.18c.25.03.42-.11.45-.32l.14-1.45q.01-.33-.38-.42m-3.06-.28-1.77-.09c-.22 0-.44.14-.45.36l-.08 1.44c-.01.22.18.39.4.39q.88.03 1.74.1c.24 0 .43-.14.45-.35l.1-1.45c.02-.21-.14-.38-.39-.4m-3.09-.13-1.78-.02c-.25.01-.44.17-.44.38l-.05 1.45c0 .22.17.37.41.37l1.76.01c.25.01.42-.15.44-.36l.07-1.45c.01-.21-.15-.36-.4-.38m-3.1 0-1.8.06c-.25.03-.42.18-.42.4v1.46c0 .2.16.36.41.35l1.76-.07c.25 0 .42-.17.43-.38l.04-1.45q-.02-.34-.42-.37m-3.1.14-1.79.14c-.24.03-.42.2-.42.41l.04 1.46c0 .22.18.36.42.34l1.75-.15c.22-.02.42-.18.42-.4v-1.46c0-.21-.2-.35-.43-.34m-3.1.27-1.76.21c-.25.04-.4.22-.4.44l.06 1.46c.01.22.19.35.43.32l1.74-.22c.24-.03.41-.2.4-.42q0-.74-.03-1.46c0-.22-.18-.35-.43-.33m-3.05.4c-.61.1-1.14.17-1.73.3a.5.5 0 0 0-.4.44l.1 1.48q.08.31.43.3c.59-.12 1.1-.2 1.71-.3a.5.5 0 0 0 .4-.44l-.07-1.47c-.05-.2-.22-.35-.44-.31m-3 .53-1.7.37c-.22.07-.39.26-.37.47l.1 1.48c.02.21.2.35.43.28l1.69-.37a.44.44 0 0 0 .38-.46l-.1-1.47c0-.21-.18-.33-.43-.3m-2.93.67q-.83.2-1.65.44c-.21.06-.38.28-.37.49l.12 1.48c.01.22.2.32.42.27.57-.16 1.09-.31 1.64-.44a.5.5 0 0 0 .37-.48l-.1-1.48q-.05-.34-.43-.28m-2.85.79c-.54.16-.68.32-1.2.5-.23.08-.1.04-.09.25.06.48.62 1.43.83 1.56.21 0-.01.08.21 0 .53-.17-.12.1.42-.06a.5.5 0 0 0 .36-.5l-.11-1.49c-.02-.21-.2-.32-.42-.26" class="fil5"/><path d="M104.06 87.92c.44 1.43 2.34 1.26 2.7 1.23.36.03 2.22.28 2.8-1.13 0 0-.44-1.37-2.69-1.33-2.27-.13-2.81 1.23-2.81 1.23m23.9 2.61c-.08-.07.22-.03.15-.1-.76-1.16-1.4-.85-1.97-.42-.45-.77-1.1-1.53-2.1-1.03l-.28.02-.13-.06-1.89-.52-.32-.21c-.86-1.03-1.76-.66-2.4-.18-.52-.7-1.3-1.36-2.36-.74q-.15.01-.28.05-.02-.02-.06-.02c-.67-.1-1.32-.2-2.03-.28l-.35-.17c-.95-.9-1.94-.45-2.58.1-.6-.63-1.43-1.2-2.51-.47-.13.05-.3.09-.42.12 0 0 1.4.04 2.21 1.12q0 .03-.03.04a3.7 3.7 0 0 1-1.84 1.43c1.3.38 2.05-.03 2.45-.42.37.46 1 1.03 2.36.86 0 0-.98-.45-1.57-1.71q-.06-.04-.05-.1a2.8 2.8 0 0 1 1.96-.8c-.17.07-.32.19-.34.38q-.07.88-.17 1.78c-.02.25.18.48.48.52q1.08.14 2.13.3c.3.04.53-.12.56-.38l.2-1.78a.5.5 0 0 0-.19-.41c.47.14 1.22.47 1.72 1.28l-.04.04c-.8 1.07-1.82 1.24-1.82 1.24 1.23.52 1.95.18 2.35-.16.3.5.92 1.15 2.2 1.14 0 0-.92-.58-1.41-1.9q-.05-.06-.05-.12a2.3 2.3 0 0 1 1.92-.58q-.3.05-.34.34l-.22 1.8c-.03.25.17.5.43.57.69.19 1.32.35 1.98.55.28.07.49-.06.52-.32l.2-1.8c.03-.17-.06-.34-.18-.45a3 3 0 0 1 1.65 1.56l-.02.03a2.5 2.5 0 0 1-1.67 1.05c1.09.67 1.75.41 2.14.12.27.54.4 1.16 1.52 1.28 0 0-.35-.54-.83-1.97q0-.07-.04-.12c.6-.56.98-.6 1.35-.5m-44.03-.66c.28-.08 1.24-.3 2 .4q0 .03-.03.05a5 5 0 0 1-1.43 2.07 2.5 2.5 0 0 0 2.12-1.27c.4.33 1.07.67 2.31.03 0 0-1-.11-1.72-1.15q-.05-.04-.06-.09a3.4 3.4 0 0 1 2.05-1.59l-.39-.05c-1.04-.57-1.84.21-2.33.99-.63-.44-1.41-.72-2.26.37l-.44.2zm19.1-2.19c0-.03-.05-.05-.05-.1.88-1.08 2.36-1.06 2.36-1.06l-.41-.14c-1.05-.8-1.97-.21-2.62.42-.62-.57-1.54-1.03-2.56-.17l-.3.13-.14-.01-2.17.2-.38-.08c-1.08-.67-1.98 0-2.53.7-.66-.5-1.53-.87-2.48.1-.07.06-.2.1-.26.16h-.1q-1.06.2-2.1.45c-.26.07-.49.32-.47.59l.13 1.82c.02.27.27.41.53.35q1.04-.25 2.1-.46c.27-.06.49-.3.47-.56l-.11-1.82q-.03-.25-.26-.34c.46-.03 1.28 0 1.95.64l-.02.05a5 5 0 0 1-1.6 1.87 2.5 2.5 0 0 0 2.32-1c.38.36 1.11.79 2.44.3 0 0-1.04-.23-1.78-1.33l-.06-.1c.6-.86 1.5-1.17 1.97-1.28-.18.1-.35.27-.35.48l.07 1.8c.01.27.23.43.54.4q1.1-.13 2.2-.21c.32-.03.52-.25.52-.5l-.02-1.81q-.02-.27-.28-.37c.48 0 1.4.13 2.06.85l-.03.05c-.72 1.23-1.74 1.66-1.74 1.66 1.3.22 2.05-.3 2.43-.73.38.41 1.08.9 2.45.56 0 0-.98-.32-1.72-1.5" class="fil5"/></g><path fill="#8f5444" d="M93.54 59.52q.09.36-.08.76-.17.39-.53.63a1.1 1.1 0 0 0-1.56-.2q-.21-.36-.12-.81c.08.32.31.58.66.68.59.16 1.28-.2 1.55-.82q.06-.12.08-.24m-.38 2.38q.03.13.02.26c0 .47-.25.87-.61 1.06a1.1 1.1 0 0 0-1.22-.12 1.2 1.2 0 0 1-.4-1.2c.11.54.56.93 1.1.93s1-.4 1.1-.93m-.17 2.54a1.2 1.2 0 0 1-.14.87 1 1 0 0 0-.49-.12c-.4 0-.77.23-.97.58a1.2 1.2 0 0 1-.6-1.33c.1.53.55.93 1.1.93s.99-.4 1.1-.93m.47 2.19a1.2 1.2 0 0 1-.17.93q-.15-.04-.3-.04c-.39 0-.73.2-.93.52a1.2 1.2 0 0 1-.8-1.4c.1.53.56.93 1.1.93s.99-.4 1.1-.94m.65 2.34a1.2 1.2 0 0 1-.1.81 1 1 0 0 0-.37-.06c-.43 0-.8.26-1 .64a1.2 1.2 0 0 1-.74-1.4c.12.54.57.94 1.1.94.55 0 1-.4 1.1-.93m.64 2.19a1 1 0 0 1 0 .5c-.54 0-1 .41-1.1.96-.63 0-1.14-.54-1.14-1.2q0-.13.03-.26c.11.54.56.94 1.1.94s1-.4 1.1-.94m1.13 1.96a1 1 0 0 1-.03.64c-.43.06-.78.38-.92.8h-.16c-.62 0-1.13-.53-1.13-1.18q0-.15.03-.26c.11.53.56.93 1.1.93s1-.4 1.1-.93m1.24 2.08a1 1 0 0 1 .02.37c-.57.02-1.03.49-1.08 1.08h-.04c-.63 0-1.13-.53-1.13-1.19q0-.13.03-.26c.1.54.56.93 1.1.93s.99-.4 1.1-.93" class="fil4"/><path fill="#f8c300" d="M94.84 57.66q-2.1.32-3.63.75c-2.22 7.3 1 13.65 3.68 17.34a1 1 0 0 1 0-.54 1.3 1.3 0 0 1 .03-.64h-.16c-.62 0-1.13-.53-1.13-1.19l.03-.24a1 1 0 0 1 0-.5h-.02c-.62 0-1.13-.54-1.13-1.2q0-.15.03-.26a1.3 1.3 0 0 1 .1-.82 1.2 1.2 0 0 1-.74-1.38l-.03-.26q0-.38.2-.67a1.2 1.2 0 0 1-.8-1.4 1.3 1.3 0 0 1 .12-.88 1.2 1.2 0 0 1-.6-1.33l-.04-.26c0-.47.26-.87.62-1.07a1.2 1.2 0 0 1-.4-1.2v.01l-.03-.26c0-.39.18-.74.45-.95a1 1 0 0 1-.11-.8q-.1-.36.07-.76c.27-.62.97-.98 1.55-.81.6.16.85.8.58 1.42l.08-.23q.08.36-.08.75-.17.4-.53.63a1.2 1.2 0 0 1 .22 1.01q.03.12.03.26c0 .46-.25.86-.62 1.06a1.2 1.2 0 0 1 .4 1.2 1.2 1.2 0 0 1-.13.87 1.2 1.2 0 0 1 .62 1.34 1.2 1.2 0 0 1-.17.92c.48.13.83.6.83 1.15q0 .14-.03.26a1.2 1.2 0 0 1-.1.81c.45.16.77.6.77 1.13q0 .14-.03.26a1 1 0 0 1 .01.5c.63 0 1.14.53 1.14 1.19l-.03.26a1 1 0 0 1-.03.64l.15-.01c.63 0 1.13.53 1.13 1.2q0 .28-.11.51.06-.12.09-.26a1 1 0 0 1 .02.37h.05c.54 0 1 .4 1.1.95.52.38.87.58.87.58-5.46-8.2-5.7-13.5-5.7-13.5-.39-4.42 1.4-5.95 1.4-5.95z" class="fil5"/><path fill="#8f5444" d="M114.64 75.2a1 1 0 0 0-.02.37c.57.02 1.03.49 1.08 1.08h.05c.62 0 1.13-.53 1.13-1.19q0-.13-.03-.26c-.11.54-.56.93-1.1.93s-1-.4-1.1-.93" class="fil4"/><path fill="#f8c300" d="M116.9 57.66q2.1.32 3.63.75c2.22 7.3-1 13.65-3.67 17.34a1 1 0 0 0 0-.54 1.3 1.3 0 0 0-.03-.64h.16c.62 0 1.13-.53 1.13-1.19q0-.13-.03-.26v.02a1 1 0 0 0 0-.5h.01c.63 0 1.13-.54 1.13-1.2q0-.15-.02-.26a1.3 1.3 0 0 0-.1-.82 1.2 1.2 0 0 0 .74-1.38l.02-.26q0-.38-.19-.67a1.2 1.2 0 0 0 .8-1.4 1.3 1.3 0 0 0-.13-.88 1.2 1.2 0 0 0 .61-1.33q.03-.12.03-.26c0-.47-.25-.87-.62-1.07a1.2 1.2 0 0 0 .4-1.2v.01q.03-.12.03-.26c0-.39-.17-.74-.45-.95q.22-.36.12-.8.1-.36-.07-.76c-.27-.62-.97-.98-1.56-.81s-.85.8-.58 1.42l-.07-.23q-.1.36.07.75.18.4.53.63a1.2 1.2 0 0 0-.22 1.01q-.03.12-.03.26c0 .46.25.86.62 1.06a1.2 1.2 0 0 0-.4 1.2 1.2 1.2 0 0 0 .13.87 1.2 1.2 0 0 0-.61 1.34 1.2 1.2 0 0 0 .16.92c-.48.13-.83.6-.83 1.15q0 .14.03.26a1.2 1.2 0 0 0 .1.81c-.45.16-.77.6-.77 1.13q0 .14.03.26a1 1 0 0 0 0 .5h-.02c-.62 0-1.13.53-1.13 1.19l.03.26a1 1 0 0 0 .03.64l-.15-.01c-.63 0-1.13.53-1.13 1.2q0 .28.11.51l-.08-.26a1 1 0 0 0-.03.37h-.04c-.55 0-1 .4-1.11.95-.51.38-.87.58-.87.58 5.47-8.2 5.7-13.5 5.7-13.5.4-4.42-1.4-5.95-1.4-5.95zm8.3 22.61a7 7 0 0 0 3.17 1.24q-.66 1.21-1.9 1.94c-1.66-.7-2.36-1.43-2.64-1.84a2.6 2.6 0 0 0 1.38-1.34m.18-.6q.03-.18.03-.37-.02-.88-.56-1.54c.65-.09 2.1-.34 3.33-1.01a5 5 0 0 1 .74 2.7c-1.4.37-2.7.32-3.54.22m-.96-5.82q1.14.38 2.03 1.04c-.53.62-1.28 1.59-1.82 2.64a2.8 2.8 0 0 0-1.86-.76c0-.41.05-1.6.6-3.19q.53.1 1.05.27m-3.29-.35c.24.92.7 2.36 1.5 3.27-.92.01-1.74.45-2.22 1.12a10 10 0 0 1-2.34-3.25 6.5 6.5 0 0 1 3.06-1.14m-5.05 4.2c.93.4 2.7.95 4.26.3a2.4 2.4 0 0 0-.25 2.12c-1.24.6-2.7.53-3.64.39a5 5 0 0 1-.37-2.8" class="fil5"/><path d="M100.12 128.56c.03-.18.14-.44.22-.58.11.21.33.41.46.58.15.2.2.38.33.64l.1.18c.04.12.14.32.12.43-.06.72-.2.48-.34.75-.3.59-1.03-1.22-.89-2" style="fill:#fff" transform="translate(-139.04 -175.7)scale(2.2428)"/><path fill="#8f5444" d="M124.49 81.21q.24-.2.43-.44a4 4 0 0 0 1.34 1.02l-.39.4a4 4 0 0 1-1.38-.98m.72-2.89c.58-.08 1.57-.25 2.22-.52 0 0-.16.65.16 1.16 0 0-1.04.24-2.18.15q-.04-.42-.2-.79m.07-3.17a5 5 0 0 0-1 2.09q-.43-.28-.95-.4c.28-1.28.74-2.05.74-2.05.82-.15 1.21.36 1.21.36m-4.87-.29s.25 1.02 1.33 2.06q-.48.17-.86.48a10 10 0 0 1-1.3-2.03s-.11-.33.83-.5m-2.97 4.06s1.08.28 2.57-.1a2 2 0 0 0-.03.83c-.62.1-1.63.23-2.5.18 0 0-.24-.32-.04-.9" class="fil4"/><path fill="#605d5c" d="M122.07 167.83c.04.05.4.63.32.72-.95.9-1.74 2.36-2.8 3.6-.74.86-2 1.97-2.72 3.04-.32.45-.41.9-.72 1.36-.35.5-.98.87-1.36 1.36-.19.23-.22.58-.48.72-.97.5-2.12.55-2.96.88-.79.3-1.08.96-1.84.64-1.26-.54.77-1.08 1.44-1.36.68-.29 1.38-.78 2.08-1.04.32-.12.74-.06 1.04-.24.26-.17 5.4-7.41 5.2-8.24-.06-.25-1.12-1.19-1.36-1.52-1.82-2.5-3.3-4.5-3.12-8.48 0-.11-.21-1.08 0-1.28.38-.37 1.4-.26 2.08-.4.76-.15 1.4-.67 2.24-.64q.29 0 .48.16c.26.19.44.5.72.72.43.34.33.48.24 1.04-.22 1.3-.56 2.86-.32 4.72.2 1.7.99 3.16 1.84 4.24" class="fil7"/><path fill="#da251d" d="M83.55 128.54c0 .41.17.8.52 1 .27.14.6.06.84-.13q.62-.48.9-1.2c.03-.13.05-.3 0-.38-.24-.32-.7-.17-1-.02-.4.19-.8.35-1.2.56a.2.2 0 0 0-.06.17" class="fil0"/><path fill="#f8c300" d="M101.59 103.8h-.67c-.16.04-.29.16-.41.25-.38.2-.67.54-.88.91-.37.63-.7 1.3-1.08 1.96-.13.25-.38.46-.54.71l-.3.38c-.24.37-.5.75-.87 1.04-.42.29-.96.29-1.46.29-.29-.5 0-1.13-.29-1.63-.04-.04-.2-.04-.25 0-.08.09-.2.17-.25.3h-.11l-.56 1.5c-.2.75.05 1.5-.12 2.25q-.11.57-.3 1.08c-.28.7-.7 1.33-1.12 2l-.5 1.04-.5.8c-.08.16-.2.37-.08.5.37.4 1 .24 1.5.24.17-.04.3-.25.42-.25.5 0 .66-.37.83-.7.17-.34.17-.71.3-1.05q.34-.8.72-1.59c.9-.8 2.01-.68 2.54-1.65.04-.08.08-.28 0-.4-.05-.04-.53.28-.6.32-.49.28-.6.16-1.13.32l-.12.03.54-1.03c.37-.7 1.08-1.12 1.75-1.58q1.3-.86 2.75-.96c.54-.46 1.25-.62 1.79-1.12.17-.13.25-.38.33-.63a8 8 0 0 0-2.37.13c-.17 0-.38.04-.46-.05-.25-.16-.17-.54-.08-.83q.2-.64.58-1.3c0-.03.12-.12.2-.16zm-10.34-2.42c.04.66.13 1.37.17 2.04.04.46.08.96.29 1.37.04.13.12.3.3.38.28.12.62.08.9 0 .6-.17.97-.67 1.38-1.13.13-.08.38-.08.38-.04.2.63-.42 1.13-.84 1.58a50 50 0 0 0-2.54 3.34c-.41.58-.37 1.2-.46 1.83-.2 1.33-.16 2.58-.29 3.92l-.2 1.66c-.09.3-.38.34-.63.34-.46.04-.92.16-1.38.04.05-.38-.04-.71.05-1.09.5-2.2.58-4.5-.5-6.5-.09-.08-.09-.25-.17-.33-.5-.91-.46-1.92-.5-2.87h.17c.25.5.41.95.58 1.5.08.25.25.58.54.7.5.26 1.04.13 1.42-.24.2-.21.16-.5.2-.75.21-1.34.05-2.63.26-3.96.04-.38.25-.67.41-1.04.09-.13.25-.3.46-.38v-.12z" class="fil5"/><path fill="#605d5c" d="M136.3 162.31c-2.27-.71-4.63-2.16-5.51-4.56-1.34-3.65.1-8.02-.8-9.84.74-.1 1.47-.24 2.08-.4-.63-1.2-1.28-2.63-2.08-3.76-.4-.56-1.1-1.24-1.92-1.36-.6-.08-1.37.14-1.84-.08-.59-.27-1.19-1.07-1.76-1.44a16 16 0 0 0-5.84-2.4c-2.78-.47-5.57 1.07-8.64 1.2-2.6.11-4.98-1.03-7.12-1.6-.76-.2-2.16-.17-2.72-.64-.58-.48-1.25-5.56-1.36-6.8-.23-2.61-.35-5.84-1.2-8-.36-.91-.97-1.7-1.44-2.55 1.3-.89 3.45-1.57 4.4-2.8.97-1.26 1.2-3.45 1.28-5.36-1.9.56-3.84 1.2-4.96 2.56-.62.74-1.2 1.51-1.92 2.16-.23.2-.15.14-.48.32l.04-.14-.59-.13c-.14.25-.33.47-.71.47-.13 0-.25.21-.42.25-.5 0-1.12.17-1.5-.25-.12-.12 0-.33.09-.5l.31-.5-.12-.03-.06.1-.56-.15v-.06l-.51-.53-.1.84c-.09.3-.38.33-.63.33-.46.04-.92.17-1.38.04.05-.37-.04-.7.05-1.08q.22-.96.3-1.93l-.2-.2c-.03.03-.12-.13-.4-.53-.71-1-1.58-1.87-2.33-2.8-.24.79-.61 1.63-.72 2.48-.31 2.49.77 3.81 1.52 5.44-.66.47-.75.68-1.44 2.52-.04.13-.45.06-1.28.28.05.04 0 .4 0 .48.45-.04.6-.04.88 0-.62 1.53-2.22 2.52-3.12 3.76-.32.44-.4.82-.32 1.52.01.06-.07.3-.08.24l.08.48c0 .1-.16.35-.08.56.23.58 1.2.56 1.76.88.47.25.48 1.12 1.04 1.36 2.14.89 2.8-1.77 5.12-1.28.28 2.02.6 4.66 0 7.2-.34 1.46-1.69 2.82-1.76 4.47-.07 1.66.22 2.6.32 4 .2 2.6.07 4.31.4 6.56.16 1.06.47 1.88.56 2.88.1.98-.19 2.23-.24 3.12-.13 2.25.1 4.75-.4 6.8-.14.6-.72 1.28-.88 1.84-.31 1.08.19 2.4 0 3.44-.13-.09 0 .24 0 .24-.68 2.5-1.05 5.62-2.32 7.68-.3.5-.9.9-1.28 1.36a25 25 0 0 1-4 4.24c1.27.7 1.34.33.4 1.76 1.3-.16 3.33-.07 4.4-.88 1.31-1 .98-3.9 3.2-2.96a23 23 0 0 0 1.36-4.32c.18-1.12.23-2.94.48-4.08.16-.73.57-2.67 1.04-3.52.27-.49.96-.98 1.12-1.52.28-.93.06-1.35.32-2.16.53-1.65 1.91-3.52 2.88-4.88.8 1.7 1.77 4.15 1.92 6.24.03.48-.25 1.37-.16 2 .07.52.67 1.07.8 1.6.5 2.09.64 4.77.8 6.96.07 1.02.46 2.34.24 3.52a21 21 0 0 1-2.24 5.2c-.5.76-1.3 1.34-1.76 2.16 1.22.29 1.29-.09 1.04 1.2 1.3-.18 3.3-.4 3.92-1.28.68-.96 1-3.28 1.52-4.4.3.19.78.39.96.48.6-4.09-.78-7.67-1.12-11.52-.1-1.2 0-2.17.16-3.12.04-.22 0-.56 0-.56.02-.05.1-.34.16-.32 0 0-.3-1.07-.32-1.2-.23-1.77.37-3.42.72-4.88.3-1.28.42-2.6.64-3.84 2.06.16 5.11-.08 7.04-.56-.34.89-.71 1.59-1.04 2.4 1.7-.5 3.24-1.23 5.04-1.76 0 2.46.4 4.42 1.28 6 .78 1.42 1.95 2.5 2.88 3.76.32.43.54 1.21.96 1.52.04.03-.06.29-.08.32-1.05 2.02-2.63 3.8-3.92 5.6-.26.36-.46.92-.8 1.2-.96.8-2.55 1.04-3.68 1.6-1.72.86-2.88 2.24-4.32 3.36 1.19.4 1.24.32.56 1.28 3.92.3 4.59-.96 6.88-2.4.3-.19.52-.5.8-.08.37.56.4.68.96.16 2.07-1.93 3.13-4.78 4.88-7.04 1.31-1.7 3.19-3.1 4.32-4.96l.16-.24c.07-.47-1.68-2.59-1.92-3.36-.65-2.1.03-3.74.32-5.68 1.29.81 2.43 1.81 3.68 2.64 2.3 1.54 6.42 3.34 7.68 5.76.92 1.77 1.36 3.86 1.92 5.92.25.94 1.3 3.47 1.12 4.48-.1.5-.8 1.16-1.04 1.6-.52.93-.84 1.93-1.36 2.88-.57 1.02-1.74 1.89-2.48 2.8 1.66.38 1.37.1 1.12 1.44 1.32-.15 2.9-.07 3.84-.8.78-.6 1.41-3.79 2.48-4.8.55.22.73.3 1.2.24.25-3.46-1.26-6.32-2.08-9.2a81 81 0 0 1-2.08-10.16m-7.11-17.2.16.32h-.25c-.72.42-1.4-1.82-2.15-2.4 1.2.23 1.72.93 2.24 2.08m9.28 34.16c-.04.24-.32.41-.4.56a37 37 0 0 0-1.84 3.76c-2.38-.35-1.18-1.05-.48-2.4.29-.56.45-1.1.8-1.6.19-.27.75-.68.88-.96.09-.2-.1-.38.08-.48.03-.02-.3-1.19-.32-1.28-.9-2.84-1.58-5.61-2.4-8-.19-.53-.5-1.8-.8-2.24-.56-.81-1.41-1.18-2.24-1.76-.25-.17-.48-.62-.72-.8-.93-.7-1.91-1.13-2.96-1.84-1.16-.77-2.29-1.86-3.2-2.56-.57-.43-1.22-.58-1.76-1.04-.1-.08-.14-.4-.24-.48-.65-.56-1.4-.91-2.08-1.44-.38-.3-.55-.8-.72-.96a33 33 0 0 1-4.64-5.2l-.24.08c0 .91.17 1.78-.16 2.32-.3.5-4.14 1.62-4.72 1.76-.25.07-.38.05-.43.08l-.45.12c-.22.04-.6.08-.76.1-.41.06-1.14.14-1.6.14-.85 0-1.69.1-2.56.17-.5.03-1.27.16-1.94-.07-.3-.1-.53-1.41-1.46-1.82-.23 1.73-.7 4.2-.96 5.6-.4 2.14-1.26 5.69-.8 8 .05.26.16 1.52.16 1.52-.12.69-.4 1.37-.24 2.56.25 2 1.68 8.84.72 10.48-.31.54-.78 1.12-1.04 1.68-.27.58-.27 1.32-.64 1.84-.13.18-.77.39-1.12.32-.45-.09.64-2.16.8-2.56.4-1.01.75-1.63 1.12-2.56v-.08c0-.55-.03-1.52-.08-2.32-.14-2.2-.6-4.26-.8-7.04-.06-.82-.81-1.66-.96-2.4-.31-1.58-.13-2.87-.48-4.24-.55-2.17-1.5-4.28-2.16-6.4-.38-1.22-.8-2.06-.8-3.76v-.4c-.36-.2-.65.58-.96.64-.75.15-.93-.67-1.68-.4-.58.21-.13.5-1.28.4q.23.46.61.82c.84.65 1.3.6 1.3.6l-.08.29c.5.31 1.03.6 1.45.93-.3 1.99-1.25 4.3-1.92 6-.13.34-.57.8-.72 1.28-.24.78-.2 1.8-.4 2.48-.16.52-.92 1.39-1.2 2.08-.07.19.05.46 0 .64-.46 1.86-.93 4.44-1.68 6.24-.22.53-.19 1.6-.56 2.24-.1.17-.29.05-.32.08-.21.2-.28.59-.48.8-.74.8-1.48 1.5-2.08 2.48a4 4 0 0 1-1.44-.4c0-.02-.02-.26.08-.16.8-1.12 2.5-2.56 3.04-3.6.06-.1-.03-.29 0-.4h.16c.02-.1-.01-.22 0-.32l.16-.32.16-.64.16-.56c.08-.25.04-.24.08-.4 0-.02.14-.09 0-.16.65-1.7 1.27-3.91 1.52-6.16.15-.01-.08-.45.08-.48l-.32-.8q.08 0 .12-.17c-.04-1.54.45-2.14.52-2.2v-.05l.25-1.88.17-3.08.17-2.42s.08-1.5.16-1.75.59-1.17.59-1.17l.06.07q.08-.48.04-.87c-.05-.54-.52-1.92-.64-2.4-.33-1.36-.3-2.53-.56-4.4.26-.08.43-.33.56-.4-.3-1.43-.42-2.6-.72-3.84l.08-.72c-.06-.33-.26-1.18-.24-1.44.08-.77.74-1.53.96-2.15.59-1.66.91-2.76 1.04-4.48.12-1.57-.02-3.23-.08-4.88 2.51-.38 2.81-1.23 3.28-3.52-1.22.35-1.06.93-1.76 1.44-1.27.92-2.95.8-4.32 1.6-.5.29-.86.9-1.36 1.2-.32.19-.56.18-1.04.24 1.02-.67 1.62-1.75 2.24-2.8-1.49-.17-2.05 1.03-3.44 1.28-.49.08-1.05.06-1.44-.16-.83-.48 1.13-1.63 1.52-2l.08-.48H82c.91-1.16 2.41-2.54 3-3.52 1.35-2.22.3-2.66 2.6-4.08.25-.16.49-.57.8-.64.78-.18 1.94-.03 2.32 0-.36.53-.2.58.56.64 1.03.07 1.98.2 2.4 1.12 2.36-1.9 4.16-5.15 7.2-6.16.29.26.14.46.08 1.04-.25 2.43-.8 3.25-2.65 4.1-1.5.68-3.02 1.1-4.23 2.14.52.31 1.03 1.29 1.44 2 1.95 3.36 1.25 8.94 2.24 13.12.3 1.25.29 2.27.88 3.36 3.38-.33 6.25 1.26 9.52 1.6 2.45.25 4.4-.2 6.48-.64 1-.22 1.81-.75 3.04-.64.9.07 1.64.64 2.32.96.1.05.22.01.32.08 3.14 2.03 5.6 4.3 7.1 8.23l.26.8c0 1.58.19 3.35.4 4.64.03.22 0 .56 0 .56.17.09-.07.17.08.24q-.01.29 0 .56c.32.09-.22.38.16.48.06.26.08.64.08.64l.16.56c.02.08.22.37.24.4.1.31.02.57.08.72.74 1.88 2.52 3.52 4.16 4.48.54.32 1.3.39 1.84.72.27.18.24.88.32 1.28.46 2.52.85 4.82 1.68 7.12 0 0 .03 1.07.08 1.2.5 1.53 1.84 4.75 1.52 6.72m-16.4-11.44c.04.06.41.63.32.72-.95.9-1.74 2.36-2.8 3.6-.74.86-1.99 1.97-2.72 3.04-.31.46-.4.9-.72 1.36-.35.51-.98.88-1.36 1.36-.18.23-.21.58-.48.72-.97.51-2.12.55-2.96.88-.78.3-1.08.96-1.84.64-1.25-.53.77-1.08 1.44-1.36.68-.29 1.38-.78 2.08-1.04.32-.12.74-.05 1.04-.24.26-.16 5.4-7.4 5.2-8.24-.06-.24-1.12-1.18-1.36-1.52-1.81-2.5-3.3-4.5-3.12-8.48 0-.1-.2-1.08 0-1.28.38-.37 1.4-.26 2.08-.4.77-.15 1.4-.66 2.24-.64.21 0 .34.06.48.16.26.2.44.5.72.72.44.35.33.48.24 1.04-.21 1.31-.56 2.86-.32 4.72.21 1.7 1 3.16 1.84 4.24m-36.56-55.2c.07-.39.32-.97.5-1.28.25.47.73.9 1.02 1.29.35.46.46.85.76 1.43.04.08.18.3.21.4.09.28.3.72.28.98-.15 1.6-.47 1.07-.77 1.67-.67 1.32-2.3-2.72-2-4.48m-1.97 15.9c0 .43.17.82.52 1 .27.15.6.07.84-.12.41-.3.73-.73.9-1.2.03-.13.05-.3 0-.38-.24-.31-.7-.17-1-.02-.4.19-.8.35-1.2.56a.2.2 0 0 0-.06.17" class="fil7"/><path fill="#da251d" d="M87.98 122c.1-.17.24-.77.44-.9 1.02.6.38 1.1-.44.9" class="fil0"/><path fill="url(#c)" d="M122.5 120.54a4 4 0 0 1-.59.4h-3.5c.01-.11.05-.37.27-.76 1.5.97 3.42.45 3.52.42h-.03q.17 0 .33-.06m-3.16-.44.65.2q-.33-.06-.65-.2" class="fil10" transform="translate(-139.04 -175.7)scale(2.2428)"/><path fill="#007cc3" d="M141.27 87.99c2.03 3.42 4.88 3.62 4.88 3.62a27 27 0 0 1 5.07-2.55l-.34-.07-.18-.05-.02-.01h-.02l-.01-.01-.02-.01h-.02v-.01h-.02l-.02-.01-.05-.03h-.02l-.02-.01a5.1 5.1 0 0 1-3.07-4.97v-.06l.02-.06v-.02q.03-.08.03-.18v-.01q0-.16-.06-.26c-.07-.07-.26-.12-.63-.05h-.03l-.02.01h-.04l-.01.01h-.02l-.04.01h-.05v.01h-.03l-.09.02-.15.03a7.4 7.4 0 0 0-4.6 3.14s-.17.5-.55 1.27l-.01.03.05.09zm-.2-.32v-.02z" class="fil11"/><path fill="#75c5f0" d="M134.72 85.68s.25-3.8 5.95-5.4c0 0 .47-.26 1.02.22 0 0 2 1.23 4.44 2.03l.43-.09q.99-.21 1.46.3c.43.48.23 1.2.2 1.28l.02-.11a4.2 4.2 0 0 0 2.59 4.19q.6.26 1 .05c.48-.23.73-.9.8-1.14.1-.4.3-1.44-.12-1.93q-.34-.4-1.24-.25l.05-.01c-.24.06-.89.34-1.05.78q-.15.36.19.87l-.3.18.2.23-1.1.1a4 4 0 0 1-.95-2.06q.86-.07 1.55-.2a3 3 0 0 1 1.23-.7l.03-.01h.02q1.35-.22 2 .52c.8.92.34 2.52.28 2.7 0 .02-.3 1.2-1.21 1.66q-.75.38-1.69-.02s-3.2-1.17-3.11-4.99v-.05l.02-.06c.03-.12.06-.38-.03-.47-.07-.08-.29-.13-.7-.04a7.5 7.5 0 0 0-5.01 3.22s-.25.72-.82 1.8a8 8 0 0 1-.18.8v.03l-.01.02c-.06.2-1.6 5.12-5.72 5.67l.06-.01c-.21.06-4.51 1.23-7.9-.95l.28-.46-.17-.12h.25l.08-.12.01-.01c1.96 1.25 4.32 1.27 5.8 1.1a9.2 9.2 0 0 1-5.6-.98c1.34-.11 4.85-1.06 6.95-7.58z" class="fil3"/><path fill="#007cc3" d="M151 89.02c-1.06.01-1.99-1.02-2.43-1.6a5 5 0 0 0 2.43 1.6m-.9-2.18s1.96 2.52 0 0l-.07-.1.42-.27q-.33-.51-.19-.87c.17-.45.82-.72 1.05-.78h-.04q.44-.06.75 0 .32.14.53.32c.36.5.18 1.5.07 1.87-.06.23-.32.9-.8 1.14q-.4.21-1-.05a4 4 0 0 1-1.58-1.15l.5-.06.01.03.07-.04z" class="fil11"/><path d="m137.42 117.34-.05-.03c-.47.07-.45.49-.45.49.25.64 1.15.17 1.15.17a4 4 0 0 1-.65-.63" style="fill:url(#f)" transform="translate(-139.04 -175.7)scale(2.2428)"/><path d="M137.66 117.06v-.1c.82-.25.48.4.48.4-.5.16-.48-.3-.48-.3" style="fill:url(#e)" transform="translate(-139.04 -175.7)scale(2.2428)"/><path fill="#8f5444" d="M163.33 93.23c-1.24-3-1.92-2.83-1.92-2.83-1.99-.28-2.44-.23-2.44-.23-5.1-.79-2.44-4.48-2.44-4.48-6.23-3.06-1.41-5.38-1.41-5.38-4.65-4.88.96-5.1.96-5.1-.43-4.03 2.36-4.42 4.3-3.52 1.67.78 2.5 2.61 2.5 2.61 3.74-1.42 3.06 4.6 3.06 4.6 4.54 1.98.97 6.51.97 6.51 1.24 2.84-.57 4.99-.57 4.99a2 2 0 0 0 1.7-1.02c-1.47-2.55 1.36-2.78 1.36-2.78 1.81-1.7 2.1 1.48 2.1 1.48.9 2.2-2.38 2.15-2.38 2.15-1.53 2.15-3.12 2.04-3.12 2.04.14 2.95-1.13 4.3-1.13 4.3a5 5 0 0 0 .45 2.79c.4-5.9 3.51-3.58 3.51-3.58.29-6 3.52-3.96 3.52-3.96-.17-3.35 2.89-3.23 2.89-3.23 3 1.7 1.19 5.1 1.19 5.1 5.33-2.38 3.63 3.74 3.63 3.74a3.7 3.7 0 0 1-1.48 1.7c2.61 4.42-3.9 4.14-3.9 4.14.13 3.82-3.95 2.44-3.95 2.44-1.3-.46-2.32.59-2.32.59q-.49.4-1.02.57l-.06-.05-.33.15c-.82.16-1.54.01-1.54.01-1.94.1-2.2 1.95-2.23 2.36a9 9 0 0 1-2.6-.77c-.98-2.59-2.51-3.2-2.51-3.2-1.9-.32-3-.35-3-.35-3.35-.22-1.68-3.65-1.68-3.65-2.15-.28-3.3-1.12-3.93-2v-3.85h-.68c.3-3.64 3.37-2.09 3.37-2.09.17-3.86 2.46-3.66 3.8-2.8.66.42.9 1.36.9 1.36 3.74.45 2.75 4.1 2.75 4.1 4.65.63 2.72 4.68 2.72 4.68-.7 1.45-.45 2.19-.45 2.19 1.53-1.82 1.1-3.8 1.1-3.8-.42-2.67.09-3.35.09-3.35.28-1.36-1.05-1.33-1.05-1.33-1.08 1.76-1.93.11-1.93.11-2.4-1.95.14-2.8.14-2.8 1.82-1.79 1.87 1.05 1.87 1.05 1.17-.12 1.2.4 1.2.4" class="fil4"/><path fill="#f8c300" d="M157.93 76.62s-3.74 2.55 1.27 5.27c0 0 1.07.04.43.93 0 0-3.44 2.8 2.8 5.32 0 0 2.6 1.14 1.4 5.23 0 0-1.31 4.42-.63 9.6 0 0 .77-.3.43-2.16 0 0-.3-2.6.63-5.15 0 0 2.55-3.82 1.66-10.5 0 0 3.4-3.87-.5-5.61 0 0 .63-2.21-.05-3.7 0 0-.64-1.87-3.27-.6 0 0-.26 1.79.38 4.34 1.36-1.53 1.36-3.4 1.36-3.4 1.44 2.93 0 5.31 0 5.31-.9 2.43.13 2.94.13 2.94.63-1.32 1.7-2 1.7-2-1.28 3.23-.98 7.4-.98 7.4-2.34-9.27-4.46-9.82-4.46-9.82 1.06-.39 1.65.12 1.65.12-2-5.6-4.59-7.73-4.59-7.73-1.15 2.38.64 4.2.64 4.2" class="fil5"/><path fill="#f8c300" d="M165.46 105.7c-2.38.43-3.08 3.46-3.08 3.46-.97-.05-1.3-.37-1.3-.37-.46-3.51-3.07-4.62-3.07-4.62-2.86-1.67-1.19-2.92-1.19-2.92-4.1-1.9-4.7-3.96-4.7-3.96-.6-1.7 1.38-1.85 1.38-1.85-1.55-3.57 1.4-4.45 1.4-4.45-.89 4.26 2.52 7.6 2.52 7.6a42 42 0 0 1 3.57 6.63c-1.1-4.25-.63-6.4-.63-6.4a2.5 2.5 0 0 0-1.07 1.5c-2.38-3.94-1.28-6.52-1.28-6.52-1.61 1.02-1.47 2.5-1.47 2.5-.82-3.24 1.9-3.3 1.9-3.3 1.58 1.2.4 3.58.4 3.58-.63 1.25.45.73.45.73 1.9-1.38 2.35.26 2.35.26.68 1.42-.17 3.4-.17 3.4-.23 2.13.31 2.8.31 2.8.77 1.34.4 3.44.4 3.44 1.58-3.52 2.69-3.92 2.69-3.92s.88-1.04 1.05-3.7c0 0-.31-1.57.76-3.15 0 0 .91-.94 2.33.45 0 0 .65.94.62-.2 0 0 0-1.33.34-2.44 0 0 1.79-3 3.15-1.7 0 0-.37 3.43-4 7.09 0 0-.11-1.59-1.33-2.58 0 0 .08 2.6-2.13 6.66 0 0 5.28-5.41 10.12-7.6 0 0-.99-.68-2.44-.28 1.99-3.74 1.82-6.26 1.82-6.26 1.36 1.87.34 4.7.34 4.7 2.52 2.58-1.65 4.31-1.65 4.31-2.57 1.28-1.98 1.59-1.98 1.59 1.2 2.6-1.96 2.8-1.96 2.8-2.8.74-2.8 1.85-2.8 1.85-.2 1.13-1.76.93-1.76.93z" class="fil5"/><path fill="#8f5444" d="M169.3 137.24c.07-.82.07-1.88-.19-3.01 0 0-.79-2.6 3.35-2.44 0 0-.68-1.47.17-3.51 0 0 .74-2.21 3.06-.51 0 0-.4-1.93 2.38-3 0 0 3-.23 2.21 4.53 0 0 1.59-.51 2.04 1.36 0 0 1.65-2.72 4.03-1.48 0 0 3.51 3.52-2.33 6.98 0 0 2.21 4.08-4.53 4.25 0 0-.9 2.32-4.25 1.64 0 0-2.55-.96-4.26 1.36 0 0-.06.7-.9 1.84a42 42 0 0 0-.55-7.42v-.03l-.02-.02z" class="fil4"/><path fill="#f8c300" d="M182.53 131.65s.12-1.27-1.05-1.56c0 0-2.07-.79-4.16 3.43 0 0-1.76-2.26-3.46.49 0 0-.57 1.27-.77 2.23 0 0-2.04 1-3.08 6.07l.03.73c.47-.93 1.63-2.31 4.3-1.8 0 0 4.28 1.41 4.93-1.82 0 0 6.38 1.02 3.63-3.86 0 0 4.82-2.6 3.06-5.47-2.46 4.48-7.34 6.7-7.34 6.7-5.27 2-7.08 3.4-7.08 3.4.42-1.6 1.41-2.13 1.41-2.13 1.7-1 2.3-2.55 2.3-2.55.34 1.08-.11 1.93-.11 1.93 4.3-3 4.98-5.67 4.98-5.67.29 2.32-.5 3.8-.5 3.8 3.05-2.27 2.91-3.92 2.91-3.92m-5.51-1.41c-.34-2.9 1.02-4.99 1.02-4.99 1.87 2.67-1.02 4.99-1.02 4.99m-2.61-2.31-.05.23c0 3.9-1.36 3.11-1.36 3.11-.51-3.68 1.41-3.34 1.41-3.34" class="fil5"/><path fill="#007cc3" d="m159.36 154.2.4-.55.22.23 1.2-1.13-.35-.38.27-.43c1.3 1.46 1.74 3.24 1.74 3.24a17 17 0 0 1 1.45 5.75q-.38-.47-.68-.8h-.6c-.33-.3-.54-.39-.54-.39-2.98-2.3-1.83-4-1.83-4-.24-.92-.75-1.36-1.28-1.55m-1.96 3.01.37-.62a5 5 0 0 0 1.05 1.12c-.17-1.75.3-1.79.3-1.79a10 10 0 0 0 2.79 4.21h-.12q-2.54-1.51-4.4-2.92m-1.69 2.91.27-.47c.49-.08.73-.2.73-.2q.03.37.09.67zm9.38 4.89a9 9 0 0 1-2.13 1.99c-4.62 2.97-5.98 6.35-6.3 8.7a32 32 0 0 1-3.74-6.82l.03.14c0-.04-.28-3.6 1.1-5.06l-.33-.31.02-.02c1.1.28 2.48-.4 2.48-.4.96 3.37 4.36 1.13 4.36 1.13 1.84-1.13 3-.5 3-.5q.9.52 1.51 1.15m-2.89-23.52a24.4 24.4 0 0 1 6.95 9.72c-.03.8-.06 1.29-.07 1.3l.14.02s-3.44-.46-1.66 4.72c0 0 .34 1-.88 2.87l-.16.24s-.1-.07-.21-.24c-.2-.3-.46-.9-.38-2.02 0 0 .72-1.74-.81-4.27 0 0-1.1-2.55.8-5.14l-.25-.77s-.08-.3-.8.47c-.73.76-.18.17-.18.17s.26-.85.22-2.6c0 0-.64-1.1-1.96-2.38 0 0 .47 1.1.17 2.72 0 0-.68.81-.72 2.94 0 0 0 1.1-.38.3 0 0-.39-.13-.22-1.7 0 0 .3-1.07-.08-2.43 0 0-.77.38-.43-2 0 0 .55-.9.83-1.88zm0 0-.06-.05zm-3.61-35.66.14-.05a6.5 6.5 0 0 1 1.9 2.81q-.7-.33-1.43-.84l-.82.24c.4 3.78.12 6.72-.02 7.84q-.31-.76-.76-1.63c-.02-.03-2.65-6.4 1.14-8.01zm8.3 1.18.02.02-.42.2.06.27c.33.28.76.82.68 1.11-.02.1-.19.43-1.3.64-.01 0-1.11.32-2.7.1.03-.4.3-2.25 2.23-2.35 0 0 .65.14 1.43.01" class="fil11"/><g fill="#75c5f0"><path d="M159.57 120.64v-.04l-.06.01v.07zm2.42 21.24-.01.02zm.2-.4-.06-.05zm-.13.22-.01.02zm.02-.09-.01.03zm4.78-31.55q1.16-.4 1.37-1.22c.12-.48.05-1.21-.85-1.98l-.03-.02h-.01v-.01h-.01v-.01h-.01l-.85.38.06.27c.34.28.76.82.69 1.12-.02.1-.19.42-1.3.64-.01 0-1.13.31-2.74.1l-.07-.01-.07-.01h-.06l-.07-.02h-.04l-.1-.02-.05-.01-.08-.02-.06-.01-.08-.02-.07-.01-.06-.02-.08-.02-.06-.01-.09-.02-.06-.02-.08-.02-.06-.02-.08-.02-.07-.02-.08-.03-.06-.02-.09-.03-.06-.02-.1-.03-.04-.02-.1-.04-.06-.02-.1-.04-.05-.02-.1-.05-.05-.02-.1-.04-.06-.03-.11-.05q-.7-.33-1.44-.85l-.82.25c.4 3.77.12 6.72-.02 7.84l.4 1.02q.62.6 1.26.88c.7.26 1.1.18 1.1.18q0 .08-.02.14c.75.1 1.27-.03 1.27-.03 1.28-.25.77-.85.77-.85q.2-.6.42-1.19c-.03-.4-.11-.68-.11-.68.26-1.72.97-2.42 1.7-2.65a23 23 0 0 1 1.72-2.57m-2.67 20.65" class="fil3"/><path d="M151.99 128.38c.25 3.74 1.44 4.34 1.44 4.34h.09c.85-1.27 2.12-1.01 2.87-.24.84.85.81 2.42.81 2.42 4.72-2.98 2.9 4.25 2.9 4.25 2.34-.33 2.38 1.13 2 2.43v-.07l.09-.04a24.4 24.4 0 0 1 6.95 9.73l.04-.88-.1 2.18.13.01c-.02-.13-.3-2.52.81-3.7.1-3.3.1-8.03-.5-10.99v-.03l-.02-.03c-.07-.19-1.75-4.73-4.78-7.62l-.02-.02-.02-.02c-.06-.04-5.73-4.08-5.3-8.48l-.02.08c.03-.1.8-2.49-1.78-7.52-.01-.04-2.65-6.4 1.15-8.02l-.25-.58-.15-.1c-1.85.84-2.42 2.52-2.45 4.21l.03-.51c-1.47 2.6-1.97 2.79-1.97 2.79-2.8 3.32-1.2 7.65-1.2 7.65-1.18 4.08-.76 8.76-.76 8.76zm.56 42.32-.22-.42s1.36 5.21-.46 11.9c0 0-1.24 1.25 1.48 5.1 0 0 .4.17 5.78 6.92 0 0 4.8 3.52 2.26 8.98q.46.04.79.12c.63.14.9.37 1.03.58.14.26.03.5.03.5.5 1.44-.6 2.29-.6 2.29q2.01-.1 3.21 0c1.4-2.59 2.98-5.8 3.55-7.9 0 0 .23-.69.44-1.78 1.3-3.56.18-7.27.12-7.48l.02.1c-.48-4.04-7.85-8.89-8.17-9.1-5.72-3.12-8.87-11.55-8.9-11.63l.03.13c0-.04-.28-3.6 1.1-5.06l-.76-.71c-1.7 1.8-1.39 5.7-1.37 5.86v.07l.03.06c.03.09.23.64.6 1.47" class="fil3"/></g><g fill="#8f5444"><path d="M178.4 118.24s-.96-2.27-4.19-.17c0 0 1.08-.9.34-3.46 0 0 2.84-1.47 1.7-5.21 0 0-.68-2.95-4.25 1.36 0 0-2.32-2.21-4.7 2.15 0 0-3.24-1.75-3.86 2.38 0 0 .85 2.95-1.76 4.2 0 0-.14-.1-1.34.64.26-.38.6-1.08.78-2.23 0 0-.86.18-2.29-.82.55 1.6.68 2.78.67 3.54l.14-.03-.14.1c-.01.65-.12.99-.13 1.02l.02-.09a5.7 5.7 0 0 0 .76 3.31s2.73-1.76 5-.11c0 0 3 2.26 3.79.05 0 0 4.82 2.67 5.61-1.7 0 0 4.93-.62 3.86-4.93" class="fil4"/><path d="M161.07 126.52c.9-.41 1.46.1 1.46.1 2.9-2.38 3.69.8 3.69.8 1.41 2.37-1.53 2.6-1.53 2.6l-.07.03a18 18 0 0 1-3.55-3.53m2.53 33.59c-1.09-1.22-1.53-1.34-1.53-1.34-1.08-6.12-3.85-5.08-3.85-5.08-.83-4.59-4-2.55-4-2.55-2.86-3.54-4.36-.6-4.36-.6l-.37 1.9v6.99l.61.68.07.08c1.39 1.61 2.2.7 2.2.7-.07 1.37.28 2.1.8 2.47l.1-.13.4.37c1.11.32 2.53-.38 2.53-.38.97 3.37 4.37 1.13 4.37 1.13 1.84-1.13 3-.5 3-.5 4.08 2.37 3.38 6.83 3.38 6.83a9 9 0 0 0-1.12 3c-1.34.63-1.92 1.23-1.92 1.23-1.02-.26-.91-.96-.91-.96 2.4-2.4-.66-3-.66-3-2.55-2.18-2.61 1.26-2.61 1.26-1.47 2.13 1.87 2.25 1.87 2.25a5 5 0 0 0 1.27 1.79 8 8 0 0 0-.9 2.53 5 5 0 0 1-.79 1.37q.3.2.63.37c.1.06.9.6 1.98 1.42.95-.8 1.23-.76 1.23-.76 1.23-.49 1.13.26 1.13.26 1.1 1.59 2.12 1.08 2.12 1.08 1.21-.09 1.09 1.4 1.09 1.4 1.53 3.57 3.74 1.58 3.74 1.58 1.23 1.71 2.87 2.46 3.87 2.25 1.1-.24 1.48-1.53 1.48-1.53 6.72 1.02 5.87-3.45 5.87-3.45-.64-2.59-3.36-1.06-3.36-1.06 1.02-3.57-4.72-2.63-4.72-2.63-.5-3.49-4.84-1.11-4.84-1.11-1.45.64-.98.47-.98.47-1.91.8-2.47.04-2.47.04-1.7-.72-2.34-.34-2.34-.34.09-1.23 2.21-2.38 2.21-2.38 1.79-.77 2.85.17 2.85.17 4.64 2.64 5.57-.9 5.57-.9 7.02 1.58 5.1-2.88 5.1-2.88 3.92-.39 3.4-3.32 3.4-3.32-.25-3.66-3.78-2.04-3.78-2.04 1.57-5.23-1.19-4.25-1.19-4.25a5.6 5.6 0 0 0-2.85 1.36c-2.72-2.21-4.38 1.06-4.38 1.06-1.95-.34-3.14 1.57-3.14 1.57-.47-1.19-.3-1.7-.3-1.7 2.55-4.08 5.87-3.36 5.87-3.36 2.4-.27 3.43-.89 3.87-1.36.32-.33.34-.6.34-.6.34-1.01-.05-1.65-.05-1.65 4.38-1.1 4.04-3.27 4.04-3.27.09-2.13-1.19-1.92-1.19-1.92 3.7-4.5.72-5.82.72-5.82-1.95-.85-3.31 2.25-3.31 2.25-.6-.6-1.22-.37-1.22-.37.9-4.93-2.44-4.81-2.44-4.81-2.87.33-2.83 3.33-2.75 4.26.29.2.37.37.37.37.34.55.42-.42.42-.42-.6-4.72 2.21-3.75 2.21-3.75l.05.26c.12 5.53-3.96 9.7-3.96 9.7-3.19 4.29-3.57 7.3-3.57 7.3 2.04-3.35 3.74-3.9 3.74-3.9-.93-.35-1.53-.1-1.53-.1 2.34-3.6 6.2-4.75 6.2-4.75-1.48-.64-2.42-.22-2.42-.22 1.07-2.2 1.92-2.12 1.92-2.12 4.63 2.42-1.7 5.53-1.7 5.53 1.02 3.14-3.23 4.37-3.23 4.37-4.42 2.43-3.28 8.38-3.28 8.38l-.55.68c-1.33-5.36-1.44-7.94-1.16-9.18q-.06-.03-.2-.22c-.2-.29-.46-.9-.38-2.01 0 0 .72-1.75-.8-4.28 0 0-1.11-2.55.8-5.14l-.25-.77s-.09-.3-.81.47-.17.17-.17.17.25-.85.21-2.6c0 0-.64-1.1-1.95-2.37 0 0 .46 1.1.17 2.72 0 0-.68.8-.73 2.93 0 0 0 1.1-.38.3 0 0-.38-.13-.21-1.7 0 0 .3-1.07-.09-2.43 0 0-.76.39-.42-2 0 0 2.89-4.81-1.2-4.25 0 0 1.84-7.22-2.88-4.25 0 0 .03-1.57-.81-2.42-1.04-1.06-3.05-1.15-3.62 2.42 0 0-1.2-.4-3.28.6v6.8a4.2 4.2 0 0 0 2.82 1.45c.17 4.25 3.19 4.04 3.19 4.04 1.7 2.5 3.14 2.5 3.14 2.5 3.23 1.02 4.2 4.88 4.2 4.88a17 17 0 0 1 1.44 5.75q-.37-.47-.68-.8m7.44-11.86c-2.32.51-1.83 4.28-1.83 4.28s-3.45-.47-1.66 4.71c0 0 .24.72-.42 2.06.28-.11.52 0 .52 0 1.15-2.2.43-3.4.43-3.4-1.07-2.5.85-2.97.85-2.97.55-.13.76.42.76.42.3.64.38-.5.38-.5-.04-2.68.47-3.98.97-4.6" class="fil4"/></g><g fill="#f8c300"><path d="M175.36 109.85c2.18 1.22-1.36 4.42-1.36 4.42 1.36 2.22-.17 3.66-.17 3.66-1.96.85-3.58.51-3.58.51.85 2.98-2.04 2.64-2.04 2.64a13.7 13.7 0 0 0-7.82 1.19c1.28-3.49 3.74-4.42 3.74-4.42-.08-5.53 3.32-4.26 3.32-4.26.76.68.68-.25.68-.25.68-3.4 2.72-2.72 2.72-2.72 1.44.6.76 1.27.76 1.27L170 114.7c.08-1.36-.43-2.3-.43-2.3-1.53 4.26-5.52 7.32-5.52 7.32 8.5-4.85 11.3-9.87 11.3-9.87m2.52 8.44c.45 4.2-2.9 3.06-2.9 3.06 1.7-.85 2.9-3.06 2.9-3.06m-4.08 4.31-.12-.46c-1.81.8-3.97 1.7-3.97 1.7 1.82 2.6 4.09-1.25 4.09-1.25m-8.44 4.73.07-.1c-.09-1.06-1.02-1.09-1.02-1.09-1.47.47-.56 2.56-.56 2.56a9 9 0 0 1 1.51-1.37m.63.57h.21c.45 1.89-.95 1.04-.95 1.04-.28-1.15.74-1.04.74-1.04m15.07 37.21c-2.12.59-2.5 1.1-2.5 1.1 1.1-2 2.25-2.64 2.25-2.64.38.47.25 1.53.25 1.53m-4.89-.29v-.21c-.21-1.36-.46-1.28-.46-1.28-2.56 1.53-2.43 4.04-2.43 4.04 1.36-1.36 2.9-2.55 2.9-2.55" class="fil5"/><path d="M177.96 168.57s-.51-3.4-3.36-.21c0 0-.68 1.06-.94.76 0 0-.3-.55-1.19-.98 0 0-1.14-1.06-2.68 2.73 0 0-.63-.3-1.7 1.02 0 0-1.19.3-3.86 5.7 0 0 .42-.39 1.4-1.8 0 0 5.23-4.75 11.48-7.3 0 0-1.58.42-1.32 2.04 0 0 3.87-2.26 7.52-1.07 0 0-4.16.3-12.5 3.32 0 0 1.54-.21 2.81 1.78 0 0-4.25-1.53-7.27.81 0 0 2.42-.8 6.8.51 0 0 3.15 1.23 2.17-1.95 0 0-.9-1.66 1.06-.47 0 0 4.09 3.23 4.47-1.96 0 0 5.02 0 2.6-3.7 0 0-1.67-1.82-5.03 1.03-.42.16-.46-.26-.46-.26m-15.14 3.03c.85 1.83-1.4 2.08-1.4 2.08-1.96-.64.25-1.83.25-1.83.68-.72 1.15-.25 1.15-.25m-.99-.6c-.93.2-1.4.71-1.4.71-.13-1.78 1.4-.72 1.4-.72m15.05 11.44c4.17.6 3.61-1.83 3.61-1.83.22-2.38-4.2-1.27-4.2-1.27-1.7-2.64-3.62-1.45-3.62-1.45-2.76 1.4-4.84.9-4.84.9-3.36-.39-4.38 1.44-4.38 1.44 3.06-.6 3.65.9 3.65.9.47.84 2.04.8 2.04.8 1.28 2.17 2.26 2.85 2.26 2.85 1.02.8 1.57-1.02 1.57-1.02 1.27 2.38 2.42 2.17 2.42 2.17 2.04.2 3.15-.68 3.15-.68 3.1.46 5.23-2 5.23-2-5.23 1.44-11.1-2-11.1-2-2.2-1.02-4.76-1.4-4.76-1.4 3.4.2 5.87-.51 5.87-.51a3.4 3.4 0 0 1-1.36 1.19c3.53.93 6.8-.47 6.8-.47-.72 1.49-2.34 2.38-2.34 2.38m-11.42-22.32c-.28-7.6-1.41-9.69-1.41-9.69-.51-2.15.11-4.82.11-4.82-1.87 3.06-1.08 6.4-1.08 6.4-2.32-2.37-1.7-3.5-1.7-3.5-.05-2.39-1.02-2.84-1.02-2.84-1.19-2.04.23-2.95.23-2.95 1.64-3.29-2.6-2.66-2.6-2.66 0-5.56-3.47-2.72-3.47-2.72-2.6-3.52-4.25-1.36-4.25-1.36 3.57 2.77 4.54 5.72 4.54 5.72a10 10 0 0 0 1.36-3.51c.68 2.94.34 3.51.34 3.51-.8 2.44.62 3.06.62 3.06.51-1.87 1.3-1.87 1.3-1.87a9.4 9.4 0 0 0 1.14 5.05c-2.27-2.5-4.02-2.33-4.02-2.33-2.1-.85-2.56-1.64-2.56-1.64a4.7 4.7 0 0 0 1.93 2.21c2.04 1.59 5.5 3.91 5.5 3.91 1.7 1.7 1.47 2.67 1.47 2.67.51 1.47 1.6 1.75 1.6 1.75a31 31 0 0 1 1.97 5.61" class="fil5"/><path d="M150.55 140.85s-1.64-1.25 0 0m0 0a21 21 0 0 0 4.42 2.27c-2.55.17-4.59-.74-4.59-.74-.63-.4-.82-1.23-.88-1.75v-.45zm15.36 23.86c-1.61-4.14-3.44-4.97-3.44-4.97-2.98-2.3-1.83-4-1.83-4-.6-2.3-2.85-1.57-2.85-1.57-.76-3.87-3.65-2.42-3.65-2.42.12 3.14 1.4 3.7 1.4 3.7-.3-2.43.64-2.43.64-2.43.93 3.57 2.63 4.68 2.63 4.68-.17-1.75.3-1.79.3-1.79a9.7 9.7 0 0 0 3.1 4.47c-7.86-4.51-10.7-8.93-10.7-8.93-.48-1.2.33-1.28.33-1.28-.8-.25-1.49.85-1.49.85-.5 3.74 2.34 4.93 2.34 4.93-2.17 2.68.47 3.49.47 3.49 2.38.6 3.53 0 3.53 0 .34 3.87 2.89 2.3 2.89 2.3 3.74-.85 6.33 2.97 6.33 2.97" class="fil5"/></g><path fill="#87c3dd" d="m159.97 153.88 1.21-1.14-.7-.77-1.2 1.15z" class="fil14"/><path fill="#f8c300" d="m175.98 144.4.05.25c.12 5.52-3.96 9.7-3.96 9.7-3.19 4.28-3.57 7.3-3.57 7.3 2.04-3.36 3.74-3.9 3.74-3.9-.93-.35-1.53-.1-1.53-.1 2.34-3.6 6.2-4.76 6.2-4.76-1.48-.63-2.41-.2-2.41-.2 1.06-2.22 1.9-2.13 1.9-2.13 4.64 2.42-1.7 5.52-1.7 5.52 1.03 3.15-3.22 4.38-3.22 4.38-4.42 2.43-3.28 8.38-3.28 8.38l-.55.68c-2.9-11.63 0-10.2 0-10.2 1.15-2.22.43-3.4.43-3.4-1.07-2.51.85-2.98.85-2.98.55-.13.76.42.76.42.3.64.38-.5.38-.5-.08-5.07 1.83-5.2 1.83-5.2 1.2.39 1.45.9 1.45.9.34.55.42-.43.42-.43-.6-4.72 2.21-3.74 2.21-3.74m4.18 7.94c2.55-3.36 2.2-4.84 2.2-4.84-2.54-.26-2.54 1.78-2.54 1.78.59 1.53.34 3.06.34 3.06" class="fil5"/><path fill="#8f5444" d="M152.61 203.18s-.35-.03-1.03.03c.54-1.02 1.97-3.33 4-3.86 0 0 4.37-1.72 6.48-.37a7 7 0 0 0-.71-2.1c-.4.02-3.08.09-4.57-.93 0 0-.33-1.8.46-4.11l-.35-.43a11 11 0 0 1-1.56-1.58s-.6 1.61-.93 5.6c0 0-1.36-.08-2.13 1.2 0 0-.34-.94 0-1.53l-.93-.17s-.77 1.27-.94 3.91c0 0-1.17 1.42-1.8 4.85-1.76.4-4.09 1.11-6.96 2.38 0 0 .77-1.96 2.98-3.32 0 0 4.93-1.78 2.8-4.42 0 0 5.62-4.68 1.28-6.63 0 0 1.79-3.4-.68-5.27l-.1-1.16-.83 1a15 15 0 0 1-2.66 3.04l-1.34 1.45-2.3 1.02q-1.37.71-2.65 1.18h-.01l-2.44 2.73s-.08 1.2 1.2 1.87c0 0 1.7.09 1.01 1.8 0 0-1.19 3.22 1.28 7.3 0 0-3.82 2.04-10.18 1.38.66.73 1.08 1.57.8 2.4 0 0-.03.17-.12.42a78 78 0 0 0 11.31-1.48c5.02-2.12 7.63-2.97 7.63-2.97 1.02 1.36.08 2.38.08 2.38-2.63.42-1.53 2.63-1.53 2.63 1.62 1.88 4.42 0 4.42 0 .94-1.19-1.02-2.72-1.02-2.72.51-1.95-.5-2.97-.5-2.97s3.82-.09 2.88 4.08c0 0-1.44 5.36 2.55 3.66l-.34 1.95s-.25 4.25 3.23 3.49c0 0 .09 1.95 3.83 2.97 0 0 3.15.51 1.96-5.35 0 0 1.61 0 2.12-1.7 0 0 1.7 1.19 4.68 0 0 0 5.27-3.83-2.55-4.94 0 0 .6-.25.25-1.95 0 0 .77-1.62-6.03-1.28 0 0 1.1-.85.6-2.3 0 0 .84-1.7-4.94-1.1 0 0-1.7-1.87-5.7-.08" class="fil4"/><path fill="#007cc3" d="M126.1 205.98c-.37-.2-.9-.58-1.44-1.24l-.02-.03-.04-.03s-.25-.27-.46-1.08l-.15-.72a3.7 3.7 0 0 1 2.64-.61l.06.01.05.03c1.54.95 3.01 1.42 4.22 1.65q-.04.3.1.71.15.45.56 1.06s-.12 2.06 2.44 1c0 0 1.04.26 1.55 1.06-1.69.32-3.92.52-6.6.24l.08.1c-1.17-1.36-3.18-2.37-3.18-2.37l.11.17zm15.86 3.01q.67-.3 1.29-.54c1.55.1 2.69-.24 2.71-.25h.05c.55-.09 1.69-.24 3.08-.38q-.05.46-.2.7l-.18.28c-2.64.42-1.53 2.63-1.53 2.63 1.61 1.87 4.42 0 4.42 0 .93-1.19-1.02-2.72-1.02-2.72l.07-.34h.08-.08q.07-.37.07-.7 1.1-.08 2.23-.12.1.3.14.69.06.66-.13 1.58s-1.45 5.35 2.55 3.65l-.34 1.95-.79.32s-7.52 2.18-12.65 1.76c1.02-3.7-5.23-3-5.23-3 .05-2.6-2.42-2.6-2.42-2.6a4.5 4.5 0 0 0-2.25.47c-.9.72-2.11.18-2.74-.2.3-.5.49-.98.6-1.3 5.23-.2 11.3-1.48 11.3-1.48zm-3.83-1.89q-.48.17-1.13.36a3 3 0 0 0-1.82-1.87s.07-.24.12-.6q.05-.3.07-.69c2 .63 3.23 2.3 3.3 2.39l-.06-.06.23.19z" class="fil11"/><path d="M122.32 169.73v.02z" style="fill:url(#y)" transform="translate(-139.04 -175.7)scale(2.2428)"/><g fill="#8f5444"><path d="m118.03 219.41.07-.02-.02-.03zm-10.65.63a13.5 13.5 0 0 0 5.98 2.77 8.7 8.7 0 0 1 4.72 4.38c2.09 3.4 3.45 2.85 3.45 2.85 4.63-1.57 8.46-1.49 8.46-1.49 2.93 0 2.8-.76 2.8-.76-4.71-1.75-6.76-3.74-6.76-3.74-2.33-1.7-3.95-1.54-3.95-1.54a9 9 0 0 1-1.84-.97c-5.53.65-10.65-1.9-10.65-1.9s-1.06.76-2.21.4" class="fil4"/><path d="M124.47 218.99c.83.92 1.95.73 1.95.73-.85 5.65 2.93 4.76 2.93 4.76 4.5 5.31 6.33 1.23 6.33 1.23.35-1.15-.46-1.95-.46-1.95 2.46.04 3.02-1.28 3.02-1.28 6.93 1.28 6.46-2.6 6.46-2.6 0-2.2-3.06-2.12-3.06-2.12 1.4-4-5.15-3.27-5.15-3.27.05-2.6-2.42-2.6-2.42-2.6a4.5 4.5 0 0 0-2.25.47c-.9.73-2.12.19-2.74-.19a5 5 0 0 1-1.8 1.84s-2.51 1.57-2.77 4.07q.03.51-.04.9m11.14-11.16a3 3 0 0 0-1.55-1.08c-2.57 1.06-2.45-1-2.45-1-2.18-3.21 1.75-2.8 1.75-2.8 2.87-1.26 1.82 2.67 1.82 2.67a3 3 0 0 1 1.87 2.02c-.91 0-1.44.19-1.44.19" class="fil4"/></g><path fill="#f8c300" d="M129.9 210a64 64 0 0 0 16.13-3.1c4.85-2.8 4.72-4.23 4.72-4.23-6.04 4.08-14.11 5.59-14.11 5.59-2.5.44-5.17.48-7.15.42q.42.63.4 1.31m4.76-5.76s-.47 1.86-1.4 2.11c0 0-1.58.48-.96-.75 0 0 1.1-.76 1.3-2.44 0 0 1.12-.46 1.06 1.08m-6.95 15.03c-.17 2.63.76 4.08.76 4.08 1.36 1.53 1.2-.17 1.2-.17a8 8 0 0 0-1.96-3.91m6.39 5.42a9 9 0 0 0-3.06-1.87c.85 3.58 3.31 3.32 3.31 3.32 1.36-.43-.25-1.45-.25-1.45m9.69-5.28c-.64-1.62-2.26-.99-2.26-.99 1.58.68 1.2 1.58 1.2 1.58-1.45 1.23-5.07-.13-5.07-.13-4.03-1.49-6.2-3.49-6.2-3.49a68 68 0 0 1-3.57-2.63c3.95-.26 6.54.46 6.54.46-2 .47-2.38 1.4-2.38 1.4a4 4 0 0 0 1.66 1.2c3.4-1.28 5.7-.3 5.7-.3-1.58 1.79-3.57 1.74-3.57 1.74 3.53.64 5.31-.55 5.31-.55 1.83-1.32-1.1-2.42-1.1-2.42-3.2-.94-4.3-.04-4.3-.04.72-1.66-1.06-2.68-1.06-2.68-2.42-.26-3.57.5-3.57.5a2.9 2.9 0 0 1-2.47-.2c-.35.44-.8.86-1.35 1.17l-.22.15c.1.57-.21 1.1-.21 1.1-.47 1.27 1.53 1.23 1.53 1.23-.05 3.49 4.59 3.53 4.59 3.53 1.32 3.83 5.31 1.57 5.31 1.57 6.25 1.53 5.49-2.2 5.49-2.2m-31.9 1.16c-.94-.24-1.82-.55-2.46-.8q-.23.14-.67.29a20 20 0 0 0 5.85 1.76c3.15 1.28 4.04 3.32 4.04 3.32 1.49 3.4 2.2 3.9 2.2 3.9l.14.1c-.81-2.94 1.02-2.9 1.02-2.9 4.76.3 8.07 1.23 8.07 1.23-4.08-3.1-7.86-3.48-7.86-3.48a20 20 0 0 0-4.55-2.33c-2.26-.1-4.3-.6-5.78-1.1" class="fil5"/><path d="m113.77 173.75-.09.3-.6-.19-.11-.07q.4 0 .8-.04" style="fill:url(#g)" transform="translate(-139.04 -175.7)scale(2.2428)"/><path fill="#007cc3" d="M120.38 208.31c-1.46.31-2.94.21-3.57.14a4.6 4.6 0 0 0-.16-3.37c-1.17-2.1-.67-3.93-.67-3.93 1.1-1.3 2.75-.43 2.82-.4.7.33 1.63.34 2.25.3-1.23 3.33-1.2 5.65-.67 7.26m-6.36 5.76c2.94.03 6.08-.73 8.06-1.32l.13-.16.04-.05.05-.05.04-.05.01-.01.04-.04.01-.01.04-.04.02-.03.03-.02.02-.02.03-.03.03-.03.02-.02.04-.03.02-.03q.03 0 .04-.03l.03-.02.03-.03.03-.02.03-.03.02-.01.05-.04.01-.01.06-.05h.01l.27-.18.08-.05.08-.04a5.4 5.4 0 0 1-2.38-2c.45.99 1.25 1.43 1.25 1.43-3.9 1.17-9.8 1.69-9.8 1.69 2.17-.52 3.99-3.08 3.99-3.08 2.15-.12 4.22-.17 4.48-.17q-.31-.51-.54-1.18c-1.47.3-2.95.2-3.58.14v.03l-.03.09-.01.02-.03.1-.01.03-.04.09v.03l-.05.1v.02l-.05.1v.02l-.06.1v.03l-.06.1v.02l-.06.12v.01l-.07.12-.07.13v.01l-.16.26-.08.13-.1.14-.09.13c-.19.29-.82.83-1.69 1.37l-.04.08-.26.1q-.76.46-1.69.82v.91c.43.08 1.1.2 1.87.4zm8.52-1.83.03-.03zm-5.76-3.67-.01.03z" class="fil11"/><path fill="#75c5f0" d="M110.31 205.44c2.3-4.1 3.44-4.8 3.44-4.8 1.22-.94 3.47-1.38 3.47-1.38l-.15.17h-.01c.88-.12 1.73.14 2.2.4.66.3 1.89.2 2.32.13 1.48-.19 2.16 1.33 2.31 2.16v.05c.16 1.94.7 2.52.7 2.5l.03.04.03.03a4 4 0 0 0 1.97 1.47l.08.02.07.05a2.7 2.7 0 0 1 1.13 3.57 5.5 5.5 0 0 1-3.21 2.41c-1.59.29-2.19 1.78-2.2 1.8-.98 3.5-2.51 4.39-2.68 4.48l.1-.08c-2.6 2.41-4.04 1.9-4.2 1.83l.23.04a9 9 0 0 1-2.92-.35h-.05l-.06-.03a6 6 0 0 1-1.15-.47l-1.13-.36a1 1 0 0 1-.23-.26 7 7 0 0 0 .53-.7 8 8 0 0 0 1.17-3.65c1.53.28 5.67 1.2 7.06 3.23-2 1.83-3 1.6-3.05 1.58.05.02 1.07.26 3.1-1.62l.05-.05.05-.03c.02 0 1.31-.78 2.2-3.89a4.4 4.4 0 0 1 1.87-2.1c-1.4-.61-5.15-3-2.33-10.57a5 5 0 0 1-2.25-.3c-.07-.03-1.73-.9-2.83.4 0 0-.5 1.82.67 3.93.05.1 1.26 2.4-.8 5.3-.33.48-1.86 1.65-3.69 2.37v-.3l-.01-.04-.02-.26v-.03l-.02-.25v-.01l.03-.01h-.03a24 24 0 0 0-1.55-6.44z" class="fil3"/><path fill="#007cc3" d="m122.45 214.23.05-.16c0-.02.6-1.51 2.19-1.8a5.5 5.5 0 0 0 3.21-2.41 2.7 2.7 0 0 0-1.12-3.57l-.08-.05-.08-.02s-.24-.06-.61-.28l-.11-.17s4.68 2.35 3.9 4.69c0 0-.52 2.42-2.52 3.55 0 0-2.5 1.58-2.76 4.08.2 3.03-2.78 3.2-2.78 3.2-6.07 1.4-12.14-1.64-12.14-1.64q.45-.36.8-.78.1.17.24.26l1.12.36c.07.04 1.64.94 4.19.85l-.23-.04c.16.06 1.6.58 4.2-1.83l-.1.08c.16-.1 1.64-.96 2.63-4.32" class="fil11"/><path d="M115.51 175.33c-.65-1.13-2.8-1.6-3.5-1.72q0 .19-.03.38c.7.12 2.65.56 3.2 1.53z" style="fill:url(#h)" transform="translate(-139.04 -175.7)scale(2.2428)"/><path fill="#8f5444" d="M120.95 209.5a3.3 3.3 0 0 0 1.3 1.56c-3.9 1.17-9.8 1.7-9.8 1.7 2.17-.53 3.99-3.09 3.99-3.09 2.3-.13 4.5-.17 4.5-.17" class="fil4"/><path fill="#f8c300" d="m121.08 209.8.65.73c-2.6.65-7.67 1.43-7.67 1.43 1.17-.82 1.9-1.69 1.9-1.69a41 41 0 0 0 5.12-.48m25.62-22.29.42.34c2.55 2.38.42 4.68.42 4.68 3.66 1.7-.93 5.78-.93 5.78 1.44 3.57-3.49 4.76-3.49 4.76-2.04.85-3.48 4.25-3.48 4.25 1.27-5.36 0-5.19 0-5.19-1.53-4.16 1.36-4.33 1.36-4.33-2.13-2.55-1.45-4-1.45-4a12 12 0 0 0 5.02-3.57c1.1 3.91-.17 5.95-.17 5.95-1.1-2.46-2.3-2.63-2.3-2.63.51 2.46 1.1 4.59 1.1 4.59-1.35-1.45-1.95-1.53-1.95-1.53.26 1.87 1.02 2.38 1.02 2.38-1.02 2.38-.76 4.5-.76 4.5 1.61-2.46 4-3.48 4-3.48a4 4 0 0 0-2.47.34 40 40 0 0 0 5.27-5.87 16 16 0 0 1-3.49 1.96c1.96-4.17 1.79-7.66 1.79-7.66zm16.23 32.56c-2.04-.68-3.74-4-3.74-4a8.6 8.6 0 0 0 1.19 4.43c1.36 1.44 2.55-.43 2.55-.43" class="fil5"/><path fill="#8f5444" d="M170.44 194.12c.67-.42 1-1.14 1-1.14-.54-2.72 1.45-2.21 1.45-2.21 3.58-1.53 2.43 2.25 2.43 2.25.68 3.06-2.98 1.27-2.98 1.27a3 3 0 0 1-2.12 1.42q.17-.81.22-1.6" class="fil4"/><path fill="#f8c300" d="M174.75 193.08c.6 1.09-1.21 1.17-1.21 1.17-2.7-1.46-.6-3.08-.6-3.08.11.94 1.81 1.91 1.81 1.91m.31-.6c.22-1.1-.34-1.43-.34-1.43-1.04-.61-1.14.07-1.14.07.08 1.2 1.48 1.36 1.48 1.36m-13.16 5.78c-5.92-1.66-11.38 4.7-11.38 4.7 2.59-6.01 9.52-5.93 10.95-5.84q.25.53.43 1.14m-13.44 11.04s1.92.02 2.39.87c0 0 .82 1.42-.51 1.1 0 0-1-.89-2.68-.7 0 0-.7-.97.8-1.27m1.44 2.56s-1.28.91-1.96-.51c0 0 1.11-.15 1.96.5m7.33 1.58c-2.2 3.23-.17 4.67-.17 4.67.77-2.2.17-4.67.17-4.67m10.46-2.63s.59-1.02.34-2.38c0 0 .42-2.46-4.17-.85 0 0-1.79 1.28-2.04-.93 0 0 2.04-1.28-.34-2.98 0 0-.43-.68-4.17.34 0 0-1.7-1.87-6.04.17-.56.26-.59.17-.59.17s2.21.25 3.23 1.53c0 0-.68.85 1.02 1.36 0 0 1.1-.5 2.13 2.04 0 0 1.53 5.44 3.82 2.21 0 0 2.21 7.14 4.93 2.55 0 0 .43 1.1 3.92.26 0 0 4.08-2.13-.43-3.32 1.1 1.62-.68 2.13-.68 2.13-3.83.25-5.7-2.47-5.7-2.47a27 27 0 0 0-7.73-5.7c4.59-.34 5.95.09 5.95.09-2.47.6-1.45 1.36-1.45 1.36a6.2 6.2 0 0 0 3.57 2.72c3.32-.85 3.83.51 3.83.51-2.47-.08-3.23 1.02-3.23 1.02 2.98 1.45 3.83.17 3.83.17m2.21-12.76-.33 1.08s3.45 2.66 8.33 4.7c0 0 3.23 1.99 3.51-1.98 0 0 .23-.57.91-.17 0 0 1.02 1.93 3.74 1.36 0 0 1.76-.06.8-4.2 0 0 4.19.06 3.34-4.2-4.88 5.14-12.33 5.6-12.33 5.6a11 11 0 0 0 1.84 2.06c-2.97-.8-4.45-2.46-4.45-2.46-2.52-.15-3.65-.71-3.65-.71 3.8-.06 6.46-1.14 6.46-1.14-.26.77-1.05 1.4-1.05 1.4 5.24-1.03 6.24-3.75 6.24-3.75a5 5 0 0 1-.74 3.03c3.17-1.27 2.92-1.78 2.92-1.78 1.22-3.71-.97-3.18-.97-3.18-1.84.26-2.2 1.14-2.2 1.14-1.06 1.64-2.05 1.7-2.05 1.7-.6-2.38-2.2-1.53-2.2-1.53a4.7 4.7 0 0 0-3.21 2.86c-1.16.62-2.41.23-2.41.23-1.08-.2-2.5-.06-2.5-.06" class="fil5"/><path fill="#8f5444" d="m169.9 198.07-.34 1.07s3.46 2.66 8.34 4.7c0 0 3.23 1.99 3.51-1.98 0 0 .23-.57.9-.17 0 0 1.03 1.93 3.75 1.36 0 0 1.76-.06.8-4.2 0 0 4.19.06 3.34-4.19-4.88 5.13-12.33 5.58-12.33 5.58a11 11 0 0 0 1.84 2.07c-2.97-.8-4.45-2.46-4.45-2.46-2.52-.14-3.65-.71-3.65-.71 3.8-.06 6.46-1.14 6.46-1.14-.26.77-1.05 1.4-1.05 1.4 5.24-1.03 6.23-3.75 6.23-3.75a5 5 0 0 1-.73 3.03c3.17-1.27 2.92-1.78 2.92-1.78 1.22-3.71-.97-3.18-.97-3.18-1.84.26-2.2 1.14-2.2 1.14-1.06 1.64-2.05 1.7-2.05 1.7-.6-2.38-2.2-1.53-2.2-1.53a4.7 4.7 0 0 0-3.21 2.86c-1.16.62-2.41.23-2.41.23-1.08-.2-2.5-.06-2.5-.06m-.15-.7c2.2-.43 3.4.25 3.4.25.76.1.9-.16 1.19-.34.5-.64.67-.91.77-1.06 1.65-2.47 3.44-2.13 3.44-2.13 1.36.17 1.4 1.36 1.4 1.36 2.64-1.44 2.6-2 2.6-2 3.1-2.16 3.74 1.03 3.74 1.03 1.95-3.45 4.12-1.07 4.12-1.07 2.13 3.83-2.68 5.87-2.68 5.87.34.38.26.72.26.72 3.06.77 2 3.45 2 3.45-.22 2.17-4.98 2.34-4.98 2.34-2.3 4.37-6.33-.13-6.33-.13-3.1 2.38-5.49-1.83-5.49-1.83.43 2.21-.76 1.53-.76 1.53-1.75 2.85-3.2-.17-3.2-.17-2.07-1.36.77-2.9.77-2.9-.46-1.35-1.31-1.52-1.31-1.52.89-1.79 1.06-3.4 1.06-3.4" class="fil4"/><path fill="#007cc3" d="M106 206.34h.02c.72-.35 2.29-.96 3.33-.32 0 0 0-.52 1.2-.6 0 0 4.21 10.1-.94 14.22 0 0-1.56 1.12-2.95 0 0 0-.27.17-.65.13z" class="fil11"/><path fill="url(#c)" d="M96.02 120.54q.22.19.59.4h3.49c0-.11-.04-.37-.26-.76-1.51.97-3.43.45-3.52.42h.02zm3.16-.44-.66.2q.33-.06.66-.2" class="fil10" transform="translate(-139.04 -175.7)scale(2.2428)"/><path fill="#007cc3" d="M70.73 87.99c-2.03 3.42-4.88 3.62-4.88 3.62a27 27 0 0 0-5.07-2.55q.17-.02.34-.07l.17-.05.03-.01h.02l.01-.01.02-.01h.02v-.01h.02l.02-.01.05-.03h.02l.02-.01a5.1 5.1 0 0 0 3.07-4.97v-.06l-.02-.06v-.02l-.03-.18v-.01q0-.16.06-.26c.07-.07.27-.12.63-.05h.04l.02.01h.03l.02.01h.01l.04.01h.05v.01h.03l.1.02.15.03c.92.21 3.16.91 4.55 3.04l.04.1s.18.5.55 1.27l.01.03-.05.09zm.2-.32v-.02z" class="fil11"/><path fill="#75c5f0" d="M77.28 85.68s-.25-3.8-5.95-5.4c0 0-.46-.26-1.02.22 0 0-2 1.23-4.43 2.03l-.44-.09q-.99-.21-1.46.3c-.43.48-.23 1.2-.2 1.28l-.02-.11a4.2 4.2 0 0 1-2.59 4.19q-.6.26-1 .05c-.48-.23-.73-.9-.8-1.14-.1-.4-.3-1.44.12-1.93q.34-.4 1.24-.25l-.05-.01c.24.06.89.34 1.05.78q.15.36-.19.87l.3.18-.2.23 1.1.1c.41-.49.8-1.16.95-2.06q-.86-.07-1.55-.2a3 3 0 0 0-1.23-.7l-.03-.01h-.02q-1.35-.22-2 .52c-.8.92-.34 2.52-.28 2.7 0 .02.3 1.2 1.21 1.66q.75.38 1.69-.02s3.2-1.17 3.11-4.99v-.05l-.02-.06c-.03-.12-.06-.38.03-.47.07-.08.3-.13.7-.04.2.03 3.24.46 4.97 3.11l.04.1s.26.73.82 1.8a7 7 0 0 0 .18.81v.03l.01.02c.06.2 1.6 5.12 5.72 5.67l-.06-.01c.21.06 4.51 1.23 7.9-.95l-.28-.46.17-.12h-.24l-.1-.12v-.01c-1.96 1.25-4.32 1.27-5.8 1.1 1.43.16 3.68.15 5.6-.98-1.34-.11-4.84-1.06-6.95-7.58z" class="fil3"/><path fill="#007cc3" d="M61 89.02c1.05.01 1.98-1.02 2.42-1.6a5 5 0 0 1-2.43 1.6m.91-2.18s-1.96 2.52 0 0l.07-.1-.43-.27q.33-.51.2-.87c-.17-.45-.82-.72-1.06-.78h.05q-.45-.06-.75 0-.32.14-.53.32c-.37.5-.18 1.5-.07 1.87.06.23.31.9.79 1.14q.4.21 1-.05c.07-.02.89-.33 1.59-1.15l-.5-.06-.01.03-.07-.04z" class="fil11"/><path d="m81.1 117.34.05-.03c.47.07.45.49.45.49-.25.64-1.15.17-1.15.17.35-.25.65-.63.65-.63" style="fill:url(#p)" transform="translate(-139.04 -175.7)scale(2.2428)"/><path d="M80.86 117.06v-.1c-.83-.25-.49.4-.49.4.5.16.49-.3.49-.3" style="fill:url(#j)" transform="translate(-139.04 -175.7)scale(2.2428)"/><path fill="#8f5444" d="M48.68 93.23c1.24-3 1.92-2.83 1.92-2.83 1.99-.28 2.44-.23 2.44-.23 5.1-.79 2.44-4.48 2.44-4.48 6.23-3.06 1.41-5.38 1.41-5.38 4.65-4.88-.96-5.1-.96-5.1.43-4.03-2.36-4.42-4.3-3.52a6 6 0 0 0-2.5 2.61c-3.74-1.42-3.06 4.6-3.06 4.6-4.54 1.98-.97 6.51-.97 6.51a4.9 4.9 0 0 0 .57 4.99 2 2 0 0 1-1.7-1.02c1.47-2.55-1.36-2.78-1.36-2.78-1.81-1.7-2.1 1.48-2.1 1.48-.9 2.2 2.38 2.15 2.38 2.15 1.53 2.15 3.12 2.04 3.12 2.04-.14 2.95 1.13 4.3 1.13 4.3.23 1.54-.45 2.79-.45 2.79-.4-5.9-3.51-3.58-3.51-3.58-.29-6-3.52-3.96-3.52-3.96.17-3.35-2.89-3.23-2.89-3.23-3 1.7-1.19 5.1-1.19 5.1-5.33-2.38-3.63 3.74-3.63 3.74a3.7 3.7 0 0 0 1.48 1.7c-2.61 4.42 3.9 4.14 3.9 4.14-.13 3.82 3.95 2.44 3.95 2.44 1.3-.46 2.32.59 2.32.59q.49.4 1.02.57l.06-.05.33.15c.82.16 1.54.01 1.54.01 1.94.1 2.2 1.95 2.23 2.36q1.18-.13 2.6-.77c.98-2.59 2.51-3.2 2.51-3.2 1.9-.32 3-.35 3-.35 3.35-.22 1.68-3.65 1.68-3.65 2.15-.28 3.3-1.12 3.93-2v-3.85h.68c-.3-3.64-3.37-2.09-3.37-2.09-.17-3.86-2.46-3.66-3.8-2.8-.66.42-.9 1.36-.9 1.36-3.74.45-2.75 4.1-2.75 4.1-4.65.63-2.72 4.68-2.72 4.68.7 1.45.45 2.19.45 2.19-1.53-1.82-1.1-3.8-1.1-3.8.42-2.67-.09-3.35-.09-3.35-.28-1.36 1.05-1.33 1.05-1.33 1.08 1.76 1.93.11 1.93.11 2.4-1.95-.14-2.8-.14-2.8-1.82-1.79-1.87 1.05-1.87 1.05-1.17-.12-1.2.4-1.2.4" class="fil4"/><path fill="#f8c300" d="M54.07 76.62s3.74 2.55-1.28 5.27c0 0-1.06.04-.42.93 0 0 3.44 2.8-2.8 5.32 0 0-2.6 1.14-1.41 5.23 0 0 1.32 4.42.64 9.6 0 0-.77-.3-.43-2.16 0 0 .3-2.6-.63-5.15 0 0-2.56-3.82-1.66-10.5 0 0-3.4-3.87.5-5.61 0 0-.63-2.21.05-3.7 0 0 .64-1.87 3.27-.6 0 0 .26 1.79-.38 4.34-1.36-1.53-1.36-3.4-1.36-3.4a5.8 5.8 0 0 0 0 5.31c.9 2.43-.13 2.94-.13 2.94-.64-1.32-1.7-2-1.7-2 1.28 3.23.98 7.4.98 7.4 2.34-9.27 4.46-9.82 4.46-9.82-1.06-.39-1.65.12-1.65.12 2-5.6 4.59-7.73 4.59-7.73 1.15 2.38-.64 4.2-.64 4.2" class="fil5"/><path fill="#f8c300" d="M46.53 105.7c2.38.43 3.09 3.46 3.09 3.46.96-.05 1.3-.37 1.3-.37.46-3.51 3.06-4.62 3.06-4.62 2.87-1.67 1.2-2.92 1.2-2.92 4.1-1.9 4.7-3.96 4.7-3.96.6-1.7-1.39-1.85-1.39-1.85C60.05 91.87 57.1 91 57.1 91c.88 4.26-2.52 7.6-2.52 7.6a42 42 0 0 0-3.57 6.63c1.1-4.25.62-6.4.62-6.4.94.65 1.08 1.5 1.08 1.5 2.38-3.94 1.27-6.52 1.27-6.52 1.62 1.02 1.48 2.5 1.48 2.5.82-3.24-1.9-3.3-1.9-3.3-1.59 1.2-.4 3.58-.4 3.58.62 1.25-.45.73-.45.73-1.9-1.38-2.35.26-2.35.26-.68 1.42.17 3.4.17 3.4.22 2.13-.32 2.8-.32 2.8-.76 1.34-.4 3.44-.4 3.44-1.58-3.52-2.69-3.92-2.69-3.92s-.87-1.04-1.04-3.7c0 0 .3-1.57-.77-3.15 0 0-.9-.94-2.32.45 0 0-.66.94-.63-.2 0 0 0-1.33-.34-2.44 0 0-1.78-3-3.14-1.7 0 0 .37 3.43 4 7.09 0 0 .1-1.59 1.33-2.58 0 0-.09 2.6 2.12 6.66 0 0-5.27-5.41-10.12-7.6 0 0 1-.68 2.44-.28-1.98-3.74-1.81-6.26-1.81-6.26-1.36 1.87-.34 4.7-.34 4.7-2.53 2.58 1.64 4.31 1.64 4.31 2.58 1.28 1.98 1.59 1.98 1.59-1.19 2.6 1.96 2.8 1.96 2.8 2.8.74 2.8 1.85 2.8 1.85.2 1.13 1.76.93 1.76.93z" class="fil5"/><path fill="#8f5444" d="M42.7 137.24a10 10 0 0 1 .2-3.01s.79-2.6-3.35-2.44c0 0 .68-1.47-.17-3.51 0 0-.74-2.21-3.06-.51 0 0 .4-1.93-2.38-3 0 0-3-.23-2.21 4.53 0 0-1.6-.51-2.04 1.36 0 0-1.65-2.72-4.03-1.48 0 0-3.51 3.52 2.33 6.98 0 0-2.22 4.08 4.53 4.25 0 0 .9 2.32 4.25 1.64 0 0 2.55-.96 4.25 1.36 0 0 .07.7.91 1.84.01-2.63.15-5.43.55-7.42v-.03l.01-.02z" class="fil4"/><path fill="#f8c300" d="M29.48 131.65s-.11-1.27 1.05-1.56c0 0 2.07-.79 4.16 3.43 0 0 1.76-2.26 3.46.49 0 0 .57 1.27.77 2.23 0 0 2.04 1 3.08 6.07q0 .37-.03.73c-.47-.93-1.63-2.31-4.3-1.8 0 0-4.28 1.41-4.93-1.82 0 0-6.38 1.02-3.63-3.86 0 0-4.82-2.6-3.06-5.47 2.47 4.48 7.34 6.7 7.34 6.7 5.27 2 7.09 3.4 7.09 3.4-.43-1.6-1.42-2.13-1.42-2.13-1.7-1-2.3-2.55-2.3-2.55a2.7 2.7 0 0 0 .12 1.93c-4.31-3-5-5.67-5-5.67-.27 2.32.52 3.8.52 3.8-3.06-2.27-2.92-3.92-2.92-3.92m5.5-1.41c.34-2.9-1.02-4.99-1.02-4.99-1.87 2.67 1.02 4.99 1.02 4.99m2.6-2.31.06.23c0 3.9 1.36 3.11 1.36 3.11.51-3.68-1.42-3.34-1.42-3.34" class="fil5"/><path fill="#007cc3" d="m52.63 154.2-.4-.55-.2.23-1.22-1.13.36-.38-.27-.43c-1.3 1.46-1.74 3.24-1.74 3.24a17 17 0 0 0-1.45 5.75q.38-.47.68-.8h.59c.34-.3.55-.39.55-.39 2.98-2.3 1.83-4 1.83-4 .24-.92.75-1.36 1.27-1.55m1.99 3.01-.38-.62c-.58.81-1.05 1.12-1.05 1.12.17-1.75-.3-1.79-.3-1.79a10 10 0 0 1-2.79 4.21h.12q2.55-1.51 4.4-2.92m1.68 2.91-.26-.47a3 3 0 0 1-.73-.2q-.03.37-.09.67zM46.92 165a9 9 0 0 0 2.13 1.99c4.62 2.97 5.98 6.35 6.3 8.7a32 32 0 0 0 3.74-6.82l-.03.14c0-.04.28-3.6-1.1-5.06l.33-.31-.02-.02c-1.1.28-2.48-.4-2.48-.4-.96 3.37-4.36 1.13-4.36 1.13-1.85-1.13-3-.5-3-.5q-.9.52-1.51 1.15m2.89-23.52a24.4 24.4 0 0 0-6.95 9.72c.03.8.07 1.29.07 1.3l-.14.02s3.44-.46 1.66 4.72c0 0-.34 1 .88 2.87l.16.24s.1-.07.21-.24c.2-.3.46-.9.38-2.02 0 0-.72-1.74.81-4.27 0 0 1.1-2.55-.8-5.14l.25-.77s.08-.3.8.47c.73.76.18.17.18.17s-.26-.85-.22-2.6c0 0 .64-1.1 1.96-2.38 0 0-.47 1.1-.17 2.72 0 0 .68.81.72 2.94 0 0 0 1.1.38.3 0 0 .39-.13.22-1.7 0 0-.3-1.07.08-2.43 0 0 .77.38.43-2 0 0-.55-.9-.83-1.88zm0 0 .06-.05zm3.61-35.66-.14-.05a6.5 6.5 0 0 0-1.9 2.81q.7-.33 1.43-.84l.83.24c-.4 3.78-.13 6.72.01 7.84q.33-.76.77-1.63c.01-.03 2.64-6.4-1.15-8.01zM45.13 107l-.02.02.42.2-.06.27c-.34.28-.76.82-.69 1.11.03.1.2.43 1.3.64.02 0 1.12.32 2.7.1-.03-.4-.3-2.25-2.23-2.35 0 0-.65.14-1.42.01" class="fil11"/><path fill="#75c5f0" d="M52.45 120.64v-.04l.05.01v.07zM50 141.88l.01.02zm-.19-.4.06-.05zm.13.22v.02zm-.03-.09.01.03zm-4.77-31.55q-1.16-.4-1.37-1.22c-.12-.48-.05-1.21.85-1.98l.03-.02.01-.01h.01v-.01h.01l.85.38-.06.27c-.34.28-.76.82-.69 1.12.03.1.19.42 1.3.64.01 0 1.13.31 2.74.1l.07-.01.07-.01h.06l.07-.02h.04l.1-.02.05-.01.08-.02.07-.01.07-.02.07-.01.06-.02.08-.02.06-.01.09-.02.06-.02.08-.02.06-.02.08-.02.07-.02.08-.03.06-.02.09-.03.06-.02.1-.03.04-.02.1-.04.06-.02.1-.04.05-.02.1-.05q.03 0 .05-.02l.1-.04.06-.03.11-.05q.71-.33 1.44-.85l.83.25a35 35 0 0 0 .01 7.84l-.4 1.02q-.62.6-1.26.88c-.7.26-1.1.18-1.1.18l.02.14c-.75.1-1.27-.03-1.27-.03-1.28-.25-.77-.85-.77-.85q-.2-.6-.42-1.19c.03-.4.11-.68.11-.68-.26-1.72-.97-2.42-1.7-2.65a23 23 0 0 0-1.72-2.57m8.26 11.44" class="fil3"/><path fill="#75c5f0" d="M60.01 128.38c-.25 3.74-1.44 4.34-1.44 4.34h-.1c-.84-1.27-2.1-1.01-2.86-.24-.85.85-.81 2.42-.81 2.42-4.72-2.98-2.9 4.25-2.9 4.25-2.34-.33-2.38 1.13-2 2.43l-.01-.07-.08-.04a24.4 24.4 0 0 0-6.96 9.73l-.03-.88.1 2.18-.13.01c.02-.13.29-2.52-.81-3.7-.1-3.3-.1-8.03.5-10.99v-.03l.02-.03c.07-.19 1.75-4.73 4.77-7.62l.03-.02.02-.02c.06-.04 5.73-4.08 5.3-8.48l.02.08c-.04-.1-.8-2.49 1.77-7.52.02-.04 2.65-6.4-1.14-8.02l.25-.58.14-.1c1.85.84 2.42 2.52 2.45 4.21l-.02-.51c1.47 2.6 1.97 2.79 1.97 2.79 2.8 3.32 1.19 7.65 1.19 7.65 1.19 4.08.76 8.76.76 8.76m-.56 42.32.22-.42s-1.36 5.21.46 11.9c0 0 1.24 1.25-1.48 5.1 0 0-.4.17-5.78 6.92 0 0-4.8 3.52-2.27 8.98q-.45.04-.78.12c-.63.14-.91.37-1.03.58-.15.26-.03.5-.03.5-.5 1.44.6 2.29.6 2.29q-2.01-.1-3.21 0c-1.4-2.59-2.98-5.8-3.55-7.9 0 0-.23-.69-.44-1.78-1.3-3.56-.18-7.27-.12-7.48l-.02.1c.48-4.04 7.85-8.89 8.17-9.1 5.72-3.12 8.86-11.55 8.9-11.63l-.03.13c0-.04.28-3.6-1.1-5.06l.76-.71c1.7 1.8 1.39 5.7 1.37 5.86v.07l-.03.06c-.03.09-.23.64-.6 1.47" class="fil3"/><g fill="#8f5444"><path d="M33.6 118.24s.96-2.27 4.2-.17c0 0-1.08-.9-.35-3.46 0 0-2.83-1.47-1.7-5.21 0 0 .68-2.95 4.25 1.36 0 0 2.33-2.21 4.7 2.15 0 0 3.24-1.75 3.86 2.38 0 0-.85 2.95 1.76 4.2 0 0 .15-.1 1.34.64a5.4 5.4 0 0 1-.77-2.23s.85.18 2.28-.82a11 11 0 0 0-.67 3.54l-.14-.03.14.1c.02.65.12.99.14 1.02l-.02-.09a5.7 5.7 0 0 1-.77 3.31s-2.72-1.76-4.99-.11c0 0-3 2.26-3.8.05 0 0-4.81 2.67-5.6-1.7 0 0-4.94-.62-3.86-4.93" class="fil4"/><path d="M50.93 126.52c-.9-.41-1.46.1-1.46.1-2.89-2.38-3.68.8-3.68.8-1.42 2.37 1.53 2.6 1.53 2.6l.06.03a18 18 0 0 0 3.55-3.53m-2.53 33.59c1.08-1.22 1.52-1.34 1.52-1.34 1.08-6.12 3.86-5.08 3.86-5.08.82-4.59 4-2.55 4-2.55 2.86-3.54 4.36-.6 4.36-.6l.36 1.9v6.99l-.61.68-.06.08c-1.4 1.61-2.21.7-2.21.7.08 1.37-.27 2.1-.79 2.47l-.11-.13-.4.37c-1.1.32-2.53-.38-2.53-.38-.96 3.37-4.36 1.13-4.36 1.13-1.85-1.13-3-.5-3-.5-4.09 2.37-3.39 6.83-3.39 6.83a9 9 0 0 1 1.13 3 7 7 0 0 1 1.91 1.23c1.02-.26.91-.96.91-.96-2.4-2.4.66-3 .66-3 2.55-2.18 2.62 1.26 2.62 1.26 1.46 2.13-1.87 2.25-1.87 2.25-.62 1.32-1.28 1.79-1.28 1.79.81 1.57.9 2.53.9 2.53.23.64.6 1.13.79 1.37l-.62.37c-.1.06-.91.6-1.99 1.42-.95-.8-1.22-.76-1.22-.76-1.24-.49-1.13.26-1.13.26-1.1 1.59-2.13 1.08-2.13 1.08-1.2-.09-1.08 1.4-1.08 1.4-1.53 3.57-3.74 1.58-3.74 1.58-1.23 1.71-2.88 2.46-3.87 2.25-1.1-.24-1.49-1.53-1.49-1.53-6.72 1.02-5.87-3.45-5.87-3.45.64-2.59 3.36-1.06 3.36-1.06-1.02-3.57 4.72-2.63 4.72-2.63.51-3.49 4.85-1.11 4.85-1.11 1.44.64.98.47.98.47 1.9.8 2.46.04 2.46.04 1.7-.72 2.34-.34 2.34-.34-.09-1.23-2.21-2.38-2.21-2.38-1.79-.77-2.85.17-2.85.17-4.63 2.64-5.57-.9-5.57-.9-7.01 1.58-5.1-2.88-5.1-2.88-3.91-.39-3.4-3.32-3.4-3.32.25-3.66 3.78-2.04 3.78-2.04-1.57-5.23 1.2-4.25 1.2-4.25a5.6 5.6 0 0 1 2.84 1.36c2.72-2.21 4.38 1.06 4.38 1.06 1.96-.34 3.15 1.57 3.15 1.57.46-1.19.3-1.7.3-1.7-2.56-4.08-5.87-3.36-5.87-3.36-2.4-.27-3.44-.89-3.88-1.36-.32-.33-.33-.6-.33-.6-.34-1.01.04-1.65.04-1.65-4.38-1.1-4.04-3.27-4.04-3.27-.08-2.13 1.2-1.92 1.2-1.92-3.7-4.5-.73-5.82-.73-5.82 1.95-.85 3.32 2.25 3.32 2.25.6-.6 1.21-.37 1.21-.37-.9-4.93 2.44-4.81 2.44-4.81 2.87.33 2.84 3.33 2.75 4.26-.28.2-.36.37-.36.37-.34.55-.43-.42-.43-.42.6-4.72-2.2-3.75-2.2-3.75l-.05.26c-.13 5.53 3.95 9.7 3.95 9.7 3.2 4.29 3.57 7.3 3.57 7.3-2.04-3.35-3.74-3.9-3.74-3.9.94-.35 1.53-.1 1.53-.1-2.34-3.6-6.2-4.75-6.2-4.75 1.48-.64 2.42-.22 2.42-.22-1.06-2.2-1.91-2.12-1.91-2.12-4.64 2.42 1.7 5.53 1.7 5.53-1.02 3.14 3.23 4.37 3.23 4.37 4.42 2.43 3.27 8.38 3.27 8.38l.55.68c1.34-5.36 1.44-7.94 1.17-9.18q.05-.03.19-.22c.2-.29.46-.9.38-2.01 0 0-.72-1.75.81-4.28 0 0 1.1-2.55-.8-5.14l.25-.77s.08-.3.8.47.18.17.18.17-.26-.85-.22-2.6c0 0 .64-1.1 1.96-2.37 0 0-.47 1.1-.17 2.72 0 0 .68.8.72 2.93 0 0 0 1.1.38.3 0 0 .39-.13.22-1.7 0 0-.3-1.07.08-2.43 0 0 .77.39.43-2 0 0-2.9-4.81 1.19-4.25 0 0-1.83-7.22 2.89-4.25 0 0-.04-1.57.8-2.42 1.05-1.06 3.05-1.15 3.62 2.42 0 0 1.21-.4 3.28.6v6.8c-1.16 1.4-2.81 1.45-2.81 1.45-.17 4.25-3.2 4.04-3.2 4.04-1.7 2.5-3.14 2.5-3.14 2.5-3.23 1.02-4.2 4.88-4.2 4.88a17 17 0 0 0-1.44 5.75q.38-.47.68-.8m-7.44-11.86c2.32.51 1.83 4.28 1.83 4.28s3.44-.47 1.66 4.71c0 0-.24.72.41 2.06-.27-.11-.52 0-.52 0-1.14-2.2-.42-3.4-.42-3.4 1.06-2.5-.85-2.97-.85-2.97-.55-.13-.77.42-.77.42-.3.64-.38-.5-.38-.5.05-2.68-.47-3.98-.96-4.6" class="fil4"/></g><g fill="#f8c300"><path d="M36.65 109.85c-2.18 1.22 1.36 4.42 1.36 4.42-1.36 2.22.17 3.66.17 3.66 1.96.85 3.57.51 3.57.51-.85 2.98 2.04 2.64 2.04 2.64 4.6-.6 7.82 1.19 7.82 1.19-1.27-3.49-3.74-4.42-3.74-4.42.09-5.53-3.31-4.26-3.31-4.26-.77.68-.68-.25-.68-.25-.68-3.4-2.72-2.72-2.72-2.72-1.45.6-.77 1.27-.77 1.27l1.62 2.81c-.09-1.36.42-2.3.42-2.3 1.53 4.26 5.53 7.32 5.53 7.32-8.5-4.85-11.31-9.87-11.31-9.87m-2.52 8.44c-.46 4.2 2.89 3.06 2.89 3.06-1.7-.85-2.9-3.06-2.9-3.06m4.08 4.31.12-.46c1.82.8 3.97 1.7 3.97 1.7-1.81 2.6-4.08-1.25-4.08-1.25m8.43 4.73-.06-.1c.08-1.06 1.02-1.09 1.02-1.09 1.46.47.55 2.56.55 2.56a9 9 0 0 0-1.51-1.37m-.62.57h-.21c-.45 1.89.96 1.04.96 1.04.27-1.15-.75-1.04-.75-1.04M30.95 165.1c2.13.59 2.51 1.1 2.51 1.1-1.1-2-2.25-2.64-2.25-2.64-.38.47-.26 1.53-.26 1.53m4.89-.29v-.21c.21-1.36.47-1.28.47-1.28 2.55 1.53 2.42 4.04 2.42 4.04-1.36-1.36-2.89-2.55-2.89-2.55" class="fil5"/><path d="M34.05 168.57s.52-3.4 3.36-.21c0 0 .68 1.06.94.76 0 0 .3-.55 1.19-.98 0 0 1.15-1.06 2.68 2.73 0 0 .64-.3 1.7 1.02 0 0 1.19.3 3.87 5.7 0 0-.43-.39-1.4-1.8 0 0-5.24-4.75-11.48-7.3 0 0 1.57.42 1.31 2.04 0 0-3.87-2.26-7.52-1.07 0 0 4.16.3 12.5 3.32 0 0-1.53-.21-2.8 1.78 0 0 4.24-1.53 7.26.81 0 0-2.42-.8-6.8.51 0 0-3.15 1.23-2.17-1.95 0 0 .9-1.66-1.06-.47 0 0-4.08 3.23-4.47-1.96 0 0-5.01 0-2.59-3.7 0 0 1.66-1.82 5.02 1.03.42.16.46-.26.46-.26m15.15 3.03c-.86 1.83 1.4 2.08 1.4 2.08 1.95-.64-.26-1.83-.26-1.83-.68-.72-1.15-.25-1.15-.25m.98-.6c.93.2 1.4.71 1.4.71.13-1.78-1.4-.72-1.4-.72m-15.05 11.44c-4.17.6-3.62-1.83-3.62-1.83-.2-2.38 4.21-1.27 4.21-1.27 1.7-2.64 3.62-1.45 3.62-1.45 2.76 1.4 4.84.9 4.84.9 3.36-.39 4.38 1.44 4.38 1.44-3.06-.6-3.65.9-3.65.9-.47.84-2.04.8-2.04.8-1.28 2.17-2.26 2.85-2.26 2.85-1.02.8-1.57-1.02-1.57-1.02-1.28 2.38-2.42 2.17-2.42 2.17-2.04.2-3.15-.68-3.15-.68-3.1.46-5.23-2-5.23-2 5.23 1.44 11.1-2 11.1-2 2.2-1.02 4.76-1.4 4.76-1.4-3.4.2-5.87-.51-5.87-.51a3.4 3.4 0 0 0 1.36 1.19c-3.53.93-6.8-.47-6.8-.47a6.3 6.3 0 0 0 2.34 2.38m11.42-22.32c.28-7.6 1.42-9.69 1.42-9.69.5-2.15-.12-4.82-.12-4.82 1.87 3.06 1.08 6.4 1.08 6.4 2.33-2.37 1.7-3.5 1.7-3.5.06-2.39 1.02-2.84 1.02-2.84 1.2-2.04-.23-2.95-.23-2.95-1.64-3.29 2.61-2.66 2.61-2.66 0-5.56 3.46-2.72 3.46-2.72 2.6-3.52 4.25-1.36 4.25-1.36-3.57 2.77-4.53 5.72-4.53 5.72a10 10 0 0 1-1.36-3.51c-.68 2.94-.34 3.51-.34 3.51.79 2.44-.63 3.06-.63 3.06-.5-1.87-1.3-1.87-1.3-1.87.28 2.61-1.13 5.05-1.13 5.05 2.26-2.5 4.02-2.33 4.02-2.33 2.1-.85 2.55-1.64 2.55-1.64a4.6 4.6 0 0 1-1.93 2.21c-2.04 1.59-5.5 3.91-5.5 3.91-1.7 1.7-1.47 2.67-1.47 2.67-.5 1.47-1.59 1.75-1.59 1.75-1.41 3.06-1.98 5.61-1.98 5.61" class="fil5"/><path d="M61.45 140.85s1.64-1.25 0 0m0 0c-1.65 1.25-4.42 2.27-4.42 2.27 2.55.17 4.59-.74 4.59-.74.63-.4.82-1.23.88-1.75v-.45zm-15.36 23.86c1.61-4.14 3.44-4.97 3.44-4.97 2.98-2.3 1.83-4 1.83-4 .6-2.3 2.85-1.57 2.85-1.57.76-3.87 3.65-2.42 3.65-2.42-.12 3.14-1.4 3.7-1.4 3.7.3-2.43-.64-2.43-.64-2.43-.93 3.57-2.63 4.68-2.63 4.68.17-1.75-.3-1.79-.3-1.79a9.7 9.7 0 0 1-3.1 4.47c7.86-4.51 10.71-8.93 10.71-8.93.47-1.2-.34-1.28-.34-1.28.8-.25 1.49.85 1.49.85.5 3.74-2.34 4.93-2.34 4.93 2.17 2.68-.47 3.49-.47 3.49-2.38.6-3.53 0-3.53 0-.34 3.87-2.89 2.3-2.89 2.3-3.74-.85-6.33 2.97-6.33 2.97" class="fil5"/></g><path fill="#87c3dd" d="m52.02 153.88-1.2-1.14.7-.77 1.21 1.15z" class="fil14"/><path fill="#f8c300" d="m36.01 144.4-.04.25c-.13 5.52 3.95 9.7 3.95 9.7 3.19 4.28 3.57 7.3 3.57 7.3-2.04-3.36-3.74-3.9-3.74-3.9.94-.35 1.53-.1 1.53-.1-2.34-3.6-6.2-4.76-6.2-4.76 1.48-.63 2.42-.2 2.42-.2-1.06-2.22-1.91-2.13-1.91-2.13-4.64 2.42 1.7 5.52 1.7 5.52-1.02 3.15 3.23 4.38 3.23 4.38 4.42 2.43 3.27 8.38 3.27 8.38l.55.68c2.9-11.63 0-10.2 0-10.2-1.14-2.22-.42-3.4-.42-3.4 1.06-2.51-.85-2.98-.85-2.98-.56-.13-.77.42-.77.42-.3.64-.38-.5-.38-.5.09-5.07-1.83-5.2-1.83-5.2-1.19.39-1.44.9-1.44.9-.34.55-.43-.43-.43-.43.6-4.72-2.2-3.74-2.2-3.74m-4.17 7.94c-2.56-3.36-2.21-4.84-2.21-4.84 2.55-.26 2.55 1.78 2.55 1.78-.6 1.53-.34 3.06-.34 3.06" class="fil5"/><path fill="#8f5444" d="M59.39 203.18s.35-.03 1.04.03c-.54-1.02-1.97-3.33-4.02-3.86 0 0-4.36-1.72-6.46-.37q.22-1.18.7-2.1c.41.02 3.08.09 4.57-.93 0 0 .33-1.8-.46-4.11l.35-.43c.35-.28.91-.79 1.56-1.58 0 0 .6 1.61.93 5.6 0 0 1.36-.08 2.13 1.2 0 0 .34-.94 0-1.53l.94-.17s.76 1.27.93 3.91c0 0 1.18 1.42 1.8 4.85 1.76.4 4.1 1.11 6.96 2.38 0 0-.77-1.96-2.98-3.32 0 0-4.93-1.78-2.8-4.42 0 0-5.62-4.68-1.28-6.63 0 0-1.78-3.4.68-5.27l.1-1.16.84 1a15 15 0 0 0 2.66 3.04l1.33 1.45 2.3 1.02q1.38.71 2.65 1.18h.01l2.44 2.73s.09 1.2-1.19 1.87c0 0-1.7.09-1.02 1.8 0 0 1.19 3.22-1.28 7.3 0 0 3.82 2.04 10.18 1.38-.65.73-1.08 1.57-.8 2.4l.12.42a78 78 0 0 1-11.31-1.48c-5.02-2.12-7.62-2.97-7.62-2.97-1.02 1.36-.09 2.38-.09 2.38 2.64.42 1.53 2.63 1.53 2.63-1.61 1.88-4.42 0-4.42 0-.94-1.19 1.02-2.72 1.02-2.72-.51-1.95.51-2.97.51-2.97s-3.83-.09-2.9 4.08c0 0 1.46 5.36-2.54 3.66l.34 1.95s.25 4.25-3.23 3.49c0 0-.09 1.95-3.83 2.97 0 0-3.14.51-1.95-5.35 0 0-1.62 0-2.13-1.7 0 0-1.7 1.19-4.68 0 0 0-5.27-3.83 2.55-4.94 0 0-.6-.25-.25-1.95 0 0-.77-1.62 6.04-1.28 0 0-1.1-.85-.6-2.3 0 0-.85-1.7 4.93-1.1 0 0 1.7-1.87 5.7-.08" class="fil4"/><path fill="#007cc3" d="M85.91 205.98c.38-.2.9-.58 1.44-1.24l.03-.03.03-.03s.26-.27.47-1.08q.08-.3.14-.72a3.7 3.7 0 0 0-2.64-.61l-.05.01-.05.03a13 13 0 0 1-4.23 1.65q.05.3-.1.71-.14.45-.55 1.06s.12 2.06-2.45 1c0 0-1.03.26-1.54 1.06 1.68.32 3.91.52 6.6.24l-.08.1a12 12 0 0 1 3.18-2.37l-.12.17zm-15.86 3.01-1.3-.54a9 9 0 0 1-2.7-.25h-.06a78 78 0 0 0-3.08-.38 2 2 0 0 0 .4.98c2.63.42 1.52 2.63 1.52 2.63-1.61 1.87-4.42 0-4.42 0-.93-1.19 1.02-2.72 1.02-2.72l-.07-.34h-.08.08a4 4 0 0 1-.07-.7 54 54 0 0 0-2.23-.12q-.1.3-.14.69-.06.66.13 1.58s1.45 5.35-2.55 3.65l.34 1.95.78.32s7.53 2.18 12.66 1.76c-1.03-3.7 5.22-3 5.22-3-.04-2.6 2.43-2.6 2.43-2.6 1.1-.13 2.25.47 2.25.47.9.72 2.11.18 2.73-.2a7 7 0 0 1-.59-1.3c-5.23-.2-11.3-1.48-11.3-1.48zm3.83-1.89q.47.17 1.13.36a3 3 0 0 1 1.82-1.87s-.07-.24-.12-.6q-.05-.3-.07-.69c-2 .63-3.23 2.3-3.3 2.39l.06-.06-.23.19z" class="fil11"/><path fill="#f8c300" d="M76.7 204.97v.03zm0 0v.04zm-.01-.09" class="fil5"/><g fill="#8f5444"><path d="m93.96 219.41-.07-.02.02-.03zm10.66.63a13.5 13.5 0 0 1-6 2.77c-3.3 1.15-4.71 4.38-4.71 4.38-2.08 3.4-3.44 2.85-3.44 2.85-4.64-1.57-8.46-1.49-8.46-1.49-2.94 0-2.81-.76-2.81-.76 4.72-1.75 6.76-3.74 6.76-3.74 2.34-1.7 3.95-1.54 3.95-1.54a9 9 0 0 0 1.84-.97c5.54.65 10.66-1.9 10.66-1.9s1.06.76 2.2.4" class="fil4"/><path d="M87.53 218.99c-.84.92-1.95.73-1.95.73.85 5.65-2.94 4.76-2.94 4.76-4.5 5.31-6.33 1.23-6.33 1.23-.34-1.15.47-1.95.47-1.95-2.47.04-3.02-1.28-3.02-1.28-6.93 1.28-6.46-2.6-6.46-2.6 0-2.2 3.06-2.12 3.06-2.12-1.4-4 5.14-3.27 5.14-3.27-.04-2.6 2.42-2.6 2.42-2.6 1.11-.12 2.26.47 2.26.47.9.73 2.11.19 2.73-.19.4.66.97 1.36 1.8 1.84 0 0 2.51 1.57 2.77 4.07q-.03.51.05.9M76.4 207.82a3 3 0 0 1 1.55-1.08c2.57 1.06 2.45-1 2.45-1 2.18-3.21-1.75-2.8-1.75-2.8-2.87-1.26-1.82 2.67-1.82 2.67a3 3 0 0 0-1.87 2.02c.91 0 1.44.19 1.44.19" class="fil4"/></g><path fill="#f8c300" d="M82.12 210a64 64 0 0 1-16.14-3.1c-4.85-2.8-4.72-4.23-4.72-4.23 6.04 4.08 14.12 5.59 14.12 5.59 2.5.44 5.16.48 7.14.42a2.3 2.3 0 0 0-.4 1.31m-4.77-5.76s.46 1.86 1.4 2.11c0 0 1.58.48.96-.75 0 0-1.1-.76-1.3-2.44 0 0-1.12-.46-1.06 1.08m6.95 15.03c.17 2.63-.76 4.08-.76 4.08-1.36 1.53-1.2-.17-1.2-.17a8 8 0 0 1 1.96-3.91m-6.37 5.42a9 9 0 0 1 3.06-1.87c-.85 3.58-3.32 3.32-3.32 3.32-1.36-.43.26-1.45.26-1.45m-9.7-5.28c.64-1.62 2.26-.99 2.26-.99-1.58.68-1.2 1.58-1.2 1.58 1.45 1.23 5.07-.13 5.07-.13 4.03-1.49 6.2-3.49 6.2-3.49a68 68 0 0 0 3.57-2.63c-3.95-.26-6.54.46-6.54.46 2 .47 2.38 1.4 2.38 1.4-.73.9-1.66 1.2-1.66 1.2-3.4-1.28-5.7-.3-5.7-.3 1.57 1.79 3.57 1.74 3.57 1.74-3.53.64-5.31-.55-5.31-.55-1.83-1.32 1.1-2.42 1.1-2.42 3.2-.94 4.3-.04 4.3-.04-.72-1.66 1.06-2.68 1.06-2.68 2.42-.26 3.57.5 3.57.5a2.9 2.9 0 0 0 2.47-.2c.35.44.8.86 1.35 1.17l.22.15c-.1.57.21 1.1.21 1.1.47 1.27-1.53 1.23-1.53 1.23.05 3.49-4.59 3.53-4.59 3.53-1.32 3.83-5.31 1.57-5.31 1.57-6.25 1.53-5.49-2.2-5.49-2.2m31.88 1.16a20 20 0 0 0 2.47-.8q.22.14.67.29a20 20 0 0 1-5.86 1.76c-3.14 1.28-4.03 3.32-4.03 3.32-1.5 3.4-2.21 3.9-2.21 3.9l-.13.1c.8-2.94-1.02-2.9-1.02-2.9-4.76.3-8.08 1.23-8.08 1.23 4.08-3.1 7.86-3.48 7.86-3.48a20 20 0 0 1 4.55-2.33c2.26-.1 4.31-.6 5.78-1.1" class="fil5"/><path d="m104.74 173.75.09.3.6-.19.11-.07q-.4 0-.8-.04" style="fill:url(#z)" transform="translate(-139.04 -175.7)scale(2.2428)"/><path fill="#007cc3" d="M91.61 208.31c1.47.31 2.95.21 3.57.14a4.6 4.6 0 0 1 .17-3.37c1.17-2.1.66-3.93.66-3.93-1.09-1.3-2.75-.43-2.82-.4-.7.33-1.63.34-2.25.3 1.23 3.33 1.2 5.65.67 7.26m6.36 5.76c-2.94.03-6.08-.73-8.06-1.32l-.12-.16-.05-.05-.04-.05-.05-.05v-.01l-.04-.04-.02-.01-.03-.04-.03-.03-.02-.02-.03-.02-.03-.03-.02-.03-.03-.02-.03-.03-.03-.03-.03-.03-.03-.02-.03-.03-.03-.02-.04-.03-.02-.01-.05-.04v-.01l-.07-.05-.27-.18-.08-.05-.08-.04c.6-.26 1.61-.84 2.37-2-.44.99-1.24 1.43-1.24 1.43 3.9 1.17 9.8 1.69 9.8 1.69-2.17-.52-4-3.08-4-3.08-2.14-.12-4.22-.17-4.47-.17q.31-.51.54-1.18c1.47.3 2.95.2 3.58.14v.03l.03.09.01.02.03.1.01.03.04.09v.03l.05.1v.02l.05.1v.02l.05.1.01.03.06.1v.02l.06.12v.01l.07.12.07.13v.01l.07.12v.01l.09.13.08.13.1.14.09.13c.19.29.82.83 1.69 1.37l.04.08.26.1q.76.46 1.69.82-.02.45 0 .91c-.43.08-1.1.2-1.87.4zm-8.52-1.83-.02-.03zm5.77-3.67v.03z" class="fil11"/><path fill="#75c5f0" d="M101.68 205.44c-2.3-4.1-3.44-4.8-3.44-4.8-1.21-.94-3.47-1.38-3.47-1.38l.15.17h.01a4 4 0 0 0-2.2.4c-.66.3-1.88.2-2.32.13-1.48-.19-2.16 1.33-2.3 2.16l-.01.02v.03c-.15 1.94-.7 2.52-.7 2.5l-.03.04-.03.03a4 4 0 0 1-1.96 1.47l-.09.02-.07.05a2.7 2.7 0 0 0-1.13 3.57 5.5 5.5 0 0 0 3.22 2.41c1.58.29 2.18 1.78 2.2 1.8.98 3.5 2.5 4.39 2.68 4.48l-.11-.08c2.6 2.41 4.04 1.9 4.2 1.83l-.23.04a9 9 0 0 0 2.93-.35h.04l.06-.03a6 6 0 0 0 1.16-.47l1.12-.36a1 1 0 0 0 .23-.26 5 5 0 0 1-.52-.7 8 8 0 0 1-1.18-3.65c-1.52.28-5.67 1.2-7.06 3.23 2 1.83 3 1.6 3.06 1.58-.05.02-1.08.26-3.1-1.62l-.06-.05-.05-.03c-.01 0-1.31-.78-2.19-3.89a4.4 4.4 0 0 0-1.88-2.1c1.4-.61 5.15-3 2.34-10.57.62.04 1.55.02 2.25-.3.07-.03 1.73-.9 2.82.4 0 0 .5 1.82-.67 3.93-.05.1-1.25 2.4.81 5.3.32.48 1.85 1.65 3.68 2.37v-.05l.03-.55v-.03l.02-.25v-.01l-.02-.01h.02c.3-3.41 1.56-6.44 1.56-6.44z" class="fil3"/><path fill="#007cc3" d="m89.55 214.23-.05-.16c-.01-.02-.61-1.51-2.2-1.8a5.5 5.5 0 0 1-3.21-2.41 2.7 2.7 0 0 1 1.13-3.57l.07-.05.08-.02s.25-.06.61-.28l.12-.17s-4.69 2.35-3.9 4.69c0 0 .52 2.42 2.51 3.55 0 0 2.5 1.58 2.77 4.08-.2 3.03 2.78 3.2 2.78 3.2 6.07 1.4 12.14-1.64 12.14-1.64q-.45-.36-.81-.78a1 1 0 0 1-.23.26l-1.13.36c-.06.04-1.63.94-4.18.85l.22-.04c-.15.06-1.6.58-4.2-1.83l.11.08c-.17-.1-1.65-.96-2.63-4.32" class="fil11"/><path d="M103.01 175.33c.65-1.13 2.8-1.6 3.5-1.72q0 .19.03.38c-.7.12-2.65.56-3.2 1.53z" style="fill:url(#u)" transform="translate(-139.04 -175.7)scale(2.2428)"/><path fill="#8f5444" d="M91.05 209.5a3.3 3.3 0 0 1-1.3 1.56c3.9 1.17 9.8 1.7 9.8 1.7-2.17-.53-4-3.09-4-3.09-2.29-.13-4.5-.17-4.5-.17" class="fil4"/><path fill="#f8c300" d="m90.91 209.8-.65.73c2.6.65 7.68 1.43 7.68 1.43-1.17-.82-1.91-1.69-1.91-1.69a41 41 0 0 1-5.12-.48M65.3 187.5l-.42.34c-2.55 2.38-.42 4.68-.42 4.68-3.66 1.7.93 5.78.93 5.78-1.44 3.57 3.49 4.76 3.49 4.76 2.04.85 3.49 4.25 3.49 4.25-1.28-5.36 0-5.19 0-5.19 1.53-4.16-1.36-4.33-1.36-4.33 2.12-2.55 1.44-4 1.44-4a12 12 0 0 1-5.02-3.57c-1.1 3.91.17 5.95.17 5.95 1.1-2.46 2.3-2.63 2.3-2.63a81 81 0 0 1-1.1 4.59c1.35-1.45 1.95-1.53 1.95-1.53-.26 1.87-1.02 2.38-1.02 2.38 1.02 2.38.76 4.5.76 4.5-1.61-2.46-4-3.48-4-3.48a4 4 0 0 1 2.47.34c-3.74-3.57-5.27-5.87-5.27-5.87a16 16 0 0 0 3.49 1.96c-1.96-4.17-1.79-7.66-1.79-7.66zm-16.23 32.56c2.04-.68 3.74-4 3.74-4a8.6 8.6 0 0 1-1.2 4.43c-1.35 1.44-2.54-.43-2.54-.43" class="fil5"/><path fill="#8f5444" d="M41.56 194.12c-.66-.42-1-1.14-1-1.14.55-2.72-1.45-2.21-1.45-2.21-3.57-1.53-2.42 2.25-2.42 2.25-.68 3.06 2.97 1.27 2.97 1.27a3 3 0 0 0 2.13 1.42q-.18-.81-.23-1.6" class="fil4"/><path fill="#f8c300" d="M37.25 193.08c-.6 1.09 1.21 1.17 1.21 1.17 2.7-1.46.6-3.08.6-3.08-.11.94-1.81 1.91-1.81 1.91m-.32-.6c-.21-1.1.34-1.43.34-1.43 1.04-.61 1.15.07 1.15.07-.09 1.2-1.49 1.36-1.49 1.36m13.17 5.78c5.93-1.66 11.38 4.7 11.38 4.7-2.59-6.01-9.52-5.93-10.95-5.84a7 7 0 0 0-.43 1.14m13.45 11.04s-1.92.02-2.39.87c0 0-.82 1.42.51 1.1 0 0 1-.89 2.68-.7 0 0 .7-.97-.8-1.27m-1.45 2.56s1.27.91 1.95-.51c0 0-1.1-.15-1.95.5m-7.34 1.58c2.22 3.23.17 4.67.17 4.67-.76-2.2-.17-4.67-.17-4.67M44.3 210.8s-.59-1.02-.33-2.38c0 0-.43-2.46 4.16-.85 0 0 1.79 1.28 2.04-.93 0 0-2.04-1.28.34-2.98 0 0 .43-.68 4.17.34 0 0 1.7-1.87 6.04.17.56.26.6.17.6.17s-2.22.25-3.24 1.53c0 0 .68.85-1.02 1.36 0 0-1.1-.5-2.12 2.04 0 0-1.54 5.44-3.83 2.21 0 0-2.21 7.14-4.93 2.55 0 0-.43 1.1-3.91.26 0 0-4.09-2.13.42-3.32-1.1 1.62.68 2.13.68 2.13 3.83.25 5.7-2.47 5.7-2.47 3.57-3.82 7.74-5.7 7.74-5.7-4.6-.34-5.96.09-5.96.09 2.47.6 1.45 1.36 1.45 1.36a6.2 6.2 0 0 1-3.57 2.72c-3.32-.85-3.83.51-3.83.51 2.47-.08 3.23 1.02 3.23 1.02-2.97 1.45-3.82.17-3.82.17m-2.21-12.76.34 1.08s-3.46 2.66-8.33 4.7c0 0-3.23 1.99-3.52-1.98 0 0-.22-.57-.9-.17 0 0-1.02 1.93-3.74 1.36 0 0-1.76-.06-.8-4.2 0 0-4.2.06-3.34-4.2 4.87 5.14 12.33 5.6 12.33 5.6-1.36 1.75-1.84 2.06-1.84 2.06 2.97-.8 4.45-2.46 4.45-2.46 2.52-.15 3.65-.71 3.65-.71a20 20 0 0 1-6.46-1.14 3.6 3.6 0 0 0 1.05 1.4c-5.25-1.03-6.24-3.75-6.24-3.75a5 5 0 0 0 .74 3.03c-3.18-1.27-2.92-1.78-2.92-1.78-1.22-3.71.96-3.18.96-3.18 1.85.26 2.21 1.14 2.21 1.14 1.05 1.64 2.05 1.7 2.05 1.7.59-2.38 2.2-1.53 2.2-1.53a4.7 4.7 0 0 1 3.2 2.86c1.17.62 2.42.23 2.42.23 1.07-.2 2.5-.06 2.5-.06" class="fil5"/><path fill="#8f5444" d="m42.1 198.07.34 1.07s-3.46 2.66-8.33 4.7c0 0-3.23 1.99-3.52-1.98 0 0-.22-.57-.9-.17 0 0-1.02 1.93-3.74 1.36 0 0-1.76-.06-.8-4.2 0 0-4.2.06-3.34-4.19 4.87 5.13 12.33 5.58 12.33 5.58-1.36 1.76-1.85 2.07-1.85 2.07 2.98-.8 4.45-2.46 4.45-2.46 2.53-.14 3.66-.71 3.66-.71a20 20 0 0 1-6.46-1.14 3.6 3.6 0 0 0 1.05 1.4c-5.25-1.03-6.24-3.75-6.24-3.75a5 5 0 0 0 .74 3.03c-3.18-1.27-2.92-1.78-2.92-1.78-1.22-3.71.96-3.18.96-3.18 1.84.26 2.21 1.14 2.21 1.14 1.05 1.64 2.04 1.7 2.04 1.7.6-2.38 2.21-1.53 2.21-1.53a4.7 4.7 0 0 1 3.2 2.86c1.17.62 2.42.23 2.42.23 1.07-.2 2.5-.06 2.5-.06m.16-.7c-2.21-.43-3.4.25-3.4.25-.76.1-.9-.16-1.19-.34-.5-.64-.67-.91-.77-1.06-1.66-2.47-3.44-2.13-3.44-2.13-1.36.17-1.4 1.36-1.4 1.36-2.64-1.44-2.6-2-2.6-2-3.1-2.16-3.74 1.03-3.74 1.03-1.96-3.45-4.12-1.07-4.12-1.07-2.13 3.83 2.67 5.87 2.67 5.87-.34.38-.25.72-.25.72-3.06.77-2 3.45-2 3.45.21 2.17 4.97 2.34 4.97 2.34 2.3 4.37 6.34-.13 6.34-.13 3.1 2.38 5.48-1.83 5.48-1.83-.42 2.21.77 1.53.77 1.53 1.74 2.85 3.19-.17 3.19-.17 2.08-1.36-.77-2.9-.77-2.9.47-1.35 1.32-1.52 1.32-1.52-.9-1.79-1.06-3.4-1.06-3.4" class="fil4"/><path fill="#007cc3" d="M106 206.34c-.73-.35-2.3-.96-3.33-.32 0 0 0-.52-1.21-.6 0 0-4.2 10.1.95 14.22 0 0 1.56 1.12 2.95 0 0 0 .27.17.64.13z" class="fil11"/><path fill="#8f5444" d="M106 53.85a2.77 2.77 0 0 1 2.81 2.74c0 1.5-1.25 2.73-2.8 2.73s-2.8-1.22-2.8-2.73a2.77 2.77 0 0 1 2.8-2.74" class="fil4"/><path fill="#f8c300" d="M106 55.3c.73 0 1.3.58 1.3 1.28s-.57 1.26-1.3 1.26-1.29-.56-1.29-1.26.58-1.27 1.3-1.27M78.93 76.75a20 20 0 0 1-3.6-2.1q.36.81.81 1.46c.96 1.4 2.06 2.16 2.06 2.16q1.1.35 1.91.42-.5-.78-1.18-1.94m-3.83-2.27q-.85-.64-1.65-1.42c.66 4.68 2.64 5.2 2.64 5.2" class="fil5"/><path fill="#605d5c" d="M88.4 120.57c.28-.4.73-.64.08-.8-.63.3-.58 1.06-.88 1.76-.89 2.1 3.64.7 2.48-.8-.35-.45-1.09-.35-1.68-.16m-.43 1.45c.1-.18.24-.78.44-.9 1.02.6.38 1.1-.44.9m-2.24-10.06c.78 1.27 1.73 3.2 2.22 4.72.14-.14.26-.4.34-1.22.03-.26-.19-.7-.28-.97-.03-.1-.17-.32-.21-.41-.3-.58-.4-.97-.76-1.43-.3-.38-.77-.82-1.02-1.3z" class="fil7"/><path fill="#f8c300" d="m104.17 71.03.5-.04c-.09-.33-.16-.29-.16-.29a4 4 0 0 1 3.2-.08c.42-3.38.52-5.54.54-9.03a5.7 5.7 0 0 1-4.4.04c.17 3.94.32 9.4.32 9.4" class="fil5"/><g fill="#8f5444"><path d="M106.9 64.08c.19.28.18.66-.04.97q-.16.22-.4.33a1 1 0 0 0-.76.03l-.13-.07a.8.8 0 0 1-.34-.94.9.9 0 0 1 .05-.97 1 1 0 0 1 1.29-.3c.32.2.44.6.34.95m.06 2.35c.29.3.32.77.05 1.15-.31.43-.92.57-1.35.3a.85.85 0 0 1-.36-.97q.07.08.17.13c.43.27 1.03.13 1.35-.3a1 1 0 0 0 .14-.3" class="fil4"/><path d="M106.61 65.47c.44.27.53.84.22 1.27s-.92.58-1.35.31-.53-.84-.22-1.27.92-.58 1.35-.31m.43 3.77c.18.3.17.7-.07 1.04l-.1.1a4 4 0 0 0-1.52.05.9.9 0 0 1-.18-.83 1 1 0 0 1 .07-1.04c.33-.46.96-.6 1.41-.32.35.21.49.61.39 1" class="fil4"/></g><path fill="#f8c300" d="M150.01 175.84V94.39H62.13v83.97c.83 14.17 16.43 15.85 16.43 15.85 14.6.34 21.08 0 21.08 0 5.92 0 6.42 6.26 6.45 6.72v.03-.02.02-.03c.04-.45.54-6.71 6.46-6.71 0 0 6.47.33 21.08 0 0 0 15.6-1.7 16.43-15.85l-.03-2.3zm-1.55.14v-80H63.68v82.35c.8 13.19 15.85 14.76 15.85 14.76 14.1.31 20.34 0 20.34 0 5.7 0 6.2 5.82 6.23 6.25v.03-.02.01-.02c.03-.43.52-6.25 6.23-6.25 0 0 6.24.31 20.33 0 0 0 15.05-1.57 15.85-14.76l-.03-2.14z" class="fil5"/></svg>