<svg xmlns="http://www.w3.org/2000/svg" viewBox="0 0 1536 1024"><g fill="none" stroke-width="2"><path stroke="#275263" d="M1536 410.52q-25.03-6.36-49.5-17.98-30.64-14.56-60.77-31.76-21.22-12.11-51.16-29.31-28.81-16.56-61.96-33.96c-5.07-2.66-11.03-4.94-15.72-7.58q-5.16-2.9-11.79-5.62-17.74-7.28-33.16-12.96-1.41-.52-5.5-1.58" vector-effect="non-scaling-stroke"/><path stroke="#337578" d="M1246.44 269.77c-39.32-13.62-82.41-17.27-123.43-9.74q-25.31 4.64-49.55 13.31-11.06 3.95-21.97 7.78" vector-effect="non-scaling-stroke"/><path stroke="#275263" d="M1051.49 281.12q-6.63-4.93-9.22-5.9-4.72-1.76-7.78-3.47-48.17-26.87-99.8-54.92-6.22-3.38-6.5-3.52c-5.96-2.82-11.45-6.47-16.21-8.59-6.16-2.75-11.58-6.42-17.88-9.21q-4.18-1.86-8.48-3.69" vector-effect="non-scaling-stroke"/><path stroke="#337578" d="M885.62 191.82q-.13-.02-.36-.28a1.06 1.03-5.5 0 0-.34-.27q-24.52-12.21-48.43-17.28-68.7-14.56-137.06 4.46-27.22 7.58-54.12 21.08-13.71 6.88-31.41 18.57c-22.57 14.91-42.61 30.09-60.49 44.3q-1.08.86-14.88 11.18-11.55 8.64-24.63 16.1c-17.09 9.74-36.28 11.88-55.37 7.97q-8.09-1.66-34.81-8.07c-30.23-7.24-61.18-11.88-91.58-10.1a245 245 0 0 0-65.85 12.97q-11.37 3.9-15.47 5.61-26.89 11.18-51.05 24.22-49.02 26.46-88.02 48.72-7.86 4.48-85.22 47.52-13.29 7.4-26.53 14.57" vector-effect="non-scaling-stroke"/><path stroke="#247631" d="M885.62 191.82q7.28 8.19 13.27 17.25 2.49 3.76 4.22 8.85c3.58 10.58 5.28 20.59 4.33 31.62-1.81 20.97-9.13 41.39-19.27 59.98-1.8 3.31-3.91 6.07-5.41 9.28q-1.21 2.57-4.17 6.88-5.17 7.52-8.68 12.74c-5.87 8.71-16.27 18.14-23.87 26.87-4.72 5.43-11.07 10.65-16.72 14.72a6.67 6.24-83.8 0 0-.86.74q-5.99 6.11-8.59 7.64-7.55 4.44-13.73 9.75-1.49 1.28-7.79 4.41a16.41 15.2-22.5 0 0-2 1.17c-5.96 4.09-8.5 6.06-13.92 8.71q-4.66 2.28-12.77 6.92a.16.15 33.8 0 0 .06.29q.31.04.74-.07c7.1-1.86 16.19-6.37 22.94-8.53q4.67-1.49 21.55-9.53 24.09-11.48 36.18-18.07 9.78-5.33 15.15-7.83 7.89-3.68 15.06-8c7.35-4.42 15.44-8.25 22.55-12.21q46.34-25.84 93.23-49.63 5.87-2.98 12.59-6.09c7.13-3.3 13.55-6.67 20.81-9.4q2.46-.92 8.12-3.47 6.33-2.86 12.85-5.69m194.95-11.35q4.03 2.67 7.88 5.47c5.55 4.03 12.05 7.79 16.66 11.92 7.91 7.08 14.01 11.59 20.45 18.09q14.42 14.53 23.97 26.42l11.11 13.83q4.26 5.15 8.38 11.08 1.54 2.23 8.21 11.31 18.91 25.77 26.9 36.97c4.44 6.22 9.88 12.88 15.48 20.16q9 11.7 28.7 32.95c4.49 4.84 8.71 8.06 13.7 13.27q5.2 5.44 11.91 10.11a34 34 0 0 1 5.66 5q.49.53 4.57 3.27 3.15 2.12 5.25 5.13" vector-effect="non-scaling-stroke"/><path stroke="#98cca3" d="m1455.27 494.75-568.06.05" vector-effect="non-scaling-stroke"/><path stroke="#247631" d="m887.21 494.8-.32-.74a1.1 1.1 0 0 0-.66-.63q-3.95-1.43-7.7-4.45a7.56 7.51 77.2 0 0-1.42-.9c-4.93-2.41-9.1-3.89-13.45-6.54a316 316 0 0 0-22.63-12.52c-10.42-5.1-21.38-11.7-32.65-17.2-5.55-2.7-11.32-6.43-16.61-9.02q-7.96-3.9-10.04-5.02-10.04-5.41-44.46-23.28-59-30.61-105.66-52.51-9.84-4.61-13.81-6.54c-16.72-8.13-33.21-15.14-53.34-24.11q-6.61-2.94-13.8-5.6c-11.11-4.11-20.45-8.32-31.1-11.06q-11.68-3-19.24-5.02-4.6-1.22-10.11-1.88a.38.38 0 0 0-.19.72q14.61 6.21 24.08 10.87c5.44 2.67 9.41 5.45 14.55 7.99q3.88 1.91 10.59 6.18 13.31 8.45 23.69 15.8c4.26 3 7.48 5.9 10.89 8.41q3.02 2.21 7.86 6.26 33.61 28.11 62.43 59.69c4.14 4.54 7.98 9.68 12.11 13.82q2.38 2.39 7.51 9.27 3.09 4.15 7.48 9.25c3.86 4.48 8.81 13.82 13.44 19.59q1.57 1.96 3.59 6.06 1.39 2.81 4.35 7.45a1.49 1.1-81.4 0 1 .09.17l1.54 3.52a1.21 1.19-46 0 1 .01.93l-.44 1.02" vector-effect="non-scaling-stroke"/><path stroke="#98cca3" d="M693.79 494.78 0 494.8" vector-effect="non-scaling-stroke"/><path stroke="#8ca98e" d="M1536 494.75h-80.73m-568.06.05-193.42-.02" vector-effect="non-scaling-stroke"/><path stroke="#9ba8d5" d="M1536 646.75q-7 11.95-15.87 20.38-10.11 9.62-23.14 15.87c-27.35 13.11-58.68 16.23-88.97 13.16-31.79-3.22-68.69-15.47-86.48-44.62a.45.44-43.9 0 0-.75-.01q-12.39 18.85-32.61 29.4-15.99 8.35-33.22 12.03-37.43 8.01-75.18 1.67c-19.18-3.22-37.4-9.86-53.09-21.16-7.57-5.45-14.77-13.76-19.1-21.2a.38.37-44 0 0-.64-.01c-3.16 5.02-6.92 10.26-11.33 14.32q-9.31 8.56-18.08 13.46-14.99 8.36-32.25 12.53c-23.78 5.74-48.85 6.46-72.79 3.36-16.88-2.19-34.96-7.5-50.23-15.71-12.35-6.65-23.12-16.1-30.13-28.08a.44.44 0 0 0-.75-.02q-7.96 12.05-19.92 20.33-8.66 5.99-14.88 8.89-25.42 11.84-54.54 14.97c-33.91 3.65-67.92 1.8-100.06-8.76q-20.57-6.76-37.13-20.21c-5.61-4.55-9.84-10.22-13.66-15.95a.32.31 44.7 0 0-.53 0c-15.52 23.46-40.43 36.08-67.48 41.62q-36.49 7.48-73.1 1.8-22.98-3.57-43.81-14.36c-6.25-3.24-13.51-8.82-17.56-12.68q-6.95-6.62-12.68-15.94a.47.47 45.6 0 0-.79-.01q-7.76 12.32-19.28 20.43-14.89 10.49-31.72 15.78-22.8 7.17-46.25 8.48c-33.47 1.88-67.99-2.1-98.04-18.71q-1.67-.92-12.54-9.11c-6.11-4.61-12.24-12.87-16.18-19.57a.4.4 0 0 0-.67-.01c-12.66 20.33-34.12 33.87-56.89 40.67q-37.07 11.08-76.18 3.86c-30.8-5.68-62.18-22.3-76.69-51.41a.38.38 0 0 0-.69.02l-.12.26m1536 380.9q-.27.23-.39.59" vector-effect="non-scaling-stroke"/><path stroke="#9a9c72" d="M780.23 732.3a126.24 126.12-84.3 0 0-138.04 113.1 126.24 126.12-84.3 0 0 112.96 138.14 126.24 126.12-84.3 0 0 138.04-113.1A126.24 126.12-84.3 0 0 780.23 732.3" vector-effect="non-scaling-stroke"/><path stroke="#9a9c72" d="m779.58 757.21.2 64.76a.84.83-78.2 0 0 .5.76l5.1 2.19a1.76 1.75-52.4 0 0 1.77-.24l50.92-39.76a.62.61-40.3 0 0 .07-.91q-2.13-2.34-5.96-5.4-22.96-18.34-51.81-22.1a.7.7 0 0 0-.79.7m-23.89-.04a.7.69 86 0 0-.79-.69q-28.71 3.83-51.51 22.16-3.8 3.06-5.92 5.4a.62.61 40.1 0 0 .08.9l50.81 39.43a1.76 1.74 52.2 0 0 1.77.23l5.07-2.2a.8.8 0 0 0 .49-.76v-64.47m-90.15 102.75a.3.3 85.5 0 0 .32.28l65.53-8.77a.9.9 0 0 0 .73-.67l1.49-6.66a.98.97-64.8 0 0-.35-.99l-50.76-39.39a.94.94 0 0 0-1.35.21c-10.87 16.08-15.88 36.85-15.61 55.99m137.3-12.63.69 3.02a.7.7 0 0 0 .64.57l64.7 7.1a.59.58 3.1 0 0 .65-.58q.06-14.39-3.8-27.99-3.87-13.6-11.5-25.81a.59.58-34.9 0 0-.85-.15l-51.29 40.08a.7.7 0 0 0-.24.82l1 2.94m-15.97 9.58a19.14 19.14 0 0 0-19.14-19.14 19.14 19.14 0 0 0-19.14 19.14 19.14 19.14 0 0 0 19.14 19.14 19.14 19.14 0 0 0 19.14-19.14m-104.66 56.6q8.28 12.86 20.85 23.36a.6.6 0 0 0 .86-.13l35.76-56.83a.9.9 0 0 0-.02-.99l-1.1-1.67-1.06-1.69a.9.9 0 0 0-.9-.43l-66.54 8.99a.6.6 0 0 0-.47.73q4.34 15.8 12.62 28.66m114.88-35.86-1.5 2.33a.88.87-44.3 0 0-.02.94l34.23 57.13a.7.7 0 0 0 1.02.19q13.26-10.58 22.33-24.77t13.09-30.65a.7.7 0 0 0-.59-.85l-66.23-7.08a.88.87-70.5 0 0-.84.41l-1.49 2.35m-30.42 82.77q22.05.24 42.45-8.86a.7.7 0 0 0 .32-1.01l-34.61-57.75a1.08 1.07 70.3 0 0-1.08-.52q-3.19.45-6.34.41-3.14-.03-6.32-.55a1.08 1.07-69.1 0 0-1.09.5l-35.87 56.97a.7.7 0 0 0 .29 1.02q20.2 9.55 42.25 9.79" vector-effect="non-scaling-stroke"/></g><path fill="#3650aa" d="M1536 0v410.52q-25.03-6.36-49.5-17.98-30.64-14.56-60.77-31.76-21.22-12.11-51.16-29.31-28.81-16.56-61.96-33.96c-5.07-2.66-11.03-4.94-15.72-7.58q-5.16-2.9-11.79-5.62-17.74-7.28-33.16-12.96-1.41-.52-5.5-1.58c-39.32-13.62-82.41-17.27-123.43-9.74q-25.31 4.64-49.55 13.31-11.06 3.95-21.97 7.78-6.63-4.93-9.22-5.9-4.72-1.76-7.78-3.47-48.17-26.87-99.8-54.92-6.22-3.38-6.5-3.52c-5.96-2.82-11.45-6.47-16.21-8.59-6.16-2.75-11.58-6.42-17.88-9.21q-4.18-1.86-8.48-3.69-.13-.02-.36-.28a1.06 1.03-5.5 0 0-.34-.27q-24.52-12.21-48.43-17.28-68.7-14.56-137.06 4.46-27.22 7.58-54.12 21.08-13.71 6.88-31.41 18.57c-22.57 14.91-42.61 30.09-60.49 44.3q-1.08.86-14.88 11.18-11.55 8.64-24.63 16.1c-17.09 9.74-36.28 11.88-55.37 7.97q-8.09-1.66-34.81-8.07c-30.23-7.24-61.18-11.88-91.58-10.1a245 245 0 0 0-65.85 12.97q-11.37 3.9-15.47 5.61-26.89 11.18-51.05 24.22-49.02 26.46-88.02 48.72-7.86 4.48-85.22 47.52-13.29 7.4-26.53 14.57V0z"/><path fill="#309946" d="M885.62 191.82q7.28 8.19 13.27 17.25 2.49 3.76 4.22 8.85c3.58 10.58 5.28 20.59 4.33 31.62-1.81 20.97-9.13 41.39-19.27 59.98-1.8 3.31-3.91 6.07-5.41 9.28q-1.21 2.57-4.17 6.88-5.17 7.52-8.68 12.74c-5.87 8.71-16.27 18.14-23.87 26.87-4.72 5.43-11.07 10.65-16.72 14.72a6.67 6.24-83.8 0 0-.86.74q-5.99 6.11-8.59 7.64-7.55 4.44-13.73 9.75-1.49 1.28-7.79 4.41a16.41 15.2-22.5 0 0-2 1.17c-5.96 4.09-8.5 6.06-13.92 8.71q-4.66 2.28-12.77 6.92a.16.15 33.8 0 0 .06.29q.31.04.74-.07c7.1-1.86 16.19-6.37 22.94-8.53q4.67-1.49 21.55-9.53 24.09-11.48 36.18-18.07 9.78-5.33 15.15-7.83 7.89-3.68 15.06-8c7.35-4.42 15.44-8.25 22.55-12.21q46.34-25.84 93.23-49.63 5.87-2.98 12.59-6.09c7.13-3.3 13.55-6.67 20.81-9.4q2.46-.92 8.12-3.47 6.33-2.86 12.85-5.69 10.91-3.83 21.97-7.78 24.24-8.67 49.55-13.31c41.02-7.53 84.11-3.88 123.43 9.74q4.03 2.67 7.88 5.47c5.55 4.03 12.05 7.79 16.66 11.92 7.91 7.08 14.01 11.59 20.45 18.09q14.42 14.53 23.97 26.42l11.11 13.83q4.26 5.15 8.38 11.08 1.54 2.23 8.21 11.31 18.91 25.77 26.9 36.97c4.44 6.22 9.88 12.88 15.48 20.16q9 11.7 28.7 32.95c4.49 4.84 8.71 8.06 13.7 13.27q5.2 5.44 11.91 10.11a34 34 0 0 1 5.66 5q.49.53 4.57 3.27 3.15 2.12 5.25 5.13l-568.06.05-.32-.74a1.1 1.1 0 0 0-.66-.63q-3.95-1.43-7.7-4.45a7.56 7.51 77.2 0 0-1.42-.9c-4.93-2.41-9.1-3.89-13.45-6.54a316 316 0 0 0-22.63-12.52c-10.42-5.1-21.38-11.7-32.65-17.2-5.55-2.7-11.32-6.43-16.61-9.02q-7.96-3.9-10.04-5.02-10.04-5.41-44.46-23.28-59-30.61-105.66-52.51-9.84-4.61-13.81-6.54c-16.72-8.13-33.21-15.14-53.34-24.11q-6.61-2.94-13.8-5.6c-11.11-4.11-20.45-8.32-31.1-11.06q-11.68-3-19.24-5.02-4.6-1.22-10.11-1.88a.38.38 0 0 0-.19.72q14.61 6.21 24.08 10.87c5.44 2.67 9.41 5.45 14.55 7.99q3.88 1.91 10.59 6.18 13.31 8.45 23.69 15.8c4.26 3 7.48 5.9 10.89 8.41q3.02 2.21 7.86 6.26 33.61 28.11 62.43 59.69c4.14 4.54 7.98 9.68 12.11 13.82q2.38 2.39 7.51 9.27 3.09 4.15 7.48 9.25c3.86 4.48 8.81 13.82 13.44 19.59q1.57 1.96 3.59 6.06 1.39 2.81 4.35 7.45a1.49 1.1-81.4 0 1 .09.17l1.54 3.52a1.21 1.19-46 0 1 .01.93l-.44 1.02L0 494.8v-61.71q13.24-7.17 26.53-14.57 77.36-43.04 85.22-47.52 39-22.26 88.02-48.72 24.16-13.04 51.05-24.22 4.1-1.71 15.47-5.61a245 245 0 0 1 65.85-12.97c30.4-1.78 61.35 2.86 91.58 10.1q26.72 6.41 34.81 8.07c19.09 3.91 38.28 1.77 55.37-7.97q13.08-7.46 24.63-16.1 13.8-10.32 14.88-11.18c17.88-14.21 37.92-29.39 60.49-44.3q17.7-11.69 31.41-18.57 26.9-13.5 54.12-21.08 68.36-19.02 137.06-4.46 23.91 5.07 48.43 17.28a1.06 1.03-5.5 0 1 .34.27q.23.26.36.28"/><path fill="#18531c" d="M1051.49 281.12q-6.52 2.83-12.85 5.69-5.66 2.55-8.12 3.47c-7.26 2.73-13.68 6.1-20.81 9.4q-6.72 3.11-12.59 6.09-46.89 23.79-93.23 49.63c-7.11 3.96-15.2 7.79-22.55 12.21q-7.17 4.32-15.06 8-5.37 2.5-15.15 7.83-12.09 6.59-36.18 18.07-16.88 8.04-21.55 9.53c-6.75 2.16-15.84 6.67-22.94 8.53q-.43.11-.74.07a.16.15 33.8 0 1-.06-.29q8.11-4.64 12.77-6.92c5.42-2.65 7.96-4.62 13.92-8.71a16.41 15.2-22.5 0 1 2-1.17q6.3-3.13 7.79-4.41 6.18-5.31 13.73-9.75 2.6-1.53 8.59-7.64a6.67 6.24-83.8 0 1 .86-.74c5.65-4.07 12-9.29 16.72-14.72 7.6-8.73 18-18.16 23.87-26.87q3.51-5.22 8.68-12.74 2.96-4.31 4.17-6.88c1.5-3.21 3.61-5.97 5.41-9.28 10.14-18.59 17.46-39.01 19.27-59.98.95-11.03-.75-21.04-4.33-31.62q-1.73-5.09-4.22-8.85-5.99-9.06-13.27-17.25 4.3 1.83 8.48 3.69c6.3 2.79 11.72 6.46 17.88 9.21 4.76 2.12 10.25 5.77 16.21 8.59q.28.14 6.5 3.52 51.63 28.05 99.8 54.92 3.06 1.71 7.78 3.47 2.59.97 9.22 5.9M1536 410.52v84.23h-80.73q-2.1-3.01-5.25-5.13-4.08-2.74-4.57-3.27a34 34 0 0 0-5.66-5q-6.71-4.67-11.91-10.11c-4.99-5.21-9.21-8.43-13.7-13.27q-19.7-21.25-28.7-32.95c-5.6-7.28-11.04-13.94-15.48-20.16q-7.99-11.2-26.9-36.97-6.67-9.08-8.21-11.31-4.12-5.93-8.38-11.08l-11.11-13.83q-9.55-11.89-23.97-26.42c-6.44-6.5-12.54-11.01-20.45-18.09-4.61-4.13-11.11-7.89-16.66-11.92q-3.85-2.8-7.88-5.47 4.09 1.06 5.5 1.58 15.42 5.68 33.16 12.96 6.63 2.72 11.79 5.62c4.69 2.64 10.65 4.92 15.72 7.58q33.15 17.4 61.96 33.96 29.94 17.2 51.16 29.31 30.13 17.2 60.77 31.76 24.47 11.62 49.5 17.98M887.21 494.8l-193.42-.02.44-1.02a1.21 1.19-46 0 0-.01-.93l-1.54-3.52a1.49 1.1-81.4 0 0-.09-.17q-2.96-4.64-4.35-7.45-2.02-4.1-3.59-6.06c-4.63-5.77-9.58-15.11-13.44-19.59q-4.39-5.1-7.48-9.25-5.13-6.88-7.51-9.27c-4.13-4.14-7.97-9.28-12.11-13.82q-28.82-31.58-62.43-59.69-4.84-4.05-7.86-6.26c-3.41-2.51-6.63-5.41-10.89-8.41q-10.38-7.35-23.69-15.8-6.71-4.27-10.59-6.18c-5.14-2.54-9.11-5.32-14.55-7.99q-9.47-4.66-24.08-10.87a.38.38 0 0 1 .19-.72q5.51.66 10.11 1.88 7.56 2.02 19.24 5.02c10.65 2.74 19.99 6.95 31.1 11.06q7.19 2.66 13.8 5.6c20.13 8.97 36.62 15.98 53.34 24.11q3.97 1.93 13.81 6.54 46.66 21.9 105.66 52.51 34.42 17.87 44.46 23.28 2.08 1.12 10.04 5.02c5.29 2.59 11.06 6.32 16.61 9.02 11.27 5.5 22.23 12.1 32.65 17.2a316 316 0 0 1 22.63 12.52c4.35 2.65 8.52 4.13 13.45 6.54a7.56 7.51 77.2 0 1 1.42.9q3.75 3.02 7.7 4.45a1.1 1.1 0 0 1 .66.63z"/><path fill="#fff" d="M1536 494.75v152q-7 11.95-15.87 20.38-10.11 9.62-23.14 15.87c-27.35 13.11-58.68 16.23-88.97 13.16-31.79-3.22-68.69-15.47-86.48-44.62a.45.44-43.9 0 0-.75-.01q-12.39 18.85-32.61 29.4-15.99 8.35-33.22 12.03-37.43 8.01-75.18 1.67c-19.18-3.22-37.4-9.86-53.09-21.16-7.57-5.45-14.77-13.76-19.1-21.2a.38.37-44 0 0-.64-.01c-3.16 5.02-6.92 10.26-11.33 14.32q-9.31 8.56-18.08 13.46-14.99 8.36-32.25 12.53c-23.78 5.74-48.85 6.46-72.79 3.36-16.88-2.19-34.96-7.5-50.23-15.71-12.35-6.65-23.12-16.1-30.13-28.08a.44.44 0 0 0-.75-.02q-7.96 12.05-19.92 20.33-8.66 5.99-14.88 8.89-25.42 11.84-54.54 14.97c-33.91 3.65-67.92 1.8-100.06-8.76q-20.57-6.76-37.13-20.21c-5.61-4.55-9.84-10.22-13.66-15.95a.32.31 44.7 0 0-.53 0c-15.52 23.46-40.43 36.08-67.48 41.62q-36.49 7.48-73.1 1.8-22.98-3.57-43.81-14.36c-6.25-3.24-13.51-8.82-17.56-12.68q-6.95-6.62-12.68-15.94a.47.47 45.6 0 0-.79-.01q-7.76 12.32-19.28 20.43-14.89 10.49-31.72 15.78-22.8 7.17-46.25 8.48c-33.47 1.88-67.99-2.1-98.04-18.71q-1.67-.92-12.54-9.11c-6.11-4.61-12.24-12.87-16.18-19.57a.4.4 0 0 0-.67-.01c-12.66 20.33-34.12 33.87-56.89 40.67q-37.07 11.08-76.18 3.86c-30.8-5.68-62.18-22.3-76.69-51.41a.38.38 0 0 0-.69.02l-.12.26V494.8l693.79-.02 193.42.02 568.06-.05z"/><path fill="#3650aa" d="M1536 646.75v376.66q-.27.23-.39.59H0V642.51l.12-.26a.38.38 0 0 1 .69-.02c14.51 29.11 45.89 45.73 76.69 51.41q39.11 7.22 76.18-3.86c22.77-6.8 44.23-20.34 56.89-40.67a.4.4 0 0 1 .67.01c3.94 6.7 10.07 14.96 16.18 19.57q10.87 8.19 12.54 9.11c30.05 16.61 64.57 20.59 98.04 18.71q23.45-1.31 46.25-8.48 16.83-5.29 31.72-15.78 11.52-8.11 19.28-20.43a.47.47 45.6 0 1 .79.01q5.73 9.32 12.68 15.94c4.05 3.86 11.31 9.44 17.56 12.68q20.83 10.79 43.81 14.36 36.61 5.68 73.1-1.8c27.05-5.54 51.96-18.16 67.48-41.62a.32.31 44.7 0 1 .53 0c3.82 5.73 8.05 11.4 13.66 15.95q16.56 13.45 37.13 20.21c32.14 10.56 66.15 12.41 100.06 8.76q29.12-3.13 54.54-14.97 6.22-2.9 14.88-8.89 11.96-8.28 19.92-20.33a.44.44 0 0 1 .75.02c7.01 11.98 17.78 21.43 30.13 28.08 15.27 8.21 33.35 13.52 50.23 15.71 23.94 3.1 49.01 2.38 72.79-3.36q17.26-4.17 32.25-12.53 8.77-4.9 18.08-13.46c4.41-4.06 8.17-9.3 11.33-14.32a.38.37-44 0 1 .64.01c4.33 7.44 11.53 15.75 19.1 21.2 15.69 11.3 33.91 17.94 53.09 21.16q37.75 6.34 75.18-1.67 17.23-3.68 33.22-12.03 20.22-10.55 32.61-29.4a.45.44-43.9 0 1 .75.01c17.79 29.15 54.69 41.4 86.48 44.62 30.29 3.07 61.62-.05 88.97-13.16q13.03-6.25 23.14-15.87 8.87-8.43 15.87-20.38M780.23 732.3a126.24 126.12-84.3 0 0-138.04 113.1 126.24 126.12-84.3 0 0 112.96 138.14 126.24 126.12-84.3 0 0 138.04-113.1A126.24 126.12-84.3 0 0 780.23 732.3"/><path fill="#fee73a" d="M780.23 732.3a126.24 126.12-84.3 0 1 112.96 138.15 126.24 126.12-84.3 0 1-138.04 113.09A126.24 126.12-84.3 0 1 642.2 845.39 126.24 126.12-84.3 0 1 780.23 732.3m-.65 24.91.2 64.76a.84.83-78.2 0 0 .5.76l5.1 2.19a1.76 1.75-52.4 0 0 1.77-.24l50.92-39.76a.62.61-40.3 0 0 .07-.91q-2.13-2.34-5.96-5.4-22.96-18.34-51.81-22.1a.7.7 0 0 0-.79.7m-23.89-.04a.7.69 86 0 0-.79-.69q-28.71 3.83-51.51 22.16-3.8 3.06-5.92 5.4a.62.61 40.1 0 0 .08.9l50.81 39.43a1.76 1.74 52.2 0 0 1.77.23l5.07-2.2a.8.8 0 0 0 .49-.76zm-90.15 102.75a.3.3 85.5 0 0 .32.28l65.53-8.77a.9.9 0 0 0 .73-.67l1.49-6.66a.98.97-64.8 0 0-.35-.99l-50.76-39.39a.94.94 0 0 0-1.35.21c-10.87 16.08-15.88 36.85-15.61 55.99m137.3-12.63.69 3.02a.7.7 0 0 0 .64.57l64.7 7.1a.59.58 3.1 0 0 .65-.58q.06-14.39-3.8-27.99-3.87-13.6-11.5-25.81a.59.58-34.9 0 0-.85-.15l-51.29 40.08a.7.7 0 0 0-.24.82zm-15.97 9.58a19.14 19.14 0 0 0-19.14-19.14 19.14 19.14 0 0 0-19.14 19.14 19.14 19.14 0 0 0 19.14 19.14 19.14 19.14 0 0 0 19.14-19.14m-104.66 56.6q8.28 12.86 20.85 23.36a.6.6 0 0 0 .86-.13l35.76-56.83a.9.9 0 0 0-.02-.99l-1.1-1.67-1.06-1.69a.9.9 0 0 0-.9-.43l-66.54 8.99a.6.6 0 0 0-.47.73q4.34 15.8 12.62 28.66m114.88-35.86-1.5 2.33a.88.87-44.3 0 0-.02.94l34.23 57.13a.7.7 0 0 0 1.02.19q13.26-10.58 22.33-24.77t13.09-30.65a.7.7 0 0 0-.59-.85l-66.23-7.08a.88.87-70.5 0 0-.84.41zm-30.42 82.77q22.05.24 42.45-8.86a.7.7 0 0 0 .32-1.01l-34.61-57.75a1.08 1.07 70.3 0 0-1.08-.52q-3.19.45-6.34.41-3.14-.03-6.32-.55a1.08 1.07-69.1 0 0-1.09.5l-35.87 56.97a.7.7 0 0 0 .29 1.02q20.2 9.55 42.25 9.79"/><path fill="#3650aa" d="M779.58 757.21a.7.7 0 0 1 .79-.7q28.85 3.76 51.81 22.1 3.83 3.06 5.96 5.4a.62.61-40.3 0 1-.07.91l-50.92 39.76a1.76 1.75-52.4 0 1-1.77.24l-5.1-2.19a.84.83-78.2 0 1-.5-.76zm-23.89-.04v64.47a.8.8 0 0 1-.49.76l-5.07 2.2a1.76 1.74 52.2 0 1-1.77-.23l-50.81-39.43a.62.61 40.1 0 1-.08-.9q2.12-2.34 5.92-5.4 22.8-18.33 51.51-22.16a.7.69 86 0 1 .79.69m-90.15 102.75c-.27-19.14 4.74-39.91 15.61-55.99a.94.94 0 0 1 1.35-.21l50.76 39.39a.98.97-64.8 0 1 .35.99l-1.49 6.66a.9.9 0 0 1-.73.67l-65.53 8.77a.3.3 85.5 0 1-.32-.28m200.18-30.51q3.86 13.6 3.8 27.99a.59.58 3.1 0 1-.65.58l-64.7-7.1a.7.7 0 0 1-.64-.57l-.69-3.02-1-2.94a.7.7 0 0 1 .24-.82l51.29-40.08a.59.58-34.9 0 1 .85.15q7.63 12.21 11.5 25.81"/><circle cx="767.73" cy="856.87" r="19.14" fill="#3650aa"/><path fill="#3650aa" d="m738.56 877.21 1.1 1.67a.9.9 0 0 1 .02.99l-35.76 56.83a.6.6 0 0 1-.86.13q-12.57-10.5-20.85-23.36t-12.62-28.66a.6.6 0 0 1 .47-.73l66.54-8.99a.9.9 0 0 1 .9.43zm114.59 36.22q-9.07 14.19-22.33 24.77a.7.7 0 0 1-1.02-.19l-34.23-57.13a.88.87-44.3 0 1 .02-.94l1.5-2.33 1.49-2.35a.88.87-70.5 0 1 .84-.41l66.23 7.08a.7.7 0 0 1 .59.85q-4.03 16.47-13.09 30.65m-85.74-20.78q3.15.04 6.34-.41a1.08 1.07 70.3 0 1 1.08.52l34.61 57.75a.7.7 0 0 1-.32 1.01q-20.4 9.1-42.45 8.86t-42.25-9.79a.7.7 0 0 1-.29-1.02L760 892.6a1.08 1.07-69.1 0 1 1.09-.5q3.18.52 6.32.55"/><path fill="#fff" d="M1536 1023.41v.59h-.39q.12-.36.39-.59"/></svg>