<?xml version="1.0" encoding="UTF-8" standalone="no"?>
<!DOCTYPE svg PUBLIC "-//W3C//DTD SVG 1.1//EN" "http://www.w3.org/Graphics/SVG/1.1/DTD/svg11.dtd">
<svg xmlns="http://www.w3.org/2000/svg" version="1.1" viewBox="0.00 0.00 1536.00 1024.00">
<g stroke-width="2.00" fill="none" stroke-linecap="butt">
<path stroke="#275263" vector-effect="non-scaling-stroke" d="
  M 1536.00 410.52
  Q 1510.97 404.16 1486.50 392.54
  Q 1455.86 377.98 1425.73 360.78
  Q 1404.51 348.67 1374.57 331.47
  Q 1345.76 314.91 1312.61 297.51
  C 1307.54 294.85 1301.58 292.57 1296.89 289.93
  Q 1291.73 287.03 1285.10 284.31
  Q 1267.36 277.03 1251.94 271.35
  Q 1250.53 270.83 1246.44 269.77"
/>
<path stroke="#337578" vector-effect="non-scaling-stroke" d="
  M 1246.44 269.77
  C 1207.12 256.15 1164.03 252.50 1123.01 260.03
  Q 1097.70 264.67 1073.46 273.34
  Q 1062.40 277.29 1051.49 281.12"
/>
<path stroke="#275263" vector-effect="non-scaling-stroke" d="
  M 1051.49 281.12
  Q 1044.86 276.19 1042.27 275.22
  Q 1037.55 273.46 1034.49 271.75
  Q 986.32 244.88 934.69 216.83
  Q 928.47 213.45 928.19 213.31
  C 922.23 210.49 916.74 206.84 911.98 204.72
  C 905.82 201.97 900.40 198.30 894.10 195.51
  Q 889.92 193.65 885.62 191.82"
/>
<path stroke="#337578" vector-effect="non-scaling-stroke" d="
  M 885.62 191.82
  Q 885.49 191.80 885.26 191.54
  A 1.06 1.03 -5.5 0 0 884.92 191.27
  Q 860.40 179.06 836.49 173.99
  Q 767.79 159.43 699.43 178.45
  Q 672.21 186.03 645.31 199.53
  Q 631.60 206.41 613.90 218.10
  C 591.33 233.01 571.29 248.19 553.41 262.40
  Q 552.33 263.26 538.53 273.58
  Q 526.98 282.22 513.90 289.68
  C 496.81 299.42 477.62 301.56 458.53 297.65
  Q 450.44 295.99 423.72 289.58
  C 393.49 282.34 362.54 277.70 332.14 279.48
  C 309.39 280.82 287.68 285.11 266.29 292.45
  Q 254.92 296.35 250.82 298.06
  Q 223.93 309.24 199.77 322.28
  Q 150.75 348.74 111.75 371.00
  Q 103.89 375.48 26.53 418.52
  Q 13.24 425.92 0.00 433.09"
/>
<path stroke="#247631" vector-effect="non-scaling-stroke" d="
  M 885.62 191.82
  Q 892.90 200.01 898.89 209.07
  Q 901.38 212.83 903.11 217.92
  C 906.69 228.50 908.39 238.51 907.44 249.54
  C 905.63 270.51 898.31 290.93 888.17 309.52
  C 886.37 312.83 884.26 315.59 882.76 318.80
  Q 881.55 321.37 878.59 325.68
  Q 873.42 333.20 869.91 338.42
  C 864.04 347.13 853.64 356.56 846.04 365.29
  C 841.32 370.72 834.97 375.94 829.32 380.01
  A 6.67 6.24 -83.8 0 0 828.46 380.75
  Q 822.47 386.86 819.87 388.39
  Q 812.32 392.83 806.14 398.14
  Q 804.65 399.42 798.35 402.55
  A 16.41 15.20 -22.5 0 0 796.35 403.72
  C 790.39 407.81 787.85 409.78 782.43 412.43
  Q 777.77 414.71 769.66 419.35
  A 0.16 0.15 33.8 0 0 769.72 419.64
  Q 770.03 419.68 770.46 419.57
  C 777.56 417.71 786.65 413.20 793.40 411.04
  Q 798.07 409.55 814.95 401.51
  Q 839.04 390.03 851.13 383.44
  Q 860.91 378.11 866.28 375.61
  Q 874.17 371.93 881.34 367.61
  C 888.69 363.19 896.78 359.36 903.89 355.40
  Q 950.23 329.56 997.12 305.77
  Q 1002.99 302.79 1009.71 299.68
  C 1016.84 296.38 1023.26 293.01 1030.52 290.28
  Q 1032.98 289.36 1038.64 286.81
  Q 1044.97 283.95 1051.49 281.12"
/>
<path stroke="#247631" vector-effect="non-scaling-stroke" d="
  M 1246.44 269.77
  Q 1250.47 272.44 1254.32 275.24
  C 1259.87 279.27 1266.37 283.03 1270.98 287.16
  C 1278.89 294.24 1284.99 298.75 1291.43 305.25
  Q 1305.85 319.78 1315.40 331.67
  Q 1326.21 345.12 1326.51 345.50
  Q 1330.77 350.65 1334.89 356.58
  Q 1336.43 358.81 1343.10 367.89
  Q 1362.01 393.66 1370.00 404.86
  C 1374.44 411.08 1379.88 417.74 1385.48 425.02
  Q 1394.48 436.72 1414.18 457.97
  C 1418.67 462.81 1422.89 466.03 1427.88 471.24
  Q 1433.08 476.68 1439.79 481.35
  C 1441.96 482.86 1443.72 484.47 1445.45 486.35
  Q 1445.94 486.88 1450.02 489.62
  Q 1453.17 491.74 1455.27 494.75"
/>
<path stroke="#98cca3" vector-effect="non-scaling-stroke" d="
  M 1455.27 494.75
  L 887.21 494.80"
/>
<path stroke="#247631" vector-effect="non-scaling-stroke" d="
  M 887.21 494.80
  L 886.89 494.06
  A 1.13 1.13 0.0 0 0 886.23 493.43
  Q 882.28 492.00 878.53 488.98
  A 7.56 7.51 77.2 0 0 877.11 488.08
  C 872.18 485.67 868.01 484.19 863.66 481.54
  C 857.61 477.85 848.41 472.64 841.03 469.02
  C 830.61 463.92 819.65 457.32 808.38 451.82
  C 802.83 449.12 797.06 445.39 791.77 442.80
  Q 783.81 438.90 781.73 437.78
  Q 771.69 432.37 737.27 414.50
  Q 678.27 383.89 631.61 361.99
  Q 621.77 357.38 617.80 355.45
  C 601.08 347.32 584.59 340.31 564.46 331.34
  Q 557.85 328.40 550.66 325.74
  C 539.55 321.63 530.21 317.42 519.56 314.68
  Q 507.88 311.68 500.32 309.66
  Q 495.72 308.44 490.21 307.78
  A 0.38 0.38 0.0 0 0 490.02 308.50
  Q 504.63 314.71 514.10 319.37
  C 519.54 322.04 523.51 324.82 528.65 327.36
  Q 532.53 329.27 539.24 333.54
  Q 552.55 341.99 562.93 349.34
  C 567.19 352.34 570.41 355.24 573.82 357.75
  Q 576.84 359.96 581.68 364.01
  Q 615.29 392.12 644.11 423.70
  C 648.25 428.24 652.09 433.38 656.22 437.52
  Q 658.60 439.91 663.73 446.79
  Q 666.82 450.94 671.21 456.04
  C 675.07 460.52 680.02 469.86 684.65 475.63
  Q 686.22 477.59 688.24 481.69
  Q 689.63 484.50 692.59 489.14
  A 1.49 1.10 -81.4 0 1 692.68 489.31
  L 694.22 492.83
  A 1.21 1.19 -46.0 0 1 694.23 493.76
  L 693.79 494.78"
/>
<path stroke="#98cca3" vector-effect="non-scaling-stroke" d="
  M 693.79 494.78
  L 0.00 494.80"
/>
<path stroke="#8ca98e" vector-effect="non-scaling-stroke" d="
  M 1536.00 494.75
  L 1455.27 494.75"
/>
<path stroke="#8ca98e" vector-effect="non-scaling-stroke" d="
  M 887.21 494.80
  L 693.79 494.78"
/>
<path stroke="#9ba8d5" vector-effect="non-scaling-stroke" d="
  M 1536.00 646.75
  Q 1529.00 658.70 1520.13 667.13
  Q 1510.02 676.75 1496.99 683.00
  C 1469.64 696.11 1438.31 699.23 1408.02 696.16
  C 1376.23 692.94 1339.33 680.69 1321.54 651.54
  A 0.45 0.44 -43.9 0 0 1320.79 651.53
  Q 1308.40 670.38 1288.18 680.93
  Q 1272.19 689.28 1254.96 692.96
  Q 1217.53 700.97 1179.78 694.63
  C 1160.60 691.41 1142.38 684.77 1126.69 673.47
  C 1119.12 668.02 1111.92 659.71 1107.59 652.27
  A 0.38 0.37 -44.0 0 0 1106.95 652.26
  C 1103.79 657.28 1100.03 662.52 1095.62 666.58
  Q 1086.31 675.14 1077.54 680.04
  Q 1062.55 688.40 1045.29 692.57
  C 1021.51 698.31 996.44 699.03 972.50 695.93
  C 955.62 693.74 937.54 688.43 922.27 680.22
  C 909.92 673.57 899.15 664.12 892.14 652.14
  A 0.44 0.44 0.0 0 0 891.39 652.12
  Q 883.43 664.17 871.47 672.45
  Q 862.81 678.44 856.59 681.34
  Q 831.17 693.18 802.05 696.31
  C 768.14 699.96 734.13 698.11 701.99 687.55
  Q 681.42 680.79 664.86 667.34
  C 659.25 662.79 655.02 657.12 651.20 651.39
  A 0.32 0.31 44.7 0 0 650.67 651.39
  C 635.15 674.85 610.24 687.47 583.19 693.01
  Q 546.70 700.49 510.09 694.81
  Q 487.11 691.24 466.28 680.45
  C 460.03 677.21 452.77 671.63 448.72 667.77
  Q 441.77 661.15 436.04 651.83
  A 0.47 0.46 45.6 0 0 435.25 651.82
  Q 427.49 664.14 415.97 672.25
  Q 401.08 682.74 384.25 688.03
  Q 361.45 695.20 338.00 696.51
  C 304.53 698.39 270.01 694.41 239.96 677.80
  Q 238.29 676.88 227.42 668.69
  C 221.31 664.08 215.18 655.82 211.24 649.12
  A 0.39 0.39 0.0 0 0 210.57 649.11
  C 197.91 669.44 176.45 682.98 153.68 689.78
  Q 116.61 700.86 77.50 693.64
  C 46.70 687.96 15.32 671.34 0.81 642.23
  A 0.38 0.38 0.0 0 0 0.12 642.25
  L 0.00 642.51"
/>
<path stroke="#9ba8d5" vector-effect="non-scaling-stroke" d="
  M 1536.00 1023.41
  Q 1535.73 1023.64 1535.61 1024.00"
/>
<path stroke="#9a9c72" vector-effect="non-scaling-stroke" d="
  M 780.2281 732.3042
  A 126.24 126.12 -84.3 0 0 642.1936 845.3938
  A 126.24 126.12 -84.3 0 0 755.1519 983.5358
  A 126.24 126.12 -84.3 0 0 893.1864 870.4462
  A 126.24 126.12 -84.3 0 0 780.2281 732.3042"
/>
<path stroke="#9a9c72" vector-effect="non-scaling-stroke" d="
  M 779.58 757.21
  L 779.78 821.97
  A 0.84 0.83 -78.2 0 0 780.28 822.73
  L 785.38 824.92
  A 1.76 1.75 -52.4 0 0 787.15 824.68
  L 838.07 784.92
  A 0.62 0.61 -40.3 0 0 838.14 784.01
  Q 836.01 781.67 832.18 778.61
  Q 809.22 760.27 780.37 756.51
  A 0.70 0.70 0.0 0 0 779.58 757.21"
/>
<path stroke="#9a9c72" vector-effect="non-scaling-stroke" d="
  M 755.69 757.17
  A 0.70 0.69 86.0 0 0 754.90 756.48
  Q 726.19 760.31 703.39 778.64
  Q 699.59 781.70 697.47 784.04
  A 0.62 0.61 40.1 0 0 697.55 784.94
  L 748.36 824.37
  A 1.76 1.74 52.2 0 0 750.13 824.60
  L 755.20 822.40
  A 0.83 0.83 0.0 0 0 755.69 821.64
  L 755.69 757.17"
/>
<path stroke="#9a9c72" vector-effect="non-scaling-stroke" d="
  M 665.54 859.92
  A 0.29 0.28 85.5 0 0 665.86 860.20
  L 731.39 851.43
  A 0.86 0.86 0.0 0 0 732.12 850.76
  L 733.61 844.10
  A 0.98 0.97 -64.8 0 0 733.26 843.11
  L 682.50 803.72
  A 0.94 0.94 0.0 0 0 681.15 803.93
  C 670.28 820.01 665.27 840.78 665.54 859.92"
/>
<path stroke="#9a9c72" vector-effect="non-scaling-stroke" d="
  M 802.84 847.29
  Q 802.85 847.32 803.53 850.31
  A 0.74 0.74 0.0 0 0 804.17 850.88
  L 868.87 857.98
  A 0.59 0.58 3.1 0 0 869.52 857.40
  Q 869.58 843.01 865.72 829.41
  Q 861.85 815.81 854.22 803.60
  A 0.59 0.58 -34.9 0 0 853.37 803.45
  L 802.08 843.53
  A 0.74 0.74 0.0 0 0 801.84 844.35
  Q 802.83 847.25 802.84 847.29"
/>
<path stroke="#9a9c72" vector-effect="non-scaling-stroke" d="
  M 786.87 856.87
  A 19.14 19.14 0.0 0 0 767.73 837.73
  A 19.14 19.14 0.0 0 0 748.59 856.87
  A 19.14 19.14 0.0 0 0 767.73 876.01
  A 19.14 19.14 0.0 0 0 786.87 856.87"
/>
<path stroke="#9a9c72" vector-effect="non-scaling-stroke" d="
  M 682.21 913.47
  Q 690.49 926.33 703.06 936.83
  A 0.58 0.58 0.0 0 0 703.92 936.70
  L 739.68 879.87
  A 0.90 0.90 0.0 0 0 739.66 878.88
  Q 739.12 878.07 738.56 877.21
  Q 738.01 876.35 737.50 875.52
  A 0.90 0.90 0.0 0 0 736.60 875.09
  L 670.06 884.08
  A 0.58 0.58 0.0 0 0 669.59 884.81
  Q 673.93 900.61 682.21 913.47"
/>
<path stroke="#9a9c72" vector-effect="non-scaling-stroke" d="
  M 797.09 877.61
  Q 796.65 878.31 795.59 879.94
  A 0.88 0.87 -44.3 0 0 795.57 880.88
  L 829.80 938.01
  A 0.69 0.69 0.0 0 0 830.82 938.20
  Q 844.08 927.62 853.15 913.43
  Q 862.21 899.25 866.24 882.78
  A 0.69 0.69 0.0 0 0 865.65 881.93
  L 799.42 874.85
  A 0.88 0.87 -70.5 0 0 798.58 875.26
  Q 797.54 876.91 797.09 877.61"
/>
<path stroke="#9a9c72" vector-effect="non-scaling-stroke" d="
  M 766.67 960.38
  Q 788.72 960.62 809.12 951.52
  A 0.71 0.71 0.0 0 0 809.44 950.51
  L 774.83 892.76
  A 1.08 1.07 70.3 0 0 773.75 892.24
  Q 770.56 892.69 767.41 892.65
  Q 764.27 892.62 761.09 892.10
  A 1.08 1.07 -69.1 0 0 760.00 892.60
  L 724.13 949.57
  A 0.71 0.71 0.0 0 0 724.42 950.59
  Q 744.62 960.14 766.67 960.38"
/>
</g>
<path fill="#3650aa" d="
  M 1536.00 0.00
  L 1536.00 410.52
  Q 1510.97 404.16 1486.50 392.54
  Q 1455.86 377.98 1425.73 360.78
  Q 1404.51 348.67 1374.57 331.47
  Q 1345.76 314.91 1312.61 297.51
  C 1307.54 294.85 1301.58 292.57 1296.89 289.93
  Q 1291.73 287.03 1285.10 284.31
  Q 1267.36 277.03 1251.94 271.35
  Q 1250.53 270.83 1246.44 269.77
  C 1207.12 256.15 1164.03 252.50 1123.01 260.03
  Q 1097.70 264.67 1073.46 273.34
  Q 1062.40 277.29 1051.49 281.12
  Q 1044.86 276.19 1042.27 275.22
  Q 1037.55 273.46 1034.49 271.75
  Q 986.32 244.88 934.69 216.83
  Q 928.47 213.45 928.19 213.31
  C 922.23 210.49 916.74 206.84 911.98 204.72
  C 905.82 201.97 900.40 198.30 894.10 195.51
  Q 889.92 193.65 885.62 191.82
  Q 885.49 191.80 885.26 191.54
  A 1.06 1.03 -5.5 0 0 884.92 191.27
  Q 860.40 179.06 836.49 173.99
  Q 767.79 159.43 699.43 178.45
  Q 672.21 186.03 645.31 199.53
  Q 631.60 206.41 613.90 218.10
  C 591.33 233.01 571.29 248.19 553.41 262.40
  Q 552.33 263.26 538.53 273.58
  Q 526.98 282.22 513.90 289.68
  C 496.81 299.42 477.62 301.56 458.53 297.65
  Q 450.44 295.99 423.72 289.58
  C 393.49 282.34 362.54 277.70 332.14 279.48
  C 309.39 280.82 287.68 285.11 266.29 292.45
  Q 254.92 296.35 250.82 298.06
  Q 223.93 309.24 199.77 322.28
  Q 150.75 348.74 111.75 371.00
  Q 103.89 375.48 26.53 418.52
  Q 13.24 425.92 0.00 433.09
  L 0.00 0.00
  L 1536.00 0.00
  Z"
/>
<path fill="#309946" d="
  M 885.62 191.82
  Q 892.90 200.01 898.89 209.07
  Q 901.38 212.83 903.11 217.92
  C 906.69 228.50 908.39 238.51 907.44 249.54
  C 905.63 270.51 898.31 290.93 888.17 309.52
  C 886.37 312.83 884.26 315.59 882.76 318.80
  Q 881.55 321.37 878.59 325.68
  Q 873.42 333.20 869.91 338.42
  C 864.04 347.13 853.64 356.56 846.04 365.29
  C 841.32 370.72 834.97 375.94 829.32 380.01
  A 6.67 6.24 -83.8 0 0 828.46 380.75
  Q 822.47 386.86 819.87 388.39
  Q 812.32 392.83 806.14 398.14
  Q 804.65 399.42 798.35 402.55
  A 16.41 15.20 -22.5 0 0 796.35 403.72
  C 790.39 407.81 787.85 409.78 782.43 412.43
  Q 777.77 414.71 769.66 419.35
  A 0.16 0.15 33.8 0 0 769.72 419.64
  Q 770.03 419.68 770.46 419.57
  C 777.56 417.71 786.65 413.20 793.40 411.04
  Q 798.07 409.55 814.95 401.51
  Q 839.04 390.03 851.13 383.44
  Q 860.91 378.11 866.28 375.61
  Q 874.17 371.93 881.34 367.61
  C 888.69 363.19 896.78 359.36 903.89 355.40
  Q 950.23 329.56 997.12 305.77
  Q 1002.99 302.79 1009.71 299.68
  C 1016.84 296.38 1023.26 293.01 1030.52 290.28
  Q 1032.98 289.36 1038.64 286.81
  Q 1044.97 283.95 1051.49 281.12
  Q 1062.40 277.29 1073.46 273.34
  Q 1097.70 264.67 1123.01 260.03
  C 1164.03 252.50 1207.12 256.15 1246.44 269.77
  Q 1250.47 272.44 1254.32 275.24
  C 1259.87 279.27 1266.37 283.03 1270.98 287.16
  C 1278.89 294.24 1284.99 298.75 1291.43 305.25
  Q 1305.85 319.78 1315.40 331.67
  Q 1326.21 345.12 1326.51 345.50
  Q 1330.77 350.65 1334.89 356.58
  Q 1336.43 358.81 1343.10 367.89
  Q 1362.01 393.66 1370.00 404.86
  C 1374.44 411.08 1379.88 417.74 1385.48 425.02
  Q 1394.48 436.72 1414.18 457.97
  C 1418.67 462.81 1422.89 466.03 1427.88 471.24
  Q 1433.08 476.68 1439.79 481.35
  C 1441.96 482.86 1443.72 484.47 1445.45 486.35
  Q 1445.94 486.88 1450.02 489.62
  Q 1453.17 491.74 1455.27 494.75
  L 887.21 494.80
  L 886.89 494.06
  A 1.13 1.13 0.0 0 0 886.23 493.43
  Q 882.28 492.00 878.53 488.98
  A 7.56 7.51 77.2 0 0 877.11 488.08
  C 872.18 485.67 868.01 484.19 863.66 481.54
  C 857.61 477.85 848.41 472.64 841.03 469.02
  C 830.61 463.92 819.65 457.32 808.38 451.82
  C 802.83 449.12 797.06 445.39 791.77 442.80
  Q 783.81 438.90 781.73 437.78
  Q 771.69 432.37 737.27 414.50
  Q 678.27 383.89 631.61 361.99
  Q 621.77 357.38 617.80 355.45
  C 601.08 347.32 584.59 340.31 564.46 331.34
  Q 557.85 328.40 550.66 325.74
  C 539.55 321.63 530.21 317.42 519.56 314.68
  Q 507.88 311.68 500.32 309.66
  Q 495.72 308.44 490.21 307.78
  A 0.38 0.38 0.0 0 0 490.02 308.50
  Q 504.63 314.71 514.10 319.37
  C 519.54 322.04 523.51 324.82 528.65 327.36
  Q 532.53 329.27 539.24 333.54
  Q 552.55 341.99 562.93 349.34
  C 567.19 352.34 570.41 355.24 573.82 357.75
  Q 576.84 359.96 581.68 364.01
  Q 615.29 392.12 644.11 423.70
  C 648.25 428.24 652.09 433.38 656.22 437.52
  Q 658.60 439.91 663.73 446.79
  Q 666.82 450.94 671.21 456.04
  C 675.07 460.52 680.02 469.86 684.65 475.63
  Q 686.22 477.59 688.24 481.69
  Q 689.63 484.50 692.59 489.14
  A 1.49 1.10 -81.4 0 1 692.68 489.31
  L 694.22 492.83
  A 1.21 1.19 -46.0 0 1 694.23 493.76
  L 693.79 494.78
  L 0.00 494.80
  L 0.00 433.09
  Q 13.24 425.92 26.53 418.52
  Q 103.89 375.48 111.75 371.00
  Q 150.75 348.74 199.77 322.28
  Q 223.93 309.24 250.82 298.06
  Q 254.92 296.35 266.29 292.45
  C 287.68 285.11 309.39 280.82 332.14 279.48
  C 362.54 277.70 393.49 282.34 423.72 289.58
  Q 450.44 295.99 458.53 297.65
  C 477.62 301.56 496.81 299.42 513.90 289.68
  Q 526.98 282.22 538.53 273.58
  Q 552.33 263.26 553.41 262.40
  C 571.29 248.19 591.33 233.01 613.90 218.10
  Q 631.60 206.41 645.31 199.53
  Q 672.21 186.03 699.43 178.45
  Q 767.79 159.43 836.49 173.99
  Q 860.40 179.06 884.92 191.27
  A 1.06 1.03 -5.5 0 1 885.26 191.54
  Q 885.49 191.80 885.62 191.82
  Z"
/>
<path fill="#18531c" d="
  M 1051.49 281.12
  Q 1044.97 283.95 1038.64 286.81
  Q 1032.98 289.36 1030.52 290.28
  C 1023.26 293.01 1016.84 296.38 1009.71 299.68
  Q 1002.99 302.79 997.12 305.77
  Q 950.23 329.56 903.89 355.40
  C 896.78 359.36 888.69 363.19 881.34 367.61
  Q 874.17 371.93 866.28 375.61
  Q 860.91 378.11 851.13 383.44
  Q 839.04 390.03 814.95 401.51
  Q 798.07 409.55 793.40 411.04
  C 786.65 413.20 777.56 417.71 770.46 419.57
  Q 770.03 419.68 769.72 419.64
  A 0.16 0.15 33.8 0 1 769.66 419.35
  Q 777.77 414.71 782.43 412.43
  C 787.85 409.78 790.39 407.81 796.35 403.72
  A 16.41 15.20 -22.5 0 1 798.35 402.55
  Q 804.65 399.42 806.14 398.14
  Q 812.32 392.83 819.87 388.39
  Q 822.47 386.86 828.46 380.75
  A 6.67 6.24 -83.8 0 1 829.32 380.01
  C 834.97 375.94 841.32 370.72 846.04 365.29
  C 853.64 356.56 864.04 347.13 869.91 338.42
  Q 873.42 333.20 878.59 325.68
  Q 881.55 321.37 882.76 318.80
  C 884.26 315.59 886.37 312.83 888.17 309.52
  C 898.31 290.93 905.63 270.51 907.44 249.54
  C 908.39 238.51 906.69 228.50 903.11 217.92
  Q 901.38 212.83 898.89 209.07
  Q 892.90 200.01 885.62 191.82
  Q 889.92 193.65 894.10 195.51
  C 900.40 198.30 905.82 201.97 911.98 204.72
  C 916.74 206.84 922.23 210.49 928.19 213.31
  Q 928.47 213.45 934.69 216.83
  Q 986.32 244.88 1034.49 271.75
  Q 1037.55 273.46 1042.27 275.22
  Q 1044.86 276.19 1051.49 281.12
  Z"
/>
<path fill="#18531c" d="
  M 1536.00 410.52
  L 1536.00 494.75
  L 1455.27 494.75
  Q 1453.17 491.74 1450.02 489.62
  Q 1445.94 486.88 1445.45 486.35
  C 1443.72 484.47 1441.96 482.86 1439.79 481.35
  Q 1433.08 476.68 1427.88 471.24
  C 1422.89 466.03 1418.67 462.81 1414.18 457.97
  Q 1394.48 436.72 1385.48 425.02
  C 1379.88 417.74 1374.44 411.08 1370.00 404.86
  Q 1362.01 393.66 1343.10 367.89
  Q 1336.43 358.81 1334.89 356.58
  Q 1330.77 350.65 1326.51 345.50
  Q 1326.21 345.12 1315.40 331.67
  Q 1305.85 319.78 1291.43 305.25
  C 1284.99 298.75 1278.89 294.24 1270.98 287.16
  C 1266.37 283.03 1259.87 279.27 1254.32 275.24
  Q 1250.47 272.44 1246.44 269.77
  Q 1250.53 270.83 1251.94 271.35
  Q 1267.36 277.03 1285.10 284.31
  Q 1291.73 287.03 1296.89 289.93
  C 1301.58 292.57 1307.54 294.85 1312.61 297.51
  Q 1345.76 314.91 1374.57 331.47
  Q 1404.51 348.67 1425.73 360.78
  Q 1455.86 377.98 1486.50 392.54
  Q 1510.97 404.16 1536.00 410.52
  Z"
/>
<path fill="#18531c" d="
  M 887.21 494.80
  L 693.79 494.78
  L 694.23 493.76
  A 1.21 1.19 -46.0 0 0 694.22 492.83
  L 692.68 489.31
  A 1.49 1.10 -81.4 0 0 692.59 489.14
  Q 689.63 484.50 688.24 481.69
  Q 686.22 477.59 684.65 475.63
  C 680.02 469.86 675.07 460.52 671.21 456.04
  Q 666.82 450.94 663.73 446.79
  Q 658.60 439.91 656.22 437.52
  C 652.09 433.38 648.25 428.24 644.11 423.70
  Q 615.29 392.12 581.68 364.01
  Q 576.84 359.96 573.82 357.75
  C 570.41 355.24 567.19 352.34 562.93 349.34
  Q 552.55 341.99 539.24 333.54
  Q 532.53 329.27 528.65 327.36
  C 523.51 324.82 519.54 322.04 514.10 319.37
  Q 504.63 314.71 490.02 308.50
  A 0.38 0.38 0.0 0 1 490.21 307.78
  Q 495.72 308.44 500.32 309.66
  Q 507.88 311.68 519.56 314.68
  C 530.21 317.42 539.55 321.63 550.66 325.74
  Q 557.85 328.40 564.46 331.34
  C 584.59 340.31 601.08 347.32 617.80 355.45
  Q 621.77 357.38 631.61 361.99
  Q 678.27 383.89 737.27 414.50
  Q 771.69 432.37 781.73 437.78
  Q 783.81 438.90 791.77 442.80
  C 797.06 445.39 802.83 449.12 808.38 451.82
  C 819.65 457.32 830.61 463.92 841.03 469.02
  C 848.41 472.64 857.61 477.85 863.66 481.54
  C 868.01 484.19 872.18 485.67 877.11 488.08
  A 7.56 7.51 77.2 0 1 878.53 488.98
  Q 882.28 492.00 886.23 493.43
  A 1.13 1.13 0.0 0 1 886.89 494.06
  L 887.21 494.80
  Z"
/>
<path fill="#ffffff" d="
  M 1536.00 494.75
  L 1536.00 646.75
  Q 1529.00 658.70 1520.13 667.13
  Q 1510.02 676.75 1496.99 683.00
  C 1469.64 696.11 1438.31 699.23 1408.02 696.16
  C 1376.23 692.94 1339.33 680.69 1321.54 651.54
  A 0.45 0.44 -43.9 0 0 1320.79 651.53
  Q 1308.40 670.38 1288.18 680.93
  Q 1272.19 689.28 1254.96 692.96
  Q 1217.53 700.97 1179.78 694.63
  C 1160.60 691.41 1142.38 684.77 1126.69 673.47
  C 1119.12 668.02 1111.92 659.71 1107.59 652.27
  A 0.38 0.37 -44.0 0 0 1106.95 652.26
  C 1103.79 657.28 1100.03 662.52 1095.62 666.58
  Q 1086.31 675.14 1077.54 680.04
  Q 1062.55 688.40 1045.29 692.57
  C 1021.51 698.31 996.44 699.03 972.50 695.93
  C 955.62 693.74 937.54 688.43 922.27 680.22
  C 909.92 673.57 899.15 664.12 892.14 652.14
  A 0.44 0.44 0.0 0 0 891.39 652.12
  Q 883.43 664.17 871.47 672.45
  Q 862.81 678.44 856.59 681.34
  Q 831.17 693.18 802.05 696.31
  C 768.14 699.96 734.13 698.11 701.99 687.55
  Q 681.42 680.79 664.86 667.34
  C 659.25 662.79 655.02 657.12 651.20 651.39
  A 0.32 0.31 44.7 0 0 650.67 651.39
  C 635.15 674.85 610.24 687.47 583.19 693.01
  Q 546.70 700.49 510.09 694.81
  Q 487.11 691.24 466.28 680.45
  C 460.03 677.21 452.77 671.63 448.72 667.77
  Q 441.77 661.15 436.04 651.83
  A 0.47 0.46 45.6 0 0 435.25 651.82
  Q 427.49 664.14 415.97 672.25
  Q 401.08 682.74 384.25 688.03
  Q 361.45 695.20 338.00 696.51
  C 304.53 698.39 270.01 694.41 239.96 677.80
  Q 238.29 676.88 227.42 668.69
  C 221.31 664.08 215.18 655.82 211.24 649.12
  A 0.39 0.39 0.0 0 0 210.57 649.11
  C 197.91 669.44 176.45 682.98 153.68 689.78
  Q 116.61 700.86 77.50 693.64
  C 46.70 687.96 15.32 671.34 0.81 642.23
  A 0.38 0.38 0.0 0 0 0.12 642.25
  L 0.00 642.51
  L 0.00 494.80
  L 693.79 494.78
  L 887.21 494.80
  L 1455.27 494.75
  L 1536.00 494.75
  Z"
/>
<path fill="#3650aa" d="
  M 1536.00 646.75
  L 1536.00 1023.41
  Q 1535.73 1023.64 1535.61 1024.00
  L 0.00 1024.00
  L 0.00 642.51
  L 0.12 642.25
  A 0.38 0.38 0.0 0 1 0.81 642.23
  C 15.32 671.34 46.70 687.96 77.50 693.64
  Q 116.61 700.86 153.68 689.78
  C 176.45 682.98 197.91 669.44 210.57 649.11
  A 0.39 0.39 0.0 0 1 211.24 649.12
  C 215.18 655.82 221.31 664.08 227.42 668.69
  Q 238.29 676.88 239.96 677.80
  C 270.01 694.41 304.53 698.39 338.00 696.51
  Q 361.45 695.20 384.25 688.03
  Q 401.08 682.74 415.97 672.25
  Q 427.49 664.14 435.25 651.82
  A 0.47 0.46 45.6 0 1 436.04 651.83
  Q 441.77 661.15 448.72 667.77
  C 452.77 671.63 460.03 677.21 466.28 680.45
  Q 487.11 691.24 510.09 694.81
  Q 546.70 700.49 583.19 693.01
  C 610.24 687.47 635.15 674.85 650.67 651.39
  A 0.32 0.31 44.7 0 1 651.20 651.39
  C 655.02 657.12 659.25 662.79 664.86 667.34
  Q 681.42 680.79 701.99 687.55
  C 734.13 698.11 768.14 699.96 802.05 696.31
  Q 831.17 693.18 856.59 681.34
  Q 862.81 678.44 871.47 672.45
  Q 883.43 664.17 891.39 652.12
  A 0.44 0.44 0.0 0 1 892.14 652.14
  C 899.15 664.12 909.92 673.57 922.27 680.22
  C 937.54 688.43 955.62 693.74 972.50 695.93
  C 996.44 699.03 1021.51 698.31 1045.29 692.57
  Q 1062.55 688.40 1077.54 680.04
  Q 1086.31 675.14 1095.62 666.58
  C 1100.03 662.52 1103.79 657.28 1106.95 652.26
  A 0.38 0.37 -44.0 0 1 1107.59 652.27
  C 1111.92 659.71 1119.12 668.02 1126.69 673.47
  C 1142.38 684.77 1160.60 691.41 1179.78 694.63
  Q 1217.53 700.97 1254.96 692.96
  Q 1272.19 689.28 1288.18 680.93
  Q 1308.40 670.38 1320.79 651.53
  A 0.45 0.44 -43.9 0 1 1321.54 651.54
  C 1339.33 680.69 1376.23 692.94 1408.02 696.16
  C 1438.31 699.23 1469.64 696.11 1496.99 683.00
  Q 1510.02 676.75 1520.13 667.13
  Q 1529.00 658.70 1536.00 646.75
  Z
  M 780.2281 732.3042
  A 126.24 126.12 -84.3 0 0 642.1936 845.3938
  A 126.24 126.12 -84.3 0 0 755.1519 983.5358
  A 126.24 126.12 -84.3 0 0 893.1864 870.4462
  A 126.24 126.12 -84.3 0 0 780.2281 732.3042
  Z"
/>
<path fill="#fee73a" d="
  M 780.2281 732.3042
  A 126.24 126.12 -84.3 0 1 893.1864 870.4462
  A 126.24 126.12 -84.3 0 1 755.1519 983.5358
  A 126.24 126.12 -84.3 0 1 642.1936 845.3938
  A 126.24 126.12 -84.3 0 1 780.2281 732.3042
  Z
  M 779.58 757.21
  L 779.78 821.97
  A 0.84 0.83 -78.2 0 0 780.28 822.73
  L 785.38 824.92
  A 1.76 1.75 -52.4 0 0 787.15 824.68
  L 838.07 784.92
  A 0.62 0.61 -40.3 0 0 838.14 784.01
  Q 836.01 781.67 832.18 778.61
  Q 809.22 760.27 780.37 756.51
  A 0.70 0.70 0.0 0 0 779.58 757.21
  Z
  M 755.69 757.17
  A 0.70 0.69 86.0 0 0 754.90 756.48
  Q 726.19 760.31 703.39 778.64
  Q 699.59 781.70 697.47 784.04
  A 0.62 0.61 40.1 0 0 697.55 784.94
  L 748.36 824.37
  A 1.76 1.74 52.2 0 0 750.13 824.60
  L 755.20 822.40
  A 0.83 0.83 0.0 0 0 755.69 821.64
  L 755.69 757.17
  Z
  M 665.54 859.92
  A 0.29 0.28 85.5 0 0 665.86 860.20
  L 731.39 851.43
  A 0.86 0.86 0.0 0 0 732.12 850.76
  L 733.61 844.10
  A 0.98 0.97 -64.8 0 0 733.26 843.11
  L 682.50 803.72
  A 0.94 0.94 0.0 0 0 681.15 803.93
  C 670.28 820.01 665.27 840.78 665.54 859.92
  Z
  M 802.84 847.29
  Q 802.85 847.32 803.53 850.31
  A 0.74 0.74 0.0 0 0 804.17 850.88
  L 868.87 857.98
  A 0.59 0.58 3.1 0 0 869.52 857.40
  Q 869.58 843.01 865.72 829.41
  Q 861.85 815.81 854.22 803.60
  A 0.59 0.58 -34.9 0 0 853.37 803.45
  L 802.08 843.53
  A 0.74 0.74 0.0 0 0 801.84 844.35
  Q 802.83 847.25 802.84 847.29
  Z
  M 786.87 856.87
  A 19.14 19.14 0.0 0 0 767.73 837.73
  A 19.14 19.14 0.0 0 0 748.59 856.87
  A 19.14 19.14 0.0 0 0 767.73 876.01
  A 19.14 19.14 0.0 0 0 786.87 856.87
  Z
  M 682.21 913.47
  Q 690.49 926.33 703.06 936.83
  A 0.58 0.58 0.0 0 0 703.92 936.70
  L 739.68 879.87
  A 0.90 0.90 0.0 0 0 739.66 878.88
  Q 739.12 878.07 738.56 877.21
  Q 738.01 876.35 737.50 875.52
  A 0.90 0.90 0.0 0 0 736.60 875.09
  L 670.06 884.08
  A 0.58 0.58 0.0 0 0 669.59 884.81
  Q 673.93 900.61 682.21 913.47
  Z
  M 797.09 877.61
  Q 796.65 878.31 795.59 879.94
  A 0.88 0.87 -44.3 0 0 795.57 880.88
  L 829.80 938.01
  A 0.69 0.69 0.0 0 0 830.82 938.20
  Q 844.08 927.62 853.15 913.43
  Q 862.21 899.25 866.24 882.78
  A 0.69 0.69 0.0 0 0 865.65 881.93
  L 799.42 874.85
  A 0.88 0.87 -70.5 0 0 798.58 875.26
  Q 797.54 876.91 797.09 877.61
  Z
  M 766.67 960.38
  Q 788.72 960.62 809.12 951.52
  A 0.71 0.71 0.0 0 0 809.44 950.51
  L 774.83 892.76
  A 1.08 1.07 70.3 0 0 773.75 892.24
  Q 770.56 892.69 767.41 892.65
  Q 764.27 892.62 761.09 892.10
  A 1.08 1.07 -69.1 0 0 760.00 892.60
  L 724.13 949.57
  A 0.71 0.71 0.0 0 0 724.42 950.59
  Q 744.62 960.14 766.67 960.38
  Z"
/>
<path fill="#3650aa" d="
  M 779.58 757.21
  A 0.70 0.70 0.0 0 1 780.37 756.51
  Q 809.22 760.27 832.18 778.61
  Q 836.01 781.67 838.14 784.01
  A 0.62 0.61 -40.3 0 1 838.07 784.92
  L 787.15 824.68
  A 1.76 1.75 -52.4 0 1 785.38 824.92
  L 780.28 822.73
  A 0.84 0.83 -78.2 0 1 779.78 821.97
  L 779.58 757.21
  Z"
/>
<path fill="#3650aa" d="
  M 755.69 757.17
  L 755.69 821.64
  A 0.83 0.83 0.0 0 1 755.20 822.40
  L 750.13 824.60
  A 1.76 1.74 52.2 0 1 748.36 824.37
  L 697.55 784.94
  A 0.62 0.61 40.1 0 1 697.47 784.04
  Q 699.59 781.70 703.39 778.64
  Q 726.19 760.31 754.90 756.48
  A 0.70 0.69 86.0 0 1 755.69 757.17
  Z"
/>
<path fill="#3650aa" d="
  M 665.54 859.92
  C 665.27 840.78 670.28 820.01 681.15 803.93
  A 0.94 0.94 0.0 0 1 682.50 803.72
  L 733.26 843.11
  A 0.98 0.97 -64.8 0 1 733.61 844.10
  L 732.12 850.76
  A 0.86 0.86 0.0 0 1 731.39 851.43
  L 665.86 860.20
  A 0.29 0.28 85.5 0 1 665.54 859.92
  Z"
/>
<path fill="#3650aa" d="
  M 865.72 829.41
  Q 869.58 843.01 869.52 857.40
  A 0.59 0.58 3.1 0 1 868.87 857.98
  L 804.17 850.88
  A 0.74 0.74 0.0 0 1 803.53 850.31
  Q 802.85 847.32 802.84 847.29
  Q 802.83 847.25 801.84 844.35
  A 0.74 0.74 0.0 0 1 802.08 843.53
  L 853.37 803.45
  A 0.59 0.58 -34.9 0 1 854.22 803.60
  Q 861.85 815.81 865.72 829.41
  Z"
/>
<circle fill="#3650aa" cx="767.73" cy="856.87" r="19.14"/>
<path fill="#3650aa" d="
  M 738.56 877.21
  Q 739.12 878.07 739.66 878.88
  A 0.90 0.90 0.0 0 1 739.68 879.87
  L 703.92 936.70
  A 0.58 0.58 0.0 0 1 703.06 936.83
  Q 690.49 926.33 682.21 913.47
  Q 673.93 900.61 669.59 884.81
  A 0.58 0.58 0.0 0 1 670.06 884.08
  L 736.60 875.09
  A 0.90 0.90 0.0 0 1 737.50 875.52
  Q 738.01 876.35 738.56 877.21
  Z"
/>
<path fill="#3650aa" d="
  M 853.15 913.43
  Q 844.08 927.62 830.82 938.20
  A 0.69 0.69 0.0 0 1 829.80 938.01
  L 795.57 880.88
  A 0.88 0.87 -44.3 0 1 795.59 879.94
  Q 796.65 878.31 797.09 877.61
  Q 797.54 876.91 798.58 875.26
  A 0.88 0.87 -70.5 0 1 799.42 874.85
  L 865.65 881.93
  A 0.69 0.69 0.0 0 1 866.24 882.78
  Q 862.21 899.25 853.15 913.43
  Z"
/>
<path fill="#3650aa" d="
  M 767.41 892.65
  Q 770.56 892.69 773.75 892.24
  A 1.08 1.07 70.3 0 1 774.83 892.76
  L 809.44 950.51
  A 0.71 0.71 0.0 0 1 809.12 951.52
  Q 788.72 960.62 766.67 960.38
  Q 744.62 960.14 724.42 950.59
  A 0.71 0.71 0.0 0 1 724.13 949.57
  L 760.00 892.60
  A 1.08 1.07 -69.1 0 1 761.09 892.10
  Q 764.27 892.62 767.41 892.65
  Z"
/>
<path fill="#ffffff" d="
  M 1536.00 1023.41
  L 1536.00 1024.00
  L 1535.61 1024.00
  Q 1535.73 1023.64 1536.00 1023.41
  Z"
/>
</svg>
