<svg xmlns="http://www.w3.org/2000/svg" viewBox="0 0 1540 1021"><g fill="none" stroke-width="2"><path stroke="#8d8f8c" d="M72.66 0q-.47 8.03-.14 11.75.28 3.25 2.85 17.55 4.77 26.48 7.24 54.28 1.82 20.47 1.29 37.89c-.9 29.3-4.49 58.8-13.92 85.03q-6.89 19.19-10.22 30.94-13.07 46.21-2.88 92.7 6.59 30.09 25.02 53.57c21.21 27.01 54.38 40.58 87.22 42.62 11.82.74 25.44.7 37.4-2.41a1.7 1.7 0 0 0 .86-2.72c-6.9-8.23-20.25-20.86-13-32.8 4.86-8.01 13.89-9.07 21.99-7.23 14.94 3.4 30.13 13.34 41.4 18.81q27.43 13.32 56.24 14.13 20.11.56 37.93-4.78a10.7 10.62-48.2 0 1 4.92-.29q4.37.76 7.51 1.07c4.04.39 9.95-.68 14.69-2.62q8.75-3.59 16.93-7.67a1.35 1.35 0 0 0 .18-2.3q-7.67-5.46-17.03-12.62-4.1-3.14-8.77-3.77-13.31-1.8-20.36 7.72a2.32 2.3 15.1 0 1-1.65.94q-26.37 2.67-48.95-11.24c-11.93-7.34-29.68-24.08-24.88-40.53q2-6.82 6.34-9.67c7.51-4.93 15.23 1.43 17.45 8.65 2.53 8.21 4.44 14.82 13.66 16.05q6.43.86 13.92.09 40.23-4.14 74.35-25.11a126 126 0 0 0 28.16-23.62.33.32-46.9 0 1 .45-.02q35.76 33.04 65.19 71.06 18.79 24.29 33.75 50.5 23.31 40.84 34.71 86.79 5.71 23.03 6.22 48.23 1.1 54.84-16.05 106.15a.7.7 23.8 0 1-.99.38q-27.61-15.61-60.14-13.57-10.73.67-21.04 2.02a1.41 1.4-13.2 0 1-1.51-.93q-10.75-31.15-19.27-56.25-3.56-10.48-20.67-68.14-4.46-15.02-8.92-25.76-1.12-2.7-5.38-10.5-2-3.66-8.89-10.13c-25-23.5-63.74-28.7-97.78-31.01-22.15-1.5-41.32-2.45-60.37-.05q-9.16 1.15-17.97 3.83-27.35 8.31-34.93 35.1a6.72 6.69 75.9 0 1-1.76 2.95c-19.13 18.59-31.54 41.2-40.7 66.15a1.8 1.8 0 0 1-2.05 1.12c-19.43-4.34-32.41 12.36-36.71 29.04-2.88 11.16-6.6 29.5-10.57 43.01q-7.68 26.13-16.66 50.15c-1.72 4.58-4.1 9.65-5.73 13.81a1.93 1.91 4.8 0 1-1.41 1.18c-20.26 4.06-39.45 15.7-48.42 34.72-6.81 14.45-7.73 32.43-5.19 48.73q1.13 7.22 5.11 25.94a.33.33 0 0 1-.53.32L0 784.6" vector-effect="non-scaling-stroke"/><path stroke="#8d8f8c" d="M374.78 367a.87.87 0 0 0-.71-1.36h-7.81a1.11 1.09 74.7 0 1-.95-.55l-3.33-5.76a1.16 1.16 0 0 0-2.11.21l-2 5.96a1.36 1.35 9.2 0 1-1.29.92h-6.41a1.21 1.2 70 0 0-.92 1.98l4.39 5.22a2.17 2.15-61.3 0 1 .48 1.68l-.68 4.86a1.55 1.54-9.3 0 0 2.22 1.59l5.67-2.86a1.73 1.72 35.7 0 1 .99-.16l7.11 1a1.22 1.21-2.9 0 0 1.35-1.49l-.87-3.55a1.18 1.14-35.3 0 1 .17-.9l4.7-6.79M75.74 0l.47.29" vector-effect="non-scaling-stroke"/><path stroke="#1b6182" d="M76.21.29q-.32.25-.32.46-.2 9.99 1.07 17.76c4.25 26 7.41 44.5 9.24 67.49q3.87 48.75-5.44 94.05-2.97 14.43-5.3 20.91-7.63 21.27-10.94 31.99-13.72 44.44-5.78 90.02c4.62 26.45 17.06 53.01 37.35 71.02q9.74 8.64 18.5 13.16 5.52 2.86 15.46 7.54 4.05 1.91 17.94 5.3 1.66.41 1.78-.54" vector-effect="non-scaling-stroke"/><path stroke="#888442" d="M149.77 419.45q.86 1.2 2.36 1.48c15.95 2.93 33.96 3.85 50.44.49a.4.4 64.7 0 0 .23-.66l-11.23-13.73" vector-effect="non-scaling-stroke"/><path stroke="#225b37" d="m191.57 407.03-.24-.58" vector-effect="non-scaling-stroke"/><path stroke="#1b6182" d="M191.33 406.45q-.06-.65-.78-2.49-3.52-9.02 1.24-17.93c4.26-7.98 14.8-9.76 22.96-8.53q7.93 1.19 17.06 5.54 10.1 4.82 23.63 12.03 19.15 10.23 40.63 13.89 7.63 1.3 14.41 1.53 11.35.38 14.52.24c9.96-.43 20.83-3.44 27.98-4.74 4.01-.73 9.2 1.2 13.33 1q2.94-.14 6.19-1.01 9.18-2.44 18.4-7.19a.59.58 46.8 0 0 .03-1.02q-7.24-4.39-13.03-9.65-3.68-3.35-9.43-3.87-10.91-.99-15.19 7.12a3.1 3.1 0 0 1-2.45 1.63c-12.42 1.07-25.85.35-37.49-4.26q-9.47-3.74-10.57-4.28-6.62-3.26-17.68-12.48-2.92-2.43-8.15-9.6-7.31-10-6.11-21.43c.6-5.75 2.99-10.78 7.49-14.55q2.55-2.13 4.26-2.39 11.81-1.74 17.75 9.01" vector-effect="non-scaling-stroke"/><path stroke="#888442" d="M300.33 333.02q2.04 5.51 4.19 11.23 1.65 4.35 6.56 5.14 6.25.99 11.18.76 11.95-.56 22.91-3.73" vector-effect="non-scaling-stroke"/><path stroke="#1b6182" d="M345.17 346.42q3.31-.53 6.3-1.12 3.19-.63 6.18-1.69c8.52-3.04 19.29-6.48 27.56-10.96q10.19-5.52 12.21-6.75 14.24-8.69 26.68-21.68c8.48-8.86 15.88-20.21 21.72-30.13q.64-1.09 6.82-13.22 4-7.87 5.96-13.6 1.53-4.46 5.47-13.42.77-1.76 3.69-10.19 1.88-5.42 4.16-10 12.03-24.2 30.51-43.48c13.51-14.08 27.08-24.56 44.03-36.6q4.81-3.42 6.67-4.51c5.75-3.37 11.09-7.46 16.94-10.75q16.54-9.31 25.08-13.65 13.77-6.99 28.7-10.01 3.78-.77 7.4-.9 18.65-.68 34.97-.68 5.77 0 15.04-.57c10.09-.63 14.98-.54 20.61-1.6a.75.75 0 0 0 .24-1.39q-4.48-2.62-10.2-3.41-13.03-1.78-27.58-.95a2.2 2.05-8.2 0 1-2.23-1.55c-.41-1.68 1.14-3.39 2.51-5.41a1.95 1.87 65.6 0 0 .33-.94q.17-1.97-2.3-2.43-.84-.16-7.93-1a3.17 3.14-10.9 0 1-2.4-1.61q-3.33-5.99-10.07-7.43-5.72-1.21-9.25-.8-6.81.8-8.74.96a5.3 5.3 60.5 0 1-3.59-1q-3.43-2.5-5.59-3.75c-6.99-4.03-10.27.72-15.77 3.81q-3.73 2.1-6.28-.4l-5.5-5.38c-5.34-4.96-18.18 1.91-23.33 4.8a2.63 2.63 0 0 1-3.5-.89c-3.12-4.93-5.53-9.73-12.48-7.91-7.8 2.04-13.53 6.35-19.24 10.92a2.46 2.46 0 0 1-3.53-.48q-1.51-2.09-2.79-3.5c-4.07-4.46-9.75-1.88-13.75 1.25q-9.19 7.17-16.14 16.79c-1.59 2.2-3.85 1.47-4.66-1.07-1.54-4.8-4.97-9.97-10.73-6.48q-2.33 1.42-3.09 2.41c-4.55 5.94-7.69 11.83-10.52 19.66q-2.46 6.82-4.6 11.94-.7 1.68-1.81 2.11a2.2 2.2 64.2 0 1-2.69-.95c-1.94-3.31-3.7-7.13-6.52-8.76a3.01 2.27-50.1 0 0-3.19.74q-2.21 2.16-3.55 5.63-5.24 13.5-6.82 28.86a2.07 2.07-83.6 0 1-2.3 1.84q-1.5-.18-2.89-1.54-3.92-3.84-7.01-5.66c-5.45-3.22-8.1 3.1-9.36 7.12q-3.4 10.84-3.85 21.44-.09 2.16-2.55 1.9a1.66 1.61 66.4 0 1-.83-.34c-3.82-2.93-9.56-6.66-13.28-1.32-3.61 5.19-4.9 12.16-5.67 18.58q-.68 5.71-1.16 16.7a1.56 1.56 0 0 1-2.5 1.17c-1.99-1.51-7.8-7.08-10.39-4.05-2.63 3.09-3.97 7.51-4.95 11.44q-3.89 15.49-4.2 29.77a1.68 1.67 9.9 0 1-2.21 1.55l-7.88-2.65a3.74 3.73-51.9 0 0-3.18.39q-3.18 2.01-4.8 5.66-6.41 14.41-9.59 28.59c-2.79 12.44-6.59 24.25-15.06 34.04-4.1 4.73-9.33 7.44-15.61 6-8.6-1.97-12.3-11.32-11.37-19.2 1.5-12.7 9.98-20.83 19.03-30.05a.31.31 0 0 0-.23-.52q-13.99.41-30.16.7c-27.19.48-57.75 11.21-73.1 35.07q-9.2 14.3-13.57 32.23-1.53 6.28-3.66 17.57c-1.64 8.69-5.06 15.31-11.89 20.62-5.17 4.02-10.39 8.28-17.17 5.75q-8.82-3.3-13.97-9.88c-8.06-10.31-7.39-27.04-7.23-39.19a4.3 4.2 58.7 0 1 .39-1.69q2.16-4.7 3.54-10.1c1.27-4.95-.69-8.71-3.53-12.37a2.8 2.8 0 0 1-.32-2.92q4.65-9.86 6.62-14.73c3.48-8.61 2.93-14.27-3.31-21.16a3 3 0 0 1-.51-3.25c4.13-9.15 7.28-14.74 7.89-22.05.36-4.35-2.48-4.38-5.5-5.69a1.94 1.92 19.1 0 1-1.11-2.26q1.14-4.36 5.64-16.24c1.37-3.63 10.52-30.37 4.9-34.65a1.44 1.36-21.3 0 0-.66-.27l-4.41-.62a1.66 1.62-21.6 0 1-.77-.32q-2.63-1.98-1.62-4.72c5.37-14.55 9.35-24.5 10.37-37.21q.32-4.02-.47-7.07a2.36 2.36 82.1 0 0-2.33-1.77c-2.13.04-8.99 1.99-8.14-2.69q1.82-10.13 1.43-20.83c-.16-4.5-2.2-10.89-7.14-11.8q-2.92-.54-3.59-.68a3.08 3.07 8.7 0 1-2.43-3.3c.67-7.02 1.28-13.48-.29-20.24q-.66-2.8-3.36-2.11-2.54.66-5.17 1.24a2.21 2.13-46.1 0 1-.8.03q-2.65-.35-2.4-3c.85-8.69 1.28-21.31-2.79-28.09a3.3 3.3 69.9 0 0-3.34-1.56c-4.77.77-9.25 2.19-11.68-.69q-.74-.87-.89-5.14-.33-9.57-3.29-18.88" vector-effect="non-scaling-stroke"/><path stroke="#8d8f8c" d="M102.92.2q.26.01.26-.2m2.99 0q3.18 10.42 3.87 21.05a1.4 1.4 0 0 0 1.59 1.32l8.17-.96a1.3 1.19-37.1 0 1 .52.05q4.7 1.53 5.97 5.85 3.73 12.68 2.23 26.37a.49.48-6.2 0 0 .64.51c2.12-.73 5.31-1.86 7.44-.7 4.14 2.26 4.85 8.81 4.68 12.78q-.27 6.09-.77 11.48a.9.9 0 0 0 .82 1c8.77.91 11.75 8.33 12.17 16.01q.52 9.68-1.22 19.87a.5.5 0 0 0 .53.58q3.39-.29 5.58.18c11.98 2.57-3.16 42.89-6.07 49.76a.73.73 0 0 0 .64 1.02q3.12.16 5.2 1.18c10.43 5.13-5.25 43.95-8.43 52.47a.85.85 0 0 0 .54 1.11c4.27 1.34 6.5 4.78 5.81 9.13-1.15 7.2-4.22 14.51-7.67 21.14a1.52 1.51-49.4 0 0 .12 1.6q.58.81 2 2.5 4.99 5.96 3.5 13.7c-1.41 7.29-4.85 14.24-8.56 21.04a1.47 1.46 41.9 0 0 .09 1.55c3.05 4.31 4.31 7.14 3.78 12.73q-.58 6.15-3.59 11.68a3.22 3.17 59.9 0 0-.4 1.55c-.13 17.29-.93 38.54 18.34 45.22q2.88 1 4.55.47c11.18-3.52 18.87-13.22 20.98-24.55q2.51-13.51 5.17-23.04c5.62-20.1 17.08-39.26 35.57-49.99q21.25-12.33 46.8-13.89 13.36-.81 33.47-.87 3.45-.01 6.6-.93l5.89-1.71q8.19-1.94 14.87-4.93a3.1 3.1-5 0 0 1.72-2.04q1.82-7.04 6.3-12.33c4.34-5.11 8.79-2.41 13.97-1.1a.7.7 0 0 0 .89-.66q.5-15.4 4.69-29.8 1.64-5.65 3.97-9.16c3.92-5.93 8.08-3.22 12.86-.3a.5.5 0 0 0 .76-.43q-.16-14.14 4.06-26.93c2.04-6.17 7.25-13.09 14.66-9.06q2.23 1.21 3.97 2.33a.55.55 0 0 0 .85-.44q.41-9.51 2.84-17.77c2.17-7.36 7.56-15.78 16.32-9.77q3.12 2.14 5.39 4.44a.46.46 0 0 0 .78-.26q1.3-9.37 3.52-17.98 2.1-8.13 5.13-12.61c6.29-9.31 11.34-3.26 15.56 3a.54.53 37.1 0 0 .95-.13q1.96-5.91 5.04-13.33c3.32-7.99 10.55-25.29 22.25-21.01a4.64 4.37-14.7 0 1 1.14.62q3.46 2.58 5.28 6.84a.58.58 0 0 0 .98.14c6.03-7.42 11.45-13.78 18.91-17.92 7.14-3.97 12.06-2.83 16.83 3.83a.5.49 51.5 0 0 .72.09c5.9-5.03 13.98-10.09 21.97-10.96 6.52-.71 9.82 3.31 12.79 8.35a.84.83-28.8 0 0 1.11.32q5.83-3.02 10.84-4.89c9-3.34 14.58-1.04 20.51 6.04a1.73 1.72 51.3 0 0 2.36.27q2.77-2.1 5.83-3.85c7.84-4.47 13.89-.63 19.92 4.36a1.82 1.8 59.3 0 0 1.47.38c11.22-2.06 22.46-2.1 29.9 7.96a2.8 2.8 0 0 0 1.93 1.11q3.14.34 7.17 1.1c6.22 1.17 5.72 4.5 3.9 9.41a.4.4 0 0 0 .39.55q8.34-.09 18.01.55c6.6.43 17.23.94 20.05 7.23a2.65 2.58 62.5 0 1-1 3.32c-2.91 1.74-7.97 2.14-10.79 2.32q-15.41.96-56.02 1.71-16.13.29-29.23 5.43-13.74 5.38-29.67 14.58-19.8 11.44-35.74 22.75-19.78 14.03-36.49 30.78-25.57 25.63-38.18 59.65a.49.48 8.6 0 0 .49.65q40.93-2.41 80.47 1.21 62.36 5.7 121.07 29.62c55.03 22.41 105.36 62.35 141.67 109.8q56.27 73.53 83.06 162.92c2.61 8.71 6.25 19.74 8.73 29.16q15.12 57.38 19.15 72.23 6.2 22.84 13.85 44.15 12.75 35.56 34.36 64.93c39.77 54.04 94.75 96.36 158.28 118.41q49.48 17.17 103.68 18.2c21.7.41 44.12-2.21 64.4-6.73 41.8-9.3 81.4-26.16 119.18-48.52q48.67-28.79 92.49-66.5 15.46-13.3 30.16-27.87m0 4.65q-.23.25-.34.67" vector-effect="non-scaling-stroke"/><path stroke="#1b6182" d="m1539.66 737.04-.32.1a1.43 1.4-75 0 0-.61.36q-14.26 14.04-25.48 23.74c-36.25 31.35-76.51 59.6-119.3 81.69q-19.12 9.86-34.97 16.01c-10.9 4.22-16.06 6.4-26.17 9.66-32.19 10.41-65.5 16.53-98.82 16.1q-35.67-.46-72.42-9c-52.04-12.1-99.58-36.94-139.7-71.83-24-20.88-45.64-45.15-62.67-71.82-10.6-16.6-19.14-35.06-26.15-55.25-9.45-27.22-15.44-50.74-25.83-90.06-7.22-27.33-13.33-49.44-21.35-72.4q-20.15-57.74-52.57-108.16l-8.91-13.24a373 373 0 0 0-56.57-65.51q-19.91-18.29-45.44-35.16c-5.67-3.75-10.13-6.04-15.16-9.24q-5.09-3.24-11.71-6.57c-59.96-30.18-126.6-43.93-194.02-43.18q-15 .17-33.86.97a.55.54 9.8 0 0-.49.34q-8.85 23.09-21.41 45.42-6.25 11.12-14.17 20.53a1.2 1.2 0 0 0 .09 1.62q14.3 13.54 29.22 29.21 28.43 29.86 51.95 64.27c26.38 38.57 45.45 81.19 54.93 126.56 4.32 20.7 4.97 42.32 3.81 63.31q-2.23 40.14-14.65 79.52-2.3 7.28-6.85 18.73-5.45 13.71-7.62 18.44-9.2 20.11-17.82 34.97-16.68 28.76-37.69 55.02-21.84 27.31-51.38 49.78-2.1 1.6-5.65 3.95c-4.92 3.27-9.58 6.72-14.33 9.5q-23.65 13.81-44.56 21.79-38.12 14.53-79.01 18.16c-72.36 6.41-145.35-11.42-208.52-46.89q-3.48-1.95-20.01-11.84c-5.1-3.05-9.35-6.47-14.22-9.24-5.88-3.33-11.37-7.83-16.78-12.29-4.4-3.63-8.11-5.54-12.27-9.2q-9.22-8.1-18.74-15.54a1.59 1.57-18.8 0 0-.58-.28l-.53-.13" vector-effect="non-scaling-stroke"/><path stroke="#8d8f8c" d="M.35 789.96q-.13-.33-.35-.46" vector-effect="non-scaling-stroke"/><path stroke="#1b6182" d="M314.07 259.05c6.96-2.86 12.89-5.3 20.31-4.88a1 1 0 0 0 .99-.67l2.09-6.22a.32.32 0 0 0-.46-.38q-5.15 2.84-11.22 4.3c-5.49 1.31-8.44 3.67-11.91 7.57a.18.18 0 0 0 .2.28" vector-effect="non-scaling-stroke"/><path stroke="#8d8f8c" d="M333.59 257.05c-11.54-.02-26.16 6.55-32.32 16.52-4.62 7.47-6.66 20.5 2.01 26.05 7.19 4.6 14.6-2.28 18.32-8.03q4.53-7.01 5.74-10.3 3.79-10.36 6.73-23.64a.5.49-83.8 0 0-.48-.6" vector-effect="non-scaling-stroke"/><path stroke="#225b37" d="M306.32 708.84q-3.51-4.83-6.42-10.48c-2.63-5.1-3.96-15.88.72-21.24q7.45-8.55 22.14-24.11 9.55-10.12 36.07-40.43c2.52-2.87 5.82-7.48 8.41-10.52 5.71-6.71 7.84-13.05 7.38-21.8-.21-4.05-2.02-9.67-1.91-13.71q.19-6.5 2.91-12.08c1.77-3.64 6.46-7.58 8.54-10.32q5.53-7.28 13.69-17.6a4.64 4.53 78 0 0 .53-.84q2.52-5.01 3.04-5.81 6.27-9.47 12.26-19.36a1.1 1.1 0 0 0 .03-1.06q-3.98-7.82-8.57-11.36-4.24-3.27-7.07-5.75a56 56 0 0 0-14.06-9.14 173 173 0 0 0-45.79-13.31q-34.41-5.07-68.72-4.9-3.81.02-21.18 1.4-6.01.47-10.95 1.95-9.57 2.87-10.68 3.28-8.23 3.11-17.33 11.23c-5.86 5.22-7.77 11.77-10.41 19.58-1.08 3.2-3.7 5.36-6.22 7.76q-1.57 1.5-4.24 4.74-8.75 10.59-10.4 12.84c-4.45 6.07-8.55 15.05-12.85 22.38q-3.45 5.87-4.18 8.39-2.57 8.78-6.21 15.06-1.35 2.32-4.58 1.86-6.5-.94-13.88 1.16c-9.09 2.57-16.21 14.97-18.71 23.28q-1.41 4.7-6.89 28.78c-1.62 7.15-4.18 15.22-5.59 20.24-3.88 13.85-8.84 27.3-13.08 40.68q-1.19 3.75-3.34 8.79-1.24 2.91-3.14 8.88a.4.4 0 0 0 .42.52q9.38-.89 19.9-3.18c4.5-.98 9.07-1.32 14.25-2.11 4.09-.62 8.97-2.52 12.79-3.05q7-.97 24.13-3.02c12.15-1.45 29.2-2.14 37.61-2.43q23.62-.79 49.93 3.05c7.38 1.08 16.05 3.67 23.51 5.5 5.55 1.37 10.26 3.53 15.47 5.12q4.88 1.48 6.14 2.26 9.04 5.58 16.13 9.34a.31.31 0 0 0 .4-.46" vector-effect="non-scaling-stroke"/><path stroke="#225b37" d="M415.14 504.7q-3.32 4.93-6.23 10.25-2.12 3.88-6.51 10.05-7.6 10.68-14.73 18.56a83 83 0 0 0-10.02 14.13c-4.45 8.33.8 17.43-.06 26.76-.98 10.78-5.5 17.67-12.17 25.47q-16.97 19.81-21.88 25.63-.39.47-10.04 11.18-2.42 2.69-4.66 4.91c-4.46 4.45-7.47 8.49-11.63 12.27q-2.88 2.63-11.36 12.19c-3.78 4.27-6.19 8.98-4.45 14.73q1.74 5.78 1.93 6.59c1.69 7.27 7.87 15.04 12.9 18.62q11 7.82 18.97 16.7a1.11 1.1 43.5 0 0 1.68-.04q3.56-4.47 3.85-4.73c4.44-4.07 7.96-8.7 12.53-12.78 4.85-4.35 8.71-9.13 13.88-13.68q5.99-5.27 8.26-7.1 14.33-11.58 30.14-18.11 15.99-6.61 35.34-13c6.76-2.23 13.4-3.36 20.26-5.57a2.05 2-.2 0 0 1.3-1.28l1.46-4.35a.86.82-43.7 0 0 .02-.44c-1.57-7.15-4.73-14.32-7.03-21.29q-5.57-16.88-9.65-28.86c-4.99-14.69-9.15-28.99-12.9-41.42-1.54-5.1-2.2-8.74-3.72-12.78-2.91-7.7-4.73-16.14-7.53-23.97-2.07-5.82-3.67-12.8-6.92-18.6a.61.6-42.7 0 0-1.03-.04m49.15 151.55a.35.35 12.2 0 0 .32.49q.62-.02 1.02-.51a.6.54-80.9 0 0-.6-.94q-.37.19-.74.96" vector-effect="non-scaling-stroke"/><path stroke="#225b37" d="M431.65 680.54a.35.35 50.2 0 1-.04.49c-7.02 5.75-14.82 11.46-21.48 17.76q-5.28 4.98-8.46 7.69-8.72 7.42-10.02 8.91c-5.57 6.4-11.76 11.52-17.5 17.83q-5.98 6.58-13.38 15.14c-3.16 3.65-6.1 8.46-9.67 12.23-5.69 6.02-9.46 10.82-15.49 15.34q-1.52 1.15-4.7 4.16-4.3 4.06-11.9 10.18-3.58 2.88-5.91 5.34c-5.61 5.9-13.89 12.73-20.42 19.24q-13.76 13.71-26.6 26.88c-4.8 4.93-9.33 10.41-14.46 15.31a29.45 29.21-3.7 0 0-3.25 3.67c-4.16 5.56-9.39 9.45-13.52 14.97-2.48 3.31-3.79 4.52-6.97 7.77-1.99 2.03-3.48 4.42-5.12 6.49a.68.67 25 0 0 .4 1.08q6.48 1.31 13.69 1.19a1.47 1.43-72.6 0 0 1.17-.63l3.36-4.86a6.28 5.81 87.8 0 1 .71-.83q6.37-6.11 11.48-13.38a4.79 4.6-2.9 0 1 .93-.99q3.48-2.78 7.8-7.64 2.75-3.1 7.94-8.24 10.21-10.11 16.26-15.85 6.75-6.39 13.55-14.48 9.73-11.57 18.51-21c5-5.37 12.89-13.2 18.77-18.22 5.79-4.94 9.2-8.77 15.07-12.85q2.55-1.78 11.08-8.84a.4.4 0 0 1 .53.04l.01.01a.4.4-40.6 0 1-.05.58q-6.73 5.72-12.16 11.67c-3.29 3.6-7.06 5.77-10.46 9.42q-3.29 3.53-6.14 6.01c-6.11 5.31-10.36 10.32-15.68 15.28q-2.6 2.42-8.73 9.98-9.81 12.12-20.18 22.23-4.17 4.06-13.23 12.69c-5.46 5.2-9.88 10.61-15.15 15.2a4.43 4.25 88.8 0 0-.71.77q-5.13 7.14-10.89 12.58a.73.33-24.4 0 0-.07.08l-8.34 11.04a.51.5-73.1 0 0 .43.81q3.87-.22 5.84-.05 12.84 1.06 25.59.3a2 1.97-74.1 0 0 1.5-.85l12.43-17.97a.16.08-26.6 0 1 .03-.04c5.24-5.21 10.3-11.34 15.89-16.52q12.95-12.02 27.91-23.31 1.52-1.14 9.91-6.17l.08.01.17.2a.25.25 0 0 1-.03.35q-8.09 6.55-15.83 12.92-5.44 4.47-25.71 23.75-3.6 3.42-6.65 7.36c-2.88 3.72-6.21 6.87-8.95 10.61a4.96 4.66 76.9 0 0-.51.88q-1.45 3.14-4.34 7.24-.25.35-.3.81a.61.6-89.2 0 0 .65.67c6.7-.61 14.69-.81 22.5-1.98q14.4-2.15 17.65-2.78 43.72-8.55 83-29.78 17.17-9.28 31.5-20.22 32.81-25.04 57.04-57.96a2.58 2.55-39.5 0 0 .26-2.6c-2.71-5.83-4.32-11.15-7.08-16.03-3.19-5.62-5.06-10.19-8.49-14.76q-9.18-12.23-14.21-17.13-2.72-2.66-11.4-10.82v-.07l.17-.23a.2.2 0 0 1 .28-.04q20.21 15.82 34.25 37.36c1.64 2.51 3.22 6.84 5.23 10.17q2.41 4 3.2 9.08a.95.95 0 0 0 1.72.39q3.85-5.68 9.52-13.75 3.79-5.4 8.93-14.13 10.75-18.2 12.15-20.87 9.22-17.51 18.72-38.91c2.11-4.73 3.41-10.54 5.44-15.79a1.22 1.21 27.2 0 0-.47-1.46c-7.99-5.1-14.45-7.11-25.03-10.29-9.52-2.86-17.89-2.99-28.69-3.23-8-.18-15.51.33-22.55 3.83q-8.03 3.99-9.14 4.85c-6.19 4.82-12.03 8.54-16.63 13.11-4.53 4.5-9.76 8.68-14.31 13.73-4.29 4.78-11.42 12.16-16.3 18.62q-5.75 7.63-13.69 17.11c-1.75 2.09-3.75 6.76.13 7.84 8.15 2.26 15.98 2.07 24.33 1.09a.71.71 0 0 1 .62 1.17c-3.96 4.56-6.9 9.95-10.42 14.26q-11.04 13.49-18.36 20.21-7.67 7.03-16.72 12.85a.35.35 0 0 1-.46-.52q8.26-9.71 10.61-13.05 1.62-2.31 6.4-7.34 2.32-2.45 5.89-7.75a6.68 5.46 89.5 0 1 .61-.76q4.11-4.29 7.34-9.54a.98.73-86.8 0 1 .16-.19l3.88-3.15a.5.5 0 0 0-.13-.85q-.51-.2-.96-.12c-5.26.94-13.43 1.24-17.32-2.07q-5.06-4.31-1.06-9.84 5.18-7.16 12.15-16.28c2.79-3.65 5.75-6.52 9.56-10.78q16.05-17.96 22.65-24.02c6.32-5.8 9.52-9.3 15.35-12.98q6.28-3.96 7.94-5.24.53-.4.58-.92a.46.46 0 0 0-.52-.5q-2.87.37-6.83 1.38c-4.46 1.13-8.86 3.07-13.27 4.21-6.36 1.65-13.67 4.44-18.5 5.8-9.51 2.69-19.51 7.83-27.37 10.92q-2.7 1.06-5.39 2.61c-9 5.18-18.03 12.25-25.97 20q-12.23 11.95-18.64 18.84-4.96 5.34-6.57 6.77-4.58 4.09-6.72 6.61-5.08 5.98-12.76 13.98-5.99 6.24-12.51 14.18c-5.75 7-16.26 18.92-23.78 29.01q-3.41 4.58-7.84 10.02-9.44 11.61-15.51 23.85c-1.05 2.13-1.9 2.87-3.96 4.94q-8.03 8.05-15.31 15.03c-4.19 4.01-7.53 8.4-11.62 12.02-4.97 4.4-9.72 11.08-14.83 15.54-3.99 3.48-7.3 8.02-11.51 12.11a.69.69 0 0 0 .39 1.18l9.53 1.33a2.6 2.59 25 0 0 2.28-.82q4.61-5.09 8.23-10.43c3.23-4.77 7.48-7.75 10.82-12.43 3.07-4.31 7.93-8.31 11.54-12.18q29.65-31.76 51.08-51.75 11.25-10.5 31.23-28.68c1.95-1.77 4.3-4.32 6.81-6.51q1.67-1.46 4.91-5.08 9.06-10.12 14.53-16.87 4.05-5 8.6-9.66c7.46-7.63 11.75-13.09 19.01-19.43q4.11-3.58 10.56-9.61 3.65-3.41 14.77-12.29c6.32-5.04 13.15-9.22 19.76-14.19a.13.12 50.1 0 1 .17.02l.16.2" vector-effect="non-scaling-stroke"/><path stroke="#225b37" d="M210.9 842.57q-.02-.89.44-1.72 6.5-11.65 8.87-16.23c3.09-5.94 6.2-10.47 9.4-16.43q4.27-7.94 6.97-12.34c3.55-5.81 6.34-11.8 9.76-17.34q13.58-21.96 20.83-34.31c6.4-10.9 8.57-23.27 8.21-35.47q-.05-1.77-2.45-6.14a3.63 3.59 4.6 0 0-.99-1.15q-8.45-6.39-17.04-8.53-14.14-3.52-31.15-4.67-21.13-1.42-29.25-.98-17.55.96-28.82 3.46-3.95.87-6.13 1.83c-9.8 4.3-18.85 7.49-27.49 13.23q-11.84 7.87-16.49 12.51-10.61 10.57-13.74 14.78c-4.42 5.96-8.65 12.18-9.71 18.59a1.66 1.66 0 0 0 1.83 1.92l5.79-.69a.9.9 0 0 1 .99.96q-.29 3.57-1.81 7.09-3.22 7.48-8.31 17.37-7.07 13.74-11.51 29.3c-1.51 5.29-2.3 10.25-4.25 14.51-1.81 3.94-2.57 8.37-3.97 12.39-.74 2.16-.25 3.38 1.77 4.37q7.46 3.63 12.38 6.52c13.93 8.2 28.44 14.97 43.94 21.34q35.31 14.52 72.92 20.96a1.82 1.81 25.5 0 0 1.64-.57c4.64-5.11 10.17-9.81 14.11-14.7 3.23-4.01 7.36-7.05 10.83-11.21q4.2-5.04 8.11-8.89 11.58-11.38 19.79-19.2c2.78-2.65 4.75-5.04 6.33-8.74q2.77-6.48 5.09-9.61c7.08-9.53 11.81-16.33 17.65-23.07 5.6-6.45 10.59-13.24 16.34-20.05q6.28-7.43 19.26-22.37 5.66-6.51 12.15-12.49a1.47 1.46-46.1 0 0-.04-2.19c-7.26-6.26-13.03-12.69-20.7-17.8q-2.72-1.81-14.43-8.44c-6.49-3.68-12.91-6-18.92-9.15-2.32-1.21-6.58-2.54-8.74-3.2a.42.42 0 0 0-.52.53l.02.06a1.85 1.82-86.2 0 0 .93 1.08q5.56 2.74 7.13 7.89c3.08 10.09.81 18.15-2.09 27.79-3.92 13.04-12.84 24.49-19.86 36.55q-12.18 20.92-13.09 22.7c-2.24 4.4-4.6 9.24-7.02 13.1-4.86 7.75-9.89 16.58-15.67 24.64q-8.46 11.8-8.88 12.35a.23.23 0 0 1-.41-.14" vector-effect="non-scaling-stroke"/><path stroke="#225b37" d="M156.49 689.8q-.13 0-9.6 1.15-4.98.6-9.38 2.06-5.71 1.89-13 3.09c-5.56.92-11.06 3-15.53 5.14q-6.71 3.21-13.87 5.76a34.29 34.19-71 0 0-6.81 3.34q-2.46 1.57-10.62 6.57c-8.69 5.33-15.77 11.84-22.12 18.94q-5.96 6.67-10.82 16.59-4.58 9.32-6.51 18.71-1.37 6.64-2.5 13.52-.86 5.19-.71 13.69.14 8.31.32 14.46a1.4 1.4 0 0 0 .37.88q2.01 2.15 4.04 3.38 8.27 5 14 9.65c4.3 3.49 8.39 5.08 12.29 7.73a.8.8 0 0 0 1.19-.4l2.94-8.76a.57.33 75.1 0 0 .03-.11q.86-5.96 1.63-8.33c5.77-17.76 11.58-33.04 19.83-48.67q.65-1.25 5.76-11.66a.82.82 0 0 0-.75-1.18c-1.22.02-4.33.39-5.78-.3-2.81-1.33-2.71-4.54-1.52-7.27q6.65-15.22 19.08-27.1 2.59-2.47 10.01-8.96c8.9-7.79 19.26-13.03 31.63-18.86q3.48-1.64 6.49-2.34a.37.36 38.1 0 0-.09-.72" vector-effect="non-scaling-stroke"/><path stroke="#225b37" d="M31.2 792.78a.43.43 0 0 0 .84-.13q.02-4.37.21-8.6.13-2.94 1.53-8.45c2.4-9.47 3.88-16.12 7-22.32q4.73-9.38 13.04-20.67c2.28-3.1 5.46-5.44 7.54-7.77q1.74-1.96 6.39-5 3.28-2.13 9.53-7.04a5.73 5.71 12.6 0 1 1.03-.65q9.86-4.78 15.7-8.24c4.55-2.69 11.17-4.87 15.51-6.15a.26.25-10.9 0 0 .19-.27l-.06-.47a.24.24 0 0 0-.29-.21q-12.03 2.63-23.92 4.86-4.36.82-9.85 2.58c-6.45 2.08-13.66 3.85-19.09 7.52q-4.23 2.85-8.5 5.97c-4.94 3.6-7.32 6.87-11.22 12.56-4.09 5.99-6.17 13.53-7.65 20.09q-.93 4.1-1.44 18.62-.05 1.45.36 3.99 1.74 10.71 2.44 16.74.14 1.18.71 3.04" vector-effect="non-scaling-stroke"/><path stroke="#8cd0f4" d="M76.38 0q-.05.17-.17.29M102.25 0q.39.18.67.2" vector-effect="non-scaling-stroke"/><path stroke="#88c5aa" d="M345.17 346.42q3.15-2.24 5.96-4.36 2.64-2 5.65-4.74 7.86-7.17 12.78-12 5.96-5.85 19.23-21.29a.6.6 0 0 0-.03-.82l-.01-.02a.6.6 0 0 0-.77-.03q-18.17 15.77-35.71 27.35-6.89 4.54-11.44 6.97a.2.19 10.6 0 1-.22-.32q1.6-1.34 3.36-2.71 15.28-11.93 25.64-27.82a.5.5 0 0 0-.33-.76q-.28-.05-.87.3-4.06 2.41-12.04 8.41c-10.81 8.13-21.64 14.87-33.46 20.04q-3.81 1.67-7.09 2.32a.34.33-13.4 0 1-.4-.24l-.01-.01a.3.3 0 0 1 .18-.35q10.37-3.71 18.77-11.71 8.42-8.02 15.03-15.86a.53.53 0 0 0-.69-.79l-12.32 7.89q-16.74 10.7-36.05 17.15" vector-effect="non-scaling-stroke"/><path stroke="#229d9f" d="M191.33 406.45q-.55.56-1.57.41" vector-effect="non-scaling-stroke"/><path stroke="#88c5aa" d="M189.76 406.86q-6.35-1.94-8.67-3.45-3.89-2.53-6.96-4.12a.81.81 0 0 0-1.14.98q2.55 7.46 8.93 11.89a.25.24-21.7 0 1-.19.44q-10.88-2.24-19.17-9.57a1.33 1.25 29.7 0 0-2.12.51q-.26.85.37 2.02 3.64 6.76 9.53 10.52a.34.34 0 0 1-.28.61q-9.72-3.19-14.14-4.86-4.72-1.78-10.32-5.41-9.75-6.33-18.61-13.83a.37.37 0 0 0-.56.48c5.03 8.19 10.87 15.5 18.04 21.68q2.71 2.32 5.3 4.7m313.91-220.79a.3.3 0 0 0-.35.14q-16.17 35.49-24.82 52.98-4.3 8.68-15.24 29.71-.12.23-.03.48a.35.35 0 0 0 .55.15q4.88-3.98 7.96-7.62 10.96-12.96 16.74-27.46 5.88-14.75 7.74-21.31 5.26-18.55 7.69-26.62a.37.36 18.4 0 0-.23-.45h-.01m-357 5.23a.5.5 0 0 0-.57.3q-5.82 16.75-8.36 26-5.78 20.99-7.28 45.03c-.57 9.08.02 24.4 6.03 31.29a.81.8-53.3 0 0 1.34-.2q.09-.2.08-.58-.72-30.52 2.65-56.96 3.31-25.92 6.48-44.34a.5.5 0 0 0-.35-.54h-.02" vector-effect="non-scaling-stroke"/><path stroke="#1b6182" d="M369.61 391.37a2.81.75-4 0 0-2.85-.55 2.81.75-4 0 0-2.75.95 2.81.75-4 0 0 2.85.55 2.81.75-4 0 0 2.75-.95" vector-effect="non-scaling-stroke"/><path stroke="#8cd0f4" d="M1539.66 737.04q.1.64.34 1.09m0 282.28q-.27.23-.38.59M0 790.62q.26-.21.35-.66" vector-effect="non-scaling-stroke"/><path stroke="#1b6182" d="M362.12 375.14q1.7-.1 4.14 1.04a.31.3 9.5 0 0 .44-.31l-.38-3.18a1.16 1.13 67.3 0 1 .4-1.01l2.25-1.89a.71.71 0 0 0-.45-1.25h-3.62a1.95 1.93-10.2 0 1-1.82-1.25q-.9-2.39-1.53-2.35-.63.03-1.26 2.5a1.95 1.93 3.8 0 1-1.67 1.45l-3.6.41a.71.71 0 0 0-.3 1.29l2.44 1.62a1.16 1.13-73.7 0 1 .51.96l-.02 3.21a.31.3-15.9 0 0 .47.25q2.3-1.4 4-1.49" vector-effect="non-scaling-stroke"/><path stroke="#8fc05f" d="m189.76 406.86 1.81.17" vector-effect="non-scaling-stroke"/><path stroke="#225b37" d="M295.89 563.6q-.81.08-1.82.68-8.47 5.07-18.39 9.99c-4.2 2.08-8.87 5.15-12.06 6.82q-8.09 4.25-15.9 8.89c-4.63 2.76-9.31 4.55-13.61 7.09-5.14 3.04-12.06 5.76-18.13 9.15-5.2 2.91-9.71 4.59-14.69 7.18-6.89 3.58-14.84 5.73-22.15 8.83-3.24 1.37-21.07 7.21-20.76.71.24-5.06 3.21-9.77 6.5-13.46a5.44 4.76-11.4 0 0 .55-.72q7.32-11.63 13.32-18.52 8.55-9.82 13.41-16.06c2.3-2.94 8.3-6.84 11.13-11.58q.65-1.09 3.14-3.53 2.61-2.56 4.97-6.13a.92.92 0 0 0-.66-1.42q-6.95-.85-13.89-2.88c-4.31-1.26-10.7-3.42-6.83-8.88q1.71-2.42 3.5-3.72 7.46-5.4 14.28-8.45c3.93-1.75 7.92-4.57 11.28-6.11q3.83-1.75 8.61-4.31 7.53-4.04 17.39-7.51a.62.61-50.8 0 0-.12-1.19q-13.68-1.8-28.53-6.14-1.51-.44-2.29-1.28a2.11 2.09-50.2 0 1-.22-2.57c3.54-5.47 7.76-7.26 14.09-10.78q4.73-2.64 10.39-4.01 10.37-2.49 13.19-3.1a.46.46 0 0 0-.06-.91q-9.91-.67-18.93 3.2c-6.3 2.7-10.93 4.13-14.89 7.36-3.92 3.2-9.43 6.82-7.6 11.38a2.14 2.09-83.5 0 0 .73.94c3.63 2.63 9.73 4.45 14.1 5.23q6.63 1.19 9.44 1.86.31.08.42.32.22.45-.24.69c-5.93 3.1-11.47 4.99-16.38 7.92-4.73 2.81-11.31 5.08-16.25 8.44-5.08 3.46-7.73 4.84-11.07 7.99-3.48 3.27-8.75 7.57-3.75 12.31q2.17 2.07 3.71 2.66 6.69 2.59 14.84 3.46a.79.79 0 0 1 .54 1.27q-3.89 5.11-8.63 9.43a9.62 9.52-3.5 0 0-1.34 1.5q-3.2 4.42-7.08 8.63c-6.3 6.85-11.6 13.8-16.77 19.53-3.57 3.97-6.16 8.29-10.02 14.03q-3.08 4.59-6.94 13.55c-3 6.98 3.78 8.04 8.6 7.38q8.17-1.1 18.32-4.56c5.99-2.04 11.3-4.85 16.21-6.63q5.04-1.84 11.99-5.3 15.14-7.54 23.42-11.73c7.33-3.71 13.11-7.47 19.26-10.23 5.81-2.6 13.46-8.21 20.31-11.16 4.68-2.01 8.84-6.17 13.1-7.61a.95.94-78.6 0 1 1.01 1.52q-6.74 7.74-10.6 15.15a7.26 6.84 80.2 0 1-.8 1.21q-5.98 7.29-7.87 15.94c-1.01 4.6 2.51 6.07 6.25 4.47 9.46-4.05 17.85-8.34 25.94-14.38q3.29-2.45 17.82-12.91c4.34-3.12 9.09-5.47 12.8-8.79 2.27-2.03 3.51-2.74 6.51-4.65 3.85-2.45 7.63-6.52 10.78-8.64q2.39-1.61 5.85-5.17 2.39-2.46 7.82-6.6a20.7 20.58-87.2 0 0 2.46-2.24q7.93-8.58 16.31-16.6c1.48-1.41 2.04-2.43 3.3-4.37q1.42-2.2 5.39-11.04 4.23-9.42-3.16-16.53a2.35 2.23-8.7 0 0-.59-.41q-4.92-2.36-5.84-2.56c-8.96-2.01-19.73-1.35-28.76-1.26q-3.54.03-12.87 1.46c-10.39 1.59-18.88 3.83-26.74 10.07a.38.38 0 0 0 .39.64c16.04-7.17 33.1-8.83 51.14-9.35q3.52-.1 7.65.64c5.67 1.03 15.84 2.37 16.23 9.17.36 6.25-1.63 11.12-5.87 16.06q-2.16 2.52-5.75 7.58-1.9 2.67-6.48 6.99-8.34 7.83-11.31 10.47l-4.87 4.34q-8.12 7.02-20.12 16.4-3.75 2.94-5.44 3.99c-4.93 3.07-8.98 7.42-13.38 10.22-4.19 2.68-7.45 5.85-11.59 8.31q-5.13 3.06-10.23 6.71c-6.06 4.34-13.15 7.53-18.83 9.74a1.17 1.17 0 0 1-1.59-1.21q.27-2.63 1.69-5.63 3.78-8.03 10.23-15.95a14.56 14.28 78.6 0 0 1.7-2.61q4.28-8.33 11.21-17.17a.59.59 0 0 0-.53-.95" vector-effect="non-scaling-stroke"/><path stroke="#225b37" d="M283.85 535.72q-10.78 3.28-18.87 7.79c-7.23 4.04-11.33 5.94-16.84 9.95-3.55 2.58-7.1 4.41-10.32 7.05q-2.48 2.04-4.29 3.09c-5.86 3.43-11.08 7.78-16.58 11.14a5.08 4.76 5.7 0 0-.81.62q-4.63 4.46-10.82 8.55a7.27 6.53 3.1 0 0-1.03.83q-5.95 5.81-11.54 11c-3.83 3.57-6.95 9.33-9.57 13.38a.01.01 0 0 0 .01.02l.26.18a.25.25 0 0 0 .34-.04q3.59-4.31 7.89-7.85c2.57-2.12 5.15-5.16 6.93-7.07q2.37-2.52 5.61-4.86 4.25-3.07 9.48-8.04a6.07 5.85 5.5 0 1 .82-.65c5.63-3.6 10.68-8.57 15.67-11.58 4.02-2.41 6.5-4.69 11.16-7.5q3.01-1.82 7.53-5.26a1.53.74-50.2 0 1 .16-.11l35.02-20.14a.27.27 0 0 0-.21-.5M247.32 664.6q5.26-4.21 11.92-10.8c3.5-3.45 7.31-5.87 10.87-9.34q3.25-3.15 8.05-7.15 30.94-25.71 55.49-46.42 4.24-3.57 9.16-7.97c3.1-2.77 6.66-5.22 9.52-8.2a.2.2-46.4 0 0 0-.23l-.16-.2a.36.36 0 0 0-.49-.06q-1.79 1.27-7.09 5.6-4.43 3.62-22.43 16.84-6.49 4.78-28.25 22.24-8.77 7.04-24.64 21.2c-6.91 6.15-12.03 12.23-18.52 19.12q-2.67 2.83-3.68 5.19a.16.16 0 0 0 .25.18m26.9 208.59a.22.22 0 0 0 .35.25q5.49-5.23 8.72-9.29c2.86-3.6 5.95-5.92 9.07-9.41a213 213 0 0 1 13.82-13.8q26.33-24.56 54.22-48.14a.2.2 0 0 0 .07-.2q-.03-.11-.14-.25a.2.2 0 0 0-.28-.06 183 183 0 0 0-23.77 17.24q-23.2 19.55-44.34 41.56c-4.56 4.75-9.99 11.43-13.19 15.16q-2.76 3.21-4.53 6.94m-83.9-120.81-.41-.05a.92.89-19.5 0 1-.44-.2c-9.22-7.5-22.19-14.74-23.17-27.6-.49-6.42.51-12.52 4.42-18.11a1.6 1.6 0 0 0-.84-2.44q-1.41-.43-3.64-.21-5.13.51-12.81 2.12c-7.07 1.48-14.1 4.21-17.55 10.99-1.87 3.68 1.7 8.74 4.07 11.7 7.15 8.92 16.13 14.43 26.03 21q5.77 3.83 10.27 5.95 7.15 3.39 14.07 7.47a.44.44 0 0 1-.13.81q-17.03 3.61-24.69 5.15-2.95.59-6.11 2.19c-11.59 5.9 3.01 16.92 8.2 20.27q11.79 7.59 26 15.51a.23.23 0 0 0 .27-.38q-2.9-2.56-12.1-10.57-5.05-4.39-7.61-10.69c-3.3-8.11 3.04-12.41 9.85-14.55 5.34-1.68 11.15-3.26 16.86-3.19 4.12.05 8.55.41 10.19-1.04a1.3 1.3 0 0 0-.12-2.03q-7.14-4.89-15.54-8.74-3.58-1.63-5.01-3.33a.13.07 0 0 0-.06-.03" vector-effect="non-scaling-stroke"/></g><path fill="#fefefe" d="M72.66 0q-.47 8.03-.14 11.75.28 3.25 2.85 17.55 4.77 26.48 7.24 54.28 1.82 20.47 1.29 37.89c-.9 29.3-4.49 58.8-13.92 85.03q-6.89 19.19-10.22 30.94-13.07 46.21-2.88 92.7 6.59 30.09 25.02 53.57c21.21 27.01 54.38 40.58 87.22 42.62 11.82.74 25.44.7 37.4-2.41a1.7 1.7 0 0 0 .86-2.72c-6.9-8.23-20.25-20.86-13-32.8 4.86-8.01 13.89-9.07 21.99-7.23 14.94 3.4 30.13 13.34 41.4 18.81q27.43 13.32 56.24 14.13 20.11.56 37.93-4.78a10.7 10.62-48.2 0 1 4.92-.29q4.37.76 7.51 1.07c4.04.39 9.95-.68 14.69-2.62q8.75-3.59 16.93-7.67a1.35 1.35 0 0 0 .18-2.3q-7.67-5.46-17.03-12.62-4.1-3.14-8.77-3.77-13.31-1.8-20.36 7.72a2.32 2.3 15.1 0 1-1.65.94q-26.37 2.67-48.95-11.24c-11.93-7.34-29.68-24.08-24.88-40.53q2-6.82 6.34-9.67c7.51-4.93 15.23 1.43 17.45 8.65 2.53 8.21 4.44 14.82 13.66 16.05q6.43.86 13.92.09 40.23-4.14 74.35-25.11a126 126 0 0 0 28.16-23.62.33.32-46.9 0 1 .45-.02q35.76 33.04 65.19 71.06 18.79 24.29 33.75 50.5 23.31 40.84 34.71 86.79 5.71 23.03 6.22 48.23 1.1 54.84-16.05 106.15a.7.7 23.8 0 1-.99.38q-27.61-15.61-60.14-13.57-10.73.67-21.04 2.02a1.41 1.4-13.2 0 1-1.51-.93q-10.75-31.15-19.27-56.25-3.56-10.48-20.67-68.14-4.46-15.02-8.92-25.76-1.12-2.7-5.38-10.5-2-3.66-8.89-10.13c-25-23.5-63.74-28.7-97.78-31.01-22.15-1.5-41.32-2.45-60.37-.05q-9.16 1.15-17.97 3.83-27.35 8.31-34.93 35.1a6.72 6.69 75.9 0 1-1.76 2.95c-19.13 18.59-31.54 41.2-40.7 66.15a1.8 1.8 0 0 1-2.05 1.12c-19.43-4.34-32.41 12.36-36.71 29.04-2.88 11.16-6.6 29.5-10.57 43.01q-7.68 26.13-16.66 50.15c-1.72 4.58-4.1 9.65-5.73 13.81a1.93 1.91 4.8 0 1-1.41 1.18c-20.26 4.06-39.45 15.7-48.42 34.72-6.81 14.45-7.73 32.43-5.19 48.73q1.13 7.22 5.11 25.94a.33.33 0 0 1-.53.32L0 784.6V0zm302.12 367a.87.87 0 0 0-.71-1.36h-7.81a1.11 1.09 74.7 0 1-.95-.55l-3.33-5.76a1.16 1.16 0 0 0-2.11.21l-2 5.96a1.36 1.35 9.2 0 1-1.29.92h-6.41a1.21 1.2 70 0 0-.92 1.98l4.39 5.22a2.17 2.15-61.3 0 1 .48 1.68l-.68 4.86a1.55 1.54-9.3 0 0 2.22 1.59l5.67-2.86a1.73 1.72 35.7 0 1 .99-.16l7.11 1a1.22 1.21-2.9 0 0 1.35-1.49l-.87-3.55a1.18 1.14-35.3 0 1 .17-.9z"/><path fill="#1b1f1a" d="m75.74 0 .47.29q-.32.25-.32.46-.2 9.99 1.07 17.76c4.25 26 7.41 44.5 9.24 67.49q3.87 48.75-5.44 94.05-2.97 14.43-5.3 20.91-7.63 21.27-10.94 31.99-13.72 44.44-5.78 90.02c4.62 26.45 17.06 53.01 37.35 71.02q9.74 8.64 18.5 13.16 5.52 2.86 15.46 7.54 4.05 1.91 17.94 5.3 1.66.41 1.78-.54.86 1.2 2.36 1.48c15.95 2.93 33.96 3.85 50.44.49a.4.4 64.7 0 0 .23-.66l-11.23-13.73-.24-.58q-.06-.65-.78-2.49-3.52-9.02 1.24-17.93c4.26-7.98 14.8-9.76 22.96-8.53q7.93 1.19 17.06 5.54 10.1 4.82 23.63 12.03 19.15 10.23 40.63 13.89 7.63 1.3 14.41 1.53 11.35.38 14.52.24c9.96-.43 20.83-3.44 27.98-4.74 4.01-.73 9.2 1.2 13.33 1q2.94-.14 6.19-1.01 9.18-2.44 18.4-7.19a.59.58 46.8 0 0 .03-1.02q-7.24-4.39-13.03-9.65-3.68-3.35-9.43-3.87-10.91-.99-15.19 7.12a3.1 3.1 0 0 1-2.45 1.63c-12.42 1.07-25.85.35-37.49-4.26q-9.47-3.74-10.57-4.28-6.62-3.26-17.68-12.48-2.92-2.43-8.15-9.6-7.31-10-6.11-21.43c.6-5.75 2.99-10.78 7.49-14.55q2.55-2.13 4.26-2.39 11.81-1.74 17.75 9.01 2.04 5.51 4.19 11.23 1.65 4.35 6.56 5.14 6.25.99 11.18.76 11.95-.56 22.91-3.73 3.31-.53 6.3-1.12 3.19-.63 6.18-1.69c8.52-3.04 19.29-6.48 27.56-10.96q10.19-5.52 12.21-6.75 14.24-8.69 26.68-21.68c8.48-8.86 15.88-20.21 21.72-30.13q.64-1.09 6.82-13.22 4-7.87 5.96-13.6 1.53-4.46 5.47-13.42.77-1.76 3.69-10.19 1.88-5.42 4.16-10 12.03-24.2 30.51-43.48c13.51-14.08 27.08-24.56 44.03-36.6q4.81-3.42 6.67-4.51c5.75-3.37 11.09-7.46 16.94-10.75q16.54-9.31 25.08-13.65 13.77-6.99 28.7-10.01 3.78-.77 7.4-.9 18.65-.68 34.97-.68 5.77 0 15.04-.57c10.09-.63 14.98-.54 20.61-1.6a.75.75 0 0 0 .24-1.39q-4.48-2.62-10.2-3.41-13.03-1.78-27.58-.95a2.2 2.05-8.2 0 1-2.23-1.55c-.41-1.68 1.14-3.39 2.51-5.41a1.95 1.87 65.6 0 0 .33-.94q.17-1.97-2.3-2.43-.84-.16-7.93-1a3.17 3.14-10.9 0 1-2.4-1.61q-3.33-5.99-10.07-7.43-5.72-1.21-9.25-.8-6.81.8-8.74.96a5.3 5.3 60.5 0 1-3.59-1q-3.43-2.5-5.59-3.75c-6.99-4.03-10.27.72-15.77 3.81q-3.73 2.1-6.28-.4l-5.5-5.38c-5.34-4.96-18.18 1.91-23.33 4.8a2.63 2.63 0 0 1-3.5-.89c-3.12-4.93-5.53-9.73-12.48-7.91-7.8 2.04-13.53 6.35-19.24 10.92a2.46 2.46 0 0 1-3.53-.48q-1.51-2.09-2.79-3.5c-4.07-4.46-9.75-1.88-13.75 1.25q-9.19 7.17-16.14 16.79c-1.59 2.2-3.85 1.47-4.66-1.07-1.54-4.8-4.97-9.97-10.73-6.48q-2.33 1.42-3.09 2.41c-4.55 5.94-7.69 11.83-10.52 19.66q-2.46 6.82-4.6 11.94-.7 1.68-1.81 2.11a2.2 2.2 64.2 0 1-2.69-.95c-1.94-3.31-3.7-7.13-6.52-8.76a3.01 2.27-50.1 0 0-3.19.74q-2.21 2.16-3.55 5.63-5.24 13.5-6.82 28.86a2.07 2.07-83.6 0 1-2.3 1.84q-1.5-.18-2.89-1.54-3.92-3.84-7.01-5.66c-5.45-3.22-8.1 3.1-9.36 7.12q-3.4 10.84-3.85 21.44-.09 2.16-2.55 1.9a1.66 1.61 66.4 0 1-.83-.34c-3.82-2.93-9.56-6.66-13.28-1.32-3.61 5.19-4.9 12.16-5.67 18.58q-.68 5.71-1.16 16.7a1.56 1.56 0 0 1-2.5 1.17c-1.99-1.51-7.8-7.08-10.39-4.05-2.63 3.09-3.97 7.51-4.95 11.44q-3.89 15.49-4.2 29.77a1.68 1.67 9.9 0 1-2.21 1.55l-7.88-2.65a3.74 3.73-51.9 0 0-3.18.39q-3.18 2.01-4.8 5.66-6.41 14.41-9.59 28.59c-2.79 12.44-6.59 24.25-15.06 34.04-4.1 4.73-9.33 7.44-15.61 6-8.6-1.97-12.3-11.32-11.37-19.2 1.5-12.7 9.98-20.83 19.03-30.05a.31.31 0 0 0-.23-.52q-13.99.41-30.16.7c-27.19.48-57.75 11.21-73.1 35.07q-9.2 14.3-13.57 32.23-1.53 6.28-3.66 17.57c-1.64 8.69-5.06 15.31-11.89 20.62-5.17 4.02-10.39 8.28-17.17 5.75q-8.82-3.3-13.97-9.88c-8.06-10.31-7.39-27.04-7.23-39.19a4.3 4.2 58.7 0 1 .39-1.69q2.16-4.7 3.54-10.1c1.27-4.95-.69-8.71-3.53-12.37a2.8 2.8 0 0 1-.32-2.92q4.65-9.86 6.62-14.73c3.48-8.61 2.93-14.27-3.31-21.16a3 3 0 0 1-.51-3.25c4.13-9.15 7.28-14.74 7.89-22.05.36-4.35-2.48-4.38-5.5-5.69a1.94 1.92 19.1 0 1-1.11-2.26q1.14-4.36 5.64-16.24c1.37-3.63 10.52-30.37 4.9-34.65a1.44 1.36-21.3 0 0-.66-.27l-4.41-.62a1.66 1.62-21.6 0 1-.77-.32q-2.63-1.98-1.62-4.72c5.37-14.55 9.35-24.5 10.37-37.21q.32-4.02-.47-7.07a2.36 2.36 82.1 0 0-2.33-1.77c-2.13.04-8.99 1.99-8.14-2.69q1.82-10.13 1.43-20.83c-.16-4.5-2.2-10.89-7.14-11.8q-2.92-.54-3.59-.68a3.08 3.07 8.7 0 1-2.43-3.3c.67-7.02 1.28-13.48-.29-20.24q-.66-2.8-3.36-2.11-2.54.66-5.17 1.24a2.21 2.13-46.1 0 1-.8.03q-2.65-.35-2.4-3c.85-8.69 1.28-21.31-2.79-28.09a3.3 3.3 69.9 0 0-3.34-1.56c-4.77.77-9.25 2.19-11.68-.69q-.74-.87-.89-5.14-.33-9.57-3.29-18.88.26.01.26-.2h2.99q3.18 10.42 3.87 21.05a1.4 1.4 0 0 0 1.59 1.32l8.17-.96a1.3 1.19-37.1 0 1 .52.05q4.7 1.53 5.97 5.85 3.73 12.68 2.23 26.37a.49.48-6.2 0 0 .64.51c2.12-.73 5.31-1.86 7.44-.7 4.14 2.26 4.85 8.81 4.68 12.78q-.27 6.09-.77 11.48a.9.9 0 0 0 .82 1c8.77.91 11.75 8.33 12.17 16.01q.52 9.68-1.22 19.87a.5.5 0 0 0 .53.58q3.39-.29 5.58.18c11.98 2.57-3.16 42.89-6.07 49.76a.73.73 0 0 0 .64 1.02q3.12.16 5.2 1.18c10.43 5.13-5.25 43.95-8.43 52.47a.85.85 0 0 0 .54 1.11c4.27 1.34 6.5 4.78 5.81 9.13-1.15 7.2-4.22 14.51-7.67 21.14a1.52 1.51-49.4 0 0 .12 1.6q.58.81 2 2.5 4.99 5.96 3.5 13.7c-1.41 7.29-4.85 14.24-8.56 21.04a1.47 1.46 41.9 0 0 .09 1.55c3.05 4.31 4.31 7.14 3.78 12.73q-.58 6.15-3.59 11.68a3.22 3.17 59.9 0 0-.4 1.55c-.13 17.29-.93 38.54 18.34 45.22q2.88 1 4.55.47c11.18-3.52 18.87-13.22 20.98-24.55q2.51-13.51 5.17-23.04c5.62-20.1 17.08-39.26 35.57-49.99q21.25-12.33 46.8-13.89 13.36-.81 33.47-.87 3.45-.01 6.6-.93l5.89-1.71q8.19-1.94 14.87-4.93a3.1 3.1-5 0 0 1.72-2.04q1.82-7.04 6.3-12.33c4.34-5.11 8.79-2.41 13.97-1.1a.7.7 0 0 0 .89-.66q.5-15.4 4.69-29.8 1.64-5.65 3.97-9.16c3.92-5.93 8.08-3.22 12.86-.3a.5.5 0 0 0 .76-.43q-.16-14.14 4.06-26.93c2.04-6.17 7.25-13.09 14.66-9.06q2.23 1.21 3.97 2.33a.55.55 0 0 0 .85-.44q.41-9.51 2.84-17.77c2.17-7.36 7.56-15.78 16.32-9.77q3.12 2.14 5.39 4.44a.46.46 0 0 0 .78-.26q1.3-9.37 3.52-17.98 2.1-8.13 5.13-12.61c6.29-9.31 11.34-3.26 15.56 3a.54.53 37.1 0 0 .95-.13q1.96-5.91 5.04-13.33c3.32-7.99 10.55-25.29 22.25-21.01a4.64 4.37-14.7 0 1 1.14.62q3.46 2.58 5.28 6.84a.58.58 0 0 0 .98.14c6.03-7.42 11.45-13.78 18.91-17.92 7.14-3.97 12.06-2.83 16.83 3.83a.5.49 51.5 0 0 .72.09c5.9-5.03 13.98-10.09 21.97-10.96 6.52-.71 9.82 3.31 12.79 8.35a.84.83-28.8 0 0 1.11.32q5.83-3.02 10.84-4.89c9-3.34 14.58-1.04 20.51 6.04a1.73 1.72 51.3 0 0 2.36.27q2.77-2.1 5.83-3.85c7.84-4.47 13.89-.63 19.92 4.36a1.82 1.8 59.3 0 0 1.47.38c11.22-2.06 22.46-2.1 29.9 7.96a2.8 2.8 0 0 0 1.93 1.11q3.14.34 7.17 1.1c6.22 1.17 5.72 4.5 3.9 9.41a.4.4 0 0 0 .39.55q8.34-.09 18.01.55c6.6.43 17.23.94 20.05 7.23a2.65 2.58 62.5 0 1-1 3.32c-2.91 1.74-7.97 2.14-10.79 2.32q-15.41.96-56.02 1.71-16.13.29-29.23 5.43-13.74 5.38-29.67 14.58-19.8 11.44-35.74 22.75-19.78 14.03-36.49 30.78-25.57 25.63-38.18 59.65a.49.48 8.6 0 0 .49.65q40.93-2.41 80.47 1.21 62.36 5.7 121.07 29.62c55.03 22.41 105.36 62.35 141.67 109.8q56.27 73.53 83.06 162.92c2.61 8.71 6.25 19.74 8.73 29.16q15.12 57.38 19.15 72.23 6.2 22.84 13.85 44.15 12.75 35.56 34.36 64.93c39.77 54.04 94.75 96.36 158.28 118.41q49.48 17.17 103.68 18.2c21.7.41 44.12-2.21 64.4-6.73 41.8-9.3 81.4-26.16 119.18-48.52q48.67-28.79 92.49-66.5 15.46-13.3 30.16-27.87v4.65q-.23.25-.34.67l-.32.1a1.43 1.4-75 0 0-.61.36q-14.26 14.04-25.48 23.74c-36.25 31.35-76.51 59.6-119.3 81.69q-19.12 9.86-34.97 16.01c-10.9 4.22-16.06 6.4-26.17 9.66-32.19 10.41-65.5 16.53-98.82 16.1q-35.67-.46-72.42-9c-52.04-12.1-99.58-36.94-139.7-71.83-24-20.88-45.64-45.15-62.67-71.82-10.6-16.6-19.14-35.06-26.15-55.25-9.45-27.22-15.44-50.74-25.83-90.06-7.22-27.33-13.33-49.44-21.35-72.4q-20.15-57.74-52.57-108.16l-8.91-13.24a373 373 0 0 0-56.57-65.51q-19.91-18.29-45.44-35.16c-5.67-3.75-10.13-6.04-15.16-9.24q-5.09-3.24-11.71-6.57c-59.96-30.18-126.6-43.93-194.02-43.18q-15 .17-33.86.97a.55.54 9.8 0 0-.49.34q-8.85 23.09-21.41 45.42-6.25 11.12-14.17 20.53a1.2 1.2 0 0 0 .09 1.62q14.3 13.54 29.22 29.21 28.43 29.86 51.95 64.27c26.38 38.57 45.45 81.19 54.93 126.56 4.32 20.7 4.97 42.32 3.81 63.31q-2.23 40.14-14.65 79.52-2.3 7.28-6.85 18.73-5.45 13.71-7.62 18.44-9.2 20.11-17.82 34.97-16.68 28.76-37.69 55.02-21.84 27.31-51.38 49.78-2.1 1.6-5.65 3.95c-4.92 3.27-9.58 6.72-14.33 9.5q-23.65 13.81-44.56 21.79-38.12 14.53-79.01 18.16c-72.36 6.41-145.35-11.42-208.52-46.89q-3.48-1.95-20.01-11.84c-5.1-3.05-9.35-6.47-14.22-9.24-5.88-3.33-11.37-7.83-16.78-12.29-4.4-3.63-8.11-5.54-12.27-9.2q-9.22-8.1-18.74-15.54a1.59 1.57-18.8 0 0-.58-.28l-.53-.13q-.13-.33-.35-.46v-4.9l30.2 24.63a.33.33 0 0 0 .53-.32q-3.98-18.72-5.11-25.94c-2.54-16.3-1.62-34.28 5.19-48.73 8.97-19.02 28.16-30.66 48.42-34.72a1.93 1.91 4.8 0 0 1.41-1.18c1.63-4.16 4.01-9.23 5.73-13.81q8.98-24.02 16.66-50.15c3.97-13.51 7.69-31.85 10.57-43.01 4.3-16.68 17.28-33.38 36.71-29.04a1.8 1.8 0 0 0 2.05-1.12c9.16-24.95 21.57-47.56 40.7-66.15a6.72 6.69 75.9 0 0 1.76-2.95q7.58-26.79 34.93-35.1 8.81-2.68 17.97-3.83c19.05-2.4 38.22-1.45 60.37.05 34.04 2.31 72.78 7.51 97.78 31.01q6.89 6.47 8.89 10.13 4.26 7.8 5.38 10.5 4.46 10.74 8.92 25.76 17.11 57.66 20.67 68.14 8.52 25.1 19.27 56.25a1.41 1.4-13.2 0 0 1.51.93q10.31-1.35 21.04-2.02 32.53-2.04 60.14 13.57a.7.7 23.8 0 0 .99-.38q17.15-51.31 16.05-106.15-.51-25.2-6.22-48.23-11.4-45.95-34.71-86.79-14.96-26.21-33.75-50.5-29.43-38.02-65.19-71.06a.33.32-46.9 0 0-.45.02 126 126 0 0 1-28.16 23.62Q366.13 349 325.9 353.14q-7.49.77-13.92-.09c-9.22-1.23-11.13-7.84-13.66-16.05-2.22-7.22-9.94-13.58-17.45-8.65q-4.34 2.85-6.34 9.67c-4.8 16.45 12.95 33.19 24.88 40.53q22.58 13.91 48.95 11.24a2.32 2.3 15.1 0 0 1.65-.94q7.05-9.52 20.36-7.72 4.67.63 8.77 3.77 9.36 7.16 17.03 12.62a1.35 1.35 0 0 1-.18 2.3q-8.18 4.08-16.93 7.67c-4.74 1.94-10.65 3.01-14.69 2.62q-3.14-.31-7.51-1.07a10.7 10.62-48.2 0 0-4.92.29q-17.82 5.34-37.93 4.78-28.81-.81-56.24-14.13c-11.27-5.47-26.46-15.41-41.4-18.81-8.1-1.84-17.13-.78-21.99 7.23-7.25 11.94 6.1 24.57 13 32.8a1.7 1.7 0 0 1-.86 2.72c-11.96 3.11-25.58 3.15-37.4 2.41-32.84-2.04-66.01-15.61-87.22-42.62q-18.43-23.48-25.02-53.57-10.19-46.49 2.88-92.7 3.33-11.75 10.22-30.94c9.43-26.23 13.02-55.73 13.92-85.03q.53-17.42-1.29-37.89-2.47-27.8-7.24-54.28Q72.8 15 72.52 11.75q-.33-3.72.14-11.75zm238.33 259.05c6.96-2.86 12.89-5.3 20.31-4.88a1 1 0 0 0 .99-.67l2.09-6.22a.32.32 0 0 0-.46-.38q-5.15 2.84-11.22 4.3c-5.49 1.31-8.44 3.67-11.91 7.57a.18.18 0 0 0 .2.28m19.52-2c-11.54-.02-26.16 6.55-32.32 16.52-4.62 7.47-6.66 20.5 2.01 26.05 7.19 4.6 14.6-2.28 18.32-8.03q4.53-7.01 5.74-10.3 3.79-10.36 6.73-23.64a.5.49-83.8 0 0-.48-.6m-27.27 451.79q-3.51-4.83-6.42-10.48c-2.63-5.1-3.96-15.88.72-21.24q7.45-8.55 22.14-24.11 9.55-10.12 36.07-40.43c2.52-2.87 5.82-7.48 8.41-10.52 5.71-6.71 7.84-13.05 7.38-21.8-.21-4.05-2.02-9.67-1.91-13.71q.19-6.5 2.91-12.08c1.77-3.64 6.46-7.58 8.54-10.32q5.53-7.28 13.69-17.6a4.64 4.53 78 0 0 .53-.84q2.52-5.01 3.04-5.81 6.27-9.47 12.26-19.36a1.1 1.1 0 0 0 .03-1.06q-3.98-7.82-8.57-11.36-4.24-3.27-7.07-5.75a56 56 0 0 0-14.06-9.14 173 173 0 0 0-45.79-13.31q-34.41-5.07-68.72-4.9-3.81.02-21.18 1.4-6.01.47-10.95 1.95-9.57 2.87-10.68 3.28-8.23 3.11-17.33 11.23c-5.86 5.22-7.77 11.77-10.41 19.58-1.08 3.2-3.7 5.36-6.22 7.76q-1.57 1.5-4.24 4.74-8.75 10.59-10.4 12.84c-4.45 6.07-8.55 15.05-12.85 22.38q-3.45 5.87-4.18 8.39-2.57 8.78-6.21 15.06-1.35 2.32-4.58 1.86-6.5-.94-13.88 1.16c-9.09 2.57-16.21 14.97-18.71 23.28q-1.41 4.7-6.89 28.78c-1.62 7.15-4.18 15.22-5.59 20.24-3.88 13.85-8.84 27.3-13.08 40.68q-1.19 3.75-3.34 8.79-1.24 2.91-3.14 8.88a.4.4 0 0 0 .42.52q9.38-.89 19.9-3.18c4.5-.98 9.07-1.32 14.25-2.11 4.09-.62 8.97-2.52 12.79-3.05q7-.97 24.13-3.02c12.15-1.45 29.2-2.14 37.61-2.43q23.62-.79 49.93 3.05c7.38 1.08 16.05 3.67 23.51 5.5 5.55 1.37 10.26 3.53 15.47 5.12q4.88 1.48 6.14 2.26 9.04 5.58 16.13 9.34a.31.31 0 0 0 .4-.46M415.14 504.7q-3.32 4.93-6.23 10.25-2.12 3.88-6.51 10.05-7.6 10.68-14.73 18.56a83 83 0 0 0-10.02 14.13c-4.45 8.33.8 17.43-.06 26.76-.98 10.78-5.5 17.67-12.17 25.47q-16.97 19.81-21.88 25.63-.39.47-10.04 11.18-2.42 2.69-4.66 4.91c-4.46 4.45-7.47 8.49-11.63 12.27q-2.88 2.63-11.36 12.19c-3.78 4.27-6.19 8.98-4.45 14.73q1.74 5.78 1.93 6.59c1.69 7.27 7.87 15.04 12.9 18.62q11 7.82 18.97 16.7a1.11 1.1 43.5 0 0 1.68-.04q3.56-4.47 3.85-4.73c4.44-4.07 7.96-8.7 12.53-12.78 4.85-4.35 8.71-9.13 13.88-13.68q5.99-5.27 8.26-7.1 14.33-11.58 30.14-18.11 15.99-6.61 35.34-13c6.76-2.23 13.4-3.36 20.26-5.57a2.05 2-.2 0 0 1.3-1.28l1.46-4.35a.86.82-43.7 0 0 .02-.44c-1.57-7.15-4.73-14.32-7.03-21.29q-5.57-16.88-9.65-28.86c-4.99-14.69-9.15-28.99-12.9-41.42-1.54-5.1-2.2-8.74-3.72-12.78-2.91-7.7-4.73-16.14-7.53-23.97-2.07-5.82-3.67-12.8-6.92-18.6a.61.6-42.7 0 0-1.03-.04m49.15 151.55a.35.35 12.2 0 0 .32.49q.62-.02 1.02-.51a.6.54-80.9 0 0-.6-.94q-.37.19-.74.96m-32.64 24.29a.35.35 50.2 0 1-.04.49c-7.02 5.75-14.82 11.46-21.48 17.76q-5.28 4.98-8.46 7.69-8.72 7.42-10.02 8.91c-5.57 6.4-11.76 11.52-17.5 17.83q-5.98 6.58-13.38 15.14c-3.16 3.65-6.1 8.46-9.67 12.23-5.69 6.02-9.46 10.82-15.49 15.34q-1.52 1.15-4.7 4.16-4.3 4.06-11.9 10.18-3.58 2.88-5.91 5.34c-5.61 5.9-13.89 12.73-20.42 19.24q-13.76 13.71-26.6 26.88c-4.8 4.93-9.33 10.41-14.46 15.31a29.45 29.21-3.7 0 0-3.25 3.67c-4.16 5.56-9.39 9.45-13.52 14.97-2.48 3.31-3.79 4.52-6.97 7.77-1.99 2.03-3.48 4.42-5.12 6.49a.68.67 25 0 0 .4 1.08q6.48 1.31 13.69 1.19a1.47 1.43-72.6 0 0 1.17-.63l3.36-4.86a6.28 5.81 87.8 0 1 .71-.83q6.37-6.11 11.48-13.38a4.79 4.6-2.9 0 1 .93-.99q3.48-2.78 7.8-7.64 2.75-3.1 7.94-8.24 10.21-10.11 16.26-15.85 6.75-6.39 13.55-14.48 9.73-11.57 18.51-21c5-5.37 12.89-13.2 18.77-18.22 5.79-4.94 9.2-8.77 15.07-12.85q2.55-1.78 11.08-8.84a.4.4 0 0 1 .53.04l.01.01a.4.4-40.6 0 1-.05.58q-6.73 5.72-12.16 11.67c-3.29 3.6-7.06 5.77-10.46 9.42q-3.29 3.53-6.14 6.01c-6.11 5.31-10.36 10.32-15.68 15.28q-2.6 2.42-8.73 9.98-9.81 12.12-20.18 22.23-4.17 4.06-13.23 12.69c-5.46 5.2-9.88 10.61-15.15 15.2a4.43 4.25 88.8 0 0-.71.77q-5.13 7.14-10.89 12.58a.73.33-24.4 0 0-.07.08l-8.34 11.04a.51.5-73.1 0 0 .43.81q3.87-.22 5.84-.05 12.84 1.06 25.59.3a2 1.97-74.1 0 0 1.5-.85l12.43-17.97a.16.08-26.6 0 1 .03-.04c5.24-5.21 10.3-11.34 15.89-16.52q12.95-12.02 27.91-23.31 1.52-1.14 9.91-6.17l.08.01.17.2a.25.25 0 0 1-.03.35q-8.09 6.55-15.83 12.92-5.44 4.47-25.71 23.75-3.6 3.42-6.65 7.36c-2.88 3.72-6.21 6.87-8.95 10.61a4.96 4.66 76.9 0 0-.51.88q-1.45 3.14-4.34 7.24-.25.35-.3.81a.61.6-89.2 0 0 .65.67c6.7-.61 14.69-.81 22.5-1.98q14.4-2.15 17.65-2.78 43.72-8.55 83-29.78 17.17-9.28 31.5-20.22 32.81-25.04 57.04-57.96a2.58 2.55-39.5 0 0 .26-2.6c-2.71-5.83-4.32-11.15-7.08-16.03-3.19-5.62-5.06-10.19-8.49-14.76q-9.18-12.23-14.21-17.13-2.72-2.66-11.4-10.82v-.07l.17-.23a.2.2 0 0 1 .28-.04q20.21 15.82 34.25 37.36c1.64 2.51 3.22 6.84 5.23 10.17q2.41 4 3.2 9.08a.95.95 0 0 0 1.72.39q3.85-5.68 9.52-13.75 3.79-5.4 8.93-14.13 10.75-18.2 12.15-20.87 9.22-17.51 18.72-38.91c2.11-4.73 3.41-10.54 5.44-15.79a1.22 1.21 27.2 0 0-.47-1.46c-7.99-5.1-14.45-7.11-25.03-10.29-9.52-2.86-17.89-2.99-28.69-3.23-8-.18-15.51.33-22.55 3.83q-8.03 3.99-9.14 4.85c-6.19 4.82-12.03 8.54-16.63 13.11-4.53 4.5-9.76 8.68-14.31 13.73-4.29 4.78-11.42 12.16-16.3 18.62q-5.75 7.63-13.69 17.11c-1.75 2.09-3.75 6.76.13 7.84 8.15 2.26 15.98 2.07 24.33 1.09a.71.71 0 0 1 .62 1.17c-3.96 4.56-6.9 9.95-10.42 14.26q-11.04 13.49-18.36 20.21-7.67 7.03-16.72 12.85a.35.35 0 0 1-.46-.52q8.26-9.71 10.61-13.05 1.62-2.31 6.4-7.34 2.32-2.45 5.89-7.75a6.68 5.46 89.5 0 1 .61-.76q4.11-4.29 7.34-9.54a.98.73-86.8 0 1 .16-.19l3.88-3.15a.5.5 0 0 0-.13-.85q-.51-.2-.96-.12c-5.26.94-13.43 1.24-17.32-2.07q-5.06-4.31-1.06-9.84 5.18-7.16 12.15-16.28c2.79-3.65 5.75-6.52 9.56-10.78q16.05-17.96 22.65-24.02c6.32-5.8 9.52-9.3 15.35-12.98q6.28-3.96 7.94-5.24.53-.4.58-.92a.46.46 0 0 0-.52-.5q-2.87.37-6.83 1.38c-4.46 1.13-8.86 3.07-13.27 4.21-6.36 1.65-13.67 4.44-18.5 5.8-9.51 2.69-19.51 7.83-27.37 10.92q-2.7 1.06-5.39 2.61c-9 5.18-18.03 12.25-25.97 20q-12.23 11.95-18.64 18.84-4.96 5.34-6.57 6.77-4.58 4.09-6.72 6.61-5.08 5.98-12.76 13.98-5.99 6.24-12.51 14.18c-5.75 7-16.26 18.92-23.78 29.01q-3.41 4.58-7.84 10.02-9.44 11.61-15.51 23.85c-1.05 2.13-1.9 2.87-3.96 4.94q-8.03 8.05-15.31 15.03c-4.19 4.01-7.53 8.4-11.62 12.02-4.97 4.4-9.72 11.08-14.83 15.54-3.99 3.48-7.3 8.02-11.51 12.11a.69.69 0 0 0 .39 1.18l9.53 1.33a2.6 2.59 25 0 0 2.28-.82q4.61-5.09 8.23-10.43c3.23-4.77 7.48-7.75 10.82-12.43 3.07-4.31 7.93-8.31 11.54-12.18q29.65-31.76 51.08-51.75 11.25-10.5 31.23-28.68c1.95-1.77 4.3-4.32 6.81-6.51q1.67-1.46 4.91-5.08 9.06-10.12 14.53-16.87 4.05-5 8.6-9.66c7.46-7.63 11.75-13.09 19.01-19.43q4.11-3.58 10.56-9.61 3.65-3.41 14.77-12.29c6.32-5.04 13.15-9.22 19.76-14.19a.13.12 50.1 0 1 .17.02zM210.9 842.57q-.02-.89.44-1.72 6.5-11.65 8.87-16.23c3.09-5.94 6.2-10.47 9.4-16.43q4.27-7.94 6.97-12.34c3.55-5.81 6.34-11.8 9.76-17.34q13.58-21.96 20.83-34.31c6.4-10.9 8.57-23.27 8.21-35.47q-.05-1.77-2.45-6.14a3.63 3.59 4.6 0 0-.99-1.15q-8.45-6.39-17.04-8.53-14.14-3.52-31.15-4.67-21.13-1.42-29.25-.98-17.55.96-28.82 3.46-3.95.87-6.13 1.83c-9.8 4.3-18.85 7.49-27.49 13.23q-11.84 7.87-16.49 12.51-10.61 10.57-13.74 14.78c-4.42 5.96-8.65 12.18-9.71 18.59a1.66 1.66 0 0 0 1.83 1.92l5.79-.69a.9.9 0 0 1 .99.96q-.29 3.57-1.81 7.09-3.22 7.48-8.31 17.37-7.07 13.74-11.51 29.3c-1.51 5.29-2.3 10.25-4.25 14.51-1.81 3.94-2.57 8.37-3.97 12.39-.74 2.16-.25 3.38 1.77 4.37q7.46 3.63 12.38 6.52c13.93 8.2 28.44 14.97 43.94 21.34q35.31 14.52 72.92 20.96a1.82 1.81 25.5 0 0 1.64-.57c4.64-5.11 10.17-9.81 14.11-14.7 3.23-4.01 7.36-7.05 10.83-11.21q4.2-5.04 8.11-8.89 11.58-11.38 19.79-19.2c2.78-2.65 4.75-5.04 6.33-8.74q2.77-6.48 5.09-9.61c7.08-9.53 11.81-16.33 17.65-23.07 5.6-6.45 10.59-13.24 16.34-20.05q6.28-7.43 19.26-22.37 5.66-6.51 12.15-12.49a1.47 1.46-46.1 0 0-.04-2.19c-7.26-6.26-13.03-12.69-20.7-17.8q-2.72-1.81-14.43-8.44c-6.49-3.68-12.91-6-18.92-9.15-2.32-1.21-6.58-2.54-8.74-3.2a.42.42 0 0 0-.52.53l.02.06a1.85 1.82-86.2 0 0 .93 1.08q5.56 2.74 7.13 7.89c3.08 10.09.81 18.15-2.09 27.79-3.92 13.04-12.84 24.49-19.86 36.55q-12.18 20.92-13.09 22.7c-2.24 4.4-4.6 9.24-7.02 13.1-4.86 7.75-9.89 16.58-15.67 24.64q-8.46 11.8-8.88 12.35a.23.23 0 0 1-.41-.14M156.49 689.8q-.13 0-9.6 1.15-4.98.6-9.38 2.06-5.71 1.89-13 3.09c-5.56.92-11.06 3-15.53 5.14q-6.71 3.21-13.87 5.76a34.29 34.19-71 0 0-6.81 3.34q-2.46 1.57-10.62 6.57c-8.69 5.33-15.77 11.84-22.12 18.94q-5.96 6.67-10.82 16.59-4.58 9.32-6.51 18.71-1.37 6.64-2.5 13.52-.86 5.19-.71 13.69.14 8.31.32 14.46a1.4 1.4 0 0 0 .37.88q2.01 2.15 4.04 3.38 8.27 5 14 9.65c4.3 3.49 8.39 5.08 12.29 7.73a.8.8 0 0 0 1.19-.4l2.94-8.76a.57.33 75.1 0 0 .03-.11q.86-5.96 1.63-8.33c5.77-17.76 11.58-33.04 19.83-48.67q.65-1.25 5.76-11.66a.82.82 0 0 0-.75-1.18c-1.22.02-4.33.39-5.78-.3-2.81-1.33-2.71-4.54-1.52-7.27q6.65-15.22 19.08-27.1 2.59-2.47 10.01-8.96c8.9-7.79 19.26-13.03 31.63-18.86q3.48-1.64 6.49-2.34a.37.36 38.1 0 0-.09-.72M31.2 792.78a.43.43 0 0 0 .84-.13q.02-4.37.21-8.6.13-2.94 1.53-8.45c2.4-9.47 3.88-16.12 7-22.32q4.73-9.38 13.04-20.67c2.28-3.1 5.46-5.44 7.54-7.77q1.74-1.96 6.39-5 3.28-2.13 9.53-7.04a5.73 5.71 12.6 0 1 1.03-.65q9.86-4.78 15.7-8.24c4.55-2.69 11.17-4.87 15.51-6.15a.26.25-10.9 0 0 .19-.27l-.06-.47a.24.24 0 0 0-.29-.21q-12.03 2.63-23.92 4.86-4.36.82-9.85 2.58c-6.45 2.08-13.66 3.85-19.09 7.52q-4.23 2.85-8.5 5.97c-4.94 3.6-7.32 6.87-11.22 12.56-4.09 5.99-6.17 13.53-7.65 20.09q-.93 4.1-1.44 18.62-.05 1.45.36 3.99 1.74 10.71 2.44 16.74.14 1.18.71 3.04"/><path fill="#fefefe" d="M76.38 0q-.05.17-.17.29L75.74 0z"/><path fill="#1aa2e9" d="M102.25 0q.39.18.67.2 2.96 9.31 3.29 18.88.15 4.27.89 5.14c2.43 2.88 6.91 1.46 11.68.69a3.3 3.3 69.9 0 1 3.34 1.56c4.07 6.78 3.64 19.4 2.79 28.09q-.25 2.65 2.4 3a2.21 2.13-46.1 0 0 .8-.03q2.63-.58 5.17-1.24 2.7-.69 3.36 2.11c1.57 6.76.96 13.22.29 20.24a3.08 3.07 8.7 0 0 2.43 3.3q.67.14 3.59.68c4.94.91 6.98 7.3 7.14 11.8q.39 10.7-1.43 20.83c-.85 4.68 6.01 2.73 8.14 2.69a2.36 2.36 82.1 0 1 2.33 1.77q.79 3.05.47 7.07c-1.02 12.71-5 22.66-10.37 37.21q-1.01 2.74 1.62 4.72a1.66 1.62-21.6 0 0 .77.32l4.41.62a1.44 1.36-21.3 0 1 .66.27c5.62 4.28-3.53 31.02-4.9 34.65q-4.5 11.88-5.64 16.24a1.94 1.92 19.1 0 0 1.11 2.26c3.02 1.31 5.86 1.34 5.5 5.69-.61 7.31-3.76 12.9-7.89 22.05a3 3 0 0 0 .51 3.25c6.24 6.89 6.79 12.55 3.31 21.16q-1.97 4.87-6.62 14.73a2.8 2.8 0 0 0 .32 2.92c2.84 3.66 4.8 7.42 3.53 12.37q-1.38 5.4-3.54 10.1a4.3 4.2 58.7 0 0-.39 1.69c-.16 12.15-.83 28.88 7.23 39.19q5.15 6.58 13.97 9.88c6.78 2.53 12-1.73 17.17-5.75 6.83-5.31 10.25-11.93 11.89-20.62q2.13-11.29 3.66-17.57 4.37-17.93 13.57-32.23c15.35-23.86 45.91-34.59 73.1-35.07q16.17-.29 30.16-.7a.31.31 0 0 1 .23.52c-9.05 9.22-17.53 17.35-19.03 30.05-.93 7.88 2.77 17.23 11.37 19.2 6.28 1.44 11.51-1.27 15.61-6 8.47-9.79 12.27-21.6 15.06-34.04q3.18-14.18 9.59-28.59 1.62-3.65 4.8-5.66a3.74 3.73-51.9 0 1 3.18-.39l7.88 2.65a1.68 1.67 9.9 0 0 2.21-1.55q.31-14.28 4.2-29.77c.98-3.93 2.32-8.35 4.95-11.44 2.59-3.03 8.4 2.54 10.39 4.05a1.56 1.56 0 0 0 2.5-1.17q.48-10.99 1.16-16.7c.77-6.42 2.06-13.39 5.67-18.58 3.72-5.34 9.46-1.61 13.28 1.32a1.66 1.61 66.4 0 0 .83.34q2.46.26 2.55-1.9.45-10.6 3.85-21.44c1.26-4.02 3.91-10.34 9.36-7.12q3.09 1.82 7.01 5.66 1.39 1.36 2.89 1.54a2.07 2.07-83.6 0 0 2.3-1.84q1.58-15.36 6.82-28.86 1.34-3.47 3.55-5.63a3.01 2.27-50.1 0 1 3.19-.74c2.82 1.63 4.58 5.45 6.52 8.76a2.2 2.2 64.2 0 0 2.69.95q1.11-.43 1.81-2.11 2.14-5.12 4.6-11.94c2.83-7.83 5.97-13.72 10.52-19.66q.76-.99 3.09-2.41c5.76-3.49 9.19 1.68 10.73 6.48.81 2.54 3.07 3.27 4.66 1.07q6.95-9.62 16.14-16.79c4-3.13 9.68-5.71 13.75-1.25q1.28 1.41 2.79 3.5a2.46 2.46 0 0 0 3.53.48c5.71-4.57 11.44-8.88 19.24-10.92 6.95-1.82 9.36 2.98 12.48 7.91a2.63 2.63 0 0 0 3.5.89c5.15-2.89 17.99-9.76 23.33-4.8l5.5 5.38q2.55 2.5 6.28.4c5.5-3.09 8.78-7.84 15.77-3.81q2.16 1.25 5.59 3.75a5.3 5.3 60.5 0 0 3.59 1q1.93-.16 8.74-.96 3.53-.41 9.25.8 6.74 1.44 10.07 7.43a3.17 3.14-10.9 0 0 2.4 1.61q7.09.84 7.93 1 2.47.46 2.3 2.43a1.95 1.87 65.6 0 1-.33.94c-1.37 2.02-2.92 3.73-2.51 5.41a2.2 2.05-8.2 0 0 2.23 1.55q14.55-.83 27.58.95 5.72.79 10.2 3.41a.75.75 0 0 1-.24 1.39c-5.63 1.06-10.52.97-20.61 1.6q-9.27.57-15.04.57-16.32 0-34.97.68-3.62.13-7.4.9-14.93 3.02-28.7 10.01-8.54 4.34-25.08 13.65c-5.85 3.29-11.19 7.38-16.94 10.75q-1.86 1.09-6.67 4.51c-16.95 12.04-30.52 22.52-44.03 36.6q-18.48 19.28-30.51 43.48-2.28 4.58-4.16 10-2.92 8.43-3.69 10.19-3.94 8.96-5.47 13.42-1.96 5.73-5.96 13.6-6.18 12.13-6.82 13.22c-5.84 9.92-13.24 21.27-21.72 30.13q-12.44 12.99-26.68 21.68-2.02 1.23-12.21 6.75c-8.27 4.48-19.04 7.92-27.56 10.96q-2.99 1.06-6.18 1.69-2.99.59-6.3 1.12 3.15-2.24 5.96-4.36 2.64-2 5.65-4.74 7.86-7.17 12.78-12 5.96-5.85 19.23-21.29a.6.6 0 0 0-.03-.82l-.01-.02a.6.6 0 0 0-.77-.03q-18.17 15.77-35.71 27.35-6.89 4.54-11.44 6.97a.2.19 10.6 0 1-.22-.32q1.6-1.34 3.36-2.71 15.28-11.93 25.64-27.82a.5.5 0 0 0-.33-.76q-.28-.05-.87.3-4.06 2.41-12.04 8.41c-10.81 8.13-21.64 14.87-33.46 20.04q-3.81 1.67-7.09 2.32a.34.33-13.4 0 1-.4-.24l-.01-.01a.3.3 0 0 1 .18-.35q10.37-3.71 18.77-11.71 8.42-8.02 15.03-15.86a.53.53 0 0 0-.69-.79l-12.32 7.89q-16.74 10.7-36.05 17.15-5.94-10.75-17.75-9.01-1.71.26-4.26 2.39c-4.5 3.77-6.89 8.8-7.49 14.55q-1.2 11.43 6.11 21.43 5.23 7.17 8.15 9.6 11.06 9.22 17.68 12.48 1.1.54 10.57 4.28c11.64 4.61 25.07 5.33 37.49 4.26a3.1 3.1 0 0 0 2.45-1.63q4.28-8.11 15.19-7.12 5.75.52 9.43 3.87 5.79 5.26 13.03 9.65a.59.58 46.8 0 1-.03 1.02q-9.22 4.75-18.4 7.19-3.25.87-6.19 1.01c-4.13.2-9.32-1.73-13.33-1-7.15 1.3-18.02 4.31-27.98 4.74q-3.17.14-14.52-.24-6.78-.23-14.41-1.53-21.48-3.66-40.63-13.89-13.53-7.21-23.63-12.03-9.13-4.35-17.06-5.54c-8.16-1.23-18.7.55-22.96 8.53q-4.76 8.91-1.24 17.93.72 1.84.78 2.49-.55.56-1.57.41-6.35-1.94-8.67-3.45-3.89-2.53-6.96-4.12a.81.81 0 0 0-1.14.98q2.55 7.46 8.93 11.89a.25.24-21.7 0 1-.19.44q-10.88-2.24-19.17-9.57a1.33 1.25 29.7 0 0-2.12.51q-.26.85.37 2.02 3.64 6.76 9.53 10.52a.34.34 0 0 1-.28.61q-9.72-3.19-14.14-4.86-4.72-1.78-10.32-5.41-9.75-6.33-18.61-13.83a.37.37 0 0 0-.56.48c5.03 8.19 10.87 15.5 18.04 21.68q2.71 2.32 5.3 4.7-.12.95-1.78.54-13.89-3.39-17.94-5.3-9.94-4.68-15.46-7.54-8.76-4.52-18.5-13.16c-20.29-18.01-32.73-44.57-37.35-71.02q-7.94-45.58 5.78-90.02 3.31-10.72 10.94-31.99 2.33-6.48 5.3-20.91 9.31-45.3 5.44-94.05c-1.83-22.99-4.99-41.49-9.24-67.49Q75.69 10.74 75.89.75q0-.21.32-.46.12-.12.17-.29zm361.43 198.66a.3.3 0 0 0-.35.14q-16.17 35.49-24.82 52.98-4.3 8.68-15.24 29.71-.12.23-.03.48a.35.35 0 0 0 .55.15q4.88-3.98 7.96-7.62 10.96-12.96 16.74-27.46 5.88-14.75 7.74-21.31 5.26-18.55 7.69-26.62a.37.36 18.4 0 0-.23-.45zm-357 5.23a.5.5 0 0 0-.57.3q-5.82 16.75-8.36 26-5.78 20.99-7.28 45.03c-.57 9.08.02 24.4 6.03 31.29a.81.8-53.3 0 0 1.34-.2q.09-.2.08-.58-.72-30.52 2.65-56.96 3.31-25.92 6.48-44.34a.5.5 0 0 0-.35-.54zm262.93 187.48a2.81.75-4 0 0-2.85-.55 2.81.75-4 0 0-2.75.95 2.81.75-4 0 0 2.85.55 2.81.75-4 0 0 2.75-.95"/><path fill="#fefefe" d="M103.18 0q0 .21-.26.2-.28-.02-.67-.2zM1540 0v731.72q-14.7 14.57-30.16 27.87-43.82 37.71-92.49 66.5c-37.78 22.36-77.38 39.22-119.18 48.52-20.28 4.52-42.7 7.14-64.4 6.73q-54.2-1.03-103.68-18.2c-63.53-22.05-118.51-64.37-158.28-118.41q-21.61-29.37-34.36-64.93-7.65-21.31-13.85-44.15-4.03-14.85-19.15-72.23c-2.48-9.42-6.12-20.45-8.73-29.16q-26.79-89.39-83.06-162.92c-36.31-47.45-86.64-87.39-141.67-109.8q-58.71-23.92-121.07-29.62-39.54-3.62-80.47-1.21a.49.48 8.6 0 1-.49-.65q12.61-34.02 38.18-59.65 16.71-16.75 36.49-30.78 15.94-11.31 35.74-22.75 15.93-9.2 29.67-14.58 13.1-5.14 29.23-5.43 40.61-.75 56.02-1.71c2.82-.18 7.88-.58 10.79-2.32a2.65 2.58 62.5 0 0 1-3.32c-2.82-6.29-13.45-6.8-20.05-7.23q-9.67-.64-18.01-.55a.4.4 0 0 1-.39-.55c1.82-4.91 2.32-8.24-3.9-9.41q-4.03-.76-7.17-1.1a2.8 2.8 0 0 1-1.93-1.11c-7.44-10.06-18.68-10.02-29.9-7.96a1.82 1.8 59.3 0 1-1.47-.38c-6.03-4.99-12.08-8.83-19.92-4.36q-3.06 1.75-5.83 3.85a1.73 1.72 51.3 0 1-2.36-.27c-5.93-7.08-11.51-9.38-20.51-6.04q-5.01 1.87-10.84 4.89a.84.83-28.8 0 1-1.11-.32c-2.97-5.04-6.27-9.06-12.79-8.35-7.99.87-16.07 5.93-21.97 10.96a.5.49 51.5 0 1-.72-.09c-4.77-6.66-9.69-7.8-16.83-3.83-7.46 4.14-12.88 10.5-18.91 17.92a.58.58 0 0 1-.98-.14q-1.82-4.26-5.28-6.84a4.64 4.37-14.7 0 0-1.14-.62c-11.7-4.28-18.93 13.02-22.25 21.01q-3.08 7.42-5.04 13.33a.54.53 37.1 0 1-.95.13c-4.22-6.26-9.27-12.31-15.56-3q-3.03 4.48-5.13 12.61-2.22 8.61-3.52 17.98a.46.46 0 0 1-.78.26q-2.27-2.3-5.39-4.44c-8.76-6.01-14.15 2.41-16.32 9.77q-2.43 8.26-2.84 17.77a.55.55 0 0 1-.85.44q-1.74-1.12-3.97-2.33c-7.41-4.03-12.62 2.89-14.66 9.06q-4.22 12.79-4.06 26.93a.5.5 0 0 1-.76.43c-4.78-2.92-8.94-5.63-12.86.3q-2.33 3.51-3.97 9.16-4.19 14.4-4.69 29.8a.7.7 0 0 1-.89.66c-5.18-1.31-9.63-4.01-13.97 1.1q-4.48 5.29-6.3 12.33a3.1 3.1-5 0 1-1.72 2.04q-6.68 2.99-14.87 4.93l-5.89 1.71q-3.15.92-6.6.93-20.11.06-33.47.87-25.55 1.56-46.8 13.89c-18.49 10.73-29.95 29.89-35.57 49.99q-2.66 9.53-5.17 23.04c-2.11 11.33-9.8 21.03-20.98 24.55q-1.67.53-4.55-.47c-19.27-6.68-18.47-27.93-18.34-45.22a3.22 3.17 59.9 0 1 .4-1.55q3.01-5.53 3.59-11.68c.53-5.59-.73-8.42-3.78-12.73a1.47 1.46 41.9 0 1-.09-1.55c3.71-6.8 7.15-13.75 8.56-21.04q1.49-7.74-3.5-13.7-1.42-1.69-2-2.5a1.52 1.51-49.4 0 1-.12-1.6c3.45-6.63 6.52-13.94 7.67-21.14.69-4.35-1.54-7.79-5.81-9.13a.85.85 0 0 1-.54-1.11c3.18-8.52 18.86-47.34 8.43-52.47q-2.08-1.02-5.2-1.18a.73.73 0 0 1-.64-1.02c2.91-6.87 18.05-47.19 6.07-49.76q-2.19-.47-5.58-.18a.5.5 0 0 1-.53-.58q1.74-10.19 1.22-19.87c-.42-7.68-3.4-15.1-12.17-16.01a.9.9 0 0 1-.82-1q.5-5.39.77-11.48c.17-3.97-.54-10.52-4.68-12.78-2.13-1.16-5.32-.03-7.44.7a.49.48-6.2 0 1-.64-.51q1.5-13.69-2.23-26.37-1.27-4.32-5.97-5.85a1.3 1.19-37.1 0 0-.52-.05l-8.17.96a1.4 1.4 0 0 1-1.59-1.32q-.69-10.63-3.87-21.05z"/><path fill="#f5e86a" d="M463.92 199.11q-2.43 8.07-7.69 26.62-1.86 6.56-7.74 21.31-5.78 14.5-16.74 27.46-3.08 3.64-7.96 7.62a.35.35 0 0 1-.55-.15q-.09-.25.03-.48 10.94-21.03 15.24-29.71 8.65-17.49 24.82-52.98a.3.3 0 0 1 .35-.14h.01a.37.36 18.4 0 1 .23.45m-357.24 4.78h.02a.5.5 0 0 1 .35.54q-3.17 18.42-6.48 44.34-3.37 26.44-2.65 56.96.01.38-.08.58a.81.8-53.3 0 1-1.34.2c-6.01-6.89-6.6-22.21-6.03-31.29q1.5-24.04 7.28-45.03 2.54-9.25 8.36-26a.5.5 0 0 1 .57-.3"/><path fill="#1aa2e9" d="M1539.66 737.04q.1.64.34 1.09v282.28q-.27.23-.38.59H0V790.62q.26-.21.35-.66l.53.13a1.59 1.57-18.8 0 1 .58.28q9.52 7.44 18.74 15.54c4.16 3.66 7.87 5.57 12.27 9.2 5.41 4.46 10.9 8.96 16.78 12.29 4.87 2.77 9.12 6.19 14.22 9.24q16.53 9.89 20.01 11.84c63.17 35.47 136.16 53.3 208.52 46.89q40.89-3.63 79.01-18.16 20.91-7.98 44.56-21.79c4.75-2.78 9.41-6.23 14.33-9.5q3.55-2.35 5.65-3.95 29.54-22.47 51.38-49.78 21.01-26.26 37.69-55.02 8.62-14.86 17.82-34.97 2.17-4.73 7.62-18.44 4.55-11.45 6.85-18.73 12.42-39.38 14.65-79.52c1.16-20.99.51-42.61-3.81-63.31-9.48-45.37-28.55-87.99-54.93-126.56q-23.52-34.41-51.95-64.27-14.92-15.67-29.22-29.21a1.2 1.2 0 0 1-.09-1.62q7.92-9.41 14.17-20.53 12.56-22.33 21.41-45.42a.55.54 9.8 0 1 .49-.34q18.86-.8 33.86-.97c67.42-.75 134.06 13 194.02 43.18q6.62 3.33 11.71 6.57c5.03 3.2 9.49 5.49 15.16 9.24q25.53 16.87 45.44 35.16a373 373 0 0 1 56.57 65.51l8.91 13.24q32.42 50.42 52.57 108.16c8.02 22.96 14.13 45.07 21.35 72.4 10.39 39.32 16.38 62.84 25.83 90.06 7.01 20.19 15.55 38.65 26.15 55.25 17.03 26.67 38.67 50.94 62.67 71.82 40.12 34.89 87.66 59.73 139.7 71.83q36.75 8.54 72.42 9c33.32.43 66.63-5.69 98.82-16.1 10.11-3.26 15.27-5.44 26.17-9.66q15.85-6.15 34.97-16.01c42.79-22.09 83.05-50.34 119.3-81.69q11.22-9.7 25.48-23.74a1.43 1.4-75 0 1 .61-.36zM314.07 259.05a.18.18 0 0 1-.2-.28c3.47-3.9 6.42-6.26 11.91-7.57q6.07-1.46 11.22-4.3a.32.32 0 0 1 .46.38l-2.09 6.22a1 1 0 0 1-.99.67c-7.42-.42-13.35 2.02-20.31 4.88"/><path fill="#fefefe" d="M333.59 257.05a.5.49-83.8 0 1 .48.6q-2.94 13.28-6.73 23.64-1.21 3.29-5.74 10.3c-3.72 5.75-11.13 12.63-18.32 8.03-8.67-5.55-6.63-18.58-2.01-26.05 6.16-9.97 20.78-16.54 32.32-16.52"/><path fill="#f5e86a" d="M345.17 346.42q-10.96 3.17-22.91 3.73-4.93.23-11.18-.76-4.91-.79-6.56-5.14-2.15-5.72-4.19-11.23 19.31-6.45 36.05-17.15l12.32-7.89a.53.53 0 0 1 .69.79q-6.61 7.84-15.03 15.86-8.4 8-18.77 11.71a.3.3 0 0 0-.18.35l.01.01a.34.33-13.4 0 0 .4.24q3.28-.65 7.09-2.32c11.82-5.17 22.65-11.91 33.46-20.04q7.98-6 12.04-8.41.59-.35.87-.3a.5.5 0 0 1 .33.76q-10.36 15.89-25.64 27.82-1.76 1.37-3.36 2.71a.2.19 10.6 0 0 .22.32q4.55-2.43 11.44-6.97 17.54-11.58 35.71-27.35a.6.6 0 0 1 .77.03l.01.02a.6.6 0 0 1 .03.82q-13.27 15.44-19.23 21.29-4.92 4.83-12.78 12-3.01 2.74-5.65 4.74-2.81 2.12-5.96 4.36"/><path fill="#1b1f1a" d="m374.78 367-4.7 6.79a1.18 1.14-35.3 0 0-.17.9l.87 3.55a1.22 1.21-2.9 0 1-1.35 1.49l-7.11-1a1.73 1.72 35.7 0 0-.99.16l-5.67 2.86a1.55 1.54-9.3 0 1-2.22-1.59l.68-4.86a2.17 2.15-61.3 0 0-.48-1.68l-4.39-5.22a1.21 1.2 70 0 1 .92-1.98h6.41a1.36 1.35 9.2 0 0 1.29-.92l2-5.96a1.16 1.16 0 0 1 2.11-.21l3.33 5.76a1.11 1.09 74.7 0 0 .95.55h7.81a.87.87 0 0 1 .71 1.36m-12.66 8.14q1.7-.1 4.14 1.04a.31.3 9.5 0 0 .44-.31l-.38-3.18a1.16 1.13 67.3 0 1 .4-1.01l2.25-1.89a.71.71 0 0 0-.45-1.25h-3.62a1.95 1.93-10.2 0 1-1.82-1.25q-.9-2.39-1.53-2.35-.63.03-1.26 2.5a1.95 1.93 3.8 0 1-1.67 1.45l-3.6.41a.71.71 0 0 0-.3 1.29l2.44 1.62a1.16 1.13-73.7 0 1 .51.96l-.02 3.21a.31.3-15.9 0 0 .47.25q2.3-1.4 4-1.49"/><path fill="#1aa2e9" d="M361.55 364.94q.63-.04 1.53 2.35a1.95 1.93-10.2 0 0 1.82 1.25h3.62a.71.71 0 0 1 .45 1.25l-2.25 1.89a1.16 1.13 67.3 0 0-.4 1.01l.38 3.18a.31.3 9.5 0 1-.44.31q-2.44-1.14-4.14-1.04t-4 1.49a.31.3-15.9 0 1-.47-.25l.02-3.21a1.16 1.13-73.7 0 0-.51-.96l-2.44-1.62a.71.71 0 0 1 .3-1.29l3.6-.41a1.95 1.93 3.8 0 0 1.67-1.45q.63-2.47 1.26-2.5"/><ellipse fill="#1b1f1a" rx="2.81" ry=".75" transform="rotate(-4 5789.954 -5056.247)"/><path fill="#f5e86a" d="m189.76 406.86 1.81.17 11.23 13.73a.4.4 64.7 0 1-.23.66c-16.48 3.36-34.49 2.44-50.44-.49q-1.5-.28-2.36-1.48-2.59-2.38-5.3-4.7c-7.17-6.18-13.01-13.49-18.04-21.68a.37.37 0 0 1 .56-.48q8.86 7.5 18.61 13.83 5.6 3.63 10.32 5.41 4.42 1.67 14.14 4.86a.34.34 0 0 0 .28-.61q-5.89-3.76-9.53-10.52-.63-1.17-.37-2.02a1.33 1.25 29.7 0 1 2.12-.51q8.29 7.33 19.17 9.57a.25.24-21.7 0 0 .19-.44q-6.38-4.43-8.93-11.89a.81.81 0 0 1 1.14-.98q3.07 1.59 6.96 4.12 2.32 1.51 8.67 3.45"/><path fill="#299754" d="m191.33 406.45.24.58-1.81-.17q1.02.15 1.57-.41m114.99 302.39a.31.31 0 0 1-.4.46q-7.09-3.76-16.13-9.34-1.26-.78-6.14-2.26c-5.21-1.59-9.92-3.75-15.47-5.12-7.46-1.83-16.13-4.42-23.51-5.5q-26.31-3.84-49.93-3.05c-8.41.29-25.46.98-37.61 2.43Q140 688.51 133 689.48c-3.82.53-8.7 2.43-12.79 3.05-5.18.79-9.75 1.13-14.25 2.11q-10.52 2.29-19.9 3.18a.4.4 0 0 1-.42-.52q1.9-5.97 3.14-8.88 2.15-5.04 3.34-8.79c4.24-13.38 9.2-26.83 13.08-40.68 1.41-5.02 3.97-13.09 5.59-20.24q5.48-24.08 6.89-28.78c2.5-8.31 9.62-20.71 18.71-23.28q7.38-2.1 13.88-1.16 3.23.46 4.58-1.86 3.64-6.28 6.21-15.06.73-2.52 4.18-8.39c4.3-7.33 8.4-16.31 12.85-22.38q1.65-2.25 10.4-12.84 2.67-3.24 4.24-4.74c2.52-2.4 5.14-4.56 6.22-7.76 2.64-7.81 4.55-14.36 10.41-19.58q9.1-8.12 17.33-11.23 1.11-.41 10.68-3.28 4.94-1.48 10.95-1.95 17.37-1.38 21.18-1.4 34.31-.17 68.72 4.9a173 173 0 0 1 45.79 13.31 56 56 0 0 1 14.06 9.14q2.83 2.48 7.07 5.75 4.59 3.54 8.57 11.36a1.1 1.1 0 0 1-.03 1.06q-5.99 9.89-12.26 19.36-.52.8-3.04 5.81a4.64 4.53 78 0 1-.53.84q-8.16 10.32-13.69 17.6c-2.08 2.74-6.77 6.68-8.54 10.32q-2.72 5.58-2.91 12.08c-.11 4.04 1.7 9.66 1.91 13.71.46 8.75-1.67 15.09-7.38 21.8-2.59 3.04-5.89 7.65-8.41 10.52q-26.52 30.31-36.07 40.43-14.69 15.56-22.14 24.11c-4.68 5.36-3.35 16.14-.72 21.24q2.91 5.65 6.42 10.48M295.89 563.6q-.81.08-1.82.68-8.47 5.07-18.39 9.99c-4.2 2.08-8.87 5.15-12.06 6.82q-8.09 4.25-15.9 8.89c-4.63 2.76-9.31 4.55-13.61 7.09-5.14 3.04-12.06 5.76-18.13 9.15-5.2 2.91-9.71 4.59-14.69 7.18-6.89 3.58-14.84 5.73-22.15 8.83-3.24 1.37-21.07 7.21-20.76.71.24-5.06 3.21-9.77 6.5-13.46a5.44 4.76-11.4 0 0 .55-.72q7.32-11.63 13.32-18.52 8.55-9.82 13.41-16.06c2.3-2.94 8.3-6.84 11.13-11.58q.65-1.09 3.14-3.53 2.61-2.56 4.97-6.13a.92.92 0 0 0-.66-1.42q-6.95-.85-13.89-2.88c-4.31-1.26-10.7-3.42-6.83-8.88q1.71-2.42 3.5-3.72 7.46-5.4 14.28-8.45c3.93-1.75 7.92-4.57 11.28-6.11q3.83-1.75 8.61-4.31 7.53-4.04 17.39-7.51a.62.61-50.8 0 0-.12-1.19q-13.68-1.8-28.53-6.14-1.51-.44-2.29-1.28a2.11 2.09-50.2 0 1-.22-2.57c3.54-5.47 7.76-7.26 14.09-10.78q4.73-2.64 10.39-4.01 10.37-2.49 13.19-3.1a.46.46 0 0 0-.06-.91q-9.91-.67-18.93 3.2c-6.3 2.7-10.93 4.13-14.89 7.36-3.92 3.2-9.43 6.82-7.6 11.38a2.14 2.09-83.5 0 0 .73.94c3.63 2.63 9.73 4.45 14.1 5.23q6.63 1.19 9.44 1.86.31.08.42.32.22.45-.24.69c-5.93 3.1-11.47 4.99-16.38 7.92-4.73 2.81-11.31 5.08-16.25 8.44-5.08 3.46-7.73 4.84-11.07 7.99-3.48 3.27-8.75 7.57-3.75 12.31q2.17 2.07 3.71 2.66 6.69 2.59 14.84 3.46a.79.79 0 0 1 .54 1.27q-3.89 5.11-8.63 9.43a9.62 9.52-3.5 0 0-1.34 1.5q-3.2 4.42-7.08 8.63c-6.3 6.85-11.6 13.8-16.77 19.53-3.57 3.97-6.16 8.29-10.02 14.03q-3.08 4.59-6.94 13.55c-3 6.98 3.78 8.04 8.6 7.38q8.17-1.1 18.32-4.56c5.99-2.04 11.3-4.85 16.21-6.63q5.04-1.84 11.99-5.3 15.14-7.54 23.42-11.73c7.33-3.71 13.11-7.47 19.26-10.23 5.81-2.6 13.46-8.21 20.31-11.16 4.68-2.01 8.84-6.17 13.1-7.61a.95.94-78.6 0 1 1.01 1.52q-6.74 7.74-10.6 15.15a7.26 6.84 80.2 0 1-.8 1.21q-5.98 7.29-7.87 15.94c-1.01 4.6 2.51 6.07 6.25 4.47 9.46-4.05 17.85-8.34 25.94-14.38q3.29-2.45 17.82-12.91c4.34-3.12 9.09-5.47 12.8-8.79 2.27-2.03 3.51-2.74 6.51-4.65 3.85-2.45 7.63-6.52 10.78-8.64q2.39-1.61 5.85-5.17 2.39-2.46 7.82-6.6a20.7 20.58-87.2 0 0 2.46-2.24q7.93-8.58 16.31-16.6c1.48-1.41 2.04-2.43 3.3-4.37q1.42-2.2 5.39-11.04 4.23-9.42-3.16-16.53a2.35 2.23-8.7 0 0-.59-.41q-4.92-2.36-5.84-2.56c-8.96-2.01-19.73-1.35-28.76-1.26q-3.54.03-12.87 1.46c-10.39 1.59-18.88 3.83-26.74 10.07a.38.38 0 0 0 .39.64c16.04-7.17 33.1-8.83 51.14-9.35q3.52-.1 7.65.64c5.67 1.03 15.84 2.37 16.23 9.17.36 6.25-1.63 11.12-5.87 16.06q-2.16 2.52-5.75 7.58-1.9 2.67-6.48 6.99-8.34 7.83-11.31 10.47l-4.87 4.34q-8.12 7.02-20.12 16.4-3.75 2.94-5.44 3.99c-4.93 3.07-8.98 7.42-13.38 10.22-4.19 2.68-7.45 5.85-11.59 8.31q-5.13 3.06-10.23 6.71c-6.06 4.34-13.15 7.53-18.83 9.74a1.17 1.17 0 0 1-1.59-1.21q.27-2.63 1.69-5.63 3.78-8.03 10.23-15.95a14.56 14.28 78.6 0 0 1.7-2.61q4.28-8.33 11.21-17.17a.59.59 0 0 0-.53-.95m-12.04-27.88q-10.78 3.28-18.87 7.79c-7.23 4.04-11.33 5.94-16.84 9.95-3.55 2.58-7.1 4.41-10.32 7.05q-2.48 2.04-4.29 3.09c-5.86 3.43-11.08 7.78-16.58 11.14a5.08 4.76 5.7 0 0-.81.62q-4.63 4.46-10.82 8.55a7.27 6.53 3.1 0 0-1.03.83q-5.95 5.81-11.54 11c-3.83 3.57-6.95 9.33-9.57 13.38a.01.01 0 0 0 .01.02l.26.18a.25.25 0 0 0 .34-.04q3.59-4.31 7.89-7.85c2.57-2.12 5.15-5.16 6.93-7.07q2.37-2.52 5.61-4.86 4.25-3.07 9.48-8.04a6.07 5.85 5.5 0 1 .82-.65c5.63-3.6 10.68-8.57 15.67-11.58 4.02-2.41 6.5-4.69 11.16-7.5q3.01-1.82 7.53-5.26a1.53.74-50.2 0 1 .16-.11l35.02-20.14a.27.27 0 0 0-.21-.5M247.32 664.6q5.26-4.21 11.92-10.8c3.5-3.45 7.31-5.87 10.87-9.34q3.25-3.15 8.05-7.15 30.94-25.71 55.49-46.42 4.24-3.57 9.16-7.97c3.1-2.77 6.66-5.22 9.52-8.2a.2.2-46.4 0 0 0-.23l-.16-.2a.36.36 0 0 0-.49-.06q-1.79 1.27-7.09 5.6-4.43 3.62-22.43 16.84-6.49 4.78-28.25 22.24-8.77 7.04-24.64 21.2c-6.91 6.15-12.03 12.23-18.52 19.12q-2.67 2.83-3.68 5.19a.16.16 0 0 0 .25.18"/><path fill="#1b1f1a" d="M295.89 563.6a.59.59 0 0 1 .53.95q-6.93 8.84-11.21 17.17a14.56 14.28 78.6 0 1-1.7 2.61q-6.45 7.92-10.23 15.95-1.42 3-1.69 5.63a1.17 1.17 0 0 0 1.59 1.21c5.68-2.21 12.77-5.4 18.83-9.74q5.1-3.65 10.23-6.71c4.14-2.46 7.4-5.63 11.59-8.31 4.4-2.8 8.45-7.15 13.38-10.22q1.69-1.05 5.44-3.99 12-9.38 20.12-16.4l4.87-4.34q2.97-2.64 11.31-10.47 4.58-4.32 6.48-6.99 3.59-5.06 5.75-7.58c4.24-4.94 6.23-9.81 5.87-16.06-.39-6.8-10.56-8.14-16.23-9.17q-4.13-.74-7.65-.64c-18.04.52-35.1 2.18-51.14 9.35a.38.38 0 0 1-.39-.64c7.86-6.24 16.35-8.48 26.74-10.07q9.33-1.43 12.87-1.46c9.03-.09 19.8-.75 28.76 1.26q.92.2 5.84 2.56a2.35 2.23-8.7 0 1 .59.41q7.39 7.11 3.16 16.53-3.97 8.84-5.39 11.04c-1.26 1.94-1.82 2.96-3.3 4.37q-8.38 8.02-16.31 16.6a20.7 20.58-87.2 0 1-2.46 2.24q-5.43 4.14-7.82 6.6-3.46 3.56-5.85 5.17c-3.15 2.12-6.93 6.19-10.78 8.64-3 1.91-4.24 2.62-6.51 4.65-3.71 3.32-8.46 5.67-12.8 8.79q-14.53 10.46-17.82 12.91c-8.09 6.04-16.48 10.33-25.94 14.38-3.74 1.6-7.26.13-6.25-4.47q1.89-8.65 7.87-15.94a7.26 6.84 80.2 0 0 .8-1.21q3.86-7.41 10.6-15.15a.95.94-78.6 0 0-1.01-1.52c-4.26 1.44-8.42 5.6-13.1 7.61-6.85 2.95-14.5 8.56-20.31 11.16-6.15 2.76-11.93 6.52-19.26 10.23q-8.28 4.19-23.42 11.73-6.95 3.46-11.99 5.3c-4.91 1.78-10.22 4.59-16.21 6.63q-10.15 3.46-18.32 4.56c-4.82.66-11.6-.4-8.6-7.38q3.86-8.96 6.94-13.55c3.86-5.74 6.45-10.06 10.02-14.03 5.17-5.73 10.47-12.68 16.77-19.53q3.88-4.21 7.08-8.63a9.62 9.52-3.5 0 1 1.34-1.5q4.74-4.32 8.63-9.43a.79.79 0 0 0-.54-1.27q-8.15-.87-14.84-3.46-1.54-.59-3.71-2.66c-5-4.74.27-9.04 3.75-12.31 3.34-3.15 5.99-4.53 11.07-7.99 4.94-3.36 11.52-5.63 16.25-8.44 4.91-2.93 10.45-4.82 16.38-7.92q.46-.24.24-.69-.11-.24-.42-.32-2.81-.67-9.44-1.86c-4.37-.78-10.47-2.6-14.1-5.23a2.14 2.09-83.5 0 1-.73-.94c-1.83-4.56 3.68-8.18 7.6-11.38 3.96-3.23 8.59-4.66 14.89-7.36q9.02-3.87 18.93-3.2a.46.46 0 0 1 .06.91q-2.82.61-13.19 3.1-5.66 1.37-10.39 4.01c-6.33 3.52-10.55 5.31-14.09 10.78a2.11 2.09-50.2 0 0 .22 2.57q.78.84 2.29 1.28 14.85 4.34 28.53 6.14a.62.61-50.8 0 1 .12 1.19q-9.86 3.47-17.39 7.51-4.78 2.56-8.61 4.31c-3.36 1.54-7.35 4.36-11.28 6.11q-6.82 3.05-14.28 8.45-1.79 1.3-3.5 3.72c-3.87 5.46 2.52 7.62 6.83 8.88q6.94 2.03 13.89 2.88a.92.92 0 0 1 .66 1.42q-2.36 3.57-4.97 6.13-2.49 2.44-3.14 3.53c-2.83 4.74-8.83 8.64-11.13 11.58q-4.86 6.24-13.41 16.06-6 6.89-13.32 18.52a5.44 4.76-11.4 0 1-.55.72c-3.29 3.69-6.26 8.4-6.5 13.46-.31 6.5 17.52.66 20.76-.71 7.31-3.1 15.26-5.25 22.15-8.83 4.98-2.59 9.49-4.27 14.69-7.18 6.07-3.39 12.99-6.11 18.13-9.15 4.3-2.54 8.98-4.33 13.61-7.09q7.81-4.64 15.9-8.89c3.19-1.67 7.86-4.74 12.06-6.82q9.92-4.92 18.39-9.99 1.01-.6 1.82-.68"/><path fill="#299754" d="M415.14 504.7a.61.6-42.7 0 1 1.03.04c3.25 5.8 4.85 12.78 6.92 18.6 2.8 7.83 4.62 16.27 7.53 23.97 1.52 4.04 2.18 7.68 3.72 12.78 3.75 12.43 7.91 26.73 12.9 41.42q4.08 11.98 9.65 28.86c2.3 6.97 5.46 14.14 7.03 21.29a.86.82-43.7 0 1-.02.44l-1.46 4.35a2.05 2-.2 0 1-1.3 1.28c-6.86 2.21-13.5 3.34-20.26 5.57q-19.35 6.39-35.34 13-15.81 6.53-30.14 18.11-2.27 1.83-8.26 7.1c-5.17 4.55-9.03 9.33-13.88 13.68-4.57 4.08-8.09 8.71-12.53 12.78q-.29.26-3.85 4.73a1.11 1.1 43.5 0 1-1.68.04q-7.97-8.88-18.97-16.7c-5.03-3.58-11.21-11.35-12.9-18.62q-.19-.81-1.93-6.59c-1.74-5.75.67-10.46 4.45-14.73q8.48-9.56 11.36-12.19c4.16-3.78 7.17-7.82 11.63-12.27q2.24-2.22 4.66-4.91 9.65-10.71 10.04-11.18 4.91-5.82 21.88-25.63c6.67-7.8 11.19-14.69 12.17-25.47.86-9.33-4.39-18.43.06-26.76a83 83 0 0 1 10.02-14.13q7.13-7.88 14.73-18.56 4.39-6.17 6.51-10.05 2.91-5.32 6.23-10.25"/><path fill="#1b1f1a" d="M283.85 535.72a.27.27 0 0 1 .21.5l-35.02 20.14a1.53.74-50.2 0 0-.16.11q-4.52 3.44-7.53 5.26c-4.66 2.81-7.14 5.09-11.16 7.5-4.99 3.01-10.04 7.98-15.67 11.58a6.07 5.85 5.5 0 0-.82.65q-5.23 4.97-9.48 8.04-3.24 2.34-5.61 4.86c-1.78 1.91-4.36 4.95-6.93 7.07q-4.3 3.54-7.89 7.85a.25.25 0 0 1-.34.04l-.26-.18a.01.01 0 0 1-.01-.02c2.62-4.05 5.74-9.81 9.57-13.38q5.59-5.19 11.54-11a7.27 6.53 3.1 0 1 1.03-.83q6.19-4.09 10.82-8.55a5.08 4.76 5.7 0 1 .81-.62c5.5-3.36 10.72-7.71 16.58-11.14q1.81-1.05 4.29-3.09c3.22-2.64 6.77-4.47 10.32-7.05 5.51-4.01 9.61-5.91 16.84-9.95q8.09-4.51 18.87-7.79m-36.78 128.7q1.01-2.36 3.68-5.19c6.49-6.89 11.61-12.97 18.52-19.12q15.87-14.16 24.64-21.2 21.76-17.46 28.25-22.24 18-13.22 22.43-16.84 5.3-4.33 7.09-5.6a.36.36 0 0 1 .49.06l.16.2a.2.2-46.4 0 1 0 .23c-2.86 2.98-6.42 5.43-9.52 8.2q-4.92 4.4-9.16 7.97-24.55 20.71-55.49 46.42-4.8 4-8.05 7.15c-3.56 3.47-7.37 5.89-10.87 9.34q-6.66 6.59-11.92 10.8a.16.16 0 0 1-.25-.18"/><path fill="#299754" d="M464.29 656.25q.37-.77.74-.96a.6.54-80.9 0 1 .6.94q-.4.49-1.02.51a.35.35 12.2 0 1-.32-.49m-32.64 24.29-.16-.2a.13.12 50.1 0 0-.17-.02c-6.61 4.97-13.44 9.15-19.76 14.19q-11.12 8.88-14.77 12.29-6.45 6.03-10.56 9.61c-7.26 6.34-11.55 11.8-19.01 19.43q-4.55 4.66-8.6 9.66-5.47 6.75-14.53 16.87-3.24 3.62-4.91 5.08c-2.51 2.19-4.86 4.74-6.81 6.51q-19.98 18.18-31.23 28.68-21.43 19.99-51.08 51.75c-3.61 3.87-8.47 7.87-11.54 12.18-3.34 4.68-7.59 7.66-10.82 12.43q-3.62 5.34-8.23 10.43a2.6 2.59 25 0 1-2.28.82l-9.53-1.33a.69.69 0 0 1-.39-1.18c4.21-4.09 7.52-8.63 11.51-12.11 5.11-4.46 9.86-11.14 14.83-15.54 4.09-3.62 7.43-8.01 11.62-12.02q7.28-6.98 15.31-15.03c2.06-2.07 2.91-2.81 3.96-4.94q6.07-12.24 15.51-23.85 4.43-5.44 7.84-10.02c7.52-10.09 18.03-22.01 23.78-29.01q6.52-7.94 12.51-14.18 7.68-8 12.76-13.98 2.14-2.52 6.72-6.61 1.61-1.43 6.57-6.77 6.41-6.89 18.64-18.84c7.94-7.75 16.97-14.82 25.97-20q2.69-1.55 5.39-2.61c7.86-3.09 17.86-8.23 27.37-10.92 4.83-1.36 12.14-4.15 18.5-5.8 4.41-1.14 8.81-3.08 13.27-4.21q3.96-1.01 6.83-1.38a.46.46 0 0 1 .52.5q-.05.52-.58.92-1.66 1.28-7.94 5.24c-5.83 3.68-9.03 7.18-15.35 12.98q-6.6 6.06-22.65 24.02c-3.81 4.26-6.77 7.13-9.56 10.78q-6.97 9.12-12.15 16.28-4 5.53 1.06 9.84c3.89 3.31 12.06 3.01 17.32 2.07q.45-.08.96.12a.5.5 0 0 1 .13.85l-3.88 3.15a.98.73-86.8 0 0-.16.19q-3.23 5.25-7.34 9.54a6.68 5.46 89.5 0 0-.61.76q-3.57 5.3-5.89 7.75-4.78 5.03-6.4 7.34-2.35 3.34-10.61 13.05a.35.35 0 0 0 .46.52q9.05-5.82 16.72-12.85 7.32-6.72 18.36-20.21c3.52-4.31 6.46-9.7 10.42-14.26a.71.71 0 0 0-.62-1.17c-8.35.98-16.18 1.17-24.33-1.09-3.88-1.08-1.88-5.75-.13-7.84q7.94-9.48 13.69-17.11c4.88-6.46 12.01-13.84 16.3-18.62 4.55-5.05 9.78-9.23 14.31-13.73 4.6-4.57 10.44-8.29 16.63-13.11q1.11-.86 9.14-4.85c7.04-3.5 14.55-4.01 22.55-3.83 10.8.24 19.17.37 28.69 3.23 10.58 3.18 17.04 5.19 25.03 10.29a1.22 1.21 27.2 0 1 .47 1.46c-2.03 5.25-3.33 11.06-5.44 15.79q-9.5 21.4-18.72 38.91-1.4 2.67-12.15 20.87-5.14 8.73-8.93 14.13-5.67 8.07-9.52 13.75a.95.95 0 0 1-1.72-.39q-.79-5.08-3.2-9.08c-2.01-3.33-3.59-7.66-5.23-10.17q-14.04-21.54-34.25-37.36a.2.2 0 0 0-.28.04l-.17.23v.07q8.68 8.16 11.4 10.82 5.03 4.9 14.21 17.13c3.43 4.57 5.3 9.14 8.49 14.76 2.76 4.88 4.37 10.2 7.08 16.03a2.58 2.55-39.5 0 1-.26 2.6q-24.23 32.92-57.04 57.96-14.33 10.94-31.5 20.22-39.28 21.23-83 29.78-3.25.63-17.65 2.78c-7.81 1.17-15.8 1.37-22.5 1.98a.61.6-89.2 0 1-.65-.67q.05-.46.3-.81 2.89-4.1 4.34-7.24a4.96 4.66 76.9 0 1 .51-.88c2.74-3.74 6.07-6.89 8.95-10.61q3.05-3.94 6.65-7.36 20.27-19.28 25.71-23.75 7.74-6.37 15.83-12.92a.25.25 0 0 0 .03-.35l-.17-.2-.08-.01q-8.39 5.03-9.91 6.17-14.96 11.29-27.91 23.31c-5.59 5.18-10.65 11.31-15.89 16.52a.16.08-26.6 0 0-.03.04l-12.43 17.97a2 1.97-74.1 0 1-1.5.85q-12.75.76-25.59-.3-1.97-.17-5.84.05a.51.5-73.1 0 1-.43-.81l8.34-11.04a.73.33-24.4 0 1 .07-.08q5.76-5.44 10.89-12.58a4.43 4.25 88.8 0 1 .71-.77c5.27-4.59 9.69-10 15.15-15.2q9.06-8.63 13.23-12.69 10.37-10.11 20.18-22.23 6.13-7.56 8.73-9.98c5.32-4.96 9.57-9.97 15.68-15.28q2.85-2.48 6.14-6.01c3.4-3.65 7.17-5.82 10.46-9.42q5.43-5.95 12.16-11.67a.4.4-40.6 0 0 .05-.58l-.01-.01a.4.4 0 0 0-.53-.04q-8.53 7.06-11.08 8.84c-5.87 4.08-9.28 7.91-15.07 12.85a264 264 0 0 0-18.77 18.22q-8.78 9.43-18.51 21-6.8 8.09-13.55 14.48-6.05 5.74-16.26 15.85-5.19 5.14-7.94 8.24-4.32 4.86-7.8 7.64a4.79 4.6-2.9 0 0-.93.99q-5.11 7.27-11.48 13.38a6.28 5.81 87.8 0 0-.71.83l-3.36 4.86a1.47 1.43-72.6 0 1-1.17.63q-7.21.12-13.69-1.19a.68.67 25 0 1-.4-1.08c1.64-2.07 3.13-4.46 5.12-6.49 3.18-3.25 4.49-4.46 6.97-7.77 4.13-5.52 9.36-9.41 13.52-14.97a29.45 29.21-3.7 0 1 3.25-3.67c5.13-4.9 9.66-10.38 14.46-15.31q12.84-13.17 26.6-26.88c6.53-6.51 14.81-13.34 20.42-19.24q2.33-2.46 5.91-5.34 7.6-6.12 11.9-10.18 3.18-3.01 4.7-4.16c6.03-4.52 9.8-9.32 15.49-15.34 3.57-3.77 6.51-8.58 9.67-12.23q7.4-8.56 13.38-15.14c5.74-6.31 11.93-11.43 17.5-17.83q1.3-1.49 10.02-8.91 3.18-2.71 8.46-7.69c6.66-6.3 14.46-12.01 21.48-17.76a.35.35 50.2 0 0 .04-.49M274.22 873.19a.22.22 0 0 0 .35.25q5.49-5.23 8.72-9.29c2.86-3.6 5.95-5.92 9.07-9.41a213 213 0 0 1 13.82-13.8q26.33-24.56 54.22-48.14a.2.2 0 0 0 .07-.2q-.03-.11-.14-.25a.2.2 0 0 0-.28-.06 183 183 0 0 0-23.77 17.24q-23.2 19.55-44.34 41.56c-4.56 4.75-9.99 11.43-13.19 15.16q-2.76 3.21-4.53 6.94"/><path fill="#299754" d="M211.31 842.71q.42-.55 8.88-12.35c5.78-8.06 10.81-16.89 15.67-24.64 2.42-3.86 4.78-8.7 7.02-13.1q.91-1.78 13.09-22.7c7.02-12.06 15.94-23.51 19.86-36.55 2.9-9.64 5.17-17.7 2.09-27.79q-1.57-5.15-7.13-7.89a1.85 1.82-86.2 0 1-.93-1.08l-.02-.06a.42.42 0 0 1 .52-.53c2.16.66 6.42 1.99 8.74 3.2 6.01 3.15 12.43 5.47 18.92 9.15q11.71 6.63 14.43 8.44c7.67 5.11 13.44 11.54 20.7 17.8a1.47 1.46-46.1 0 1 .04 2.19q-6.49 5.98-12.15 12.49-12.98 14.94-19.26 22.37c-5.75 6.81-10.74 13.6-16.34 20.05-5.84 6.74-10.57 13.54-17.65 23.07q-2.32 3.13-5.09 9.61c-1.58 3.7-3.55 6.09-6.33 8.74q-8.21 7.82-19.79 19.2-3.91 3.85-8.11 8.89c-3.47 4.16-7.6 7.2-10.83 11.21-3.94 4.89-9.47 9.59-14.11 14.7a1.82 1.81 25.5 0 1-1.64.57q-37.61-6.44-72.92-20.96c-15.5-6.37-30.01-13.14-43.94-21.34q-4.92-2.89-12.38-6.52c-2.02-.99-2.51-2.21-1.77-4.37 1.4-4.02 2.16-8.45 3.97-12.39 1.95-4.26 2.74-9.22 4.25-14.51q4.44-15.56 11.51-29.3 5.09-9.89 8.31-17.37 1.52-3.52 1.81-7.09a.9.9 0 0 0-.99-.96l-5.79.69a1.66 1.66 0 0 1-1.83-1.92c1.06-6.41 5.29-12.63 9.71-18.59q3.13-4.21 13.74-14.78 4.65-4.64 16.49-12.51c8.64-5.74 17.69-8.93 27.49-13.23q2.18-.96 6.13-1.83 11.27-2.5 28.82-3.46 8.12-.44 29.25.98 17.01 1.15 31.15 4.67 8.59 2.14 17.04 8.53a3.63 3.59 4.6 0 1 .99 1.15q2.4 4.37 2.45 6.14c.36 12.2-1.81 24.57-8.21 35.47q-7.25 12.35-20.83 34.31c-3.42 5.54-6.21 11.53-9.76 17.34q-2.7 4.4-6.97 12.34c-3.2 5.96-6.31 10.49-9.4 16.43q-2.37 4.58-8.87 16.23-.46.83-.44 1.72a.23.23 0 0 0 .41.14m-20.99-90.33-.41-.05a.92.89-19.5 0 1-.44-.2c-9.22-7.5-22.19-14.74-23.17-27.6-.49-6.42.51-12.52 4.42-18.11a1.6 1.6 0 0 0-.84-2.44q-1.41-.43-3.64-.21-5.13.51-12.81 2.12c-7.07 1.48-14.1 4.21-17.55 10.99-1.87 3.68 1.7 8.74 4.07 11.7 7.15 8.92 16.13 14.43 26.03 21q5.77 3.83 10.27 5.95 7.15 3.39 14.07 7.47a.44.44 0 0 1-.13.81q-17.03 3.61-24.69 5.15-2.95.59-6.11 2.19c-11.59 5.9 3.01 16.92 8.2 20.27q11.79 7.59 26 15.51a.23.23 0 0 0 .27-.38q-2.9-2.56-12.1-10.57-5.05-4.39-7.61-10.69c-3.3-8.11 3.04-12.41 9.85-14.55 5.34-1.68 11.15-3.26 16.86-3.19 4.12.05 8.55.41 10.19-1.04a1.3 1.3 0 0 0-.12-2.03q-7.14-4.89-15.54-8.74-3.58-1.63-5.01-3.33a.13.07 0 0 0-.06-.03"/><path fill="#299754" d="M156.49 689.8a.37.36 38.1 0 1 .09.72q-3.01.7-6.49 2.34c-12.37 5.83-22.73 11.07-31.63 18.86q-7.42 6.49-10.01 8.96-12.43 11.88-19.08 27.1c-1.19 2.73-1.29 5.94 1.52 7.27 1.45.69 4.56.32 5.78.3a.82.82 0 0 1 .75 1.18q-5.11 10.41-5.76 11.66c-8.25 15.63-14.06 30.91-19.83 48.67q-.77 2.37-1.63 8.33a.57.33 75.1 0 1-.03.11l-2.94 8.76a.8.8 0 0 1-1.19.4c-3.9-2.65-7.99-4.24-12.29-7.73q-5.73-4.65-14-9.65-2.03-1.23-4.04-3.38a1.4 1.4 0 0 1-.37-.88q-.18-6.15-.32-14.46-.15-8.5.71-13.69 1.13-6.88 2.5-13.52 1.93-9.39 6.51-18.71 4.86-9.92 10.82-16.59c6.35-7.1 13.43-13.61 22.12-18.94q8.16-5 10.62-6.57a34.29 34.19-71 0 1 6.81-3.34q7.16-2.55 13.87-5.76c4.47-2.14 9.97-4.22 15.53-5.14q7.29-1.2 13-3.09 4.4-1.46 9.38-2.06 9.47-1.15 9.6-1.15"/><path fill="#299754" d="M31.2 792.78q-.57-1.86-.71-3.04-.7-6.03-2.44-16.74-.41-2.54-.36-3.99.51-14.52 1.44-18.62c1.48-6.56 3.56-14.1 7.65-20.09 3.9-5.69 6.28-8.96 11.22-12.56q4.27-3.12 8.5-5.97c5.43-3.67 12.64-5.44 19.09-7.52q5.49-1.76 9.85-2.58 11.89-2.23 23.92-4.86a.24.24 0 0 1 .29.21l.06.47a.26.25-10.9 0 1-.19.27c-4.34 1.28-10.96 3.46-15.51 6.15q-5.84 3.46-15.7 8.24a5.73 5.71 12.6 0 0-1.03.65q-6.25 4.91-9.53 7.04-4.65 3.04-6.39 5c-2.08 2.33-5.26 4.67-7.54 7.77q-8.31 11.29-13.04 20.67c-3.12 6.2-4.6 12.85-7 22.32q-1.4 5.51-1.53 8.45-.19 4.23-.21 8.6a.43.43 0 0 1-.84.13"/><path fill="#1b1f1a" d="M190.38 752.41q1.43 1.7 5.01 3.33 8.4 3.85 15.54 8.74a1.3 1.3 0 0 1 .12 2.03c-1.64 1.45-6.07 1.09-10.19 1.04-5.71-.07-11.52 1.51-16.86 3.19-6.81 2.14-13.15 6.44-9.85 14.55q2.56 6.3 7.61 10.69 9.2 8.01 12.1 10.57a.23.23 0 0 1-.27.38q-14.21-7.92-26-15.51c-5.19-3.35-19.79-14.37-8.2-20.27q3.16-1.6 6.11-2.19 7.66-1.54 24.69-5.15a.44.44 0 0 0 .13-.81q-6.92-4.08-14.07-7.47-4.5-2.12-10.27-5.95c-9.9-6.57-18.88-12.08-26.03-21-2.37-2.96-5.94-8.02-4.07-11.7 3.45-6.78 10.48-9.51 17.55-10.99q7.68-1.61 12.81-2.12 2.23-.22 3.64.21a1.6 1.6 0 0 1 .84 2.44c-3.91 5.59-4.91 11.69-4.42 18.11.98 12.86 13.95 20.1 23.17 27.6a.92.89-19.5 0 0 .44.2l.41.05a.13.07 0 0 1 .06.03"/><path fill="#fefefe" d="M1540 736.37v1.76q-.24-.45-.34-1.09.11-.42.34-.67M.35 789.96q-.09.45-.35.66v-1.12q.22.13.35.46"/><path fill="#1b1f1a" d="M274.22 873.19q1.77-3.73 4.53-6.94c3.2-3.73 8.63-10.41 13.19-15.16q21.14-22.01 44.34-41.56a183 183 0 0 1 23.77-17.24.2.2 0 0 1 .28.06q.11.14.14.25a.2.2 0 0 1-.07.2q-27.89 23.58-54.22 48.14a213 213 0 0 0-13.82 13.8c-3.12 3.49-6.21 5.81-9.07 9.41q-3.23 4.06-8.72 9.29a.22.22 0 0 1-.35-.25"/><path fill="#fefefe" d="M1540 1020.41v.59h-.38q.11-.36.38-.59"/></svg>