<?xml version="1.0" encoding="UTF-8" standalone="no"?>
<!DOCTYPE svg PUBLIC "-//W3C//DTD SVG 1.1//EN" "http://www.w3.org/Graphics/SVG/1.1/DTD/svg11.dtd">
<svg xmlns="http://www.w3.org/2000/svg" version="1.1" viewBox="0.00 0.00 600.00 400.00">
<g stroke-width="2.00" fill="none" stroke-linecap="butt">
<path stroke="#80c8e6" vector-effect="non-scaling-stroke" d="
  M 300.03 172.18
  Q 300.05 172.18 300.74 173.65
  Q 303.00 178.45 308.42 178.31
  C 311.23 178.24 314.51 177.47 315.85 174.88
  A 1.21 1.19 48.4 0 0 315.90 173.89
  L 314.98 171.43
  A 1.03 1.03 0.0 0 1 316.34 170.11
  L 322.49 172.64
  A 1.30 0.20 8.5 0 1 322.62 172.68
  Q 329.66 174.47 337.45 174.07
  Q 357.08 173.06 375.45 165.36
  Q 379.63 163.60 382.95 160.74
  A 0.73 0.73 0.0 0 0 382.49 159.46
  Q 375.80 159.29 352.71 159.60
  C 340.17 159.76 328.84 166.98 316.19 164.73
  Q 314.80 164.49 314.42 163.59
  A 1.06 0.97 -12.1 0 1 315.39 162.24
  Q 330.73 161.41 344.13 154.82
  Q 353.84 150.05 360.55 146.24
  Q 362.70 145.02 364.13 143.43
  A 1.07 1.06 -63.9 0 0 363.53 141.67
  Q 361.23 141.24 359.21 141.34
  Q 347.41 141.92 335.73 143.27
  C 330.41 143.88 328.50 146.79 324.84 150.29
  Q 320.28 154.64 314.78 157.76
  A 0.60 0.59 60.2 0 1 313.97 157.53
  L 313.79 157.22
  A 1.17 1.16 58.5 0 1 314.16 155.66
  Q 320.13 151.76 323.34 148.30
  Q 334.34 136.44 340.58 120.32
  C 342.56 115.20 344.56 106.78 342.42 101.59
  A 1.52 1.52 0.0 0 0 340.22 100.87
  Q 333.81 104.82 328.70 111.16
  C 326.54 113.84 325.84 120.27 325.54 123.62
  Q 325.02 129.43 324.27 132.34
  Q 321.63 142.53 317.42 150.64
  Q 316.64 152.14 314.89 153.28
  A 0.69 0.69 0.0 0 1 313.82 152.69
  Q 313.82 152.67 313.79 152.58
  A 0.32 0.07 -57.6 0 1 313.88 152.33
  Q 324.61 134.05 324.13 112.63
  C 324.04 108.94 322.93 99.58 319.79 97.76
  A 2.15 1.99 -58.2 0 0 317.04 98.52
  C 314.21 102.81 313.58 107.26 314.12 112.88
  C 315.36 125.86 317.37 139.09 311.16 150.82
  A 1.41 1.34 -2.5 0 1 310.64 151.36
  L 309.73 151.88
  A 0.53 0.53 0.0 0 1 308.97 151.21
  Q 313.67 140.28 313.08 129.38
  Q 312.42 116.90 311.46 110.12
  C 310.77 105.26 307.03 88.39 299.99 88.39
  C 292.97 88.39 289.22 105.26 288.54 110.12
  Q 287.58 116.90 286.92 129.38
  Q 286.33 140.28 291.03 151.21
  A 0.53 0.53 0.0 0 1 290.28 151.88
  L 289.37 151.36
  A 1.41 1.34 2.4 0 1 288.84 150.82
  C 282.63 139.09 284.64 125.86 285.88 112.89
  C 286.42 107.26 285.79 102.81 282.96 98.52
  A 2.15 1.99 58.1 0 0 280.21 97.76
  C 277.07 99.58 275.96 108.94 275.87 112.64
  Q 275.39 134.06 286.12 152.34
  A 0.32 0.07 57.6 0 1 286.21 152.59
  Q 286.18 152.68 286.18 152.70
  A 0.69 0.69 0.0 0 1 285.11 153.29
  Q 283.36 152.15 282.58 150.64
  Q 278.37 142.53 275.73 132.35
  Q 274.98 129.43 274.46 123.62
  C 274.16 120.27 273.45 113.85 271.29 111.17
  Q 266.19 104.82 259.78 100.87
  A 1.52 1.52 0.0 0 0 257.58 101.59
  C 255.43 106.79 257.44 115.21 259.42 120.32
  Q 265.66 136.45 276.66 148.30
  Q 279.87 151.77 285.84 155.66
  A 1.17 1.16 -58.6 0 1 286.21 157.22
  L 286.03 157.53
  A 0.60 0.59 -60.2 0 1 285.22 157.76
  Q 279.72 154.65 275.16 150.30
  C 271.50 146.79 269.59 143.88 264.27 143.27
  Q 252.59 141.92 240.79 141.34
  Q 238.77 141.24 236.47 141.67
  A 1.07 1.06 63.9 0 0 235.87 143.43
  Q 237.30 145.03 239.45 146.25
  Q 246.16 150.06 255.87 154.83
  Q 269.28 161.41 284.61 162.24
  A 1.06 0.97 12.1 0 1 285.58 163.59
  Q 285.20 164.49 283.81 164.73
  C 271.17 166.98 259.83 159.76 247.29 159.60
  Q 224.20 159.30 217.51 159.47
  A 0.73 0.73 0.0 0 0 217.05 160.75
  Q 220.37 163.61 224.55 165.37
  Q 242.92 173.07 262.55 174.08
  Q 270.35 174.48 277.38 172.69
  A 1.30 0.20 -8.6 0 1 277.51 172.65
  L 283.66 170.11
  A 1.03 1.03 0.0 0 1 285.02 171.43
  L 284.10 173.90
  A 1.21 1.19 -48.4 0 0 284.15 174.89
  C 285.50 177.47 288.78 178.24 291.59 178.31
  Q 297.00 178.45 299.26 173.65
  Q 299.95 172.18 300.03 172.18"
/>
<path stroke="#80c8e6" vector-effect="non-scaling-stroke" d="
  M 176.85 305.51
  Q 176.87 305.51 177.56 306.99
  Q 179.82 311.78 185.23 311.64
  C 188.04 311.57 191.32 310.80 192.66 308.22
  A 1.21 1.19 48.4 0 0 192.71 307.23
  L 191.79 304.77
  A 1.03 1.03 0.0 0 1 193.15 303.45
  L 199.30 305.98
  A 1.30 0.20 8.6 0 1 199.43 306.02
  Q 206.46 307.81 214.25 307.41
  Q 233.87 306.40 252.23 298.70
  Q 256.41 296.94 259.73 294.09
  A 0.73 0.73 0.0 0 0 259.27 292.81
  Q 252.58 292.64 229.50 292.94
  C 216.97 293.10 205.64 300.32 193.00 298.07
  Q 191.61 297.83 191.23 296.93
  A 1.06 0.96 -12.1 0 1 192.20 295.58
  Q 207.53 294.75 220.93 288.17
  Q 230.63 283.40 237.34 279.59
  Q 239.49 278.37 240.92 276.78
  A 1.07 1.06 -63.9 0 0 240.32 275.02
  Q 238.02 274.59 236.00 274.69
  Q 224.21 275.27 212.53 276.62
  C 207.21 277.23 205.31 280.14 201.65 283.64
  Q 197.09 287.99 191.59 291.10
  A 0.60 0.59 60.2 0 1 190.78 290.87
  L 190.60 290.56
  A 1.17 1.16 58.6 0 1 190.97 289.00
  Q 196.94 285.11 200.15 281.65
  Q 211.14 269.80 217.38 253.68
  C 219.36 248.57 221.36 240.15 219.22 234.96
  A 1.52 1.52 0.0 0 0 217.02 234.24
  Q 210.61 238.19 205.51 244.53
  C 203.35 247.21 202.65 253.63 202.35 256.98
  Q 201.83 262.79 201.08 265.70
  Q 198.44 275.88 194.23 283.99
  Q 193.45 285.49 191.70 286.63
  A 0.69 0.69 0.0 0 1 190.63 286.04
  Q 190.63 286.02 190.60 285.93
  A 0.32 0.07 -57.6 0 1 190.69 285.68
  Q 201.42 267.41 200.94 246.00
  C 200.85 242.31 199.74 232.95 196.60 231.13
  A 2.15 1.99 -58.2 0 0 193.85 231.89
  C 191.02 236.18 190.39 240.63 190.93 246.25
  C 192.17 259.22 194.18 272.44 187.97 284.17
  A 1.41 1.34 -2.4 0 1 187.45 284.71
  L 186.54 285.23
  A 0.53 0.53 0.0 0 1 185.79 284.56
  Q 190.48 273.63 189.89 262.74
  Q 189.23 250.26 188.27 243.48
  C 187.59 238.63 183.85 221.77 176.82 221.77
  C 169.79 221.77 166.05 238.63 165.36 243.49
  Q 164.41 250.26 163.75 262.74
  Q 163.16 273.63 167.85 284.56
  A 0.53 0.53 0.0 0 1 167.10 285.23
  L 166.19 284.71
  A 1.41 1.34 2.4 0 1 165.67 284.17
  C 159.46 272.44 161.47 259.22 162.71 246.25
  C 163.25 240.63 162.62 236.18 159.79 231.89
  A 2.15 1.99 58.1 0 0 157.04 231.13
  C 153.90 232.95 152.79 242.31 152.70 246.00
  Q 152.22 267.41 162.95 285.68
  A 0.32 0.07 57.6 0 1 163.04 285.93
  Q 163.01 286.02 163.01 286.04
  A 0.69 0.69 0.0 0 1 161.94 286.63
  Q 160.19 285.49 159.41 283.99
  Q 155.20 275.88 152.56 265.70
  Q 151.81 262.79 151.29 256.98
  C 150.99 253.63 150.29 247.21 148.13 244.53
  Q 143.03 238.19 136.62 234.24
  A 1.52 1.52 0.0 0 0 134.42 234.96
  C 132.28 240.15 134.28 248.57 136.26 253.68
  Q 142.50 269.80 153.49 281.65
  Q 156.70 285.11 162.67 289.00
  A 1.17 1.16 -58.6 0 1 163.04 290.56
  L 162.86 290.87
  A 0.60 0.59 -60.2 0 1 162.05 291.10
  Q 156.55 287.99 151.99 283.64
  C 148.33 280.14 146.43 277.23 141.11 276.62
  Q 129.43 275.27 117.64 274.69
  Q 115.62 274.59 113.32 275.02
  A 1.07 1.06 63.9 0 0 112.72 276.78
  Q 114.15 278.37 116.30 279.59
  Q 123.01 283.40 132.71 288.17
  Q 146.11 294.75 161.44 295.58
  A 1.06 0.96 12.1 0 1 162.41 296.93
  Q 162.03 297.83 160.64 298.07
  C 148.00 300.32 136.67 293.10 124.14 292.94
  Q 101.06 292.64 94.37 292.81
  A 0.73 0.73 0.0 0 0 93.91 294.09
  Q 97.23 296.94 101.41 298.70
  Q 119.77 306.40 139.39 307.41
  Q 147.18 307.81 154.21 306.02
  A 1.30 0.20 -8.6 0 1 154.34 305.98
  L 160.49 303.45
  A 1.03 1.03 0.0 0 1 161.85 304.77
  L 160.93 307.23
  A 1.21 1.19 -48.4 0 0 160.98 308.22
  C 162.32 310.80 165.60 311.57 168.41 311.64
  Q 173.82 311.78 176.08 306.99
  Q 176.77 305.51 176.85 305.51"
/>
<path stroke="#80c8e6" vector-effect="non-scaling-stroke" d="
  M 418.99 305.51
  Q 419.07 305.51 419.76 306.99
  Q 422.02 311.78 427.43 311.64
  C 430.24 311.57 433.52 310.80 434.86 308.22
  A 1.21 1.19 48.4 0 0 434.91 307.23
  L 433.99 304.77
  A 1.03 1.03 0.0 0 1 435.35 303.45
  L 441.50 305.98
  A 1.30 0.20 8.6 0 1 441.63 306.02
  Q 448.66 307.81 456.45 307.41
  Q 476.07 306.41 494.43 298.71
  Q 498.61 296.95 501.93 294.10
  A 0.73 0.73 0.0 0 0 501.47 292.82
  Q 494.78 292.65 471.70 292.95
  C 459.17 293.10 447.84 300.32 435.20 298.07
  Q 433.81 297.83 433.43 296.93
  A 1.06 0.96 -12.1 0 1 434.40 295.58
  Q 449.73 294.75 463.13 288.18
  Q 472.83 283.41 479.54 279.60
  Q 481.69 278.38 483.12 276.79
  A 1.07 1.06 -63.9 0 0 482.52 275.03
  Q 480.22 274.60 478.20 274.70
  Q 466.41 275.28 454.73 276.63
  C 449.41 277.23 447.51 280.14 443.85 283.64
  Q 439.29 287.99 433.79 291.10
  A 0.60 0.59 60.2 0 1 432.98 290.87
  L 432.80 290.56
  A 1.17 1.16 58.6 0 1 433.17 289.00
  Q 439.14 285.11 442.35 281.65
  Q 453.34 269.81 459.58 253.69
  C 461.56 248.58 463.57 240.16 461.43 234.97
  A 1.52 1.52 0.0 0 0 459.23 234.25
  Q 452.82 238.20 447.72 244.54
  C 445.56 247.22 444.86 253.64 444.56 256.99
  Q 444.03 262.80 443.28 265.71
  Q 440.64 275.88 436.43 283.99
  Q 435.65 285.49 433.90 286.63
  A 0.69 0.69 0.0 0 1 432.83 286.04
  Q 432.83 286.02 432.80 285.93
  A 0.32 0.07 -57.6 0 1 432.89 285.68
  Q 443.62 267.41 443.15 246.01
  C 443.06 242.32 441.95 232.96 438.81 231.14
  A 2.15 1.99 -58.1 0 0 436.06 231.90
  C 433.23 236.19 432.60 240.64 433.14 246.26
  C 434.38 259.22 436.38 272.44 430.17 284.17
  A 1.41 1.34 -2.4 0 1 429.65 284.71
  L 428.74 285.23
  A 0.53 0.53 0.0 0 1 427.99 284.56
  Q 432.68 273.63 432.10 262.74
  Q 431.44 250.27 430.48 243.49
  C 429.80 238.63 426.06 221.78 419.03 221.78
  C 412.00 221.77 408.26 238.63 407.57 243.49
  Q 406.62 250.26 405.96 262.74
  Q 405.37 273.63 410.06 284.56
  A 0.53 0.53 0.0 0 1 409.31 285.23
  L 408.40 284.71
  A 1.41 1.34 2.5 0 1 407.88 284.17
  C 401.67 272.44 403.68 259.22 404.92 246.25
  C 405.46 240.63 404.83 236.18 402.00 231.89
  A 2.15 1.99 58.2 0 0 399.25 231.13
  C 396.11 232.95 395.00 242.31 394.91 246.00
  Q 394.43 267.41 405.16 285.68
  A 0.32 0.07 57.6 0 1 405.25 285.93
  Q 405.22 286.02 405.22 286.04
  A 0.69 0.69 0.0 0 1 404.15 286.63
  Q 402.40 285.49 401.62 283.99
  Q 397.41 275.88 394.77 265.70
  Q 394.02 262.79 393.50 256.98
  C 393.20 253.63 392.50 247.21 390.34 244.53
  Q 385.24 238.19 378.83 234.24
  A 1.52 1.52 0.0 0 0 376.63 234.96
  C 374.49 240.15 376.49 248.57 378.47 253.68
  Q 384.71 269.80 395.70 281.65
  Q 398.91 285.11 404.88 289.00
  A 1.17 1.16 -58.5 0 1 405.25 290.56
  L 405.07 290.87
  A 0.60 0.59 -60.2 0 1 404.26 291.10
  Q 398.76 287.99 394.20 283.64
  C 390.54 280.14 388.64 277.23 383.32 276.62
  Q 371.64 275.27 359.85 274.69
  Q 357.83 274.59 355.53 275.02
  A 1.07 1.06 63.9 0 0 354.93 276.78
  Q 356.36 278.37 358.51 279.59
  Q 365.22 283.40 374.92 288.17
  Q 388.32 294.75 403.64 295.58
  A 1.06 0.96 12.1 0 1 404.61 296.93
  Q 404.23 297.83 402.84 298.07
  C 390.21 300.32 378.88 293.10 366.35 292.94
  Q 343.27 292.63 336.58 292.80
  A 0.73 0.73 0.0 0 0 336.12 294.08
  Q 339.44 296.93 343.62 298.69
  Q 361.98 306.39 381.60 307.41
  Q 389.39 307.81 396.41 306.02
  A 1.30 0.20 -8.5 0 1 396.54 305.98
  L 402.69 303.45
  A 1.03 1.03 0.0 0 1 404.05 304.77
  L 403.13 307.23
  A 1.21 1.19 -48.3 0 0 403.18 308.22
  C 404.52 310.80 407.80 311.57 410.61 311.64
  Q 416.02 311.78 418.28 306.98
  Q 418.97 305.51 418.99 305.51"
/>
<path stroke="#80c8e6" vector-effect="non-scaling-stroke" d="
  M 300.00 100.94
  C 301.90 100.94 303.78 105.08 304.44 106.79
  C 309.24 119.18 310.38 133.68 306.89 146.80
  Q 305.36 152.54 304.84 155.22
  A 1.08 1.08 0.0 0 0 305.56 156.45
  L 305.59 156.46
  A 1.00 1.00 0.0 0 0 306.84 155.86
  Q 315.27 133.05 307.37 109.17
  C 306.46 106.41 303.47 98.10 300.01 98.10
  C 296.53 98.10 293.55 106.41 292.64 109.17
  Q 284.73 133.05 293.16 155.86
  A 1.00 1.00 0.0 0 0 294.41 156.46
  L 294.44 156.45
  A 1.08 1.08 0.0 0 0 295.16 155.22
  Q 294.64 152.54 293.11 146.80
  C 289.62 133.68 290.76 119.18 295.56 106.79
  C 296.23 105.08 298.10 100.94 300.00 100.94"
/>
<path stroke="#80c8e6" vector-effect="non-scaling-stroke" d="
  M 176.82 234.28
  C 178.72 234.28 180.59 238.42 181.25 240.13
  C 186.05 252.52 187.19 267.01 183.70 280.12
  Q 182.17 285.86 181.65 288.54
  A 1.08 1.08 0.0 0 0 182.37 289.77
  L 182.40 289.78
  A 1.00 1.00 0.0 0 0 183.65 289.18
  Q 192.08 266.38 184.18 242.51
  C 183.27 239.75 180.29 231.44 176.82 231.44
  C 173.34 231.44 170.36 239.75 169.45 242.50
  Q 161.55 266.38 169.98 289.18
  A 1.00 1.00 0.0 0 0 171.23 289.78
  L 171.26 289.77
  A 1.08 1.08 0.0 0 0 171.98 288.54
  Q 171.46 285.86 169.93 280.12
  C 166.44 267.01 167.58 252.52 172.38 240.13
  C 173.04 238.42 174.91 234.28 176.82 234.28"
/>
<path stroke="#80c8e6" vector-effect="non-scaling-stroke" d="
  M 419.03 234.27
  C 420.93 234.27 422.80 238.40 423.47 240.12
  C 428.27 252.51 429.41 267.01 425.92 280.13
  Q 424.39 285.87 423.87 288.55
  A 1.08 1.08 0.0 0 0 424.59 289.78
  L 424.62 289.79
  A 1.00 1.00 0.0 0 0 425.87 289.19
  Q 434.30 266.38 426.39 242.49
  C 425.48 239.74 422.50 231.42 419.03 231.42
  C 415.55 231.42 412.57 239.74 411.66 242.49
  Q 403.76 266.38 412.19 289.19
  A 1.00 1.00 0.0 0 0 413.44 289.79
  L 413.47 289.78
  A 1.08 1.08 0.0 0 0 414.19 288.55
  Q 413.67 285.87 412.14 280.13
  C 408.65 267.01 409.79 252.51 414.59 240.12
  C 415.25 238.40 417.12 234.27 419.03 234.27"
/>
</g>
<path fill="#0091cc" d="
  M 600.00 0.00
  L 600.00 400.00
  L 0.00 400.00
  L 0.00 0.00
  L 600.00 0.00
  Z
  M 300.03 172.18
  Q 300.05 172.18 300.74 173.65
  Q 303.00 178.45 308.42 178.31
  C 311.23 178.24 314.51 177.47 315.85 174.88
  A 1.21 1.19 48.4 0 0 315.90 173.89
  L 314.98 171.43
  A 1.03 1.03 0.0 0 1 316.34 170.11
  L 322.49 172.64
  A 1.30 0.20 8.5 0 1 322.62 172.68
  Q 329.66 174.47 337.45 174.07
  Q 357.08 173.06 375.45 165.36
  Q 379.63 163.60 382.95 160.74
  A 0.73 0.73 0.0 0 0 382.49 159.46
  Q 375.80 159.29 352.71 159.60
  C 340.17 159.76 328.84 166.98 316.19 164.73
  Q 314.80 164.49 314.42 163.59
  A 1.06 0.97 -12.1 0 1 315.39 162.24
  Q 330.73 161.41 344.13 154.82
  Q 353.84 150.05 360.55 146.24
  Q 362.70 145.02 364.13 143.43
  A 1.07 1.06 -63.9 0 0 363.53 141.67
  Q 361.23 141.24 359.21 141.34
  Q 347.41 141.92 335.73 143.27
  C 330.41 143.88 328.50 146.79 324.84 150.29
  Q 320.28 154.64 314.78 157.76
  A 0.60 0.59 60.2 0 1 313.97 157.53
  L 313.79 157.22
  A 1.17 1.16 58.5 0 1 314.16 155.66
  Q 320.13 151.76 323.34 148.30
  Q 334.34 136.44 340.58 120.32
  C 342.56 115.20 344.56 106.78 342.42 101.59
  A 1.52 1.52 0.0 0 0 340.22 100.87
  Q 333.81 104.82 328.70 111.16
  C 326.54 113.84 325.84 120.27 325.54 123.62
  Q 325.02 129.43 324.27 132.34
  Q 321.63 142.53 317.42 150.64
  Q 316.64 152.14 314.89 153.28
  A 0.69 0.69 0.0 0 1 313.82 152.69
  Q 313.82 152.67 313.79 152.58
  A 0.32 0.07 -57.6 0 1 313.88 152.33
  Q 324.61 134.05 324.13 112.63
  C 324.04 108.94 322.93 99.58 319.79 97.76
  A 2.15 1.99 -58.2 0 0 317.04 98.52
  C 314.21 102.81 313.58 107.26 314.12 112.88
  C 315.36 125.86 317.37 139.09 311.16 150.82
  A 1.41 1.34 -2.5 0 1 310.64 151.36
  L 309.73 151.88
  A 0.53 0.53 0.0 0 1 308.97 151.21
  Q 313.67 140.28 313.08 129.38
  Q 312.42 116.90 311.46 110.12
  C 310.77 105.26 307.03 88.39 299.99 88.39
  C 292.97 88.39 289.22 105.26 288.54 110.12
  Q 287.58 116.90 286.92 129.38
  Q 286.33 140.28 291.03 151.21
  A 0.53 0.53 0.0 0 1 290.28 151.88
  L 289.37 151.36
  A 1.41 1.34 2.4 0 1 288.84 150.82
  C 282.63 139.09 284.64 125.86 285.88 112.89
  C 286.42 107.26 285.79 102.81 282.96 98.52
  A 2.15 1.99 58.1 0 0 280.21 97.76
  C 277.07 99.58 275.96 108.94 275.87 112.64
  Q 275.39 134.06 286.12 152.34
  A 0.32 0.07 57.6 0 1 286.21 152.59
  Q 286.18 152.68 286.18 152.70
  A 0.69 0.69 0.0 0 1 285.11 153.29
  Q 283.36 152.15 282.58 150.64
  Q 278.37 142.53 275.73 132.35
  Q 274.98 129.43 274.46 123.62
  C 274.16 120.27 273.45 113.85 271.29 111.17
  Q 266.19 104.82 259.78 100.87
  A 1.52 1.52 0.0 0 0 257.58 101.59
  C 255.43 106.79 257.44 115.21 259.42 120.32
  Q 265.66 136.45 276.66 148.30
  Q 279.87 151.77 285.84 155.66
  A 1.17 1.16 -58.6 0 1 286.21 157.22
  L 286.03 157.53
  A 0.60 0.59 -60.2 0 1 285.22 157.76
  Q 279.72 154.65 275.16 150.30
  C 271.50 146.79 269.59 143.88 264.27 143.27
  Q 252.59 141.92 240.79 141.34
  Q 238.77 141.24 236.47 141.67
  A 1.07 1.06 63.9 0 0 235.87 143.43
  Q 237.30 145.03 239.45 146.25
  Q 246.16 150.06 255.87 154.83
  Q 269.28 161.41 284.61 162.24
  A 1.06 0.97 12.1 0 1 285.58 163.59
  Q 285.20 164.49 283.81 164.73
  C 271.17 166.98 259.83 159.76 247.29 159.60
  Q 224.20 159.30 217.51 159.47
  A 0.73 0.73 0.0 0 0 217.05 160.75
  Q 220.37 163.61 224.55 165.37
  Q 242.92 173.07 262.55 174.08
  Q 270.35 174.48 277.38 172.69
  A 1.30 0.20 -8.6 0 1 277.51 172.65
  L 283.66 170.11
  A 1.03 1.03 0.0 0 1 285.02 171.43
  L 284.10 173.90
  A 1.21 1.19 -48.4 0 0 284.15 174.89
  C 285.50 177.47 288.78 178.24 291.59 178.31
  Q 297.00 178.45 299.26 173.65
  Q 299.95 172.18 300.03 172.18
  Z
  M 176.85 305.51
  Q 176.87 305.51 177.56 306.99
  Q 179.82 311.78 185.23 311.64
  C 188.04 311.57 191.32 310.80 192.66 308.22
  A 1.21 1.19 48.4 0 0 192.71 307.23
  L 191.79 304.77
  A 1.03 1.03 0.0 0 1 193.15 303.45
  L 199.30 305.98
  A 1.30 0.20 8.6 0 1 199.43 306.02
  Q 206.46 307.81 214.25 307.41
  Q 233.87 306.40 252.23 298.70
  Q 256.41 296.94 259.73 294.09
  A 0.73 0.73 0.0 0 0 259.27 292.81
  Q 252.58 292.64 229.50 292.94
  C 216.97 293.10 205.64 300.32 193.00 298.07
  Q 191.61 297.83 191.23 296.93
  A 1.06 0.96 -12.1 0 1 192.20 295.58
  Q 207.53 294.75 220.93 288.17
  Q 230.63 283.40 237.34 279.59
  Q 239.49 278.37 240.92 276.78
  A 1.07 1.06 -63.9 0 0 240.32 275.02
  Q 238.02 274.59 236.00 274.69
  Q 224.21 275.27 212.53 276.62
  C 207.21 277.23 205.31 280.14 201.65 283.64
  Q 197.09 287.99 191.59 291.10
  A 0.60 0.59 60.2 0 1 190.78 290.87
  L 190.60 290.56
  A 1.17 1.16 58.6 0 1 190.97 289.00
  Q 196.94 285.11 200.15 281.65
  Q 211.14 269.80 217.38 253.68
  C 219.36 248.57 221.36 240.15 219.22 234.96
  A 1.52 1.52 0.0 0 0 217.02 234.24
  Q 210.61 238.19 205.51 244.53
  C 203.35 247.21 202.65 253.63 202.35 256.98
  Q 201.83 262.79 201.08 265.70
  Q 198.44 275.88 194.23 283.99
  Q 193.45 285.49 191.70 286.63
  A 0.69 0.69 0.0 0 1 190.63 286.04
  Q 190.63 286.02 190.60 285.93
  A 0.32 0.07 -57.6 0 1 190.69 285.68
  Q 201.42 267.41 200.94 246.00
  C 200.85 242.31 199.74 232.95 196.60 231.13
  A 2.15 1.99 -58.2 0 0 193.85 231.89
  C 191.02 236.18 190.39 240.63 190.93 246.25
  C 192.17 259.22 194.18 272.44 187.97 284.17
  A 1.41 1.34 -2.4 0 1 187.45 284.71
  L 186.54 285.23
  A 0.53 0.53 0.0 0 1 185.79 284.56
  Q 190.48 273.63 189.89 262.74
  Q 189.23 250.26 188.27 243.48
  C 187.59 238.63 183.85 221.77 176.82 221.77
  C 169.79 221.77 166.05 238.63 165.36 243.49
  Q 164.41 250.26 163.75 262.74
  Q 163.16 273.63 167.85 284.56
  A 0.53 0.53 0.0 0 1 167.10 285.23
  L 166.19 284.71
  A 1.41 1.34 2.4 0 1 165.67 284.17
  C 159.46 272.44 161.47 259.22 162.71 246.25
  C 163.25 240.63 162.62 236.18 159.79 231.89
  A 2.15 1.99 58.1 0 0 157.04 231.13
  C 153.90 232.95 152.79 242.31 152.70 246.00
  Q 152.22 267.41 162.95 285.68
  A 0.32 0.07 57.6 0 1 163.04 285.93
  Q 163.01 286.02 163.01 286.04
  A 0.69 0.69 0.0 0 1 161.94 286.63
  Q 160.19 285.49 159.41 283.99
  Q 155.20 275.88 152.56 265.70
  Q 151.81 262.79 151.29 256.98
  C 150.99 253.63 150.29 247.21 148.13 244.53
  Q 143.03 238.19 136.62 234.24
  A 1.52 1.52 0.0 0 0 134.42 234.96
  C 132.28 240.15 134.28 248.57 136.26 253.68
  Q 142.50 269.80 153.49 281.65
  Q 156.70 285.11 162.67 289.00
  A 1.17 1.16 -58.6 0 1 163.04 290.56
  L 162.86 290.87
  A 0.60 0.59 -60.2 0 1 162.05 291.10
  Q 156.55 287.99 151.99 283.64
  C 148.33 280.14 146.43 277.23 141.11 276.62
  Q 129.43 275.27 117.64 274.69
  Q 115.62 274.59 113.32 275.02
  A 1.07 1.06 63.9 0 0 112.72 276.78
  Q 114.15 278.37 116.30 279.59
  Q 123.01 283.40 132.71 288.17
  Q 146.11 294.75 161.44 295.58
  A 1.06 0.96 12.1 0 1 162.41 296.93
  Q 162.03 297.83 160.64 298.07
  C 148.00 300.32 136.67 293.10 124.14 292.94
  Q 101.06 292.64 94.37 292.81
  A 0.73 0.73 0.0 0 0 93.91 294.09
  Q 97.23 296.94 101.41 298.70
  Q 119.77 306.40 139.39 307.41
  Q 147.18 307.81 154.21 306.02
  A 1.30 0.20 -8.6 0 1 154.34 305.98
  L 160.49 303.45
  A 1.03 1.03 0.0 0 1 161.85 304.77
  L 160.93 307.23
  A 1.21 1.19 -48.4 0 0 160.98 308.22
  C 162.32 310.80 165.60 311.57 168.41 311.64
  Q 173.82 311.78 176.08 306.99
  Q 176.77 305.51 176.85 305.51
  Z
  M 418.99 305.51
  Q 419.07 305.51 419.76 306.99
  Q 422.02 311.78 427.43 311.64
  C 430.24 311.57 433.52 310.80 434.86 308.22
  A 1.21 1.19 48.4 0 0 434.91 307.23
  L 433.99 304.77
  A 1.03 1.03 0.0 0 1 435.35 303.45
  L 441.50 305.98
  A 1.30 0.20 8.6 0 1 441.63 306.02
  Q 448.66 307.81 456.45 307.41
  Q 476.07 306.41 494.43 298.71
  Q 498.61 296.95 501.93 294.10
  A 0.73 0.73 0.0 0 0 501.47 292.82
  Q 494.78 292.65 471.70 292.95
  C 459.17 293.10 447.84 300.32 435.20 298.07
  Q 433.81 297.83 433.43 296.93
  A 1.06 0.96 -12.1 0 1 434.40 295.58
  Q 449.73 294.75 463.13 288.18
  Q 472.83 283.41 479.54 279.60
  Q 481.69 278.38 483.12 276.79
  A 1.07 1.06 -63.9 0 0 482.52 275.03
  Q 480.22 274.60 478.20 274.70
  Q 466.41 275.28 454.73 276.63
  C 449.41 277.23 447.51 280.14 443.85 283.64
  Q 439.29 287.99 433.79 291.10
  A 0.60 0.59 60.2 0 1 432.98 290.87
  L 432.80 290.56
  A 1.17 1.16 58.6 0 1 433.17 289.00
  Q 439.14 285.11 442.35 281.65
  Q 453.34 269.81 459.58 253.69
  C 461.56 248.58 463.57 240.16 461.43 234.97
  A 1.52 1.52 0.0 0 0 459.23 234.25
  Q 452.82 238.20 447.72 244.54
  C 445.56 247.22 444.86 253.64 444.56 256.99
  Q 444.03 262.80 443.28 265.71
  Q 440.64 275.88 436.43 283.99
  Q 435.65 285.49 433.90 286.63
  A 0.69 0.69 0.0 0 1 432.83 286.04
  Q 432.83 286.02 432.80 285.93
  A 0.32 0.07 -57.6 0 1 432.89 285.68
  Q 443.62 267.41 443.15 246.01
  C 443.06 242.32 441.95 232.96 438.81 231.14
  A 2.15 1.99 -58.1 0 0 436.06 231.90
  C 433.23 236.19 432.60 240.64 433.14 246.26
  C 434.38 259.22 436.38 272.44 430.17 284.17
  A 1.41 1.34 -2.4 0 1 429.65 284.71
  L 428.74 285.23
  A 0.53 0.53 0.0 0 1 427.99 284.56
  Q 432.68 273.63 432.10 262.74
  Q 431.44 250.27 430.48 243.49
  C 429.80 238.63 426.06 221.78 419.03 221.78
  C 412.00 221.77 408.26 238.63 407.57 243.49
  Q 406.62 250.26 405.96 262.74
  Q 405.37 273.63 410.06 284.56
  A 0.53 0.53 0.0 0 1 409.31 285.23
  L 408.40 284.71
  A 1.41 1.34 2.5 0 1 407.88 284.17
  C 401.67 272.44 403.68 259.22 404.92 246.25
  C 405.46 240.63 404.83 236.18 402.00 231.89
  A 2.15 1.99 58.2 0 0 399.25 231.13
  C 396.11 232.95 395.00 242.31 394.91 246.00
  Q 394.43 267.41 405.16 285.68
  A 0.32 0.07 57.6 0 1 405.25 285.93
  Q 405.22 286.02 405.22 286.04
  A 0.69 0.69 0.0 0 1 404.15 286.63
  Q 402.40 285.49 401.62 283.99
  Q 397.41 275.88 394.77 265.70
  Q 394.02 262.79 393.50 256.98
  C 393.20 253.63 392.50 247.21 390.34 244.53
  Q 385.24 238.19 378.83 234.24
  A 1.52 1.52 0.0 0 0 376.63 234.96
  C 374.49 240.15 376.49 248.57 378.47 253.68
  Q 384.71 269.80 395.70 281.65
  Q 398.91 285.11 404.88 289.00
  A 1.17 1.16 -58.5 0 1 405.25 290.56
  L 405.07 290.87
  A 0.60 0.59 -60.2 0 1 404.26 291.10
  Q 398.76 287.99 394.20 283.64
  C 390.54 280.14 388.64 277.23 383.32 276.62
  Q 371.64 275.27 359.85 274.69
  Q 357.83 274.59 355.53 275.02
  A 1.07 1.06 63.9 0 0 354.93 276.78
  Q 356.36 278.37 358.51 279.59
  Q 365.22 283.40 374.92 288.17
  Q 388.32 294.75 403.64 295.58
  A 1.06 0.96 12.1 0 1 404.61 296.93
  Q 404.23 297.83 402.84 298.07
  C 390.21 300.32 378.88 293.10 366.35 292.94
  Q 343.27 292.63 336.58 292.80
  A 0.73 0.73 0.0 0 0 336.12 294.08
  Q 339.44 296.93 343.62 298.69
  Q 361.98 306.39 381.60 307.41
  Q 389.39 307.81 396.41 306.02
  A 1.30 0.20 -8.5 0 1 396.54 305.98
  L 402.69 303.45
  A 1.03 1.03 0.0 0 1 404.05 304.77
  L 403.13 307.23
  A 1.21 1.19 -48.3 0 0 403.18 308.22
  C 404.52 310.80 407.80 311.57 410.61 311.64
  Q 416.02 311.78 418.28 306.98
  Q 418.97 305.51 418.99 305.51
  Z"
/>
<path fill="#ffffff" d="
  M 300.03 172.18
  Q 299.95 172.18 299.26 173.65
  Q 297.00 178.45 291.59 178.31
  C 288.78 178.24 285.50 177.47 284.15 174.89
  A 1.21 1.19 -48.4 0 1 284.10 173.90
  L 285.02 171.43
  A 1.03 1.03 0.0 0 0 283.66 170.11
  L 277.51 172.65
  A 1.30 0.20 -8.6 0 0 277.38 172.69
  Q 270.35 174.48 262.55 174.08
  Q 242.92 173.07 224.55 165.37
  Q 220.37 163.61 217.05 160.75
  A 0.73 0.73 0.0 0 1 217.51 159.47
  Q 224.20 159.30 247.29 159.60
  C 259.83 159.76 271.17 166.98 283.81 164.73
  Q 285.20 164.49 285.58 163.59
  A 1.06 0.97 12.1 0 0 284.61 162.24
  Q 269.28 161.41 255.87 154.83
  Q 246.16 150.06 239.45 146.25
  Q 237.30 145.03 235.87 143.43
  A 1.07 1.06 63.9 0 1 236.47 141.67
  Q 238.77 141.24 240.79 141.34
  Q 252.59 141.92 264.27 143.27
  C 269.59 143.88 271.50 146.79 275.16 150.30
  Q 279.72 154.65 285.22 157.76
  A 0.60 0.59 -60.2 0 0 286.03 157.53
  L 286.21 157.22
  A 1.17 1.16 -58.6 0 0 285.84 155.66
  Q 279.87 151.77 276.66 148.30
  Q 265.66 136.45 259.42 120.32
  C 257.44 115.21 255.43 106.79 257.58 101.59
  A 1.52 1.52 0.0 0 1 259.78 100.87
  Q 266.19 104.82 271.29 111.17
  C 273.45 113.85 274.16 120.27 274.46 123.62
  Q 274.98 129.43 275.73 132.35
  Q 278.37 142.53 282.58 150.64
  Q 283.36 152.15 285.11 153.29
  A 0.69 0.69 0.0 0 0 286.18 152.70
  Q 286.18 152.68 286.21 152.59
  A 0.32 0.07 57.6 0 0 286.12 152.34
  Q 275.39 134.06 275.87 112.64
  C 275.96 108.94 277.07 99.58 280.21 97.76
  A 2.15 1.99 58.1 0 1 282.96 98.52
  C 285.79 102.81 286.42 107.26 285.88 112.89
  C 284.64 125.86 282.63 139.09 288.84 150.82
  A 1.41 1.34 2.4 0 0 289.37 151.36
  L 290.28 151.88
  A 0.53 0.53 0.0 0 0 291.03 151.21
  Q 286.33 140.28 286.92 129.38
  Q 287.58 116.90 288.54 110.12
  C 289.22 105.26 292.97 88.39 299.99 88.39
  C 307.03 88.39 310.77 105.26 311.46 110.12
  Q 312.42 116.90 313.08 129.38
  Q 313.67 140.28 308.97 151.21
  A 0.53 0.53 0.0 0 0 309.73 151.88
  L 310.64 151.36
  A 1.41 1.34 -2.5 0 0 311.16 150.82
  C 317.37 139.09 315.36 125.86 314.12 112.88
  C 313.58 107.26 314.21 102.81 317.04 98.52
  A 2.15 1.99 -58.2 0 1 319.79 97.76
  C 322.93 99.58 324.04 108.94 324.13 112.63
  Q 324.61 134.05 313.88 152.33
  A 0.32 0.07 -57.6 0 0 313.79 152.58
  Q 313.82 152.67 313.82 152.69
  A 0.69 0.69 0.0 0 0 314.89 153.28
  Q 316.64 152.14 317.42 150.64
  Q 321.63 142.53 324.27 132.34
  Q 325.02 129.43 325.54 123.62
  C 325.84 120.27 326.54 113.84 328.70 111.16
  Q 333.81 104.82 340.22 100.87
  A 1.52 1.52 0.0 0 1 342.42 101.59
  C 344.56 106.78 342.56 115.20 340.58 120.32
  Q 334.34 136.44 323.34 148.30
  Q 320.13 151.76 314.16 155.66
  A 1.17 1.16 58.5 0 0 313.79 157.22
  L 313.97 157.53
  A 0.60 0.59 60.2 0 0 314.78 157.76
  Q 320.28 154.64 324.84 150.29
  C 328.50 146.79 330.41 143.88 335.73 143.27
  Q 347.41 141.92 359.21 141.34
  Q 361.23 141.24 363.53 141.67
  A 1.07 1.06 -63.9 0 1 364.13 143.43
  Q 362.70 145.02 360.55 146.24
  Q 353.84 150.05 344.13 154.82
  Q 330.73 161.41 315.39 162.24
  A 1.06 0.97 -12.1 0 0 314.42 163.59
  Q 314.80 164.49 316.19 164.73
  C 328.84 166.98 340.17 159.76 352.71 159.60
  Q 375.80 159.29 382.49 159.46
  A 0.73 0.73 0.0 0 1 382.95 160.74
  Q 379.63 163.60 375.45 165.36
  Q 357.08 173.06 337.45 174.07
  Q 329.66 174.47 322.62 172.68
  A 1.30 0.20 8.5 0 0 322.49 172.64
  L 316.34 170.11
  A 1.03 1.03 0.0 0 0 314.98 171.43
  L 315.90 173.89
  A 1.21 1.19 48.4 0 1 315.85 174.88
  C 314.51 177.47 311.23 178.24 308.42 178.31
  Q 303.00 178.45 300.74 173.65
  Q 300.05 172.18 300.03 172.18
  Z
  M 300.00 100.94
  C 301.90 100.94 303.78 105.08 304.44 106.79
  C 309.24 119.18 310.38 133.68 306.89 146.80
  Q 305.36 152.54 304.84 155.22
  A 1.08 1.08 0.0 0 0 305.56 156.45
  L 305.59 156.46
  A 1.00 1.00 0.0 0 0 306.84 155.86
  Q 315.27 133.05 307.37 109.17
  C 306.46 106.41 303.47 98.10 300.01 98.10
  C 296.53 98.10 293.55 106.41 292.64 109.17
  Q 284.73 133.05 293.16 155.86
  A 1.00 1.00 0.0 0 0 294.41 156.46
  L 294.44 156.45
  A 1.08 1.08 0.0 0 0 295.16 155.22
  Q 294.64 152.54 293.11 146.80
  C 289.62 133.68 290.76 119.18 295.56 106.79
  C 296.23 105.08 298.10 100.94 300.00 100.94
  Z"
/>
<path fill="#0091cc" d="
  M 300.01 98.10
  C 303.47 98.10 306.46 106.41 307.37 109.17
  Q 315.27 133.05 306.84 155.86
  A 1.00 1.00 0.0 0 1 305.59 156.46
  L 305.56 156.45
  A 1.08 1.08 0.0 0 1 304.84 155.22
  Q 305.36 152.54 306.89 146.80
  C 310.38 133.68 309.24 119.18 304.44 106.79
  C 303.78 105.08 301.90 100.94 300.00 100.94
  C 298.10 100.94 296.23 105.08 295.56 106.79
  C 290.76 119.18 289.62 133.68 293.11 146.80
  Q 294.64 152.54 295.16 155.22
  A 1.08 1.08 0.0 0 1 294.44 156.45
  L 294.41 156.46
  A 1.00 1.00 0.0 0 1 293.16 155.86
  Q 284.73 133.05 292.64 109.17
  C 293.55 106.41 296.53 98.10 300.01 98.10
  Z"
/>
<path fill="#ffffff" d="
  M 176.82 221.77
  C 183.85 221.77 187.59 238.63 188.27 243.48
  Q 189.23 250.26 189.89 262.74
  Q 190.48 273.63 185.79 284.56
  A 0.53 0.53 0.0 0 0 186.54 285.23
  L 187.45 284.71
  A 1.41 1.34 -2.4 0 0 187.97 284.17
  C 194.18 272.44 192.17 259.22 190.93 246.25
  C 190.39 240.63 191.02 236.18 193.85 231.89
  A 2.15 1.99 -58.2 0 1 196.60 231.13
  C 199.74 232.95 200.85 242.31 200.94 246.00
  Q 201.42 267.41 190.69 285.68
  A 0.32 0.07 -57.6 0 0 190.60 285.93
  Q 190.63 286.02 190.63 286.04
  A 0.69 0.69 0.0 0 0 191.70 286.63
  Q 193.45 285.49 194.23 283.99
  Q 198.44 275.88 201.08 265.70
  Q 201.83 262.79 202.35 256.98
  C 202.65 253.63 203.35 247.21 205.51 244.53
  Q 210.61 238.19 217.02 234.24
  A 1.52 1.52 0.0 0 1 219.22 234.96
  C 221.36 240.15 219.36 248.57 217.38 253.68
  Q 211.14 269.80 200.15 281.65
  Q 196.94 285.11 190.97 289.00
  A 1.17 1.16 58.6 0 0 190.60 290.56
  L 190.78 290.87
  A 0.60 0.59 60.2 0 0 191.59 291.10
  Q 197.09 287.99 201.65 283.64
  C 205.31 280.14 207.21 277.23 212.53 276.62
  Q 224.21 275.27 236.00 274.69
  Q 238.02 274.59 240.32 275.02
  A 1.07 1.06 -63.9 0 1 240.92 276.78
  Q 239.49 278.37 237.34 279.59
  Q 230.63 283.40 220.93 288.17
  Q 207.53 294.75 192.20 295.58
  A 1.06 0.96 -12.1 0 0 191.23 296.93
  Q 191.61 297.83 193.00 298.07
  C 205.64 300.32 216.97 293.10 229.50 292.94
  Q 252.58 292.64 259.27 292.81
  A 0.73 0.73 0.0 0 1 259.73 294.09
  Q 256.41 296.94 252.23 298.70
  Q 233.87 306.40 214.25 307.41
  Q 206.46 307.81 199.43 306.02
  A 1.30 0.20 8.6 0 0 199.30 305.98
  L 193.15 303.45
  A 1.03 1.03 0.0 0 0 191.79 304.77
  L 192.71 307.23
  A 1.21 1.19 48.4 0 1 192.66 308.22
  C 191.32 310.80 188.04 311.57 185.23 311.64
  Q 179.82 311.78 177.56 306.99
  Q 176.87 305.51 176.85 305.51
  Q 176.77 305.51 176.08 306.99
  Q 173.82 311.78 168.41 311.64
  C 165.60 311.57 162.32 310.80 160.98 308.22
  A 1.21 1.19 -48.4 0 1 160.93 307.23
  L 161.85 304.77
  A 1.03 1.03 0.0 0 0 160.49 303.45
  L 154.34 305.98
  A 1.30 0.20 -8.6 0 0 154.21 306.02
  Q 147.18 307.81 139.39 307.41
  Q 119.77 306.40 101.41 298.70
  Q 97.23 296.94 93.91 294.09
  A 0.73 0.73 0.0 0 1 94.37 292.81
  Q 101.06 292.64 124.14 292.94
  C 136.67 293.10 148.00 300.32 160.64 298.07
  Q 162.03 297.83 162.41 296.93
  A 1.06 0.96 12.1 0 0 161.44 295.58
  Q 146.11 294.75 132.71 288.17
  Q 123.01 283.40 116.30 279.59
  Q 114.15 278.37 112.72 276.78
  A 1.07 1.06 63.9 0 1 113.32 275.02
  Q 115.62 274.59 117.64 274.69
  Q 129.43 275.27 141.11 276.62
  C 146.43 277.23 148.33 280.14 151.99 283.64
  Q 156.55 287.99 162.05 291.10
  A 0.60 0.59 -60.2 0 0 162.86 290.87
  L 163.04 290.56
  A 1.17 1.16 -58.6 0 0 162.67 289.00
  Q 156.70 285.11 153.49 281.65
  Q 142.50 269.80 136.26 253.68
  C 134.28 248.57 132.28 240.15 134.42 234.96
  A 1.52 1.52 0.0 0 1 136.62 234.24
  Q 143.03 238.19 148.13 244.53
  C 150.29 247.21 150.99 253.63 151.29 256.98
  Q 151.81 262.79 152.56 265.70
  Q 155.20 275.88 159.41 283.99
  Q 160.19 285.49 161.94 286.63
  A 0.69 0.69 0.0 0 0 163.01 286.04
  Q 163.01 286.02 163.04 285.93
  A 0.32 0.07 57.6 0 0 162.95 285.68
  Q 152.22 267.41 152.70 246.00
  C 152.79 242.31 153.90 232.95 157.04 231.13
  A 2.15 1.99 58.1 0 1 159.79 231.89
  C 162.62 236.18 163.25 240.63 162.71 246.25
  C 161.47 259.22 159.46 272.44 165.67 284.17
  A 1.41 1.34 2.4 0 0 166.19 284.71
  L 167.10 285.23
  A 0.53 0.53 0.0 0 0 167.85 284.56
  Q 163.16 273.63 163.75 262.74
  Q 164.41 250.26 165.36 243.49
  C 166.05 238.63 169.79 221.77 176.82 221.77
  Z
  M 176.82 234.28
  C 178.72 234.28 180.59 238.42 181.25 240.13
  C 186.05 252.52 187.19 267.01 183.70 280.12
  Q 182.17 285.86 181.65 288.54
  A 1.08 1.08 0.0 0 0 182.37 289.77
  L 182.40 289.78
  A 1.00 1.00 0.0 0 0 183.65 289.18
  Q 192.08 266.38 184.18 242.51
  C 183.27 239.75 180.29 231.44 176.82 231.44
  C 173.34 231.44 170.36 239.75 169.45 242.50
  Q 161.55 266.38 169.98 289.18
  A 1.00 1.00 0.0 0 0 171.23 289.78
  L 171.26 289.77
  A 1.08 1.08 0.0 0 0 171.98 288.54
  Q 171.46 285.86 169.93 280.12
  C 166.44 267.01 167.58 252.52 172.38 240.13
  C 173.04 238.42 174.91 234.28 176.82 234.28
  Z"
/>
<path fill="#ffffff" d="
  M 418.99 305.51
  Q 418.97 305.51 418.28 306.98
  Q 416.02 311.78 410.61 311.64
  C 407.80 311.57 404.52 310.80 403.18 308.22
  A 1.21 1.19 -48.3 0 1 403.13 307.23
  L 404.05 304.77
  A 1.03 1.03 0.0 0 0 402.69 303.45
  L 396.54 305.98
  A 1.30 0.20 -8.5 0 0 396.41 306.02
  Q 389.39 307.81 381.60 307.41
  Q 361.98 306.39 343.62 298.69
  Q 339.44 296.93 336.12 294.08
  A 0.73 0.73 0.0 0 1 336.58 292.80
  Q 343.27 292.63 366.35 292.94
  C 378.88 293.10 390.21 300.32 402.84 298.07
  Q 404.23 297.83 404.61 296.93
  A 1.06 0.96 12.1 0 0 403.64 295.58
  Q 388.32 294.75 374.92 288.17
  Q 365.22 283.40 358.51 279.59
  Q 356.36 278.37 354.93 276.78
  A 1.07 1.06 63.9 0 1 355.53 275.02
  Q 357.83 274.59 359.85 274.69
  Q 371.64 275.27 383.32 276.62
  C 388.64 277.23 390.54 280.14 394.20 283.64
  Q 398.76 287.99 404.26 291.10
  A 0.60 0.59 -60.2 0 0 405.07 290.87
  L 405.25 290.56
  A 1.17 1.16 -58.5 0 0 404.88 289.00
  Q 398.91 285.11 395.70 281.65
  Q 384.71 269.80 378.47 253.68
  C 376.49 248.57 374.49 240.15 376.63 234.96
  A 1.52 1.52 0.0 0 1 378.83 234.24
  Q 385.24 238.19 390.34 244.53
  C 392.50 247.21 393.20 253.63 393.50 256.98
  Q 394.02 262.79 394.77 265.70
  Q 397.41 275.88 401.62 283.99
  Q 402.40 285.49 404.15 286.63
  A 0.69 0.69 0.0 0 0 405.22 286.04
  Q 405.22 286.02 405.25 285.93
  A 0.32 0.07 57.6 0 0 405.16 285.68
  Q 394.43 267.41 394.91 246.00
  C 395.00 242.31 396.11 232.95 399.25 231.13
  A 2.15 1.99 58.2 0 1 402.00 231.89
  C 404.83 236.18 405.46 240.63 404.92 246.25
  C 403.68 259.22 401.67 272.44 407.88 284.17
  A 1.41 1.34 2.5 0 0 408.40 284.71
  L 409.31 285.23
  A 0.53 0.53 0.0 0 0 410.06 284.56
  Q 405.37 273.63 405.96 262.74
  Q 406.62 250.26 407.57 243.49
  C 408.26 238.63 412.00 221.77 419.03 221.78
  C 426.06 221.78 429.80 238.63 430.48 243.49
  Q 431.44 250.27 432.10 262.74
  Q 432.68 273.63 427.99 284.56
  A 0.53 0.53 0.0 0 0 428.74 285.23
  L 429.65 284.71
  A 1.41 1.34 -2.4 0 0 430.17 284.17
  C 436.38 272.44 434.38 259.22 433.14 246.26
  C 432.60 240.64 433.23 236.19 436.06 231.90
  A 2.15 1.99 -58.1 0 1 438.81 231.14
  C 441.95 232.96 443.06 242.32 443.15 246.01
  Q 443.62 267.41 432.89 285.68
  A 0.32 0.07 -57.6 0 0 432.80 285.93
  Q 432.83 286.02 432.83 286.04
  A 0.69 0.69 0.0 0 0 433.90 286.63
  Q 435.65 285.49 436.43 283.99
  Q 440.64 275.88 443.28 265.71
  Q 444.03 262.80 444.56 256.99
  C 444.86 253.64 445.56 247.22 447.72 244.54
  Q 452.82 238.20 459.23 234.25
  A 1.52 1.52 0.0 0 1 461.43 234.97
  C 463.57 240.16 461.56 248.58 459.58 253.69
  Q 453.34 269.81 442.35 281.65
  Q 439.14 285.11 433.17 289.00
  A 1.17 1.16 58.6 0 0 432.80 290.56
  L 432.98 290.87
  A 0.60 0.59 60.2 0 0 433.79 291.10
  Q 439.29 287.99 443.85 283.64
  C 447.51 280.14 449.41 277.23 454.73 276.63
  Q 466.41 275.28 478.20 274.70
  Q 480.22 274.60 482.52 275.03
  A 1.07 1.06 -63.9 0 1 483.12 276.79
  Q 481.69 278.38 479.54 279.60
  Q 472.83 283.41 463.13 288.18
  Q 449.73 294.75 434.40 295.58
  A 1.06 0.96 -12.1 0 0 433.43 296.93
  Q 433.81 297.83 435.20 298.07
  C 447.84 300.32 459.17 293.10 471.70 292.95
  Q 494.78 292.65 501.47 292.82
  A 0.73 0.73 0.0 0 1 501.93 294.10
  Q 498.61 296.95 494.43 298.71
  Q 476.07 306.41 456.45 307.41
  Q 448.66 307.81 441.63 306.02
  A 1.30 0.20 8.6 0 0 441.50 305.98
  L 435.35 303.45
  A 1.03 1.03 0.0 0 0 433.99 304.77
  L 434.91 307.23
  A 1.21 1.19 48.4 0 1 434.86 308.22
  C 433.52 310.80 430.24 311.57 427.43 311.64
  Q 422.02 311.78 419.76 306.99
  Q 419.07 305.51 418.99 305.51
  Z
  M 419.03 234.27
  C 420.93 234.27 422.80 238.40 423.47 240.12
  C 428.27 252.51 429.41 267.01 425.92 280.13
  Q 424.39 285.87 423.87 288.55
  A 1.08 1.08 0.0 0 0 424.59 289.78
  L 424.62 289.79
  A 1.00 1.00 0.0 0 0 425.87 289.19
  Q 434.30 266.38 426.39 242.49
  C 425.48 239.74 422.50 231.42 419.03 231.42
  C 415.55 231.42 412.57 239.74 411.66 242.49
  Q 403.76 266.38 412.19 289.19
  A 1.00 1.00 0.0 0 0 413.44 289.79
  L 413.47 289.78
  A 1.08 1.08 0.0 0 0 414.19 288.55
  Q 413.67 285.87 412.14 280.13
  C 408.65 267.01 409.79 252.51 414.59 240.12
  C 415.25 238.40 417.12 234.27 419.03 234.27
  Z"
/>
<path fill="#0091cc" d="
  M 176.82 234.28
  C 174.91 234.28 173.04 238.42 172.38 240.13
  C 167.58 252.52 166.44 267.01 169.93 280.12
  Q 171.46 285.86 171.98 288.54
  A 1.08 1.08 0.0 0 1 171.26 289.77
  L 171.23 289.78
  A 1.00 1.00 0.0 0 1 169.98 289.18
  Q 161.55 266.38 169.45 242.50
  C 170.36 239.75 173.34 231.44 176.82 231.44
  C 180.29 231.44 183.27 239.75 184.18 242.51
  Q 192.08 266.38 183.65 289.18
  A 1.00 1.00 0.0 0 1 182.40 289.78
  L 182.37 289.77
  A 1.08 1.08 0.0 0 1 181.65 288.54
  Q 182.17 285.86 183.70 280.12
  C 187.19 267.01 186.05 252.52 181.25 240.13
  C 180.59 238.42 178.72 234.28 176.82 234.28
  Z"
/>
<path fill="#0091cc" d="
  M 419.03 234.27
  C 417.12 234.27 415.25 238.40 414.59 240.12
  C 409.79 252.51 408.65 267.01 412.14 280.13
  Q 413.67 285.87 414.19 288.55
  A 1.08 1.08 0.0 0 1 413.47 289.78
  L 413.44 289.79
  A 1.00 1.00 0.0 0 1 412.19 289.19
  Q 403.76 266.38 411.66 242.49
  C 412.57 239.74 415.55 231.42 419.03 231.42
  C 422.50 231.42 425.48 239.74 426.39 242.49
  Q 434.30 266.38 425.87 289.19
  A 1.00 1.00 0.0 0 1 424.62 289.79
  L 424.59 289.78
  A 1.08 1.08 0.0 0 1 423.87 288.55
  Q 424.39 285.87 425.92 280.13
  C 429.41 267.01 428.27 252.51 423.47 240.12
  C 422.80 238.40 420.93 234.27 419.03 234.27
  Z"
/>
</svg>
