<svg xmlns="http://www.w3.org/2000/svg" viewBox="0 0 600 400"><g fill="none" stroke="#80c8e6" stroke-width="2"><path d="M300.03 172.18q.02 0 .71 1.47 2.26 4.8 7.68 4.66c2.81-.07 6.09-.84 7.43-3.43a1.21 1.19 48.4 0 0 .05-.99l-.92-2.46a1.03 1.03 0 0 1 1.36-1.32l6.15 2.53a1.3.2 8.5 0 1 .13.04q7.04 1.79 14.83 1.39 19.63-1.01 38-8.71 4.18-1.76 7.5-4.62a.73.73 0 0 0-.46-1.28q-6.69-.17-29.78.14c-12.54.16-23.87 7.38-36.52 5.13q-1.39-.24-1.77-1.14a1.06.97-12.1 0 1 .97-1.35q15.34-.83 28.74-7.42 9.71-4.77 16.42-8.58 2.15-1.22 3.58-2.81a1.07 1.06-63.9 0 0-.6-1.76q-2.3-.43-4.32-.33-11.8.58-23.48 1.93c-5.32.61-7.23 3.52-10.89 7.02q-4.56 4.35-10.06 7.47a.6.59 60.2 0 1-.81-.23l-.18-.31a1.17 1.16 58.5 0 1 .37-1.56q5.97-3.9 9.18-7.36 11-11.86 17.24-27.98c1.98-5.12 3.98-13.54 1.84-18.73a1.52 1.52 0 0 0-2.2-.72q-6.41 3.95-11.52 10.29c-2.16 2.68-2.86 9.11-3.16 12.46q-.52 5.81-1.27 8.72-2.64 10.19-6.85 18.3-.78 1.5-2.53 2.64a.69.69 0 0 1-1.07-.59l-.03-.11a.32.07-57.6 0 1 .09-.25q10.73-18.28 10.25-39.7c-.09-3.69-1.2-13.05-4.34-14.87a2.15 1.99-58.2 0 0-2.75.76c-2.83 4.29-3.46 8.74-2.92 14.36 1.24 12.98 3.25 26.21-2.96 37.94a1.41 1.34-2.5 0 1-.52.54l-.91.52a.53.53 0 0 1-.76-.67q4.7-10.93 4.11-21.83-.66-12.48-1.62-19.26c-.69-4.86-4.43-21.73-11.47-21.73-7.02 0-10.77 16.87-11.45 21.73q-.96 6.78-1.62 19.26-.59 10.9 4.11 21.83a.53.53 0 0 1-.75.67l-.91-.52a1.41 1.34 2.4 0 1-.53-.54c-6.21-11.73-4.2-24.96-2.96-37.93.54-5.63-.09-10.08-2.92-14.37a2.15 1.99 58.1 0 0-2.75-.76c-3.14 1.82-4.25 11.18-4.34 14.88q-.48 21.42 10.25 39.7a.32.07 57.6 0 1 .09.25l-.03.11a.69.69 0 0 1-1.07.59q-1.75-1.14-2.53-2.65-4.21-8.11-6.85-18.29-.75-2.92-1.27-8.73c-.3-3.35-1.01-9.77-3.17-12.45q-5.1-6.35-11.51-10.3a1.52 1.52 0 0 0-2.2.72c-2.15 5.2-.14 13.62 1.84 18.73q6.24 16.13 17.24 27.98 3.21 3.47 9.18 7.36a1.17 1.16-58.6 0 1 .37 1.56l-.18.31a.6.59-60.2 0 1-.81.23q-5.5-3.11-10.06-7.46c-3.66-3.51-5.57-6.42-10.89-7.03q-11.68-1.35-23.48-1.93-2.02-.1-4.32.33a1.07 1.06 63.9 0 0-.6 1.76q1.43 1.6 3.58 2.82 6.71 3.81 16.42 8.58 13.41 6.58 28.74 7.41a1.06.97 12.1 0 1 .97 1.35q-.38.9-1.77 1.14c-12.64 2.25-23.98-4.97-36.52-5.13q-23.09-.3-29.78-.13a.73.73 0 0 0-.46 1.28q3.32 2.86 7.5 4.62 18.37 7.7 38 8.71 7.8.4 14.83-1.39a1.3.2-8.6 0 1 .13-.04l6.15-2.54a1.03 1.03 0 0 1 1.36 1.32l-.92 2.47a1.21 1.19-48.4 0 0 .05.99c1.35 2.58 4.63 3.35 7.44 3.42q5.41.14 7.67-4.66.69-1.47.77-1.47M176.85 305.51q.02 0 .71 1.48 2.26 4.79 7.67 4.65c2.81-.07 6.09-.84 7.43-3.42a1.21 1.19 48.4 0 0 .05-.99l-.92-2.46a1.03 1.03 0 0 1 1.36-1.32l6.15 2.53a1.3.2 8.6 0 1 .13.04q7.03 1.79 14.82 1.39 19.62-1.01 37.98-8.71 4.18-1.76 7.5-4.61a.73.73 0 0 0-.46-1.28q-6.69-.17-29.77.13c-12.53.16-23.86 7.38-36.5 5.13q-1.39-.24-1.77-1.14a1.06.96-12.1 0 1 .97-1.35q15.33-.83 28.73-7.41 9.7-4.77 16.41-8.58 2.15-1.22 3.58-2.81a1.07 1.06-63.9 0 0-.6-1.76q-2.3-.43-4.32-.33-11.79.58-23.47 1.93c-5.32.61-7.22 3.52-10.88 7.02q-4.56 4.35-10.06 7.46a.6.59 60.2 0 1-.81-.23l-.18-.31a1.17 1.16 58.6 0 1 .37-1.56q5.97-3.89 9.18-7.35 10.99-11.85 17.23-27.97c1.98-5.11 3.98-13.53 1.84-18.72a1.52 1.52 0 0 0-2.2-.72q-6.41 3.95-11.51 10.29c-2.16 2.68-2.86 9.1-3.16 12.45q-.52 5.81-1.27 8.72-2.64 10.18-6.85 18.29-.78 1.5-2.53 2.64a.69.69 0 0 1-1.07-.59l-.03-.11a.32.07-57.6 0 1 .09-.25q10.73-18.27 10.25-39.68c-.09-3.69-1.2-13.05-4.34-14.87a2.15 1.99-58.2 0 0-2.75.76c-2.83 4.29-3.46 8.74-2.92 14.36 1.24 12.97 3.25 26.19-2.96 37.92a1.41 1.34-2.4 0 1-.52.54l-.91.52a.53.53 0 0 1-.75-.67q4.69-10.93 4.1-21.82-.66-12.48-1.62-19.26c-.68-4.85-4.42-21.71-11.45-21.71s-10.77 16.86-11.46 21.72q-.95 6.77-1.61 19.25-.59 10.89 4.1 21.82a.53.53 0 0 1-.75.67l-.91-.52a1.41 1.34 2.4 0 1-.52-.54c-6.21-11.73-4.2-24.95-2.96-37.92.54-5.62-.09-10.07-2.92-14.36a2.15 1.99 58.1 0 0-2.75-.76c-3.14 1.82-4.25 11.18-4.34 14.87q-.48 21.41 10.25 39.68a.32.07 57.6 0 1 .09.25l-.03.11a.69.69 0 0 1-1.07.59q-1.75-1.14-2.53-2.64-4.21-8.11-6.85-18.29-.75-2.91-1.27-8.72c-.3-3.35-1-9.77-3.16-12.45q-5.1-6.34-11.51-10.29a1.52 1.52 0 0 0-2.2.72c-2.14 5.19-.14 13.61 1.84 18.72q6.24 16.12 17.23 27.97 3.21 3.46 9.18 7.35a1.17 1.16-58.6 0 1 .37 1.56l-.18.31a.6.59-60.2 0 1-.81.23q-5.5-3.11-10.06-7.46c-3.66-3.5-5.56-6.41-10.88-7.02q-11.68-1.35-23.47-1.93-2.02-.1-4.32.33a1.07 1.06 63.9 0 0-.6 1.76q1.43 1.59 3.58 2.81 6.71 3.81 16.41 8.58 13.4 6.58 28.73 7.41a1.06.96 12.1 0 1 .97 1.35q-.38.9-1.77 1.14c-12.64 2.25-23.97-4.97-36.5-5.13q-23.08-.3-29.77-.13a.73.73 0 0 0-.46 1.28q3.32 2.85 7.5 4.61 18.36 7.7 37.98 8.71 7.79.4 14.82-1.39a1.3.2-8.6 0 1 .13-.04l6.15-2.53a1.03 1.03 0 0 1 1.36 1.32l-.92 2.46a1.21 1.19-48.4 0 0 .05.99c1.34 2.58 4.62 3.35 7.43 3.42q5.41.14 7.67-4.65.69-1.48.77-1.48m242.14 0q.08 0 .77 1.48 2.26 4.79 7.67 4.65c2.81-.07 6.09-.84 7.43-3.42a1.21 1.19 48.4 0 0 .05-.99l-.92-2.46a1.03 1.03 0 0 1 1.36-1.32l6.15 2.53a1.3.2 8.6 0 1 .13.04q7.03 1.79 14.82 1.39 19.62-1 37.98-8.7 4.18-1.76 7.5-4.61a.73.73 0 0 0-.46-1.28q-6.69-.17-29.77.13c-12.53.15-23.86 7.37-36.5 5.12q-1.39-.24-1.77-1.14a1.06.96-12.1 0 1 .97-1.35q15.33-.83 28.73-7.4 9.7-4.77 16.41-8.58 2.15-1.22 3.58-2.81a1.07 1.06-63.9 0 0-.6-1.76q-2.3-.43-4.32-.33-11.79.58-23.47 1.93c-5.32.6-7.22 3.51-10.88 7.01q-4.56 4.35-10.06 7.46a.6.59 60.2 0 1-.81-.23l-.18-.31a1.17 1.16 58.6 0 1 .37-1.56q5.97-3.89 9.18-7.35 10.99-11.84 17.23-27.96c1.98-5.11 3.99-13.53 1.85-18.72a1.52 1.52 0 0 0-2.2-.72q-6.41 3.95-11.51 10.29c-2.16 2.68-2.86 9.1-3.16 12.45q-.53 5.81-1.28 8.72-2.64 10.17-6.85 18.28-.78 1.5-2.53 2.64a.69.69 0 0 1-1.07-.59l-.03-.11a.32.07-57.6 0 1 .09-.25q10.73-18.27 10.26-39.67c-.09-3.69-1.2-13.05-4.34-14.87a2.15 1.99-58.1 0 0-2.75.76c-2.83 4.29-3.46 8.74-2.92 14.36 1.24 12.96 3.24 26.18-2.97 37.91a1.41 1.34-2.4 0 1-.52.54l-.91.52a.53.53 0 0 1-.75-.67q4.69-10.93 4.11-21.82-.66-12.47-1.62-19.25c-.68-4.86-4.42-21.71-11.45-21.71-7.03-.01-10.77 16.85-11.46 21.71q-.95 6.77-1.61 19.25-.59 10.89 4.1 21.82a.53.53 0 0 1-.75.67l-.91-.52a1.41 1.34 2.5 0 1-.52-.54c-6.21-11.73-4.2-24.95-2.96-37.92.54-5.62-.09-10.07-2.92-14.36a2.15 1.99 58.2 0 0-2.75-.76c-3.14 1.82-4.25 11.18-4.34 14.87q-.48 21.41 10.25 39.68a.32.07 57.6 0 1 .09.25l-.03.11a.69.69 0 0 1-1.07.59q-1.75-1.14-2.53-2.64-4.21-8.11-6.85-18.29-.75-2.91-1.27-8.72c-.3-3.35-1-9.77-3.16-12.45q-5.1-6.34-11.51-10.29a1.52 1.52 0 0 0-2.2.72c-2.14 5.19-.14 13.61 1.84 18.72q6.24 16.12 17.23 27.97 3.21 3.46 9.18 7.35a1.17 1.16-58.5 0 1 .37 1.56l-.18.31a.6.59-60.2 0 1-.81.23q-5.5-3.11-10.06-7.46c-3.66-3.5-5.56-6.41-10.88-7.02q-11.68-1.35-23.47-1.93-2.02-.1-4.32.33a1.07 1.06 63.9 0 0-.6 1.76q1.43 1.59 3.58 2.81 6.71 3.81 16.41 8.58 13.4 6.58 28.72 7.41a1.06.96 12.1 0 1 .97 1.35q-.38.9-1.77 1.14c-12.63 2.25-23.96-4.97-36.49-5.13q-23.08-.31-29.77-.14a.73.73 0 0 0-.46 1.28q3.32 2.85 7.5 4.61 18.36 7.7 37.98 8.72 7.79.4 14.81-1.39a1.3.2-8.5 0 1 .13-.04l6.15-2.53a1.03 1.03 0 0 1 1.36 1.32l-.92 2.46a1.21 1.19-48.3 0 0 .05.99c1.34 2.58 4.62 3.35 7.43 3.42q5.41.14 7.67-4.66.69-1.47.71-1.47" vector-effect="non-scaling-stroke"/><path d="M300 100.94c1.9 0 3.78 4.14 4.44 5.85 4.8 12.39 5.94 26.89 2.45 40.01q-1.53 5.74-2.05 8.42a1.1 1.1 0 0 0 .72 1.23l.03.01a1 1 0 0 0 1.25-.6q8.43-22.81.53-46.69c-.91-2.76-3.9-11.07-7.36-11.07-3.48 0-6.46 8.31-7.37 11.07q-7.91 23.88.52 46.69a1 1 0 0 0 1.25.6l.03-.01a1.1 1.1 0 0 0 .72-1.23q-.52-2.68-2.05-8.42c-3.49-13.12-2.35-27.62 2.45-40.01.67-1.71 2.54-5.85 4.44-5.85M176.82 234.28c1.9 0 3.77 4.14 4.43 5.85 4.8 12.39 5.94 26.88 2.45 39.99q-1.53 5.74-2.05 8.42a1.1 1.1 0 0 0 .72 1.23l.03.01a1 1 0 0 0 1.25-.6q8.43-22.8.53-46.67c-.91-2.76-3.89-11.07-7.36-11.07s-6.46 8.31-7.37 11.06q-7.9 23.88.53 46.68a1 1 0 0 0 1.25.6l.03-.01a1.1 1.1 0 0 0 .72-1.23q-.52-2.68-2.05-8.42c-3.49-13.11-2.35-27.6 2.45-39.99.66-1.71 2.53-5.85 4.44-5.85m242.21-.01c1.9 0 3.77 4.13 4.44 5.85 4.8 12.39 5.94 26.89 2.45 40.01q-1.53 5.74-2.05 8.42a1.1 1.1 0 0 0 .72 1.23l.03.01a1 1 0 0 0 1.25-.6q8.43-22.81.52-46.7c-.91-2.75-3.89-11.07-7.36-11.07s-6.46 8.32-7.37 11.07q-7.9 23.89.53 46.7a1 1 0 0 0 1.25.6l.03-.01a1.1 1.1 0 0 0 .72-1.23q-.52-2.68-2.05-8.42c-3.49-13.12-2.35-27.62 2.45-40.01.66-1.72 2.53-5.85 4.44-5.85" vector-effect="non-scaling-stroke"/></g><path fill="#0091cc" d="M600 0v400H0V0zM300.03 172.18q.02 0 .71 1.47 2.26 4.8 7.68 4.66c2.81-.07 6.09-.84 7.43-3.43a1.21 1.19 48.4 0 0 .05-.99l-.92-2.46a1.03 1.03 0 0 1 1.36-1.32l6.15 2.53a1.3.2 8.5 0 1 .13.04q7.04 1.79 14.83 1.39 19.63-1.01 38-8.71 4.18-1.76 7.5-4.62a.73.73 0 0 0-.46-1.28q-6.69-.17-29.78.14c-12.54.16-23.87 7.38-36.52 5.13q-1.39-.24-1.77-1.14a1.06.97-12.1 0 1 .97-1.35q15.34-.83 28.74-7.42 9.71-4.77 16.42-8.58 2.15-1.22 3.58-2.81a1.07 1.06-63.9 0 0-.6-1.76q-2.3-.43-4.32-.33-11.8.58-23.48 1.93c-5.32.61-7.23 3.52-10.89 7.02q-4.56 4.35-10.06 7.47a.6.59 60.2 0 1-.81-.23l-.18-.31a1.17 1.16 58.5 0 1 .37-1.56q5.97-3.9 9.18-7.36 11-11.86 17.24-27.98c1.98-5.12 3.98-13.54 1.84-18.73a1.52 1.52 0 0 0-2.2-.72q-6.41 3.95-11.52 10.29c-2.16 2.68-2.86 9.11-3.16 12.46q-.52 5.81-1.27 8.72-2.64 10.19-6.85 18.3-.78 1.5-2.53 2.64a.69.69 0 0 1-1.07-.59l-.03-.11a.32.07-57.6 0 1 .09-.25q10.73-18.28 10.25-39.7c-.09-3.69-1.2-13.05-4.34-14.87a2.15 1.99-58.2 0 0-2.75.76c-2.83 4.29-3.46 8.74-2.92 14.36 1.24 12.98 3.25 26.21-2.96 37.94a1.41 1.34-2.5 0 1-.52.54l-.91.52a.53.53 0 0 1-.76-.67q4.7-10.93 4.11-21.83-.66-12.48-1.62-19.26c-.69-4.86-4.43-21.73-11.47-21.73-7.02 0-10.77 16.87-11.45 21.73q-.96 6.78-1.62 19.26-.59 10.9 4.11 21.83a.53.53 0 0 1-.75.67l-.91-.52a1.41 1.34 2.4 0 1-.53-.54c-6.21-11.73-4.2-24.96-2.96-37.93.54-5.63-.09-10.08-2.92-14.37a2.15 1.99 58.1 0 0-2.75-.76c-3.14 1.82-4.25 11.18-4.34 14.88q-.48 21.42 10.25 39.7a.32.07 57.6 0 1 .09.25l-.03.11a.69.69 0 0 1-1.07.59q-1.75-1.14-2.53-2.65-4.21-8.11-6.85-18.29-.75-2.92-1.27-8.73c-.3-3.35-1.01-9.77-3.17-12.45q-5.1-6.35-11.51-10.3a1.52 1.52 0 0 0-2.2.72c-2.15 5.2-.14 13.62 1.84 18.73q6.24 16.13 17.24 27.98 3.21 3.47 9.18 7.36a1.17 1.16-58.6 0 1 .37 1.56l-.18.31a.6.59-60.2 0 1-.81.23q-5.5-3.11-10.06-7.46c-3.66-3.51-5.57-6.42-10.89-7.03q-11.68-1.35-23.48-1.93-2.02-.1-4.32.33a1.07 1.06 63.9 0 0-.6 1.76q1.43 1.6 3.58 2.82 6.71 3.81 16.42 8.58 13.41 6.58 28.74 7.41a1.06.97 12.1 0 1 .97 1.35q-.38.9-1.77 1.14c-12.64 2.25-23.98-4.97-36.52-5.13q-23.09-.3-29.78-.13a.73.73 0 0 0-.46 1.28q3.32 2.86 7.5 4.62 18.37 7.7 38 8.71 7.8.4 14.83-1.39a1.3.2-8.6 0 1 .13-.04l6.15-2.54a1.03 1.03 0 0 1 1.36 1.32l-.92 2.47a1.21 1.19-48.4 0 0 .05.99c1.35 2.58 4.63 3.35 7.44 3.42q5.41.14 7.67-4.66.69-1.47.77-1.47M176.85 305.51q.02 0 .71 1.48 2.26 4.79 7.67 4.65c2.81-.07 6.09-.84 7.43-3.42a1.21 1.19 48.4 0 0 .05-.99l-.92-2.46a1.03 1.03 0 0 1 1.36-1.32l6.15 2.53a1.3.2 8.6 0 1 .13.04q7.03 1.79 14.82 1.39 19.62-1.01 37.98-8.71 4.18-1.76 7.5-4.61a.73.73 0 0 0-.46-1.28q-6.69-.17-29.77.13c-12.53.16-23.86 7.38-36.5 5.13q-1.39-.24-1.77-1.14a1.06.96-12.1 0 1 .97-1.35q15.33-.83 28.73-7.41 9.7-4.77 16.41-8.58 2.15-1.22 3.58-2.81a1.07 1.06-63.9 0 0-.6-1.76q-2.3-.43-4.32-.33-11.79.58-23.47 1.93c-5.32.61-7.22 3.52-10.88 7.02q-4.56 4.35-10.06 7.46a.6.59 60.2 0 1-.81-.23l-.18-.31a1.17 1.16 58.6 0 1 .37-1.56q5.97-3.89 9.18-7.35 10.99-11.85 17.23-27.97c1.98-5.11 3.98-13.53 1.84-18.72a1.52 1.52 0 0 0-2.2-.72q-6.41 3.95-11.51 10.29c-2.16 2.68-2.86 9.1-3.16 12.45q-.52 5.81-1.27 8.72-2.64 10.18-6.85 18.29-.78 1.5-2.53 2.64a.69.69 0 0 1-1.07-.59l-.03-.11a.32.07-57.6 0 1 .09-.25q10.73-18.27 10.25-39.68c-.09-3.69-1.2-13.05-4.34-14.87a2.15 1.99-58.2 0 0-2.75.76c-2.83 4.29-3.46 8.74-2.92 14.36 1.24 12.97 3.25 26.19-2.96 37.92a1.41 1.34-2.4 0 1-.52.54l-.91.52a.53.53 0 0 1-.75-.67q4.69-10.93 4.1-21.82-.66-12.48-1.62-19.26c-.68-4.85-4.42-21.71-11.45-21.71s-10.77 16.86-11.46 21.72q-.95 6.77-1.61 19.25-.59 10.89 4.1 21.82a.53.53 0 0 1-.75.67l-.91-.52a1.41 1.34 2.4 0 1-.52-.54c-6.21-11.73-4.2-24.95-2.96-37.92.54-5.62-.09-10.07-2.92-14.36a2.15 1.99 58.1 0 0-2.75-.76c-3.14 1.82-4.25 11.18-4.34 14.87q-.48 21.41 10.25 39.68a.32.07 57.6 0 1 .09.25l-.03.11a.69.69 0 0 1-1.07.59q-1.75-1.14-2.53-2.64-4.21-8.11-6.85-18.29-.75-2.91-1.27-8.72c-.3-3.35-1-9.77-3.16-12.45q-5.1-6.34-11.51-10.29a1.52 1.52 0 0 0-2.2.72c-2.14 5.19-.14 13.61 1.84 18.72q6.24 16.12 17.23 27.97 3.21 3.46 9.18 7.35a1.17 1.16-58.6 0 1 .37 1.56l-.18.31a.6.59-60.2 0 1-.81.23q-5.5-3.11-10.06-7.46c-3.66-3.5-5.56-6.41-10.88-7.02q-11.68-1.35-23.47-1.93-2.02-.1-4.32.33a1.07 1.06 63.9 0 0-.6 1.76q1.43 1.59 3.58 2.81 6.71 3.81 16.41 8.58 13.4 6.58 28.73 7.41a1.06.96 12.1 0 1 .97 1.35q-.38.9-1.77 1.14c-12.64 2.25-23.97-4.97-36.5-5.13q-23.08-.3-29.77-.13a.73.73 0 0 0-.46 1.28q3.32 2.85 7.5 4.61 18.36 7.7 37.98 8.71 7.79.4 14.82-1.39a1.3.2-8.6 0 1 .13-.04l6.15-2.53a1.03 1.03 0 0 1 1.36 1.32l-.92 2.46a1.21 1.19-48.4 0 0 .05.99c1.34 2.58 4.62 3.35 7.43 3.42q5.41.14 7.67-4.65.69-1.48.77-1.48m242.14 0q.08 0 .77 1.48 2.26 4.79 7.67 4.65c2.81-.07 6.09-.84 7.43-3.42a1.21 1.19 48.4 0 0 .05-.99l-.92-2.46a1.03 1.03 0 0 1 1.36-1.32l6.15 2.53a1.3.2 8.6 0 1 .13.04q7.03 1.79 14.82 1.39 19.62-1 37.98-8.7 4.18-1.76 7.5-4.61a.73.73 0 0 0-.46-1.28q-6.69-.17-29.77.13c-12.53.15-23.86 7.37-36.5 5.12q-1.39-.24-1.77-1.14a1.06.96-12.1 0 1 .97-1.35q15.33-.83 28.73-7.4 9.7-4.77 16.41-8.58 2.15-1.22 3.58-2.81a1.07 1.06-63.9 0 0-.6-1.76q-2.3-.43-4.32-.33-11.79.58-23.47 1.93c-5.32.6-7.22 3.51-10.88 7.01q-4.56 4.35-10.06 7.46a.6.59 60.2 0 1-.81-.23l-.18-.31a1.17 1.16 58.6 0 1 .37-1.56q5.97-3.89 9.18-7.35 10.99-11.84 17.23-27.96c1.98-5.11 3.99-13.53 1.85-18.72a1.52 1.52 0 0 0-2.2-.72q-6.41 3.95-11.51 10.29c-2.16 2.68-2.86 9.1-3.16 12.45q-.53 5.81-1.28 8.72-2.64 10.17-6.85 18.28-.78 1.5-2.53 2.64a.69.69 0 0 1-1.07-.59l-.03-.11a.32.07-57.6 0 1 .09-.25q10.73-18.27 10.26-39.67c-.09-3.69-1.2-13.05-4.34-14.87a2.15 1.99-58.1 0 0-2.75.76c-2.83 4.29-3.46 8.74-2.92 14.36 1.24 12.96 3.24 26.18-2.97 37.91a1.41 1.34-2.4 0 1-.52.54l-.91.52a.53.53 0 0 1-.75-.67q4.69-10.93 4.11-21.82-.66-12.47-1.62-19.25c-.68-4.86-4.42-21.71-11.45-21.71-7.03-.01-10.77 16.85-11.46 21.71q-.95 6.77-1.61 19.25-.59 10.89 4.1 21.82a.53.53 0 0 1-.75.67l-.91-.52a1.41 1.34 2.5 0 1-.52-.54c-6.21-11.73-4.2-24.95-2.96-37.92.54-5.62-.09-10.07-2.92-14.36a2.15 1.99 58.2 0 0-2.75-.76c-3.14 1.82-4.25 11.18-4.34 14.87q-.48 21.41 10.25 39.68a.32.07 57.6 0 1 .09.25l-.03.11a.69.69 0 0 1-1.07.59q-1.75-1.14-2.53-2.64-4.21-8.11-6.85-18.29-.75-2.91-1.27-8.72c-.3-3.35-1-9.77-3.16-12.45q-5.1-6.34-11.51-10.29a1.52 1.52 0 0 0-2.2.72c-2.14 5.19-.14 13.61 1.84 18.72q6.24 16.12 17.23 27.97 3.21 3.46 9.18 7.35a1.17 1.16-58.5 0 1 .37 1.56l-.18.31a.6.59-60.2 0 1-.81.23q-5.5-3.11-10.06-7.46c-3.66-3.5-5.56-6.41-10.88-7.02q-11.68-1.35-23.47-1.93-2.02-.1-4.32.33a1.07 1.06 63.9 0 0-.6 1.76q1.43 1.59 3.58 2.81 6.71 3.81 16.41 8.58 13.4 6.58 28.72 7.41a1.06.96 12.1 0 1 .97 1.35q-.38.9-1.77 1.14c-12.63 2.25-23.96-4.97-36.49-5.13q-23.08-.31-29.77-.14a.73.73 0 0 0-.46 1.28q3.32 2.85 7.5 4.61 18.36 7.7 37.98 8.72 7.79.4 14.81-1.39a1.3.2-8.5 0 1 .13-.04l6.15-2.53a1.03 1.03 0 0 1 1.36 1.32l-.92 2.46a1.21 1.19-48.3 0 0 .05.99c1.34 2.58 4.62 3.35 7.43 3.42q5.41.14 7.67-4.66.69-1.47.71-1.47"/><path fill="#fff" d="M300.03 172.18q-.08 0-.77 1.47-2.26 4.8-7.67 4.66c-2.81-.07-6.09-.84-7.44-3.42a1.21 1.19-48.4 0 1-.05-.99l.92-2.47a1.03 1.03 0 0 0-1.36-1.32l-6.15 2.54a1.3.2-8.6 0 0-.13.04q-7.03 1.79-14.83 1.39-19.63-1.01-38-8.71-4.18-1.76-7.5-4.62a.73.73 0 0 1 .46-1.28q6.69-.17 29.78.13c12.54.16 23.88 7.38 36.52 5.13q1.39-.24 1.77-1.14a1.06.97 12.1 0 0-.97-1.35q-15.33-.83-28.74-7.41-9.71-4.77-16.42-8.58-2.15-1.22-3.58-2.82a1.07 1.06 63.9 0 1 .6-1.76q2.3-.43 4.32-.33 11.8.58 23.48 1.93c5.32.61 7.23 3.52 10.89 7.03q4.56 4.35 10.06 7.46a.6.59-60.2 0 0 .81-.23l.18-.31a1.17 1.16-58.6 0 0-.37-1.56q-5.97-3.89-9.18-7.36-11-11.85-17.24-27.98c-1.98-5.11-3.99-13.53-1.84-18.73a1.52 1.52 0 0 1 2.2-.72q6.41 3.95 11.51 10.3c2.16 2.68 2.87 9.1 3.17 12.45q.52 5.81 1.27 8.73 2.64 10.18 6.85 18.29.78 1.51 2.53 2.65a.69.69 0 0 0 1.07-.59l.03-.11a.32.07 57.6 0 0-.09-.25q-10.73-18.28-10.25-39.7c.09-3.7 1.2-13.06 4.34-14.88a2.15 1.99 58.1 0 1 2.75.76c2.83 4.29 3.46 8.74 2.92 14.37-1.24 12.97-3.25 26.2 2.96 37.93a1.41 1.34 2.4 0 0 .53.54l.91.52a.53.53 0 0 0 .75-.67q-4.7-10.93-4.11-21.83.66-12.48 1.62-19.26c.68-4.86 4.43-21.73 11.45-21.73 7.04 0 10.78 16.87 11.47 21.73q.96 6.78 1.62 19.26.59 10.9-4.11 21.83a.53.53 0 0 0 .76.67l.91-.52a1.41 1.34-2.5 0 0 .52-.54c6.21-11.73 4.2-24.96 2.96-37.94-.54-5.62.09-10.07 2.92-14.36a2.15 1.99-58.2 0 1 2.75-.76c3.14 1.82 4.25 11.18 4.34 14.87q.48 21.42-10.25 39.7a.32.07-57.6 0 0-.09.25l.03.11a.69.69 0 0 0 1.07.59q1.75-1.14 2.53-2.64 4.21-8.11 6.85-18.3.75-2.91 1.27-8.72c.3-3.35 1-9.78 3.16-12.46q5.11-6.34 11.52-10.29a1.52 1.52 0 0 1 2.2.72c2.14 5.19.14 13.61-1.84 18.73q-6.24 16.12-17.24 27.98-3.21 3.46-9.18 7.36a1.17 1.16 58.5 0 0-.37 1.56l.18.31a.6.59 60.2 0 0 .81.23q5.5-3.12 10.06-7.47c3.66-3.5 5.57-6.41 10.89-7.02q11.68-1.35 23.48-1.93 2.02-.1 4.32.33a1.07 1.06-63.9 0 1 .6 1.76q-1.43 1.59-3.58 2.81-6.71 3.81-16.42 8.58-13.4 6.59-28.74 7.42a1.06.97-12.1 0 0-.97 1.35q.38.9 1.77 1.14c12.65 2.25 23.98-4.97 36.52-5.13q23.09-.31 29.78-.14a.73.73 0 0 1 .46 1.28q-3.32 2.86-7.5 4.62-18.37 7.7-38 8.71-7.79.4-14.83-1.39a1.3.2 8.5 0 0-.13-.04l-6.15-2.53a1.03 1.03 0 0 0-1.36 1.32l.92 2.46a1.21 1.19 48.4 0 1-.05.99c-1.34 2.59-4.62 3.36-7.43 3.43q-5.42.14-7.68-4.66-.69-1.47-.71-1.47m-.03-71.24c1.9 0 3.78 4.14 4.44 5.85 4.8 12.39 5.94 26.89 2.45 40.01q-1.53 5.74-2.05 8.42a1.1 1.1 0 0 0 .72 1.23l.03.01a1 1 0 0 0 1.25-.6q8.43-22.81.53-46.69c-.91-2.76-3.9-11.07-7.36-11.07-3.48 0-6.46 8.31-7.37 11.07q-7.91 23.88.52 46.69a1 1 0 0 0 1.25.6l.03-.01a1.1 1.1 0 0 0 .72-1.23q-.52-2.68-2.05-8.42c-3.49-13.12-2.35-27.62 2.45-40.01.67-1.71 2.54-5.85 4.44-5.85"/><path fill="#0091cc" d="M300.01 98.1c3.46 0 6.45 8.31 7.36 11.07q7.9 23.88-.53 46.69a1 1 0 0 1-1.25.6l-.03-.01a1.1 1.1 0 0 1-.72-1.23q.52-2.68 2.05-8.42c3.49-13.12 2.35-27.62-2.45-40.01-.66-1.71-2.54-5.85-4.44-5.85s-3.77 4.14-4.44 5.85c-4.8 12.39-5.94 26.89-2.45 40.01q1.53 5.74 2.05 8.42a1.1 1.1 0 0 1-.72 1.23l-.03.01a1 1 0 0 1-1.25-.6q-8.43-22.81-.52-46.69c.91-2.76 3.89-11.07 7.37-11.07"/><path fill="#fff" d="M176.82 221.77c7.03 0 10.77 16.86 11.45 21.71q.96 6.78 1.62 19.26.59 10.89-4.1 21.82a.53.53 0 0 0 .75.67l.91-.52a1.41 1.34-2.4 0 0 .52-.54c6.21-11.73 4.2-24.95 2.96-37.92-.54-5.62.09-10.07 2.92-14.36a2.15 1.99-58.2 0 1 2.75-.76c3.14 1.82 4.25 11.18 4.34 14.87q.48 21.41-10.25 39.68a.32.07-57.6 0 0-.09.25l.03.11a.69.69 0 0 0 1.07.59q1.75-1.14 2.53-2.64 4.21-8.11 6.85-18.29.75-2.91 1.27-8.72c.3-3.35 1-9.77 3.16-12.45q5.1-6.34 11.51-10.29a1.52 1.52 0 0 1 2.2.72c2.14 5.19.14 13.61-1.84 18.72q-6.24 16.12-17.23 27.97-3.21 3.46-9.18 7.35a1.17 1.16 58.6 0 0-.37 1.56l.18.31a.6.59 60.2 0 0 .81.23q5.5-3.11 10.06-7.46c3.66-3.5 5.56-6.41 10.88-7.02q11.68-1.35 23.47-1.93 2.02-.1 4.32.33a1.07 1.06-63.9 0 1 .6 1.76q-1.43 1.59-3.58 2.81-6.71 3.81-16.41 8.58-13.4 6.58-28.73 7.41a1.06.96-12.1 0 0-.97 1.35q.38.9 1.77 1.14c12.64 2.25 23.97-4.97 36.5-5.13q23.08-.3 29.77-.13a.73.73 0 0 1 .46 1.28q-3.32 2.85-7.5 4.61-18.36 7.7-37.98 8.71-7.79.4-14.82-1.39a1.3.2 8.6 0 0-.13-.04l-6.15-2.53a1.03 1.03 0 0 0-1.36 1.32l.92 2.46a1.21 1.19 48.4 0 1-.05.99c-1.34 2.58-4.62 3.35-7.43 3.42q-5.41.14-7.67-4.65-.69-1.48-.71-1.48-.08 0-.77 1.48-2.26 4.79-7.67 4.65c-2.81-.07-6.09-.84-7.43-3.42a1.21 1.19-48.4 0 1-.05-.99l.92-2.46a1.03 1.03 0 0 0-1.36-1.32l-6.15 2.53a1.3.2-8.6 0 0-.13.04q-7.03 1.79-14.82 1.39-19.62-1.01-37.98-8.71-4.18-1.76-7.5-4.61a.73.73 0 0 1 .46-1.28q6.69-.17 29.77.13c12.53.16 23.86 7.38 36.5 5.13q1.39-.24 1.77-1.14a1.06.96 12.1 0 0-.97-1.35q-15.33-.83-28.73-7.41-9.7-4.77-16.41-8.58-2.15-1.22-3.58-2.81a1.07 1.06 63.9 0 1 .6-1.76q2.3-.43 4.32-.33 11.79.58 23.47 1.93c5.32.61 7.22 3.52 10.88 7.02q4.56 4.35 10.06 7.46a.6.59-60.2 0 0 .81-.23l.18-.31a1.17 1.16-58.6 0 0-.37-1.56q-5.97-3.89-9.18-7.35-10.99-11.85-17.23-27.97c-1.98-5.11-3.98-13.53-1.84-18.72a1.52 1.52 0 0 1 2.2-.72q6.41 3.95 11.51 10.29c2.16 2.68 2.86 9.1 3.16 12.45q.52 5.81 1.27 8.72 2.64 10.18 6.85 18.29.78 1.5 2.53 2.64a.69.69 0 0 0 1.07-.59l.03-.11a.32.07 57.6 0 0-.09-.25Q152.22 267.41 152.7 246c.09-3.69 1.2-13.05 4.34-14.87a2.15 1.99 58.1 0 1 2.75.76c2.83 4.29 3.46 8.74 2.92 14.36-1.24 12.97-3.25 26.19 2.96 37.92a1.41 1.34 2.4 0 0 .52.54l.91.52a.53.53 0 0 0 .75-.67q-4.69-10.93-4.1-21.82.66-12.48 1.61-19.25c.69-4.86 4.43-21.72 11.46-21.72m0 12.51c1.9 0 3.77 4.14 4.43 5.85 4.8 12.39 5.94 26.88 2.45 39.99q-1.53 5.74-2.05 8.42a1.1 1.1 0 0 0 .72 1.23l.03.01a1 1 0 0 0 1.25-.6q8.43-22.8.53-46.67c-.91-2.76-3.89-11.07-7.36-11.07s-6.46 8.31-7.37 11.06q-7.9 23.88.53 46.68a1 1 0 0 0 1.25.6l.03-.01a1.1 1.1 0 0 0 .72-1.23q-.52-2.68-2.05-8.42c-3.49-13.11-2.35-27.6 2.45-39.99.66-1.71 2.53-5.85 4.44-5.85m242.17 71.23q-.02 0-.71 1.47-2.26 4.8-7.67 4.66c-2.81-.07-6.09-.84-7.43-3.42a1.21 1.19-48.3 0 1-.05-.99l.92-2.46a1.03 1.03 0 0 0-1.36-1.32l-6.15 2.53a1.3.2-8.5 0 0-.13.04q-7.02 1.79-14.81 1.39-19.62-1.02-37.98-8.72-4.18-1.76-7.5-4.61a.73.73 0 0 1 .46-1.28q6.69-.17 29.77.14c12.53.16 23.86 7.38 36.49 5.13q1.39-.24 1.77-1.14a1.06.96 12.1 0 0-.97-1.35q-15.32-.83-28.72-7.41-9.7-4.77-16.41-8.58-2.15-1.22-3.58-2.81a1.07 1.06 63.9 0 1 .6-1.76q2.3-.43 4.32-.33 11.79.58 23.47 1.93c5.32.61 7.22 3.52 10.88 7.02q4.56 4.35 10.06 7.46a.6.59-60.2 0 0 .81-.23l.18-.31a1.17 1.16-58.5 0 0-.37-1.56q-5.97-3.89-9.18-7.35-10.99-11.85-17.23-27.97c-1.98-5.11-3.98-13.53-1.84-18.72a1.52 1.52 0 0 1 2.2-.72q6.41 3.95 11.51 10.29c2.16 2.68 2.86 9.1 3.16 12.45q.52 5.81 1.27 8.72 2.64 10.18 6.85 18.29.78 1.5 2.53 2.64a.69.69 0 0 0 1.07-.59l.03-.11a.32.07 57.6 0 0-.09-.25q-10.73-18.27-10.25-39.68c.09-3.69 1.2-13.05 4.34-14.87a2.15 1.99 58.2 0 1 2.75.76c2.83 4.29 3.46 8.74 2.92 14.36-1.24 12.97-3.25 26.19 2.96 37.92a1.41 1.34 2.5 0 0 .52.54l.91.52a.53.53 0 0 0 .75-.67q-4.69-10.93-4.1-21.82.66-12.48 1.61-19.25c.69-4.86 4.43-21.72 11.46-21.71s10.77 16.85 11.45 21.71q.96 6.78 1.62 19.25.58 10.89-4.11 21.82a.53.53 0 0 0 .75.67l.91-.52a1.41 1.34-2.4 0 0 .52-.54c6.21-11.73 4.21-24.95 2.97-37.91-.54-5.62.09-10.07 2.92-14.36a2.15 1.99-58.1 0 1 2.75-.76c3.14 1.82 4.25 11.18 4.34 14.87q.47 21.4-10.26 39.67a.32.07-57.6 0 0-.09.25l.03.11a.69.69 0 0 0 1.07.59q1.75-1.14 2.53-2.64 4.21-8.11 6.85-18.28.75-2.91 1.28-8.72c.3-3.35 1-9.77 3.16-12.45q5.1-6.34 11.51-10.29a1.52 1.52 0 0 1 2.2.72c2.14 5.19.13 13.61-1.85 18.72q-6.24 16.12-17.23 27.96-3.21 3.46-9.18 7.35a1.17 1.16 58.6 0 0-.37 1.56l.18.31a.6.59 60.2 0 0 .81.23q5.5-3.11 10.06-7.46c3.66-3.5 5.56-6.41 10.88-7.01q11.68-1.35 23.47-1.93 2.02-.1 4.32.33a1.07 1.06-63.9 0 1 .6 1.76q-1.43 1.59-3.58 2.81-6.71 3.81-16.41 8.58-13.4 6.57-28.73 7.4a1.06.96-12.1 0 0-.97 1.35q.38.9 1.77 1.14c12.64 2.25 23.97-4.97 36.5-5.12q23.08-.3 29.77-.13a.73.73 0 0 1 .46 1.28q-3.32 2.85-7.5 4.61-18.36 7.7-37.98 8.7-7.79.4-14.82-1.39a1.3.2 8.6 0 0-.13-.04l-6.15-2.53a1.03 1.03 0 0 0-1.36 1.32l.92 2.46a1.21 1.19 48.4 0 1-.05.99c-1.34 2.58-4.62 3.35-7.43 3.42q-5.41.14-7.67-4.65-.69-1.48-.77-1.48m.04-71.24c1.9 0 3.77 4.13 4.44 5.85 4.8 12.39 5.94 26.89 2.45 40.01q-1.53 5.74-2.05 8.42a1.1 1.1 0 0 0 .72 1.23l.03.01a1 1 0 0 0 1.25-.6q8.43-22.81.52-46.7c-.91-2.75-3.89-11.07-7.36-11.07s-6.46 8.32-7.37 11.07q-7.9 23.89.53 46.7a1 1 0 0 0 1.25.6l.03-.01a1.1 1.1 0 0 0 .72-1.23q-.52-2.68-2.05-8.42c-3.49-13.12-2.35-27.62 2.45-40.01.66-1.72 2.53-5.85 4.44-5.85"/><path fill="#0091cc" d="M176.82 234.28c-1.91 0-3.78 4.14-4.44 5.85-4.8 12.39-5.94 26.88-2.45 39.99q1.53 5.74 2.05 8.42a1.1 1.1 0 0 1-.72 1.23l-.03.01a1 1 0 0 1-1.25-.6q-8.43-22.8-.53-46.68c.91-2.75 3.89-11.06 7.37-11.06s6.45 8.31 7.36 11.07q7.9 23.87-.53 46.67a1 1 0 0 1-1.25.6l-.03-.01a1.1 1.1 0 0 1-.72-1.23q.52-2.68 2.05-8.42c3.49-13.11 2.35-27.6-2.45-39.99-.66-1.71-2.53-5.85-4.43-5.85m242.21-.01c-1.91 0-3.78 4.13-4.44 5.85-4.8 12.39-5.94 26.89-2.45 40.01q1.53 5.74 2.05 8.42a1.1 1.1 0 0 1-.72 1.23l-.03.01a1 1 0 0 1-1.25-.6q-8.43-22.81-.53-46.7c.91-2.75 3.89-11.07 7.37-11.07s6.45 8.32 7.36 11.07q7.91 23.89-.52 46.7a1 1 0 0 1-1.25.6l-.03-.01a1.1 1.1 0 0 1-.72-1.23q.52-2.68 2.05-8.42c3.49-13.12 2.35-27.62-2.45-40.01-.67-1.72-2.54-5.85-4.44-5.85"/></svg>