<svg xmlns="http://www.w3.org/2000/svg" viewBox="0 0 1537 1023"><g fill="none" stroke-width="2"><path stroke="#81cea8" d="m39.5 0-.43.25a.1.09-32.8 0 0-.03.12l250.68 444.82a.75.74-14.3 0 0 .65.38H1537m0 119.98H290.49a1 1 0 0 0-.83.49q-25.12 45.71-32.73 59.4c-60.99 109.63-90.65 163.62-169.52 306.74q-23.08 41.9-48.97 90.18-.25.47.81.64M0 857.77q11.44-19.2 22.49-38.44 20.35-35.44 22.19-38.6c37.36-64.29 73.27-126 117.41-202.91q10.06-17.53 12.96-25.41c9.82-26.7 10.24-55.5.33-82.26q-2.18-5.87-7.68-15.59-12.68-22.45-56.44-101.15Q55.32 252.79.58 154.16q-.13-.23-.58.38" vector-effect="non-scaling-stroke"/><path stroke="#81bf36" d="m800.6 148.3-.85-2.27" vector-effect="non-scaling-stroke"/><path stroke="#024e28" d="M799.75 146.03q-.96-9.97-9.41-15.11c-2.21-1.34-3.67-.91-5.91-.11a1.31 1.3-42.3 0 1-.96-.04l-1.78-1.46c-5.33-4.39-14.19.65-17.8 5.02q-7.89 9.54-11.43 23.13-2.43 9.28-3.52 15.23-1.78 9.72-3.03 28.79-.16 2.42-.52 4.08a.6.6 0 0 1-.73.44c-7.06-2.04-12.2-5.06-19.07-9.25-6.98-4.26-12.67-10.44-16.91-16.63q-3.32-4.85-5.4-11.73-3.73-12.34-4.36-24.12l-.86-19.69q-.77-17.73-17.45-22.53-7.98-2.3-12.1-2.31-98.29-.3-203.47-.14a.5.5 0 0 0-.5.55c.98 10.7 5.9 20.17 16.53 24.06a1.11 1.09 5.4 0 1 .7.83q.63 3.31 1.02 5.67 3.01 17.97 20.85 22.46a1.35 1.35 0 0 1 1.03 1.35c-.21 7.35 2.86 12.91 7.72 18.25q4.17 4.6 8.49 6.33 9.19 3.7 18.78 4.43a.85.84-5.5 0 1 .74.6c2.7 9.41 8.66 17.79 18.29 21.16q8.38 2.93 18.83 3.26 7.11.23 9.12 0a.78.77-16.3 0 1 .78.42c.49.97.63 2.34 1.05 3.34 8.46 20.04 28.25 20.32 46.19 19.84a.97.96 83.1 0 1 .96.76c3.41 15.83 16.25 22.9 31.63 23.38q10.28.33 32.21.18c8.15-.06 13.83.33 23.12.76 6.54.3 14.34 1.26 21.78 1.13a.7.7 0 0 1 .7.65c1.73 28.56 2.43 55.95 10.26 82.44 1.88 6.37 7.21 15.29 15.34 13.75q3.19-.6 5.57-2.92a.87.86 40.1 0 1 1.1-.09c9.44 6.48 17.67-2.38 20.92-10.44q1.63-4.03 2.36-8.34a1.6 1.6 0 0 1 1.5-1.35c7.46-.43 12.46-5.95 14.86-12.35 4.39-11.7 5.57-22.76 7.14-36.8q1.15-10.31 1.17-23.19a1.12 1.11 89.2 0 1 1.08-1.12q14.22-.46 23.1-1.47 7.89-.91 14.15-.75 13.16.34 23.39.04c16.01-.47 30.18-5.85 33.74-23.15a1.23 1.22-83 0 1 1.24-.98c14.74.54 30.05.48 40.91-11.4q4.37-4.77 5.97-11.39a1.45 1.43-82.9 0 1 1.41-1.11c5.55.05 10.19.51 15.38-.3q3.2-.5 6.75-1.23c12.84-2.63 19.58-10.61 23.53-22.84a.7.7 0 0 1 .61-.5q11.18-1.24 17.32-3.69c9.16-3.66 17.94-13.84 17.91-24.61a2.1 2.1 81.7 0 1 1.5-2.02c5.31-1.59 10.02-3.99 13.83-7.8 4.85-4.85 7.32-12.96 7.56-19.76a1.8 1.8 0 0 1 1.12-1.59c10.38-4.13 15.19-13.15 16.03-23.84a.7.7.3 0 0-.73-.73q-3.34.21-5.81.2-80.56-.26-195.77.11c-12.73.04-25.69 4.34-29.91 17.41q-1.06 3.28-1.29 14.21-.36 16.84-2.95 30.21a52.5 52.5 0 0 1-22.13 33.68q-4.3 2.9-7.78 4.83a.8.79-16.4 0 1-1.18-.64c-.71-11.32-2.09-22.9-5.46-33.26q-.79-2.42-4.6-8.63-3.41-5.55-9.19-5.98-1.9-.14-2.72-.91-.91-.86-1.69-2.41" vector-effect="non-scaling-stroke"/><path stroke="#7f710e" d="M799.75 146.03q-1.37-1.98-5.58-7.46-2.48-3.24-5.81-4.59a.9.88 40.6 0 0-.75.05l-3.33 1.88a1.53 1.53 0 0 1-2.16-.75l-1.11-2.68a1.36 1.35 4.4 0 0-.55-.64c-8.08-4.92-18.02 9.3-20.48 15.14q-6.23 14.79-8.19 31.04-2.49 20.73-2.39 29.14c.02 1.88-.65 4.55-.69 6.34q-.8 39.29 2.04 78.5 1.55 21.39 5.88 41.12 1.29 5.89 3.62 11.19c2.45 5.56 8.71 11.19 13.94 4.5a2 2 0 0 0 .35-.81l.17-1.09a.89.88-85.4 0 1 .87-.75h2.13a.86.85 78.6 0 1 .79.53c2.58 6.03 9.67 4.52 12.76.01q4.18-6.09 6.14-13.59a.58.58 0 0 0-.62-.72q-4 .37-9.22-.01c-9.45-.68-15.55-7.66-18.52-16.19q-3.86-11.03-5.28-24.21Q760.75 264.2 761 234q.05-5.72 1.23-25.63.45-7.64 1.57-16.19c1.32-10.09 1.61-17.19 4.04-25.82q.93-3.32 3.11-6.21a1.02 1.01 18.9 0 1 .83-.4l1.16.02a1.22 1.22 0 0 1 .99 1.9q-2.89 4.29-3.78 10.18a.26.26 0 0 0 .46.21q.23-.28.25-1.27.02-.96.28-1.59c3.33-8.15 7.21-17.76 17.12-18.27q3.85-.2 10.25.2 2.17.14 2.09-2.83m-56.24 77.3a.4.39 8.1 0 0 .5-.37l.28-14.71a.79.78 9.5 0 0-.55-.76q-17.56-5.59-30.7-17.88c-11.83-11.05-16.91-26.52-18.02-42.16-.37-5.26-1.13-11.19-1.13-16.64q-.01-9.89-.66-12.9c-2.67-12.41-14.61-16.84-26.11-16.85q-117.41-.08-198.31-.21a.93.93 0 0 0-.91 1.12q3.03 14.22 17.34 18.16 7.33 2.02 13.68 2.02 100 .09 156.8-.02 5.08-.01 6.4.55c3.97 1.7 5.96 5.04 6.92 9.39 1.54 7 3.08 16.78 5.59 24.65q3.04 9.52 4.03 11.76c12.02 27.27 36.39 47.12 64.85 54.85" vector-effect="non-scaling-stroke"/><path stroke="#7f710e" d="M1087.28 103.21q-.09-.03-.71-.03-65.87-.06-198.39.18c-7.71.02-16.59 2.37-21.77 8.56-4.07 4.87-4.6 12.82-4.62 18.89q-.03 10.95-1.49 23.48-3.87 33.01-32.41 48.3-12.66 6.78-26.8 9.27a1.3 1.28-3.2 0 0-1.06 1.17l-1.12 15.09a.56.56 0 0 0 .68.58q9.3-2.05 17.74-4.85c28.17-9.36 52.55-30.6 61.97-59.03 2.33-7.03 4.4-13.04 5.46-19.81q.35-2.22 1.67-9.27c1.06-5.64 3.93-11.25 10.32-11.26q28.5-.08 155.83-.01c5.68.01 13.39-.33 18.4-1.97q13.71-4.5 16.77-18.44a.74.73 16.2 0 0-.47-.85m-600.9 22.98a.63.63 0 0 0-.78.66c1.07 12.84 8.72 20.83 20.83 23.75q5.13 1.24 8.05 1.28 29.56.38 68.55-.18a.32.32 0 0 0 .19-.57c-6.75-5.2-8.96-14.58-9.26-22.72a.33.32-.9 0 0-.33-.31q-26.12.1-66.78-.1c-7.2-.04-13.75-.11-20.47-1.81" vector-effect="non-scaling-stroke"/><path stroke="#7f710e" d="M1070.24 126.28c-6.72 1.69-13.27 1.74-20.46 1.77q-40.65.13-66.77-.02a.33.32 1 0 0-.33.31c-.31 8.14-2.54 17.51-9.3 22.7a.32.32 0 0 0 .19.57q38.98.63 68.54.3 2.92-.03 8.05-1.26c12.11-2.9 19.77-10.88 20.86-23.71a.63.63 0 0 0-.78-.66m-400.75 24.66q-1.98-7.04-3.32-16.69-.42-3.02-2.83-4.82-1.75-1.32-5.35-1.33-30.24-.04-79.79-.01a.3.3 0 0 0-.33.3q-.29 6.63 2.18 12.64c2.26 5.47 8.09 10.99 14.52 10.94q41.24-.29 74.74-.79a.2.2 0 0 0 .18-.24m217.64.07a.2.2 0 0 0 .18.24q33.49.46 74.71.7c6.43.04 12.25-5.48 14.5-10.95q2.47-6.01 2.17-12.64a.3.3 0 0 0-.33-.3q-49.54.03-79.76.11-3.6.01-5.35 1.33-2.41 1.81-2.82 4.83-1.33 9.64-3.3 16.68m-89.7 3.28-10.06.32a6.18 6.06 34.3 0 0-1.73.31c-7.13 2.14-9.26 11.85-12.29 17.43-3.31 6.09-4.62 12.79-5.45 18.97q-1.09 8.15-2.14 19.92-.57 6.44-1.08 34.34-.06 3.4.45 12.83.12 2.22.57 12.83.52 11.88 2.83 26.51 1.44 9.06 3.58 14.92c2.99 8.19 7.01 15.82 16.68 16.15q4.07.14 8.28.25a.31.3 65.7 0 0 .2-.54q-6.64-5.47-9.5-14.34-4.04-12.53-5.66-25.95-5.29-43.94-.3-86.23c1.66-14.07 4.19-27.48 10.2-39.74q2.15-4.38 5.66-7.37a.35.35 0 0 0-.24-.61m250.55.75q-3.92.44-4.98.44-45.54.08-79.96-.31a.47.47 0 0 0-.48.49c.23 9.25-2.46 17.67-9.47 23.67a.4.4 0 0 0 .29.71q2.68-.2 2.88-.19 26.37.45 60.18.12 7.46-.08 14.66-2.81 15.02-5.71 17.31-21.67a.4.4 0 0 0-.43-.45M508.52 155a.4.4 0 0 0-.43.45q2.27 15.97 17.29 21.69 7.2 2.74 14.66 2.83 33.83.37 60.21-.05.2-.01 2.88.19a.4.4 0 0 0 .29-.71c-7.01-6.01-9.69-14.44-9.45-23.69a.47.47 0 0 0-.48-.49q-34.43.35-79.99.22-1.06 0-4.98-.44" vector-effect="non-scaling-stroke"/><path stroke="#7f710e" d="M877.53 179.94q24.83.31 60.32.05 6.76-.05 9.45-1.38c9.32-4.6 11.47-13.04 11.77-22.73a.54.54 0 0 0-.54-.56h-72.11a.5.5 0 0 0-.51.4q-2.95 11.98-8.75 23.62a.42.42 0 0 0 .37.6m-198.44 0a.42.42 0 0 0 .37-.6q-5.8-11.63-8.75-23.59a.53.52 82.9 0 0-.51-.4l-72.01.02a.54.54 0 0 0-.54.56c.3 9.68 2.45 18.11 11.76 22.7q2.69 1.33 9.44 1.37 35.44.25 60.24-.06m141.71 79.29-9.54.85a.74.73 88.7 0 0-.66.7q-.44 9.84-1.52 20.27-.94 9.19-3.63 16.87-.42 1.18-1.15 1.43a2.35 2.25 69.1 0 1-2.82-1.34q-1.9-4.44-2.79-9.23c-2.63-14.22-3.07-25.55-3.31-41.44q-.3-20.26 2.52-40.05c.7-4.88 2.43-11.39 5.72-15.03a1.86 1.76 38.7 0 1 2.39-.2q.23.17.44.65 2.15 4.88 3.17 12.83a.56.56 0 0 0 .75.46l10.15-3.61a.9.89 74.3 0 0 .58-1.04l-2.21-19.53c-.68-6.11-5.51-27.68-15.16-26.31-10.84 1.54-16.7 34.27-17.62 41.78-.87 7.11-2.27 19-2.48 28.57q-.4 18.66-.28 28.38.25 18.67 3.34 39.32 1.54 10.22 4.55 19.19 1.92 5.73 4.55 9.46c2.93 4.16 8.01 7.13 12.58 3.39 4.75-3.87 6.94-10.75 8.24-16.53 3.1-13.82 3.61-23.82 4.99-41.53q.05-.65-.07-7.65a.67.67 0 0 0-.73-.66m-186.33-54.91q-.02-.05-2.56-2.26c-4.46-3.87-6.6-12.03-6.89-17.91a.64.63-1 0 0-.64-.61l-79.36.1a.58.57-6.4 0 0-.57.7c3.71 16.46 19.8 20.65 34.43 20.64q28.82-.02 48.56-.33 3.82-.05 6.65.24a.39.39 0 0 0 .38-.57" vector-effect="non-scaling-stroke"/><path stroke="#7f710e" d="M698 204.29a.36.36 0 0 0 .24-.63q-9.64-8.96-15.87-19.5a1.1 1.1 0 0 0-.97-.55h-52.13a.3.3 0 0 0-.3.28q-.63 11.51 8.31 18.06 3.77 2.77 7.75 2.79 28.7.14 52.97-.45m160.75-.04q24.17.58 52.76.44 3.96-.02 7.72-2.78 8.9-6.53 8.27-17.99a.3.3 0 0 0-.3-.28h-51.92a1.1 1.1 0 0 0-.97.55q-6.2 10.5-15.8 19.43a.36.36 0 0 0 .24.63" vector-effect="non-scaling-stroke"/><path stroke="#7f710e" d="M921.97 204.4a.39.39 0 0 0 .39.57q2.82-.3 6.64-.25 19.72.28 48.51.27c14.61-.01 30.68-4.21 34.37-20.66a.58.57 6.3 0 0-.57-.7h-79.28a.64.63.9 0 0-.64.61c-.28 5.87-2.41 14.02-6.86 17.9q-2.54 2.21-2.56 2.26" vector-effect="non-scaling-stroke"/><path stroke="#024e28" d="m802.16 207.39 3.2.18a.2.2 0 0 0 .23-.21l.01-.12a9.36 1.8-86.8 0 0-1.28-9.44h-.04a9.36 1.8-86.8 0 0-2.32 9.24l-.01.12a.2.2 0 0 0 .21.23" vector-effect="non-scaling-stroke"/><path stroke="#7f710e" d="M739.52 228.13q.03-.23-.2-.42-.2-.17-.41-.22-2.72-.65-4.39-1.28-17.38-6.55-31.04-18a1.47 1.44 64 0 0-.96-.34l-40.48.68a.64.64 0 0 0-.62.56c-1.08 9.22 3.61 15.92 11.84 19.17q2.53 1 7.86.89 18.04-.38 24.5-.24c10.99.23 22.94-.54 33.46-.44a.44.43-83.8 0 0 .44-.36m76.54.01q.13.7 1.2.67c17.63-.56 41.96 1.02 61.56.04 10.81-.55 17.35-9.55 16.73-19.94a.34.34 0 0 0-.34-.33l-40.35-.78a2.71 2.68 26.6 0 0-1.65.54c-11.19 8.43-23.51 15.88-36.86 19.35a.4.4 0 0 0-.29.45" vector-effect="non-scaling-stroke"/><path stroke="#7f710e" d="M665.6 228.85a.37.36 63.6 0 0 .22-.66c-6.14-4.58-8.29-12.31-8.37-19.47a.3.3 88.9 0 0-.28-.28h-64.76a.77.77 0 0 0-.75.95c3.1 12.71 15.07 18.53 27.38 19.01q21.54.86 42.21.45 2.25-.05 4.35 0m225.73-.18q2.09-.04 4.33.01 20.57.46 42-.35c12.25-.44 24.17-6.21 27.28-18.84a.77.77 0 0 0-.74-.95l-64.43-.15a.3.3-88.8 0 0-.28.27c-.1 7.13-2.26 14.81-8.37 19.36a.36.36 0 0 0 .21.65m-146.95 3.22-43.35.73a2.04 2.03-77.3 0 0-1.79 1.14q-3.21 6.45-.6 12.41c2.29 5.24 5.31 6.97 11.08 6.72 3.44-.15 7.42.77 12.06.91q9.28.29 22.72 1a.42.41-88.7 0 0 .43-.42v-21.95a.54.54 0 0 0-.55-.54" vector-effect="non-scaling-stroke"/><path stroke="#7f710e" d="M697.91 252.1q-6.04-8.23-2.56-19.02a.46.45-80.7 0 0-.43-.6h-54.71a.7.7 0 0 0-.69.86q1.66 7.9 7.78 12.84c7.59 6.13 16.2 6.51 27.78 6.58q10.37.07 22.58-.16a.32.31-18.8 0 0 .25-.5m101.07 5.82q23.75-2.68 50.77-4.42 2.48-.15 4.54-1.03a1.68 1.6-82.4 0 0 .72-.58c3.78-5.44 5.65-13.26 1.91-19.05a.84.81-15.7 0 0-.7-.38h-57.33a.36.36 0 0 0-.36.36v24.7a.4.4-3.2 0 0 .45.4m59.8-5.76a.32.31 18.7 0 0 .25.5q12.23.2 22.61.11c11.6-.1 20.22-.5 27.81-6.66q6.12-4.96 7.76-12.88a.7.7 0 0 0-.69-.86l-54.79.13a.46.45 80.6 0 0-.43.61q3.51 10.79-2.52 19.05" vector-effect="non-scaling-stroke"/><path stroke="#024e28" d="m806.3 260.89-6.33.57a.53.53 0 0 0-.49.52q-.21 14.82 3.45 29.36a.44.44 0 0 0 .86-.01q.38-1.71 1.76-9.36c1.24-6.9.67-15.07 1.2-20.63a.4.4 0 0 0-.45-.45m35.24 512.1v-74.04a.68.67 89.6 0 1 .66-.68l9.86-.16a.78.78 0 0 0 .75-.94q-.33-1.51-1.12-2.36-37.35-40.28-76.24-81.67a.74.73 44.7 0 0-1.07 0q-3.2 3.45-6.76 7.22-30.84 32.63-70.29 74.22-.97 1.02-1.32 2.35a.98.98 0 0 0 .95 1.23h11.76a.75.74 0 0 1 .75.74v74.04a.55.55 0 0 1-.7.53l-10.99-3.1a1.05 1.05 0 0 0-1.34 1.01v113.14a1.27 1.26-82.1 0 0 .92 1.22l11.33 3.19a.79.78-82.5 0 1 .56.74l.36 21.64a.2.2 0 0 0 .22.21h45.6a.4.4 0 0 0 .41-.4q.28-43.39.1-73.35c-.07-10.83.44-18.48 8.76-25.63q3.91-3.37 10.33-3.85c10.21-.77 17.14 7.15 19.47 16.36q.64 2.52.63 14.25-.03 64.24-.01 72.02a.64.64 0 0 0 .64.64h45.08a.67.67 0 0 0 .67-.67v-20.31a1.71 1.7 81.5 0 1 1.2-1.63l11.03-3.39a1.2 1.2 0 0 0 .85-1.16v-113a.87.86 82.8 0 0-1.08-.84l-11.29 2.96a.55.54 82.7 0 1-.68-.53m-300.95-63.77c-.34-7.6-.72-11.56-.54-17.3q.29-9.16-.17-18.79a1.36 1.36 0 0 1 1.36-1.43h6.42a.6.59-20 0 0 .46-.98l-41.84-49.27a.55.54-44.7 0 0-.83 0l-41.95 49.11a.78.78 0 0 0 .59 1.29h7.04a.74.73 0 0 1 .74.73v158.86a.66.65-90 0 0 .65.66h66.77a.63.63 0 0 0 .63-.62l.17-8.8a.39.39 0 0 1 .75-.16q.47.99 2.62 1.74 6.19 2.18 12.08 3.34a.54.54 0 0 0 .64-.49c.69-11.38.28-21.17.3-32.45q.07-27.87.04-63.16-.02-12.67-.23-18.17a1.2 1.2 0 0 0-.88-1.12l-13.57-3.83a.3.3 0 0 0-.18 0q-.84.24-1.03.84-.04.14-.04 0m471.62 113.18v9.38a.4.4 0 0 0 .41.4h67.79a.2.2 0 0 0 .21-.2V672.76a.8.8 0 0 1 .79-.79h6.66a.86.85 69.5 0 0 .64-1.42l-41.76-48.42a1.08 1.07-45.2 0 0-1.62.01l-41.28 48.33a.72.72 0 0 0 .55 1.19h6.32a1.57 1.56-89.3 0 1 1.56 1.61q-.51 17.67-.06 35.44a.7.7 0 0 1-1.31.36q-.38-.7-1.36-.4-8.22 2.54-13.31 3.55a.92.91 84.7 0 0-.74.9v113.64a.79.78-6.7 0 0 .97.76q6.93-1.68 13.75-3.89c.71-.23.97-.97 1.27-1.4a.29.29 0 0 1 .52.17m-437.34 12.86a1.13 1.13 0 0 0 1.44-1.08V720.5a1.1 1.1 0 0 0-.91-1.11l-13.58-2.73a1.13 1.13 0 0 0-1.35 1.11v112.57a1.1 1.1 0 0 0 .82 1.09l13.58 3.83m416.2-3.8a1.2 1.2 0 0 0 .83-1.13V717.85a1.18 1.18 0 0 0-1.43-1.15l-13.25 2.86a1.2 1.2 0 0 0-.93 1.15v113.7a1.18 1.18 0 0 0 1.53 1.13l13.25-4.08m-396.73 11.52a1.1 1.1 0 0 0 1.39-1.05V728.69a1.1 1.1 0 0 0-.79-1.04l-13.46-3.81a1.1 1.1 0 0 0-1.39 1.05v113.24a1.1 1.1 0 0 0 .79 1.05l13.46 3.8M957.2 727.83a.84.84 0 0 0-.63.81v113.38a.84.84 0 0 0 1.05.81l13.88-3.64a.84.84 0 0 0 .63-.81V725a.84.84 0 0 0-1.05-.81l-13.88 3.64m-356.53 3.87a1.06 1.06 0 0 0-1.35 1.02V846.1a1.1 1.1 0 0 0 .77 1.02l13.48 3.8a1.06 1.06 0 0 0 1.35-1.02V736.52a1.1 1.1 0 0 0-.77-1.02l-13.48-3.8m337.26 4.19a1.2 1.2 0 0 0-.84 1.14v112.71a1.2 1.2 0 0 0 1.54 1.14l13.08-4.03a1.2 1.2 0 0 0 .84-1.14V733a1.2 1.2 0 0 0-1.54-1.14l-13.08 4.03M633.2 858.82a1.06 1.06 0 0 0 1.35-1.02V744.23a1.1 1.1 0 0 0-.77-1.02l-13.72-3.87a1.06 1.06 0 0 0-1.35 1.02v113.56a1.1 1.1 0 0 0 .77 1.02l13.72 3.88m285.13-115.6a.9.9 0 0 0-.69.9v114a.93.93 0 0 0 1.2.89l13.88-4.28a.9.9 0 0 0 .66-.89V740.48a.93.93 0 0 0-1.17-.89l-13.88 3.63M652.41 866.81a.86.86 0 0 0 1.09-.83V751.52a.86.86 0 0 0-.69-.84l-13.95-2.79a.86.86 0 0 0-1.03.84v113.32a.9.9 0 0 0 .63.83l13.95 3.93m245.77-115.79a.5.5 0 0 0-.4.5V866.5a.5.5 0 0 0 .66.49l14.53-4.48a.5.5 0 0 0 .36-.49V748.39a.5.5 0 0 0-.62-.5l-14.53 3.13m-5 119.24a.9.9 0 0 0 .64-.87V755.94a.9.9 0 0 0-1.14-.88l-13.79 3.61a.9.9 0 0 0-.68.88v114.09a.9.9 0 0 0 1.18.87l13.79-4.25m-234.8-114.98a.73.73 0 0 0-.87.71v113.95a.7.7 0 0 0 .53.7l14.29 4.04a.73.73 0 0 0 .93-.7V758.86a.7.7 0 0 0-.59-.72l-14.29-2.86m33.56 125.99q.51-1.61.52-5 .29-66.33.04-96.58-.09-11.15-.08-12.47a.91.9-81.9 0 0-.65-.87l-13.27-3.74a1.17 1.17 0 0 0-1.49 1.13q-.21 54.6-.04 94.28.05 11.5-.5 19.17a.9.9 0 0 0 .67.95l13.53 3.82a1.05 1.04-73.2 0 0 1.27-.69m167.55-114.89a1.15 1.15 0 0 0-.86 1.12v113.45a1.15 1.15 0 0 0 1.49 1.1l13.18-4.06a1.15 1.15 0 0 0 .81-1.1V764.04a1.15 1.15 0 0 0-1.44-1.11l-13.18 3.45" vector-effect="non-scaling-stroke"/><path stroke="#7f710e" d="M702.46 694.12a.33.33 0 0 0 .24.55l143.77.26a.33.33 0 0 0 .24-.56l-71.75-76.77a.33.33 0 0 0-.48 0l-72.02 76.52m50.21 213.81q.07-18.7-.06-71.35-.01-7.19.65-11.06c1.55-9.08 7.42-17.31 16.02-19.74 12.62-3.57 23.91 3.3 27.89 15.05q1.52 4.5 1.49 13.38-.11 30.52-.1 73.3a.8.8 0 0 0 .78.78h38.33a.64.64 0 0 0 .64-.64V699.58a.96.96 0 0 0-.96-.96H713.49a.83.83 0 0 0-.83.83v208.33a.56.56 0 0 0 .56.56h39.05a.4.4-90 0 0 .4-.41m88.69-131.54a.3.3 0 0 0-.22.3v110.23a.3.3 0 0 0 .4.3l10.75-3.31a.3.3 0 0 0 .22-.3V773.38a.3.3 0 0 0-.4-.3l-10.75 3.31m-142.31-3.3a.38.38 0 0 0-.48.36v110.1a.4.4 0 0 0 .28.37l10.36 2.92a.38.38 0 0 0 .48-.36v-110.1a.4.4 0 0 0-.28-.37l-10.36-2.92M470.33 667.7a.54.54 0 0 0 .41.89h70.18a.54.54 0 0 0 .41-.89l-35.09-40.91a.54.54 0 0 0-.82 0l-35.09 40.91m66.1 7.29a.37.37 0 0 0-.37-.37h-60.48a.37.37 0 0 0-.37.37v153.52a.37.37 0 0 0 .37.37h60.48a.37.37 0 0 0 .37-.37V674.99m17.24 149.72a.53.53 0 0 0 .67-.51V714.52a.5.5 0 0 0-.39-.51l-10.1-2.85a.53.53 0 0 0-.67.51v109.69a.5.5 0 0 0 .39.51l10.1 2.84m456.94-156.68a.37.37 0 0 0 .28.61l70.77-.13a.37.37 0 0 0 .28-.61l-35.46-41.23a.37.37 0 0 0-.56.01l-35.31 41.35m66.49 7.19a.5.5 0 0 0-.49-.49h-60.36a.5.5 0 0 0-.49.49v153.2a.5.5 0 0 0 .49.49h60.36a.5.5 0 0 0 .49-.49v-153.2m-78.96 38.98a.5.5 0 0 0-.33.45v109.82a.47.47 0 0 0 .61.45l10.52-3.24a.5.5 0 0 0 .33-.45V711.42a.47.47 0 0 0-.61-.45l-10.52 3.23" vector-effect="non-scaling-stroke"/><path stroke="#7f710e" d="m491.83 736.92 29.18.1a1.2 1.2 0 0 0 1.22-1.21l.07-20.23a32.93 15.7-89.8 0 0-15.59-32.99h-.22a32.93 15.7-89.8 0 0-15.81 32.87l-.07 20.23a1.2 1.2 0 0 0 1.22 1.23m539.53.12 30.42.06a.7.7 0 0 0 .71-.71l.04-20.39a33.28 15.83-89.9 0 0-15.77-33.31h-.18a33.28 15.83-89.9 0 0-15.89 33.25l-.04 20.39a.7.7 0 0 0 .71.71" vector-effect="non-scaling-stroke"/><path stroke="#024e28" d="M495 733.69h22.92a.8.8 0 0 0 .82-.82v-17.84a28.76 12.28 90 0 0-12.28-28.76 28.76 12.28 90 0 0-12.28 28.76v17.84a.8.8 0 0 0 .82.82m539.94-.02 23.18.12a.7.7 0 0 0 .69-.69l.09-17.18a29.43 12.28-89.7 0 0-12.13-29.49 29.43 12.28-89.7 0 0-12.43 29.37l-.09 17.18a.7.7 0 0 0 .69.69" vector-effect="non-scaling-stroke"/><path stroke="#7f710e" d="M758.09 782.44h36.9a.56.56 0 0 0 .56-.56V753.6a42.46 19 90 0 0-19-42.46h-.02a42.46 19-90 0 0-19 42.46v28.28a.56.56 0 0 0 .56.56" vector-effect="non-scaling-stroke"/><path stroke="#024e28" d="m762.36 779.03 28.18.1a1.36 1.36 0 0 0 1.36-1.36l.08-23.5a39.42 15.39-89.8 0 0-15.25-39.47h-.12a39.42 15.39-89.8 0 0-15.53 39.37l-.08 23.5a1.36 1.36 0 0 0 1.36 1.36" vector-effect="non-scaling-stroke"/><path stroke="#7f710e" d="M563.29 718.74a.54.54 0 0 0-.69.52v110.02a.54.54 0 0 0 .39.52l10.57 2.98a.54.54 0 0 0 .69-.52V722.25a.54.54 0 0 0-.39-.52l-10.57-2.99m426.3 110.94a.3.3 0 0 0 .22-.3V719.09a.3.3 0 0 0-.4-.3l-10.73 3.3a.3.3 0 0 0-.22.3v110.29a.3.3 0 0 0 .4.3l10.73-3.3M582.74 726.72a.37.37 0 0 0-.44.36v109.88a.4.4 0 0 0 .27.36l10.52 2.96a.37.37 0 0 0 .47-.36V729.19a.4.4 0 0 0-.3-.36l-10.52-2.11m386.94 110.52a.34.34 0 0 0 .24-.32V726.76a.34.34 0 0 0-.44-.32l-10.51 3.24a.34.34 0 0 0-.24.32v110.16a.34.34 0 0 0 .44.32l10.51-3.24M601.77 734.72a.3.3 0 0 0-.36.3v110.03a.3.3 0 0 0 .22.29l10.71 3.03a.3.3 0 0 0 .38-.29V737.17a.3.3 0 0 0-.24-.3l-10.71-2.15m337.65 3.05a.4.4 0 0 0-.28.37V848a.4.4 0 0 0 .5.37l10.61-3.27a.4.4 0 0 0 .28-.37V734.87a.4.4 0 0 0-.5-.37l-10.61 3.27M631.58 856.03a.55.55 0 0 0 .7-.53V745.3a.55.55 0 0 0-.4-.53l-10.33-2.92a.55.55 0 0 0-.7.53v110.2a.55.55 0 0 0 .4.53l10.33 2.92M920 745.27a.5.5 0 0 0-.34.45v110.09a.48.48 0 0 0 .62.46l10.61-3.27a.5.5 0 0 0 .34-.45V742.46a.48.48 0 0 0-.62-.46L920 745.27m-279.27 5.01a.64.64 0 0 0-.77.63V860.7a.64.64 0 0 0 .47.61l10.04 2.83a.64.64 0 0 0 .81-.62v-110.6a.64.64 0 0 0-.51-.62l-10.04-2.02m270.45 110.7a.4.4 0 0 0 .26-.35V750.22a.37.37 0 0 0-.48-.35l-10.9 3.36a.4.4 0 0 0-.26.35v110.4a.37.37 0 0 0 .48.35l10.9-3.35m-19.88 7.67a.5.5 0 0 0 .33-.45V757.84a.47.47 0 0 0-.61-.45l-10.44 3.22a.5.5 0 0 0-.33.45v110.36a.47.47 0 0 0 .61.45l10.44-3.22m-220.62 3.31a.5.5 0 0 0 .62-.47V760.97a.5.5 0 0 0-.36-.47l-10.71-3.02a.5.5 0 0 0-.62.47v110.52a.5.5 0 0 0 .36.47l10.71 3.02m9.03-106.54a.54.54 0 0 0-.65.53v110.03a.54.54 0 0 0 .39.52l10.26 2.9a.54.54 0 0 0 .69-.52V768a.54.54 0 0 0-.43-.53l-10.26-2.05m192.06 110.81a.4.4 0 0 0 .27-.36V765.3a.38.38 0 0 0-.49-.36l-10.59 3.27a.4.4 0 0 0-.27.36v110.56a.38.38 0 0 0 .49.36l10.59-3.26" vector-effect="non-scaling-stroke"/></g><path fill="#fff" d="m39.5 0-.43.25a.1.09-32.8 0 0-.03.12l250.68 444.82a.75.74-14.3 0 0 .65.38H1537v119.98H290.49a1 1 0 0 0-.83.49q-25.12 45.71-32.73 59.4c-60.99 109.63-90.65 163.62-169.52 306.74q-23.08 41.9-48.97 90.18-.25.47.81.64H0V857.77q11.44-19.2 22.49-38.44 20.35-35.44 22.19-38.6c37.36-64.29 73.27-126 117.41-202.91q10.06-17.53 12.96-25.41c9.82-26.7 10.24-55.5.33-82.26q-2.18-5.87-7.68-15.59-12.68-22.45-56.44-101.15Q55.32 252.79.58 154.16q-.13-.23-.58.38V0z"/><path fill="#039c50" d="M1537 0v445.57H290.37a.75.74-14.3 0 1-.65-.38L39.04.37a.1.09-32.8 0 1 .03-.12L39.5 0zM800.6 148.3l-.85-2.27q-.96-9.97-9.41-15.11c-2.21-1.34-3.67-.91-5.91-.11a1.31 1.3-42.3 0 1-.96-.04l-1.78-1.46c-5.33-4.39-14.19.65-17.8 5.02q-7.89 9.54-11.43 23.13-2.43 9.28-3.52 15.23-1.78 9.72-3.03 28.79-.16 2.42-.52 4.08a.6.6 0 0 1-.73.44c-7.06-2.04-12.2-5.06-19.07-9.25-6.98-4.26-12.67-10.44-16.91-16.63q-3.32-4.85-5.4-11.73-3.73-12.34-4.36-24.12l-.86-19.69q-.77-17.73-17.45-22.53-7.98-2.3-12.1-2.31-98.29-.3-203.47-.14a.5.5 0 0 0-.5.55c.98 10.7 5.9 20.17 16.53 24.06a1.11 1.09 5.4 0 1 .7.83q.63 3.31 1.02 5.67 3.01 17.97 20.85 22.46a1.35 1.35 0 0 1 1.03 1.35c-.21 7.35 2.86 12.91 7.72 18.25q4.17 4.6 8.49 6.33 9.19 3.7 18.78 4.43a.85.84-5.5 0 1 .74.6c2.7 9.41 8.66 17.79 18.29 21.16q8.38 2.93 18.83 3.26 7.11.23 9.12 0a.78.77-16.3 0 1 .78.42c.49.97.63 2.34 1.05 3.34 8.46 20.04 28.25 20.32 46.19 19.84a.97.96 83.1 0 1 .96.76c3.41 15.83 16.25 22.9 31.63 23.38q10.28.33 32.21.18c8.15-.06 13.83.33 23.12.76 6.54.3 14.34 1.26 21.78 1.13a.7.7 0 0 1 .7.65c1.73 28.56 2.43 55.95 10.26 82.44 1.88 6.37 7.21 15.29 15.34 13.75q3.19-.6 5.57-2.92a.87.86 40.1 0 1 1.1-.09c9.44 6.48 17.67-2.38 20.92-10.44q1.63-4.03 2.36-8.34a1.6 1.6 0 0 1 1.5-1.35c7.46-.43 12.46-5.95 14.86-12.35 4.39-11.7 5.57-22.76 7.14-36.8q1.15-10.31 1.17-23.19a1.12 1.11 89.2 0 1 1.08-1.12q14.22-.46 23.1-1.47 7.89-.91 14.15-.75 13.16.34 23.39.04c16.01-.47 30.18-5.85 33.74-23.15a1.23 1.22-83 0 1 1.24-.98c14.74.54 30.05.48 40.91-11.4q4.37-4.77 5.97-11.39a1.45 1.43-82.9 0 1 1.41-1.11c5.55.05 10.19.51 15.38-.3q3.2-.5 6.75-1.23c12.84-2.63 19.58-10.61 23.53-22.84a.7.7 0 0 1 .61-.5q11.18-1.24 17.32-3.69c9.16-3.66 17.94-13.84 17.91-24.61a2.1 2.1 81.7 0 1 1.5-2.02c5.31-1.59 10.02-3.99 13.83-7.8 4.85-4.85 7.32-12.96 7.56-19.76a1.8 1.8 0 0 1 1.12-1.59c10.38-4.13 15.19-13.15 16.03-23.84a.7.7.3 0 0-.73-.73q-3.34.21-5.81.2-80.56-.26-195.77.11c-12.73.04-25.69 4.34-29.91 17.41q-1.06 3.28-1.29 14.21-.36 16.84-2.95 30.21a52.5 52.5 0 0 1-22.13 33.68q-4.3 2.9-7.78 4.83a.8.79-16.4 0 1-1.18-.64c-.71-11.32-2.09-22.9-5.46-33.26q-.79-2.42-4.6-8.63-3.41-5.55-9.19-5.98-1.9-.14-2.72-.91-.91-.86-1.69-2.41"/><path d="M799.75 146.03q-1.37-1.98-5.58-7.46-2.48-3.24-5.81-4.59a.9.88 40.6 0 0-.75.05l-3.33 1.88a1.53 1.53 0 0 1-2.16-.75l-1.11-2.68a1.36 1.35 4.4 0 0-.55-.64c-8.08-4.92-18.02 9.3-20.48 15.14q-6.23 14.79-8.19 31.04-2.49 20.73-2.39 29.14c.02 1.88-.65 4.55-.69 6.34q-.8 39.29 2.04 78.5 1.55 21.39 5.88 41.12 1.29 5.89 3.62 11.19c2.45 5.56 8.71 11.19 13.94 4.5a2 2 0 0 0 .35-.81l.17-1.09a.89.88-85.4 0 1 .87-.75h2.13a.86.85 78.6 0 1 .79.53c2.58 6.03 9.67 4.52 12.76.01q4.18-6.09 6.14-13.59a.58.58 0 0 0-.62-.72q-4 .37-9.22-.01c-9.45-.68-15.55-7.66-18.52-16.19q-3.86-11.03-5.28-24.21Q760.75 264.2 761 234q.05-5.72 1.23-25.63.45-7.64 1.57-16.19c1.32-10.09 1.61-17.19 4.04-25.82q.93-3.32 3.11-6.21a1.02 1.01 18.9 0 1 .83-.4l1.16.02a1.22 1.22 0 0 1 .99 1.9q-2.89 4.29-3.78 10.18a.26.26 0 0 0 .46.21q.23-.28.25-1.27.02-.96.28-1.59c3.33-8.15 7.21-17.76 17.12-18.27q3.85-.2 10.25.2 2.17.14 2.09-2.83.78 1.55 1.69 2.41.82.77 2.72.91 5.78.43 9.19 5.98 3.81 6.21 4.6 8.63c3.37 10.36 4.75 21.94 5.46 33.26a.8.79-16.4 0 0 1.18.64q3.48-1.93 7.78-4.83a52.5 52.5 0 0 0 22.13-33.68q2.59-13.37 2.95-30.21.23-10.93 1.29-14.21c4.22-13.07 17.18-17.37 29.91-17.41q115.21-.37 195.77-.11 2.47.01 5.81-.2a.7.7.3 0 1 .73.73c-.84 10.69-5.65 19.71-16.03 23.84a1.8 1.8 0 0 0-1.12 1.59c-.24 6.8-2.71 14.91-7.56 19.76-3.81 3.81-8.52 6.21-13.83 7.8a2.1 2.1 81.7 0 0-1.5 2.02c.03 10.77-8.75 20.95-17.91 24.61q-6.14 2.45-17.32 3.69a.7.7 0 0 0-.61.5c-3.95 12.23-10.69 20.21-23.53 22.84q-3.55.73-6.75 1.23c-5.19.81-9.83.35-15.38.3a1.45 1.43-82.9 0 0-1.41 1.11q-1.6 6.62-5.97 11.39c-10.86 11.88-26.17 11.94-40.91 11.4a1.23 1.22-83 0 0-1.24.98c-3.56 17.3-17.73 22.68-33.74 23.15q-10.23.3-23.39-.04-6.26-.16-14.15.75-8.88 1.01-23.1 1.47a1.12 1.11 89.2 0 0-1.08 1.12q-.02 12.88-1.17 23.19c-1.57 14.04-2.75 25.1-7.14 36.8-2.4 6.4-7.4 11.92-14.86 12.35a1.6 1.6 0 0 0-1.5 1.35q-.73 4.31-2.36 8.34c-3.25 8.06-11.48 16.92-20.92 10.44a.87.86 40.1 0 0-1.1.09q-2.38 2.32-5.57 2.92c-8.13 1.54-13.46-7.38-15.34-13.75-7.83-26.49-8.53-53.88-10.26-82.44a.7.7 0 0 0-.7-.65c-7.44.13-15.24-.83-21.78-1.13-9.29-.43-14.97-.82-23.12-.76q-21.93.15-32.21-.18c-15.38-.48-28.22-7.55-31.63-23.38a.97.96 83.1 0 0-.96-.76c-17.94.48-37.73.2-46.19-19.84-.42-1-.56-2.37-1.05-3.34a.78.77-16.3 0 0-.78-.42q-2.01.23-9.12 0-10.45-.33-18.83-3.26c-9.63-3.37-15.59-11.75-18.29-21.16a.85.84-5.5 0 0-.74-.6q-9.59-.73-18.78-4.43-4.32-1.73-8.49-6.33c-4.86-5.34-7.93-10.9-7.72-18.25a1.35 1.35 0 0 0-1.03-1.35q-17.84-4.49-20.85-22.46-.39-2.36-1.02-5.67a1.11 1.09 5.4 0 0-.7-.83c-10.63-3.89-15.55-13.36-16.53-24.06a.5.5 0 0 1 .5-.55q105.18-.16 203.47.14 4.12.01 12.1 2.31 16.68 4.8 17.45 22.53l.86 19.69q.63 11.78 4.36 24.12 2.08 6.88 5.4 11.73c4.24 6.19 9.93 12.37 16.91 16.63 6.87 4.19 12.01 7.21 19.07 9.25a.6.6 0 0 0 .73-.44q.36-1.66.52-4.08 1.25-19.07 3.03-28.79 1.09-5.95 3.52-15.23 3.54-13.59 11.43-23.13c3.61-4.37 12.47-9.41 17.8-5.02l1.78 1.46a1.31 1.3-42.3 0 0 .96.04c2.24-.8 3.7-1.23 5.91.11q8.45 5.14 9.41 15.11m-55.39 79.57a.4.39 8.1 0 0 .5-.37l.28-14.71a.79.78 9.5 0 0-.55-.76q-17.56-5.59-30.7-17.88c-11.83-11.05-16.91-26.52-18.02-42.16-.37-5.26-1.13-11.19-1.13-16.64q-.01-9.89-.66-12.9c-2.67-12.41-14.61-16.84-26.11-16.85q-117.41-.08-198.31-.21a.93.93 0 0 0-.91 1.12q3.03 14.22 17.34 18.16 7.33 2.02 13.68 2.02 100 .09 156.8-.02 5.08-.01 6.4.55c3.97 1.7 5.96 5.04 6.92 9.39 1.54 7 3.08 16.78 5.59 24.65q3.04 9.52 4.03 11.76c12.02 27.27 36.39 47.12 64.85 54.85m342.92-122.39q-.09-.03-.71-.03-65.87-.06-198.39.18c-7.71.02-16.59 2.37-21.77 8.56-4.07 4.87-4.6 12.82-4.62 18.89q-.03 10.95-1.49 23.48-3.87 33.01-32.41 48.3-12.66 6.78-26.8 9.27a1.3 1.28-3.2 0 0-1.06 1.17l-1.12 15.09a.56.56 0 0 0 .68.58q9.3-2.05 17.74-4.85c28.17-9.36 52.55-30.6 61.97-59.03 2.33-7.03 4.4-13.04 5.46-19.81q.35-2.22 1.67-9.27c1.06-5.64 3.93-11.25 10.32-11.26q28.5-.08 155.83-.01c5.68.01 13.39-.33 18.4-1.97q13.71-4.5 16.77-18.44a.74.73 16.2 0 0-.47-.85m-600.9 22.98a.63.63 0 0 0-.78.66c1.07 12.84 8.72 20.83 20.83 23.75q5.13 1.24 8.05 1.28 29.56.38 68.55-.18a.32.32 0 0 0 .19-.57c-6.75-5.2-8.96-14.58-9.26-22.72a.33.32-.9 0 0-.33-.31q-26.12.1-66.78-.1c-7.2-.04-13.75-.11-20.47-1.81m583.86.09c-6.72 1.69-13.27 1.74-20.46 1.77q-40.65.13-66.77-.02a.33.32 1 0 0-.33.31c-.31 8.14-2.54 17.51-9.3 22.7a.32.32 0 0 0 .19.57q38.98.63 68.54.3 2.92-.03 8.05-1.26c12.11-2.9 19.77-10.88 20.86-23.71a.63.63 0 0 0-.78-.66m-400.75 24.66q-1.98-7.04-3.32-16.69-.42-3.02-2.83-4.82-1.75-1.32-5.35-1.33-30.24-.04-79.79-.01a.3.3 0 0 0-.33.3q-.29 6.63 2.18 12.64c2.26 5.47 8.09 10.99 14.52 10.94q41.24-.29 74.74-.79a.2.2 0 0 0 .18-.24m217.64.07a.2.2 0 0 0 .18.24q33.49.46 74.71.7c6.43.04 12.25-5.48 14.5-10.95q2.47-6.01 2.17-12.64a.3.3 0 0 0-.33-.3q-49.54.03-79.76.11-3.6.01-5.35 1.33-2.41 1.81-2.82 4.83-1.33 9.64-3.3 16.68m-89.7 3.28-10.06.32a6.18 6.06 34.3 0 0-1.73.31c-7.13 2.14-9.26 11.85-12.29 17.43-3.31 6.09-4.62 12.79-5.45 18.97q-1.09 8.15-2.14 19.92-.57 6.44-1.08 34.34-.06 3.4.45 12.83.12 2.22.57 12.83.52 11.88 2.83 26.51 1.44 9.06 3.58 14.92c2.99 8.19 7.01 15.82 16.68 16.15q4.07.14 8.28.25a.31.3 65.7 0 0 .2-.54q-6.64-5.47-9.5-14.34-4.04-12.53-5.66-25.95-5.29-43.94-.3-86.23c1.66-14.07 4.19-27.48 10.2-39.74q2.15-4.38 5.66-7.37a.35.35 0 0 0-.24-.61m250.55.75q-3.92.44-4.98.44-45.54.08-79.96-.31a.47.47 0 0 0-.48.49c.23 9.25-2.46 17.67-9.47 23.67a.4.4 0 0 0 .29.71q2.68-.2 2.88-.19 26.37.45 60.18.12 7.46-.08 14.66-2.81 15.02-5.71 17.31-21.67a.4.4 0 0 0-.43-.45M508.52 155a.4.4 0 0 0-.43.45q2.27 15.97 17.29 21.69 7.2 2.74 14.66 2.83 33.83.37 60.21-.05.2-.01 2.88.19a.4.4 0 0 0 .29-.71c-7.01-6.01-9.69-14.44-9.45-23.69a.47.47 0 0 0-.48-.49q-34.43.35-79.99.22-1.06 0-4.98-.44m369.01 24.94q24.83.31 60.32.05 6.76-.05 9.45-1.38c9.32-4.6 11.47-13.04 11.77-22.73a.54.54 0 0 0-.54-.56h-72.11a.5.5 0 0 0-.51.4q-2.95 11.98-8.75 23.62a.42.42 0 0 0 .37.6m-198.44 0a.42.42 0 0 0 .37-.6q-5.8-11.63-8.75-23.59a.53.52 82.9 0 0-.51-.4l-72.01.02a.54.54 0 0 0-.54.56c.3 9.68 2.45 18.11 11.76 22.7q2.69 1.33 9.44 1.37 35.44.25 60.24-.06m141.71 79.29-9.54.85a.74.73 88.7 0 0-.66.7q-.44 9.84-1.52 20.27-.94 9.19-3.63 16.87-.42 1.18-1.15 1.43a2.35 2.25 69.1 0 1-2.82-1.34q-1.9-4.44-2.79-9.23c-2.63-14.22-3.07-25.55-3.31-41.44q-.3-20.26 2.52-40.05c.7-4.88 2.43-11.39 5.72-15.03a1.86 1.76 38.7 0 1 2.39-.2q.23.17.44.65 2.15 4.88 3.17 12.83a.56.56 0 0 0 .75.46l10.15-3.61a.9.89 74.3 0 0 .58-1.04l-2.21-19.53c-.68-6.11-5.51-27.68-15.16-26.31-10.84 1.54-16.7 34.27-17.62 41.78-.87 7.11-2.27 19-2.48 28.57q-.4 18.66-.28 28.38.25 18.67 3.34 39.32 1.54 10.22 4.55 19.19 1.92 5.73 4.55 9.46c2.93 4.16 8.01 7.13 12.58 3.39 4.75-3.87 6.94-10.75 8.24-16.53 3.1-13.82 3.61-23.82 4.99-41.53q.05-.65-.07-7.65a.67.67 0 0 0-.73-.66m-186.33-54.91q-.02-.05-2.56-2.26c-4.46-3.87-6.6-12.03-6.89-17.91a.64.63-1 0 0-.64-.61l-79.36.1a.58.57-6.4 0 0-.57.7c3.71 16.46 19.8 20.65 34.43 20.64q28.82-.02 48.56-.33 3.82-.05 6.65.24a.39.39 0 0 0 .38-.57m63.53-.03a.36.36 0 0 0 .24-.63q-9.64-8.96-15.87-19.5a1.1 1.1 0 0 0-.97-.55h-52.13a.3.3 0 0 0-.3.28q-.63 11.51 8.31 18.06 3.77 2.77 7.75 2.79 28.7.14 52.97-.45m160.75-.04q24.17.58 52.76.44 3.96-.02 7.72-2.78 8.9-6.53 8.27-17.99a.3.3 0 0 0-.3-.28h-51.92a1.1 1.1 0 0 0-.97.55q-6.2 10.5-15.8 19.43a.36.36 0 0 0 .24.63m63.22.15a.39.39 0 0 0 .39.57q2.82-.3 6.64-.25 19.72.28 48.51.27c14.61-.01 30.68-4.21 34.37-20.66a.58.57 6.3 0 0-.57-.7h-79.28a.64.63.9 0 0-.64.61c-.28 5.87-2.41 14.02-6.86 17.9q-2.54 2.21-2.56 2.26m-119.81 2.99 3.2.18a.2.2 0 0 0 .23-.21l.01-.12a9.36 1.8-86.8 0 0-1.28-9.44h-.04a9.36 1.8-86.8 0 0-2.32 9.24l-.01.12a.2.2 0 0 0 .21.23m-62.64 20.74q.03-.23-.2-.42-.2-.17-.41-.22-2.72-.65-4.39-1.28-17.38-6.55-31.04-18a1.47 1.44 64 0 0-.96-.34l-40.48.68a.64.64 0 0 0-.62.56c-1.08 9.22 3.61 15.92 11.84 19.17q2.53 1 7.86.89 18.04-.38 24.5-.24c10.99.23 22.94-.54 33.46-.44a.44.43-83.8 0 0 .44-.36m76.54.01q.13.7 1.2.67c17.63-.56 41.96 1.02 61.56.04 10.81-.55 17.35-9.55 16.73-19.94a.34.34 0 0 0-.34-.33l-40.35-.78a2.71 2.68 26.6 0 0-1.65.54c-11.19 8.43-23.51 15.88-36.86 19.35a.4.4 0 0 0-.29.45m-150.46.71a.37.36 63.6 0 0 .22-.66c-6.14-4.58-8.29-12.31-8.37-19.47a.3.3 88.9 0 0-.28-.28h-64.76a.77.77 0 0 0-.75.95c3.1 12.71 15.07 18.53 27.38 19.01q21.54.86 42.21.45 2.25-.05 4.35 0m225.73-.18q2.09-.04 4.33.01 20.57.46 42-.35c12.25-.44 24.17-6.21 27.28-18.84a.77.77 0 0 0-.74-.95l-64.43-.15a.3.3-88.8 0 0-.28.27c-.1 7.13-2.26 14.81-8.37 19.36a.36.36 0 0 0 .21.65m-146.95 3.22-43.35.73a2.04 2.03-77.3 0 0-1.79 1.14q-3.21 6.45-.6 12.41c2.29 5.24 5.31 6.97 11.08 6.72 3.44-.15 7.42.77 12.06.91q9.28.29 22.72 1a.42.41-88.7 0 0 .43-.42v-21.95a.54.54 0 0 0-.55-.54m-46.47 20.21q-6.04-8.23-2.56-19.02a.46.45-80.7 0 0-.43-.6h-54.71a.7.7 0 0 0-.69.86q1.66 7.9 7.78 12.84c7.59 6.13 16.2 6.51 27.78 6.58q10.37.07 22.58-.16a.32.31-18.8 0 0 .25-.5m101.07 5.82q23.75-2.68 50.77-4.42 2.48-.15 4.54-1.03a1.68 1.6-82.4 0 0 .72-.58c3.78-5.44 5.65-13.26 1.91-19.05a.84.81-15.7 0 0-.7-.38h-57.33a.36.36 0 0 0-.36.36v24.7a.4.4-3.2 0 0 .45.4m59.8-5.76a.32.31 18.7 0 0 .25.5q12.23.2 22.61.11c11.6-.1 20.22-.5 27.81-6.66q6.12-4.96 7.76-12.88a.7.7 0 0 0-.69-.86l-54.79.13a.46.45 80.6 0 0-.43.61q3.51 10.79-2.52 19.05m-52.48 8.73-6.33.57a.53.53 0 0 0-.49.52q-.21 14.82 3.45 29.36a.44.44 0 0 0 .86-.01q.38-1.71 1.76-9.36c1.24-6.9.67-15.07 1.2-20.63a.4.4 0 0 0-.45-.45"/><path fill="#fee11b" d="M744.36 225.6c-28.46-7.73-52.83-27.58-64.85-54.85q-.99-2.24-4.03-11.76c-2.51-7.87-4.05-17.65-5.59-24.65-.96-4.35-2.95-7.69-6.92-9.39q-1.32-.56-6.4-.55-56.8.11-156.8.02-6.35 0-13.68-2.02-14.31-3.94-17.34-18.16a.93.93 0 0 1 .91-1.12q80.9.13 198.31.21c11.5.01 23.44 4.44 26.11 16.85q.65 3.01.66 12.9c0 5.45.76 11.38 1.13 16.64 1.11 15.64 6.19 31.11 18.02 42.16q13.14 12.29 30.7 17.88a.79.78 9.5 0 1 .55.76l-.28 14.71a.4.39 8.1 0 1-.5.37m342.92-122.39a.74.73 16.2 0 1 .47.85q-3.06 13.94-16.77 18.44c-5.01 1.64-12.72 1.98-18.4 1.97q-127.33-.07-155.83.01c-6.39.01-9.26 5.62-10.32 11.26q-1.32 7.05-1.67 9.27c-1.06 6.77-3.13 12.78-5.46 19.81-9.42 28.43-33.8 49.67-61.97 59.03q-8.44 2.8-17.74 4.85a.56.56 0 0 1-.68-.58l1.12-15.09a1.3 1.28-3.2 0 1 1.06-1.17q14.14-2.49 26.8-9.27 28.54-15.29 32.41-48.3 1.46-12.53 1.49-23.48c.02-6.07.55-14.02 4.62-18.89 5.18-6.19 14.06-8.54 21.77-8.56q132.52-.24 198.39-.18.62 0 .71.03"/><path fill="#fee11b" d="M486.38 126.19c6.72 1.7 13.27 1.77 20.47 1.81q40.66.2 66.78.1a.33.32-.9 0 1 .33.31c.3 8.14 2.51 17.52 9.26 22.72a.32.32 0 0 1-.19.57q-38.99.56-68.55.18-2.92-.04-8.05-1.28c-12.11-2.92-19.76-10.91-20.83-23.75a.63.63 0 0 1 .78-.66m583.86.09a.63.63 0 0 1 .78.66c-1.09 12.83-8.75 20.81-20.86 23.71q-5.13 1.23-8.05 1.26-29.56.33-68.54-.3a.32.32 0 0 1-.19-.57c6.76-5.19 8.99-14.56 9.3-22.7a.33.32 1 0 1 .33-.31q26.12.15 66.77.02c7.19-.03 13.74-.08 20.46-1.77m-400.75 24.66a.2.2 0 0 1-.18.24q-33.5.5-74.74.79c-6.43.05-12.26-5.47-14.52-10.94q-2.47-6.01-2.18-12.64a.3.3 0 0 1 .33-.3q49.55-.03 79.79.01 3.6.01 5.35 1.33 2.41 1.8 2.83 4.82 1.34 9.65 3.32 16.69m217.64.07q1.97-7.04 3.3-16.68.41-3.02 2.82-4.83 1.75-1.32 5.35-1.33 30.22-.08 79.76-.11a.3.3 0 0 1 .33.3q.3 6.63-2.17 12.64c-2.25 5.47-8.07 10.99-14.5 10.95q-41.22-.24-74.71-.7a.2.2 0 0 1-.18-.24m-87.38-4.98.85 2.27q.08 2.97-2.09 2.83-6.4-.4-10.25-.2c-9.91.51-13.79 10.12-17.12 18.27q-.26.63-.28 1.59-.02.99-.25 1.27a.26.26 0 0 1-.46-.21q.89-5.89 3.78-10.18a1.22 1.22 0 0 0-.99-1.9l-1.16-.02a1.02 1.01 18.9 0 0-.83.4q-2.18 2.89-3.11 6.21c-2.43 8.63-2.72 15.73-4.04 25.82q-1.12 8.55-1.57 16.19-1.18 19.91-1.23 25.63-.25 30.2 2.76 57.98 1.42 13.18 5.28 24.21c2.97 8.53 9.07 15.51 18.52 16.19q5.22.38 9.22.01a.58.58 0 0 1 .62.72q-1.96 7.5-6.14 13.59c-3.09 4.51-10.18 6.02-12.76-.01a.86.85 78.6 0 0-.79-.53h-2.13a.89.88-85.4 0 0-.87.75l-.17 1.09a2 2 0 0 1-.35.81c-5.23 6.69-11.49 1.06-13.94-4.5q-2.33-5.3-3.62-11.19-4.33-19.73-5.88-41.12-2.84-39.21-2.04-78.5c.04-1.79.71-4.46.69-6.34q-.1-8.41 2.39-29.14 1.96-16.25 8.19-31.04c2.46-5.84 12.4-20.06 20.48-15.14a1.36 1.35 4.4 0 1 .55.64l1.11 2.68a1.53 1.53 0 0 0 2.16.75l3.33-1.88a.9.88 40.6 0 1 .75-.05q3.33 1.35 5.81 4.59 4.21 5.48 5.58 7.46"/><path fill="#039c50" d="M0 857.77V154.54q.45-.61.58-.38 54.74 98.63 110.68 199.25 43.76 78.7 56.44 101.15 5.5 9.72 7.68 15.59c9.91 26.76 9.49 55.56-.33 82.26q-2.9 7.88-12.96 25.41c-44.14 76.91-80.05 138.62-117.41 202.91q-1.84 3.16-22.19 38.6Q11.44 838.57 0 857.77"/><path fill="#fee11b" d="M797.43 154.29a.35.35 0 0 1 .24.61q-3.51 2.99-5.66 7.37c-6.01 12.26-8.54 25.67-10.2 39.74q-4.99 42.29.3 86.23 1.62 13.42 5.66 25.95 2.86 8.87 9.5 14.34a.31.3 65.7 0 1-.2.54q-4.21-.11-8.28-.25c-9.67-.33-13.69-7.96-16.68-16.15q-2.14-5.86-3.58-14.92-2.31-14.63-2.83-26.51-.45-10.61-.57-12.83-.51-9.43-.45-12.83.51-27.9 1.08-34.34 1.05-11.77 2.14-19.92c.83-6.18 2.14-12.88 5.45-18.97 3.03-5.58 5.16-15.29 12.29-17.43a6.18 6.06 34.3 0 1 1.73-.31zm250.55.75a.4.4 0 0 1 .43.45q-2.29 15.96-17.31 21.67-7.2 2.73-14.66 2.81-33.81.33-60.18-.12-.2-.01-2.88.19a.4.4 0 0 1-.29-.71c7.01-6 9.7-14.42 9.47-23.67a.47.47 0 0 1 .48-.49q34.42.39 79.96.31 1.06 0 4.98-.44M508.52 155q3.92.44 4.98.44 45.56.13 79.99-.22a.47.47 0 0 1 .48.49c-.24 9.25 2.44 17.68 9.45 23.69a.4.4 0 0 1-.29.71q-2.68-.2-2.88-.19-26.38.42-60.21.05-7.46-.09-14.66-2.83-15.02-5.72-17.29-21.69a.4.4 0 0 1 .43-.45"/><path fill="#fee11b" d="M877.53 179.94a.42.42 0 0 1-.37-.6q5.8-11.64 8.75-23.62a.5.5 0 0 1 .51-.4h72.11a.54.54 0 0 1 .54.56c-.3 9.69-2.45 18.13-11.77 22.73q-2.69 1.33-9.45 1.38-35.49.26-60.32-.05m-198.44 0q-24.8.31-60.24.06-6.75-.04-9.44-1.37c-9.31-4.59-11.46-13.02-11.76-22.7a.54.54 0 0 1 .54-.56l72.01-.02a.53.52 82.9 0 1 .51.4q2.95 11.96 8.75 23.59a.42.42 0 0 1-.37.6m142.44 79.95q.12 7 .07 7.65c-1.38 17.71-1.89 27.71-4.99 41.53-1.3 5.78-3.49 12.66-8.24 16.53-4.57 3.74-9.65.77-12.58-3.39q-2.63-3.73-4.55-9.46-3.01-8.97-4.55-19.19-3.09-20.65-3.34-39.32-.12-9.72.28-28.38c.21-9.57 1.61-21.46 2.48-28.57.92-7.51 6.78-40.24 17.62-41.78 9.65-1.37 14.48 20.2 15.16 26.31l2.21 19.53a.9.89 74.3 0 1-.58 1.04L810.37 206a.56.56 0 0 1-.75-.46q-1.02-7.95-3.17-12.83-.21-.48-.44-.65a1.86 1.76 38.7 0 0-2.39.2c-3.29 3.64-5.02 10.15-5.72 15.03q-2.82 19.79-2.52 40.05c.24 15.89.68 27.22 3.31 41.44q.89 4.79 2.79 9.23a2.35 2.25 69.1 0 0 2.82 1.34q.73-.25 1.15-1.43 2.69-7.68 3.63-16.87 1.08-10.43 1.52-20.27a.74.73 88.7 0 1 .66-.7l9.54-.85a.67.67 0 0 1 .73.66m-187.06-55.57a.39.39 0 0 1-.38.57q-2.83-.29-6.65-.24-19.74.31-48.56.33c-14.63.01-30.72-4.18-34.43-20.64a.58.57-6.4 0 1 .57-.7l79.36-.1a.64.63-1 0 1 .64.61c.29 5.88 2.43 14.04 6.89 17.91q2.54 2.21 2.56 2.26"/><path fill="#fee11b" d="M698 204.29q-24.27.59-52.97.45-3.98-.02-7.75-2.79-8.94-6.55-8.31-18.06a.3.3 0 0 1 .3-.28h52.13a1.1 1.1 0 0 1 .97.55q6.23 10.54 15.87 19.5a.36.36 0 0 1-.24.63m160.75-.04a.36.36 0 0 1-.24-.63q9.6-8.93 15.8-19.43a1.1 1.1 0 0 1 .97-.55h51.92a.3.3 0 0 1 .3.28q.63 11.46-8.27 17.99-3.76 2.76-7.72 2.78-28.59.14-52.76-.44"/><path fill="#fee11b" d="M921.97 204.4q.02-.05 2.56-2.26c4.45-3.88 6.58-12.03 6.86-17.9a.64.63.9 0 1 .64-.61h79.28a.58.57 6.3 0 1 .57.7c-3.69 16.45-19.76 20.65-34.37 20.66q-28.79.01-48.51-.27-3.82-.05-6.64.25a.39.39 0 0 1-.39-.57"/><path fill="#039c50" d="M802.16 207.39a.2.2 0 0 1-.21-.23l.01-.12a9.36 1.8-86.8 0 1 2.32-9.24h.04a9.36 1.8-86.8 0 1 1.28 9.44l-.01.12a.2.2 0 0 1-.23.21z"/><path fill="#fee11b" d="M739.52 228.13a.44.43-83.8 0 1-.44.36c-10.52-.1-22.47.67-33.46.44q-6.46-.14-24.5.24-5.33.11-7.86-.89c-8.23-3.25-12.92-9.95-11.84-19.17a.64.64 0 0 1 .62-.56l40.48-.68a1.47 1.44 64 0 1 .96.34q13.66 11.45 31.04 18 1.67.63 4.39 1.28.21.05.41.22.23.19.2.42m76.54.01a.4.4 0 0 1 .29-.45c13.35-3.47 25.67-10.92 36.86-19.35a2.71 2.68 26.6 0 1 1.65-.54l40.35.78a.34.34 0 0 1 .34.33c.62 10.39-5.92 19.39-16.73 19.94-19.6.98-43.93-.6-61.56-.04q-1.07.03-1.2-.67"/><path fill="#fee11b" d="M665.6 228.85q-2.1-.05-4.35 0-20.67.41-42.21-.45c-12.31-.48-24.28-6.3-27.38-19.01a.77.77 0 0 1 .75-.95h64.76a.3.3 88.9 0 1 .28.28c.08 7.16 2.23 14.89 8.37 19.47a.37.36 63.6 0 1-.22.66m225.73-.18a.36.36 0 0 1-.21-.65c6.11-4.55 8.27-12.23 8.37-19.36a.3.3-88.8 0 1 .28-.27l64.43.15a.77.77 0 0 1 .74.95c-3.11 12.63-15.03 18.4-27.28 18.84q-21.43.81-42 .35-2.24-.05-4.33-.01m-146.95 3.22a.54.54 0 0 1 .55.54v21.95a.42.41-88.7 0 1-.43.42q-13.44-.71-22.72-1c-4.64-.14-8.62-1.06-12.06-.91-5.77.25-8.79-1.48-11.08-6.72q-2.61-5.96.6-12.41a2.04 2.03-77.3 0 1 1.79-1.14z"/><path fill="#fee11b" d="M697.91 252.1a.32.31-18.8 0 1-.25.5q-12.21.23-22.58.16c-11.58-.07-20.19-.45-27.78-6.58q-6.12-4.94-7.78-12.84a.7.7 0 0 1 .69-.86h54.71a.46.45-80.7 0 1 .43.6q-3.48 10.79 2.56 19.02m101.07 5.82a.4.4-3.2 0 1-.45-.4v-24.7a.36.36 0 0 1 .36-.36h57.33a.84.81-15.7 0 1 .7.38c3.74 5.79 1.87 13.61-1.91 19.05a1.68 1.6-82.4 0 1-.72.58q-2.06.88-4.54 1.03-27.02 1.74-50.77 4.42m59.8-5.76q6.03-8.26 2.52-19.05a.46.45 80.6 0 1 .43-.61l54.79-.13a.7.7 0 0 1 .69.86q-1.64 7.92-7.76 12.88c-7.59 6.16-16.21 6.56-27.81 6.66q-10.38.09-22.61-.11a.32.31 18.7 0 1-.25-.5"/><path fill="#039c50" d="M806.75 261.34c-.53 5.56.04 13.73-1.2 20.63q-1.38 7.65-1.76 9.36a.44.44 0 0 1-.86.01q-3.66-14.54-3.45-29.36a.53.53 0 0 1 .49-.52l6.33-.57a.4.4 0 0 1 .45.45M1537 565.55V1023H39.25q-1.06-.17-.81-.64 25.89-48.28 48.97-90.18c78.87-143.12 108.53-197.11 169.52-306.74q7.61-13.69 32.73-59.4a1 1 0 0 1 .83-.49zM841.54 772.99v-74.04a.68.67 89.6 0 1 .66-.68l9.86-.16a.78.78 0 0 0 .75-.94q-.33-1.51-1.12-2.36-37.35-40.28-76.24-81.67a.74.73 44.7 0 0-1.07 0q-3.2 3.45-6.76 7.22-30.84 32.63-70.29 74.22-.97 1.02-1.32 2.35a.98.98 0 0 0 .95 1.23h11.76a.75.74 0 0 1 .75.74v74.04a.55.55 0 0 1-.7.53l-10.99-3.1a1.05 1.05 0 0 0-1.34 1.01v113.14a1.27 1.26-82.1 0 0 .92 1.22l11.33 3.19a.79.78-82.5 0 1 .56.74l.36 21.64a.2.2 0 0 0 .22.21h45.6a.4.4 0 0 0 .41-.4q.28-43.39.1-73.35c-.07-10.83.44-18.48 8.76-25.63q3.91-3.37 10.33-3.85c10.21-.77 17.14 7.15 19.47 16.36q.64 2.52.63 14.25-.03 64.24-.01 72.02a.64.64 0 0 0 .64.64h45.08a.67.67 0 0 0 .67-.67v-20.31a1.71 1.7 81.5 0 1 1.2-1.63l11.03-3.39a1.2 1.2 0 0 0 .85-1.16v-113a.87.86 82.8 0 0-1.08-.84l-11.29 2.96a.55.54 82.7 0 1-.68-.53m-300.95-63.77c-.34-7.6-.72-11.56-.54-17.3q.29-9.16-.17-18.79a1.36 1.36 0 0 1 1.36-1.43h6.42a.6.59-20 0 0 .46-.98l-41.84-49.27a.55.54-44.7 0 0-.83 0l-41.95 49.11a.78.78 0 0 0 .59 1.29h7.04a.74.73 0 0 1 .74.73v158.86a.66.65-90 0 0 .65.66h66.77a.63.63 0 0 0 .63-.62l.17-8.8a.39.39 0 0 1 .75-.16q.47.99 2.62 1.74 6.19 2.18 12.08 3.34a.54.54 0 0 0 .64-.49c.69-11.38.28-21.17.3-32.45q.07-27.87.04-63.16-.02-12.67-.23-18.17a1.2 1.2 0 0 0-.88-1.12l-13.57-3.83a.3.3 0 0 0-.18 0q-.84.24-1.03.84-.04.14-.04 0m471.62 113.18v9.38a.4.4 0 0 0 .41.4h67.79a.2.2 0 0 0 .21-.2V672.76a.8.8 0 0 1 .79-.79h6.66a.86.85 69.5 0 0 .64-1.42l-41.76-48.42a1.08 1.07-45.2 0 0-1.62.01l-41.28 48.33a.72.72 0 0 0 .55 1.19h6.32a1.57 1.56-89.3 0 1 1.56 1.61q-.51 17.67-.06 35.44a.7.7 0 0 1-1.31.36q-.38-.7-1.36-.4-8.22 2.54-13.31 3.55a.92.91 84.7 0 0-.74.9v113.64a.79.78-6.7 0 0 .97.76q6.93-1.68 13.75-3.89c.71-.23.97-.97 1.27-1.4a.29.29 0 0 1 .52.17m-437.34 12.86a1.13 1.13 0 0 0 1.44-1.08V720.5a1.1 1.1 0 0 0-.91-1.11l-13.58-2.73a1.13 1.13 0 0 0-1.35 1.11v112.57a1.1 1.1 0 0 0 .82 1.09zm416.2-3.8a1.2 1.2 0 0 0 .83-1.13V717.85a1.18 1.18 0 0 0-1.43-1.15l-13.25 2.86a1.2 1.2 0 0 0-.93 1.15v113.7a1.18 1.18 0 0 0 1.53 1.13zm-396.73 11.52a1.1 1.1 0 0 0 1.39-1.05V728.69a1.1 1.1 0 0 0-.79-1.04l-13.46-3.81a1.1 1.1 0 0 0-1.39 1.05v113.24a1.1 1.1 0 0 0 .79 1.05zM957.2 727.83a.84.84 0 0 0-.63.81v113.38a.84.84 0 0 0 1.05.81l13.88-3.64a.84.84 0 0 0 .63-.81V725a.84.84 0 0 0-1.05-.81zm-356.53 3.87a1.06 1.06 0 0 0-1.35 1.02V846.1a1.1 1.1 0 0 0 .77 1.02l13.48 3.8a1.06 1.06 0 0 0 1.35-1.02V736.52a1.1 1.1 0 0 0-.77-1.02zm337.26 4.19a1.2 1.2 0 0 0-.84 1.14v112.71a1.2 1.2 0 0 0 1.54 1.14l13.08-4.03a1.2 1.2 0 0 0 .84-1.14V733a1.2 1.2 0 0 0-1.54-1.14zM633.2 858.82a1.06 1.06 0 0 0 1.35-1.02V744.23a1.1 1.1 0 0 0-.77-1.02l-13.72-3.87a1.06 1.06 0 0 0-1.35 1.02v113.56a1.1 1.1 0 0 0 .77 1.02zm285.13-115.6a.9.9 0 0 0-.69.9v114a.93.93 0 0 0 1.2.89l13.88-4.28a.9.9 0 0 0 .66-.89V740.48a.93.93 0 0 0-1.17-.89zM652.41 866.81a.86.86 0 0 0 1.09-.83V751.52a.86.86 0 0 0-.69-.84l-13.95-2.79a.86.86 0 0 0-1.03.84v113.32a.9.9 0 0 0 .63.83zm245.77-115.79a.5.5 0 0 0-.4.5V866.5a.5.5 0 0 0 .66.49l14.53-4.48a.5.5 0 0 0 .36-.49V748.39a.5.5 0 0 0-.62-.5zm-5 119.24a.9.9 0 0 0 .64-.87V755.94a.9.9 0 0 0-1.14-.88l-13.79 3.61a.9.9 0 0 0-.68.88v114.09a.9.9 0 0 0 1.18.87zm-234.8-114.98a.73.73 0 0 0-.87.71v113.95a.7.7 0 0 0 .53.7l14.29 4.04a.73.73 0 0 0 .93-.7V758.86a.7.7 0 0 0-.59-.72zm33.56 125.99q.51-1.61.52-5 .29-66.33.04-96.58-.09-11.15-.08-12.47a.91.9-81.9 0 0-.65-.87l-13.27-3.74a1.17 1.17 0 0 0-1.49 1.13q-.21 54.6-.04 94.28.05 11.5-.5 19.17a.9.9 0 0 0 .67.95l13.53 3.82a1.05 1.04-73.2 0 0 1.27-.69m167.55-114.89a1.15 1.15 0 0 0-.86 1.12v113.45a1.15 1.15 0 0 0 1.49 1.1l13.18-4.06a1.15 1.15 0 0 0 .81-1.1V764.04a1.15 1.15 0 0 0-1.44-1.11z"/><path d="M841.54 772.99a.55.54 82.7 0 0 .68.53l11.29-2.96a.87.86 82.8 0 1 1.08.84v113a1.2 1.2 0 0 1-.85 1.16l-11.03 3.39a1.71 1.7 81.5 0 0-1.2 1.63v20.31a.67.67 0 0 1-.67.67h-45.08a.64.64 0 0 1-.64-.64q-.02-7.78.01-72.02.01-11.73-.63-14.25c-2.33-9.21-9.26-17.13-19.47-16.36q-6.42.48-10.33 3.85c-8.32 7.15-8.83 14.8-8.76 25.63q.18 29.96-.1 73.35a.4.4 0 0 1-.41.4h-45.6a.2.2 0 0 1-.22-.21l-.36-21.64a.79.78-82.5 0 0-.56-.74l-11.33-3.19a1.27 1.26-82.1 0 1-.92-1.22V771.38a1.05 1.05 0 0 1 1.34-1.01l10.99 3.1a.55.55 0 0 0 .7-.53V698.9a.75.74 0 0 0-.75-.74h-11.76a.98.98 0 0 1-.95-1.23q.35-1.33 1.32-2.35 39.45-41.59 70.29-74.22 3.56-3.77 6.76-7.22a.74.73 44.7 0 1 1.07 0q38.89 41.39 76.24 81.67.79.85 1.12 2.36a.78.78 0 0 1-.75.94l-9.86.16a.68.67 89.6 0 0-.66.68zm-139.08-78.87a.33.33 0 0 0 .24.55l143.77.26a.33.33 0 0 0 .24-.56l-71.75-76.77a.33.33 0 0 0-.48 0zm50.21 213.81q.07-18.7-.06-71.35-.01-7.19.65-11.06c1.55-9.08 7.42-17.31 16.02-19.74 12.62-3.57 23.91 3.3 27.89 15.05q1.52 4.5 1.49 13.38-.11 30.52-.1 73.3a.8.8 0 0 0 .78.78h38.33a.64.64 0 0 0 .64-.64V699.58a.96.96 0 0 0-.96-.96H713.49a.83.83 0 0 0-.83.83v208.33a.56.56 0 0 0 .56.56h39.05a.4.4-90 0 0 .4-.41m88.69-131.54a.3.3 0 0 0-.22.3v110.23a.3.3 0 0 0 .4.3l10.75-3.31a.3.3 0 0 0 .22-.3V773.38a.3.3 0 0 0-.4-.3zm-142.31-3.3a.38.38 0 0 0-.48.36v110.1a.4.4 0 0 0 .28.37l10.36 2.92a.38.38 0 0 0 .48-.36v-110.1a.4.4 0 0 0-.28-.37z"/><path fill="#fee11b" d="m702.46 694.12 72.02-76.52a.33.33 0 0 1 .48 0l71.75 76.77a.33.33 0 0 1-.24.56l-143.77-.26a.33.33 0 0 1-.24-.55"/><path d="M540.63 709.22q.19-.6 1.03-.84a.3.3 0 0 1 .18 0l13.57 3.83a1.2 1.2 0 0 1 .88 1.12q.21 5.5.23 18.17.03 35.29-.04 63.16c-.02 11.28.39 21.07-.3 32.45a.54.54 0 0 1-.64.49q-5.89-1.16-12.08-3.34-2.15-.75-2.62-1.74a.39.39 0 0 0-.75.16l-.17 8.8a.63.63 0 0 1-.63.62h-66.77a.66.65-90 0 1-.65-.66V672.58a.74.73 0 0 0-.74-.73h-7.04a.78.78 0 0 1-.59-1.29l41.95-49.11a.55.54-44.7 0 1 .83 0l41.84 49.27a.6.59-20 0 1-.46.98h-6.42a1.36 1.36 0 0 0-1.36 1.43q.46 9.63.17 18.79c-.18 5.74.2 9.7.54 17.3q0 .14.04 0m-70.3-41.52a.54.54 0 0 0 .41.89h70.18a.54.54 0 0 0 .41-.89l-35.09-40.91a.54.54 0 0 0-.82 0zm66.1 7.29a.37.37 0 0 0-.37-.37h-60.48a.37.37 0 0 0-.37.37v153.52a.37.37 0 0 0 .37.37h60.48a.37.37 0 0 0 .37-.37zm17.24 149.72a.53.53 0 0 0 .67-.51V714.52a.5.5 0 0 0-.39-.51l-10.1-2.85a.53.53 0 0 0-.67.51v109.69a.5.5 0 0 0 .39.51zm458.02-2.48c-.3.43-.56 1.17-1.27 1.4q-6.82 2.21-13.75 3.89a.79.78-6.7 0 1-.97-.76V713.12a.92.91 84.7 0 1 .74-.9q5.09-1.01 13.31-3.55.98-.3 1.36.4a.7.7 0 0 0 1.31-.36q-.45-17.77.06-35.44a1.57 1.56-89.3 0 0-1.56-1.61h-6.32a.72.72 0 0 1-.55-1.19l41.28-48.33a1.08 1.07-45.2 0 1 1.62-.01l41.76 48.42a.86.85 69.5 0 1-.64 1.42h-6.66a.8.8 0 0 0-.79.79v159.22a.2.2 0 0 1-.21.2h-67.79a.4.4 0 0 1-.41-.4v-9.38a.29.29 0 0 0-.52-.17m-1.08-154.2a.37.37 0 0 0 .28.61l70.77-.13a.37.37 0 0 0 .28-.61l-35.46-41.23a.37.37 0 0 0-.56.01zm66.49 7.19a.5.5 0 0 0-.49-.49h-60.36a.5.5 0 0 0-.49.49v153.2a.5.5 0 0 0 .49.49h60.36a.5.5 0 0 0 .49-.49zm-78.96 38.98a.5.5 0 0 0-.33.45v109.82a.47.47 0 0 0 .61.45l10.52-3.24a.5.5 0 0 0 .33-.45V711.42a.47.47 0 0 0-.61-.45z"/><path fill="#fee11b" d="m470.33 667.7 35.09-40.91a.54.54 0 0 1 .82 0l35.09 40.91a.54.54 0 0 1-.41.89h-70.18a.54.54 0 0 1-.41-.89m540.28.33 35.31-41.35a.37.37 0 0 1 .56-.01l35.46 41.23a.37.37 0 0 1-.28.61l-70.77.13a.37.37 0 0 1-.28-.61"/><path fill="#fee11b" d="M536.43 828.51a.37.37 0 0 1-.37.37h-60.48a.37.37 0 0 1-.37-.37V674.99a.37.37 0 0 1 .37-.37h60.48a.37.37 0 0 1 .37.37zm-44.6-91.59 29.18.1a1.2 1.2 0 0 0 1.22-1.21l.07-20.23a32.93 15.7-89.8 0 0-15.59-32.99h-.22a32.93 15.7-89.8 0 0-15.81 32.87l-.07 20.23a1.2 1.2 0 0 0 1.22 1.23m585.27 91.5a.5.5 0 0 1-.49.49h-60.36a.5.5 0 0 1-.49-.49v-153.2a.5.5 0 0 1 .49-.49h60.36a.5.5 0 0 1 .49.49zm-45.74-91.38 30.42.06a.7.7 0 0 0 .71-.71l.04-20.39a33.28 15.83-89.9 0 0-15.77-33.31h-.18a33.28 15.83-89.9 0 0-15.89 33.25l-.04 20.39a.7.7 0 0 0 .71.71"/><path d="M491.83 736.92a1.2 1.2 0 0 1-1.22-1.23l.07-20.23a32.93 15.7-89.8 0 1 15.81-32.87h.22a32.93 15.7-89.8 0 1 15.59 32.99l-.07 20.23a1.2 1.2 0 0 1-1.22 1.21zm3.17-3.23h22.92a.8.8 0 0 0 .82-.82v-17.84a28.76 12.28 90 0 0-12.28-28.76 28.76 12.28 90 0 0-12.28 28.76v17.84a.8.8 0 0 0 .82.82m536.36 3.35a.7.7 0 0 1-.71-.71l.04-20.39a33.28 15.83-89.9 0 1 15.89-33.25h.18a33.28 15.83-89.9 0 1 15.77 33.31l-.04 20.39a.7.7 0 0 1-.71.71zm3.58-3.37 23.18.12a.7.7 0 0 0 .69-.69l.09-17.18a29.43 12.28-89.7 0 0-12.13-29.49 29.43 12.28-89.7 0 0-12.43 29.37l-.09 17.18a.7.7 0 0 0 .69.69"/><path fill="#039c50" d="M495 733.69a.8.8 0 0 1-.82-.82v-17.84a28.76 12.28 90 0 1 12.28-28.76 28.76 12.28-90 0 1 12.28 28.76v17.84a.8.8 0 0 1-.82.82zm539.94-.02a.7.7 0 0 1-.69-.69l.09-17.18a29.43 12.28-89.7 0 1 12.43-29.37 29.43 12.28-89.7 0 1 12.13 29.49l-.09 17.18a.7.7 0 0 1-.69.69z"/><path fill="#fee11b" d="M752.67 907.93a.4.4-90 0 1-.4.41h-39.05a.56.56 0 0 1-.56-.56V699.45a.83.83 0 0 1 .83-.83h123.86a.96.96 0 0 1 .96.96v208.07a.64.64 0 0 1-.64.64h-38.33a.8.8 0 0 1-.78-.78q-.01-42.78.1-73.3.03-8.88-1.49-13.38c-3.98-11.75-15.27-18.62-27.89-15.05-8.6 2.43-14.47 10.66-16.02 19.74q-.66 3.87-.65 11.06.13 52.65.06 71.35m5.42-125.49h36.9a.56.56 0 0 0 .56-.56V753.6a42.46 19 90 0 0-19-42.46h-.02a42.46 19-90 0 0-19 42.46v28.28a.56.56 0 0 0 .56.56"/><path d="M758.09 782.44a.56.56 0 0 1-.56-.56V753.6a42.46 19 90 0 1 19-42.46h.02a42.46 19 90 0 1 19 42.46v28.28a.56.56 0 0 1-.56.56zm4.27-3.41 28.18.1a1.36 1.36 0 0 0 1.36-1.36l.08-23.5a39.42 15.39-89.8 0 0-15.25-39.47h-.12a39.42 15.39-89.8 0 0-15.53 39.37l-.08 23.5a1.36 1.36 0 0 0 1.36 1.36"/><path fill="#fee11b" d="m553.67 824.71-10.1-2.84a.5.5 0 0 1-.39-.51V711.67a.53.53 0 0 1 .67-.51l10.1 2.85a.5.5 0 0 1 .39.51V824.2a.53.53 0 0 1-.67.51M998.14 714.2l10.52-3.23a.47.47 0 0 1 .61.45v109.81a.5.5 0 0 1-.33.45l-10.52 3.24a.47.47 0 0 1-.61-.45V714.65a.5.5 0 0 1 .33-.45"/><path fill="#039c50" d="M762.36 779.03a1.36 1.36 0 0 1-1.36-1.36l.08-23.5a39.42 15.39-89.8 0 1 15.53-39.37h.12a39.42 15.39-89.8 0 1 15.25 39.47l-.08 23.5a1.36 1.36 0 0 1-1.36 1.36z"/><path d="m574.87 835.26-13.58-3.83a1.1 1.1 0 0 1-.82-1.09V717.77a1.13 1.13 0 0 1 1.35-1.11l13.58 2.73a1.1 1.1 0 0 1 .91 1.11v113.68a1.13 1.13 0 0 1-1.44 1.08m-11.58-116.52a.54.54 0 0 0-.69.52v110.02a.54.54 0 0 0 .39.52l10.57 2.98a.54.54 0 0 0 .69-.52V722.25a.54.54 0 0 0-.39-.52zm427.78 112.72-13.25 4.08a1.18 1.18 0 0 1-1.53-1.13v-113.7a1.2 1.2 0 0 1 .93-1.15l13.25-2.86a1.18 1.18 0 0 1 1.43 1.15v112.48a1.2 1.2 0 0 1-.83 1.13m-1.48-1.78a.3.3 0 0 0 .22-.3V719.09a.3.3 0 0 0-.4-.3l-10.73 3.3a.3.3 0 0 0-.22.3v110.29a.3.3 0 0 0 .4.3z"/><path fill="#fee11b" d="m563.29 718.74 10.57 2.99a.54.54 0 0 1 .39.52v110.01a.54.54 0 0 1-.69.52l-10.57-2.98a.54.54 0 0 1-.39-.52V719.26a.54.54 0 0 1 .69-.52m426.3 110.94-10.73 3.3a.3.3 0 0 1-.4-.3V722.39a.3.3 0 0 1 .22-.3l10.73-3.3a.3.3 0 0 1 .4.3v110.29a.3.3 0 0 1-.22.3"/><path d="m594.34 842.98-13.46-3.8a1.1 1.1 0 0 1-.79-1.05V724.89a1.1 1.1 0 0 1 1.39-1.05l13.46 3.81a1.1 1.1 0 0 1 .79 1.04v113.24a1.1 1.1 0 0 1-1.39 1.05m-11.6-116.26a.37.37 0 0 0-.44.36v109.88a.4.4 0 0 0 .27.36l10.52 2.96a.37.37 0 0 0 .47-.36V729.19a.4.4 0 0 0-.3-.36zm374.46 1.11 13.88-3.64a.84.84 0 0 1 1.05.81v113.38a.84.84 0 0 1-.63.81l-13.88 3.64a.84.84 0 0 1-1.05-.81V728.64a.84.84 0 0 1 .63-.81m12.48 109.41a.34.34 0 0 0 .24-.32V726.76a.34.34 0 0 0-.44-.32l-10.51 3.24a.34.34 0 0 0-.24.32v110.16a.34.34 0 0 0 .44.32z"/><path fill="#fee11b" d="m582.74 726.72 10.52 2.11a.4.4 0 0 1 .3.36v110.73a.37.37 0 0 1-.47.36l-10.52-2.96a.4.4 0 0 1-.27-.36V727.08a.37.37 0 0 1 .44-.36m386.94 110.52-10.51 3.24a.34.34 0 0 1-.44-.32V730a.34.34 0 0 1 .24-.32l10.51-3.24a.34.34 0 0 1 .44.32v110.16a.34.34 0 0 1-.24.32"/><path d="m600.67 731.7 13.48 3.8a1.1 1.1 0 0 1 .77 1.02V849.9a1.06 1.06 0 0 1-1.35 1.02l-13.48-3.8a1.1 1.1 0 0 1-.77-1.02V732.72a1.06 1.06 0 0 1 1.35-1.02m1.1 3.02a.3.3 0 0 0-.36.3v110.03a.3.3 0 0 0 .22.29l10.71 3.03a.3.3 0 0 0 .38-.29V737.17a.3.3 0 0 0-.24-.3zm336.16 1.17 13.08-4.03a1.2 1.2 0 0 1 1.54 1.14v112.71a1.2 1.2 0 0 1-.84 1.14l-13.08 4.03a1.2 1.2 0 0 1-1.54-1.14V737.03a1.2 1.2 0 0 1 .84-1.14m1.49 1.88a.4.4 0 0 0-.28.37V848a.4.4 0 0 0 .5.37l10.61-3.27a.4.4 0 0 0 .28-.37V734.87a.4.4 0 0 0-.5-.37z"/><path fill="#fee11b" d="m601.77 734.72 10.71 2.15a.3.3 0 0 1 .24.3v110.91a.3.3 0 0 1-.38.29l-10.71-3.03a.3.3 0 0 1-.22-.29V735.02a.3.3 0 0 1 .36-.3m337.65 3.05 10.61-3.27a.4.4 0 0 1 .5.37v109.86a.4.4 0 0 1-.28.37l-10.61 3.27a.4.4 0 0 1-.5-.37V738.14a.4.4 0 0 1 .28-.37"/><path d="m633.2 858.82-13.72-3.88a1.1 1.1 0 0 1-.77-1.02V740.36a1.06 1.06 0 0 1 1.35-1.02l13.72 3.87a1.1 1.1 0 0 1 .77 1.02V857.8a1.06 1.06 0 0 1-1.35 1.02m-1.62-2.79a.55.55 0 0 0 .7-.53V745.3a.55.55 0 0 0-.4-.53l-10.33-2.92a.55.55 0 0 0-.7.53v110.2a.55.55 0 0 0 .4.53zm286.75-112.81 13.88-3.63a.93.93 0 0 1 1.17.89v113.36a.9.9 0 0 1-.66.89l-13.88 4.28a.93.93 0 0 1-1.2-.89v-114a.9.9 0 0 1 .69-.9m1.67 2.05a.5.5 0 0 0-.34.45v110.09a.48.48 0 0 0 .62.46l10.61-3.27a.5.5 0 0 0 .34-.45V742.46a.48.48 0 0 0-.62-.46z"/><path fill="#fee11b" d="m631.58 856.03-10.33-2.92a.55.55 0 0 1-.4-.53v-110.2a.55.55 0 0 1 .7-.53l10.33 2.92a.55.55 0 0 1 .4.53v110.2a.55.55 0 0 1-.7.53M920 745.27l10.61-3.27a.48.48 0 0 1 .62.46v110.09a.5.5 0 0 1-.34.45l-10.61 3.27a.48.48 0 0 1-.62-.46V745.72a.5.5 0 0 1 .34-.45"/><path d="m652.41 866.81-13.95-3.93a.9.9 0 0 1-.63-.83V748.73a.86.86 0 0 1 1.03-.84l13.95 2.79a.86.86 0 0 1 .69.84v114.46a.86.86 0 0 1-1.09.83m-11.68-116.53a.64.64 0 0 0-.77.63V860.7a.64.64 0 0 0 .47.61l10.04 2.83a.64.64 0 0 0 .81-.62v-110.6a.64.64 0 0 0-.51-.62zm257.45.74 14.53-3.13a.5.5 0 0 1 .62.5v113.63a.5.5 0 0 1-.36.49l-14.53 4.48a.5.5 0 0 1-.66-.49V751.52a.5.5 0 0 1 .4-.5m13 109.96a.4.4 0 0 0 .26-.35V750.22a.37.37 0 0 0-.48-.35l-10.9 3.36a.4.4 0 0 0-.26.35v110.4a.37.37 0 0 0 .48.35z"/><path fill="#fee11b" d="m911.18 860.98-10.9 3.35a.37.37 0 0 1-.48-.35v-110.4a.4.4 0 0 1 .26-.35l10.9-3.36a.37.37 0 0 1 .48.35v110.41a.4.4 0 0 1-.26.35m-270.45-110.7 10.04 2.02a.64.64 0 0 1 .51.62v110.6a.64.64 0 0 1-.81.62l-10.04-2.83a.64.64 0 0 1-.47-.61V750.91a.64.64 0 0 1 .77-.63"/><path d="m893.18 870.26-13.79 4.25a.9.9 0 0 1-1.18-.87V759.55a.9.9 0 0 1 .68-.88l13.79-3.61a.9.9 0 0 1 1.14.88v113.45a.9.9 0 0 1-.64.87m-1.88-1.61a.5.5 0 0 0 .33-.45V757.84a.47.47 0 0 0-.61-.45l-10.44 3.22a.5.5 0 0 0-.33.45v110.36a.47.47 0 0 0 .61.45zM658.38 755.28l14.29 2.86a.7.7 0 0 1 .59.72v115.12a.73.73 0 0 1-.93.7l-14.29-4.04a.7.7 0 0 1-.53-.7V755.99a.73.73 0 0 1 .87-.71m12.3 116.68a.5.5 0 0 0 .62-.47V760.97a.5.5 0 0 0-.36-.47l-10.71-3.02a.5.5 0 0 0-.62.47v110.52a.5.5 0 0 0 .36.47z"/><path fill="#fee11b" d="m891.3 868.65-10.44 3.22a.47.47 0 0 1-.61-.45V761.06a.5.5 0 0 1 .33-.45l10.44-3.22a.47.47 0 0 1 .61.45V868.2a.5.5 0 0 1-.33.45m-220.62 3.31-10.71-3.02a.5.5 0 0 1-.36-.47V757.95a.5.5 0 0 1 .62-.47l10.71 3.02a.5.5 0 0 1 .36.47v110.52a.5.5 0 0 1-.62.47"/><path d="M691.94 881.27a1.05 1.04-73.2 0 1-1.27.69l-13.53-3.82a.9.9 0 0 1-.67-.95q.55-7.67.5-19.17-.17-39.68.04-94.28a1.17 1.17 0 0 1 1.49-1.13l13.27 3.74a.91.9-81.9 0 1 .65.87q-.01 1.32.08 12.47.25 30.25-.04 96.58-.01 3.39-.52 5m-12.23-115.85a.54.54 0 0 0-.65.53v110.03a.54.54 0 0 0 .39.52l10.26 2.9a.54.54 0 0 0 .69-.52V768a.54.54 0 0 0-.43-.53zm179.78.96 13.18-3.45a1.15 1.15 0 0 1 1.44 1.11v112.85a1.15 1.15 0 0 1-.81 1.1l-13.18 4.06a1.15 1.15 0 0 1-1.49-1.1V767.5a1.15 1.15 0 0 1 .86-1.12m12.28 109.85a.4.4 0 0 0 .27-.36V765.3a.38.38 0 0 0-.49-.36l-10.59 3.27a.4.4 0 0 0-.27.36v110.56a.38.38 0 0 0 .49.36z"/><path fill="#fee11b" d="m871.77 876.23-10.59 3.26a.38.38 0 0 1-.49-.36V768.57a.4.4 0 0 1 .27-.36l10.59-3.27a.38.38 0 0 1 .49.36v110.57a.4.4 0 0 1-.27.36M679.71 765.42l10.26 2.05a.54.54 0 0 1 .43.53v110.88a.54.54 0 0 1-.69.52l-10.26-2.9a.54.54 0 0 1-.39-.52V765.95a.54.54 0 0 1 .65-.53m161.65 10.97 10.75-3.31a.3.3 0 0 1 .4.3v110.23a.3.3 0 0 1-.22.3l-10.75 3.31a.3.3 0 0 1-.4-.3V776.69a.3.3 0 0 1 .22-.3m-142.31-3.3 10.36 2.92a.4.4 0 0 1 .28.37v110.1a.38.38 0 0 1-.48.36l-10.36-2.92a.4.4 0 0 1-.28-.37v-110.1a.38.38 0 0 1 .48-.36"/></svg>