<?xml version="1.0" encoding="UTF-8" standalone="no"?>
<!DOCTYPE svg PUBLIC "-//W3C//DTD SVG 1.1//EN" "http://www.w3.org/Graphics/SVG/1.1/DTD/svg11.dtd">
<svg xmlns="http://www.w3.org/2000/svg" version="1.1" viewBox="0.00 0.00 1537.00 1023.00">
<g stroke-width="2.00" fill="none" stroke-linecap="butt">
<path stroke="#81cea8" vector-effect="non-scaling-stroke" d="
  M 39.50 0.00
  L 39.07 0.25
  A 0.10 0.09 -32.8 0 0 39.04 0.37
  L 289.72 445.19
  A 0.75 0.74 -14.3 0 0 290.37 445.57
  L 1537.00 445.57"
/>
<path stroke="#81cea8" vector-effect="non-scaling-stroke" d="
  M 1537.00 565.55
  L 290.49 565.55
  A 0.95 0.95 0.0 0 0 289.66 566.04
  Q 264.54 611.75 256.93 625.44
  C 195.94 735.07 166.28 789.06 87.41 932.18
  Q 64.33 974.08 38.44 1022.36
  Q 38.19 1022.83 39.25 1023.00"
/>
<path stroke="#81cea8" vector-effect="non-scaling-stroke" d="
  M 0.00 857.77
  Q 11.44 838.57 22.49 819.33
  Q 42.84 783.89 44.68 780.73
  C 82.04 716.44 117.95 654.73 162.09 577.82
  Q 172.15 560.29 175.05 552.41
  C 184.87 525.71 185.29 496.91 175.38 470.15
  Q 173.20 464.28 167.70 454.56
  Q 155.02 432.11 111.26 353.41
  Q 55.32 252.79 0.58 154.16
  Q 0.45 153.93 0.00 154.54"
/>
<path stroke="#81bf36" vector-effect="non-scaling-stroke" d="
  M 800.60 148.30
  L 799.75 146.03"
/>
<path stroke="#024e28" vector-effect="non-scaling-stroke" d="
  M 799.75 146.03
  Q 798.79 136.06 790.34 130.92
  C 788.13 129.58 786.67 130.01 784.43 130.81
  A 1.31 1.30 -42.3 0 1 783.47 130.77
  Q 783.46 130.77 781.69 129.31
  C 776.36 124.92 767.50 129.96 763.89 134.33
  Q 756.00 143.87 752.46 157.46
  Q 750.03 166.74 748.94 172.69
  Q 747.16 182.41 745.91 201.48
  Q 745.75 203.90 745.39 205.56
  A 0.58 0.58 0.0 0 1 744.66 206.00
  C 737.60 203.96 732.46 200.94 725.59 196.75
  C 718.61 192.49 712.92 186.31 708.68 180.12
  Q 705.36 175.27 703.28 168.39
  Q 699.55 156.05 698.92 144.27
  Q 698.91 144.03 698.06 124.58
  Q 697.29 106.85 680.61 102.05
  Q 672.63 99.75 668.51 99.74
  Q 570.22 99.44 465.04 99.60
  A 0.50 0.50 0.0 0 0 464.54 100.15
  C 465.52 110.85 470.44 120.32 481.07 124.21
  A 1.11 1.09 5.4 0 1 481.77 125.04
  Q 482.40 128.35 482.79 130.71
  Q 485.80 148.68 503.64 153.17
  A 1.35 1.35 0.0 0 1 504.67 154.52
  C 504.46 161.87 507.53 167.43 512.39 172.77
  Q 516.56 177.37 520.88 179.10
  Q 530.07 182.80 539.66 183.53
  A 0.85 0.84 -5.5 0 1 540.40 184.13
  C 543.10 193.54 549.06 201.92 558.69 205.29
  Q 567.07 208.22 577.52 208.55
  Q 584.63 208.78 586.64 208.55
  A 0.78 0.77 -16.3 0 1 587.42 208.97
  C 587.91 209.94 588.05 211.31 588.47 212.31
  C 596.93 232.35 616.72 232.63 634.66 232.15
  A 0.97 0.96 83.1 0 1 635.62 232.91
  C 639.03 248.74 651.87 255.81 667.25 256.29
  Q 677.53 256.62 699.46 256.47
  C 707.61 256.41 713.29 256.80 722.58 257.23
  C 729.12 257.53 736.92 258.49 744.36 258.36
  A 0.69 0.69 0.0 0 1 745.06 259.01
  C 746.79 287.57 747.49 314.96 755.32 341.45
  C 757.20 347.82 762.53 356.74 770.66 355.20
  Q 773.85 354.60 776.23 352.28
  A 0.87 0.86 40.1 0 1 777.33 352.19
  C 786.77 358.67 795.00 349.81 798.25 341.75
  Q 799.88 337.72 800.61 333.41
  A 1.62 1.62 0.0 0 1 802.11 332.06
  C 809.57 331.63 814.57 326.11 816.97 319.71
  C 821.36 308.01 822.54 296.95 824.11 282.91
  Q 825.26 272.60 825.28 259.72
  A 1.12 1.11 89.2 0 1 826.36 258.60
  Q 840.58 258.14 849.46 257.13
  Q 857.35 256.22 863.61 256.38
  Q 876.77 256.72 887.00 256.42
  C 903.01 255.95 917.18 250.57 920.74 233.27
  A 1.23 1.22 -83.0 0 1 921.98 232.29
  C 936.72 232.83 952.03 232.77 962.89 220.89
  Q 967.26 216.12 968.86 209.50
  A 1.45 1.43 -82.9 0 1 970.27 208.39
  C 975.82 208.44 980.46 208.90 985.65 208.09
  Q 988.85 207.59 992.40 206.86
  C 1005.24 204.23 1011.98 196.25 1015.93 184.02
  A 0.72 0.72 0.0 0 1 1016.54 183.52
  Q 1027.72 182.28 1033.86 179.83
  C 1043.02 176.17 1051.80 165.99 1051.77 155.22
  A 2.11 2.10 81.7 0 1 1053.27 153.20
  C 1058.58 151.61 1063.29 149.21 1067.10 145.40
  C 1071.95 140.55 1074.42 132.44 1074.66 125.64
  A 1.78 1.78 0.0 0 1 1075.78 124.05
  C 1086.16 119.92 1090.97 110.90 1091.81 100.21
  A 0.69 0.68 0.3 0 0 1091.08 99.48
  Q 1087.74 99.69 1085.27 99.68
  Q 1004.71 99.42 889.50 99.79
  C 876.77 99.83 863.81 104.13 859.59 117.20
  Q 858.53 120.48 858.30 131.41
  Q 857.94 148.25 855.35 161.62
  C 852.72 175.15 844.98 187.39 833.22 195.30
  Q 828.92 198.20 825.44 200.13
  A 0.80 0.79 -16.4 0 1 824.26 199.49
  C 823.55 188.17 822.17 176.59 818.80 166.23
  Q 818.01 163.81 814.20 157.60
  Q 810.79 152.05 805.01 151.62
  Q 803.11 151.48 802.29 150.71
  Q 801.38 149.85 800.60 148.30"
/>
<path stroke="#7f710e" vector-effect="non-scaling-stroke" d="
  M 799.75 146.03
  Q 798.38 144.05 794.17 138.57
  Q 791.69 135.33 788.36 133.98
  A 0.90 0.88 40.6 0 0 787.61 134.03
  L 784.28 135.91
  A 1.53 1.53 0.0 0 1 782.12 135.16
  L 781.01 132.48
  A 1.36 1.35 4.4 0 0 780.46 131.84
  C 772.38 126.92 762.44 141.14 759.98 146.98
  Q 753.75 161.77 751.79 178.02
  Q 749.30 198.75 749.40 207.16
  C 749.42 209.04 748.75 211.71 748.71 213.50
  Q 747.91 252.79 750.75 292.00
  Q 752.30 313.39 756.63 333.12
  Q 757.92 339.01 760.25 344.31
  C 762.70 349.87 768.96 355.50 774.19 348.81
  A 1.76 1.76 0.0 0 0 774.54 348.00
  L 774.71 346.91
  A 0.89 0.88 -85.4 0 1 775.58 346.16
  L 777.71 346.16
  A 0.86 0.85 78.6 0 1 778.50 346.69
  C 781.08 352.72 788.17 351.21 791.26 346.70
  Q 795.44 340.61 797.40 333.11
  A 0.58 0.58 0.0 0 0 796.78 332.39
  Q 792.78 332.76 787.56 332.38
  C 778.11 331.70 772.01 324.72 769.04 316.19
  Q 765.18 305.16 763.76 291.98
  Q 760.75 264.20 761.00 234.00
  Q 761.05 228.28 762.23 208.37
  Q 762.68 200.73 763.80 192.18
  C 765.12 182.09 765.41 174.99 767.84 166.36
  Q 768.77 163.04 770.95 160.15
  A 1.02 1.01 18.9 0 1 771.78 159.75
  L 772.94 159.77
  A 1.22 1.22 0.0 0 1 773.93 161.67
  Q 771.04 165.96 770.15 171.85
  A 0.26 0.26 0.0 0 0 770.61 172.06
  Q 770.84 171.78 770.86 170.79
  Q 770.88 169.83 771.14 169.20
  C 774.47 161.05 778.35 151.44 788.26 150.93
  Q 792.11 150.73 798.51 151.13
  Q 800.68 151.27 800.60 148.30"
/>
<path stroke="#7f710e" vector-effect="non-scaling-stroke" d="
  M 744.36 225.60
  A 0.40 0.39 8.1 0 0 744.86 225.23
  L 745.14 210.52
  A 0.79 0.78 9.5 0 0 744.59 209.76
  Q 727.03 204.17 713.89 191.88
  C 702.06 180.83 696.98 165.36 695.87 149.72
  C 695.50 144.46 694.74 138.53 694.74 133.08
  Q 694.73 123.19 694.08 120.18
  C 691.41 107.77 679.47 103.34 667.97 103.33
  Q 550.56 103.25 469.66 103.12
  A 0.93 0.93 0.0 0 0 468.75 104.24
  Q 471.78 118.46 486.09 122.40
  Q 493.42 124.42 499.77 124.42
  Q 599.77 124.51 656.57 124.40
  Q 661.65 124.39 662.97 124.95
  C 666.94 126.65 668.93 129.99 669.89 134.34
  C 671.43 141.34 672.97 151.12 675.48 158.99
  Q 678.52 168.51 679.51 170.75
  C 691.53 198.02 715.90 217.87 744.36 225.60"
/>
<path stroke="#7f710e" vector-effect="non-scaling-stroke" d="
  M 1087.28 103.21
  Q 1087.19 103.18 1086.57 103.18
  Q 1020.70 103.12 888.18 103.36
  C 880.47 103.38 871.59 105.73 866.41 111.92
  C 862.34 116.79 861.81 124.74 861.79 130.81
  Q 861.76 141.76 860.30 154.29
  Q 856.43 187.30 827.89 202.59
  Q 815.23 209.37 801.09 211.86
  A 1.30 1.28 -3.2 0 0 800.03 213.03
  L 798.91 228.12
  A 0.56 0.56 0.0 0 0 799.59 228.70
  Q 808.89 226.65 817.33 223.85
  C 845.50 214.49 869.88 193.25 879.30 164.82
  C 881.63 157.79 883.70 151.78 884.76 145.01
  Q 885.11 142.79 886.43 135.74
  C 887.49 130.10 890.36 124.49 896.75 124.48
  Q 925.25 124.40 1052.58 124.47
  C 1058.26 124.48 1065.97 124.14 1070.98 122.50
  Q 1084.69 118.00 1087.75 104.06
  A 0.74 0.73 16.2 0 0 1087.28 103.21"
/>
<path stroke="#7f710e" vector-effect="non-scaling-stroke" d="
  M 486.38 126.19
  A 0.63 0.63 0.0 0 0 485.60 126.85
  C 486.67 139.69 494.32 147.68 506.43 150.60
  Q 511.56 151.84 514.48 151.88
  Q 544.04 152.26 583.03 151.70
  A 0.32 0.32 0.0 0 0 583.22 151.13
  C 576.47 145.93 574.26 136.55 573.96 128.41
  A 0.33 0.32 -0.9 0 0 573.63 128.10
  Q 547.51 128.20 506.85 128.00
  C 499.65 127.96 493.10 127.89 486.38 126.19"
/>
<path stroke="#7f710e" vector-effect="non-scaling-stroke" d="
  M 1070.24 126.28
  C 1063.52 127.97 1056.97 128.02 1049.78 128.05
  Q 1009.13 128.18 983.01 128.03
  A 0.33 0.32 1.0 0 0 982.68 128.34
  C 982.37 136.48 980.14 145.85 973.38 151.04
  A 0.32 0.32 0.0 0 0 973.57 151.61
  Q 1012.55 152.24 1042.11 151.91
  Q 1045.03 151.88 1050.16 150.65
  C 1062.27 147.75 1069.93 139.77 1071.02 126.94
  A 0.63 0.63 0.0 0 0 1070.24 126.28"
/>
<path stroke="#7f710e" vector-effect="non-scaling-stroke" d="
  M 669.49 150.94
  Q 667.51 143.90 666.17 134.25
  Q 665.75 131.23 663.34 129.43
  Q 661.59 128.11 657.99 128.10
  Q 627.75 128.06 578.20 128.09
  A 0.32 0.32 0.0 0 0 577.87 128.39
  Q 577.58 135.02 580.05 141.03
  C 582.31 146.50 588.14 152.02 594.57 151.97
  Q 635.81 151.68 669.31 151.18
  A 0.19 0.19 0.0 0 0 669.49 150.94"
/>
<path stroke="#7f710e" vector-effect="non-scaling-stroke" d="
  M 887.13 151.01
  A 0.19 0.19 0.0 0 0 887.31 151.25
  Q 920.80 151.71 962.02 151.95
  C 968.45 151.99 974.27 146.47 976.52 141.00
  Q 978.99 134.99 978.69 128.36
  A 0.32 0.32 0.0 0 0 978.36 128.06
  Q 928.82 128.09 898.60 128.17
  Q 895.00 128.18 893.25 129.50
  Q 890.84 131.31 890.43 134.33
  Q 889.10 143.97 887.13 151.01"
/>
<path stroke="#7f710e" vector-effect="non-scaling-stroke" d="
  M 797.43 154.29
  L 787.37 154.61
  A 6.18 6.06 34.3 0 0 785.64 154.92
  C 778.51 157.06 776.38 166.77 773.35 172.35
  C 770.04 178.44 768.73 185.14 767.90 191.32
  Q 766.81 199.47 765.76 211.24
  Q 765.19 217.68 764.68 245.58
  Q 764.62 248.98 765.13 258.41
  Q 765.25 260.63 765.70 271.24
  Q 766.22 283.12 768.53 297.75
  Q 769.97 306.81 772.11 312.67
  C 775.10 320.86 779.12 328.49 788.79 328.82
  Q 792.86 328.96 797.07 329.07
  A 0.31 0.30 65.7 0 0 797.27 328.53
  Q 790.63 323.06 787.77 314.19
  Q 783.73 301.66 782.11 288.24
  Q 776.82 244.30 781.81 202.01
  C 783.47 187.94 786.00 174.53 792.01 162.27
  Q 794.16 157.89 797.67 154.90
  A 0.35 0.35 0.0 0 0 797.43 154.29"
/>
<path stroke="#7f710e" vector-effect="non-scaling-stroke" d="
  M 1047.98 155.04
  Q 1044.06 155.48 1043.00 155.48
  Q 997.46 155.56 963.04 155.17
  A 0.47 0.47 0.0 0 0 962.56 155.66
  C 962.79 164.91 960.10 173.33 953.09 179.33
  A 0.40 0.40 0.0 0 0 953.38 180.04
  Q 956.06 179.84 956.26 179.85
  Q 982.63 180.30 1016.44 179.97
  Q 1023.90 179.89 1031.10 177.16
  Q 1046.12 171.45 1048.41 155.49
  A 0.39 0.39 0.0 0 0 1047.98 155.04"
/>
<path stroke="#7f710e" vector-effect="non-scaling-stroke" d="
  M 508.52 155.00
  A 0.39 0.39 0.0 0 0 508.09 155.45
  Q 510.36 171.42 525.38 177.14
  Q 532.58 179.88 540.04 179.97
  Q 573.87 180.34 600.25 179.92
  Q 600.45 179.91 603.13 180.11
  A 0.40 0.40 0.0 0 0 603.42 179.40
  C 596.41 173.39 593.73 164.96 593.97 155.71
  A 0.47 0.47 0.0 0 0 593.49 155.22
  Q 559.06 155.57 513.50 155.44
  Q 512.44 155.44 508.52 155.00"
/>
<path stroke="#7f710e" vector-effect="non-scaling-stroke" d="
  M 877.53 179.94
  Q 902.36 180.25 937.85 179.99
  Q 944.61 179.94 947.30 178.61
  C 956.62 174.01 958.77 165.57 959.07 155.88
  A 0.54 0.54 0.0 0 0 958.53 155.32
  L 886.42 155.32
  A 0.53 0.53 0.0 0 0 885.91 155.72
  Q 882.96 167.70 877.16 179.34
  A 0.42 0.42 0.0 0 0 877.53 179.94"
/>
<path stroke="#7f710e" vector-effect="non-scaling-stroke" d="
  M 679.09 179.94
  A 0.42 0.42 0.0 0 0 679.46 179.34
  Q 673.66 167.71 670.71 155.75
  A 0.53 0.52 82.9 0 0 670.20 155.35
  L 598.19 155.37
  A 0.54 0.54 0.0 0 0 597.65 155.93
  C 597.95 165.61 600.10 174.04 609.41 178.63
  Q 612.10 179.96 618.85 180.00
  Q 654.29 180.25 679.09 179.94"
/>
<path stroke="#7f710e" vector-effect="non-scaling-stroke" d="
  M 820.80 259.23
  L 811.26 260.08
  A 0.74 0.73 88.7 0 0 810.60 260.78
  Q 810.16 270.62 809.08 281.05
  Q 808.14 290.24 805.45 297.92
  Q 805.03 299.10 804.30 299.35
  A 2.35 2.25 69.1 0 1 801.48 298.01
  Q 799.58 293.57 798.69 288.78
  C 796.06 274.56 795.62 263.23 795.38 247.34
  Q 795.08 227.08 797.90 207.29
  C 798.60 202.41 800.33 195.90 803.62 192.26
  A 1.86 1.76 38.7 0 1 806.01 192.06
  Q 806.24 192.23 806.45 192.71
  Q 808.60 197.59 809.62 205.54
  A 0.56 0.56 0.0 0 0 810.37 206.00
  L 820.52 202.39
  A 0.90 0.89 74.3 0 0 821.10 201.35
  Q 820.95 200.02 818.89 181.82
  C 818.21 175.71 813.38 154.14 803.73 155.51
  C 792.89 157.05 787.03 189.78 786.11 197.29
  C 785.24 204.40 783.84 216.29 783.63 225.86
  Q 783.23 244.52 783.35 254.24
  Q 783.60 272.91 786.69 293.56
  Q 788.23 303.78 791.24 312.75
  Q 793.16 318.48 795.79 322.21
  C 798.72 326.37 803.80 329.34 808.37 325.60
  C 813.12 321.73 815.31 314.85 816.61 309.07
  C 819.71 295.25 820.22 285.25 821.60 267.54
  Q 821.65 266.89 821.53 259.89
  A 0.67 0.67 0.0 0 0 820.80 259.23"
/>
<path stroke="#7f710e" vector-effect="non-scaling-stroke" d="
  M 634.47 204.32
  Q 634.45 204.27 631.91 202.06
  C 627.45 198.19 625.31 190.03 625.02 184.15
  A 0.64 0.63 -1.0 0 0 624.38 183.54
  L 545.02 183.64
  A 0.58 0.57 -6.4 0 0 544.45 184.34
  C 548.16 200.80 564.25 204.99 578.88 204.98
  Q 607.70 204.96 627.44 204.65
  Q 631.26 204.60 634.09 204.89
  A 0.39 0.39 0.0 0 0 634.47 204.32"
/>
<path stroke="#7f710e" vector-effect="non-scaling-stroke" d="
  M 698.00 204.29
  A 0.36 0.36 0.0 0 0 698.24 203.66
  Q 688.60 194.70 682.37 184.16
  A 1.13 1.13 0.0 0 0 681.40 183.61
  L 629.27 183.61
  A 0.30 0.30 0.0 0 0 628.97 183.89
  Q 628.34 195.40 637.28 201.95
  Q 641.05 204.72 645.03 204.74
  Q 673.73 204.88 698.00 204.29"
/>
<path stroke="#7f710e" vector-effect="non-scaling-stroke" d="
  M 858.75 204.25
  Q 882.92 204.83 911.51 204.69
  Q 915.47 204.67 919.23 201.91
  Q 928.13 195.38 927.50 183.92
  A 0.30 0.30 0.0 0 0 927.20 183.64
  L 875.28 183.64
  A 1.13 1.13 0.0 0 0 874.31 184.19
  Q 868.11 194.69 858.51 203.62
  A 0.36 0.36 0.0 0 0 858.75 204.25"
/>
<path stroke="#7f710e" vector-effect="non-scaling-stroke" d="
  M 921.97 204.40
  A 0.39 0.39 0.0 0 0 922.36 204.97
  Q 925.18 204.67 929.00 204.72
  Q 948.72 205.00 977.51 204.99
  C 992.12 204.98 1008.19 200.78 1011.88 184.33
  A 0.58 0.57 6.3 0 0 1011.31 183.63
  L 932.03 183.63
  A 0.64 0.63 0.9 0 0 931.39 184.24
  C 931.11 190.11 928.98 198.26 924.53 202.14
  Q 921.99 204.35 921.97 204.40"
/>
<path stroke="#024e28" vector-effect="non-scaling-stroke" d="
  M 802.16 207.39
  L 805.36 207.57
  A 0.22 0.22 0.0 0 0 805.59 207.36
  L 805.60 207.24
  A 9.36 1.80 -86.8 0 0 804.32 197.80
  L 804.28 197.80
  A 9.36 1.80 -86.8 0 0 801.96 207.04
  L 801.95 207.16
  A 0.22 0.22 0.0 0 0 802.16 207.39"
/>
<path stroke="#7f710e" vector-effect="non-scaling-stroke" d="
  M 739.52 228.13
  Q 739.55 227.90 739.32 227.71
  Q 739.12 227.54 738.91 227.49
  Q 736.19 226.84 734.52 226.21
  Q 717.14 219.66 703.48 208.21
  A 1.47 1.44 64.0 0 0 702.52 207.87
  L 662.04 208.55
  A 0.64 0.64 0.0 0 0 661.42 209.11
  C 660.34 218.33 665.03 225.03 673.26 228.28
  Q 675.79 229.28 681.12 229.17
  Q 699.16 228.79 705.62 228.93
  C 716.61 229.16 728.56 228.39 739.08 228.49
  A 0.44 0.43 -83.8 0 0 739.52 228.13"
/>
<path stroke="#7f710e" vector-effect="non-scaling-stroke" d="
  M 816.06 228.14
  Q 816.19 228.84 817.26 228.81
  C 834.89 228.25 859.22 229.83 878.82 228.85
  C 889.63 228.30 896.17 219.30 895.55 208.91
  A 0.34 0.34 0.0 0 0 895.21 208.58
  L 854.86 207.80
  A 2.71 2.68 26.6 0 0 853.21 208.34
  C 842.02 216.77 829.70 224.22 816.35 227.69
  A 0.39 0.39 0.0 0 0 816.06 228.14"
/>
<path stroke="#7f710e" vector-effect="non-scaling-stroke" d="
  M 665.60 228.85
  A 0.37 0.36 63.6 0 0 665.82 228.19
  C 659.68 223.61 657.53 215.88 657.45 208.72
  A 0.29 0.28 88.9 0 0 657.17 208.44
  L 592.41 208.44
  A 0.77 0.77 0.0 0 0 591.66 209.39
  C 594.76 222.10 606.73 227.92 619.04 228.40
  Q 640.58 229.26 661.25 228.85
  Q 663.50 228.80 665.60 228.85"
/>
<path stroke="#7f710e" vector-effect="non-scaling-stroke" d="
  M 891.33 228.67
  Q 893.42 228.63 895.66 228.68
  Q 916.23 229.14 937.66 228.33
  C 949.91 227.89 961.83 222.12 964.94 209.49
  A 0.77 0.77 0.0 0 0 964.20 208.54
  L 899.77 208.39
  A 0.29 0.28 -88.8 0 0 899.49 208.66
  C 899.39 215.79 897.23 223.47 891.12 228.02
  A 0.36 0.36 0.0 0 0 891.33 228.67"
/>
<path stroke="#7f710e" vector-effect="non-scaling-stroke" d="
  M 744.38 231.89
  L 701.03 232.62
  A 2.04 2.03 -77.3 0 0 699.24 233.76
  Q 696.03 240.21 698.64 246.17
  C 700.93 251.41 703.95 253.14 709.72 252.89
  C 713.16 252.74 717.14 253.66 721.78 253.80
  Q 731.06 254.09 744.50 254.80
  A 0.42 0.41 -88.7 0 0 744.93 254.38
  L 744.93 232.43
  A 0.54 0.54 0.0 0 0 744.38 231.89"
/>
<path stroke="#7f710e" vector-effect="non-scaling-stroke" d="
  M 697.91 252.10
  Q 691.87 243.87 695.35 233.08
  A 0.46 0.45 -80.7 0 0 694.92 232.48
  L 640.21 232.48
  A 0.71 0.71 0.0 0 0 639.52 233.34
  Q 641.18 241.24 647.30 246.18
  C 654.89 252.31 663.50 252.69 675.08 252.76
  Q 685.45 252.83 697.66 252.60
  A 0.32 0.31 -18.8 0 0 697.91 252.10"
/>
<path stroke="#7f710e" vector-effect="non-scaling-stroke" d="
  M 798.98 257.92
  Q 822.73 255.24 849.75 253.50
  Q 852.23 253.35 854.29 252.47
  A 1.68 1.60 -82.4 0 0 855.01 251.89
  C 858.79 246.45 860.66 238.63 856.92 232.84
  A 0.84 0.81 -15.7 0 0 856.22 232.46
  L 798.89 232.46
  A 0.36 0.36 0.0 0 0 798.53 232.82
  L 798.53 257.52
  A 0.41 0.40 -3.2 0 0 798.98 257.92"
/>
<path stroke="#7f710e" vector-effect="non-scaling-stroke" d="
  M 858.78 252.16
  A 0.32 0.31 18.7 0 0 859.03 252.66
  Q 871.26 252.86 881.64 252.77
  C 893.24 252.67 901.86 252.27 909.45 246.11
  Q 915.57 241.15 917.21 233.23
  A 0.71 0.71 0.0 0 0 916.52 232.37
  L 861.73 232.50
  A 0.46 0.45 80.6 0 0 861.30 233.11
  Q 864.81 243.90 858.78 252.16"
/>
<path stroke="#024e28" vector-effect="non-scaling-stroke" d="
  M 806.30 260.89
  L 799.97 261.46
  A 0.53 0.53 0.0 0 0 799.48 261.98
  Q 799.27 276.80 802.93 291.34
  A 0.44 0.44 0.0 0 0 803.79 291.33
  Q 804.17 289.62 805.55 281.97
  C 806.79 275.07 806.22 266.90 806.75 261.34
  A 0.41 0.41 0.0 0 0 806.30 260.89"
/>
<path stroke="#024e28" vector-effect="non-scaling-stroke" d="
  M 841.54 772.99
  L 841.54 698.95
  A 0.68 0.67 89.6 0 1 842.20 698.27
  L 852.06 698.11
  A 0.78 0.78 0.0 0 0 852.81 697.17
  Q 852.48 695.66 851.69 694.81
  Q 814.34 654.53 775.45 613.14
  A 0.74 0.73 44.7 0 0 774.38 613.14
  Q 771.18 616.59 767.62 620.36
  Q 736.78 652.99 697.33 694.58
  Q 696.36 695.60 696.01 696.93
  A 0.98 0.98 0.0 0 0 696.96 698.16
  L 708.72 698.16
  A 0.75 0.74 -0.0 0 1 709.47 698.90
  L 709.47 772.94
  A 0.55 0.55 0.0 0 1 708.77 773.47
  L 697.78 770.37
  A 1.05 1.05 0.0 0 0 696.44 771.38
  L 696.44 884.52
  A 1.27 1.26 -82.1 0 0 697.36 885.74
  L 708.69 888.93
  A 0.79 0.78 -82.5 0 1 709.25 889.67
  L 709.61 911.31
  A 0.22 0.22 0.0 0 0 709.83 911.52
  L 755.43 911.52
  A 0.41 0.40 0.0 0 0 755.84 911.12
  Q 756.12 867.73 755.94 837.77
  C 755.87 826.94 756.38 819.29 764.70 812.14
  Q 768.61 808.77 775.03 808.29
  C 785.24 807.52 792.17 815.44 794.50 824.65
  Q 795.14 827.17 795.13 838.90
  Q 795.10 903.14 795.12 910.92
  A 0.64 0.64 0.0 0 0 795.76 911.56
  L 840.84 911.56
  A 0.67 0.67 0.0 0 0 841.51 910.89
  L 841.51 890.58
  A 1.71 1.70 81.5 0 1 842.71 888.95
  L 853.74 885.56
  A 1.22 1.22 0.0 0 0 854.59 884.40
  L 854.59 771.40
  A 0.87 0.86 82.8 0 0 853.51 770.56
  L 842.22 773.52
  A 0.55 0.54 82.7 0 1 841.54 772.99"
/>
<path stroke="#024e28" vector-effect="non-scaling-stroke" d="
  M 540.59 709.22
  C 540.25 701.62 539.87 697.66 540.05 691.92
  Q 540.34 682.76 539.88 673.13
  A 1.36 1.36 0.0 0 1 541.24 671.70
  L 547.66 671.70
  A 0.60 0.59 -20.0 0 0 548.12 670.72
  L 506.28 621.45
  A 0.55 0.54 -44.7 0 0 505.45 621.45
  L 463.50 670.56
  A 0.78 0.78 0.0 0 0 464.09 671.85
  L 471.13 671.85
  A 0.74 0.73 -0.0 0 1 471.87 672.58
  L 471.87 831.44
  A 0.66 0.65 -90.0 0 0 472.52 832.10
  L 539.29 832.10
  A 0.63 0.63 0.0 0 0 539.92 831.48
  L 540.09 822.68
  A 0.39 0.39 0.0 0 1 540.84 822.52
  Q 541.31 823.51 543.46 824.26
  Q 549.65 826.44 555.54 827.60
  A 0.54 0.54 0.0 0 0 556.18 827.11
  C 556.87 815.73 556.46 805.94 556.48 794.66
  Q 556.55 766.79 556.52 731.50
  Q 556.50 718.83 556.29 713.33
  A 1.21 1.21 0.0 0 0 555.41 712.21
  L 541.84 708.38
  A 0.28 0.28 0.0 0 0 541.66 708.38
  Q 540.82 708.62 540.63 709.22
  Q 540.59 709.36 540.59 709.22"
/>
<path stroke="#024e28" vector-effect="non-scaling-stroke" d="
  M 1012.21 822.40
  L 1012.21 831.78
  A 0.41 0.40 0.0 0 0 1012.62 832.18
  L 1080.41 832.18
  A 0.21 0.20 0.0 0 0 1080.62 831.98
  L 1080.62 672.76
  A 0.79 0.79 0.0 0 1 1081.41 671.97
  L 1088.07 671.97
  A 0.86 0.85 69.5 0 0 1088.71 670.55
  L 1046.95 622.13
  A 1.08 1.07 -45.2 0 0 1045.33 622.14
  L 1004.05 670.47
  A 0.72 0.72 0.0 0 0 1004.60 671.66
  L 1010.92 671.66
  A 1.57 1.56 -89.3 0 1 1012.48 673.27
  Q 1011.97 690.94 1012.42 708.71
  A 0.70 0.70 0.0 0 1 1011.11 709.07
  Q 1010.73 708.37 1009.75 708.67
  Q 1001.53 711.21 996.44 712.22
  A 0.92 0.91 84.7 0 0 995.70 713.12
  L 995.70 826.76
  A 0.79 0.78 -6.7 0 0 996.67 827.52
  Q 1003.60 825.84 1010.42 823.63
  C 1011.13 823.40 1011.39 822.66 1011.69 822.23
  A 0.29 0.29 0.0 0 1 1012.21 822.40"
/>
<path stroke="#024e28" vector-effect="non-scaling-stroke" d="
  M 574.87 835.26
  A 1.13 1.13 0.0 0 0 576.31 834.18
  L 576.31 720.50
  A 1.13 1.13 0.0 0 0 575.40 719.39
  L 561.82 716.66
  A 1.13 1.13 0.0 0 0 560.47 717.77
  L 560.47 830.34
  A 1.13 1.13 0.0 0 0 561.29 831.43
  L 574.87 835.26"
/>
<path stroke="#024e28" vector-effect="non-scaling-stroke" d="
  M 991.07 831.46
  A 1.18 1.18 0.0 0 0 991.90 830.33
  L 991.90 717.85
  A 1.18 1.18 0.0 0 0 990.47 716.70
  L 977.22 719.56
  A 1.18 1.18 0.0 0 0 976.29 720.71
  L 976.29 834.41
  A 1.18 1.18 0.0 0 0 977.82 835.54
  L 991.07 831.46"
/>
<path stroke="#024e28" vector-effect="non-scaling-stroke" d="
  M 594.34 842.98
  A 1.09 1.09 0.0 0 0 595.73 841.93
  L 595.73 728.69
  A 1.09 1.09 0.0 0 0 594.94 727.65
  L 581.48 723.84
  A 1.09 1.09 0.0 0 0 580.09 724.89
  L 580.09 838.13
  A 1.09 1.09 0.0 0 0 580.88 839.18
  L 594.34 842.98"
/>
<path stroke="#024e28" vector-effect="non-scaling-stroke" d="
  M 957.20 727.83
  A 0.84 0.84 0.0 0 0 956.57 728.64
  L 956.57 842.02
  A 0.84 0.84 0.0 0 0 957.62 842.83
  L 971.50 839.19
  A 0.84 0.84 0.0 0 0 972.13 838.38
  L 972.13 725.00
  A 0.84 0.84 0.0 0 0 971.08 724.19
  L 957.20 727.83"
/>
<path stroke="#024e28" vector-effect="non-scaling-stroke" d="
  M 600.67 731.70
  A 1.06 1.06 0.0 0 0 599.32 732.72
  L 599.32 846.10
  A 1.06 1.06 0.0 0 0 600.09 847.12
  L 613.57 850.92
  A 1.06 1.06 0.0 0 0 614.92 849.90
  L 614.92 736.52
  A 1.06 1.06 0.0 0 0 614.15 735.50
  L 600.67 731.70"
/>
<path stroke="#024e28" vector-effect="non-scaling-stroke" d="
  M 937.93 735.89
  A 1.19 1.19 0.0 0 0 937.09 737.03
  L 937.09 849.74
  A 1.19 1.19 0.0 0 0 938.63 850.88
  L 951.71 846.85
  A 1.19 1.19 0.0 0 0 952.55 845.71
  L 952.55 733.00
  A 1.19 1.19 0.0 0 0 951.01 731.86
  L 937.93 735.89"
/>
<path stroke="#024e28" vector-effect="non-scaling-stroke" d="
  M 633.20 858.82
  A 1.06 1.06 0.0 0 0 634.55 857.80
  L 634.55 744.23
  A 1.06 1.06 0.0 0 0 633.78 743.21
  L 620.06 739.34
  A 1.06 1.06 0.0 0 0 618.71 740.36
  L 618.71 853.92
  A 1.06 1.06 0.0 0 0 619.48 854.94
  L 633.20 858.82"
/>
<path stroke="#024e28" vector-effect="non-scaling-stroke" d="
  M 918.33 743.22
  A 0.93 0.93 0.0 0 0 917.64 744.12
  L 917.64 858.12
  A 0.93 0.93 0.0 0 0 918.84 859.01
  L 932.72 854.73
  A 0.93 0.93 0.0 0 0 933.38 853.84
  L 933.38 740.48
  A 0.93 0.93 0.0 0 0 932.21 739.59
  L 918.33 743.22"
/>
<path stroke="#024e28" vector-effect="non-scaling-stroke" d="
  M 652.41 866.81
  A 0.86 0.86 0.0 0 0 653.50 865.98
  L 653.50 751.52
  A 0.86 0.86 0.0 0 0 652.81 750.68
  L 638.86 747.89
  A 0.86 0.86 0.0 0 0 637.83 748.73
  L 637.83 862.05
  A 0.86 0.86 0.0 0 0 638.46 862.88
  L 652.41 866.81"
/>
<path stroke="#024e28" vector-effect="non-scaling-stroke" d="
  M 898.18 751.02
  A 0.51 0.51 0.0 0 0 897.78 751.52
  L 897.78 866.50
  A 0.51 0.51 0.0 0 0 898.44 866.99
  L 912.97 862.51
  A 0.51 0.51 0.0 0 0 913.33 862.02
  L 913.33 748.39
  A 0.51 0.51 0.0 0 0 912.71 747.89
  L 898.18 751.02"
/>
<path stroke="#024e28" vector-effect="non-scaling-stroke" d="
  M 893.18 870.26
  A 0.91 0.91 0.0 0 0 893.82 869.39
  L 893.82 755.94
  A 0.91 0.91 0.0 0 0 892.68 755.06
  L 878.89 758.67
  A 0.91 0.91 0.0 0 0 878.21 759.55
  L 878.21 873.64
  A 0.91 0.91 0.0 0 0 879.39 874.51
  L 893.18 870.26"
/>
<path stroke="#024e28" vector-effect="non-scaling-stroke" d="
  M 658.38 755.28
  A 0.73 0.73 0.0 0 0 657.51 755.99
  L 657.51 869.94
  A 0.73 0.73 0.0 0 0 658.04 870.64
  L 672.33 874.68
  A 0.73 0.73 0.0 0 0 673.26 873.98
  L 673.26 758.86
  A 0.73 0.73 0.0 0 0 672.67 758.14
  L 658.38 755.28"
/>
<path stroke="#024e28" vector-effect="non-scaling-stroke" d="
  M 691.94 881.27
  Q 692.45 879.66 692.46 876.27
  Q 692.75 809.94 692.50 779.69
  Q 692.41 768.54 692.42 767.22
  A 0.91 0.90 -81.9 0 0 691.77 766.35
  L 678.50 762.61
  A 1.17 1.17 0.0 0 0 677.01 763.74
  Q 676.80 818.34 676.97 858.02
  Q 677.02 869.52 676.47 877.19
  A 0.92 0.92 0.0 0 0 677.14 878.14
  L 690.67 881.96
  A 1.05 1.04 -73.2 0 0 691.94 881.27"
/>
<path stroke="#024e28" vector-effect="non-scaling-stroke" d="
  M 859.49 766.38
  A 1.15 1.15 0.0 0 0 858.63 767.50
  L 858.63 880.95
  A 1.15 1.15 0.0 0 0 860.12 882.05
  L 873.30 877.99
  A 1.15 1.15 0.0 0 0 874.11 876.89
  L 874.11 764.04
  A 1.15 1.15 0.0 0 0 872.67 762.93
  L 859.49 766.38"
/>
<path stroke="#7f710e" vector-effect="non-scaling-stroke" d="
  M 702.46 694.12
  A 0.33 0.33 0.0 0 0 702.70 694.67
  L 846.47 694.93
  A 0.33 0.33 0.0 0 0 846.71 694.37
  L 774.96 617.60
  A 0.33 0.33 0.0 0 0 774.48 617.60
  L 702.46 694.12"
/>
<path stroke="#7f710e" vector-effect="non-scaling-stroke" d="
  M 752.67 907.93
  Q 752.74 889.23 752.61 836.58
  Q 752.60 829.39 753.26 825.52
  C 754.81 816.44 760.68 808.21 769.28 805.78
  C 781.90 802.21 793.19 809.08 797.17 820.83
  Q 798.69 825.33 798.66 834.21
  Q 798.55 864.73 798.56 907.51
  A 0.78 0.78 0.0 0 0 799.34 908.29
  L 837.67 908.29
  A 0.64 0.64 0.0 0 0 838.31 907.65
  L 838.31 699.58
  A 0.96 0.96 0.0 0 0 837.35 698.62
  L 713.49 698.62
  A 0.83 0.83 0.0 0 0 712.66 699.45
  L 712.66 907.78
  A 0.56 0.56 0.0 0 0 713.22 908.34
  L 752.27 908.34
  A 0.41 0.40 -90.0 0 0 752.67 907.93"
/>
<path stroke="#7f710e" vector-effect="non-scaling-stroke" d="
  M 841.36 776.39
  A 0.31 0.31 0.0 0 0 841.14 776.69
  L 841.14 886.92
  A 0.31 0.31 0.0 0 0 841.54 887.22
  L 852.29 883.91
  A 0.31 0.31 0.0 0 0 852.51 883.61
  L 852.51 773.38
  A 0.31 0.31 0.0 0 0 852.11 773.08
  L 841.36 776.39"
/>
<path stroke="#7f710e" vector-effect="non-scaling-stroke" d="
  M 699.05 773.09
  A 0.38 0.38 0.0 0 0 698.57 773.45
  L 698.57 883.55
  A 0.38 0.38 0.0 0 0 698.85 883.92
  L 709.21 886.84
  A 0.38 0.38 0.0 0 0 709.69 886.48
  L 709.69 776.38
  A 0.38 0.38 0.0 0 0 709.41 776.01
  L 699.05 773.09"
/>
<path stroke="#7f710e" vector-effect="non-scaling-stroke" d="
  M 470.33 667.70
  A 0.54 0.54 0.0 0 0 470.74 668.59
  L 540.92 668.59
  A 0.54 0.54 0.0 0 0 541.33 667.70
  L 506.24 626.79
  A 0.54 0.54 0.0 0 0 505.42 626.79
  L 470.33 667.70"
/>
<path stroke="#7f710e" vector-effect="non-scaling-stroke" d="
  M 536.43 674.99
  A 0.37 0.37 0.0 0 0 536.06 674.62
  L 475.58 674.62
  A 0.37 0.37 0.0 0 0 475.21 674.99
  L 475.21 828.51
  A 0.37 0.37 0.0 0 0 475.58 828.88
  L 536.06 828.88
  A 0.37 0.37 0.0 0 0 536.43 828.51
  L 536.43 674.99"
/>
<path stroke="#7f710e" vector-effect="non-scaling-stroke" d="
  M 553.67 824.71
  A 0.53 0.53 0.0 0 0 554.34 824.20
  L 554.34 714.52
  A 0.53 0.53 0.0 0 0 553.95 714.01
  L 543.85 711.16
  A 0.53 0.53 0.0 0 0 543.18 711.67
  L 543.18 821.36
  A 0.53 0.53 0.0 0 0 543.57 821.87
  L 553.67 824.71"
/>
<path stroke="#7f710e" vector-effect="non-scaling-stroke" d="
  M 1010.61 668.03
  A 0.37 0.37 0.0 0 0 1010.89 668.64
  L 1081.66 668.51
  A 0.37 0.37 0.0 0 0 1081.94 667.90
  L 1046.48 626.67
  A 0.37 0.37 0.0 0 0 1045.92 626.68
  L 1010.61 668.03"
/>
<path stroke="#7f710e" vector-effect="non-scaling-stroke" d="
  M 1077.10 675.22
  A 0.49 0.49 0.0 0 0 1076.61 674.73
  L 1016.25 674.73
  A 0.49 0.49 0.0 0 0 1015.76 675.22
  L 1015.76 828.42
  A 0.49 0.49 0.0 0 0 1016.25 828.91
  L 1076.61 828.91
  A 0.49 0.49 0.0 0 0 1077.10 828.42
  L 1077.10 675.22"
/>
<path stroke="#7f710e" vector-effect="non-scaling-stroke" d="
  M 998.14 714.20
  A 0.47 0.47 0.0 0 0 997.81 714.65
  L 997.81 824.47
  A 0.47 0.47 0.0 0 0 998.42 824.92
  L 1008.94 821.68
  A 0.47 0.47 0.0 0 0 1009.27 821.23
  L 1009.27 711.42
  A 0.47 0.47 0.0 0 0 1008.66 710.97
  L 998.14 714.20"
/>
<path stroke="#7f710e" vector-effect="non-scaling-stroke" d="
  M 491.83 736.92
  L 521.01 737.02
  A 1.22 1.22 0.0 0 0 522.23 735.81
  L 522.30 715.58
  A 32.93 15.70 -89.8 0 0 506.71 682.59
  L 506.49 682.59
  A 32.93 15.70 -89.8 0 0 490.68 715.46
  L 490.61 735.69
  A 1.22 1.22 0.0 0 0 491.83 736.92"
/>
<path stroke="#7f710e" vector-effect="non-scaling-stroke" d="
  M 1031.36 737.04
  L 1061.78 737.10
  A 0.71 0.71 0.0 0 0 1062.49 736.39
  L 1062.53 716.00
  A 33.28 15.83 -89.9 0 0 1046.76 682.69
  L 1046.58 682.69
  A 33.28 15.83 -89.9 0 0 1030.69 715.94
  L 1030.65 736.33
  A 0.71 0.71 0.0 0 0 1031.36 737.04"
/>
<path stroke="#024e28" vector-effect="non-scaling-stroke" d="
  M 495.00 733.69
  L 517.92 733.69
  A 0.82 0.82 0.0 0 0 518.74 732.87
  L 518.74 715.03
  A 28.76 12.28 90.0 0 0 506.46 686.27
  A 28.76 12.28 90.0 0 0 494.18 715.03
  L 494.18 732.87
  A 0.82 0.82 0.0 0 0 495.00 733.69"
/>
<path stroke="#024e28" vector-effect="non-scaling-stroke" d="
  M 1034.94 733.67
  L 1058.12 733.79
  A 0.69 0.69 0.0 0 0 1058.81 733.10
  L 1058.90 715.92
  A 29.43 12.28 -89.7 0 0 1046.77 686.43
  A 29.43 12.28 -89.7 0 0 1034.34 715.80
  L 1034.25 732.98
  A 0.69 0.69 0.0 0 0 1034.94 733.67"
/>
<path stroke="#7f710e" vector-effect="non-scaling-stroke" d="
  M 758.09 782.44
  L 794.99 782.44
  A 0.56 0.56 0.0 0 0 795.55 781.88
  L 795.55 753.60
  A 42.46 19.00 90.0 0 0 776.55 711.14
  L 776.53 711.14
  A 42.46 19.00 -90.0 0 0 757.53 753.60
  L 757.53 781.88
  A 0.56 0.56 0.0 0 0 758.09 782.44"
/>
<path stroke="#024e28" vector-effect="non-scaling-stroke" d="
  M 762.36 779.03
  L 790.54 779.13
  A 1.36 1.36 0.0 0 0 791.90 777.77
  L 791.98 754.27
  A 39.42 15.39 -89.8 0 0 776.73 714.80
  L 776.61 714.80
  A 39.42 15.39 -89.8 0 0 761.08 754.17
  L 761.00 777.67
  A 1.36 1.36 0.0 0 0 762.36 779.03"
/>
<path stroke="#7f710e" vector-effect="non-scaling-stroke" d="
  M 563.29 718.74
  A 0.54 0.54 0.0 0 0 562.60 719.26
  L 562.60 829.28
  A 0.54 0.54 0.0 0 0 562.99 829.80
  L 573.56 832.78
  A 0.54 0.54 0.0 0 0 574.25 832.26
  L 574.25 722.25
  A 0.54 0.54 0.0 0 0 573.86 721.73
  L 563.29 718.74"
/>
<path stroke="#7f710e" vector-effect="non-scaling-stroke" d="
  M 989.59 829.68
  A 0.31 0.31 0.0 0 0 989.81 829.38
  L 989.81 719.09
  A 0.31 0.31 0.0 0 0 989.41 718.79
  L 978.68 722.09
  A 0.31 0.31 0.0 0 0 978.46 722.39
  L 978.46 832.68
  A 0.31 0.31 0.0 0 0 978.86 832.98
  L 989.59 829.68"
/>
<path stroke="#7f710e" vector-effect="non-scaling-stroke" d="
  M 582.74 726.72
  A 0.37 0.37 0.0 0 0 582.30 727.08
  L 582.30 836.96
  A 0.37 0.37 0.0 0 0 582.57 837.32
  L 593.09 840.28
  A 0.37 0.37 0.0 0 0 593.56 839.92
  L 593.56 729.19
  A 0.37 0.37 0.0 0 0 593.26 728.83
  L 582.74 726.72"
/>
<path stroke="#7f710e" vector-effect="non-scaling-stroke" d="
  M 969.68 837.24
  A 0.34 0.34 0.0 0 0 969.92 836.92
  L 969.92 726.76
  A 0.34 0.34 0.0 0 0 969.48 726.44
  L 958.97 729.68
  A 0.34 0.34 0.0 0 0 958.73 730.00
  L 958.73 840.16
  A 0.34 0.34 0.0 0 0 959.17 840.48
  L 969.68 837.24"
/>
<path stroke="#7f710e" vector-effect="non-scaling-stroke" d="
  M 601.77 734.72
  A 0.30 0.30 0.0 0 0 601.41 735.02
  L 601.41 845.05
  A 0.30 0.30 0.0 0 0 601.63 845.34
  L 612.34 848.37
  A 0.30 0.30 0.0 0 0 612.72 848.08
  L 612.72 737.17
  A 0.30 0.30 0.0 0 0 612.48 736.87
  L 601.77 734.72"
/>
<path stroke="#7f710e" vector-effect="non-scaling-stroke" d="
  M 939.42 737.77
  A 0.39 0.39 0.0 0 0 939.14 738.14
  L 939.14 848.00
  A 0.39 0.39 0.0 0 0 939.64 848.37
  L 950.25 845.10
  A 0.39 0.39 0.0 0 0 950.53 844.73
  L 950.53 734.87
  A 0.39 0.39 0.0 0 0 950.03 734.50
  L 939.42 737.77"
/>
<path stroke="#7f710e" vector-effect="non-scaling-stroke" d="
  M 631.58 856.03
  A 0.55 0.55 0.0 0 0 632.28 855.50
  L 632.28 745.30
  A 0.55 0.55 0.0 0 0 631.88 744.77
  L 621.55 741.85
  A 0.55 0.55 0.0 0 0 620.85 742.38
  L 620.85 852.58
  A 0.55 0.55 0.0 0 0 621.25 853.11
  L 631.58 856.03"
/>
<path stroke="#7f710e" vector-effect="non-scaling-stroke" d="
  M 920.00 745.27
  A 0.48 0.48 0.0 0 0 919.66 745.72
  L 919.66 855.81
  A 0.48 0.48 0.0 0 0 920.28 856.27
  L 930.89 853.00
  A 0.48 0.48 0.0 0 0 931.23 852.55
  L 931.23 742.46
  A 0.48 0.48 0.0 0 0 930.61 742.00
  L 920.00 745.27"
/>
<path stroke="#7f710e" vector-effect="non-scaling-stroke" d="
  M 640.73 750.28
  A 0.64 0.64 0.0 0 0 639.96 750.91
  L 639.96 860.70
  A 0.64 0.64 0.0 0 0 640.43 861.31
  L 650.47 864.14
  A 0.64 0.64 0.0 0 0 651.28 863.52
  L 651.28 752.92
  A 0.64 0.64 0.0 0 0 650.77 752.30
  L 640.73 750.28"
/>
<path stroke="#7f710e" vector-effect="non-scaling-stroke" d="
  M 911.18 860.98
  A 0.37 0.37 0.0 0 0 911.44 860.63
  L 911.44 750.22
  A 0.37 0.37 0.0 0 0 910.96 749.87
  L 900.06 753.23
  A 0.37 0.37 0.0 0 0 899.80 753.58
  L 899.80 863.98
  A 0.37 0.37 0.0 0 0 900.28 864.33
  L 911.18 860.98"
/>
<path stroke="#7f710e" vector-effect="non-scaling-stroke" d="
  M 891.30 868.65
  A 0.47 0.47 0.0 0 0 891.63 868.20
  L 891.63 757.84
  A 0.47 0.47 0.0 0 0 891.02 757.39
  L 880.58 760.61
  A 0.47 0.47 0.0 0 0 880.25 761.06
  L 880.25 871.42
  A 0.47 0.47 0.0 0 0 880.86 871.87
  L 891.30 868.65"
/>
<path stroke="#7f710e" vector-effect="non-scaling-stroke" d="
  M 670.68 871.96
  A 0.49 0.49 0.0 0 0 671.30 871.49
  L 671.30 760.97
  A 0.49 0.49 0.0 0 0 670.94 760.50
  L 660.23 757.48
  A 0.49 0.49 0.0 0 0 659.61 757.95
  L 659.61 868.47
  A 0.49 0.49 0.0 0 0 659.97 868.94
  L 670.68 871.96"
/>
<path stroke="#7f710e" vector-effect="non-scaling-stroke" d="
  M 679.71 765.42
  A 0.54 0.54 0.0 0 0 679.06 765.95
  L 679.06 875.98
  A 0.54 0.54 0.0 0 0 679.45 876.50
  L 689.71 879.40
  A 0.54 0.54 0.0 0 0 690.40 878.88
  L 690.40 768.00
  A 0.54 0.54 0.0 0 0 689.97 767.47
  L 679.71 765.42"
/>
<path stroke="#7f710e" vector-effect="non-scaling-stroke" d="
  M 871.77 876.23
  A 0.38 0.38 0.0 0 0 872.04 875.87
  L 872.04 765.30
  A 0.38 0.38 0.0 0 0 871.55 764.94
  L 860.96 768.21
  A 0.38 0.38 0.0 0 0 860.69 768.57
  L 860.69 879.13
  A 0.38 0.38 0.0 0 0 861.18 879.49
  L 871.77 876.23"
/>
</g>
<path fill="#ffffff" d="
  M 39.50 0.00
  L 39.07 0.25
  A 0.10 0.09 -32.8 0 0 39.04 0.37
  L 289.72 445.19
  A 0.75 0.74 -14.3 0 0 290.37 445.57
  L 1537.00 445.57
  L 1537.00 565.55
  L 290.49 565.55
  A 0.95 0.95 0.0 0 0 289.66 566.04
  Q 264.54 611.75 256.93 625.44
  C 195.94 735.07 166.28 789.06 87.41 932.18
  Q 64.33 974.08 38.44 1022.36
  Q 38.19 1022.83 39.25 1023.00
  L 0.00 1023.00
  L 0.00 857.77
  Q 11.44 838.57 22.49 819.33
  Q 42.84 783.89 44.68 780.73
  C 82.04 716.44 117.95 654.73 162.09 577.82
  Q 172.15 560.29 175.05 552.41
  C 184.87 525.71 185.29 496.91 175.38 470.15
  Q 173.20 464.28 167.70 454.56
  Q 155.02 432.11 111.26 353.41
  Q 55.32 252.79 0.58 154.16
  Q 0.45 153.93 0.00 154.54
  L 0.00 0.00
  L 39.50 0.00
  Z"
/>
<path fill="#039c50" d="
  M 1537.00 0.00
  L 1537.00 445.57
  L 290.37 445.57
  A 0.75 0.74 -14.3 0 1 289.72 445.19
  L 39.04 0.37
  A 0.10 0.09 -32.8 0 1 39.07 0.25
  L 39.50 0.00
  L 1537.00 0.00
  Z
  M 800.60 148.30
  L 799.75 146.03
  Q 798.79 136.06 790.34 130.92
  C 788.13 129.58 786.67 130.01 784.43 130.81
  A 1.31 1.30 -42.3 0 1 783.47 130.77
  Q 783.46 130.77 781.69 129.31
  C 776.36 124.92 767.50 129.96 763.89 134.33
  Q 756.00 143.87 752.46 157.46
  Q 750.03 166.74 748.94 172.69
  Q 747.16 182.41 745.91 201.48
  Q 745.75 203.90 745.39 205.56
  A 0.58 0.58 0.0 0 1 744.66 206.00
  C 737.60 203.96 732.46 200.94 725.59 196.75
  C 718.61 192.49 712.92 186.31 708.68 180.12
  Q 705.36 175.27 703.28 168.39
  Q 699.55 156.05 698.92 144.27
  Q 698.91 144.03 698.06 124.58
  Q 697.29 106.85 680.61 102.05
  Q 672.63 99.75 668.51 99.74
  Q 570.22 99.44 465.04 99.60
  A 0.50 0.50 0.0 0 0 464.54 100.15
  C 465.52 110.85 470.44 120.32 481.07 124.21
  A 1.11 1.09 5.4 0 1 481.77 125.04
  Q 482.40 128.35 482.79 130.71
  Q 485.80 148.68 503.64 153.17
  A 1.35 1.35 0.0 0 1 504.67 154.52
  C 504.46 161.87 507.53 167.43 512.39 172.77
  Q 516.56 177.37 520.88 179.10
  Q 530.07 182.80 539.66 183.53
  A 0.85 0.84 -5.5 0 1 540.40 184.13
  C 543.10 193.54 549.06 201.92 558.69 205.29
  Q 567.07 208.22 577.52 208.55
  Q 584.63 208.78 586.64 208.55
  A 0.78 0.77 -16.3 0 1 587.42 208.97
  C 587.91 209.94 588.05 211.31 588.47 212.31
  C 596.93 232.35 616.72 232.63 634.66 232.15
  A 0.97 0.96 83.1 0 1 635.62 232.91
  C 639.03 248.74 651.87 255.81 667.25 256.29
  Q 677.53 256.62 699.46 256.47
  C 707.61 256.41 713.29 256.80 722.58 257.23
  C 729.12 257.53 736.92 258.49 744.36 258.36
  A 0.69 0.69 0.0 0 1 745.06 259.01
  C 746.79 287.57 747.49 314.96 755.32 341.45
  C 757.20 347.82 762.53 356.74 770.66 355.20
  Q 773.85 354.60 776.23 352.28
  A 0.87 0.86 40.1 0 1 777.33 352.19
  C 786.77 358.67 795.00 349.81 798.25 341.75
  Q 799.88 337.72 800.61 333.41
  A 1.62 1.62 0.0 0 1 802.11 332.06
  C 809.57 331.63 814.57 326.11 816.97 319.71
  C 821.36 308.01 822.54 296.95 824.11 282.91
  Q 825.26 272.60 825.28 259.72
  A 1.12 1.11 89.2 0 1 826.36 258.60
  Q 840.58 258.14 849.46 257.13
  Q 857.35 256.22 863.61 256.38
  Q 876.77 256.72 887.00 256.42
  C 903.01 255.95 917.18 250.57 920.74 233.27
  A 1.23 1.22 -83.0 0 1 921.98 232.29
  C 936.72 232.83 952.03 232.77 962.89 220.89
  Q 967.26 216.12 968.86 209.50
  A 1.45 1.43 -82.9 0 1 970.27 208.39
  C 975.82 208.44 980.46 208.90 985.65 208.09
  Q 988.85 207.59 992.40 206.86
  C 1005.24 204.23 1011.98 196.25 1015.93 184.02
  A 0.72 0.72 0.0 0 1 1016.54 183.52
  Q 1027.72 182.28 1033.86 179.83
  C 1043.02 176.17 1051.80 165.99 1051.77 155.22
  A 2.11 2.10 81.7 0 1 1053.27 153.20
  C 1058.58 151.61 1063.29 149.21 1067.10 145.40
  C 1071.95 140.55 1074.42 132.44 1074.66 125.64
  A 1.78 1.78 0.0 0 1 1075.78 124.05
  C 1086.16 119.92 1090.97 110.90 1091.81 100.21
  A 0.69 0.68 0.3 0 0 1091.08 99.48
  Q 1087.74 99.69 1085.27 99.68
  Q 1004.71 99.42 889.50 99.79
  C 876.77 99.83 863.81 104.13 859.59 117.20
  Q 858.53 120.48 858.30 131.41
  Q 857.94 148.25 855.35 161.62
  C 852.72 175.15 844.98 187.39 833.22 195.30
  Q 828.92 198.20 825.44 200.13
  A 0.80 0.79 -16.4 0 1 824.26 199.49
  C 823.55 188.17 822.17 176.59 818.80 166.23
  Q 818.01 163.81 814.20 157.60
  Q 810.79 152.05 805.01 151.62
  Q 803.11 151.48 802.29 150.71
  Q 801.38 149.85 800.60 148.30
  Z"
/>
<path fill="#000000" d="
  M 799.75 146.03
  Q 798.38 144.05 794.17 138.57
  Q 791.69 135.33 788.36 133.98
  A 0.90 0.88 40.6 0 0 787.61 134.03
  L 784.28 135.91
  A 1.53 1.53 0.0 0 1 782.12 135.16
  L 781.01 132.48
  A 1.36 1.35 4.4 0 0 780.46 131.84
  C 772.38 126.92 762.44 141.14 759.98 146.98
  Q 753.75 161.77 751.79 178.02
  Q 749.30 198.75 749.40 207.16
  C 749.42 209.04 748.75 211.71 748.71 213.50
  Q 747.91 252.79 750.75 292.00
  Q 752.30 313.39 756.63 333.12
  Q 757.92 339.01 760.25 344.31
  C 762.70 349.87 768.96 355.50 774.19 348.81
  A 1.76 1.76 0.0 0 0 774.54 348.00
  L 774.71 346.91
  A 0.89 0.88 -85.4 0 1 775.58 346.16
  L 777.71 346.16
  A 0.86 0.85 78.6 0 1 778.50 346.69
  C 781.08 352.72 788.17 351.21 791.26 346.70
  Q 795.44 340.61 797.40 333.11
  A 0.58 0.58 0.0 0 0 796.78 332.39
  Q 792.78 332.76 787.56 332.38
  C 778.11 331.70 772.01 324.72 769.04 316.19
  Q 765.18 305.16 763.76 291.98
  Q 760.75 264.20 761.00 234.00
  Q 761.05 228.28 762.23 208.37
  Q 762.68 200.73 763.80 192.18
  C 765.12 182.09 765.41 174.99 767.84 166.36
  Q 768.77 163.04 770.95 160.15
  A 1.02 1.01 18.9 0 1 771.78 159.75
  L 772.94 159.77
  A 1.22 1.22 0.0 0 1 773.93 161.67
  Q 771.04 165.96 770.15 171.85
  A 0.26 0.26 0.0 0 0 770.61 172.06
  Q 770.84 171.78 770.86 170.79
  Q 770.88 169.83 771.14 169.20
  C 774.47 161.05 778.35 151.44 788.26 150.93
  Q 792.11 150.73 798.51 151.13
  Q 800.68 151.27 800.60 148.30
  Q 801.38 149.85 802.29 150.71
  Q 803.11 151.48 805.01 151.62
  Q 810.79 152.05 814.20 157.60
  Q 818.01 163.81 818.80 166.23
  C 822.17 176.59 823.55 188.17 824.26 199.49
  A 0.80 0.79 -16.4 0 0 825.44 200.13
  Q 828.92 198.20 833.22 195.30
  C 844.98 187.39 852.72 175.15 855.35 161.62
  Q 857.94 148.25 858.30 131.41
  Q 858.53 120.48 859.59 117.20
  C 863.81 104.13 876.77 99.83 889.50 99.79
  Q 1004.71 99.42 1085.27 99.68
  Q 1087.74 99.69 1091.08 99.48
  A 0.69 0.68 0.3 0 1 1091.81 100.21
  C 1090.97 110.90 1086.16 119.92 1075.78 124.05
  A 1.78 1.78 0.0 0 0 1074.66 125.64
  C 1074.42 132.44 1071.95 140.55 1067.10 145.40
  C 1063.29 149.21 1058.58 151.61 1053.27 153.20
  A 2.11 2.10 81.7 0 0 1051.77 155.22
  C 1051.80 165.99 1043.02 176.17 1033.86 179.83
  Q 1027.72 182.28 1016.54 183.52
  A 0.72 0.72 0.0 0 0 1015.93 184.02
  C 1011.98 196.25 1005.24 204.23 992.40 206.86
  Q 988.85 207.59 985.65 208.09
  C 980.46 208.90 975.82 208.44 970.27 208.39
  A 1.45 1.43 -82.9 0 0 968.86 209.50
  Q 967.26 216.12 962.89 220.89
  C 952.03 232.77 936.72 232.83 921.98 232.29
  A 1.23 1.22 -83.0 0 0 920.74 233.27
  C 917.18 250.57 903.01 255.95 887.00 256.42
  Q 876.77 256.72 863.61 256.38
  Q 857.35 256.22 849.46 257.13
  Q 840.58 258.14 826.36 258.60
  A 1.12 1.11 89.2 0 0 825.28 259.72
  Q 825.26 272.60 824.11 282.91
  C 822.54 296.95 821.36 308.01 816.97 319.71
  C 814.57 326.11 809.57 331.63 802.11 332.06
  A 1.62 1.62 0.0 0 0 800.61 333.41
  Q 799.88 337.72 798.25 341.75
  C 795.00 349.81 786.77 358.67 777.33 352.19
  A 0.87 0.86 40.1 0 0 776.23 352.28
  Q 773.85 354.60 770.66 355.20
  C 762.53 356.74 757.20 347.82 755.32 341.45
  C 747.49 314.96 746.79 287.57 745.06 259.01
  A 0.69 0.69 0.0 0 0 744.36 258.36
  C 736.92 258.49 729.12 257.53 722.58 257.23
  C 713.29 256.80 707.61 256.41 699.46 256.47
  Q 677.53 256.62 667.25 256.29
  C 651.87 255.81 639.03 248.74 635.62 232.91
  A 0.97 0.96 83.1 0 0 634.66 232.15
  C 616.72 232.63 596.93 232.35 588.47 212.31
  C 588.05 211.31 587.91 209.94 587.42 208.97
  A 0.78 0.77 -16.3 0 0 586.64 208.55
  Q 584.63 208.78 577.52 208.55
  Q 567.07 208.22 558.69 205.29
  C 549.06 201.92 543.10 193.54 540.40 184.13
  A 0.85 0.84 -5.5 0 0 539.66 183.53
  Q 530.07 182.80 520.88 179.10
  Q 516.56 177.37 512.39 172.77
  C 507.53 167.43 504.46 161.87 504.67 154.52
  A 1.35 1.35 0.0 0 0 503.64 153.17
  Q 485.80 148.68 482.79 130.71
  Q 482.40 128.35 481.77 125.04
  A 1.11 1.09 5.4 0 0 481.07 124.21
  C 470.44 120.32 465.52 110.85 464.54 100.15
  A 0.50 0.50 0.0 0 1 465.04 99.60
  Q 570.22 99.44 668.51 99.74
  Q 672.63 99.75 680.61 102.05
  Q 697.29 106.85 698.06 124.58
  Q 698.91 144.03 698.92 144.27
  Q 699.55 156.05 703.28 168.39
  Q 705.36 175.27 708.68 180.12
  C 712.92 186.31 718.61 192.49 725.59 196.75
  C 732.46 200.94 737.60 203.96 744.66 206.00
  A 0.58 0.58 0.0 0 0 745.39 205.56
  Q 745.75 203.90 745.91 201.48
  Q 747.16 182.41 748.94 172.69
  Q 750.03 166.74 752.46 157.46
  Q 756.00 143.87 763.89 134.33
  C 767.50 129.96 776.36 124.92 781.69 129.31
  Q 783.46 130.77 783.47 130.77
  A 1.31 1.30 -42.3 0 0 784.43 130.81
  C 786.67 130.01 788.13 129.58 790.34 130.92
  Q 798.79 136.06 799.75 146.03
  Z
  M 744.36 225.60
  A 0.40 0.39 8.1 0 0 744.86 225.23
  L 745.14 210.52
  A 0.79 0.78 9.5 0 0 744.59 209.76
  Q 727.03 204.17 713.89 191.88
  C 702.06 180.83 696.98 165.36 695.87 149.72
  C 695.50 144.46 694.74 138.53 694.74 133.08
  Q 694.73 123.19 694.08 120.18
  C 691.41 107.77 679.47 103.34 667.97 103.33
  Q 550.56 103.25 469.66 103.12
  A 0.93 0.93 0.0 0 0 468.75 104.24
  Q 471.78 118.46 486.09 122.40
  Q 493.42 124.42 499.77 124.42
  Q 599.77 124.51 656.57 124.40
  Q 661.65 124.39 662.97 124.95
  C 666.94 126.65 668.93 129.99 669.89 134.34
  C 671.43 141.34 672.97 151.12 675.48 158.99
  Q 678.52 168.51 679.51 170.75
  C 691.53 198.02 715.90 217.87 744.36 225.60
  Z
  M 1087.28 103.21
  Q 1087.19 103.18 1086.57 103.18
  Q 1020.70 103.12 888.18 103.36
  C 880.47 103.38 871.59 105.73 866.41 111.92
  C 862.34 116.79 861.81 124.74 861.79 130.81
  Q 861.76 141.76 860.30 154.29
  Q 856.43 187.30 827.89 202.59
  Q 815.23 209.37 801.09 211.86
  A 1.30 1.28 -3.2 0 0 800.03 213.03
  L 798.91 228.12
  A 0.56 0.56 0.0 0 0 799.59 228.70
  Q 808.89 226.65 817.33 223.85
  C 845.50 214.49 869.88 193.25 879.30 164.82
  C 881.63 157.79 883.70 151.78 884.76 145.01
  Q 885.11 142.79 886.43 135.74
  C 887.49 130.10 890.36 124.49 896.75 124.48
  Q 925.25 124.40 1052.58 124.47
  C 1058.26 124.48 1065.97 124.14 1070.98 122.50
  Q 1084.69 118.00 1087.75 104.06
  A 0.74 0.73 16.2 0 0 1087.28 103.21
  Z
  M 486.38 126.19
  A 0.63 0.63 0.0 0 0 485.60 126.85
  C 486.67 139.69 494.32 147.68 506.43 150.60
  Q 511.56 151.84 514.48 151.88
  Q 544.04 152.26 583.03 151.70
  A 0.32 0.32 0.0 0 0 583.22 151.13
  C 576.47 145.93 574.26 136.55 573.96 128.41
  A 0.33 0.32 -0.9 0 0 573.63 128.10
  Q 547.51 128.20 506.85 128.00
  C 499.65 127.96 493.10 127.89 486.38 126.19
  Z
  M 1070.24 126.28
  C 1063.52 127.97 1056.97 128.02 1049.78 128.05
  Q 1009.13 128.18 983.01 128.03
  A 0.33 0.32 1.0 0 0 982.68 128.34
  C 982.37 136.48 980.14 145.85 973.38 151.04
  A 0.32 0.32 0.0 0 0 973.57 151.61
  Q 1012.55 152.24 1042.11 151.91
  Q 1045.03 151.88 1050.16 150.65
  C 1062.27 147.75 1069.93 139.77 1071.02 126.94
  A 0.63 0.63 0.0 0 0 1070.24 126.28
  Z
  M 669.49 150.94
  Q 667.51 143.90 666.17 134.25
  Q 665.75 131.23 663.34 129.43
  Q 661.59 128.11 657.99 128.10
  Q 627.75 128.06 578.20 128.09
  A 0.32 0.32 0.0 0 0 577.87 128.39
  Q 577.58 135.02 580.05 141.03
  C 582.31 146.50 588.14 152.02 594.57 151.97
  Q 635.81 151.68 669.31 151.18
  A 0.19 0.19 0.0 0 0 669.49 150.94
  Z
  M 887.13 151.01
  A 0.19 0.19 0.0 0 0 887.31 151.25
  Q 920.80 151.71 962.02 151.95
  C 968.45 151.99 974.27 146.47 976.52 141.00
  Q 978.99 134.99 978.69 128.36
  A 0.32 0.32 0.0 0 0 978.36 128.06
  Q 928.82 128.09 898.60 128.17
  Q 895.00 128.18 893.25 129.50
  Q 890.84 131.31 890.43 134.33
  Q 889.10 143.97 887.13 151.01
  Z
  M 797.43 154.29
  L 787.37 154.61
  A 6.18 6.06 34.3 0 0 785.64 154.92
  C 778.51 157.06 776.38 166.77 773.35 172.35
  C 770.04 178.44 768.73 185.14 767.90 191.32
  Q 766.81 199.47 765.76 211.24
  Q 765.19 217.68 764.68 245.58
  Q 764.62 248.98 765.13 258.41
  Q 765.25 260.63 765.70 271.24
  Q 766.22 283.12 768.53 297.75
  Q 769.97 306.81 772.11 312.67
  C 775.10 320.86 779.12 328.49 788.79 328.82
  Q 792.86 328.96 797.07 329.07
  A 0.31 0.30 65.7 0 0 797.27 328.53
  Q 790.63 323.06 787.77 314.19
  Q 783.73 301.66 782.11 288.24
  Q 776.82 244.30 781.81 202.01
  C 783.47 187.94 786.00 174.53 792.01 162.27
  Q 794.16 157.89 797.67 154.90
  A 0.35 0.35 0.0 0 0 797.43 154.29
  Z
  M 1047.98 155.04
  Q 1044.06 155.48 1043.00 155.48
  Q 997.46 155.56 963.04 155.17
  A 0.47 0.47 0.0 0 0 962.56 155.66
  C 962.79 164.91 960.10 173.33 953.09 179.33
  A 0.40 0.40 0.0 0 0 953.38 180.04
  Q 956.06 179.84 956.26 179.85
  Q 982.63 180.30 1016.44 179.97
  Q 1023.90 179.89 1031.10 177.16
  Q 1046.12 171.45 1048.41 155.49
  A 0.39 0.39 0.0 0 0 1047.98 155.04
  Z
  M 508.52 155.00
  A 0.39 0.39 0.0 0 0 508.09 155.45
  Q 510.36 171.42 525.38 177.14
  Q 532.58 179.88 540.04 179.97
  Q 573.87 180.34 600.25 179.92
  Q 600.45 179.91 603.13 180.11
  A 0.40 0.40 0.0 0 0 603.42 179.40
  C 596.41 173.39 593.73 164.96 593.97 155.71
  A 0.47 0.47 0.0 0 0 593.49 155.22
  Q 559.06 155.57 513.50 155.44
  Q 512.44 155.44 508.52 155.00
  Z
  M 877.53 179.94
  Q 902.36 180.25 937.85 179.99
  Q 944.61 179.94 947.30 178.61
  C 956.62 174.01 958.77 165.57 959.07 155.88
  A 0.54 0.54 0.0 0 0 958.53 155.32
  L 886.42 155.32
  A 0.53 0.53 0.0 0 0 885.91 155.72
  Q 882.96 167.70 877.16 179.34
  A 0.42 0.42 0.0 0 0 877.53 179.94
  Z
  M 679.09 179.94
  A 0.42 0.42 0.0 0 0 679.46 179.34
  Q 673.66 167.71 670.71 155.75
  A 0.53 0.52 82.9 0 0 670.20 155.35
  L 598.19 155.37
  A 0.54 0.54 0.0 0 0 597.65 155.93
  C 597.95 165.61 600.10 174.04 609.41 178.63
  Q 612.10 179.96 618.85 180.00
  Q 654.29 180.25 679.09 179.94
  Z
  M 820.80 259.23
  L 811.26 260.08
  A 0.74 0.73 88.7 0 0 810.60 260.78
  Q 810.16 270.62 809.08 281.05
  Q 808.14 290.24 805.45 297.92
  Q 805.03 299.10 804.30 299.35
  A 2.35 2.25 69.1 0 1 801.48 298.01
  Q 799.58 293.57 798.69 288.78
  C 796.06 274.56 795.62 263.23 795.38 247.34
  Q 795.08 227.08 797.90 207.29
  C 798.60 202.41 800.33 195.90 803.62 192.26
  A 1.86 1.76 38.7 0 1 806.01 192.06
  Q 806.24 192.23 806.45 192.71
  Q 808.60 197.59 809.62 205.54
  A 0.56 0.56 0.0 0 0 810.37 206.00
  L 820.52 202.39
  A 0.90 0.89 74.3 0 0 821.10 201.35
  Q 820.95 200.02 818.89 181.82
  C 818.21 175.71 813.38 154.14 803.73 155.51
  C 792.89 157.05 787.03 189.78 786.11 197.29
  C 785.24 204.40 783.84 216.29 783.63 225.86
  Q 783.23 244.52 783.35 254.24
  Q 783.60 272.91 786.69 293.56
  Q 788.23 303.78 791.24 312.75
  Q 793.16 318.48 795.79 322.21
  C 798.72 326.37 803.80 329.34 808.37 325.60
  C 813.12 321.73 815.31 314.85 816.61 309.07
  C 819.71 295.25 820.22 285.25 821.60 267.54
  Q 821.65 266.89 821.53 259.89
  A 0.67 0.67 0.0 0 0 820.80 259.23
  Z
  M 634.47 204.32
  Q 634.45 204.27 631.91 202.06
  C 627.45 198.19 625.31 190.03 625.02 184.15
  A 0.64 0.63 -1.0 0 0 624.38 183.54
  L 545.02 183.64
  A 0.58 0.57 -6.4 0 0 544.45 184.34
  C 548.16 200.80 564.25 204.99 578.88 204.98
  Q 607.70 204.96 627.44 204.65
  Q 631.26 204.60 634.09 204.89
  A 0.39 0.39 0.0 0 0 634.47 204.32
  Z
  M 698.00 204.29
  A 0.36 0.36 0.0 0 0 698.24 203.66
  Q 688.60 194.70 682.37 184.16
  A 1.13 1.13 0.0 0 0 681.40 183.61
  L 629.27 183.61
  A 0.30 0.30 0.0 0 0 628.97 183.89
  Q 628.34 195.40 637.28 201.95
  Q 641.05 204.72 645.03 204.74
  Q 673.73 204.88 698.00 204.29
  Z
  M 858.75 204.25
  Q 882.92 204.83 911.51 204.69
  Q 915.47 204.67 919.23 201.91
  Q 928.13 195.38 927.50 183.92
  A 0.30 0.30 0.0 0 0 927.20 183.64
  L 875.28 183.64
  A 1.13 1.13 0.0 0 0 874.31 184.19
  Q 868.11 194.69 858.51 203.62
  A 0.36 0.36 0.0 0 0 858.75 204.25
  Z
  M 921.97 204.40
  A 0.39 0.39 0.0 0 0 922.36 204.97
  Q 925.18 204.67 929.00 204.72
  Q 948.72 205.00 977.51 204.99
  C 992.12 204.98 1008.19 200.78 1011.88 184.33
  A 0.58 0.57 6.3 0 0 1011.31 183.63
  L 932.03 183.63
  A 0.64 0.63 0.9 0 0 931.39 184.24
  C 931.11 190.11 928.98 198.26 924.53 202.14
  Q 921.99 204.35 921.97 204.40
  Z
  M 802.16 207.39
  L 805.36 207.57
  A 0.22 0.22 0.0 0 0 805.59 207.36
  L 805.60 207.24
  A 9.36 1.80 -86.8 0 0 804.32 197.80
  L 804.28 197.80
  A 9.36 1.80 -86.8 0 0 801.96 207.04
  L 801.95 207.16
  A 0.22 0.22 0.0 0 0 802.16 207.39
  Z
  M 739.52 228.13
  Q 739.55 227.90 739.32 227.71
  Q 739.12 227.54 738.91 227.49
  Q 736.19 226.84 734.52 226.21
  Q 717.14 219.66 703.48 208.21
  A 1.47 1.44 64.0 0 0 702.52 207.87
  L 662.04 208.55
  A 0.64 0.64 0.0 0 0 661.42 209.11
  C 660.34 218.33 665.03 225.03 673.26 228.28
  Q 675.79 229.28 681.12 229.17
  Q 699.16 228.79 705.62 228.93
  C 716.61 229.16 728.56 228.39 739.08 228.49
  A 0.44 0.43 -83.8 0 0 739.52 228.13
  Z
  M 816.06 228.14
  Q 816.19 228.84 817.26 228.81
  C 834.89 228.25 859.22 229.83 878.82 228.85
  C 889.63 228.30 896.17 219.30 895.55 208.91
  A 0.34 0.34 0.0 0 0 895.21 208.58
  L 854.86 207.80
  A 2.71 2.68 26.6 0 0 853.21 208.34
  C 842.02 216.77 829.70 224.22 816.35 227.69
  A 0.39 0.39 0.0 0 0 816.06 228.14
  Z
  M 665.60 228.85
  A 0.37 0.36 63.6 0 0 665.82 228.19
  C 659.68 223.61 657.53 215.88 657.45 208.72
  A 0.29 0.28 88.9 0 0 657.17 208.44
  L 592.41 208.44
  A 0.77 0.77 0.0 0 0 591.66 209.39
  C 594.76 222.10 606.73 227.92 619.04 228.40
  Q 640.58 229.26 661.25 228.85
  Q 663.50 228.80 665.60 228.85
  Z
  M 891.33 228.67
  Q 893.42 228.63 895.66 228.68
  Q 916.23 229.14 937.66 228.33
  C 949.91 227.89 961.83 222.12 964.94 209.49
  A 0.77 0.77 0.0 0 0 964.20 208.54
  L 899.77 208.39
  A 0.29 0.28 -88.8 0 0 899.49 208.66
  C 899.39 215.79 897.23 223.47 891.12 228.02
  A 0.36 0.36 0.0 0 0 891.33 228.67
  Z
  M 744.38 231.89
  L 701.03 232.62
  A 2.04 2.03 -77.3 0 0 699.24 233.76
  Q 696.03 240.21 698.64 246.17
  C 700.93 251.41 703.95 253.14 709.72 252.89
  C 713.16 252.74 717.14 253.66 721.78 253.80
  Q 731.06 254.09 744.50 254.80
  A 0.42 0.41 -88.7 0 0 744.93 254.38
  L 744.93 232.43
  A 0.54 0.54 0.0 0 0 744.38 231.89
  Z
  M 697.91 252.10
  Q 691.87 243.87 695.35 233.08
  A 0.46 0.45 -80.7 0 0 694.92 232.48
  L 640.21 232.48
  A 0.71 0.71 0.0 0 0 639.52 233.34
  Q 641.18 241.24 647.30 246.18
  C 654.89 252.31 663.50 252.69 675.08 252.76
  Q 685.45 252.83 697.66 252.60
  A 0.32 0.31 -18.8 0 0 697.91 252.10
  Z
  M 798.98 257.92
  Q 822.73 255.24 849.75 253.50
  Q 852.23 253.35 854.29 252.47
  A 1.68 1.60 -82.4 0 0 855.01 251.89
  C 858.79 246.45 860.66 238.63 856.92 232.84
  A 0.84 0.81 -15.7 0 0 856.22 232.46
  L 798.89 232.46
  A 0.36 0.36 0.0 0 0 798.53 232.82
  L 798.53 257.52
  A 0.41 0.40 -3.2 0 0 798.98 257.92
  Z
  M 858.78 252.16
  A 0.32 0.31 18.7 0 0 859.03 252.66
  Q 871.26 252.86 881.64 252.77
  C 893.24 252.67 901.86 252.27 909.45 246.11
  Q 915.57 241.15 917.21 233.23
  A 0.71 0.71 0.0 0 0 916.52 232.37
  L 861.73 232.50
  A 0.46 0.45 80.6 0 0 861.30 233.11
  Q 864.81 243.90 858.78 252.16
  Z
  M 806.30 260.89
  L 799.97 261.46
  A 0.53 0.53 0.0 0 0 799.48 261.98
  Q 799.27 276.80 802.93 291.34
  A 0.44 0.44 0.0 0 0 803.79 291.33
  Q 804.17 289.62 805.55 281.97
  C 806.79 275.07 806.22 266.90 806.75 261.34
  A 0.41 0.41 0.0 0 0 806.30 260.89
  Z"
/>
<path fill="#fee11b" d="
  M 744.36 225.60
  C 715.90 217.87 691.53 198.02 679.51 170.75
  Q 678.52 168.51 675.48 158.99
  C 672.97 151.12 671.43 141.34 669.89 134.34
  C 668.93 129.99 666.94 126.65 662.97 124.95
  Q 661.65 124.39 656.57 124.40
  Q 599.77 124.51 499.77 124.42
  Q 493.42 124.42 486.09 122.40
  Q 471.78 118.46 468.75 104.24
  A 0.93 0.93 0.0 0 1 469.66 103.12
  Q 550.56 103.25 667.97 103.33
  C 679.47 103.34 691.41 107.77 694.08 120.18
  Q 694.73 123.19 694.74 133.08
  C 694.74 138.53 695.50 144.46 695.87 149.72
  C 696.98 165.36 702.06 180.83 713.89 191.88
  Q 727.03 204.17 744.59 209.76
  A 0.79 0.78 9.5 0 1 745.14 210.52
  L 744.86 225.23
  A 0.40 0.39 8.1 0 1 744.36 225.60
  Z"
/>
<path fill="#fee11b" d="
  M 1087.28 103.21
  A 0.74 0.73 16.2 0 1 1087.75 104.06
  Q 1084.69 118.00 1070.98 122.50
  C 1065.97 124.14 1058.26 124.48 1052.58 124.47
  Q 925.25 124.40 896.75 124.48
  C 890.36 124.49 887.49 130.10 886.43 135.74
  Q 885.11 142.79 884.76 145.01
  C 883.70 151.78 881.63 157.79 879.30 164.82
  C 869.88 193.25 845.50 214.49 817.33 223.85
  Q 808.89 226.65 799.59 228.70
  A 0.56 0.56 0.0 0 1 798.91 228.12
  L 800.03 213.03
  A 1.30 1.28 -3.2 0 1 801.09 211.86
  Q 815.23 209.37 827.89 202.59
  Q 856.43 187.30 860.30 154.29
  Q 861.76 141.76 861.79 130.81
  C 861.81 124.74 862.34 116.79 866.41 111.92
  C 871.59 105.73 880.47 103.38 888.18 103.36
  Q 1020.70 103.12 1086.57 103.18
  Q 1087.19 103.18 1087.28 103.21
  Z"
/>
<path fill="#fee11b" d="
  M 486.38 126.19
  C 493.10 127.89 499.65 127.96 506.85 128.00
  Q 547.51 128.20 573.63 128.10
  A 0.33 0.32 -0.9 0 1 573.96 128.41
  C 574.26 136.55 576.47 145.93 583.22 151.13
  A 0.32 0.32 0.0 0 1 583.03 151.70
  Q 544.04 152.26 514.48 151.88
  Q 511.56 151.84 506.43 150.60
  C 494.32 147.68 486.67 139.69 485.60 126.85
  A 0.63 0.63 0.0 0 1 486.38 126.19
  Z"
/>
<path fill="#fee11b" d="
  M 1070.24 126.28
  A 0.63 0.63 0.0 0 1 1071.02 126.94
  C 1069.93 139.77 1062.27 147.75 1050.16 150.65
  Q 1045.03 151.88 1042.11 151.91
  Q 1012.55 152.24 973.57 151.61
  A 0.32 0.32 0.0 0 1 973.38 151.04
  C 980.14 145.85 982.37 136.48 982.68 128.34
  A 0.33 0.32 1.0 0 1 983.01 128.03
  Q 1009.13 128.18 1049.78 128.05
  C 1056.97 128.02 1063.52 127.97 1070.24 126.28
  Z"
/>
<path fill="#fee11b" d="
  M 669.49 150.94
  A 0.19 0.19 0.0 0 1 669.31 151.18
  Q 635.81 151.68 594.57 151.97
  C 588.14 152.02 582.31 146.50 580.05 141.03
  Q 577.58 135.02 577.87 128.39
  A 0.32 0.32 0.0 0 1 578.20 128.09
  Q 627.75 128.06 657.99 128.10
  Q 661.59 128.11 663.34 129.43
  Q 665.75 131.23 666.17 134.25
  Q 667.51 143.90 669.49 150.94
  Z"
/>
<path fill="#fee11b" d="
  M 887.13 151.01
  Q 889.10 143.97 890.43 134.33
  Q 890.84 131.31 893.25 129.50
  Q 895.00 128.18 898.60 128.17
  Q 928.82 128.09 978.36 128.06
  A 0.32 0.32 0.0 0 1 978.69 128.36
  Q 978.99 134.99 976.52 141.00
  C 974.27 146.47 968.45 151.99 962.02 151.95
  Q 920.80 151.71 887.31 151.25
  A 0.19 0.19 0.0 0 1 887.13 151.01
  Z"
/>
<path fill="#fee11b" d="
  M 799.75 146.03
  L 800.60 148.30
  Q 800.68 151.27 798.51 151.13
  Q 792.11 150.73 788.26 150.93
  C 778.35 151.44 774.47 161.05 771.14 169.20
  Q 770.88 169.83 770.86 170.79
  Q 770.84 171.78 770.61 172.06
  A 0.26 0.26 0.0 0 1 770.15 171.85
  Q 771.04 165.96 773.93 161.67
  A 1.22 1.22 0.0 0 0 772.94 159.77
  L 771.78 159.75
  A 1.02 1.01 18.9 0 0 770.95 160.15
  Q 768.77 163.04 767.84 166.36
  C 765.41 174.99 765.12 182.09 763.80 192.18
  Q 762.68 200.73 762.23 208.37
  Q 761.05 228.28 761.00 234.00
  Q 760.75 264.20 763.76 291.98
  Q 765.18 305.16 769.04 316.19
  C 772.01 324.72 778.11 331.70 787.56 332.38
  Q 792.78 332.76 796.78 332.39
  A 0.58 0.58 0.0 0 1 797.40 333.11
  Q 795.44 340.61 791.26 346.70
  C 788.17 351.21 781.08 352.72 778.50 346.69
  A 0.86 0.85 78.6 0 0 777.71 346.16
  L 775.58 346.16
  A 0.89 0.88 -85.4 0 0 774.71 346.91
  L 774.54 348.00
  A 1.76 1.76 0.0 0 1 774.19 348.81
  C 768.96 355.50 762.70 349.87 760.25 344.31
  Q 757.92 339.01 756.63 333.12
  Q 752.30 313.39 750.75 292.00
  Q 747.91 252.79 748.71 213.50
  C 748.75 211.71 749.42 209.04 749.40 207.16
  Q 749.30 198.75 751.79 178.02
  Q 753.75 161.77 759.98 146.98
  C 762.44 141.14 772.38 126.92 780.46 131.84
  A 1.36 1.35 4.4 0 1 781.01 132.48
  L 782.12 135.16
  A 1.53 1.53 0.0 0 0 784.28 135.91
  L 787.61 134.03
  A 0.90 0.88 40.6 0 1 788.36 133.98
  Q 791.69 135.33 794.17 138.57
  Q 798.38 144.05 799.75 146.03
  Z"
/>
<path fill="#039c50" d="
  M 0.00 857.77
  L 0.00 154.54
  Q 0.45 153.93 0.58 154.16
  Q 55.32 252.79 111.26 353.41
  Q 155.02 432.11 167.70 454.56
  Q 173.20 464.28 175.38 470.15
  C 185.29 496.91 184.87 525.71 175.05 552.41
  Q 172.15 560.29 162.09 577.82
  C 117.95 654.73 82.04 716.44 44.68 780.73
  Q 42.84 783.89 22.49 819.33
  Q 11.44 838.57 0.00 857.77
  Z"
/>
<path fill="#fee11b" d="
  M 797.43 154.29
  A 0.35 0.35 0.0 0 1 797.67 154.90
  Q 794.16 157.89 792.01 162.27
  C 786.00 174.53 783.47 187.94 781.81 202.01
  Q 776.82 244.30 782.11 288.24
  Q 783.73 301.66 787.77 314.19
  Q 790.63 323.06 797.27 328.53
  A 0.31 0.30 65.7 0 1 797.07 329.07
  Q 792.86 328.96 788.79 328.82
  C 779.12 328.49 775.10 320.86 772.11 312.67
  Q 769.97 306.81 768.53 297.75
  Q 766.22 283.12 765.70 271.24
  Q 765.25 260.63 765.13 258.41
  Q 764.62 248.98 764.68 245.58
  Q 765.19 217.68 765.76 211.24
  Q 766.81 199.47 767.90 191.32
  C 768.73 185.14 770.04 178.44 773.35 172.35
  C 776.38 166.77 778.51 157.06 785.64 154.92
  A 6.18 6.06 34.3 0 1 787.37 154.61
  L 797.43 154.29
  Z"
/>
<path fill="#fee11b" d="
  M 1047.98 155.04
  A 0.39 0.39 0.0 0 1 1048.41 155.49
  Q 1046.12 171.45 1031.10 177.16
  Q 1023.90 179.89 1016.44 179.97
  Q 982.63 180.30 956.26 179.85
  Q 956.06 179.84 953.38 180.04
  A 0.40 0.40 0.0 0 1 953.09 179.33
  C 960.10 173.33 962.79 164.91 962.56 155.66
  A 0.47 0.47 0.0 0 1 963.04 155.17
  Q 997.46 155.56 1043.00 155.48
  Q 1044.06 155.48 1047.98 155.04
  Z"
/>
<path fill="#fee11b" d="
  M 508.52 155.00
  Q 512.44 155.44 513.50 155.44
  Q 559.06 155.57 593.49 155.22
  A 0.47 0.47 0.0 0 1 593.97 155.71
  C 593.73 164.96 596.41 173.39 603.42 179.40
  A 0.40 0.40 0.0 0 1 603.13 180.11
  Q 600.45 179.91 600.25 179.92
  Q 573.87 180.34 540.04 179.97
  Q 532.58 179.88 525.38 177.14
  Q 510.36 171.42 508.09 155.45
  A 0.39 0.39 0.0 0 1 508.52 155.00
  Z"
/>
<path fill="#fee11b" d="
  M 877.53 179.94
  A 0.42 0.42 0.0 0 1 877.16 179.34
  Q 882.96 167.70 885.91 155.72
  A 0.53 0.53 0.0 0 1 886.42 155.32
  L 958.53 155.32
  A 0.54 0.54 0.0 0 1 959.07 155.88
  C 958.77 165.57 956.62 174.01 947.30 178.61
  Q 944.61 179.94 937.85 179.99
  Q 902.36 180.25 877.53 179.94
  Z"
/>
<path fill="#fee11b" d="
  M 679.09 179.94
  Q 654.29 180.25 618.85 180.00
  Q 612.10 179.96 609.41 178.63
  C 600.10 174.04 597.95 165.61 597.65 155.93
  A 0.54 0.54 0.0 0 1 598.19 155.37
  L 670.20 155.35
  A 0.53 0.52 82.9 0 1 670.71 155.75
  Q 673.66 167.71 679.46 179.34
  A 0.42 0.42 0.0 0 1 679.09 179.94
  Z"
/>
<path fill="#fee11b" d="
  M 821.53 259.89
  Q 821.65 266.89 821.60 267.54
  C 820.22 285.25 819.71 295.25 816.61 309.07
  C 815.31 314.85 813.12 321.73 808.37 325.60
  C 803.80 329.34 798.72 326.37 795.79 322.21
  Q 793.16 318.48 791.24 312.75
  Q 788.23 303.78 786.69 293.56
  Q 783.60 272.91 783.35 254.24
  Q 783.23 244.52 783.63 225.86
  C 783.84 216.29 785.24 204.40 786.11 197.29
  C 787.03 189.78 792.89 157.05 803.73 155.51
  C 813.38 154.14 818.21 175.71 818.89 181.82
  Q 820.95 200.02 821.10 201.35
  A 0.90 0.89 74.3 0 1 820.52 202.39
  L 810.37 206.00
  A 0.56 0.56 0.0 0 1 809.62 205.54
  Q 808.60 197.59 806.45 192.71
  Q 806.24 192.23 806.01 192.06
  A 1.86 1.76 38.7 0 0 803.62 192.26
  C 800.33 195.90 798.60 202.41 797.90 207.29
  Q 795.08 227.08 795.38 247.34
  C 795.62 263.23 796.06 274.56 798.69 288.78
  Q 799.58 293.57 801.48 298.01
  A 2.35 2.25 69.1 0 0 804.30 299.35
  Q 805.03 299.10 805.45 297.92
  Q 808.14 290.24 809.08 281.05
  Q 810.16 270.62 810.60 260.78
  A 0.74 0.73 88.7 0 1 811.26 260.08
  L 820.80 259.23
  A 0.67 0.67 0.0 0 1 821.53 259.89
  Z"
/>
<path fill="#fee11b" d="
  M 634.47 204.32
  A 0.39 0.39 0.0 0 1 634.09 204.89
  Q 631.26 204.60 627.44 204.65
  Q 607.70 204.96 578.88 204.98
  C 564.25 204.99 548.16 200.80 544.45 184.34
  A 0.58 0.57 -6.4 0 1 545.02 183.64
  L 624.38 183.54
  A 0.64 0.63 -1.0 0 1 625.02 184.15
  C 625.31 190.03 627.45 198.19 631.91 202.06
  Q 634.45 204.27 634.47 204.32
  Z"
/>
<path fill="#fee11b" d="
  M 698.00 204.29
  Q 673.73 204.88 645.03 204.74
  Q 641.05 204.72 637.28 201.95
  Q 628.34 195.40 628.97 183.89
  A 0.30 0.30 0.0 0 1 629.27 183.61
  L 681.40 183.61
  A 1.13 1.13 0.0 0 1 682.37 184.16
  Q 688.60 194.70 698.24 203.66
  A 0.36 0.36 0.0 0 1 698.00 204.29
  Z"
/>
<path fill="#fee11b" d="
  M 858.75 204.25
  A 0.36 0.36 0.0 0 1 858.51 203.62
  Q 868.11 194.69 874.31 184.19
  A 1.13 1.13 0.0 0 1 875.28 183.64
  L 927.20 183.64
  A 0.30 0.30 0.0 0 1 927.50 183.92
  Q 928.13 195.38 919.23 201.91
  Q 915.47 204.67 911.51 204.69
  Q 882.92 204.83 858.75 204.25
  Z"
/>
<path fill="#fee11b" d="
  M 921.97 204.40
  Q 921.99 204.35 924.53 202.14
  C 928.98 198.26 931.11 190.11 931.39 184.24
  A 0.64 0.63 0.9 0 1 932.03 183.63
  L 1011.31 183.63
  A 0.58 0.57 6.3 0 1 1011.88 184.33
  C 1008.19 200.78 992.12 204.98 977.51 204.99
  Q 948.72 205.00 929.00 204.72
  Q 925.18 204.67 922.36 204.97
  A 0.39 0.39 0.0 0 1 921.97 204.40
  Z"
/>
<path fill="#039c50" d="
  M 802.16 207.39
  A 0.22 0.22 0.0 0 1 801.95 207.16
  L 801.96 207.04
  A 9.36 1.80 -86.8 0 1 804.28 197.80
  L 804.32 197.80
  A 9.36 1.80 -86.8 0 1 805.60 207.24
  L 805.59 207.36
  A 0.22 0.22 0.0 0 1 805.36 207.57
  L 802.16 207.39
  Z"
/>
<path fill="#fee11b" d="
  M 739.52 228.13
  A 0.44 0.43 -83.8 0 1 739.08 228.49
  C 728.56 228.39 716.61 229.16 705.62 228.93
  Q 699.16 228.79 681.12 229.17
  Q 675.79 229.28 673.26 228.28
  C 665.03 225.03 660.34 218.33 661.42 209.11
  A 0.64 0.64 0.0 0 1 662.04 208.55
  L 702.52 207.87
  A 1.47 1.44 64.0 0 1 703.48 208.21
  Q 717.14 219.66 734.52 226.21
  Q 736.19 226.84 738.91 227.49
  Q 739.12 227.54 739.32 227.71
  Q 739.55 227.90 739.52 228.13
  Z"
/>
<path fill="#fee11b" d="
  M 816.06 228.14
  A 0.39 0.39 0.0 0 1 816.35 227.69
  C 829.70 224.22 842.02 216.77 853.21 208.34
  A 2.71 2.68 26.6 0 1 854.86 207.80
  L 895.21 208.58
  A 0.34 0.34 0.0 0 1 895.55 208.91
  C 896.17 219.30 889.63 228.30 878.82 228.85
  C 859.22 229.83 834.89 228.25 817.26 228.81
  Q 816.19 228.84 816.06 228.14
  Z"
/>
<path fill="#fee11b" d="
  M 665.60 228.85
  Q 663.50 228.80 661.25 228.85
  Q 640.58 229.26 619.04 228.40
  C 606.73 227.92 594.76 222.10 591.66 209.39
  A 0.77 0.77 0.0 0 1 592.41 208.44
  L 657.17 208.44
  A 0.29 0.28 88.9 0 1 657.45 208.72
  C 657.53 215.88 659.68 223.61 665.82 228.19
  A 0.37 0.36 63.6 0 1 665.60 228.85
  Z"
/>
<path fill="#fee11b" d="
  M 891.33 228.67
  A 0.36 0.36 0.0 0 1 891.12 228.02
  C 897.23 223.47 899.39 215.79 899.49 208.66
  A 0.29 0.28 -88.8 0 1 899.77 208.39
  L 964.20 208.54
  A 0.77 0.77 0.0 0 1 964.94 209.49
  C 961.83 222.12 949.91 227.89 937.66 228.33
  Q 916.23 229.14 895.66 228.68
  Q 893.42 228.63 891.33 228.67
  Z"
/>
<path fill="#fee11b" d="
  M 744.38 231.89
  A 0.54 0.54 0.0 0 1 744.93 232.43
  L 744.93 254.38
  A 0.42 0.41 -88.7 0 1 744.50 254.80
  Q 731.06 254.09 721.78 253.80
  C 717.14 253.66 713.16 252.74 709.72 252.89
  C 703.95 253.14 700.93 251.41 698.64 246.17
  Q 696.03 240.21 699.24 233.76
  A 2.04 2.03 -77.3 0 1 701.03 232.62
  L 744.38 231.89
  Z"
/>
<path fill="#fee11b" d="
  M 697.91 252.10
  A 0.32 0.31 -18.8 0 1 697.66 252.60
  Q 685.45 252.83 675.08 252.76
  C 663.50 252.69 654.89 252.31 647.30 246.18
  Q 641.18 241.24 639.52 233.34
  A 0.71 0.71 0.0 0 1 640.21 232.48
  L 694.92 232.48
  A 0.46 0.45 -80.7 0 1 695.35 233.08
  Q 691.87 243.87 697.91 252.10
  Z"
/>
<path fill="#fee11b" d="
  M 798.98 257.92
  A 0.41 0.40 -3.2 0 1 798.53 257.52
  L 798.53 232.82
  A 0.36 0.36 0.0 0 1 798.89 232.46
  L 856.22 232.46
  A 0.84 0.81 -15.7 0 1 856.92 232.84
  C 860.66 238.63 858.79 246.45 855.01 251.89
  A 1.68 1.60 -82.4 0 1 854.29 252.47
  Q 852.23 253.35 849.75 253.50
  Q 822.73 255.24 798.98 257.92
  Z"
/>
<path fill="#fee11b" d="
  M 858.78 252.16
  Q 864.81 243.90 861.30 233.11
  A 0.46 0.45 80.6 0 1 861.73 232.50
  L 916.52 232.37
  A 0.71 0.71 0.0 0 1 917.21 233.23
  Q 915.57 241.15 909.45 246.11
  C 901.86 252.27 893.24 252.67 881.64 252.77
  Q 871.26 252.86 859.03 252.66
  A 0.32 0.31 18.7 0 1 858.78 252.16
  Z"
/>
<path fill="#039c50" d="
  M 806.75 261.34
  C 806.22 266.90 806.79 275.07 805.55 281.97
  Q 804.17 289.62 803.79 291.33
  A 0.44 0.44 0.0 0 1 802.93 291.34
  Q 799.27 276.80 799.48 261.98
  A 0.53 0.53 0.0 0 1 799.97 261.46
  L 806.30 260.89
  A 0.41 0.41 0.0 0 1 806.75 261.34
  Z"
/>
<path fill="#039c50" d="
  M 1537.00 565.55
  L 1537.00 1023.00
  L 39.25 1023.00
  Q 38.19 1022.83 38.44 1022.36
  Q 64.33 974.08 87.41 932.18
  C 166.28 789.06 195.94 735.07 256.93 625.44
  Q 264.54 611.75 289.66 566.04
  A 0.95 0.95 0.0 0 1 290.49 565.55
  L 1537.00 565.55
  Z
  M 841.54 772.99
  L 841.54 698.95
  A 0.68 0.67 89.6 0 1 842.20 698.27
  L 852.06 698.11
  A 0.78 0.78 0.0 0 0 852.81 697.17
  Q 852.48 695.66 851.69 694.81
  Q 814.34 654.53 775.45 613.14
  A 0.74 0.73 44.7 0 0 774.38 613.14
  Q 771.18 616.59 767.62 620.36
  Q 736.78 652.99 697.33 694.58
  Q 696.36 695.60 696.01 696.93
  A 0.98 0.98 0.0 0 0 696.96 698.16
  L 708.72 698.16
  A 0.75 0.74 -0.0 0 1 709.47 698.90
  L 709.47 772.94
  A 0.55 0.55 0.0 0 1 708.77 773.47
  L 697.78 770.37
  A 1.05 1.05 0.0 0 0 696.44 771.38
  L 696.44 884.52
  A 1.27 1.26 -82.1 0 0 697.36 885.74
  L 708.69 888.93
  A 0.79 0.78 -82.5 0 1 709.25 889.67
  L 709.61 911.31
  A 0.22 0.22 0.0 0 0 709.83 911.52
  L 755.43 911.52
  A 0.41 0.40 0.0 0 0 755.84 911.12
  Q 756.12 867.73 755.94 837.77
  C 755.87 826.94 756.38 819.29 764.70 812.14
  Q 768.61 808.77 775.03 808.29
  C 785.24 807.52 792.17 815.44 794.50 824.65
  Q 795.14 827.17 795.13 838.90
  Q 795.10 903.14 795.12 910.92
  A 0.64 0.64 0.0 0 0 795.76 911.56
  L 840.84 911.56
  A 0.67 0.67 0.0 0 0 841.51 910.89
  L 841.51 890.58
  A 1.71 1.70 81.5 0 1 842.71 888.95
  L 853.74 885.56
  A 1.22 1.22 0.0 0 0 854.59 884.40
  L 854.59 771.40
  A 0.87 0.86 82.8 0 0 853.51 770.56
  L 842.22 773.52
  A 0.55 0.54 82.7 0 1 841.54 772.99
  Z
  M 540.59 709.22
  C 540.25 701.62 539.87 697.66 540.05 691.92
  Q 540.34 682.76 539.88 673.13
  A 1.36 1.36 0.0 0 1 541.24 671.70
  L 547.66 671.70
  A 0.60 0.59 -20.0 0 0 548.12 670.72
  L 506.28 621.45
  A 0.55 0.54 -44.7 0 0 505.45 621.45
  L 463.50 670.56
  A 0.78 0.78 0.0 0 0 464.09 671.85
  L 471.13 671.85
  A 0.74 0.73 -0.0 0 1 471.87 672.58
  L 471.87 831.44
  A 0.66 0.65 -90.0 0 0 472.52 832.10
  L 539.29 832.10
  A 0.63 0.63 0.0 0 0 539.92 831.48
  L 540.09 822.68
  A 0.39 0.39 0.0 0 1 540.84 822.52
  Q 541.31 823.51 543.46 824.26
  Q 549.65 826.44 555.54 827.60
  A 0.54 0.54 0.0 0 0 556.18 827.11
  C 556.87 815.73 556.46 805.94 556.48 794.66
  Q 556.55 766.79 556.52 731.50
  Q 556.50 718.83 556.29 713.33
  A 1.21 1.21 0.0 0 0 555.41 712.21
  L 541.84 708.38
  A 0.28 0.28 0.0 0 0 541.66 708.38
  Q 540.82 708.62 540.63 709.22
  Q 540.59 709.36 540.59 709.22
  Z
  M 1012.21 822.40
  L 1012.21 831.78
  A 0.41 0.40 0.0 0 0 1012.62 832.18
  L 1080.41 832.18
  A 0.21 0.20 0.0 0 0 1080.62 831.98
  L 1080.62 672.76
  A 0.79 0.79 0.0 0 1 1081.41 671.97
  L 1088.07 671.97
  A 0.86 0.85 69.5 0 0 1088.71 670.55
  L 1046.95 622.13
  A 1.08 1.07 -45.2 0 0 1045.33 622.14
  L 1004.05 670.47
  A 0.72 0.72 0.0 0 0 1004.60 671.66
  L 1010.92 671.66
  A 1.57 1.56 -89.3 0 1 1012.48 673.27
  Q 1011.97 690.94 1012.42 708.71
  A 0.70 0.70 0.0 0 1 1011.11 709.07
  Q 1010.73 708.37 1009.75 708.67
  Q 1001.53 711.21 996.44 712.22
  A 0.92 0.91 84.7 0 0 995.70 713.12
  L 995.70 826.76
  A 0.79 0.78 -6.7 0 0 996.67 827.52
  Q 1003.60 825.84 1010.42 823.63
  C 1011.13 823.40 1011.39 822.66 1011.69 822.23
  A 0.29 0.29 0.0 0 1 1012.21 822.40
  Z
  M 574.87 835.26
  A 1.13 1.13 0.0 0 0 576.31 834.18
  L 576.31 720.50
  A 1.13 1.13 0.0 0 0 575.40 719.39
  L 561.82 716.66
  A 1.13 1.13 0.0 0 0 560.47 717.77
  L 560.47 830.34
  A 1.13 1.13 0.0 0 0 561.29 831.43
  L 574.87 835.26
  Z
  M 991.07 831.46
  A 1.18 1.18 0.0 0 0 991.90 830.33
  L 991.90 717.85
  A 1.18 1.18 0.0 0 0 990.47 716.70
  L 977.22 719.56
  A 1.18 1.18 0.0 0 0 976.29 720.71
  L 976.29 834.41
  A 1.18 1.18 0.0 0 0 977.82 835.54
  L 991.07 831.46
  Z
  M 594.34 842.98
  A 1.09 1.09 0.0 0 0 595.73 841.93
  L 595.73 728.69
  A 1.09 1.09 0.0 0 0 594.94 727.65
  L 581.48 723.84
  A 1.09 1.09 0.0 0 0 580.09 724.89
  L 580.09 838.13
  A 1.09 1.09 0.0 0 0 580.88 839.18
  L 594.34 842.98
  Z
  M 957.20 727.83
  A 0.84 0.84 0.0 0 0 956.57 728.64
  L 956.57 842.02
  A 0.84 0.84 0.0 0 0 957.62 842.83
  L 971.50 839.19
  A 0.84 0.84 0.0 0 0 972.13 838.38
  L 972.13 725.00
  A 0.84 0.84 0.0 0 0 971.08 724.19
  L 957.20 727.83
  Z
  M 600.67 731.70
  A 1.06 1.06 0.0 0 0 599.32 732.72
  L 599.32 846.10
  A 1.06 1.06 0.0 0 0 600.09 847.12
  L 613.57 850.92
  A 1.06 1.06 0.0 0 0 614.92 849.90
  L 614.92 736.52
  A 1.06 1.06 0.0 0 0 614.15 735.50
  L 600.67 731.70
  Z
  M 937.93 735.89
  A 1.19 1.19 0.0 0 0 937.09 737.03
  L 937.09 849.74
  A 1.19 1.19 0.0 0 0 938.63 850.88
  L 951.71 846.85
  A 1.19 1.19 0.0 0 0 952.55 845.71
  L 952.55 733.00
  A 1.19 1.19 0.0 0 0 951.01 731.86
  L 937.93 735.89
  Z
  M 633.20 858.82
  A 1.06 1.06 0.0 0 0 634.55 857.80
  L 634.55 744.23
  A 1.06 1.06 0.0 0 0 633.78 743.21
  L 620.06 739.34
  A 1.06 1.06 0.0 0 0 618.71 740.36
  L 618.71 853.92
  A 1.06 1.06 0.0 0 0 619.48 854.94
  L 633.20 858.82
  Z
  M 918.33 743.22
  A 0.93 0.93 0.0 0 0 917.64 744.12
  L 917.64 858.12
  A 0.93 0.93 0.0 0 0 918.84 859.01
  L 932.72 854.73
  A 0.93 0.93 0.0 0 0 933.38 853.84
  L 933.38 740.48
  A 0.93 0.93 0.0 0 0 932.21 739.59
  L 918.33 743.22
  Z
  M 652.41 866.81
  A 0.86 0.86 0.0 0 0 653.50 865.98
  L 653.50 751.52
  A 0.86 0.86 0.0 0 0 652.81 750.68
  L 638.86 747.89
  A 0.86 0.86 0.0 0 0 637.83 748.73
  L 637.83 862.05
  A 0.86 0.86 0.0 0 0 638.46 862.88
  L 652.41 866.81
  Z
  M 898.18 751.02
  A 0.51 0.51 0.0 0 0 897.78 751.52
  L 897.78 866.50
  A 0.51 0.51 0.0 0 0 898.44 866.99
  L 912.97 862.51
  A 0.51 0.51 0.0 0 0 913.33 862.02
  L 913.33 748.39
  A 0.51 0.51 0.0 0 0 912.71 747.89
  L 898.18 751.02
  Z
  M 893.18 870.26
  A 0.91 0.91 0.0 0 0 893.82 869.39
  L 893.82 755.94
  A 0.91 0.91 0.0 0 0 892.68 755.06
  L 878.89 758.67
  A 0.91 0.91 0.0 0 0 878.21 759.55
  L 878.21 873.64
  A 0.91 0.91 0.0 0 0 879.39 874.51
  L 893.18 870.26
  Z
  M 658.38 755.28
  A 0.73 0.73 0.0 0 0 657.51 755.99
  L 657.51 869.94
  A 0.73 0.73 0.0 0 0 658.04 870.64
  L 672.33 874.68
  A 0.73 0.73 0.0 0 0 673.26 873.98
  L 673.26 758.86
  A 0.73 0.73 0.0 0 0 672.67 758.14
  L 658.38 755.28
  Z
  M 691.94 881.27
  Q 692.45 879.66 692.46 876.27
  Q 692.75 809.94 692.50 779.69
  Q 692.41 768.54 692.42 767.22
  A 0.91 0.90 -81.9 0 0 691.77 766.35
  L 678.50 762.61
  A 1.17 1.17 0.0 0 0 677.01 763.74
  Q 676.80 818.34 676.97 858.02
  Q 677.02 869.52 676.47 877.19
  A 0.92 0.92 0.0 0 0 677.14 878.14
  L 690.67 881.96
  A 1.05 1.04 -73.2 0 0 691.94 881.27
  Z
  M 859.49 766.38
  A 1.15 1.15 0.0 0 0 858.63 767.50
  L 858.63 880.95
  A 1.15 1.15 0.0 0 0 860.12 882.05
  L 873.30 877.99
  A 1.15 1.15 0.0 0 0 874.11 876.89
  L 874.11 764.04
  A 1.15 1.15 0.0 0 0 872.67 762.93
  L 859.49 766.38
  Z"
/>
<path fill="#000000" d="
  M 841.54 772.99
  A 0.55 0.54 82.7 0 0 842.22 773.52
  L 853.51 770.56
  A 0.87 0.86 82.8 0 1 854.59 771.40
  L 854.59 884.40
  A 1.22 1.22 0.0 0 1 853.74 885.56
  L 842.71 888.95
  A 1.71 1.70 81.5 0 0 841.51 890.58
  L 841.51 910.89
  A 0.67 0.67 0.0 0 1 840.84 911.56
  L 795.76 911.56
  A 0.64 0.64 0.0 0 1 795.12 910.92
  Q 795.10 903.14 795.13 838.90
  Q 795.14 827.17 794.50 824.65
  C 792.17 815.44 785.24 807.52 775.03 808.29
  Q 768.61 808.77 764.70 812.14
  C 756.38 819.29 755.87 826.94 755.94 837.77
  Q 756.12 867.73 755.84 911.12
  A 0.41 0.40 -0.0 0 1 755.43 911.52
  L 709.83 911.52
  A 0.22 0.22 0.0 0 1 709.61 911.31
  L 709.25 889.67
  A 0.79 0.78 -82.5 0 0 708.69 888.93
  L 697.36 885.74
  A 1.27 1.26 -82.1 0 1 696.44 884.52
  L 696.44 771.38
  A 1.05 1.05 0.0 0 1 697.78 770.37
  L 708.77 773.47
  A 0.55 0.55 0.0 0 0 709.47 772.94
  L 709.47 698.90
  A 0.75 0.74 -0.0 0 0 708.72 698.16
  L 696.96 698.16
  A 0.98 0.98 0.0 0 1 696.01 696.93
  Q 696.36 695.60 697.33 694.58
  Q 736.78 652.99 767.62 620.36
  Q 771.18 616.59 774.38 613.14
  A 0.74 0.73 44.7 0 1 775.45 613.14
  Q 814.34 654.53 851.69 694.81
  Q 852.48 695.66 852.81 697.17
  A 0.78 0.78 0.0 0 1 852.06 698.11
  L 842.20 698.27
  A 0.68 0.67 89.6 0 0 841.54 698.95
  L 841.54 772.99
  Z
  M 702.46 694.12
  A 0.33 0.33 0.0 0 0 702.70 694.67
  L 846.47 694.93
  A 0.33 0.33 0.0 0 0 846.71 694.37
  L 774.96 617.60
  A 0.33 0.33 0.0 0 0 774.48 617.60
  L 702.46 694.12
  Z
  M 752.67 907.93
  Q 752.74 889.23 752.61 836.58
  Q 752.60 829.39 753.26 825.52
  C 754.81 816.44 760.68 808.21 769.28 805.78
  C 781.90 802.21 793.19 809.08 797.17 820.83
  Q 798.69 825.33 798.66 834.21
  Q 798.55 864.73 798.56 907.51
  A 0.78 0.78 0.0 0 0 799.34 908.29
  L 837.67 908.29
  A 0.64 0.64 0.0 0 0 838.31 907.65
  L 838.31 699.58
  A 0.96 0.96 0.0 0 0 837.35 698.62
  L 713.49 698.62
  A 0.83 0.83 0.0 0 0 712.66 699.45
  L 712.66 907.78
  A 0.56 0.56 0.0 0 0 713.22 908.34
  L 752.27 908.34
  A 0.41 0.40 -90.0 0 0 752.67 907.93
  Z
  M 841.36 776.39
  A 0.31 0.31 0.0 0 0 841.14 776.69
  L 841.14 886.92
  A 0.31 0.31 0.0 0 0 841.54 887.22
  L 852.29 883.91
  A 0.31 0.31 0.0 0 0 852.51 883.61
  L 852.51 773.38
  A 0.31 0.31 0.0 0 0 852.11 773.08
  L 841.36 776.39
  Z
  M 699.05 773.09
  A 0.38 0.38 0.0 0 0 698.57 773.45
  L 698.57 883.55
  A 0.38 0.38 0.0 0 0 698.85 883.92
  L 709.21 886.84
  A 0.38 0.38 0.0 0 0 709.69 886.48
  L 709.69 776.38
  A 0.38 0.38 0.0 0 0 709.41 776.01
  L 699.05 773.09
  Z"
/>
<path fill="#fee11b" d="
  M 702.46 694.12
  L 774.48 617.60
  A 0.33 0.33 0.0 0 1 774.96 617.60
  L 846.71 694.37
  A 0.33 0.33 0.0 0 1 846.47 694.93
  L 702.70 694.67
  A 0.33 0.33 0.0 0 1 702.46 694.12
  Z"
/>
<path fill="#000000" d="
  M 540.63 709.22
  Q 540.82 708.62 541.66 708.38
  A 0.28 0.28 0.0 0 1 541.84 708.38
  L 555.41 712.21
  A 1.21 1.21 0.0 0 1 556.29 713.33
  Q 556.50 718.83 556.52 731.50
  Q 556.55 766.79 556.48 794.66
  C 556.46 805.94 556.87 815.73 556.18 827.11
  A 0.54 0.54 0.0 0 1 555.54 827.60
  Q 549.65 826.44 543.46 824.26
  Q 541.31 823.51 540.84 822.52
  A 0.39 0.39 0.0 0 0 540.09 822.68
  L 539.92 831.48
  A 0.63 0.63 0.0 0 1 539.29 832.10
  L 472.52 832.10
  A 0.66 0.65 -90.0 0 1 471.87 831.44
  L 471.87 672.58
  A 0.74 0.73 0.0 0 0 471.13 671.85
  L 464.09 671.85
  A 0.78 0.78 0.0 0 1 463.50 670.56
  L 505.45 621.45
  A 0.55 0.54 -44.7 0 1 506.28 621.45
  L 548.12 670.72
  A 0.60 0.59 -20.0 0 1 547.66 671.70
  L 541.24 671.70
  A 1.36 1.36 0.0 0 0 539.88 673.13
  Q 540.34 682.76 540.05 691.92
  C 539.87 697.66 540.25 701.62 540.59 709.22
  Q 540.59 709.36 540.63 709.22
  Z
  M 470.33 667.70
  A 0.54 0.54 0.0 0 0 470.74 668.59
  L 540.92 668.59
  A 0.54 0.54 0.0 0 0 541.33 667.70
  L 506.24 626.79
  A 0.54 0.54 0.0 0 0 505.42 626.79
  L 470.33 667.70
  Z
  M 536.43 674.99
  A 0.37 0.37 0.0 0 0 536.06 674.62
  L 475.58 674.62
  A 0.37 0.37 0.0 0 0 475.21 674.99
  L 475.21 828.51
  A 0.37 0.37 0.0 0 0 475.58 828.88
  L 536.06 828.88
  A 0.37 0.37 0.0 0 0 536.43 828.51
  L 536.43 674.99
  Z
  M 553.67 824.71
  A 0.53 0.53 0.0 0 0 554.34 824.20
  L 554.34 714.52
  A 0.53 0.53 0.0 0 0 553.95 714.01
  L 543.85 711.16
  A 0.53 0.53 0.0 0 0 543.18 711.67
  L 543.18 821.36
  A 0.53 0.53 0.0 0 0 543.57 821.87
  L 553.67 824.71
  Z"
/>
<path fill="#000000" d="
  M 1011.69 822.23
  C 1011.39 822.66 1011.13 823.40 1010.42 823.63
  Q 1003.60 825.84 996.67 827.52
  A 0.79 0.78 -6.7 0 1 995.70 826.76
  L 995.70 713.12
  A 0.92 0.91 84.7 0 1 996.44 712.22
  Q 1001.53 711.21 1009.75 708.67
  Q 1010.73 708.37 1011.11 709.07
  A 0.70 0.70 0.0 0 0 1012.42 708.71
  Q 1011.97 690.94 1012.48 673.27
  A 1.57 1.56 -89.3 0 0 1010.92 671.66
  L 1004.60 671.66
  A 0.72 0.72 0.0 0 1 1004.05 670.47
  L 1045.33 622.14
  A 1.08 1.07 -45.2 0 1 1046.95 622.13
  L 1088.71 670.55
  A 0.86 0.85 69.5 0 1 1088.07 671.97
  L 1081.41 671.97
  A 0.79 0.79 0.0 0 0 1080.62 672.76
  L 1080.62 831.98
  A 0.21 0.20 0.0 0 1 1080.41 832.18
  L 1012.62 832.18
  A 0.41 0.40 0.0 0 1 1012.21 831.78
  L 1012.21 822.40
  A 0.29 0.29 0.0 0 0 1011.69 822.23
  Z
  M 1010.61 668.03
  A 0.37 0.37 0.0 0 0 1010.89 668.64
  L 1081.66 668.51
  A 0.37 0.37 0.0 0 0 1081.94 667.90
  L 1046.48 626.67
  A 0.37 0.37 0.0 0 0 1045.92 626.68
  L 1010.61 668.03
  Z
  M 1077.10 675.22
  A 0.49 0.49 0.0 0 0 1076.61 674.73
  L 1016.25 674.73
  A 0.49 0.49 0.0 0 0 1015.76 675.22
  L 1015.76 828.42
  A 0.49 0.49 0.0 0 0 1016.25 828.91
  L 1076.61 828.91
  A 0.49 0.49 0.0 0 0 1077.10 828.42
  L 1077.10 675.22
  Z
  M 998.14 714.20
  A 0.47 0.47 0.0 0 0 997.81 714.65
  L 997.81 824.47
  A 0.47 0.47 0.0 0 0 998.42 824.92
  L 1008.94 821.68
  A 0.47 0.47 0.0 0 0 1009.27 821.23
  L 1009.27 711.42
  A 0.47 0.47 0.0 0 0 1008.66 710.97
  L 998.14 714.20
  Z"
/>
<path fill="#fee11b" d="
  M 470.33 667.70
  L 505.42 626.79
  A 0.54 0.54 0.0 0 1 506.24 626.79
  L 541.33 667.70
  A 0.54 0.54 0.0 0 1 540.92 668.59
  L 470.74 668.59
  A 0.54 0.54 0.0 0 1 470.33 667.70
  Z"
/>
<path fill="#fee11b" d="
  M 1010.61 668.03
  L 1045.92 626.68
  A 0.37 0.37 0.0 0 1 1046.48 626.67
  L 1081.94 667.90
  A 0.37 0.37 0.0 0 1 1081.66 668.51
  L 1010.89 668.64
  A 0.37 0.37 0.0 0 1 1010.61 668.03
  Z"
/>
<path fill="#fee11b" d="
  M 536.43 828.51
  A 0.37 0.37 0.0 0 1 536.06 828.88
  L 475.58 828.88
  A 0.37 0.37 0.0 0 1 475.21 828.51
  L 475.21 674.99
  A 0.37 0.37 0.0 0 1 475.58 674.62
  L 536.06 674.62
  A 0.37 0.37 0.0 0 1 536.43 674.99
  L 536.43 828.51
  Z
  M 491.83 736.92
  L 521.01 737.02
  A 1.22 1.22 0.0 0 0 522.23 735.81
  L 522.30 715.58
  A 32.93 15.70 -89.8 0 0 506.71 682.59
  L 506.49 682.59
  A 32.93 15.70 -89.8 0 0 490.68 715.46
  L 490.61 735.69
  A 1.22 1.22 0.0 0 0 491.83 736.92
  Z"
/>
<path fill="#fee11b" d="
  M 1077.10 828.42
  A 0.49 0.49 0.0 0 1 1076.61 828.91
  L 1016.25 828.91
  A 0.49 0.49 0.0 0 1 1015.76 828.42
  L 1015.76 675.22
  A 0.49 0.49 0.0 0 1 1016.25 674.73
  L 1076.61 674.73
  A 0.49 0.49 0.0 0 1 1077.10 675.22
  L 1077.10 828.42
  Z
  M 1031.36 737.04
  L 1061.78 737.10
  A 0.71 0.71 0.0 0 0 1062.49 736.39
  L 1062.53 716.00
  A 33.28 15.83 -89.9 0 0 1046.76 682.69
  L 1046.58 682.69
  A 33.28 15.83 -89.9 0 0 1030.69 715.94
  L 1030.65 736.33
  A 0.71 0.71 0.0 0 0 1031.36 737.04
  Z"
/>
<path fill="#000000" d="
  M 491.83 736.92
  A 1.22 1.22 0.0 0 1 490.61 735.69
  L 490.68 715.46
  A 32.93 15.70 -89.8 0 1 506.49 682.59
  L 506.71 682.59
  A 32.93 15.70 -89.8 0 1 522.30 715.58
  L 522.23 735.81
  A 1.22 1.22 0.0 0 1 521.01 737.02
  L 491.83 736.92
  Z
  M 495.00 733.69
  L 517.92 733.69
  A 0.82 0.82 0.0 0 0 518.74 732.87
  L 518.74 715.03
  A 28.76 12.28 90.0 0 0 506.46 686.27
  A 28.76 12.28 90.0 0 0 494.18 715.03
  L 494.18 732.87
  A 0.82 0.82 0.0 0 0 495.00 733.69
  Z"
/>
<path fill="#000000" d="
  M 1031.36 737.04
  A 0.71 0.71 0.0 0 1 1030.65 736.33
  L 1030.69 715.94
  A 33.28 15.83 -89.9 0 1 1046.58 682.69
  L 1046.76 682.69
  A 33.28 15.83 -89.9 0 1 1062.53 716.00
  L 1062.49 736.39
  A 0.71 0.71 0.0 0 1 1061.78 737.10
  L 1031.36 737.04
  Z
  M 1034.94 733.67
  L 1058.12 733.79
  A 0.69 0.69 0.0 0 0 1058.81 733.10
  L 1058.90 715.92
  A 29.43 12.28 -89.7 0 0 1046.77 686.43
  A 29.43 12.28 -89.7 0 0 1034.34 715.80
  L 1034.25 732.98
  A 0.69 0.69 0.0 0 0 1034.94 733.67
  Z"
/>
<path fill="#039c50" d="
  M 495.00 733.69
  A 0.82 0.82 0.0 0 1 494.18 732.87
  L 494.18 715.03
  A 28.76 12.28 90.0 0 1 506.46 686.27
  A 28.76 12.28 -90.0 0 1 518.74 715.03
  L 518.74 732.87
  A 0.82 0.82 0.0 0 1 517.92 733.69
  L 495.00 733.69
  Z"
/>
<path fill="#039c50" d="
  M 1034.94 733.67
  A 0.69 0.69 0.0 0 1 1034.25 732.98
  L 1034.34 715.80
  A 29.43 12.28 -89.7 0 1 1046.77 686.43
  A 29.43 12.28 -89.7 0 1 1058.90 715.92
  L 1058.81 733.10
  A 0.69 0.69 0.0 0 1 1058.12 733.79
  L 1034.94 733.67
  Z"
/>
<path fill="#fee11b" d="
  M 752.67 907.93
  A 0.41 0.40 -90.0 0 1 752.27 908.34
  L 713.22 908.34
  A 0.56 0.56 0.0 0 1 712.66 907.78
  L 712.66 699.45
  A 0.83 0.83 0.0 0 1 713.49 698.62
  L 837.35 698.62
  A 0.96 0.96 0.0 0 1 838.31 699.58
  L 838.31 907.65
  A 0.64 0.64 0.0 0 1 837.67 908.29
  L 799.34 908.29
  A 0.78 0.78 0.0 0 1 798.56 907.51
  Q 798.55 864.73 798.66 834.21
  Q 798.69 825.33 797.17 820.83
  C 793.19 809.08 781.90 802.21 769.28 805.78
  C 760.68 808.21 754.81 816.44 753.26 825.52
  Q 752.60 829.39 752.61 836.58
  Q 752.74 889.23 752.67 907.93
  Z
  M 758.09 782.44
  L 794.99 782.44
  A 0.56 0.56 0.0 0 0 795.55 781.88
  L 795.55 753.60
  A 42.46 19.00 90.0 0 0 776.55 711.14
  L 776.53 711.14
  A 42.46 19.00 -90.0 0 0 757.53 753.60
  L 757.53 781.88
  A 0.56 0.56 0.0 0 0 758.09 782.44
  Z"
/>
<path fill="#000000" d="
  M 758.09 782.44
  A 0.56 0.56 0.0 0 1 757.53 781.88
  L 757.53 753.60
  A 42.46 19.00 90.0 0 1 776.53 711.14
  L 776.55 711.14
  A 42.46 19.00 90.0 0 1 795.55 753.60
  L 795.55 781.88
  A 0.56 0.56 0.0 0 1 794.99 782.44
  L 758.09 782.44
  Z
  M 762.36 779.03
  L 790.54 779.13
  A 1.36 1.36 0.0 0 0 791.90 777.77
  L 791.98 754.27
  A 39.42 15.39 -89.8 0 0 776.73 714.80
  L 776.61 714.80
  A 39.42 15.39 -89.8 0 0 761.08 754.17
  L 761.00 777.67
  A 1.36 1.36 0.0 0 0 762.36 779.03
  Z"
/>
<path fill="#fee11b" d="
  M 553.67 824.71
  L 543.57 821.87
  A 0.53 0.53 0.0 0 1 543.18 821.36
  L 543.18 711.67
  A 0.53 0.53 0.0 0 1 543.85 711.16
  L 553.95 714.01
  A 0.53 0.53 0.0 0 1 554.34 714.52
  L 554.34 824.20
  A 0.53 0.53 0.0 0 1 553.67 824.71
  Z"
/>
<path fill="#fee11b" d="
  M 998.14 714.20
  L 1008.66 710.97
  A 0.47 0.47 0.0 0 1 1009.27 711.42
  L 1009.27 821.23
  A 0.47 0.47 0.0 0 1 1008.94 821.68
  L 998.42 824.92
  A 0.47 0.47 0.0 0 1 997.81 824.47
  L 997.81 714.65
  A 0.47 0.47 0.0 0 1 998.14 714.20
  Z"
/>
<path fill="#039c50" d="
  M 762.36 779.03
  A 1.36 1.36 0.0 0 1 761.00 777.67
  L 761.08 754.17
  A 39.42 15.39 -89.8 0 1 776.61 714.80
  L 776.73 714.80
  A 39.42 15.39 -89.8 0 1 791.98 754.27
  L 791.90 777.77
  A 1.36 1.36 0.0 0 1 790.54 779.13
  L 762.36 779.03
  Z"
/>
<path fill="#000000" d="
  M 574.87 835.26
  L 561.29 831.43
  A 1.13 1.13 0.0 0 1 560.47 830.34
  L 560.47 717.77
  A 1.13 1.13 0.0 0 1 561.82 716.66
  L 575.40 719.39
  A 1.13 1.13 0.0 0 1 576.31 720.50
  L 576.31 834.18
  A 1.13 1.13 0.0 0 1 574.87 835.26
  Z
  M 563.29 718.74
  A 0.54 0.54 0.0 0 0 562.60 719.26
  L 562.60 829.28
  A 0.54 0.54 0.0 0 0 562.99 829.80
  L 573.56 832.78
  A 0.54 0.54 0.0 0 0 574.25 832.26
  L 574.25 722.25
  A 0.54 0.54 0.0 0 0 573.86 721.73
  L 563.29 718.74
  Z"
/>
<path fill="#000000" d="
  M 991.07 831.46
  L 977.82 835.54
  A 1.18 1.18 0.0 0 1 976.29 834.41
  L 976.29 720.71
  A 1.18 1.18 0.0 0 1 977.22 719.56
  L 990.47 716.70
  A 1.18 1.18 0.0 0 1 991.90 717.85
  L 991.90 830.33
  A 1.18 1.18 0.0 0 1 991.07 831.46
  Z
  M 989.59 829.68
  A 0.31 0.31 0.0 0 0 989.81 829.38
  L 989.81 719.09
  A 0.31 0.31 0.0 0 0 989.41 718.79
  L 978.68 722.09
  A 0.31 0.31 0.0 0 0 978.46 722.39
  L 978.46 832.68
  A 0.31 0.31 0.0 0 0 978.86 832.98
  L 989.59 829.68
  Z"
/>
<path fill="#fee11b" d="
  M 563.29 718.74
  L 573.86 721.73
  A 0.54 0.54 0.0 0 1 574.25 722.25
  L 574.25 832.26
  A 0.54 0.54 0.0 0 1 573.56 832.78
  L 562.99 829.80
  A 0.54 0.54 0.0 0 1 562.60 829.28
  L 562.60 719.26
  A 0.54 0.54 0.0 0 1 563.29 718.74
  Z"
/>
<path fill="#fee11b" d="
  M 989.59 829.68
  L 978.86 832.98
  A 0.31 0.31 0.0 0 1 978.46 832.68
  L 978.46 722.39
  A 0.31 0.31 0.0 0 1 978.68 722.09
  L 989.41 718.79
  A 0.31 0.31 0.0 0 1 989.81 719.09
  L 989.81 829.38
  A 0.31 0.31 0.0 0 1 989.59 829.68
  Z"
/>
<path fill="#000000" d="
  M 594.34 842.98
  L 580.88 839.18
  A 1.09 1.09 0.0 0 1 580.09 838.13
  L 580.09 724.89
  A 1.09 1.09 0.0 0 1 581.48 723.84
  L 594.94 727.65
  A 1.09 1.09 0.0 0 1 595.73 728.69
  L 595.73 841.93
  A 1.09 1.09 0.0 0 1 594.34 842.98
  Z
  M 582.74 726.72
  A 0.37 0.37 0.0 0 0 582.30 727.08
  L 582.30 836.96
  A 0.37 0.37 0.0 0 0 582.57 837.32
  L 593.09 840.28
  A 0.37 0.37 0.0 0 0 593.56 839.92
  L 593.56 729.19
  A 0.37 0.37 0.0 0 0 593.26 728.83
  L 582.74 726.72
  Z"
/>
<path fill="#000000" d="
  M 957.20 727.83
  L 971.08 724.19
  A 0.84 0.84 0.0 0 1 972.13 725.00
  L 972.13 838.38
  A 0.84 0.84 0.0 0 1 971.50 839.19
  L 957.62 842.83
  A 0.84 0.84 0.0 0 1 956.57 842.02
  L 956.57 728.64
  A 0.84 0.84 0.0 0 1 957.20 727.83
  Z
  M 969.68 837.24
  A 0.34 0.34 0.0 0 0 969.92 836.92
  L 969.92 726.76
  A 0.34 0.34 0.0 0 0 969.48 726.44
  L 958.97 729.68
  A 0.34 0.34 0.0 0 0 958.73 730.00
  L 958.73 840.16
  A 0.34 0.34 0.0 0 0 959.17 840.48
  L 969.68 837.24
  Z"
/>
<path fill="#fee11b" d="
  M 582.74 726.72
  L 593.26 728.83
  A 0.37 0.37 0.0 0 1 593.56 729.19
  L 593.56 839.92
  A 0.37 0.37 0.0 0 1 593.09 840.28
  L 582.57 837.32
  A 0.37 0.37 0.0 0 1 582.30 836.96
  L 582.30 727.08
  A 0.37 0.37 0.0 0 1 582.74 726.72
  Z"
/>
<path fill="#fee11b" d="
  M 969.68 837.24
  L 959.17 840.48
  A 0.34 0.34 0.0 0 1 958.73 840.16
  L 958.73 730.00
  A 0.34 0.34 0.0 0 1 958.97 729.68
  L 969.48 726.44
  A 0.34 0.34 0.0 0 1 969.92 726.76
  L 969.92 836.92
  A 0.34 0.34 0.0 0 1 969.68 837.24
  Z"
/>
<path fill="#000000" d="
  M 600.67 731.70
  L 614.15 735.50
  A 1.06 1.06 0.0 0 1 614.92 736.52
  L 614.92 849.90
  A 1.06 1.06 0.0 0 1 613.57 850.92
  L 600.09 847.12
  A 1.06 1.06 0.0 0 1 599.32 846.10
  L 599.32 732.72
  A 1.06 1.06 0.0 0 1 600.67 731.70
  Z
  M 601.77 734.72
  A 0.30 0.30 0.0 0 0 601.41 735.02
  L 601.41 845.05
  A 0.30 0.30 0.0 0 0 601.63 845.34
  L 612.34 848.37
  A 0.30 0.30 0.0 0 0 612.72 848.08
  L 612.72 737.17
  A 0.30 0.30 0.0 0 0 612.48 736.87
  L 601.77 734.72
  Z"
/>
<path fill="#000000" d="
  M 937.93 735.89
  L 951.01 731.86
  A 1.19 1.19 0.0 0 1 952.55 733.00
  L 952.55 845.71
  A 1.19 1.19 0.0 0 1 951.71 846.85
  L 938.63 850.88
  A 1.19 1.19 0.0 0 1 937.09 849.74
  L 937.09 737.03
  A 1.19 1.19 0.0 0 1 937.93 735.89
  Z
  M 939.42 737.77
  A 0.39 0.39 0.0 0 0 939.14 738.14
  L 939.14 848.00
  A 0.39 0.39 0.0 0 0 939.64 848.37
  L 950.25 845.10
  A 0.39 0.39 0.0 0 0 950.53 844.73
  L 950.53 734.87
  A 0.39 0.39 0.0 0 0 950.03 734.50
  L 939.42 737.77
  Z"
/>
<path fill="#fee11b" d="
  M 601.77 734.72
  L 612.48 736.87
  A 0.30 0.30 0.0 0 1 612.72 737.17
  L 612.72 848.08
  A 0.30 0.30 0.0 0 1 612.34 848.37
  L 601.63 845.34
  A 0.30 0.30 0.0 0 1 601.41 845.05
  L 601.41 735.02
  A 0.30 0.30 0.0 0 1 601.77 734.72
  Z"
/>
<path fill="#fee11b" d="
  M 939.42 737.77
  L 950.03 734.50
  A 0.39 0.39 0.0 0 1 950.53 734.87
  L 950.53 844.73
  A 0.39 0.39 0.0 0 1 950.25 845.10
  L 939.64 848.37
  A 0.39 0.39 0.0 0 1 939.14 848.00
  L 939.14 738.14
  A 0.39 0.39 0.0 0 1 939.42 737.77
  Z"
/>
<path fill="#000000" d="
  M 633.20 858.82
  L 619.48 854.94
  A 1.06 1.06 0.0 0 1 618.71 853.92
  L 618.71 740.36
  A 1.06 1.06 0.0 0 1 620.06 739.34
  L 633.78 743.21
  A 1.06 1.06 0.0 0 1 634.55 744.23
  L 634.55 857.80
  A 1.06 1.06 0.0 0 1 633.20 858.82
  Z
  M 631.58 856.03
  A 0.55 0.55 0.0 0 0 632.28 855.50
  L 632.28 745.30
  A 0.55 0.55 0.0 0 0 631.88 744.77
  L 621.55 741.85
  A 0.55 0.55 0.0 0 0 620.85 742.38
  L 620.85 852.58
  A 0.55 0.55 0.0 0 0 621.25 853.11
  L 631.58 856.03
  Z"
/>
<path fill="#000000" d="
  M 918.33 743.22
  L 932.21 739.59
  A 0.93 0.93 0.0 0 1 933.38 740.48
  L 933.38 853.84
  A 0.93 0.93 0.0 0 1 932.72 854.73
  L 918.84 859.01
  A 0.93 0.93 0.0 0 1 917.64 858.12
  L 917.64 744.12
  A 0.93 0.93 0.0 0 1 918.33 743.22
  Z
  M 920.00 745.27
  A 0.48 0.48 0.0 0 0 919.66 745.72
  L 919.66 855.81
  A 0.48 0.48 0.0 0 0 920.28 856.27
  L 930.89 853.00
  A 0.48 0.48 0.0 0 0 931.23 852.55
  L 931.23 742.46
  A 0.48 0.48 0.0 0 0 930.61 742.00
  L 920.00 745.27
  Z"
/>
<path fill="#fee11b" d="
  M 631.58 856.03
  L 621.25 853.11
  A 0.55 0.55 0.0 0 1 620.85 852.58
  L 620.85 742.38
  A 0.55 0.55 0.0 0 1 621.55 741.85
  L 631.88 744.77
  A 0.55 0.55 0.0 0 1 632.28 745.30
  L 632.28 855.50
  A 0.55 0.55 0.0 0 1 631.58 856.03
  Z"
/>
<path fill="#fee11b" d="
  M 920.00 745.27
  L 930.61 742.00
  A 0.48 0.48 0.0 0 1 931.23 742.46
  L 931.23 852.55
  A 0.48 0.48 0.0 0 1 930.89 853.00
  L 920.28 856.27
  A 0.48 0.48 0.0 0 1 919.66 855.81
  L 919.66 745.72
  A 0.48 0.48 0.0 0 1 920.00 745.27
  Z"
/>
<path fill="#000000" d="
  M 652.41 866.81
  L 638.46 862.88
  A 0.86 0.86 0.0 0 1 637.83 862.05
  L 637.83 748.73
  A 0.86 0.86 0.0 0 1 638.86 747.89
  L 652.81 750.68
  A 0.86 0.86 0.0 0 1 653.50 751.52
  L 653.50 865.98
  A 0.86 0.86 0.0 0 1 652.41 866.81
  Z
  M 640.73 750.28
  A 0.64 0.64 0.0 0 0 639.96 750.91
  L 639.96 860.70
  A 0.64 0.64 0.0 0 0 640.43 861.31
  L 650.47 864.14
  A 0.64 0.64 0.0 0 0 651.28 863.52
  L 651.28 752.92
  A 0.64 0.64 0.0 0 0 650.77 752.30
  L 640.73 750.28
  Z"
/>
<path fill="#000000" d="
  M 898.18 751.02
  L 912.71 747.89
  A 0.51 0.51 0.0 0 1 913.33 748.39
  L 913.33 862.02
  A 0.51 0.51 0.0 0 1 912.97 862.51
  L 898.44 866.99
  A 0.51 0.51 0.0 0 1 897.78 866.50
  L 897.78 751.52
  A 0.51 0.51 0.0 0 1 898.18 751.02
  Z
  M 911.18 860.98
  A 0.37 0.37 0.0 0 0 911.44 860.63
  L 911.44 750.22
  A 0.37 0.37 0.0 0 0 910.96 749.87
  L 900.06 753.23
  A 0.37 0.37 0.0 0 0 899.80 753.58
  L 899.80 863.98
  A 0.37 0.37 0.0 0 0 900.28 864.33
  L 911.18 860.98
  Z"
/>
<path fill="#fee11b" d="
  M 911.18 860.98
  L 900.28 864.33
  A 0.37 0.37 0.0 0 1 899.80 863.98
  L 899.80 753.58
  A 0.37 0.37 0.0 0 1 900.06 753.23
  L 910.96 749.87
  A 0.37 0.37 0.0 0 1 911.44 750.22
  L 911.44 860.63
  A 0.37 0.37 0.0 0 1 911.18 860.98
  Z"
/>
<path fill="#fee11b" d="
  M 640.73 750.28
  L 650.77 752.30
  A 0.64 0.64 0.0 0 1 651.28 752.92
  L 651.28 863.52
  A 0.64 0.64 0.0 0 1 650.47 864.14
  L 640.43 861.31
  A 0.64 0.64 0.0 0 1 639.96 860.70
  L 639.96 750.91
  A 0.64 0.64 0.0 0 1 640.73 750.28
  Z"
/>
<path fill="#000000" d="
  M 893.18 870.26
  L 879.39 874.51
  A 0.91 0.91 0.0 0 1 878.21 873.64
  L 878.21 759.55
  A 0.91 0.91 0.0 0 1 878.89 758.67
  L 892.68 755.06
  A 0.91 0.91 0.0 0 1 893.82 755.94
  L 893.82 869.39
  A 0.91 0.91 0.0 0 1 893.18 870.26
  Z
  M 891.30 868.65
  A 0.47 0.47 0.0 0 0 891.63 868.20
  L 891.63 757.84
  A 0.47 0.47 0.0 0 0 891.02 757.39
  L 880.58 760.61
  A 0.47 0.47 0.0 0 0 880.25 761.06
  L 880.25 871.42
  A 0.47 0.47 0.0 0 0 880.86 871.87
  L 891.30 868.65
  Z"
/>
<path fill="#000000" d="
  M 658.38 755.28
  L 672.67 758.14
  A 0.73 0.73 0.0 0 1 673.26 758.86
  L 673.26 873.98
  A 0.73 0.73 0.0 0 1 672.33 874.68
  L 658.04 870.64
  A 0.73 0.73 0.0 0 1 657.51 869.94
  L 657.51 755.99
  A 0.73 0.73 0.0 0 1 658.38 755.28
  Z
  M 670.68 871.96
  A 0.49 0.49 0.0 0 0 671.30 871.49
  L 671.30 760.97
  A 0.49 0.49 0.0 0 0 670.94 760.50
  L 660.23 757.48
  A 0.49 0.49 0.0 0 0 659.61 757.95
  L 659.61 868.47
  A 0.49 0.49 0.0 0 0 659.97 868.94
  L 670.68 871.96
  Z"
/>
<path fill="#fee11b" d="
  M 891.30 868.65
  L 880.86 871.87
  A 0.47 0.47 0.0 0 1 880.25 871.42
  L 880.25 761.06
  A 0.47 0.47 0.0 0 1 880.58 760.61
  L 891.02 757.39
  A 0.47 0.47 0.0 0 1 891.63 757.84
  L 891.63 868.20
  A 0.47 0.47 0.0 0 1 891.30 868.65
  Z"
/>
<path fill="#fee11b" d="
  M 670.68 871.96
  L 659.97 868.94
  A 0.49 0.49 0.0 0 1 659.61 868.47
  L 659.61 757.95
  A 0.49 0.49 0.0 0 1 660.23 757.48
  L 670.94 760.50
  A 0.49 0.49 0.0 0 1 671.30 760.97
  L 671.30 871.49
  A 0.49 0.49 0.0 0 1 670.68 871.96
  Z"
/>
<path fill="#000000" d="
  M 691.94 881.27
  A 1.05 1.04 -73.2 0 1 690.67 881.96
  L 677.14 878.14
  A 0.92 0.92 0.0 0 1 676.47 877.19
  Q 677.02 869.52 676.97 858.02
  Q 676.80 818.34 677.01 763.74
  A 1.17 1.17 0.0 0 1 678.50 762.61
  L 691.77 766.35
  A 0.91 0.90 -81.9 0 1 692.42 767.22
  Q 692.41 768.54 692.50 779.69
  Q 692.75 809.94 692.46 876.27
  Q 692.45 879.66 691.94 881.27
  Z
  M 679.71 765.42
  A 0.54 0.54 0.0 0 0 679.06 765.95
  L 679.06 875.98
  A 0.54 0.54 0.0 0 0 679.45 876.50
  L 689.71 879.40
  A 0.54 0.54 0.0 0 0 690.40 878.88
  L 690.40 768.00
  A 0.54 0.54 0.0 0 0 689.97 767.47
  L 679.71 765.42
  Z"
/>
<path fill="#000000" d="
  M 859.49 766.38
  L 872.67 762.93
  A 1.15 1.15 0.0 0 1 874.11 764.04
  L 874.11 876.89
  A 1.15 1.15 0.0 0 1 873.30 877.99
  L 860.12 882.05
  A 1.15 1.15 0.0 0 1 858.63 880.95
  L 858.63 767.50
  A 1.15 1.15 0.0 0 1 859.49 766.38
  Z
  M 871.77 876.23
  A 0.38 0.38 0.0 0 0 872.04 875.87
  L 872.04 765.30
  A 0.38 0.38 0.0 0 0 871.55 764.94
  L 860.96 768.21
  A 0.38 0.38 0.0 0 0 860.69 768.57
  L 860.69 879.13
  A 0.38 0.38 0.0 0 0 861.18 879.49
  L 871.77 876.23
  Z"
/>
<path fill="#fee11b" d="
  M 871.77 876.23
  L 861.18 879.49
  A 0.38 0.38 0.0 0 1 860.69 879.13
  L 860.69 768.57
  A 0.38 0.38 0.0 0 1 860.96 768.21
  L 871.55 764.94
  A 0.38 0.38 0.0 0 1 872.04 765.30
  L 872.04 875.87
  A 0.38 0.38 0.0 0 1 871.77 876.23
  Z"
/>
<path fill="#fee11b" d="
  M 679.71 765.42
  L 689.97 767.47
  A 0.54 0.54 0.0 0 1 690.40 768.00
  L 690.40 878.88
  A 0.54 0.54 0.0 0 1 689.71 879.40
  L 679.45 876.50
  A 0.54 0.54 0.0 0 1 679.06 875.98
  L 679.06 765.95
  A 0.54 0.54 0.0 0 1 679.71 765.42
  Z"
/>
<path fill="#fee11b" d="
  M 841.36 776.39
  L 852.11 773.08
  A 0.31 0.31 0.0 0 1 852.51 773.38
  L 852.51 883.61
  A 0.31 0.31 0.0 0 1 852.29 883.91
  L 841.54 887.22
  A 0.31 0.31 0.0 0 1 841.14 886.92
  L 841.14 776.69
  A 0.31 0.31 0.0 0 1 841.36 776.39
  Z"
/>
<path fill="#fee11b" d="
  M 699.05 773.09
  L 709.41 776.01
  A 0.38 0.38 0.0 0 1 709.69 776.38
  L 709.69 886.48
  A 0.38 0.38 0.0 0 1 709.21 886.84
  L 698.85 883.92
  A 0.38 0.38 0.0 0 1 698.57 883.55
  L 698.57 773.45
  A 0.38 0.38 0.0 0 1 699.05 773.09
  Z"
/>
</svg>
