<svg xmlns="http://www.w3.org/2000/svg" viewBox="0 0 1514 1039"><g fill="none" stroke-width="2"><path stroke="#81c777" d="M1514 677.62H886.65" vector-effect="non-scaling-stroke"/><path stroke="#819a79" d="M886.65 677.62q-.13-.35-.84-.63" vector-effect="non-scaling-stroke"/><path stroke="#81c777" d="m885.81 676.99-.02-33.61a.65.65 0 0 0-.65-.65h-23.68a.83.82 86.9 0 1-.82-.74l-16.49-155.41a.76.76 0 0 1 .76-.83h16.03a.7.69-90 0 0 .69-.7V452.5a.4.4 0 0 0-.41-.41h-19.64a.6.59 86.7 0 1-.59-.53l-17.05-160.8a.54.54 0 0 1 .54-.6h15.28a.84.83 90 0 0 .83-.84v-24.24a.45.45 0 0 0-.45-.45h-18.32a.2.2 0 0 1-.22-.2l-16.78-158.19a.45.45 0 0 1 .45-.5h7.72a.97.97 0 0 0 .97-.97V86.45a.8.8 0 0 0-.78-.78h-9.45a.7.7 0 0 1-.7-.7v-6.65a1.6 1.6 0 0 0-1.06-1.48l-14.85-5.02a.64.63-83.8 0 0-.83.67l1.33 12.5a.6.58 87.3 0 1-.58.65h-45.12a.4.4 0 0 1-.39-.43l1.32-12.52a.57.57 0 0 0-.73-.61l-13.98 4.35a1.6 1.6 0 0 0-1.14 1.38l-.75 7.17a.6.6 0 0 1-.6.53h-10.09a.76.75 90 0 0-.75.76v18.8a.65.65 0 0 0 .65.65h7.58a.85.85 0 0 1 .84.94l-16.56 157.31a.71.7-86.8 0 1-.7.63h-17.78a.66.66 0 0 0-.66.66v24.51a.4.4 0 0 0 .41.41h15.48a.79.78-87 0 1 .78.87l-16.9 160.48a.6.6-87.2 0 1-.56.51h-19.54a.75.75 0 0 0-.75.75v32.28a.73.73 0 0 0 .73.73h16.45a.78.77-87 0 1 .76.86l-16.36 155.42a.66.66 0 0 1-.66.59H644.4a.9.9 0 0 0-.91.92q.03 18.25.01 33.16 0 .48.5.68" vector-effect="non-scaling-stroke"/><path stroke="#819a79" d="M644 677.43q-.15-.03-.02.2" vector-effect="non-scaling-stroke"/><path stroke="#81c777" d="M643.98 677.63 0 677.58" vector-effect="non-scaling-stroke"/><path stroke="#819a79" d="M420.77 280.7q-1.26 2.1-2.86 2.38a.54.53-9.7 0 1-.62-.43l-.51-2.86" vector-effect="non-scaling-stroke"/><path stroke="#81c777" d="M416.78 279.79q-.1-18.87-3.6-37.32-1.26-6.62-3.66-12.01l-.28-.6a.65.65 0 0 0-1.01.46l-1.25 10.45v.26c.86 5.99-.5 11.88-2.01 18.03" vector-effect="non-scaling-stroke"/><path stroke="#819a79" d="M404.97 259.06q-3.72-7.15-5.08-17.34-.77-5.77.73-10.06.47-1.32-.23-1.69-.64-.34-1.93-.08" vector-effect="non-scaling-stroke"/><path stroke="#81c777" d="M398.46 229.89c.13-3.98.09-7.98.57-11.85q1.02-8.28.13-17.72a1.39 1.37 12.4 0 0-.71-1.09l-.03-.02a.47.47 0 0 0-.7.41q-.25 9.94-6.45 17.96-1.23 1.6-4.97 5.96-8.31 9.68-7.64 22.96.28 5.5 3.41 15.77" vector-effect="non-scaling-stroke"/><path stroke="#819a79" d="M382.07 262.27q-.09 3.25-1.15 6.46a7.56 7.26-34.9 0 0-.33 1.65c-.17 2.05-.22 4.3-.93 6.92q-2.03 7.54-8.46 21.45-1.66 3.58-4.66 4.27" vector-effect="non-scaling-stroke"/><path stroke="#81c777" d="M366.54 303.02q-.61-11.81.47-23.53.89-9.66.29-13.57-.97-6.36-3.36-12.61-.77-2-1.98-3.29a.42.42 0 0 0-.7.14q-.95 2.48-.94 3.23.13 9.98.09 16.96a8.18 7.89-39.9 0 1-.16 1.49q-1.86 9.16-3.46 15.01-2.82 10.33-6.25 19-4.66 11.79-6.02 17.91-3.7 16.75-2.49 33.9c.44 6.22 2.02 13.2 3.83 19.01q9.51 30.47 36.63 47.07c6.64 4.07 17.26 8.42 25.49 13.57q4.02 2.52 8.1 4.96" vector-effect="non-scaling-stroke"/><path stroke="#819a79" d="M416.08 442.27q2.83 3.27 6.68 1.37" vector-effect="non-scaling-stroke"/><path stroke="#81c777" d="M422.76 443.64q10.84-2.03 21.38-8.52 16.54-10.18 30.03-21.68c11.23-9.57 21.42-20.19 27.27-34.24q4.54-10.89 4.88-11.88 6.23-18.28 6.34-37.31.13-20.78-2.47-36.98-.24-1.46-1.03-3.48a.78.78 0 0 0-1.49.11l-2.91 12.4a1.6 1.36-40.3 0 0-.04.24q-.33 6.7-3.93 12.91" vector-effect="non-scaling-stroke"/><path stroke="#819a79" d="M500.79 315.21q1.48-10.74 2.48-20.71.57-5.57-1.46-10.05-3.17-7.01-8.79-14.57a4.6 4.15-78.9 0 1-.48-.8q-1.7-3.55-4.29-6.95" vector-effect="non-scaling-stroke"/><path stroke="#81c777" d="M488.25 262.13q-4.04-6.39-4.64-14.65-.36-4.93-.19-10.98a.9.85 81.3 0 0-1.14-.89q-.35.13-.66.76-3.06 6.28-3.42 12.71a4.23 4.19 56 0 1-.21 1.11q-1.11 3.38-3.61 11.88-1.08 3.72-.94 5.68.57 7.46 2.81 14.57" vector-effect="non-scaling-stroke"/><path stroke="#819a79" d="M476.25 282.32c.36 5.82-3.81 11.09-7.66 15.25q-2.32 2.51-5.41 2.97" vector-effect="non-scaling-stroke"/><path stroke="#81c777" d="M463.18 300.54q1.29-6.43 1.96-17.3 1.61-25.96.8-38.69-.68-10.6-1.78-16.96a.7.7 0 0 0-1.38-.03q-.84 3.99-2.9 11.32c-.74 2.62-4.48 10.47-8.18 11.78" vector-effect="non-scaling-stroke"/><path stroke="#819a79" d="M451.7 250.66q-.64.03-.68-.47" vector-effect="non-scaling-stroke"/><path stroke="#81c777" d="M451.02 250.19q.2-2.41.09-4.94-.71-16.58-5.05-31.6-4.23-14.61-8.96-27.96-3.43-9.68-5.48-19.31c-2.11-9.86-.99-18.08.24-29.38q.02-.25-.07-.37a.63.59 44.6 0 0-.94-.02c-6.97 8.54-10.07 20.34-9.47 31.06q.8 14.17 1.8 18.48 4.33 18.69 5.5 34.86.27 3.72 1.15 14.99.11 1.39-.08 3.73-.76 8.94-2.06 17.81-1.79 12.25-6.92 23.16" vector-effect="non-scaling-stroke"/><path stroke="#febd06" d="M451.02 250.19q-.72.72-.64 1.46a.4.4 0 0 0 .61.28q.52-.36.71-1.27m11.48 49.88q-.75 4-2.17 7.94-1.08 3-1.92 5.47-3.59 10.54-3.92 11.85c-.67 2.66-1.76 4.05-3.23 6.72a6.04 5.77 67.2 0 0-.61 1.6c-1.27 5.58-4.53 10.46-6.49 15.46-3.93 10-6 14.92-9.41 24.77q-2.42 6.97-8.67 25.99a3.91 3.77 58 0 0-.2.95c-.54 5.65-1.91 10.52-2.21 16.13q-.23 4.46-.81 10.38-.06.58-.61.49-.54-.08-.6-.62c-1.3-10.8-4.19-19.38-8.41-30.23-1.43-3.7-1.89-6.74-2.68-9.98a5.75 5.51 25.3 0 0-.52-1.36q-2.7-4.93-4.3-10.71-1.46-5.26-3.22-10.5-4.44-13.2-5.33-17.96-1.21-6.46-2.9-17.95c-.9-6.09-.53-11.79-1.18-16.93a14.25 14.06 46.5 0 1 .08-4.1c.41-2.5.68-4.11.42-6.96q-.35-4.02.17-6.5 2.14-10.1 6.56-19.97 1.9-4.24 2.73-7.53 1.09-4.32 1.22-7.93" vector-effect="non-scaling-stroke"/><path stroke="#febd06" d="m416.78 279.79-.77 5.01a.88.88 0 0 0 1.22.95q1.59-.69 4.16-.79a.53.53 0 0 0 .09-1.04l-.18-.04a.71.63 12.3 0 1-.43-.59l-.1-2.59m55.48 1.62 1.55 6.05a2.06 1.97-53.2 0 1 .06.49c.02 6.66.75 13.58-.39 20.11a.3.29 72.4 0 0 .5.26c5.75-5.91 9.56-15.04 11.81-22.79a3 3 52.1 0 0 .12-.98l-.12-4.28a3.98 3.9-36.3 0 1 .24-1.46q1.11-3.03.6-5-2.06-7.91-2.37-12.59m12.54 53.08q-.26 5.08-2.37 8.97-2.08 3.82-8.36 9.38-1.39 1.23-6.7 10.03a.29.24 85.3 0 1-.05.07l-6.88 8.59a.66.66 0 0 1-1.17-.36l-.63-7.8a1.03.87 51.6 0 1 .01-.31q1.83-11.96-2.85-26.06a.97.97 0 0 0-1.82-.06q-.14.34-.17.9-.69 14.5-7.04 25.33a6.25 6.12 68.6 0 0-.64 1.51c-1.83 6.71-5.09 13.91-5.81 21.48-.39 4.23-1.64 7.67-2.61 11.22a6.23 5.87-36.2 0 0-.18.97c-.17 1.78-.08 3.13-.46 5.04q-2.24 11.27-6.21 21.56c-3.34 8.63-7.18 17.38-12.93 23.98q-4.09 4.71-12.09 12.99a.46.45-28 0 0-.13.4q.12.67 1.06.6m-6.68-1.37 2.85 1.02a.79.79 0 0 0 1.01-1.01q-.35-1.01-1.12-2.09-6.34-8.89-12.54-17.74c-4.07-5.82-6.96-13.13-9.91-20.02-1.88-4.39-2.99-10.08-4.57-14.86q-2.54-7.66-3.42-12.9-2.55-15.17-2.81-29.62c-.22-11.9 1.47-24.92-.74-36.94q-1.46-7.92-1.96-9.75a.53.52-49.9 0 0-1.03.09l-.56 5.59a1.36 1.14-39.8 0 1-.04.22q-2.21 8.24-4.67 16.21a23 23 0 0 1-5.88 9.57.61.61 0 0 1-1.03-.29q-2.99-13.05-3.12-26.73m31.92-73.13q-2.08 6.31-4.07 12.68-.82 2.65-2.33 5.55-2.56 4.9-1.82 10.89.68 5.55.33 12.47-.03.65-.7.62-.41-.02-.74-.46l-7.06-9.37" vector-effect="non-scaling-stroke"/><path stroke="#819a79" d="M1080.01 257.04q-.31 1.05-.48 1.07a1.4 1.4 0 0 1-1.51-.93q-2.97-8.74-4.18-17.55c-.47-3.37.02-5.99 2.02-8.51a.67.66-72.3 0 0-.55-1.08l-2.66.14" vector-effect="non-scaling-stroke"/><path stroke="#81c777" d="M1072.65 230.18q-.2-6.01.2-8.56 1.72-10.77.94-21.82a.75.75 0 0 0-.64-.69l-.02-.01a.58.57 6.2 0 0-.65.52q-.82 9.73-6.67 17.98-1.17 1.63-6.18 7.02c-2.8 3.02-5.2 8.08-5.72 13.22q-.86 8.52-.78 9.66.34 4.67 3.63 14.76" vector-effect="non-scaling-stroke"/><path stroke="#819a79" d="M1056.76 262.26q-1.91 10.94-2.54 13.72-2.84 12.53-9.34 25.34a1.42 1.4-89.2 0 1-.67.66q-1.42.68-2.96-.23" vector-effect="non-scaling-stroke"/><path stroke="#81c777" d="M1041.25 301.75q-.76-10.6-.18-14.73 1.63-11.61.38-23.11a27.4 27.4 0 0 0-5.06-13.41.84.84 0 0 0-1.44.13q-.22.45-.17 1.12c.42 6.2 1.07 15.8-.46 23.44q-1.6 7.96-2.25 10.13-2.72 9.12-3.35 11.66c-1.65 6.67-5.81 14.28-7.6 21.51q-3.46 13.95-4.14 26.83-.98 18.44 6.33 38.18a75 75 0 0 0 20.79 30.49q9.57 8.49 16.87 12.17 7.91 3.99 14.59 7.2c5.29 2.55 10.9 6.49 16.26 9.85" vector-effect="non-scaling-stroke"/><path stroke="#819a79" d="M1091.82 443.21q2.07 2.14 5.93.42" vector-effect="non-scaling-stroke"/><path stroke="#81c777" d="M1097.75 443.63q11.14-2.31 20.14-8 5.65-3.56 18.29-12.42c5.26-3.68 8.98-7.1 14.61-11.68q6.63-5.4 14.12-14.1 6.3-7.32 10.96-17.33 7.26-15.61 10.13-32.72 1.21-7.22 1.19-18.79-.03-12.14-.54-18.83-.37-4.94-1.86-14.77-.52-3.44-1.95-5.56a.65.65 0 0 0-1.18.28l-1.29 9.92a1.11.9-39.1 0 1-.05.24l-3.91 14.42" vector-effect="non-scaling-stroke"/><path stroke="#819a79" d="M1176.41 314.29q-1.34-.34-1.09-1.53c.75-3.55 1.7-7.5 1.58-11.21-.17-5.01 1.09-12.58-.99-18.79q-.54-1.64-4.82-7.68-4.13-5.83-7.77-12.38" vector-effect="non-scaling-stroke"/><path stroke="#81c777" d="M1163.32 262.7q-4.46-5.61-4.69-11.63-.5-13.09-.6-14.32-.09-1-.69-1.02a.73.72 14.5 0 0-.68.4l-1.8 3.56a9.11 8.96-27.9 0 0-.89 2.82q-1.41 10.16-4.93 19.13c-.67 1.71-1.44 5.25-1.23 6.59q1.1 7.22 2.97 14.35" vector-effect="non-scaling-stroke"/><path stroke="#819a79" d="M1150.78 282.58c.29 5.81-4.15 11.05-7.78 15.17q-2.27 2.58-5.24 3.4" vector-effect="non-scaling-stroke"/><path stroke="#81c777" d="M1137.76 301.15q1.48-7.25 1.56-9.15.47-11.02 1.04-18.15.53-6.61.38-12.19c-.24-8.61.39-15.67-.53-23.11q-.59-4.73-.91-10.83a.72.72 0 0 0-1.42-.13q-1.5 6.37-3.9 12.42c-1.15 2.91-4.79 9.69-7.77 10.82a.16.15-11.5 0 1-.22-.14q-.41-14.78-3.12-28.24-1.08-5.34-4.4-15.53a676 676 0 0 0-7.85-23.02q-2.75-7.69-4.51-15.74-1.68-7.7-1.55-12.39.29-11.18 1.55-18.44a.72.72 0 0 0-1.28-.55q-5.27 6.93-7.95 16.26-1.71 5.94-1.28 14.06.49 9.33 1.21 14.16c1.32 8.92 3.91 18.05 5.05 27.61q1.99 16.69 2.13 19.41 1.11 20.77-4.78 42.36-.82 2.98-2.09 5.86c-1.17 2.64-2.61 7.05-4.9 7.03a.72.71-3.2 0 1-.7-.62l-.66-14.53c-.58-12.83-1.95-26.81-7.43-38.21q-.12-.26-.36-.43a.53.52 20.9 0 0-.82.36q-1.01 8.7-.84 15.68c.1 3.77-.63 7.53-1.4 11.26" vector-effect="non-scaling-stroke"/><path stroke="#febd06" d="M1137.76 301.15q-1.17 6.26-3.05 10.31-2.37 5.11-3.03 9.06a5.66 5.19-32.2 0 1-.29 1.06c-1.89 5-4.65 12.56-7.2 17.87q-5.89 12.28-8.44 19.24c-2.5 6.83-5.57 11.93-7.64 19.16l-5.96 19.54a5.8 5.47 69.8 0 1-.44 1.03q-1.45 2.55-1.39 4.14.25 6.32-1.33 11.63a7.43 7.24-35.7 0 0-.3 1.69q-.59 9.21-.6 10.62-.01 1.12-.36 1.8a.36.35-38 0 1-.66-.08c-1.25-5.08-1.67-9.85-3.24-14.71q-1.75-5.4-3.03-10.98a5.98 5.9 26.2 0 0-.45-1.29l-3.27-6.78q-.64-1.32-2.01-8.32a5.6 5.27-64.3 0 0-.37-1.17q-5.23-11.85-9.02-25.82-2.95-10.84-3.41-12.94c-1.1-4.97-1.5-9.95-2.23-13.2-1.76-7.82-1.82-16.95-1.06-24.23.34-3.21-.66-5.9-.33-8.95q1.25-11.2 3.01-15.68 3.07-7.8 5.66-13.1 1.07-2.18 1.11-3.43.19-5.32 1.58-10.58m70.77 25.54.21 3.13a1.5 1.5 0 0 0 .34.87q.92 1.12 1.07 2.91.83 10.31.29 18.75a.33.33 0 0 0 .58.23q5.36-6.33 8.66-14.32 3.33-8.06 3.43-15.68.02-1.42-1.11-7.86-.67-3.82-.93-7.91m13.09 51.59q-1.36 5.77-4.49 10.78-1.64 2.63-5.56 6.73-2.92 3.06-5.44 6.88-4.74 7.19-10.49 13.64a.6.6 0 0 1-1.04-.39q-.2-6.75.14-11.13a54 54 0 0 0-3.04-23.39.53.53 0 0 0-1.03.1c-1.1 8.44-3.05 16.34-7.01 23.94q-3.58 6.87-5.56 16.89c-1.41 7.13-3.56 14.86-4.38 22.09-.66 5.84-2.79 11.46-4.43 16.39-.48 1.44-.57 3.38-1.16 4.94-2.48 6.48-4.38 12.26-8.09 18.57-3.82 6.47-5.47 9.3-10.74 14.02-2.64 2.37-5.13 5.39-7.18 7.77q-.61.69 0 1.33.25.25.84.18m-5.93-.42q1.65.48 2.46-.55a.71.7 47 0 0 .02-.85q-10.55-14.64-15.91-23.71-3.94-6.68-7.48-16.29-8.5-23.11-10.68-47.57c-.52-5.83-.26-14.9.09-24.46q.58-15.86-2.83-30.92a.68.68 0 0 0-1.34.11q-.46 8.32-3.84 16.82-1.12 2.83-1.23 3.72a17 17 0 0 1-5.82 10.45.83.83 0 0 1-1.36-.5q-1.64-10.7-2.7-19.96-.32-2.8.05-7.75m31.4-71.57-5.18 16.1a4.19 4.12-19.5 0 1-.51 1.05q-2.82 4.27-2.3 10.67.57 7 .42 14.25a.42.41 27.7 0 1-.75.23l-7.57-10.22M885.81 676.99q-120-.13-240.06-.02-.92 0-1.75.46" vector-effect="non-scaling-stroke"/><path stroke="#81c777" d="M805.54 264.63a.9.9 0 0 0 .89-.98l-16.68-157.2a.9.9 0 0 0-.88-.8H740.1a.9.9 0 0 0-.88.8l-16.56 157.2a.9.9 0 0 0 .89.98h81.99m19.84 187.52a.7.7 0 0 0 .69-.76L809.05 290.8a.7.7 0 0 0-.69-.62h-87.5a.7.7 0 0 0-.69.62l-16.9 160.59a.7.7 0 0 0 .69.76h121.42m19.66 190.58a.86.86 0 0 0 .86-.95l-16.47-155.27a.86.86 0 0 0-.85-.77H701.1a.86.86 0 0 0-.85.77L683.9 641.78a.86.86 0 0 0 .86.95h160.28" vector-effect="non-scaling-stroke"/><path stroke="#febd06" d="M886.65 677.62q-1.12.53-2.41.53l-208.99.03q-21.45 0-31.27-.55" vector-effect="non-scaling-stroke"/><path stroke="#908411" d="M1514 836.22c-11.88 4.02-23.82 10.53-34.19 16.15-13.5 7.3-26.65 10.91-41.35 8.04q-4.84-.95-13.35-4.69c-11.77-5.18-21.89-11.93-32.67-16.36q-7.5-3.09-10.91-3.6a57 57 0 0 0-33.6 4.97q-11.57 5.48-12.44 6.01-9.13 5.53-19.89 10.05-10.46 4.39-17.77 4.54-11.38.23-20.67-3.28-10.81-4.08-16.63-7.35-9.79-5.51-19.59-10.39-8.1-4.03-17.46-5.21c-10.17-1.27-22.16 1.21-31.08 5.56q-8.64 4.22-25.15 13.06-4.98 2.67-12.51 5.02c-10.88 3.4-20.43 3.3-31.45-.59q-11.6-4.09-17.66-7.57-10.26-5.9-22.34-11.85-8.85-4.35-16.53-5.08c-9.4-.88-18.86-.16-28.3 3.81q-9.94 4.19-13.79 6.23-11.69 6.17-17.38 9.1c-9.13 4.71-20.2 8.83-30.46 8.63-13.1-.24-24.72-5.54-35.32-12.59-6.91-4.61-11.81-7.29-18.54-10.01q-5.04-2.03-8.68-2.38-14.22-1.35-27.55 3.57c-6.89 2.54-12.04 4.21-18.08 7.04q-9.11 4.26-22.58 9.05-9.52 3.38-18.97 1.19-12.47-2.89-23.73-9.2c-7.35-4.13-10.93-5.7-18.68-9.69q-22.46-11.6-45.55-2.55-5.97 2.34-10.52 4.77c-15.31 8.18-20.83 11.88-32.82 15.7q-10.58 3.37-21.05 1.48-12.87-2.33-27.27-9.79-13.11-6.79-22.45-11.07-11.54-5.3-25.77-4.92c-7.61.2-14.89 2.73-21.36 5.91q-12.68 6.24-24.24 12.7-7.68 4.29-18.52 6.9c-9.64 2.32-18.53-.16-27.47-3.3q-5.19-1.81-13.12-6.39-10.05-5.8-17.65-9.71c-12.42-6.37-26.29-8.15-39.57-3.81q-9.17 3-11.05 3.97c-10.03 5.17-13.99 7.02-22.32 11.37q-10.31 5.39-21.94 7.88-9.51 2.03-19.46-.66-12.43-3.36-23.11-9.42c-8.09-4.59-17.8-9.49-24.66-12.26q-7.59-3.06-16.92-3.06c-5.52 0-9.53.04-14.32 1.41-10.97 3.14-18.16 7.61-32.12 15.03-13.63 7.24-28.32 12.75-43.42 8.13q-13.24-4.06-24.47-10.75c-9.08-5.4-17.14-9.7-24.31-12.2q-5.63-1.96-14.11-1.78c-6.16.14-11.54.52-17.37 2.3-20.98 6.41-39.44 20.45-60.78 23.68-10.73 1.62-22.89-.9-33.25-5.17-11.49-4.74-22.7-11.32-33.73-17.31" vector-effect="non-scaling-stroke"/></g><path fill="#04a4ea" d="M1514 0v677.62H886.65q-.13-.35-.84-.63l-.02-33.61a.65.65 0 0 0-.65-.65h-23.68a.83.82 86.9 0 1-.82-.74l-16.49-155.41a.76.76 0 0 1 .76-.83h16.03a.7.69-90 0 0 .69-.7V452.5a.4.4 0 0 0-.41-.41h-19.64a.6.59 86.7 0 1-.59-.53l-17.05-160.8a.54.54 0 0 1 .54-.6h15.28a.84.83 90 0 0 .83-.84v-24.24a.45.45 0 0 0-.45-.45h-18.32a.2.2 0 0 1-.22-.2l-16.78-158.19a.45.45 0 0 1 .45-.5h7.72a.97.97 0 0 0 .97-.97V86.45a.8.8 0 0 0-.78-.78h-9.45a.7.7 0 0 1-.7-.7v-6.65a1.6 1.6 0 0 0-1.06-1.48l-14.85-5.02a.64.63-83.8 0 0-.83.67l1.33 12.5a.6.58 87.3 0 1-.58.65h-45.12a.4.4 0 0 1-.39-.43l1.32-12.52a.57.57 0 0 0-.73-.61l-13.98 4.35a1.6 1.6 0 0 0-1.14 1.38l-.75 7.17a.6.6 0 0 1-.6.53h-10.09a.76.75 90 0 0-.75.76v18.8a.65.65 0 0 0 .65.65h7.58a.85.85 0 0 1 .84.94l-16.56 157.31a.71.7-86.8 0 1-.7.63h-17.78a.66.66 0 0 0-.66.66v24.51a.4.4 0 0 0 .41.41h15.48a.79.78-87 0 1 .78.87l-16.9 160.48a.6.6-87.2 0 1-.56.51h-19.54a.75.75 0 0 0-.75.75v32.28a.73.73 0 0 0 .73.73h16.45a.78.77-87 0 1 .76.86l-16.36 155.42a.66.66 0 0 1-.66.59H644.4a.9.9 0 0 0-.91.92q.03 18.25.01 33.16 0 .48.5.68-.15-.03-.02.2L0 677.58V0zM420.77 280.7q-1.26 2.1-2.86 2.38a.54.53-9.7 0 1-.62-.43l-.51-2.86q-.1-18.87-3.6-37.32-1.26-6.62-3.66-12.01l-.28-.6a.65.65 0 0 0-1.01.46l-1.25 10.45v.26c.86 5.99-.5 11.88-2.01 18.03q-3.72-7.15-5.08-17.34-.77-5.77.73-10.06.47-1.32-.23-1.69-.64-.34-1.93-.08c.13-3.98.09-7.98.57-11.85q1.02-8.28.13-17.72a1.39 1.37 12.4 0 0-.71-1.09l-.03-.02a.47.47 0 0 0-.7.41q-.25 9.94-6.45 17.96-1.23 1.6-4.97 5.96-8.31 9.68-7.64 22.96.28 5.5 3.41 15.77-.09 3.25-1.15 6.46a7.56 7.26-34.9 0 0-.33 1.65c-.17 2.05-.22 4.3-.93 6.92q-2.03 7.54-8.46 21.45-1.66 3.58-4.66 4.27-.61-11.81.47-23.53.89-9.66.29-13.57-.97-6.36-3.36-12.61-.77-2-1.98-3.29a.42.42 0 0 0-.7.14q-.95 2.48-.94 3.23.13 9.98.09 16.96a8.18 7.89-39.9 0 1-.16 1.49q-1.86 9.16-3.46 15.01-2.82 10.33-6.25 19-4.66 11.79-6.02 17.91-3.7 16.75-2.49 33.9c.44 6.22 2.02 13.2 3.83 19.01q9.51 30.47 36.63 47.07c6.64 4.07 17.26 8.42 25.49 13.57q4.02 2.52 8.1 4.96 2.83 3.27 6.68 1.37 10.84-2.03 21.38-8.52 16.54-10.18 30.03-21.68c11.23-9.57 21.42-20.19 27.27-34.24q4.54-10.89 4.88-11.88 6.23-18.28 6.34-37.31.13-20.78-2.47-36.98-.24-1.46-1.03-3.48a.78.78 0 0 0-1.49.11l-2.91 12.4a1.6 1.36-40.3 0 0-.04.24q-.33 6.7-3.93 12.91 1.48-10.74 2.48-20.71.57-5.57-1.46-10.05-3.17-7.01-8.79-14.57a4.6 4.15-78.9 0 1-.48-.8q-1.7-3.55-4.29-6.95-4.04-6.39-4.64-14.65-.36-4.93-.19-10.98a.9.85 81.3 0 0-1.14-.89q-.35.13-.66.76-3.06 6.28-3.42 12.71a4.23 4.19 56 0 1-.21 1.11q-1.11 3.38-3.61 11.88-1.08 3.72-.94 5.68.57 7.46 2.81 14.57c.36 5.82-3.81 11.09-7.66 15.25q-2.32 2.51-5.41 2.97 1.29-6.43 1.96-17.3 1.61-25.96.8-38.69-.68-10.6-1.78-16.96a.7.7 0 0 0-1.38-.03q-.84 3.99-2.9 11.32c-.74 2.62-4.48 10.47-8.18 11.78q-.64.03-.68-.47.2-2.41.09-4.94-.71-16.58-5.05-31.6-4.23-14.61-8.96-27.96-3.43-9.68-5.48-19.31c-2.11-9.86-.99-18.08.24-29.38q.02-.25-.07-.37a.63.59 44.6 0 0-.94-.02c-6.97 8.54-10.07 20.34-9.47 31.06q.8 14.17 1.8 18.48 4.33 18.69 5.5 34.86.27 3.72 1.15 14.99.11 1.39-.08 3.73-.76 8.94-2.06 17.81-1.79 12.25-6.92 23.16m659.24-23.66q-.31 1.05-.48 1.07a1.4 1.4 0 0 1-1.51-.93q-2.97-8.74-4.18-17.55c-.47-3.37.02-5.99 2.02-8.51a.67.66-72.3 0 0-.55-1.08l-2.66.14q-.2-6.01.2-8.56 1.72-10.77.94-21.82a.75.75 0 0 0-.64-.69l-.02-.01a.58.57 6.2 0 0-.65.52q-.82 9.73-6.67 17.98-1.17 1.63-6.18 7.02c-2.8 3.02-5.2 8.08-5.72 13.22q-.86 8.52-.78 9.66.34 4.67 3.63 14.76-1.91 10.94-2.54 13.72-2.84 12.53-9.34 25.34a1.42 1.4-89.2 0 1-.67.66q-1.42.68-2.96-.23-.76-10.6-.18-14.73 1.63-11.61.38-23.11a27.4 27.4 0 0 0-5.06-13.41.84.84 0 0 0-1.44.13q-.22.45-.17 1.12c.42 6.2 1.07 15.8-.46 23.44q-1.6 7.96-2.25 10.13-2.72 9.12-3.35 11.66c-1.65 6.67-5.81 14.28-7.6 21.51q-3.46 13.95-4.14 26.83-.98 18.44 6.33 38.18a75 75 0 0 0 20.79 30.49q9.57 8.49 16.87 12.17 7.91 3.99 14.59 7.2c5.29 2.55 10.9 6.49 16.26 9.85q2.07 2.14 5.93.42 11.14-2.31 20.14-8 5.65-3.56 18.29-12.42c5.26-3.68 8.98-7.1 14.61-11.68q6.63-5.4 14.12-14.1 6.3-7.32 10.96-17.33 7.26-15.61 10.13-32.72 1.21-7.22 1.19-18.79-.03-12.14-.54-18.83-.37-4.94-1.86-14.77-.52-3.44-1.95-5.56a.65.65 0 0 0-1.18.28l-1.29 9.92a1.11.9-39.1 0 1-.05.24l-3.91 14.42q-1.34-.34-1.09-1.53c.75-3.55 1.7-7.5 1.58-11.21-.17-5.01 1.09-12.58-.99-18.79q-.54-1.64-4.82-7.68-4.13-5.83-7.77-12.38-4.46-5.61-4.69-11.63-.5-13.09-.6-14.32-.09-1-.69-1.02a.73.72 14.5 0 0-.68.4l-1.8 3.56a9.11 8.96-27.9 0 0-.89 2.82q-1.41 10.16-4.93 19.13c-.67 1.71-1.44 5.25-1.23 6.59q1.1 7.22 2.97 14.35c.29 5.81-4.15 11.05-7.78 15.17q-2.27 2.58-5.24 3.4 1.48-7.25 1.56-9.15.47-11.02 1.04-18.15.53-6.61.38-12.19c-.24-8.61.39-15.67-.53-23.11q-.59-4.73-.91-10.83a.72.72 0 0 0-1.42-.13q-1.5 6.37-3.9 12.42c-1.15 2.91-4.79 9.69-7.77 10.82a.16.15-11.5 0 1-.22-.14q-.41-14.78-3.12-28.24-1.08-5.34-4.4-15.53a676 676 0 0 0-7.85-23.02q-2.75-7.69-4.51-15.74-1.68-7.7-1.55-12.39.29-11.18 1.55-18.44a.72.72 0 0 0-1.28-.55q-5.27 6.93-7.95 16.26-1.71 5.94-1.28 14.06.49 9.33 1.21 14.16c1.32 8.92 3.91 18.05 5.05 27.61q1.99 16.69 2.13 19.41 1.11 20.77-4.78 42.36-.82 2.98-2.09 5.86c-1.17 2.64-2.61 7.05-4.9 7.03a.72.71-3.2 0 1-.7-.62l-.66-14.53c-.58-12.83-1.95-26.81-7.43-38.21q-.12-.26-.36-.43a.53.52 20.9 0 0-.82.36q-1.01 8.7-.84 15.68c.1 3.77-.63 7.53-1.4 11.26"/><path fill="#fee904" d="M885.81 676.99q-120-.13-240.06-.02-.92 0-1.75.46-.5-.2-.5-.68.02-14.91-.01-33.16a.9.9 0 0 1 .91-.92h23.62a.66.66 0 0 0 .66-.59l16.36-155.42a.78.77-87 0 0-.76-.86h-16.45a.73.73 0 0 1-.73-.73v-32.28a.75.75 0 0 1 .75-.75h19.54a.6.6-87.2 0 0 .56-.51l16.9-160.48a.79.78-87 0 0-.78-.87h-15.48a.4.4 0 0 1-.41-.41v-24.51a.66.66 0 0 1 .66-.66h17.78a.71.7-86.8 0 0 .7-.63l16.56-157.31a.85.85 0 0 0-.84-.94h-7.58a.65.65 0 0 1-.65-.65v-18.8a.76.75-90 0 1 .75-.76h10.09a.6.6 0 0 0 .6-.53l.75-7.17a1.6 1.6 0 0 1 1.14-1.38l13.98-4.35a.57.57 0 0 1 .73.61l-1.32 12.52a.4.4 0 0 0 .39.43h45.12a.6.58 87.3 0 0 .58-.65l-1.33-12.5a.64.63-83.8 0 1 .83-.67l14.85 5.02a1.6 1.6 0 0 1 1.06 1.48v6.65a.7.7 0 0 0 .7.7h9.45a.8.8 0 0 1 .78.78v18.32a.97.97 0 0 1-.97.97h-7.72a.45.45 0 0 0-.45.5l16.78 158.19a.2.2 0 0 0 .22.2h18.32a.45.45 0 0 1 .45.45v24.24a.84.83 90 0 1-.83.84h-15.28a.54.54 0 0 0-.54.6l17.05 160.8a.6.59 86.7 0 0 .59.53h19.64a.4.4 0 0 1 .41.41v32.55a.7.69-90 0 1-.69.7h-16.03a.76.76 0 0 0-.76.83l16.49 155.41a.83.82 86.9 0 0 .82.74h23.68a.65.65 0 0 1 .65.65zm-80.27-412.36a.9.9 0 0 0 .89-.98l-16.68-157.2a.9.9 0 0 0-.88-.8H740.1a.9.9 0 0 0-.88.8l-16.56 157.2a.9.9 0 0 0 .89.98zm19.84 187.52a.7.7 0 0 0 .69-.76L809.05 290.8a.7.7 0 0 0-.69-.62h-87.5a.7.7 0 0 0-.69.62l-16.9 160.59a.7.7 0 0 0 .69.76zm19.66 190.58a.86.86 0 0 0 .86-.95l-16.47-155.27a.86.86 0 0 0-.85-.77H701.1a.86.86 0 0 0-.85.77L683.9 641.78a.86.86 0 0 0 .86.95z"/><path fill="#04a4ea" d="M805.54 264.63h-81.99a.9.9 0 0 1-.89-.98l16.56-157.2a.9.9 0 0 1 .88-.8h48.77a.9.9 0 0 1 .88.8l16.68 157.2a.9.9 0 0 1-.89.98"/><path fill="#fee904" d="M451.02 250.19q-.72.72-.64 1.46a.4.4 0 0 0 .61.28q.52-.36.71-1.27c3.7-1.31 7.44-9.16 8.18-11.78q2.06-7.33 2.9-11.32a.7.7 0 0 1 1.38.03q1.1 6.36 1.78 16.96.81 12.73-.8 38.69-.67 10.87-1.96 17.3-.75 4-2.17 7.94-1.08 3-1.92 5.47-3.59 10.54-3.92 11.85c-.67 2.66-1.76 4.05-3.23 6.72a6.04 5.77 67.2 0 0-.61 1.6c-1.27 5.58-4.53 10.46-6.49 15.46-3.93 10-6 14.92-9.41 24.77q-2.42 6.97-8.67 25.99a3.91 3.77 58 0 0-.2.95c-.54 5.65-1.91 10.52-2.21 16.13q-.23 4.46-.81 10.38-.06.58-.61.49-.54-.08-.6-.62c-1.3-10.8-4.19-19.38-8.41-30.23-1.43-3.7-1.89-6.74-2.68-9.98a5.75 5.51 25.3 0 0-.52-1.36q-2.7-4.93-4.3-10.71-1.46-5.26-3.22-10.5-4.44-13.2-5.33-17.96-1.21-6.46-2.9-17.95c-.9-6.09-.53-11.79-1.18-16.93a14.25 14.06 46.5 0 1 .08-4.1c.41-2.5.68-4.11.42-6.96q-.35-4.02.17-6.5 2.14-10.1 6.56-19.97 1.9-4.24 2.73-7.53 1.09-4.32 1.22-7.93c1.51-6.15 2.87-12.04 2.01-18.03v-.26l1.25-10.45a.65.65 0 0 1 1.01-.46l.28.6q2.4 5.39 3.66 12.01 3.5 18.45 3.6 37.32l-.77 5.01a.88.88 0 0 0 1.22.95q1.59-.69 4.16-.79a.53.53 0 0 0 .09-1.04l-.18-.04a.71.63 12.3 0 1-.43-.59l-.1-2.59q5.13-10.91 6.92-23.16 1.3-8.87 2.06-17.81.19-2.34.08-3.73-.88-11.27-1.15-14.99-1.17-16.17-5.5-34.86-1-4.31-1.8-18.48c-.6-10.72 2.5-22.52 9.47-31.06a.63.59 44.6 0 1 .94.02q.09.12.07.37c-1.23 11.3-2.35 19.52-.24 29.38q2.05 9.63 5.48 19.31 4.73 13.35 8.96 27.96 4.34 15.02 5.05 31.6.11 2.53-.09 4.94m686.74 50.96q-1.17 6.26-3.05 10.31-2.37 5.11-3.03 9.06a5.66 5.19-32.2 0 1-.29 1.06c-1.89 5-4.65 12.56-7.2 17.87q-5.89 12.28-8.44 19.24c-2.5 6.83-5.57 11.93-7.64 19.16l-5.96 19.54a5.8 5.47 69.8 0 1-.44 1.03q-1.45 2.55-1.39 4.14.25 6.32-1.33 11.63a7.43 7.24-35.7 0 0-.3 1.69q-.59 9.21-.6 10.62-.01 1.12-.36 1.8a.36.35-38 0 1-.66-.08c-1.25-5.08-1.67-9.85-3.24-14.71q-1.75-5.4-3.03-10.98a5.98 5.9 26.2 0 0-.45-1.29l-3.27-6.78q-.64-1.32-2.01-8.32a5.6 5.27-64.3 0 0-.37-1.17q-5.23-11.85-9.02-25.82-2.95-10.84-3.41-12.94c-1.1-4.97-1.5-9.95-2.23-13.2-1.76-7.82-1.82-16.95-1.06-24.23.34-3.21-.66-5.9-.33-8.95q1.25-11.2 3.01-15.68 3.07-7.8 5.66-13.1 1.07-2.18 1.11-3.43.19-5.32 1.58-10.58c.77-3.73 1.5-7.49 1.4-11.26q-.17-6.98.84-15.68a.53.52 20.9 0 1 .82-.36q.24.17.36.43c5.48 11.4 6.85 25.38 7.43 38.21l.66 14.53a.72.71-3.2 0 0 .7.62c2.29.02 3.73-4.39 4.9-7.03q1.27-2.88 2.09-5.86 5.89-21.59 4.78-42.36-.14-2.72-2.13-19.41c-1.14-9.56-3.73-18.69-5.05-27.61q-.72-4.83-1.21-14.16-.43-8.12 1.28-14.06 2.68-9.33 7.95-16.26a.72.72 0 0 1 1.28.55q-1.26 7.26-1.55 18.44-.13 4.69 1.55 12.39 1.76 8.05 4.51 15.74a676 676 0 0 1 7.85 23.02q3.32 10.19 4.4 15.53 2.71 13.46 3.12 28.24a.16.15-11.5 0 0 .22.14c2.98-1.13 6.62-7.91 7.77-10.82q2.4-6.05 3.9-12.42a.72.72 0 0 1 1.42.13q.32 6.1.91 10.83c.92 7.44.29 14.5.53 23.11q.15 5.58-.38 12.19-.57 7.13-1.04 18.15-.08 1.9-1.56 9.15m-739.3-71.26q-2.08 6.31-4.07 12.68-.82 2.65-2.33 5.55-2.56 4.9-1.82 10.89.68 5.55.33 12.47-.03.65-.7.62-.41-.02-.74-.46l-7.06-9.37q-3.13-10.27-3.41-15.77-.67-13.28 7.64-22.96 3.74-4.36 4.97-5.96 6.2-8.02 6.45-17.96a.47.47 0 0 1 .7-.41l.03.02a1.39 1.37 12.4 0 1 .71 1.09q.89 9.44-.13 17.72c-.48 3.87-.44 7.87-.57 11.85m674.19.29-5.18 16.1a4.19 4.12-19.5 0 1-.51 1.05q-2.82 4.27-2.3 10.67.57 7 .42 14.25a.42.41 27.7 0 1-.75.23l-7.57-10.22q-3.29-10.09-3.63-14.76-.08-1.14.78-9.66c.52-5.14 2.92-10.2 5.72-13.22q5.01-5.39 6.18-7.02 5.85-8.25 6.67-17.98a.58.57 6.2 0 1 .65-.52l.02.01a.75.75 0 0 1 .64.69q.78 11.05-.94 21.82-.4 2.55-.2 8.56"/><path fill="#fd9008" d="M404.97 259.06q-.13 3.61-1.22 7.93-.83 3.29-2.73 7.53-4.42 9.87-6.56 19.97-.52 2.48-.17 6.5c.26 2.85-.01 4.46-.42 6.96a14.25 14.06 46.5 0 0-.08 4.1c.65 5.14.28 10.84 1.18 16.93q1.69 11.49 2.9 17.95.89 4.76 5.33 17.96 1.76 5.24 3.22 10.5 1.6 5.78 4.3 10.71a5.75 5.51 25.3 0 1 .52 1.36c.79 3.24 1.25 6.28 2.68 9.98 4.22 10.85 7.11 19.43 8.41 30.23q.06.54.6.62.55.09.61-.49.58-5.92.81-10.38c.3-5.61 1.67-10.48 2.21-16.13a3.91 3.77 58 0 1 .2-.95q6.25-19.02 8.67-25.99c3.41-9.85 5.48-14.77 9.41-24.77 1.96-5 5.22-9.88 6.49-15.46a6.04 5.77 67.2 0 1 .61-1.6c1.47-2.67 2.56-4.06 3.23-6.72q.33-1.31 3.92-11.85.84-2.47 1.92-5.47 1.42-3.94 2.17-7.94 3.09-.46 5.41-2.97c3.85-4.16 8.02-9.43 7.66-15.25l1.55 6.05a2.06 1.97-53.2 0 1 .06.49c.02 6.66.75 13.58-.39 20.11a.3.29 72.4 0 0 .5.26c5.75-5.91 9.56-15.04 11.81-22.79a3 3 52.1 0 0 .12-.98l-.12-4.28a3.98 3.9-36.3 0 1 .24-1.46q1.11-3.03.6-5-2.06-7.91-2.37-12.59 2.59 3.4 4.29 6.95a4.6 4.15-78.9 0 0 .48.8q5.62 7.56 8.79 14.57 2.03 4.48 1.46 10.05-1 9.97-2.48 20.71-.26 5.08-2.37 8.97-2.08 3.82-8.36 9.38-1.39 1.23-6.7 10.03a.29.24 85.3 0 1-.05.07l-6.88 8.59a.66.66 0 0 1-1.17-.36l-.63-7.8a1.03.87 51.6 0 1 .01-.31q1.83-11.96-2.85-26.06a.97.97 0 0 0-1.82-.06q-.14.34-.17.9-.69 14.5-7.04 25.33a6.25 6.12 68.6 0 0-.64 1.51c-1.83 6.71-5.09 13.91-5.81 21.48-.39 4.23-1.64 7.67-2.61 11.22a6.23 5.87-36.2 0 0-.18.97c-.17 1.78-.08 3.13-.46 5.04q-2.24 11.27-6.21 21.56c-3.34 8.63-7.18 17.38-12.93 23.98q-4.09 4.71-12.09 12.99a.46.45-28 0 0-.13.4q.12.67 1.06.6-3.85 1.9-6.68-1.37l2.85 1.02a.79.79 0 0 0 1.01-1.01q-.35-1.01-1.12-2.09-6.34-8.89-12.54-17.74c-4.07-5.82-6.96-13.13-9.91-20.02-1.88-4.39-2.99-10.08-4.57-14.86q-2.54-7.66-3.42-12.9-2.55-15.17-2.81-29.62c-.22-11.9 1.47-24.92-.74-36.94q-1.46-7.92-1.96-9.75a.53.52-49.9 0 0-1.03.09l-.56 5.59a1.36 1.14-39.8 0 1-.04.22q-2.21 8.24-4.67 16.21a23 23 0 0 1-5.88 9.57.61.61 0 0 1-1.03-.29q-2.99-13.05-3.12-26.73 3-.69 4.66-4.27 6.43-13.91 8.46-21.45c.71-2.62.76-4.87.93-6.92a7.56 7.26-34.9 0 1 .33-1.65q1.06-3.21 1.15-6.46l7.06 9.37q.33.44.74.46.67.03.7-.62.35-6.92-.33-12.47-.74-5.99 1.82-10.89 1.51-2.9 2.33-5.55 1.99-6.37 4.07-12.68 1.29-.26 1.93.08.7.37.23 1.69-1.5 4.29-.73 10.06 1.36 10.19 5.08 17.34m667.68-28.88 2.66-.14a.67.66-72.3 0 1 .55 1.08c-2 2.52-2.49 5.14-2.02 8.51q1.21 8.81 4.18 17.55a1.4 1.4 0 0 0 1.51.93q.17-.02.48-1.07-1.39 5.26-1.58 10.58-.04 1.25-1.11 3.43-2.59 5.3-5.66 13.1-1.76 4.48-3.01 15.68c-.33 3.05.67 5.74.33 8.95-.76 7.28-.7 16.41 1.06 24.23.73 3.25 1.13 8.23 2.23 13.2q.46 2.1 3.41 12.94 3.79 13.97 9.02 25.82a5.6 5.27-64.3 0 1 .37 1.17q1.37 7 2.01 8.32l3.27 6.78a5.98 5.9 26.2 0 1 .45 1.29q1.28 5.58 3.03 10.98c1.57 4.86 1.99 9.63 3.24 14.71a.36.35-38 0 0 .66.08q.35-.68.36-1.8.01-1.41.6-10.62a7.43 7.24-35.7 0 1 .3-1.69q1.58-5.31 1.33-11.63-.06-1.59 1.39-4.14a5.8 5.47 69.8 0 0 .44-1.03l5.96-19.54c2.07-7.23 5.14-12.33 7.64-19.16q2.55-6.96 8.44-19.24c2.55-5.31 5.31-12.87 7.2-17.87a5.66 5.19-32.2 0 0 .29-1.06q.66-3.95 3.03-9.06 1.88-4.05 3.05-10.31 2.97-.82 5.24-3.4c3.63-4.12 8.07-9.36 7.78-15.17l.21 3.13a1.5 1.5 0 0 0 .34.87q.92 1.12 1.07 2.91.83 10.31.29 18.75a.33.33 0 0 0 .58.23q5.36-6.33 8.66-14.32 3.33-8.06 3.43-15.68.02-1.42-1.11-7.86-.67-3.82-.93-7.91 3.64 6.55 7.77 12.38 4.28 6.04 4.82 7.68c2.08 6.21.82 13.78.99 18.79.12 3.71-.83 7.66-1.58 11.21q-.25 1.19 1.09 1.53-1.36 5.77-4.49 10.78-1.64 2.63-5.56 6.73-2.92 3.06-5.44 6.88-4.74 7.19-10.49 13.64a.6.6 0 0 1-1.04-.39q-.2-6.75.14-11.13a54 54 0 0 0-3.04-23.39.53.53 0 0 0-1.03.1c-1.1 8.44-3.05 16.34-7.01 23.94q-3.58 6.87-5.56 16.89c-1.41 7.13-3.56 14.86-4.38 22.09-.66 5.84-2.79 11.46-4.43 16.39-.48 1.44-.57 3.38-1.16 4.94-2.48 6.48-4.38 12.26-8.09 18.57-3.82 6.47-5.47 9.3-10.74 14.02-2.64 2.37-5.13 5.39-7.18 7.77q-.61.69 0 1.33.25.25.84.18-3.86 1.72-5.93-.42 1.65.48 2.46-.55a.71.7 47 0 0 .02-.85q-10.55-14.64-15.91-23.71-3.94-6.68-7.48-16.29-8.5-23.11-10.68-47.57c-.52-5.83-.26-14.9.09-24.46q.58-15.86-2.83-30.92a.68.68 0 0 0-1.34.11q-.46 8.32-3.84 16.82-1.12 2.83-1.23 3.72a17 17 0 0 1-5.82 10.45.83.83 0 0 1-1.36-.5q-1.64-10.7-2.7-19.96-.32-2.8.05-7.75 1.54.91 2.96.23a1.42 1.4-89.2 0 0 .67-.66q6.5-12.81 9.34-25.34.63-2.78 2.54-13.72l7.57 10.22a.42.41 27.7 0 0 .75-.23q.15-7.25-.42-14.25-.52-6.4 2.3-10.67a4.19 4.12-19.5 0 0 .51-1.05z"/><path fill="#fee904" d="M488.25 262.13q.31 4.68 2.37 12.59.51 1.97-.6 5a3.98 3.9-36.3 0 0-.24 1.46l.12 4.28a3 3 52.1 0 1-.12.98c-2.25 7.75-6.06 16.88-11.81 22.79a.3.29 72.4 0 1-.5-.26c1.14-6.53.41-13.45.39-20.11a2.06 1.97-53.2 0 0-.06-.49l-1.55-6.05q-2.24-7.11-2.81-14.57-.14-1.96.94-5.68 2.5-8.5 3.61-11.88a4.23 4.19 56 0 0 .21-1.11q.36-6.43 3.42-12.71.31-.63.66-.76a.9.85 81.3 0 1 1.14.89q-.17 6.05.19 10.98.6 8.26 4.64 14.65m675.07.57q.26 4.09.93 7.91 1.13 6.44 1.11 7.86-.1 7.62-3.43 15.68-3.3 7.99-8.66 14.32a.33.33 0 0 1-.58-.23q.54-8.44-.29-18.75-.15-1.79-1.07-2.91a1.5 1.5 0 0 1-.34-.87l-.21-3.13q-1.87-7.13-2.97-14.35c-.21-1.34.56-4.88 1.23-6.59q3.52-8.97 4.93-19.13a9.11 8.96-27.9 0 1 .89-2.82l1.8-3.56a.73.72 14.5 0 1 .68-.4q.6.02.69 1.02.1 1.23.6 14.32.23 6.02 4.69 11.63m-796.78 40.32q.13 13.68 3.12 26.73a.61.61 0 0 0 1.03.29 23 23 0 0 0 5.88-9.57q2.46-7.97 4.67-16.21a1.36 1.14-39.8 0 0 .04-.22l.56-5.59a.53.52-49.9 0 1 1.03-.09q.5 1.83 1.96 9.75c2.21 12.02.52 25.04.74 36.94q.26 14.45 2.81 29.62.88 5.24 3.42 12.9c1.58 4.78 2.69 10.47 4.57 14.86 2.95 6.89 5.84 14.2 9.91 20.02q6.2 8.85 12.54 17.74.77 1.08 1.12 2.09a.79.79 0 0 1-1.01 1.01l-2.85-1.02q-4.08-2.44-8.1-4.96c-8.23-5.15-18.85-9.5-25.49-13.57q-27.12-16.6-36.63-47.07c-1.81-5.81-3.39-12.79-3.83-19.01q-1.21-17.15 2.49-33.9 1.36-6.12 6.02-17.91 3.43-8.67 6.25-19 1.6-5.85 3.46-15.01a8.18 7.89-39.9 0 0 .16-1.49q.04-6.98-.09-16.96-.01-.75.94-3.23a.42.42 0 0 1 .7-.14q1.21 1.29 1.98 3.29 2.39 6.25 3.36 12.61.6 3.91-.29 13.57-1.08 11.72-.47 23.53"/><path fill="#fd9008" d="M451.02 250.19q.04.5.68.47-.19.91-.71 1.27a.4.4 0 0 1-.61-.28q-.08-.74.64-1.46"/><path fill="#fee904" d="M1041.25 301.75q-.37 4.95-.05 7.75 1.06 9.26 2.7 19.96a.83.83 0 0 0 1.36.5 17 17 0 0 0 5.82-10.45q.11-.89 1.23-3.72 3.38-8.5 3.84-16.82a.68.68 0 0 1 1.34-.11q3.41 15.06 2.83 30.92c-.35 9.56-.61 18.63-.09 24.46q2.18 24.46 10.68 47.57 3.54 9.61 7.48 16.29 5.36 9.07 15.91 23.71a.71.7 47 0 1-.02.85q-.81 1.03-2.46.55c-5.36-3.36-10.97-7.3-16.26-9.85q-6.68-3.21-14.59-7.2-7.3-3.68-16.87-12.17a75 75 0 0 1-20.79-30.49q-7.31-19.74-6.33-38.18.68-12.88 4.14-26.83c1.79-7.23 5.95-14.84 7.6-21.51q.63-2.54 3.35-11.66.65-2.17 2.25-10.13c1.53-7.64.88-17.24.46-23.44q-.05-.67.17-1.12a.84.84 0 0 1 1.44-.13 27.4 27.4 0 0 1 5.06 13.41q1.25 11.5-.38 23.11-.58 4.13.18 14.73"/><path fill="#fd9008" d="m420.77 280.7.1 2.59a.71.63 12.3 0 0 .43.59l.18.04a.53.53 0 0 1-.09 1.04q-2.57.1-4.16.79a.88.88 0 0 1-1.22-.95l.77-5.01.51 2.86a.54.53-9.7 0 0 .62.43q1.6-.28 2.86-2.38"/><path fill="#fee904" d="M422.76 443.64q-.94.07-1.06-.6a.46.45-28 0 1 .13-.4q8-8.28 12.09-12.99c5.75-6.6 9.59-15.35 12.93-23.98q3.97-10.29 6.21-21.56c.38-1.91.29-3.26.46-5.04a6.23 5.87-36.2 0 1 .18-.97c.97-3.55 2.22-6.99 2.61-11.22.72-7.57 3.98-14.77 5.81-21.48a6.25 6.12 68.6 0 1 .64-1.51q6.35-10.83 7.04-25.33.03-.56.17-.9a.97.97 0 0 1 1.82.06q4.68 14.1 2.85 26.06a1.03.87 51.6 0 0-.01.31l.63 7.8a.66.66 0 0 0 1.17.36l6.88-8.59a.29.24 85.3 0 0 .05-.07q5.31-8.8 6.7-10.03 6.28-5.56 8.36-9.38 2.11-3.89 2.37-8.97 3.6-6.21 3.93-12.91a1.6 1.36-40.3 0 1 .04-.24l2.91-12.4a.78.78 0 0 1 1.49-.11q.79 2.02 1.03 3.48 2.6 16.2 2.47 36.98-.11 19.03-6.34 37.31-.34.99-4.88 11.88c-5.85 14.05-16.04 24.67-27.27 34.24q-13.49 11.5-30.03 21.68-10.54 6.49-21.38 8.52m674.99-.01q-.59.07-.84-.18-.61-.64 0-1.33c2.05-2.38 4.54-5.4 7.18-7.77 5.27-4.72 6.92-7.55 10.74-14.02 3.71-6.31 5.61-12.09 8.09-18.57.59-1.56.68-3.5 1.16-4.94 1.64-4.93 3.77-10.55 4.43-16.39.82-7.23 2.97-14.96 4.38-22.09q1.98-10.02 5.56-16.89c3.96-7.6 5.91-15.5 7.01-23.94a.53.53 0 0 1 1.03-.1 54 54 0 0 1 3.04 23.39q-.34 4.38-.14 11.13a.6.6 0 0 0 1.04.39q5.75-6.45 10.49-13.64 2.52-3.82 5.44-6.88 3.92-4.1 5.56-6.73 3.13-5.01 4.49-10.78l3.91-14.42a1.11.9-39.1 0 0 .05-.24l1.29-9.92a.65.65 0 0 1 1.18-.28q1.43 2.12 1.95 5.56 1.49 9.83 1.86 14.77.51 6.69.54 18.83.02 11.57-1.19 18.79-2.87 17.11-10.13 32.72-4.66 10.01-10.96 17.33-7.49 8.7-14.12 14.1c-5.63 4.58-9.35 8-14.61 11.68q-12.64 8.86-18.29 12.42-9 5.69-20.14 8"/><path fill="#04a4ea" d="M825.38 452.15H703.96a.7.7 0 0 1-.69-.76l16.9-160.59a.7.7 0 0 1 .69-.62h87.5a.7.7 0 0 1 .69.62l17.02 160.59a.7.7 0 0 1-.69.76m19.66 190.58H684.76a.86.86 0 0 1-.86-.95l16.35-155.27a.86.86 0 0 1 .85-.77h127.48a.86.86 0 0 1 .85.77l16.47 155.27a.86.86 0 0 1-.86.95"/><path fill="#fd9008" d="M886.65 677.62q-1.12.53-2.41.53l-208.99.03q-21.45 0-31.27-.55-.13-.23.02-.2.83-.46 1.75-.46 120.06-.11 240.06.02.71.28.84.63"/><path fill="#fee904" d="M643.98 677.63q9.82.55 31.27.55l208.99-.03q1.29 0 2.41-.53H1514v158.6c-11.88 4.02-23.82 10.53-34.19 16.15-13.5 7.3-26.65 10.91-41.35 8.04q-4.84-.95-13.35-4.69c-11.77-5.18-21.89-11.93-32.67-16.36q-7.5-3.09-10.91-3.6a57 57 0 0 0-33.6 4.97q-11.57 5.48-12.44 6.01-9.13 5.53-19.89 10.05-10.46 4.39-17.77 4.54-11.38.23-20.67-3.28-10.81-4.08-16.63-7.35-9.79-5.51-19.59-10.39-8.1-4.03-17.46-5.21c-10.17-1.27-22.16 1.21-31.08 5.56q-8.64 4.22-25.15 13.06-4.98 2.67-12.51 5.02c-10.88 3.4-20.43 3.3-31.45-.59q-11.6-4.09-17.66-7.57-10.26-5.9-22.34-11.85-8.85-4.35-16.53-5.08c-9.4-.88-18.86-.16-28.3 3.81q-9.94 4.19-13.79 6.23-11.69 6.17-17.38 9.1c-9.13 4.71-20.2 8.83-30.46 8.63-13.1-.24-24.72-5.54-35.32-12.59-6.91-4.61-11.81-7.29-18.54-10.01q-5.04-2.03-8.68-2.38-14.22-1.35-27.55 3.57c-6.89 2.54-12.04 4.21-18.08 7.04q-9.11 4.26-22.58 9.05-9.52 3.38-18.97 1.19-12.47-2.89-23.73-9.2c-7.35-4.13-10.93-5.7-18.68-9.69q-22.46-11.6-45.55-2.55-5.97 2.34-10.52 4.77c-15.31 8.18-20.83 11.88-32.82 15.7q-10.58 3.37-21.05 1.48-12.87-2.33-27.27-9.79-13.11-6.79-22.45-11.07-11.54-5.3-25.77-4.92c-7.61.2-14.89 2.73-21.36 5.91q-12.68 6.24-24.24 12.7-7.68 4.29-18.52 6.9c-9.64 2.32-18.53-.16-27.47-3.3q-5.19-1.81-13.12-6.39-10.05-5.8-17.65-9.71c-12.42-6.37-26.29-8.15-39.57-3.81q-9.17 3-11.05 3.97c-10.03 5.17-13.99 7.02-22.32 11.37q-10.31 5.39-21.94 7.88-9.51 2.03-19.46-.66-12.43-3.36-23.11-9.42c-8.09-4.59-17.8-9.49-24.66-12.26q-7.59-3.06-16.92-3.06c-5.52 0-9.53.04-14.32 1.41-10.97 3.14-18.16 7.61-32.12 15.03-13.63 7.24-28.32 12.75-43.42 8.13q-13.24-4.06-24.47-10.75c-9.08-5.4-17.14-9.7-24.31-12.2q-5.63-1.96-14.11-1.78c-6.16.14-11.54.52-17.37 2.3-20.98 6.41-39.44 20.45-60.78 23.68-10.73 1.62-22.89-.9-33.25-5.17-11.49-4.74-22.7-11.32-33.73-17.31v-157.9z"/><path fill="#211e1e" d="M1514 836.22V1039H0V835.48c11.03 5.99 22.24 12.57 33.73 17.31 10.36 4.27 22.52 6.79 33.25 5.17 21.34-3.23 39.8-17.27 60.78-23.68 5.83-1.78 11.21-2.16 17.37-2.3q8.48-.18 14.11 1.78c7.17 2.5 15.23 6.8 24.31 12.2q11.23 6.69 24.47 10.75c15.1 4.62 29.79-.89 43.42-8.13 13.96-7.42 21.15-11.89 32.12-15.03 4.79-1.37 8.8-1.41 14.32-1.41q9.33 0 16.92 3.06c6.86 2.77 16.57 7.67 24.66 12.26q10.68 6.06 23.11 9.42 9.95 2.69 19.46.66 11.63-2.49 21.94-7.88c8.33-4.35 12.29-6.2 22.32-11.37q1.88-.97 11.05-3.97c13.28-4.34 27.15-2.56 39.57 3.81q7.6 3.91 17.65 9.71 7.93 4.58 13.12 6.39c8.94 3.14 17.83 5.62 27.47 3.3q10.84-2.61 18.52-6.9 11.56-6.46 24.24-12.7c6.47-3.18 13.75-5.71 21.36-5.91q14.23-.38 25.77 4.92 9.34 4.28 22.45 11.07 14.4 7.46 27.27 9.79 10.47 1.89 21.05-1.48c11.99-3.82 17.51-7.52 32.82-15.7q4.55-2.43 10.52-4.77 23.09-9.05 45.55 2.55c7.75 3.99 11.33 5.56 18.68 9.69q11.26 6.31 23.73 9.2 9.45 2.19 18.97-1.19 13.47-4.79 22.58-9.05c6.04-2.83 11.19-4.5 18.08-7.04q13.33-4.92 27.55-3.57 3.64.35 8.68 2.38c6.73 2.72 11.63 5.4 18.54 10.01 10.6 7.05 22.22 12.35 35.32 12.59 10.26.2 21.33-3.92 30.46-8.63q5.69-2.93 17.38-9.1 3.85-2.04 13.79-6.23c9.44-3.97 18.9-4.69 28.3-3.81q7.68.73 16.53 5.08 12.08 5.95 22.34 11.85 6.06 3.48 17.66 7.57c11.02 3.89 20.57 3.99 31.45.59q7.53-2.35 12.51-5.02 16.51-8.84 25.15-13.06c8.92-4.35 20.91-6.83 31.08-5.56q9.36 1.18 17.46 5.21 9.8 4.88 19.59 10.39 5.82 3.27 16.63 7.35 9.29 3.51 20.67 3.28 7.31-.15 17.77-4.54 10.76-4.52 19.89-10.05.87-.53 12.44-6.01a57 57 0 0 1 33.6-4.97q3.41.51 10.91 3.6c10.78 4.43 20.9 11.18 32.67 16.36q8.51 3.74 13.35 4.69c14.7 2.87 27.85-.74 41.35-8.04 10.37-5.62 22.31-12.13 34.19-16.15"/></svg>