<?xml version="1.0" encoding="UTF-8" standalone="no"?>
<!DOCTYPE svg PUBLIC "-//W3C//DTD SVG 1.1//EN" "http://www.w3.org/Graphics/SVG/1.1/DTD/svg11.dtd">
<svg xmlns="http://www.w3.org/2000/svg" version="1.1" viewBox="0.00 0.00 1514.00 1039.00">
<g stroke-width="2.00" fill="none" stroke-linecap="butt">
<path stroke="#81c777" vector-effect="non-scaling-stroke" d="
  M 1514.00 677.62
  L 886.65 677.62"
/>
<path stroke="#819a79" vector-effect="non-scaling-stroke" d="
  M 886.65 677.62
  Q 886.52 677.27 885.81 676.99"
/>
<path stroke="#81c777" vector-effect="non-scaling-stroke" d="
  M 885.81 676.99
  L 885.79 643.38
  A 0.65 0.65 0.0 0 0 885.14 642.73
  L 861.46 642.73
  A 0.83 0.82 86.9 0 1 860.64 641.99
  L 844.15 486.58
  A 0.76 0.76 0.0 0 1 844.91 485.75
  L 860.94 485.75
  A 0.70 0.69 -90.0 0 0 861.63 485.05
  L 861.63 452.50
  A 0.41 0.41 0.0 0 0 861.22 452.09
  L 841.58 452.09
  A 0.60 0.59 86.7 0 1 840.99 451.56
  L 823.94 290.76
  A 0.54 0.54 0.0 0 1 824.48 290.16
  L 839.76 290.16
  A 0.84 0.83 90.0 0 0 840.59 289.32
  L 840.59 265.08
  A 0.45 0.45 0.0 0 0 840.14 264.63
  L 821.82 264.63
  A 0.22 0.22 0.0 0 1 821.60 264.43
  L 804.82 106.24
  A 0.45 0.45 0.0 0 1 805.27 105.74
  L 812.99 105.74
  A 0.97 0.97 0.0 0 0 813.96 104.77
  L 813.96 86.45
  A 0.78 0.78 0.0 0 0 813.18 85.67
  L 803.73 85.67
  A 0.70 0.70 0.0 0 1 803.03 84.97
  L 803.03 78.32
  A 1.56 1.56 0.0 0 0 801.97 76.84
  L 787.12 71.82
  A 0.64 0.63 -83.8 0 0 786.29 72.49
  L 787.62 84.99
  A 0.60 0.58 87.3 0 1 787.04 85.64
  L 741.92 85.64
  A 0.39 0.39 0.0 0 1 741.53 85.21
  L 742.85 72.69
  A 0.57 0.57 0.0 0 0 742.12 72.08
  L 728.14 76.43
  A 1.61 1.61 0.0 0 0 727.00 77.81
  L 726.25 84.98
  A 0.60 0.60 0.0 0 1 725.65 85.51
  L 715.56 85.51
  A 0.76 0.75 90.0 0 0 714.81 86.27
  L 714.81 105.07
  A 0.65 0.65 0.0 0 0 715.46 105.72
  L 723.04 105.72
  A 0.85 0.85 0.0 0 1 723.88 106.66
  L 707.32 263.97
  A 0.71 0.70 -86.8 0 1 706.62 264.60
  L 688.84 264.60
  A 0.66 0.66 0.0 0 0 688.18 265.26
  L 688.18 289.77
  A 0.41 0.41 0.0 0 0 688.59 290.18
  L 704.07 290.18
  A 0.79 0.78 -87.0 0 1 704.85 291.05
  L 687.95 451.53
  A 0.57 0.56 -87.2 0 1 687.39 452.04
  L 667.85 452.04
  A 0.75 0.75 0.0 0 0 667.10 452.79
  L 667.10 485.07
  A 0.73 0.73 0.0 0 0 667.83 485.80
  L 684.28 485.80
  A 0.78 0.77 -87.0 0 1 685.04 486.66
  L 668.68 642.08
  A 0.66 0.66 0.0 0 1 668.02 642.67
  L 644.40 642.67
  A 0.91 0.91 0.0 0 0 643.49 643.59
  Q 643.52 661.84 643.50 676.75
  Q 643.50 677.23 644.00 677.43"
/>
<path stroke="#819a79" vector-effect="non-scaling-stroke" d="
  M 644.00 677.43
  Q 643.85 677.40 643.98 677.63"
/>
<path stroke="#81c777" vector-effect="non-scaling-stroke" d="
  M 643.98 677.63
  L 0.00 677.58"
/>
<path stroke="#819a79" vector-effect="non-scaling-stroke" d="
  M 420.77 280.70
  Q 419.51 282.80 417.91 283.08
  A 0.54 0.53 -9.7 0 1 417.29 282.65
  L 416.78 279.79"
/>
<path stroke="#81c777" vector-effect="non-scaling-stroke" d="
  M 416.78 279.79
  Q 416.68 260.92 413.18 242.47
  Q 411.92 235.85 409.52 230.46
  Q 409.26 229.88 409.24 229.86
  A 0.65 0.65 0.0 0 0 408.23 230.32
  L 406.98 240.77
  A 0.85 0.85 0.0 0 0 406.98 241.03
  C 407.84 247.02 406.48 252.91 404.97 259.06"
/>
<path stroke="#819a79" vector-effect="non-scaling-stroke" d="
  M 404.97 259.06
  Q 401.25 251.91 399.89 241.72
  Q 399.12 235.95 400.62 231.66
  Q 401.09 230.34 400.39 229.97
  Q 399.75 229.63 398.46 229.89"
/>
<path stroke="#81c777" vector-effect="non-scaling-stroke" d="
  M 398.46 229.89
  C 398.59 225.91 398.55 221.91 399.03 218.04
  Q 400.05 209.76 399.16 200.32
  A 1.39 1.37 12.4 0 0 398.45 199.23
  L 398.42 199.21
  A 0.47 0.47 0.0 0 0 397.72 199.62
  Q 397.47 209.56 391.27 217.58
  Q 390.04 219.18 386.30 223.54
  Q 377.99 233.22 378.66 246.50
  Q 378.94 252.00 382.07 262.27"
/>
<path stroke="#819a79" vector-effect="non-scaling-stroke" d="
  M 382.07 262.27
  Q 381.98 265.52 380.92 268.73
  A 7.56 7.26 -34.9 0 0 380.59 270.38
  C 380.42 272.43 380.37 274.68 379.66 277.30
  Q 377.63 284.84 371.20 298.75
  Q 369.54 302.33 366.54 303.02"
/>
<path stroke="#81c777" vector-effect="non-scaling-stroke" d="
  M 366.54 303.02
  Q 365.93 291.21 367.01 279.49
  Q 367.90 269.83 367.30 265.92
  Q 366.33 259.56 363.94 253.31
  Q 363.17 251.31 361.96 250.02
  A 0.42 0.42 0.0 0 0 361.26 250.16
  Q 360.31 252.64 360.32 253.39
  Q 360.45 263.37 360.41 270.35
  A 8.18 7.89 -39.9 0 1 360.25 271.84
  Q 358.39 281.00 356.79 286.85
  Q 353.97 297.18 350.54 305.85
  Q 345.88 317.64 344.52 323.76
  Q 340.82 340.51 342.03 357.66
  C 342.47 363.88 344.05 370.86 345.86 376.67
  Q 355.37 407.14 382.49 423.74
  C 389.13 427.81 399.75 432.16 407.98 437.31
  Q 412.00 439.83 416.08 442.27"
/>
<path stroke="#819a79" vector-effect="non-scaling-stroke" d="
  M 416.08 442.27
  Q 418.91 445.54 422.76 443.64"
/>
<path stroke="#81c777" vector-effect="non-scaling-stroke" d="
  M 422.76 443.64
  Q 433.60 441.61 444.14 435.12
  Q 460.68 424.94 474.17 413.44
  C 485.40 403.87 495.59 393.25 501.44 379.20
  Q 505.98 368.31 506.32 367.32
  Q 512.55 349.04 512.66 330.01
  Q 512.79 309.23 510.19 293.03
  Q 509.95 291.57 509.16 289.55
  A 0.78 0.78 0.0 0 0 507.67 289.66
  L 504.76 302.06
  A 1.60 1.36 -40.3 0 0 504.72 302.30
  Q 504.39 309.00 500.79 315.21"
/>
<path stroke="#819a79" vector-effect="non-scaling-stroke" d="
  M 500.79 315.21
  Q 502.27 304.47 503.27 294.50
  Q 503.84 288.93 501.81 284.45
  Q 498.64 277.44 493.02 269.88
  A 4.60 4.15 -78.9 0 1 492.54 269.08
  Q 490.84 265.53 488.25 262.13"
/>
<path stroke="#81c777" vector-effect="non-scaling-stroke" d="
  M 488.25 262.13
  Q 484.21 255.74 483.61 247.48
  Q 483.25 242.55 483.42 236.50
  A 0.90 0.85 81.3 0 0 482.28 235.61
  Q 481.93 235.74 481.62 236.37
  Q 478.56 242.65 478.20 249.08
  A 4.23 4.19 56.0 0 1 477.99 250.19
  Q 476.88 253.57 474.38 262.07
  Q 473.30 265.79 473.44 267.75
  Q 474.01 275.21 476.25 282.32"
/>
<path stroke="#819a79" vector-effect="non-scaling-stroke" d="
  M 476.25 282.32
  C 476.61 288.14 472.44 293.41 468.59 297.57
  Q 466.27 300.08 463.18 300.54"
/>
<path stroke="#81c777" vector-effect="non-scaling-stroke" d="
  M 463.18 300.54
  Q 464.47 294.11 465.14 283.24
  Q 466.75 257.28 465.94 244.55
  Q 465.26 233.95 464.16 227.59
  A 0.70 0.70 0.0 0 0 462.78 227.56
  Q 461.94 231.55 459.88 238.88
  C 459.14 241.50 455.40 249.35 451.70 250.66"
/>
<path stroke="#819a79" vector-effect="non-scaling-stroke" d="
  M 451.70 250.66
  Q 451.06 250.69 451.02 250.19"
/>
<path stroke="#81c777" vector-effect="non-scaling-stroke" d="
  M 451.02 250.19
  Q 451.22 247.78 451.11 245.25
  Q 450.40 228.67 446.06 213.65
  Q 441.83 199.04 437.10 185.69
  Q 433.67 176.01 431.62 166.38
  C 429.51 156.52 430.63 148.30 431.86 137.00
  Q 431.88 136.75 431.79 136.63
  A 0.63 0.59 44.6 0 0 430.85 136.61
  C 423.88 145.15 420.78 156.95 421.38 167.67
  Q 422.18 181.84 423.18 186.15
  Q 427.51 204.84 428.68 221.01
  Q 428.95 224.73 429.83 236.00
  Q 429.94 237.39 429.75 239.73
  Q 428.99 248.67 427.69 257.54
  Q 425.90 269.79 420.77 280.70"
/>
<path stroke="#febd06" vector-effect="non-scaling-stroke" d="
  M 451.02 250.19
  Q 450.30 250.91 450.38 251.65
  A 0.39 0.39 0.0 0 0 450.99 251.93
  Q 451.51 251.57 451.70 250.66"
/>
<path stroke="#febd06" vector-effect="non-scaling-stroke" d="
  M 463.18 300.54
  Q 462.43 304.54 461.01 308.48
  Q 459.93 311.48 459.09 313.95
  Q 455.50 324.49 455.17 325.80
  C 454.50 328.46 453.41 329.85 451.94 332.52
  A 6.04 5.77 67.2 0 0 451.33 334.12
  C 450.06 339.70 446.80 344.58 444.84 349.58
  C 440.91 359.58 438.84 364.50 435.43 374.35
  Q 433.01 381.32 426.76 400.34
  A 3.91 3.77 58.0 0 0 426.56 401.29
  C 426.02 406.94 424.65 411.81 424.35 417.42
  Q 424.12 421.88 423.54 427.80
  Q 423.48 428.38 422.93 428.29
  Q 422.39 428.21 422.33 427.67
  C 421.03 416.87 418.14 408.29 413.92 397.44
  C 412.49 393.74 412.03 390.70 411.24 387.46
  A 5.75 5.51 25.3 0 0 410.72 386.10
  Q 408.02 381.17 406.42 375.39
  Q 404.96 370.13 403.20 364.89
  Q 398.76 351.69 397.87 346.93
  Q 396.66 340.47 394.97 328.98
  C 394.07 322.89 394.44 317.19 393.79 312.05
  A 14.25 14.06 46.5 0 1 393.87 307.95
  C 394.28 305.45 394.55 303.84 394.29 300.99
  Q 393.94 296.97 394.46 294.49
  Q 396.60 284.39 401.02 274.52
  Q 402.92 270.28 403.75 266.99
  Q 404.84 262.67 404.97 259.06"
/>
<path stroke="#febd06" vector-effect="non-scaling-stroke" d="
  M 416.78 279.79
  L 416.01 284.80
  A 0.88 0.88 0.0 0 0 417.23 285.75
  Q 418.82 285.06 421.39 284.96
  A 0.53 0.53 0.0 0 0 421.48 283.92
  Q 421.31 283.88 421.30 283.88
  A 0.71 0.63 12.3 0 1 420.87 283.29
  L 420.77 280.70"
/>
<path stroke="#febd06" vector-effect="non-scaling-stroke" d="
  M 476.25 282.32
  L 477.80 288.37
  A 2.06 1.97 -53.2 0 1 477.86 288.86
  C 477.88 295.52 478.61 302.44 477.47 308.97
  A 0.30 0.29 72.4 0 0 477.97 309.23
  C 483.72 303.32 487.53 294.19 489.78 286.44
  A 3.07 3.06 52.1 0 0 489.90 285.46
  L 489.78 281.18
  A 3.98 3.90 -36.3 0 1 490.02 279.72
  Q 491.13 276.69 490.62 274.72
  Q 488.56 266.81 488.25 262.13"
/>
<path stroke="#febd06" vector-effect="non-scaling-stroke" d="
  M 500.79 315.21
  Q 500.53 320.29 498.42 324.18
  Q 496.34 328.00 490.06 333.56
  Q 488.67 334.79 483.36 343.59
  A 0.29 0.24 85.3 0 1 483.31 343.66
  L 476.43 352.25
  A 0.66 0.66 0.0 0 1 475.26 351.89
  L 474.63 344.09
  A 1.03 0.87 51.6 0 1 474.64 343.78
  Q 476.47 331.82 471.79 317.72
  A 0.97 0.97 0.0 0 0 469.97 317.66
  Q 469.83 318.00 469.80 318.56
  Q 469.11 333.06 462.76 343.89
  A 6.25 6.12 68.6 0 0 462.12 345.40
  C 460.29 352.11 457.03 359.31 456.31 366.88
  C 455.92 371.11 454.67 374.55 453.70 378.10
  A 6.23 5.87 -36.2 0 0 453.52 379.07
  C 453.35 380.85 453.44 382.20 453.06 384.11
  Q 450.82 395.38 446.85 405.67
  C 443.51 414.30 439.67 423.05 433.92 429.65
  Q 429.83 434.36 421.83 442.64
  A 0.46 0.45 -28.0 0 0 421.70 443.04
  Q 421.82 443.71 422.76 443.64"
/>
<path stroke="#febd06" vector-effect="non-scaling-stroke" d="
  M 416.08 442.27
  L 418.93 443.29
  A 0.79 0.79 0.0 0 0 419.94 442.28
  Q 419.59 441.27 418.82 440.19
  Q 412.48 431.30 406.28 422.45
  C 402.21 416.63 399.32 409.32 396.37 402.43
  C 394.49 398.04 393.38 392.35 391.80 387.57
  Q 389.26 379.91 388.38 374.67
  Q 385.83 359.50 385.57 345.05
  C 385.35 333.15 387.04 320.13 384.83 308.11
  Q 383.37 300.19 382.87 298.36
  A 0.53 0.52 -49.9 0 0 381.84 298.45
  L 381.28 304.04
  A 1.36 1.14 -39.8 0 1 381.24 304.26
  Q 379.03 312.50 376.57 320.47
  C 375.42 324.21 373.33 327.37 370.69 330.04
  A 0.61 0.61 0.0 0 1 369.66 329.75
  Q 366.67 316.70 366.54 303.02"
/>
<path stroke="#febd06" vector-effect="non-scaling-stroke" d="
  M 398.46 229.89
  Q 396.38 236.20 394.39 242.57
  Q 393.57 245.22 392.06 248.12
  Q 389.50 253.02 390.24 259.01
  Q 390.92 264.56 390.57 271.48
  Q 390.54 272.13 389.87 272.10
  Q 389.46 272.08 389.13 271.64
  Q 385.56 266.91 382.07 262.27"
/>
<path stroke="#819a79" vector-effect="non-scaling-stroke" d="
  M 1080.01 257.04
  Q 1079.70 258.09 1079.53 258.11
  A 1.39 1.39 0.0 0 1 1078.02 257.18
  Q 1075.05 248.44 1073.84 239.63
  C 1073.37 236.26 1073.86 233.64 1075.86 231.12
  A 0.67 0.66 -72.3 0 0 1075.31 230.04
  L 1072.65 230.18"
/>
<path stroke="#81c777" vector-effect="non-scaling-stroke" d="
  M 1072.65 230.18
  Q 1072.45 224.17 1072.85 221.62
  Q 1074.57 210.85 1073.79 199.80
  A 0.75 0.75 0.0 0 0 1073.15 199.11
  L 1073.13 199.10
  A 0.58 0.57 6.2 0 0 1072.48 199.62
  Q 1071.66 209.35 1065.81 217.60
  Q 1064.64 219.23 1059.63 224.62
  C 1056.83 227.64 1054.43 232.70 1053.91 237.84
  Q 1053.05 246.36 1053.13 247.50
  Q 1053.47 252.17 1056.76 262.26"
/>
<path stroke="#819a79" vector-effect="non-scaling-stroke" d="
  M 1056.76 262.26
  Q 1054.85 273.20 1054.22 275.98
  Q 1051.38 288.51 1044.88 301.32
  A 1.42 1.40 -89.2 0 1 1044.21 301.98
  Q 1042.79 302.66 1041.25 301.75"
/>
<path stroke="#81c777" vector-effect="non-scaling-stroke" d="
  M 1041.25 301.75
  Q 1040.49 291.15 1041.07 287.02
  Q 1042.70 275.41 1041.45 263.91
  C 1040.90 258.79 1039.17 254.32 1036.39 250.50
  A 0.84 0.84 0.0 0 0 1034.95 250.63
  Q 1034.73 251.08 1034.78 251.75
  C 1035.20 257.95 1035.85 267.55 1034.32 275.19
  Q 1032.72 283.15 1032.07 285.32
  Q 1029.35 294.44 1028.72 296.98
  C 1027.07 303.65 1022.91 311.26 1021.12 318.49
  Q 1017.66 332.44 1016.98 345.32
  Q 1016.00 363.76 1023.31 383.50
  C 1027.81 395.67 1034.82 405.76 1044.10 413.99
  Q 1053.67 422.48 1060.97 426.16
  Q 1068.88 430.15 1075.56 433.36
  C 1080.85 435.91 1086.46 439.85 1091.82 443.21"
/>
<path stroke="#819a79" vector-effect="non-scaling-stroke" d="
  M 1091.82 443.21
  Q 1093.89 445.35 1097.75 443.63"
/>
<path stroke="#81c777" vector-effect="non-scaling-stroke" d="
  M 1097.75 443.63
  Q 1108.89 441.32 1117.89 435.63
  Q 1123.54 432.07 1136.18 423.21
  C 1141.44 419.53 1145.16 416.11 1150.79 411.53
  Q 1157.42 406.13 1164.91 397.43
  Q 1171.21 390.11 1175.87 380.10
  Q 1183.13 364.49 1186.00 347.38
  Q 1187.21 340.16 1187.19 328.59
  Q 1187.16 316.45 1186.65 309.76
  Q 1186.28 304.82 1184.79 294.99
  Q 1184.27 291.55 1182.84 289.43
  A 0.65 0.65 0.0 0 0 1181.66 289.71
  L 1180.37 299.63
  A 1.11 0.90 -39.1 0 1 1180.32 299.87
  L 1176.41 314.29"
/>
<path stroke="#819a79" vector-effect="non-scaling-stroke" d="
  M 1176.41 314.29
  Q 1175.07 313.95 1175.32 312.76
  C 1176.07 309.21 1177.02 305.26 1176.90 301.55
  C 1176.73 296.54 1177.99 288.97 1175.91 282.76
  Q 1175.37 281.12 1171.09 275.08
  Q 1166.96 269.25 1163.32 262.70"
/>
<path stroke="#81c777" vector-effect="non-scaling-stroke" d="
  M 1163.32 262.70
  Q 1158.86 257.09 1158.63 251.07
  Q 1158.13 237.98 1158.03 236.75
  Q 1157.94 235.75 1157.34 235.73
  A 0.73 0.72 14.5 0 0 1156.66 236.13
  L 1154.86 239.69
  A 9.11 8.96 -27.9 0 0 1153.97 242.51
  Q 1152.56 252.67 1149.04 261.64
  C 1148.37 263.35 1147.60 266.89 1147.81 268.23
  Q 1148.91 275.45 1150.78 282.58"
/>
<path stroke="#819a79" vector-effect="non-scaling-stroke" d="
  M 1150.78 282.58
  C 1151.07 288.39 1146.63 293.63 1143.00 297.75
  Q 1140.73 300.33 1137.76 301.15"
/>
<path stroke="#81c777" vector-effect="non-scaling-stroke" d="
  M 1137.76 301.15
  Q 1139.24 293.90 1139.32 292.00
  Q 1139.79 280.98 1140.36 273.85
  Q 1140.89 267.24 1140.74 261.66
  C 1140.50 253.05 1141.13 245.99 1140.21 238.55
  Q 1139.62 233.82 1139.30 227.72
  A 0.72 0.72 0.0 0 0 1137.88 227.59
  Q 1136.38 233.96 1133.98 240.01
  C 1132.83 242.92 1129.19 249.70 1126.21 250.83
  A 0.16 0.15 -11.5 0 1 1125.99 250.69
  Q 1125.58 235.91 1122.87 222.45
  Q 1121.79 217.11 1118.47 206.92
  C 1115.04 196.37 1113.37 191.56 1110.62 183.90
  Q 1107.87 176.21 1106.11 168.16
  Q 1104.43 160.46 1104.56 155.77
  Q 1104.85 144.59 1106.11 137.33
  A 0.72 0.72 0.0 0 0 1104.83 136.78
  Q 1099.56 143.71 1096.88 153.04
  Q 1095.17 158.98 1095.60 167.10
  Q 1096.09 176.43 1096.81 181.26
  C 1098.13 190.18 1100.72 199.31 1101.86 208.87
  Q 1103.85 225.56 1103.99 228.28
  Q 1105.10 249.05 1099.21 270.64
  Q 1098.39 273.62 1097.12 276.50
  C 1095.95 279.14 1094.51 283.55 1092.22 283.53
  A 0.72 0.71 -3.2 0 1 1091.52 282.91
  Q 1091.51 282.79 1090.86 268.38
  C 1090.28 255.55 1088.91 241.57 1083.43 230.17
  Q 1083.31 229.91 1083.07 229.74
  A 0.53 0.52 20.9 0 0 1082.25 230.10
  Q 1081.24 238.80 1081.41 245.78
  C 1081.51 249.55 1080.78 253.31 1080.01 257.04"
/>
<path stroke="#febd06" vector-effect="non-scaling-stroke" d="
  M 1137.76 301.15
  Q 1136.59 307.41 1134.71 311.46
  Q 1132.34 316.57 1131.68 320.52
  A 5.66 5.19 -32.2 0 1 1131.39 321.58
  C 1129.50 326.58 1126.74 334.14 1124.19 339.45
  Q 1118.30 351.73 1115.75 358.69
  C 1113.25 365.52 1110.18 370.62 1108.11 377.85
  Q 1107.90 378.57 1102.15 397.39
  A 5.80 5.47 69.8 0 1 1101.71 398.42
  Q 1100.26 400.97 1100.32 402.56
  Q 1100.57 408.88 1098.99 414.19
  A 7.43 7.24 -35.7 0 0 1098.69 415.88
  Q 1098.10 425.09 1098.09 426.50
  Q 1098.08 427.62 1097.73 428.30
  A 0.36 0.35 -38.0 0 1 1097.07 428.22
  C 1095.82 423.14 1095.40 418.37 1093.83 413.51
  Q 1092.08 408.11 1090.80 402.53
  A 5.98 5.90 26.2 0 0 1090.35 401.24
  Q 1090.02 400.54 1087.08 394.46
  Q 1086.44 393.14 1085.07 386.14
  A 5.60 5.27 -64.3 0 0 1084.70 384.97
  Q 1079.47 373.12 1075.68 359.15
  Q 1072.73 348.31 1072.27 346.21
  C 1071.17 341.24 1070.77 336.26 1070.04 333.01
  C 1068.28 325.19 1068.22 316.06 1068.98 308.78
  C 1069.32 305.57 1068.32 302.88 1068.65 299.83
  Q 1069.90 288.63 1071.66 284.15
  Q 1074.73 276.35 1077.32 271.05
  Q 1078.39 268.87 1078.43 267.62
  Q 1078.62 262.30 1080.01 257.04"
/>
<path stroke="#febd06" vector-effect="non-scaling-stroke" d="
  M 1150.78 282.58
  L 1150.99 285.71
  A 1.52 1.52 0.0 0 0 1151.33 286.58
  Q 1152.25 287.70 1152.40 289.49
  Q 1153.23 299.80 1152.69 308.24
  A 0.33 0.33 0.0 0 0 1153.27 308.47
  Q 1158.63 302.14 1161.93 294.15
  Q 1165.26 286.09 1165.36 278.47
  Q 1165.38 277.05 1164.25 270.61
  Q 1163.58 266.79 1163.32 262.70"
/>
<path stroke="#febd06" vector-effect="non-scaling-stroke" d="
  M 1176.41 314.29
  Q 1175.05 320.06 1171.92 325.07
  Q 1170.28 327.70 1166.36 331.80
  Q 1163.44 334.86 1160.92 338.68
  Q 1156.18 345.87 1150.43 352.32
  A 0.60 0.60 0.0 0 1 1149.39 351.93
  Q 1149.19 345.18 1149.53 340.80
  C 1150.24 331.78 1149.11 324.95 1146.49 317.41
  A 0.53 0.53 0.0 0 0 1145.46 317.51
  C 1144.36 325.95 1142.41 333.85 1138.45 341.45
  Q 1134.87 348.32 1132.89 358.34
  C 1131.48 365.47 1129.33 373.20 1128.51 380.43
  C 1127.85 386.27 1125.72 391.89 1124.08 396.82
  C 1123.60 398.26 1123.51 400.20 1122.92 401.76
  C 1120.44 408.24 1118.54 414.02 1114.83 420.33
  C 1111.01 426.80 1109.36 429.63 1104.09 434.35
  C 1101.45 436.72 1098.96 439.74 1096.91 442.12
  Q 1096.30 442.81 1096.91 443.45
  Q 1097.16 443.70 1097.75 443.63"
/>
<path stroke="#febd06" vector-effect="non-scaling-stroke" d="
  M 1091.82 443.21
  Q 1093.47 443.69 1094.28 442.66
  A 0.71 0.70 47.0 0 0 1094.30 441.81
  Q 1083.75 427.17 1078.39 418.10
  Q 1074.45 411.42 1070.91 401.81
  Q 1062.41 378.70 1060.23 354.24
  C 1059.71 348.41 1059.97 339.34 1060.32 329.78
  Q 1060.90 313.92 1057.49 298.86
  A 0.68 0.68 0.0 0 0 1056.15 298.97
  Q 1055.69 307.29 1052.31 315.79
  Q 1051.19 318.62 1051.08 319.51
  C 1050.56 323.54 1048.32 327.36 1045.26 329.96
  A 0.83 0.83 0.0 0 1 1043.90 329.46
  Q 1042.26 318.76 1041.20 309.50
  Q 1040.88 306.70 1041.25 301.75"
/>
<path stroke="#febd06" vector-effect="non-scaling-stroke" d="
  M 1072.65 230.18
  L 1067.47 246.28
  A 4.19 4.12 -19.5 0 1 1066.96 247.33
  Q 1064.14 251.60 1064.66 258.00
  Q 1065.23 265.00 1065.08 272.25
  A 0.42 0.41 27.7 0 1 1064.33 272.48
  L 1056.76 262.26"
/>
<path stroke="#febd06" vector-effect="non-scaling-stroke" d="
  M 885.81 676.99
  Q 765.81 676.86 645.75 676.97
  Q 644.83 676.97 644.00 677.43"
/>
<path stroke="#81c777" vector-effect="non-scaling-stroke" d="
  M 805.54 264.63
  A 0.89 0.89 0.0 0 0 806.43 263.65
  L 789.75 106.45
  A 0.89 0.89 0.0 0 0 788.87 105.65
  L 740.10 105.65
  A 0.89 0.89 0.0 0 0 739.22 106.45
  L 722.66 263.65
  A 0.89 0.89 0.0 0 0 723.55 264.63
  L 805.54 264.63"
/>
<path stroke="#81c777" vector-effect="non-scaling-stroke" d="
  M 825.38 452.15
  A 0.69 0.69 0.0 0 0 826.07 451.39
  L 809.05 290.80
  A 0.69 0.69 0.0 0 0 808.36 290.18
  L 720.86 290.18
  A 0.69 0.69 0.0 0 0 720.17 290.80
  L 703.27 451.39
  A 0.69 0.69 0.0 0 0 703.96 452.15
  L 825.38 452.15"
/>
<path stroke="#81c777" vector-effect="non-scaling-stroke" d="
  M 845.04 642.73
  A 0.86 0.86 0.0 0 0 845.90 641.78
  L 829.43 486.51
  A 0.86 0.86 0.0 0 0 828.58 485.74
  L 701.10 485.74
  A 0.86 0.86 0.0 0 0 700.25 486.51
  L 683.90 641.78
  A 0.86 0.86 0.0 0 0 684.76 642.73
  L 845.04 642.73"
/>
<path stroke="#febd06" vector-effect="non-scaling-stroke" d="
  M 886.65 677.62
  Q 885.53 678.15 884.24 678.15
  Q 779.75 678.17 675.25 678.18
  Q 653.80 678.18 643.98 677.63"
/>
<path stroke="#908411" vector-effect="non-scaling-stroke" d="
  M 1514.00 836.22
  C 1502.12 840.24 1490.18 846.75 1479.81 852.37
  C 1466.31 859.67 1453.16 863.28 1438.46 860.41
  Q 1433.62 859.46 1425.11 855.72
  C 1413.34 850.54 1403.22 843.79 1392.44 839.36
  Q 1384.94 836.27 1381.53 835.76
  C 1370.20 834.05 1358.91 835.52 1347.93 840.73
  Q 1336.36 846.21 1335.49 846.74
  Q 1326.36 852.27 1315.60 856.79
  Q 1305.14 861.18 1297.83 861.33
  Q 1286.45 861.56 1277.16 858.05
  Q 1266.35 853.97 1260.53 850.70
  Q 1250.74 845.19 1240.94 840.31
  Q 1232.84 836.28 1223.48 835.10
  C 1213.31 833.83 1201.32 836.31 1192.40 840.66
  Q 1183.76 844.88 1167.25 853.72
  Q 1162.27 856.39 1154.74 858.74
  C 1143.86 862.14 1134.31 862.04 1123.29 858.15
  Q 1111.69 854.06 1105.63 850.58
  Q 1095.37 844.68 1083.29 838.73
  Q 1074.44 834.38 1066.76 833.65
  C 1057.36 832.77 1047.90 833.49 1038.46 837.46
  Q 1028.52 841.65 1024.67 843.69
  Q 1012.98 849.86 1007.29 852.79
  C 998.16 857.50 987.09 861.62 976.83 861.42
  C 963.73 861.18 952.11 855.88 941.51 848.83
  C 934.60 844.22 929.70 841.54 922.97 838.82
  Q 917.93 836.79 914.29 836.44
  Q 900.07 835.09 886.74 840.01
  C 879.85 842.55 874.70 844.22 868.66 847.05
  Q 859.55 851.31 846.08 856.10
  Q 836.56 859.48 827.11 857.29
  Q 814.64 854.40 803.38 848.09
  C 796.03 843.96 792.45 842.39 784.70 838.40
  Q 762.24 826.80 739.15 835.85
  Q 733.18 838.19 728.63 840.62
  C 713.32 848.80 707.80 852.50 695.81 856.32
  Q 685.23 859.69 674.76 857.80
  Q 661.89 855.47 647.49 848.01
  Q 634.38 841.22 625.04 836.94
  Q 613.50 831.64 599.27 832.02
  C 591.66 832.22 584.38 834.75 577.91 837.93
  Q 565.23 844.17 553.67 850.63
  Q 545.99 854.92 535.15 857.53
  C 525.51 859.85 516.62 857.37 507.68 854.23
  Q 502.49 852.42 494.56 847.84
  Q 484.51 842.04 476.91 838.13
  C 464.49 831.76 450.62 829.98 437.34 834.32
  Q 428.17 837.32 426.29 838.29
  C 416.26 843.46 412.30 845.31 403.97 849.66
  Q 393.66 855.05 382.03 857.54
  Q 372.52 859.57 362.57 856.88
  Q 350.14 853.52 339.46 847.46
  C 331.37 842.87 321.66 837.97 314.80 835.20
  Q 307.21 832.14 297.88 832.14
  C 292.36 832.14 288.35 832.18 283.56 833.55
  C 272.59 836.69 265.40 841.16 251.44 848.58
  C 237.81 855.82 223.12 861.33 208.02 856.71
  Q 194.78 852.65 183.55 845.96
  C 174.47 840.56 166.41 836.26 159.24 833.76
  Q 153.61 831.80 145.13 831.98
  C 138.97 832.12 133.59 832.50 127.76 834.28
  C 106.78 840.69 88.32 854.73 66.98 857.96
  C 56.25 859.58 44.09 857.06 33.73 852.79
  C 22.24 848.05 11.03 841.47 0.00 835.48"
/>
</g>
<path fill="#04a4ea" d="
  M 1514.00 0.00
  L 1514.00 677.62
  L 886.65 677.62
  Q 886.52 677.27 885.81 676.99
  L 885.79 643.38
  A 0.65 0.65 0.0 0 0 885.14 642.73
  L 861.46 642.73
  A 0.83 0.82 86.9 0 1 860.64 641.99
  L 844.15 486.58
  A 0.76 0.76 0.0 0 1 844.91 485.75
  L 860.94 485.75
  A 0.70 0.69 -90.0 0 0 861.63 485.05
  L 861.63 452.50
  A 0.41 0.41 0.0 0 0 861.22 452.09
  L 841.58 452.09
  A 0.60 0.59 86.7 0 1 840.99 451.56
  L 823.94 290.76
  A 0.54 0.54 0.0 0 1 824.48 290.16
  L 839.76 290.16
  A 0.84 0.83 90.0 0 0 840.59 289.32
  L 840.59 265.08
  A 0.45 0.45 0.0 0 0 840.14 264.63
  L 821.82 264.63
  A 0.22 0.22 0.0 0 1 821.60 264.43
  L 804.82 106.24
  A 0.45 0.45 0.0 0 1 805.27 105.74
  L 812.99 105.74
  A 0.97 0.97 0.0 0 0 813.96 104.77
  L 813.96 86.45
  A 0.78 0.78 0.0 0 0 813.18 85.67
  L 803.73 85.67
  A 0.70 0.70 0.0 0 1 803.03 84.97
  L 803.03 78.32
  A 1.56 1.56 0.0 0 0 801.97 76.84
  L 787.12 71.82
  A 0.64 0.63 -83.8 0 0 786.29 72.49
  L 787.62 84.99
  A 0.60 0.58 87.3 0 1 787.04 85.64
  L 741.92 85.64
  A 0.39 0.39 0.0 0 1 741.53 85.21
  L 742.85 72.69
  A 0.57 0.57 0.0 0 0 742.12 72.08
  L 728.14 76.43
  A 1.61 1.61 0.0 0 0 727.00 77.81
  L 726.25 84.98
  A 0.60 0.60 0.0 0 1 725.65 85.51
  L 715.56 85.51
  A 0.76 0.75 90.0 0 0 714.81 86.27
  L 714.81 105.07
  A 0.65 0.65 0.0 0 0 715.46 105.72
  L 723.04 105.72
  A 0.85 0.85 0.0 0 1 723.88 106.66
  L 707.32 263.97
  A 0.71 0.70 -86.8 0 1 706.62 264.60
  L 688.84 264.60
  A 0.66 0.66 0.0 0 0 688.18 265.26
  L 688.18 289.77
  A 0.41 0.41 0.0 0 0 688.59 290.18
  L 704.07 290.18
  A 0.79 0.78 -87.0 0 1 704.85 291.05
  L 687.95 451.53
  A 0.57 0.56 -87.2 0 1 687.39 452.04
  L 667.85 452.04
  A 0.75 0.75 0.0 0 0 667.10 452.79
  L 667.10 485.07
  A 0.73 0.73 0.0 0 0 667.83 485.80
  L 684.28 485.80
  A 0.78 0.77 -87.0 0 1 685.04 486.66
  L 668.68 642.08
  A 0.66 0.66 0.0 0 1 668.02 642.67
  L 644.40 642.67
  A 0.91 0.91 0.0 0 0 643.49 643.59
  Q 643.52 661.84 643.50 676.75
  Q 643.50 677.23 644.00 677.43
  Q 643.85 677.40 643.98 677.63
  L 0.00 677.58
  L 0.00 0.00
  L 1514.00 0.00
  Z
  M 420.77 280.70
  Q 419.51 282.80 417.91 283.08
  A 0.54 0.53 -9.7 0 1 417.29 282.65
  L 416.78 279.79
  Q 416.68 260.92 413.18 242.47
  Q 411.92 235.85 409.52 230.46
  Q 409.26 229.88 409.24 229.86
  A 0.65 0.65 0.0 0 0 408.23 230.32
  L 406.98 240.77
  A 0.85 0.85 0.0 0 0 406.98 241.03
  C 407.84 247.02 406.48 252.91 404.97 259.06
  Q 401.25 251.91 399.89 241.72
  Q 399.12 235.95 400.62 231.66
  Q 401.09 230.34 400.39 229.97
  Q 399.75 229.63 398.46 229.89
  C 398.59 225.91 398.55 221.91 399.03 218.04
  Q 400.05 209.76 399.16 200.32
  A 1.39 1.37 12.4 0 0 398.45 199.23
  L 398.42 199.21
  A 0.47 0.47 0.0 0 0 397.72 199.62
  Q 397.47 209.56 391.27 217.58
  Q 390.04 219.18 386.30 223.54
  Q 377.99 233.22 378.66 246.50
  Q 378.94 252.00 382.07 262.27
  Q 381.98 265.52 380.92 268.73
  A 7.56 7.26 -34.9 0 0 380.59 270.38
  C 380.42 272.43 380.37 274.68 379.66 277.30
  Q 377.63 284.84 371.20 298.75
  Q 369.54 302.33 366.54 303.02
  Q 365.93 291.21 367.01 279.49
  Q 367.90 269.83 367.30 265.92
  Q 366.33 259.56 363.94 253.31
  Q 363.17 251.31 361.96 250.02
  A 0.42 0.42 0.0 0 0 361.26 250.16
  Q 360.31 252.64 360.32 253.39
  Q 360.45 263.37 360.41 270.35
  A 8.18 7.89 -39.9 0 1 360.25 271.84
  Q 358.39 281.00 356.79 286.85
  Q 353.97 297.18 350.54 305.85
  Q 345.88 317.64 344.52 323.76
  Q 340.82 340.51 342.03 357.66
  C 342.47 363.88 344.05 370.86 345.86 376.67
  Q 355.37 407.14 382.49 423.74
  C 389.13 427.81 399.75 432.16 407.98 437.31
  Q 412.00 439.83 416.08 442.27
  Q 418.91 445.54 422.76 443.64
  Q 433.60 441.61 444.14 435.12
  Q 460.68 424.94 474.17 413.44
  C 485.40 403.87 495.59 393.25 501.44 379.20
  Q 505.98 368.31 506.32 367.32
  Q 512.55 349.04 512.66 330.01
  Q 512.79 309.23 510.19 293.03
  Q 509.95 291.57 509.16 289.55
  A 0.78 0.78 0.0 0 0 507.67 289.66
  L 504.76 302.06
  A 1.60 1.36 -40.3 0 0 504.72 302.30
  Q 504.39 309.00 500.79 315.21
  Q 502.27 304.47 503.27 294.50
  Q 503.84 288.93 501.81 284.45
  Q 498.64 277.44 493.02 269.88
  A 4.60 4.15 -78.9 0 1 492.54 269.08
  Q 490.84 265.53 488.25 262.13
  Q 484.21 255.74 483.61 247.48
  Q 483.25 242.55 483.42 236.50
  A 0.90 0.85 81.3 0 0 482.28 235.61
  Q 481.93 235.74 481.62 236.37
  Q 478.56 242.65 478.20 249.08
  A 4.23 4.19 56.0 0 1 477.99 250.19
  Q 476.88 253.57 474.38 262.07
  Q 473.30 265.79 473.44 267.75
  Q 474.01 275.21 476.25 282.32
  C 476.61 288.14 472.44 293.41 468.59 297.57
  Q 466.27 300.08 463.18 300.54
  Q 464.47 294.11 465.14 283.24
  Q 466.75 257.28 465.94 244.55
  Q 465.26 233.95 464.16 227.59
  A 0.70 0.70 0.0 0 0 462.78 227.56
  Q 461.94 231.55 459.88 238.88
  C 459.14 241.50 455.40 249.35 451.70 250.66
  Q 451.06 250.69 451.02 250.19
  Q 451.22 247.78 451.11 245.25
  Q 450.40 228.67 446.06 213.65
  Q 441.83 199.04 437.10 185.69
  Q 433.67 176.01 431.62 166.38
  C 429.51 156.52 430.63 148.30 431.86 137.00
  Q 431.88 136.75 431.79 136.63
  A 0.63 0.59 44.6 0 0 430.85 136.61
  C 423.88 145.15 420.78 156.95 421.38 167.67
  Q 422.18 181.84 423.18 186.15
  Q 427.51 204.84 428.68 221.01
  Q 428.95 224.73 429.83 236.00
  Q 429.94 237.39 429.75 239.73
  Q 428.99 248.67 427.69 257.54
  Q 425.90 269.79 420.77 280.70
  Z
  M 1080.01 257.04
  Q 1079.70 258.09 1079.53 258.11
  A 1.39 1.39 0.0 0 1 1078.02 257.18
  Q 1075.05 248.44 1073.84 239.63
  C 1073.37 236.26 1073.86 233.64 1075.86 231.12
  A 0.67 0.66 -72.3 0 0 1075.31 230.04
  L 1072.65 230.18
  Q 1072.45 224.17 1072.85 221.62
  Q 1074.57 210.85 1073.79 199.80
  A 0.75 0.75 0.0 0 0 1073.15 199.11
  L 1073.13 199.10
  A 0.58 0.57 6.2 0 0 1072.48 199.62
  Q 1071.66 209.35 1065.81 217.60
  Q 1064.64 219.23 1059.63 224.62
  C 1056.83 227.64 1054.43 232.70 1053.91 237.84
  Q 1053.05 246.36 1053.13 247.50
  Q 1053.47 252.17 1056.76 262.26
  Q 1054.85 273.20 1054.22 275.98
  Q 1051.38 288.51 1044.88 301.32
  A 1.42 1.40 -89.2 0 1 1044.21 301.98
  Q 1042.79 302.66 1041.25 301.75
  Q 1040.49 291.15 1041.07 287.02
  Q 1042.70 275.41 1041.45 263.91
  C 1040.90 258.79 1039.17 254.32 1036.39 250.50
  A 0.84 0.84 0.0 0 0 1034.95 250.63
  Q 1034.73 251.08 1034.78 251.75
  C 1035.20 257.95 1035.85 267.55 1034.32 275.19
  Q 1032.72 283.15 1032.07 285.32
  Q 1029.35 294.44 1028.72 296.98
  C 1027.07 303.65 1022.91 311.26 1021.12 318.49
  Q 1017.66 332.44 1016.98 345.32
  Q 1016.00 363.76 1023.31 383.50
  C 1027.81 395.67 1034.82 405.76 1044.10 413.99
  Q 1053.67 422.48 1060.97 426.16
  Q 1068.88 430.15 1075.56 433.36
  C 1080.85 435.91 1086.46 439.85 1091.82 443.21
  Q 1093.89 445.35 1097.75 443.63
  Q 1108.89 441.32 1117.89 435.63
  Q 1123.54 432.07 1136.18 423.21
  C 1141.44 419.53 1145.16 416.11 1150.79 411.53
  Q 1157.42 406.13 1164.91 397.43
  Q 1171.21 390.11 1175.87 380.10
  Q 1183.13 364.49 1186.00 347.38
  Q 1187.21 340.16 1187.19 328.59
  Q 1187.16 316.45 1186.65 309.76
  Q 1186.28 304.82 1184.79 294.99
  Q 1184.27 291.55 1182.84 289.43
  A 0.65 0.65 0.0 0 0 1181.66 289.71
  L 1180.37 299.63
  A 1.11 0.90 -39.1 0 1 1180.32 299.87
  L 1176.41 314.29
  Q 1175.07 313.95 1175.32 312.76
  C 1176.07 309.21 1177.02 305.26 1176.90 301.55
  C 1176.73 296.54 1177.99 288.97 1175.91 282.76
  Q 1175.37 281.12 1171.09 275.08
  Q 1166.96 269.25 1163.32 262.70
  Q 1158.86 257.09 1158.63 251.07
  Q 1158.13 237.98 1158.03 236.75
  Q 1157.94 235.75 1157.34 235.73
  A 0.73 0.72 14.5 0 0 1156.66 236.13
  L 1154.86 239.69
  A 9.11 8.96 -27.9 0 0 1153.97 242.51
  Q 1152.56 252.67 1149.04 261.64
  C 1148.37 263.35 1147.60 266.89 1147.81 268.23
  Q 1148.91 275.45 1150.78 282.58
  C 1151.07 288.39 1146.63 293.63 1143.00 297.75
  Q 1140.73 300.33 1137.76 301.15
  Q 1139.24 293.90 1139.32 292.00
  Q 1139.79 280.98 1140.36 273.85
  Q 1140.89 267.24 1140.74 261.66
  C 1140.50 253.05 1141.13 245.99 1140.21 238.55
  Q 1139.62 233.82 1139.30 227.72
  A 0.72 0.72 0.0 0 0 1137.88 227.59
  Q 1136.38 233.96 1133.98 240.01
  C 1132.83 242.92 1129.19 249.70 1126.21 250.83
  A 0.16 0.15 -11.5 0 1 1125.99 250.69
  Q 1125.58 235.91 1122.87 222.45
  Q 1121.79 217.11 1118.47 206.92
  C 1115.04 196.37 1113.37 191.56 1110.62 183.90
  Q 1107.87 176.21 1106.11 168.16
  Q 1104.43 160.46 1104.56 155.77
  Q 1104.85 144.59 1106.11 137.33
  A 0.72 0.72 0.0 0 0 1104.83 136.78
  Q 1099.56 143.71 1096.88 153.04
  Q 1095.17 158.98 1095.60 167.10
  Q 1096.09 176.43 1096.81 181.26
  C 1098.13 190.18 1100.72 199.31 1101.86 208.87
  Q 1103.85 225.56 1103.99 228.28
  Q 1105.10 249.05 1099.21 270.64
  Q 1098.39 273.62 1097.12 276.50
  C 1095.95 279.14 1094.51 283.55 1092.22 283.53
  A 0.72 0.71 -3.2 0 1 1091.52 282.91
  Q 1091.51 282.79 1090.86 268.38
  C 1090.28 255.55 1088.91 241.57 1083.43 230.17
  Q 1083.31 229.91 1083.07 229.74
  A 0.53 0.52 20.9 0 0 1082.25 230.10
  Q 1081.24 238.80 1081.41 245.78
  C 1081.51 249.55 1080.78 253.31 1080.01 257.04
  Z"
/>
<path fill="#fee904" d="
  M 885.81 676.99
  Q 765.81 676.86 645.75 676.97
  Q 644.83 676.97 644.00 677.43
  Q 643.50 677.23 643.50 676.75
  Q 643.52 661.84 643.49 643.59
  A 0.91 0.91 0.0 0 1 644.40 642.67
  L 668.02 642.67
  A 0.66 0.66 0.0 0 0 668.68 642.08
  L 685.04 486.66
  A 0.78 0.77 -87.0 0 0 684.28 485.80
  L 667.83 485.80
  A 0.73 0.73 0.0 0 1 667.10 485.07
  L 667.10 452.79
  A 0.75 0.75 0.0 0 1 667.85 452.04
  L 687.39 452.04
  A 0.57 0.56 -87.2 0 0 687.95 451.53
  L 704.85 291.05
  A 0.79 0.78 -87.0 0 0 704.07 290.18
  L 688.59 290.18
  A 0.41 0.41 0.0 0 1 688.18 289.77
  L 688.18 265.26
  A 0.66 0.66 0.0 0 1 688.84 264.60
  L 706.62 264.60
  A 0.71 0.70 -86.8 0 0 707.32 263.97
  L 723.88 106.66
  A 0.85 0.85 0.0 0 0 723.04 105.72
  L 715.46 105.72
  A 0.65 0.65 0.0 0 1 714.81 105.07
  L 714.81 86.27
  A 0.76 0.75 -90.0 0 1 715.56 85.51
  L 725.65 85.51
  A 0.60 0.60 0.0 0 0 726.25 84.98
  L 727.00 77.81
  A 1.61 1.61 0.0 0 1 728.14 76.43
  L 742.12 72.08
  A 0.57 0.57 0.0 0 1 742.85 72.69
  L 741.53 85.21
  A 0.39 0.39 0.0 0 0 741.92 85.64
  L 787.04 85.64
  A 0.60 0.58 87.3 0 0 787.62 84.99
  L 786.29 72.49
  A 0.64 0.63 -83.8 0 1 787.12 71.82
  L 801.97 76.84
  A 1.56 1.56 0.0 0 1 803.03 78.32
  L 803.03 84.97
  A 0.70 0.70 0.0 0 0 803.73 85.67
  L 813.18 85.67
  A 0.78 0.78 0.0 0 1 813.96 86.45
  L 813.96 104.77
  A 0.97 0.97 0.0 0 1 812.99 105.74
  L 805.27 105.74
  A 0.45 0.45 0.0 0 0 804.82 106.24
  L 821.60 264.43
  A 0.22 0.22 0.0 0 0 821.82 264.63
  L 840.14 264.63
  A 0.45 0.45 0.0 0 1 840.59 265.08
  L 840.59 289.32
  A 0.84 0.83 90.0 0 1 839.76 290.16
  L 824.48 290.16
  A 0.54 0.54 0.0 0 0 823.94 290.76
  L 840.99 451.56
  A 0.60 0.59 86.7 0 0 841.58 452.09
  L 861.22 452.09
  A 0.41 0.41 0.0 0 1 861.63 452.50
  L 861.63 485.05
  A 0.70 0.69 -90.0 0 1 860.94 485.75
  L 844.91 485.75
  A 0.76 0.76 0.0 0 0 844.15 486.58
  L 860.64 641.99
  A 0.83 0.82 86.9 0 0 861.46 642.73
  L 885.14 642.73
  A 0.65 0.65 0.0 0 1 885.79 643.38
  L 885.81 676.99
  Z
  M 805.54 264.63
  A 0.89 0.89 0.0 0 0 806.43 263.65
  L 789.75 106.45
  A 0.89 0.89 0.0 0 0 788.87 105.65
  L 740.10 105.65
  A 0.89 0.89 0.0 0 0 739.22 106.45
  L 722.66 263.65
  A 0.89 0.89 0.0 0 0 723.55 264.63
  L 805.54 264.63
  Z
  M 825.38 452.15
  A 0.69 0.69 0.0 0 0 826.07 451.39
  L 809.05 290.80
  A 0.69 0.69 0.0 0 0 808.36 290.18
  L 720.86 290.18
  A 0.69 0.69 0.0 0 0 720.17 290.80
  L 703.27 451.39
  A 0.69 0.69 0.0 0 0 703.96 452.15
  L 825.38 452.15
  Z
  M 845.04 642.73
  A 0.86 0.86 0.0 0 0 845.90 641.78
  L 829.43 486.51
  A 0.86 0.86 0.0 0 0 828.58 485.74
  L 701.10 485.74
  A 0.86 0.86 0.0 0 0 700.25 486.51
  L 683.90 641.78
  A 0.86 0.86 0.0 0 0 684.76 642.73
  L 845.04 642.73
  Z"
/>
<path fill="#04a4ea" d="
  M 805.54 264.63
  L 723.55 264.63
  A 0.89 0.89 0.0 0 1 722.66 263.65
  L 739.22 106.45
  A 0.89 0.89 0.0 0 1 740.10 105.65
  L 788.87 105.65
  A 0.89 0.89 0.0 0 1 789.75 106.45
  L 806.43 263.65
  A 0.89 0.89 0.0 0 1 805.54 264.63
  Z"
/>
<path fill="#fee904" d="
  M 451.02 250.19
  Q 450.30 250.91 450.38 251.65
  A 0.39 0.39 0.0 0 0 450.99 251.93
  Q 451.51 251.57 451.70 250.66
  C 455.40 249.35 459.14 241.50 459.88 238.88
  Q 461.94 231.55 462.78 227.56
  A 0.70 0.70 0.0 0 1 464.16 227.59
  Q 465.26 233.95 465.94 244.55
  Q 466.75 257.28 465.14 283.24
  Q 464.47 294.11 463.18 300.54
  Q 462.43 304.54 461.01 308.48
  Q 459.93 311.48 459.09 313.95
  Q 455.50 324.49 455.17 325.80
  C 454.50 328.46 453.41 329.85 451.94 332.52
  A 6.04 5.77 67.2 0 0 451.33 334.12
  C 450.06 339.70 446.80 344.58 444.84 349.58
  C 440.91 359.58 438.84 364.50 435.43 374.35
  Q 433.01 381.32 426.76 400.34
  A 3.91 3.77 58.0 0 0 426.56 401.29
  C 426.02 406.94 424.65 411.81 424.35 417.42
  Q 424.12 421.88 423.54 427.80
  Q 423.48 428.38 422.93 428.29
  Q 422.39 428.21 422.33 427.67
  C 421.03 416.87 418.14 408.29 413.92 397.44
  C 412.49 393.74 412.03 390.70 411.24 387.46
  A 5.75 5.51 25.3 0 0 410.72 386.10
  Q 408.02 381.17 406.42 375.39
  Q 404.96 370.13 403.20 364.89
  Q 398.76 351.69 397.87 346.93
  Q 396.66 340.47 394.97 328.98
  C 394.07 322.89 394.44 317.19 393.79 312.05
  A 14.25 14.06 46.5 0 1 393.87 307.95
  C 394.28 305.45 394.55 303.84 394.29 300.99
  Q 393.94 296.97 394.46 294.49
  Q 396.60 284.39 401.02 274.52
  Q 402.92 270.28 403.75 266.99
  Q 404.84 262.67 404.97 259.06
  C 406.48 252.91 407.84 247.02 406.98 241.03
  A 0.85 0.85 0.0 0 1 406.98 240.77
  L 408.23 230.32
  A 0.65 0.65 0.0 0 1 409.24 229.86
  Q 409.26 229.88 409.52 230.46
  Q 411.92 235.85 413.18 242.47
  Q 416.68 260.92 416.78 279.79
  L 416.01 284.80
  A 0.88 0.88 0.0 0 0 417.23 285.75
  Q 418.82 285.06 421.39 284.96
  A 0.53 0.53 0.0 0 0 421.48 283.92
  Q 421.31 283.88 421.30 283.88
  A 0.71 0.63 12.3 0 1 420.87 283.29
  L 420.77 280.70
  Q 425.90 269.79 427.69 257.54
  Q 428.99 248.67 429.75 239.73
  Q 429.94 237.39 429.83 236.00
  Q 428.95 224.73 428.68 221.01
  Q 427.51 204.84 423.18 186.15
  Q 422.18 181.84 421.38 167.67
  C 420.78 156.95 423.88 145.15 430.85 136.61
  A 0.63 0.59 44.6 0 1 431.79 136.63
  Q 431.88 136.75 431.86 137.00
  C 430.63 148.30 429.51 156.52 431.62 166.38
  Q 433.67 176.01 437.10 185.69
  Q 441.83 199.04 446.06 213.65
  Q 450.40 228.67 451.11 245.25
  Q 451.22 247.78 451.02 250.19
  Z"
/>
<path fill="#fee904" d="
  M 1137.76 301.15
  Q 1136.59 307.41 1134.71 311.46
  Q 1132.34 316.57 1131.68 320.52
  A 5.66 5.19 -32.2 0 1 1131.39 321.58
  C 1129.50 326.58 1126.74 334.14 1124.19 339.45
  Q 1118.30 351.73 1115.75 358.69
  C 1113.25 365.52 1110.18 370.62 1108.11 377.85
  Q 1107.90 378.57 1102.15 397.39
  A 5.80 5.47 69.8 0 1 1101.71 398.42
  Q 1100.26 400.97 1100.32 402.56
  Q 1100.57 408.88 1098.99 414.19
  A 7.43 7.24 -35.7 0 0 1098.69 415.88
  Q 1098.10 425.09 1098.09 426.50
  Q 1098.08 427.62 1097.73 428.30
  A 0.36 0.35 -38.0 0 1 1097.07 428.22
  C 1095.82 423.14 1095.40 418.37 1093.83 413.51
  Q 1092.08 408.11 1090.80 402.53
  A 5.98 5.90 26.2 0 0 1090.35 401.24
  Q 1090.02 400.54 1087.08 394.46
  Q 1086.44 393.14 1085.07 386.14
  A 5.60 5.27 -64.3 0 0 1084.70 384.97
  Q 1079.47 373.12 1075.68 359.15
  Q 1072.73 348.31 1072.27 346.21
  C 1071.17 341.24 1070.77 336.26 1070.04 333.01
  C 1068.28 325.19 1068.22 316.06 1068.98 308.78
  C 1069.32 305.57 1068.32 302.88 1068.65 299.83
  Q 1069.90 288.63 1071.66 284.15
  Q 1074.73 276.35 1077.32 271.05
  Q 1078.39 268.87 1078.43 267.62
  Q 1078.62 262.30 1080.01 257.04
  C 1080.78 253.31 1081.51 249.55 1081.41 245.78
  Q 1081.24 238.80 1082.25 230.10
  A 0.53 0.52 20.9 0 1 1083.07 229.74
  Q 1083.31 229.91 1083.43 230.17
  C 1088.91 241.57 1090.28 255.55 1090.86 268.38
  Q 1091.51 282.79 1091.52 282.91
  A 0.72 0.71 -3.2 0 0 1092.22 283.53
  C 1094.51 283.55 1095.95 279.14 1097.12 276.50
  Q 1098.39 273.62 1099.21 270.64
  Q 1105.10 249.05 1103.99 228.28
  Q 1103.85 225.56 1101.86 208.87
  C 1100.72 199.31 1098.13 190.18 1096.81 181.26
  Q 1096.09 176.43 1095.60 167.10
  Q 1095.17 158.98 1096.88 153.04
  Q 1099.56 143.71 1104.83 136.78
  A 0.72 0.72 0.0 0 1 1106.11 137.33
  Q 1104.85 144.59 1104.56 155.77
  Q 1104.43 160.46 1106.11 168.16
  Q 1107.87 176.21 1110.62 183.90
  C 1113.37 191.56 1115.04 196.37 1118.47 206.92
  Q 1121.79 217.11 1122.87 222.45
  Q 1125.58 235.91 1125.99 250.69
  A 0.16 0.15 -11.5 0 0 1126.21 250.83
  C 1129.19 249.70 1132.83 242.92 1133.98 240.01
  Q 1136.38 233.96 1137.88 227.59
  A 0.72 0.72 0.0 0 1 1139.30 227.72
  Q 1139.62 233.82 1140.21 238.55
  C 1141.13 245.99 1140.50 253.05 1140.74 261.66
  Q 1140.89 267.24 1140.36 273.85
  Q 1139.79 280.98 1139.32 292.00
  Q 1139.24 293.90 1137.76 301.15
  Z"
/>
<path fill="#fee904" d="
  M 398.46 229.89
  Q 396.38 236.20 394.39 242.57
  Q 393.57 245.22 392.06 248.12
  Q 389.50 253.02 390.24 259.01
  Q 390.92 264.56 390.57 271.48
  Q 390.54 272.13 389.87 272.10
  Q 389.46 272.08 389.13 271.64
  Q 385.56 266.91 382.07 262.27
  Q 378.94 252.00 378.66 246.50
  Q 377.99 233.22 386.30 223.54
  Q 390.04 219.18 391.27 217.58
  Q 397.47 209.56 397.72 199.62
  A 0.47 0.47 0.0 0 1 398.42 199.21
  L 398.45 199.23
  A 1.39 1.37 12.4 0 1 399.16 200.32
  Q 400.05 209.76 399.03 218.04
  C 398.55 221.91 398.59 225.91 398.46 229.89
  Z"
/>
<path fill="#fee904" d="
  M 1072.65 230.18
  L 1067.47 246.28
  A 4.19 4.12 -19.5 0 1 1066.96 247.33
  Q 1064.14 251.60 1064.66 258.00
  Q 1065.23 265.00 1065.08 272.25
  A 0.42 0.41 27.7 0 1 1064.33 272.48
  L 1056.76 262.26
  Q 1053.47 252.17 1053.13 247.50
  Q 1053.05 246.36 1053.91 237.84
  C 1054.43 232.70 1056.83 227.64 1059.63 224.62
  Q 1064.64 219.23 1065.81 217.60
  Q 1071.66 209.35 1072.48 199.62
  A 0.58 0.57 6.2 0 1 1073.13 199.10
  L 1073.15 199.11
  A 0.75 0.75 0.0 0 1 1073.79 199.80
  Q 1074.57 210.85 1072.85 221.62
  Q 1072.45 224.17 1072.65 230.18
  Z"
/>
<path fill="#fd9008" d="
  M 404.97 259.06
  Q 404.84 262.67 403.75 266.99
  Q 402.92 270.28 401.02 274.52
  Q 396.60 284.39 394.46 294.49
  Q 393.94 296.97 394.29 300.99
  C 394.55 303.84 394.28 305.45 393.87 307.95
  A 14.25 14.06 46.5 0 0 393.79 312.05
  C 394.44 317.19 394.07 322.89 394.97 328.98
  Q 396.66 340.47 397.87 346.93
  Q 398.76 351.69 403.20 364.89
  Q 404.96 370.13 406.42 375.39
  Q 408.02 381.17 410.72 386.10
  A 5.75 5.51 25.3 0 1 411.24 387.46
  C 412.03 390.70 412.49 393.74 413.92 397.44
  C 418.14 408.29 421.03 416.87 422.33 427.67
  Q 422.39 428.21 422.93 428.29
  Q 423.48 428.38 423.54 427.80
  Q 424.12 421.88 424.35 417.42
  C 424.65 411.81 426.02 406.94 426.56 401.29
  A 3.91 3.77 58.0 0 1 426.76 400.34
  Q 433.01 381.32 435.43 374.35
  C 438.84 364.50 440.91 359.58 444.84 349.58
  C 446.80 344.58 450.06 339.70 451.33 334.12
  A 6.04 5.77 67.2 0 1 451.94 332.52
  C 453.41 329.85 454.50 328.46 455.17 325.80
  Q 455.50 324.49 459.09 313.95
  Q 459.93 311.48 461.01 308.48
  Q 462.43 304.54 463.18 300.54
  Q 466.27 300.08 468.59 297.57
  C 472.44 293.41 476.61 288.14 476.25 282.32
  L 477.80 288.37
  A 2.06 1.97 -53.2 0 1 477.86 288.86
  C 477.88 295.52 478.61 302.44 477.47 308.97
  A 0.30 0.29 72.4 0 0 477.97 309.23
  C 483.72 303.32 487.53 294.19 489.78 286.44
  A 3.07 3.06 52.1 0 0 489.90 285.46
  L 489.78 281.18
  A 3.98 3.90 -36.3 0 1 490.02 279.72
  Q 491.13 276.69 490.62 274.72
  Q 488.56 266.81 488.25 262.13
  Q 490.84 265.53 492.54 269.08
  A 4.60 4.15 -78.9 0 0 493.02 269.88
  Q 498.64 277.44 501.81 284.45
  Q 503.84 288.93 503.27 294.50
  Q 502.27 304.47 500.79 315.21
  Q 500.53 320.29 498.42 324.18
  Q 496.34 328.00 490.06 333.56
  Q 488.67 334.79 483.36 343.59
  A 0.29 0.24 85.3 0 1 483.31 343.66
  L 476.43 352.25
  A 0.66 0.66 0.0 0 1 475.26 351.89
  L 474.63 344.09
  A 1.03 0.87 51.6 0 1 474.64 343.78
  Q 476.47 331.82 471.79 317.72
  A 0.97 0.97 0.0 0 0 469.97 317.66
  Q 469.83 318.00 469.80 318.56
  Q 469.11 333.06 462.76 343.89
  A 6.25 6.12 68.6 0 0 462.12 345.40
  C 460.29 352.11 457.03 359.31 456.31 366.88
  C 455.92 371.11 454.67 374.55 453.70 378.10
  A 6.23 5.87 -36.2 0 0 453.52 379.07
  C 453.35 380.85 453.44 382.20 453.06 384.11
  Q 450.82 395.38 446.85 405.67
  C 443.51 414.30 439.67 423.05 433.92 429.65
  Q 429.83 434.36 421.83 442.64
  A 0.46 0.45 -28.0 0 0 421.70 443.04
  Q 421.82 443.71 422.76 443.64
  Q 418.91 445.54 416.08 442.27
  L 418.93 443.29
  A 0.79 0.79 0.0 0 0 419.94 442.28
  Q 419.59 441.27 418.82 440.19
  Q 412.48 431.30 406.28 422.45
  C 402.21 416.63 399.32 409.32 396.37 402.43
  C 394.49 398.04 393.38 392.35 391.80 387.57
  Q 389.26 379.91 388.38 374.67
  Q 385.83 359.50 385.57 345.05
  C 385.35 333.15 387.04 320.13 384.83 308.11
  Q 383.37 300.19 382.87 298.36
  A 0.53 0.52 -49.9 0 0 381.84 298.45
  L 381.28 304.04
  A 1.36 1.14 -39.8 0 1 381.24 304.26
  Q 379.03 312.50 376.57 320.47
  C 375.42 324.21 373.33 327.37 370.69 330.04
  A 0.61 0.61 0.0 0 1 369.66 329.75
  Q 366.67 316.70 366.54 303.02
  Q 369.54 302.33 371.20 298.75
  Q 377.63 284.84 379.66 277.30
  C 380.37 274.68 380.42 272.43 380.59 270.38
  A 7.56 7.26 -34.9 0 1 380.92 268.73
  Q 381.98 265.52 382.07 262.27
  Q 385.56 266.91 389.13 271.64
  Q 389.46 272.08 389.87 272.10
  Q 390.54 272.13 390.57 271.48
  Q 390.92 264.56 390.24 259.01
  Q 389.50 253.02 392.06 248.12
  Q 393.57 245.22 394.39 242.57
  Q 396.38 236.20 398.46 229.89
  Q 399.75 229.63 400.39 229.97
  Q 401.09 230.34 400.62 231.66
  Q 399.12 235.95 399.89 241.72
  Q 401.25 251.91 404.97 259.06
  Z"
/>
<path fill="#fd9008" d="
  M 1072.65 230.18
  L 1075.31 230.04
  A 0.67 0.66 -72.3 0 1 1075.86 231.12
  C 1073.86 233.64 1073.37 236.26 1073.84 239.63
  Q 1075.05 248.44 1078.02 257.18
  A 1.39 1.39 0.0 0 0 1079.53 258.11
  Q 1079.70 258.09 1080.01 257.04
  Q 1078.62 262.30 1078.43 267.62
  Q 1078.39 268.87 1077.32 271.05
  Q 1074.73 276.35 1071.66 284.15
  Q 1069.90 288.63 1068.65 299.83
  C 1068.32 302.88 1069.32 305.57 1068.98 308.78
  C 1068.22 316.06 1068.28 325.19 1070.04 333.01
  C 1070.77 336.26 1071.17 341.24 1072.27 346.21
  Q 1072.73 348.31 1075.68 359.15
  Q 1079.47 373.12 1084.70 384.97
  A 5.60 5.27 -64.3 0 1 1085.07 386.14
  Q 1086.44 393.14 1087.08 394.46
  Q 1090.02 400.54 1090.35 401.24
  A 5.98 5.90 26.2 0 1 1090.80 402.53
  Q 1092.08 408.11 1093.83 413.51
  C 1095.40 418.37 1095.82 423.14 1097.07 428.22
  A 0.36 0.35 -38.0 0 0 1097.73 428.30
  Q 1098.08 427.62 1098.09 426.50
  Q 1098.10 425.09 1098.69 415.88
  A 7.43 7.24 -35.7 0 1 1098.99 414.19
  Q 1100.57 408.88 1100.32 402.56
  Q 1100.26 400.97 1101.71 398.42
  A 5.80 5.47 69.8 0 0 1102.15 397.39
  Q 1107.90 378.57 1108.11 377.85
  C 1110.18 370.62 1113.25 365.52 1115.75 358.69
  Q 1118.30 351.73 1124.19 339.45
  C 1126.74 334.14 1129.50 326.58 1131.39 321.58
  A 5.66 5.19 -32.2 0 0 1131.68 320.52
  Q 1132.34 316.57 1134.71 311.46
  Q 1136.59 307.41 1137.76 301.15
  Q 1140.73 300.33 1143.00 297.75
  C 1146.63 293.63 1151.07 288.39 1150.78 282.58
  L 1150.99 285.71
  A 1.52 1.52 0.0 0 0 1151.33 286.58
  Q 1152.25 287.70 1152.40 289.49
  Q 1153.23 299.80 1152.69 308.24
  A 0.33 0.33 0.0 0 0 1153.27 308.47
  Q 1158.63 302.14 1161.93 294.15
  Q 1165.26 286.09 1165.36 278.47
  Q 1165.38 277.05 1164.25 270.61
  Q 1163.58 266.79 1163.32 262.70
  Q 1166.96 269.25 1171.09 275.08
  Q 1175.37 281.12 1175.91 282.76
  C 1177.99 288.97 1176.73 296.54 1176.90 301.55
  C 1177.02 305.26 1176.07 309.21 1175.32 312.76
  Q 1175.07 313.95 1176.41 314.29
  Q 1175.05 320.06 1171.92 325.07
  Q 1170.28 327.70 1166.36 331.80
  Q 1163.44 334.86 1160.92 338.68
  Q 1156.18 345.87 1150.43 352.32
  A 0.60 0.60 0.0 0 1 1149.39 351.93
  Q 1149.19 345.18 1149.53 340.80
  C 1150.24 331.78 1149.11 324.95 1146.49 317.41
  A 0.53 0.53 0.0 0 0 1145.46 317.51
  C 1144.36 325.95 1142.41 333.85 1138.45 341.45
  Q 1134.87 348.32 1132.89 358.34
  C 1131.48 365.47 1129.33 373.20 1128.51 380.43
  C 1127.85 386.27 1125.72 391.89 1124.08 396.82
  C 1123.60 398.26 1123.51 400.20 1122.92 401.76
  C 1120.44 408.24 1118.54 414.02 1114.83 420.33
  C 1111.01 426.80 1109.36 429.63 1104.09 434.35
  C 1101.45 436.72 1098.96 439.74 1096.91 442.12
  Q 1096.30 442.81 1096.91 443.45
  Q 1097.16 443.70 1097.75 443.63
  Q 1093.89 445.35 1091.82 443.21
  Q 1093.47 443.69 1094.28 442.66
  A 0.71 0.70 47.0 0 0 1094.30 441.81
  Q 1083.75 427.17 1078.39 418.10
  Q 1074.45 411.42 1070.91 401.81
  Q 1062.41 378.70 1060.23 354.24
  C 1059.71 348.41 1059.97 339.34 1060.32 329.78
  Q 1060.90 313.92 1057.49 298.86
  A 0.68 0.68 0.0 0 0 1056.15 298.97
  Q 1055.69 307.29 1052.31 315.79
  Q 1051.19 318.62 1051.08 319.51
  C 1050.56 323.54 1048.32 327.36 1045.26 329.96
  A 0.83 0.83 0.0 0 1 1043.90 329.46
  Q 1042.26 318.76 1041.20 309.50
  Q 1040.88 306.70 1041.25 301.75
  Q 1042.79 302.66 1044.21 301.98
  A 1.42 1.40 -89.2 0 0 1044.88 301.32
  Q 1051.38 288.51 1054.22 275.98
  Q 1054.85 273.20 1056.76 262.26
  L 1064.33 272.48
  A 0.42 0.41 27.7 0 0 1065.08 272.25
  Q 1065.23 265.00 1064.66 258.00
  Q 1064.14 251.60 1066.96 247.33
  A 4.19 4.12 -19.5 0 0 1067.47 246.28
  L 1072.65 230.18
  Z"
/>
<path fill="#fee904" d="
  M 488.25 262.13
  Q 488.56 266.81 490.62 274.72
  Q 491.13 276.69 490.02 279.72
  A 3.98 3.90 -36.3 0 0 489.78 281.18
  L 489.90 285.46
  A 3.07 3.06 52.1 0 1 489.78 286.44
  C 487.53 294.19 483.72 303.32 477.97 309.23
  A 0.30 0.29 72.4 0 1 477.47 308.97
  C 478.61 302.44 477.88 295.52 477.86 288.86
  A 2.06 1.97 -53.2 0 0 477.80 288.37
  L 476.25 282.32
  Q 474.01 275.21 473.44 267.75
  Q 473.30 265.79 474.38 262.07
  Q 476.88 253.57 477.99 250.19
  A 4.23 4.19 56.0 0 0 478.20 249.08
  Q 478.56 242.65 481.62 236.37
  Q 481.93 235.74 482.28 235.61
  A 0.90 0.85 81.3 0 1 483.42 236.50
  Q 483.25 242.55 483.61 247.48
  Q 484.21 255.74 488.25 262.13
  Z"
/>
<path fill="#fee904" d="
  M 1163.32 262.70
  Q 1163.58 266.79 1164.25 270.61
  Q 1165.38 277.05 1165.36 278.47
  Q 1165.26 286.09 1161.93 294.15
  Q 1158.63 302.14 1153.27 308.47
  A 0.33 0.33 0.0 0 1 1152.69 308.24
  Q 1153.23 299.80 1152.40 289.49
  Q 1152.25 287.70 1151.33 286.58
  A 1.52 1.52 0.0 0 1 1150.99 285.71
  L 1150.78 282.58
  Q 1148.91 275.45 1147.81 268.23
  C 1147.60 266.89 1148.37 263.35 1149.04 261.64
  Q 1152.56 252.67 1153.97 242.51
  A 9.11 8.96 -27.9 0 1 1154.86 239.69
  L 1156.66 236.13
  A 0.73 0.72 14.5 0 1 1157.34 235.73
  Q 1157.94 235.75 1158.03 236.75
  Q 1158.13 237.98 1158.63 251.07
  Q 1158.86 257.09 1163.32 262.70
  Z"
/>
<path fill="#fee904" d="
  M 366.54 303.02
  Q 366.67 316.70 369.66 329.75
  A 0.61 0.61 0.0 0 0 370.69 330.04
  C 373.33 327.37 375.42 324.21 376.57 320.47
  Q 379.03 312.50 381.24 304.26
  A 1.36 1.14 -39.8 0 0 381.28 304.04
  L 381.84 298.45
  A 0.53 0.52 -49.9 0 1 382.87 298.36
  Q 383.37 300.19 384.83 308.11
  C 387.04 320.13 385.35 333.15 385.57 345.05
  Q 385.83 359.50 388.38 374.67
  Q 389.26 379.91 391.80 387.57
  C 393.38 392.35 394.49 398.04 396.37 402.43
  C 399.32 409.32 402.21 416.63 406.28 422.45
  Q 412.48 431.30 418.82 440.19
  Q 419.59 441.27 419.94 442.28
  A 0.79 0.79 0.0 0 1 418.93 443.29
  L 416.08 442.27
  Q 412.00 439.83 407.98 437.31
  C 399.75 432.16 389.13 427.81 382.49 423.74
  Q 355.37 407.14 345.86 376.67
  C 344.05 370.86 342.47 363.88 342.03 357.66
  Q 340.82 340.51 344.52 323.76
  Q 345.88 317.64 350.54 305.85
  Q 353.97 297.18 356.79 286.85
  Q 358.39 281.00 360.25 271.84
  A 8.18 7.89 -39.9 0 0 360.41 270.35
  Q 360.45 263.37 360.32 253.39
  Q 360.31 252.64 361.26 250.16
  A 0.42 0.42 0.0 0 1 361.96 250.02
  Q 363.17 251.31 363.94 253.31
  Q 366.33 259.56 367.30 265.92
  Q 367.90 269.83 367.01 279.49
  Q 365.93 291.21 366.54 303.02
  Z"
/>
<path fill="#fd9008" d="
  M 451.02 250.19
  Q 451.06 250.69 451.70 250.66
  Q 451.51 251.57 450.99 251.93
  A 0.39 0.39 0.0 0 1 450.38 251.65
  Q 450.30 250.91 451.02 250.19
  Z"
/>
<path fill="#fee904" d="
  M 1041.25 301.75
  Q 1040.88 306.70 1041.20 309.50
  Q 1042.26 318.76 1043.90 329.46
  A 0.83 0.83 0.0 0 0 1045.26 329.96
  C 1048.32 327.36 1050.56 323.54 1051.08 319.51
  Q 1051.19 318.62 1052.31 315.79
  Q 1055.69 307.29 1056.15 298.97
  A 0.68 0.68 0.0 0 1 1057.49 298.86
  Q 1060.90 313.92 1060.32 329.78
  C 1059.97 339.34 1059.71 348.41 1060.23 354.24
  Q 1062.41 378.70 1070.91 401.81
  Q 1074.45 411.42 1078.39 418.10
  Q 1083.75 427.17 1094.30 441.81
  A 0.71 0.70 47.0 0 1 1094.28 442.66
  Q 1093.47 443.69 1091.82 443.21
  C 1086.46 439.85 1080.85 435.91 1075.56 433.36
  Q 1068.88 430.15 1060.97 426.16
  Q 1053.67 422.48 1044.10 413.99
  C 1034.82 405.76 1027.81 395.67 1023.31 383.50
  Q 1016.00 363.76 1016.98 345.32
  Q 1017.66 332.44 1021.12 318.49
  C 1022.91 311.26 1027.07 303.65 1028.72 296.98
  Q 1029.35 294.44 1032.07 285.32
  Q 1032.72 283.15 1034.32 275.19
  C 1035.85 267.55 1035.20 257.95 1034.78 251.75
  Q 1034.73 251.08 1034.95 250.63
  A 0.84 0.84 0.0 0 1 1036.39 250.50
  C 1039.17 254.32 1040.90 258.79 1041.45 263.91
  Q 1042.70 275.41 1041.07 287.02
  Q 1040.49 291.15 1041.25 301.75
  Z"
/>
<path fill="#fd9008" d="
  M 420.77 280.70
  L 420.87 283.29
  A 0.71 0.63 12.3 0 0 421.30 283.88
  Q 421.31 283.88 421.48 283.92
  A 0.53 0.53 0.0 0 1 421.39 284.96
  Q 418.82 285.06 417.23 285.75
  A 0.88 0.88 0.0 0 1 416.01 284.80
  L 416.78 279.79
  L 417.29 282.65
  A 0.54 0.53 -9.7 0 0 417.91 283.08
  Q 419.51 282.80 420.77 280.70
  Z"
/>
<path fill="#fee904" d="
  M 422.76 443.64
  Q 421.82 443.71 421.70 443.04
  A 0.46 0.45 -28.0 0 1 421.83 442.64
  Q 429.83 434.36 433.92 429.65
  C 439.67 423.05 443.51 414.30 446.85 405.67
  Q 450.82 395.38 453.06 384.11
  C 453.44 382.20 453.35 380.85 453.52 379.07
  A 6.23 5.87 -36.2 0 1 453.70 378.10
  C 454.67 374.55 455.92 371.11 456.31 366.88
  C 457.03 359.31 460.29 352.11 462.12 345.40
  A 6.25 6.12 68.6 0 1 462.76 343.89
  Q 469.11 333.06 469.80 318.56
  Q 469.83 318.00 469.97 317.66
  A 0.97 0.97 0.0 0 1 471.79 317.72
  Q 476.47 331.82 474.64 343.78
  A 1.03 0.87 51.6 0 0 474.63 344.09
  L 475.26 351.89
  A 0.66 0.66 0.0 0 0 476.43 352.25
  L 483.31 343.66
  A 0.29 0.24 85.3 0 0 483.36 343.59
  Q 488.67 334.79 490.06 333.56
  Q 496.34 328.00 498.42 324.18
  Q 500.53 320.29 500.79 315.21
  Q 504.39 309.00 504.72 302.30
  A 1.60 1.36 -40.3 0 1 504.76 302.06
  L 507.67 289.66
  A 0.78 0.78 0.0 0 1 509.16 289.55
  Q 509.95 291.57 510.19 293.03
  Q 512.79 309.23 512.66 330.01
  Q 512.55 349.04 506.32 367.32
  Q 505.98 368.31 501.44 379.20
  C 495.59 393.25 485.40 403.87 474.17 413.44
  Q 460.68 424.94 444.14 435.12
  Q 433.60 441.61 422.76 443.64
  Z"
/>
<path fill="#fee904" d="
  M 1097.75 443.63
  Q 1097.16 443.70 1096.91 443.45
  Q 1096.30 442.81 1096.91 442.12
  C 1098.96 439.74 1101.45 436.72 1104.09 434.35
  C 1109.36 429.63 1111.01 426.80 1114.83 420.33
  C 1118.54 414.02 1120.44 408.24 1122.92 401.76
  C 1123.51 400.20 1123.60 398.26 1124.08 396.82
  C 1125.72 391.89 1127.85 386.27 1128.51 380.43
  C 1129.33 373.20 1131.48 365.47 1132.89 358.34
  Q 1134.87 348.32 1138.45 341.45
  C 1142.41 333.85 1144.36 325.95 1145.46 317.51
  A 0.53 0.53 0.0 0 1 1146.49 317.41
  C 1149.11 324.95 1150.24 331.78 1149.53 340.80
  Q 1149.19 345.18 1149.39 351.93
  A 0.60 0.60 0.0 0 0 1150.43 352.32
  Q 1156.18 345.87 1160.92 338.68
  Q 1163.44 334.86 1166.36 331.80
  Q 1170.28 327.70 1171.92 325.07
  Q 1175.05 320.06 1176.41 314.29
  L 1180.32 299.87
  A 1.11 0.90 -39.1 0 0 1180.37 299.63
  L 1181.66 289.71
  A 0.65 0.65 0.0 0 1 1182.84 289.43
  Q 1184.27 291.55 1184.79 294.99
  Q 1186.28 304.82 1186.65 309.76
  Q 1187.16 316.45 1187.19 328.59
  Q 1187.21 340.16 1186.00 347.38
  Q 1183.13 364.49 1175.87 380.10
  Q 1171.21 390.11 1164.91 397.43
  Q 1157.42 406.13 1150.79 411.53
  C 1145.16 416.11 1141.44 419.53 1136.18 423.21
  Q 1123.54 432.07 1117.89 435.63
  Q 1108.89 441.32 1097.75 443.63
  Z"
/>
<path fill="#04a4ea" d="
  M 825.38 452.15
  L 703.96 452.15
  A 0.69 0.69 0.0 0 1 703.27 451.39
  L 720.17 290.80
  A 0.69 0.69 0.0 0 1 720.86 290.18
  L 808.36 290.18
  A 0.69 0.69 0.0 0 1 809.05 290.80
  L 826.07 451.39
  A 0.69 0.69 0.0 0 1 825.38 452.15
  Z"
/>
<path fill="#04a4ea" d="
  M 845.04 642.73
  L 684.76 642.73
  A 0.86 0.86 0.0 0 1 683.90 641.78
  L 700.25 486.51
  A 0.86 0.86 0.0 0 1 701.10 485.74
  L 828.58 485.74
  A 0.86 0.86 0.0 0 1 829.43 486.51
  L 845.90 641.78
  A 0.86 0.86 0.0 0 1 845.04 642.73
  Z"
/>
<path fill="#fd9008" d="
  M 886.65 677.62
  Q 885.53 678.15 884.24 678.15
  Q 779.75 678.17 675.25 678.18
  Q 653.80 678.18 643.98 677.63
  Q 643.85 677.40 644.00 677.43
  Q 644.83 676.97 645.75 676.97
  Q 765.81 676.86 885.81 676.99
  Q 886.52 677.27 886.65 677.62
  Z"
/>
<path fill="#fee904" d="
  M 643.98 677.63
  Q 653.80 678.18 675.25 678.18
  Q 779.75 678.17 884.24 678.15
  Q 885.53 678.15 886.65 677.62
  L 1514.00 677.62
  L 1514.00 836.22
  C 1502.12 840.24 1490.18 846.75 1479.81 852.37
  C 1466.31 859.67 1453.16 863.28 1438.46 860.41
  Q 1433.62 859.46 1425.11 855.72
  C 1413.34 850.54 1403.22 843.79 1392.44 839.36
  Q 1384.94 836.27 1381.53 835.76
  C 1370.20 834.05 1358.91 835.52 1347.93 840.73
  Q 1336.36 846.21 1335.49 846.74
  Q 1326.36 852.27 1315.60 856.79
  Q 1305.14 861.18 1297.83 861.33
  Q 1286.45 861.56 1277.16 858.05
  Q 1266.35 853.97 1260.53 850.70
  Q 1250.74 845.19 1240.94 840.31
  Q 1232.84 836.28 1223.48 835.10
  C 1213.31 833.83 1201.32 836.31 1192.40 840.66
  Q 1183.76 844.88 1167.25 853.72
  Q 1162.27 856.39 1154.74 858.74
  C 1143.86 862.14 1134.31 862.04 1123.29 858.15
  Q 1111.69 854.06 1105.63 850.58
  Q 1095.37 844.68 1083.29 838.73
  Q 1074.44 834.38 1066.76 833.65
  C 1057.36 832.77 1047.90 833.49 1038.46 837.46
  Q 1028.52 841.65 1024.67 843.69
  Q 1012.98 849.86 1007.29 852.79
  C 998.16 857.50 987.09 861.62 976.83 861.42
  C 963.73 861.18 952.11 855.88 941.51 848.83
  C 934.60 844.22 929.70 841.54 922.97 838.82
  Q 917.93 836.79 914.29 836.44
  Q 900.07 835.09 886.74 840.01
  C 879.85 842.55 874.70 844.22 868.66 847.05
  Q 859.55 851.31 846.08 856.10
  Q 836.56 859.48 827.11 857.29
  Q 814.64 854.40 803.38 848.09
  C 796.03 843.96 792.45 842.39 784.70 838.40
  Q 762.24 826.80 739.15 835.85
  Q 733.18 838.19 728.63 840.62
  C 713.32 848.80 707.80 852.50 695.81 856.32
  Q 685.23 859.69 674.76 857.80
  Q 661.89 855.47 647.49 848.01
  Q 634.38 841.22 625.04 836.94
  Q 613.50 831.64 599.27 832.02
  C 591.66 832.22 584.38 834.75 577.91 837.93
  Q 565.23 844.17 553.67 850.63
  Q 545.99 854.92 535.15 857.53
  C 525.51 859.85 516.62 857.37 507.68 854.23
  Q 502.49 852.42 494.56 847.84
  Q 484.51 842.04 476.91 838.13
  C 464.49 831.76 450.62 829.98 437.34 834.32
  Q 428.17 837.32 426.29 838.29
  C 416.26 843.46 412.30 845.31 403.97 849.66
  Q 393.66 855.05 382.03 857.54
  Q 372.52 859.57 362.57 856.88
  Q 350.14 853.52 339.46 847.46
  C 331.37 842.87 321.66 837.97 314.80 835.20
  Q 307.21 832.14 297.88 832.14
  C 292.36 832.14 288.35 832.18 283.56 833.55
  C 272.59 836.69 265.40 841.16 251.44 848.58
  C 237.81 855.82 223.12 861.33 208.02 856.71
  Q 194.78 852.65 183.55 845.96
  C 174.47 840.56 166.41 836.26 159.24 833.76
  Q 153.61 831.80 145.13 831.98
  C 138.97 832.12 133.59 832.50 127.76 834.28
  C 106.78 840.69 88.32 854.73 66.98 857.96
  C 56.25 859.58 44.09 857.06 33.73 852.79
  C 22.24 848.05 11.03 841.47 0.00 835.48
  L 0.00 677.58
  L 643.98 677.63
  Z"
/>
<path fill="#211e1e" d="
  M 1514.00 836.22
  L 1514.00 1039.00
  L 0.00 1039.00
  L 0.00 835.48
  C 11.03 841.47 22.24 848.05 33.73 852.79
  C 44.09 857.06 56.25 859.58 66.98 857.96
  C 88.32 854.73 106.78 840.69 127.76 834.28
  C 133.59 832.50 138.97 832.12 145.13 831.98
  Q 153.61 831.80 159.24 833.76
  C 166.41 836.26 174.47 840.56 183.55 845.96
  Q 194.78 852.65 208.02 856.71
  C 223.12 861.33 237.81 855.82 251.44 848.58
  C 265.40 841.16 272.59 836.69 283.56 833.55
  C 288.35 832.18 292.36 832.14 297.88 832.14
  Q 307.21 832.14 314.80 835.20
  C 321.66 837.97 331.37 842.87 339.46 847.46
  Q 350.14 853.52 362.57 856.88
  Q 372.52 859.57 382.03 857.54
  Q 393.66 855.05 403.97 849.66
  C 412.30 845.31 416.26 843.46 426.29 838.29
  Q 428.17 837.32 437.34 834.32
  C 450.62 829.98 464.49 831.76 476.91 838.13
  Q 484.51 842.04 494.56 847.84
  Q 502.49 852.42 507.68 854.23
  C 516.62 857.37 525.51 859.85 535.15 857.53
  Q 545.99 854.92 553.67 850.63
  Q 565.23 844.17 577.91 837.93
  C 584.38 834.75 591.66 832.22 599.27 832.02
  Q 613.50 831.64 625.04 836.94
  Q 634.38 841.22 647.49 848.01
  Q 661.89 855.47 674.76 857.80
  Q 685.23 859.69 695.81 856.32
  C 707.80 852.50 713.32 848.80 728.63 840.62
  Q 733.18 838.19 739.15 835.85
  Q 762.24 826.80 784.70 838.40
  C 792.45 842.39 796.03 843.96 803.38 848.09
  Q 814.64 854.40 827.11 857.29
  Q 836.56 859.48 846.08 856.10
  Q 859.55 851.31 868.66 847.05
  C 874.70 844.22 879.85 842.55 886.74 840.01
  Q 900.07 835.09 914.29 836.44
  Q 917.93 836.79 922.97 838.82
  C 929.70 841.54 934.60 844.22 941.51 848.83
  C 952.11 855.88 963.73 861.18 976.83 861.42
  C 987.09 861.62 998.16 857.50 1007.29 852.79
  Q 1012.98 849.86 1024.67 843.69
  Q 1028.52 841.65 1038.46 837.46
  C 1047.90 833.49 1057.36 832.77 1066.76 833.65
  Q 1074.44 834.38 1083.29 838.73
  Q 1095.37 844.68 1105.63 850.58
  Q 1111.69 854.06 1123.29 858.15
  C 1134.31 862.04 1143.86 862.14 1154.74 858.74
  Q 1162.27 856.39 1167.25 853.72
  Q 1183.76 844.88 1192.40 840.66
  C 1201.32 836.31 1213.31 833.83 1223.48 835.10
  Q 1232.84 836.28 1240.94 840.31
  Q 1250.74 845.19 1260.53 850.70
  Q 1266.35 853.97 1277.16 858.05
  Q 1286.45 861.56 1297.83 861.33
  Q 1305.14 861.18 1315.60 856.79
  Q 1326.36 852.27 1335.49 846.74
  Q 1336.36 846.21 1347.93 840.73
  C 1358.91 835.52 1370.20 834.05 1381.53 835.76
  Q 1384.94 836.27 1392.44 839.36
  C 1403.22 843.79 1413.34 850.54 1425.11 855.72
  Q 1433.62 859.46 1438.46 860.41
  C 1453.16 863.28 1466.31 859.67 1479.81 852.37
  C 1490.18 846.75 1502.12 840.24 1514.00 836.22
  Z"
/>
</svg>
